STARTFONT 2.1
COMMENT Lumiplan font build using LumiStudio
FONT Duhamel 16/14 4-Bold
SIZE 16 75 75
FONTBOUNDINGBOX 12 16 0 0
STARTPROPERTIES 1
Copyright "Copyright (c) 2021 Lumiplan"
ENDPROPERTIES
CHARS 189
STARTCHAR 
ENCODING 14
SWIDTH 75 0
DWIDTH -1 0
BBX 0 0 1 15
ENDCHAR
STARTCHAR  
ENCODING 32
SWIDTH 75 0
DWIDTH -1 0
BBX 0 0 2 15
ENDCHAR
STARTCHAR !
ENCODING 33
SWIDTH 75 0
DWIDTH -1 0
BBX 3 14 0 1
BITMAP
E0
E0
E0
E0
E0
E0
E0
E0
E0
E0
00
E0
E0
E0
ENDCHAR
STARTCHAR "
ENCODING 34
SWIDTH 75 0
DWIDTH -1 0
BBX 10 5 0 10
BITMAP
39C0
39C0
7BC0
6300
8400
ENDCHAR
STARTCHAR #
ENCODING 35
SWIDTH 75 0
DWIDTH -1 0
BBX 12 14 0 1
BITMAP
39C0
39C0
39C0
FFF0
FFF0
FFF0
39C0
39C0
FFF0
FFF0
FFF0
39C0
39C0
39C0
ENDCHAR
STARTCHAR $
ENCODING 36
SWIDTH 75 0
DWIDTH -1 0
BBX 12 14 0 1
BITMAP
0600
3FC0
7FE0
FFF0
F6F0
FE00
7F00
1FC0
07E0
F6F0
FFF0
7FE0
3FC0
0600
ENDCHAR
STARTCHAR %
ENCODING 37
SWIDTH 75 0
DWIDTH -1 0
BBX 12 14 0 1
BITMAP
E010
E030
E070
00E0
01C0
0380
0700
0E00
1C00
3800
7000
E070
C070
8070
ENDCHAR
STARTCHAR &
ENCODING 38
SWIDTH 75 0
DWIDTH -1 0
BBX 12 14 0 1
BITMAP
1E00
3F00
7F80
7380
3F00
1E00
3F10
73B0
E1F0
E1E0
F3C0
FFE0
7FF0
3F30
ENDCHAR
STARTCHAR '
ENCODING 39
SWIDTH 75 0
DWIDTH -1 0
BBX 5 5 0 10
BITMAP
38
38
78
60
80
ENDCHAR
STARTCHAR (
ENCODING 40
SWIDTH 75 0
DWIDTH -1 0
BBX 5 14 0 1
BITMAP
38
78
F8
F0
E0
E0
E0
E0
E0
E0
F0
F8
78
38
ENDCHAR
STARTCHAR )
ENCODING 41
SWIDTH 75 0
DWIDTH -1 0
BBX 5 14 0 1
BITMAP
E0
F0
F8
78
38
38
38
38
38
38
78
F8
F0
E0
ENDCHAR
STARTCHAR *
ENCODING 42
SWIDTH 75 0
DWIDTH -1 0
BBX 10 10 0 5
BITMAP
CCC0
EDC0
7F80
3F00
FFC0
FFC0
3F00
7F80
EDC0
CCC0
ENDCHAR
STARTCHAR +
ENCODING 43
SWIDTH 75 0
DWIDTH -1 0
BBX 11 11 0 3
BITMAP
0E00
0E00
0E00
0E00
FFE0
FFE0
FFE0
0E00
0E00
0E00
0E00
ENDCHAR
STARTCHAR ,
ENCODING 44
SWIDTH 75 0
DWIDTH -1 0
BBX 5 5 0 1
BITMAP
38
38
78
60
80
ENDCHAR
STARTCHAR -
ENCODING 45
SWIDTH 75 0
DWIDTH -1 0
BBX 9 3 0 7
BITMAP
FF80
FF80
FF80
ENDCHAR
STARTCHAR .
ENCODING 46
SWIDTH 75 0
DWIDTH -1 0
BBX 3 3 0 1
BITMAP
E0
E0
E0
ENDCHAR
STARTCHAR /
ENCODING 47
SWIDTH 75 0
DWIDTH -1 0
BBX 12 14 0 1
BITMAP
0010
0030
0070
00E0
01C0
0380
0700
0E00
1C00
3800
7000
E000
C000
8000
ENDCHAR
STARTCHAR 0
ENCODING 48
SWIDTH 75 0
DWIDTH -1 0
BBX 10 14 0 1
BITMAP
3F00
7F80
FFC0
F3C0
E1C0
E1C0
E1C0
E1C0
E1C0
E1C0
F3C0
FFC0
7F80
3F00
ENDCHAR
STARTCHAR 1
ENCODING 49
SWIDTH 75 0
DWIDTH -1 0
BBX 5 14 0 1
BITMAP
38
78
F8
F8
38
38
38
38
38
38
38
38
38
38
ENDCHAR
STARTCHAR 2
ENCODING 50
SWIDTH 75 0
DWIDTH -1 0
BBX 10 14 0 1
BITMAP
3F00
7F80
FFC0
F3C0
E1C0
0380
0700
0E00
1C00
3800
7000
FFC0
FFC0
FFC0
ENDCHAR
STARTCHAR 3
ENCODING 51
SWIDTH 75 0
DWIDTH -1 0
BBX 10 14 0 1
BITMAP
3F00
7F80
FFC0
F3C0
E1C0
0380
0700
0780
03C0
E1C0
F3C0
FFC0
7F80
3F00
ENDCHAR
STARTCHAR 4
ENCODING 52
SWIDTH 75 0
DWIDTH -1 0
BBX 10 14 0 1
BITMAP
0380
0780
0F80
1F80
3F80
7B80
F380
E380
E380
FFC0
FFC0
FFC0
0380
0380
ENDCHAR
STARTCHAR 5
ENCODING 53
SWIDTH 75 0
DWIDTH -1 0
BBX 10 14 0 1
BITMAP
FF80
FF80
FF80
E000
E000
FF00
FF80
FFC0
03C0
E1C0
F3C0
FFC0
7F80
3F00
ENDCHAR
STARTCHAR 6
ENCODING 54
SWIDTH 75 0
DWIDTH -1 0
BBX 10 14 0 1
BITMAP
3F00
7F00
FF00
F000
E000
FF00
FF80
FFC0
F3C0
E1C0
F3C0
FFC0
7F80
3F00
ENDCHAR
STARTCHAR 7
ENCODING 55
SWIDTH 75 0
DWIDTH -1 0
BBX 10 14 0 1
BITMAP
FFC0
FFC0
FFC0
01C0
01C0
0380
0380
0700
0700
0E00
0E00
0E00
0E00
0E00
ENDCHAR
STARTCHAR 8
ENCODING 56
SWIDTH 75 0
DWIDTH -1 0
BBX 10 14 0 1
BITMAP
3F00
7F80
FFC0
F3C0
E1C0
7380
3F00
7F80
F3C0
E1C0
F3C0
FFC0
7F80
3F00
ENDCHAR
STARTCHAR 9
ENCODING 57
SWIDTH 75 0
DWIDTH -1 0
BBX 10 14 0 1
BITMAP
3F00
7F80
FFC0
F3C0
E1C0
F3C0
FFC0
7FC0
3FC0
01C0
03C0
7FC0
7F80
7F00
ENDCHAR
STARTCHAR :
ENCODING 58
SWIDTH 75 0
DWIDTH -1 0
BBX 3 9 0 1
BITMAP
E0
E0
E0
00
00
00
E0
E0
E0
ENDCHAR
STARTCHAR ;
ENCODING 59
SWIDTH 75 0
DWIDTH -1 0
BBX 5 10 0 0
BITMAP
38
38
38
00
00
38
38
78
60
80
ENDCHAR
STARTCHAR <
ENCODING 60
SWIDTH 75 0
DWIDTH -1 0
BBX 7 14 0 1
BITMAP
06
0E
1E
3C
78
F0
E0
E0
F0
78
3C
1E
0E
06
ENDCHAR
STARTCHAR =
ENCODING 61
SWIDTH 75 0
DWIDTH -1 0
BBX 8 8 0 2
BITMAP
FF
FF
FF
00
00
FF
FF
FF
ENDCHAR
STARTCHAR >
ENCODING 62
SWIDTH 75 0
DWIDTH -1 0
BBX 7 14 0 1
BITMAP
C0
E0
F0
78
3C
1E
0E
0E
1E
3C
78
F0
E0
C0
ENDCHAR
STARTCHAR ?
ENCODING 63
SWIDTH 75 0
DWIDTH -1 0
BBX 10 14 0 1
BITMAP
3F00
7F80
FFC0
F3C0
E1C0
0380
0700
0E00
0E00
0E00
0000
0E00
0E00
0E00
ENDCHAR
STARTCHAR @
ENCODING 64
SWIDTH 75 0
DWIDTH -1 0
BBX 12 14 0 1
BITMAP
3FC0
7FE0
FFF0
F0F0
E070
E3F0
E6F0
E7E0
E380
E100
F000
FFF0
7FE0
3FC0
ENDCHAR
STARTCHAR A
ENCODING 65
SWIDTH 75 0
DWIDTH -1 0
BBX 12 14 0 1
BITMAP
3FC0
7FE0
FFF0
F0F0
E070
E070
FFF0
FFF0
FFF0
E070
E070
E070
E070
E070
ENDCHAR
STARTCHAR B
ENCODING 66
SWIDTH 75 0
DWIDTH -1 0
BBX 11 14 0 1
BITMAP
FF80
FFC0
FFE0
E1E0
E0E0
E1C0
FF80
FFC0
E1E0
E0E0
E1E0
FFE0
FFC0
FF80
ENDCHAR
STARTCHAR C
ENCODING 67
SWIDTH 75 0
DWIDTH -1 0
BBX 12 14 0 1
BITMAP
3FC0
7FE0
FFF0
F0F0
E070
E000
E000
E000
E000
E070
F0F0
FFF0
7FE0
3FC0
ENDCHAR
STARTCHAR D
ENCODING 68
SWIDTH 75 0
DWIDTH -1 0
BBX 12 14 0 1
BITMAP
FFC0
FFE0
FFF0
E0F0
E070
E070
E070
E070
E070
E070
E0F0
FFF0
FFE0
FFC0
ENDCHAR
STARTCHAR E
ENCODING 69
SWIDTH 75 0
DWIDTH -1 0
BBX 10 14 0 1
BITMAP
FFC0
FFC0
FFC0
E000
E000
FF00
FF00
FF00
E000
E000
E000
FFC0
FFC0
FFC0
ENDCHAR
STARTCHAR F
ENCODING 70
SWIDTH 75 0
DWIDTH -1 0
BBX 10 14 0 1
BITMAP
FFC0
FFC0
FFC0
E000
E000
FF00
FF00
FF00
E000
E000
E000
E000
E000
E000
ENDCHAR
STARTCHAR G
ENCODING 71
SWIDTH 75 0
DWIDTH -1 0
BBX 12 14 0 1
BITMAP
3FC0
7FE0
FFF0
F0F0
E000
E7F0
E7F0
E7F0
E070
E070
F0F0
FFF0
7FE0
3FC0
ENDCHAR
STARTCHAR H
ENCODING 72
SWIDTH 75 0
DWIDTH -1 0
BBX 12 14 0 1
BITMAP
E070
E070
E070
E070
E070
FFF0
FFF0
FFF0
E070
E070
E070
E070
E070
E070
ENDCHAR
STARTCHAR I
ENCODING 73
SWIDTH 75 0
DWIDTH -1 0
BBX 3 14 0 1
BITMAP
E0
E0
E0
E0
E0
E0
E0
E0
E0
E0
E0
E0
E0
E0
ENDCHAR
STARTCHAR J
ENCODING 74
SWIDTH 75 0
DWIDTH -1 0
BBX 10 14 0 1
BITMAP
01C0
01C0
01C0
01C0
01C0
01C0
01C0
01C0
01C0
E1C0
F3C0
FFC0
7F80
3F00
ENDCHAR
STARTCHAR K
ENCODING 75
SWIDTH 75 0
DWIDTH -1 0
BBX 10 14 0 1
BITMAP
E0C0
E1C0
E3C0
E780
EF00
FE00
FC00
FC00
FE00
EF00
E780
E3C0
E1C0
E0C0
ENDCHAR
STARTCHAR L
ENCODING 76
SWIDTH 75 0
DWIDTH -1 0
BBX 10 14 0 1
BITMAP
E000
E000
E000
E000
E000
E000
E000
E000
E000
E000
E000
FFC0
FFC0
FFC0
ENDCHAR
STARTCHAR M
ENCODING 77
SWIDTH 75 0
DWIDTH -1 0
BBX 12 14 0 1
BITMAP
C030
E070
F0F0
F9F0
FFF0
EF70
E670
E070
E070
E070
E070
E070
E070
E070
ENDCHAR
STARTCHAR N
ENCODING 78
SWIDTH 75 0
DWIDTH -1 0
BBX 12 14 0 1
BITMAP
8070
C070
E070
F070
F870
FC70
EE70
E770
E3F0
E1F0
E0F0
E070
E030
E010
ENDCHAR
STARTCHAR O
ENCODING 79
SWIDTH 75 0
DWIDTH -1 0
BBX 12 14 0 1
BITMAP
3FC0
7FE0
FFF0
F0F0
E070
E070
E070
E070
E070
E070
F0F0
FFF0
7FE0
3FC0
ENDCHAR
STARTCHAR P
ENCODING 80
SWIDTH 75 0
DWIDTH -1 0
BBX 11 14 0 1
BITMAP
FF80
FFC0
FFE0
E1E0
E0E0
E1E0
FFE0
FFC0
FF80
E000
E000
E000
E000
E000
ENDCHAR
STARTCHAR Q
ENCODING 81
SWIDTH 75 0
DWIDTH -1 0
BBX 12 14 0 1
BITMAP
3FC0
7FE0
FFF0
F0F0
E070
E070
E070
E070
E370
E3B0
F1F0
FEE0
7FF0
3FB0
ENDCHAR
STARTCHAR R
ENCODING 82
SWIDTH 75 0
DWIDTH -1 0
BBX 11 14 0 1
BITMAP
FF80
FFC0
FFE0
E1E0
E0E0
E1E0
FFE0
FFC0
FF80
E380
E1C0
E0E0
E0E0
E0E0
ENDCHAR
STARTCHAR S
ENCODING 83
SWIDTH 75 0
DWIDTH -1 0
BBX 12 14 0 1
BITMAP
3FC0
7FE0
FFF0
F0F0
E000
FFC0
7FE0
3FF0
00F0
0070
F0F0
FFF0
7FE0
3FC0
ENDCHAR
STARTCHAR T
ENCODING 84
SWIDTH 75 0
DWIDTH -1 0
BBX 11 14 0 1
BITMAP
FFE0
FFE0
FFE0
0E00
0E00
0E00
0E00
0E00
0E00
0E00
0E00
0E00
0E00
0E00
ENDCHAR
STARTCHAR U
ENCODING 85
SWIDTH 75 0
DWIDTH -1 0
BBX 12 14 0 1
BITMAP
E070
E070
E070
E070
E070
E070
E070
E070
E070
E070
F0F0
FFF0
7FE0
3FC0
ENDCHAR
STARTCHAR V
ENCODING 86
SWIDTH 75 0
DWIDTH -1 0
BBX 11 14 0 1
BITMAP
E0E0
E0E0
E0E0
E0E0
E0E0
E0E0
E0E0
E0E0
E0E0
71C0
3B80
1F00
0E00
0400
ENDCHAR
STARTCHAR W
ENCODING 87
SWIDTH 75 0
DWIDTH -1 0
BBX 12 14 0 1
BITMAP
E070
E070
E070
E070
E070
E070
E070
E670
EF70
FFF0
F9F0
F0F0
E070
C030
ENDCHAR
STARTCHAR X
ENCODING 88
SWIDTH 75 0
DWIDTH -1 0
BBX 12 14 0 1
BITMAP
C030
E070
F0F0
79E0
3FC0
1F80
0F00
0F00
1F80
3FC0
79E0
F0F0
E070
C030
ENDCHAR
STARTCHAR Y
ENCODING 89
SWIDTH 75 0
DWIDTH -1 0
BBX 11 14 0 1
BITMAP
E0E0
E0E0
F1E0
71C0
7BC0
3B80
3F80
1F00
1F00
0E00
0E00
0E00
0E00
0E00
ENDCHAR
STARTCHAR Z
ENCODING 90
SWIDTH 75 0
DWIDTH -1 0
BBX 12 14 0 1
BITMAP
FFF0
FFF0
FFF0
00E0
01C0
0380
0700
0E00
1C00
3800
7000
FFF0
FFF0
FFF0
ENDCHAR
STARTCHAR [
ENCODING 91
SWIDTH 75 0
DWIDTH -1 0
BBX 6 14 0 1
BITMAP
FC
FC
FC
E0
E0
E0
E0
E0
E0
E0
E0
FC
FC
FC
ENDCHAR
STARTCHAR \
ENCODING 92
SWIDTH 75 0
DWIDTH -1 0
BBX 12 14 0 1
BITMAP
8000
C000
E000
7000
3800
1C00
0E00
0700
0380
01C0
00E0
0070
0030
0010
ENDCHAR
STARTCHAR ]
ENCODING 93
SWIDTH 75 0
DWIDTH -1 0
BBX 6 14 0 1
BITMAP
FC
FC
FC
1C
1C
1C
1C
1C
1C
1C
1C
FC
FC
FC
ENDCHAR
STARTCHAR ^
ENCODING 94
SWIDTH 75 0
DWIDTH -1 0
BBX 12 9 0 6
BITMAP
0600
0F00
1F80
3FC0
79E0
F0F0
E070
C030
8010
ENDCHAR
STARTCHAR _
ENCODING 95
SWIDTH 75 0
DWIDTH -1 0
BBX 12 3 0 2
BITMAP
FFF0
FFF0
FFF0
ENDCHAR
STARTCHAR `
ENCODING 96
SWIDTH 75 0
DWIDTH -1 0
BBX 5 5 0 11
BITMAP
E0
E0
F0
30
08
ENDCHAR
STARTCHAR a
ENCODING 97
SWIDTH 75 0
DWIDTH -1 0
BBX 9 9 0 1
BITMAP
3F00
3F80
0380
3F80
7F80
E380
E780
7F80
3B80
ENDCHAR
STARTCHAR b
ENCODING 98
SWIDTH 75 0
DWIDTH -1 0
BBX 9 14 0 1
BITMAP
E000
E000
E000
E000
E000
EE00
FF00
FF80
E380
E380
E380
FF80
FF00
EE00
ENDCHAR
STARTCHAR c
ENCODING 99
SWIDTH 75 0
DWIDTH -1 0
BBX 9 9 0 1
BITMAP
3E00
7F00
FF80
E380
E000
E380
FF80
7F00
3E00
ENDCHAR
STARTCHAR d
ENCODING 100
SWIDTH 75 0
DWIDTH -1 0
BBX 9 14 0 1
BITMAP
0380
0380
0380
0380
0380
3B80
7F80
FF80
E380
E380
E380
FF80
7F80
3B80
ENDCHAR
STARTCHAR e
ENCODING 101
SWIDTH 75 0
DWIDTH -1 0
BBX 9 9 0 1
BITMAP
3E00
7F00
E380
E380
FF00
E000
E380
7F00
3E00
ENDCHAR
STARTCHAR f
ENCODING 102
SWIDTH 75 0
DWIDTH -1 0
BBX 10 14 0 1
BITMAP
1F00
3F80
7FC0
71C0
71C0
7000
FC00
FC00
FC00
7000
7000
7000
7000
7000
ENDCHAR
STARTCHAR g
ENCODING 103
SWIDTH 75 0
DWIDTH -1 0
BBX 9 10 0 0
BITMAP
3F80
7F80
F380
E380
F380
7F80
3F80
0380
E780
7F00
ENDCHAR
STARTCHAR h
ENCODING 104
SWIDTH 75 0
DWIDTH -1 0
BBX 9 14 0 1
BITMAP
E000
E000
E000
E000
E000
EE00
FF00
FF80
F380
E380
E380
E380
E380
E380
ENDCHAR
STARTCHAR i
ENCODING 105
SWIDTH 75 0
DWIDTH -1 0
BBX 3 13 0 1
BITMAP
E0
E0
E0
00
E0
E0
E0
E0
E0
E0
E0
E0
E0
ENDCHAR
STARTCHAR j
ENCODING 106
SWIDTH 75 0
DWIDTH -1 0
BBX 5 14 0 0
BITMAP
38
38
38
00
38
38
38
38
38
38
38
F8
F0
E0
ENDCHAR
STARTCHAR k
ENCODING 107
SWIDTH 75 0
DWIDTH -1 0
BBX 9 14 0 1
BITMAP
E000
E000
E000
E000
E000
E380
E780
EF00
FE00
FC00
FE00
EF00
E780
E380
ENDCHAR
STARTCHAR l
ENCODING 108
SWIDTH 75 0
DWIDTH -1 0
BBX 3 14 0 1
BITMAP
E0
E0
E0
E0
E0
E0
E0
E0
E0
E0
E0
E0
E0
E0
ENDCHAR
STARTCHAR m
ENCODING 109
SWIDTH 75 0
DWIDTH -1 0
BBX 10 9 0 1
BITMAP
A100
F380
FFC0
EDC0
EDC0
EDC0
EDC0
EDC0
EDC0
ENDCHAR
STARTCHAR n
ENCODING 110
SWIDTH 75 0
DWIDTH -1 0
BBX 9 9 0 1
BITMAP
EE00
FF00
FF80
F780
E380
E380
E380
E380
E380
ENDCHAR
STARTCHAR o
ENCODING 111
SWIDTH 75 0
DWIDTH -1 0
BBX 9 9 0 1
BITMAP
3E00
7F00
FF80
E380
E380
E380
FF80
7F00
3E00
ENDCHAR
STARTCHAR p
ENCODING 112
SWIDTH 75 0
DWIDTH -1 0
BBX 9 10 0 0
BITMAP
FE00
FF00
FF80
E380
FF80
FF00
FE00
E000
E000
E000
ENDCHAR
STARTCHAR q
ENCODING 113
SWIDTH 75 0
DWIDTH -1 0
BBX 9 10 0 0
BITMAP
3F80
7F80
FF80
E380
FF80
7F80
3F80
0380
0380
0380
ENDCHAR
STARTCHAR r
ENCODING 114
SWIDTH 75 0
DWIDTH -1 0
BBX 9 9 0 1
BITMAP
EE00
FF00
FF80
F780
E000
E000
E000
E000
E000
ENDCHAR
STARTCHAR s
ENCODING 115
SWIDTH 75 0
DWIDTH -1 0
BBX 8 9 0 1
BITMAP
3E
7F
E0
FC
7E
3F
07
FE
7C
ENDCHAR
STARTCHAR t
ENCODING 116
SWIDTH 75 0
DWIDTH -1 0
BBX 10 14 0 1
BITMAP
7000
7000
7000
7000
7000
FC00
FC00
FC00
7000
71C0
71C0
7FC0
3F80
1F00
ENDCHAR
STARTCHAR u
ENCODING 117
SWIDTH 75 0
DWIDTH -1 0
BBX 9 9 0 1
BITMAP
E380
E380
E380
E380
E380
F780
FF80
7F80
3B80
ENDCHAR
STARTCHAR v
ENCODING 118
SWIDTH 75 0
DWIDTH -1 0
BBX 9 9 0 1
BITMAP
E380
E380
E380
E380
F780
7F00
3E00
1C00
0800
ENDCHAR
STARTCHAR w
ENCODING 119
SWIDTH 75 0
DWIDTH -1 0
BBX 9 9 0 1
BITMAP
E380
E380
E380
E380
EB80
FF80
FF80
F780
6300
ENDCHAR
STARTCHAR x
ENCODING 120
SWIDTH 75 0
DWIDTH -1 0
BBX 9 9 0 1
BITMAP
E380
F780
FF80
7F00
3E00
7F00
FF80
F780
E380
ENDCHAR
STARTCHAR y
ENCODING 121
SWIDTH 75 0
DWIDTH -1 0
BBX 9 10 0 0
BITMAP
E380
E380
E380
F380
FF80
7F80
3F80
0380
E780
7F00
ENDCHAR
STARTCHAR z
ENCODING 122
SWIDTH 75 0
DWIDTH -1 0
BBX 8 9 0 1
BITMAP
FF
FF
FF
0E
1C
38
7F
FF
FF
ENDCHAR
STARTCHAR {
ENCODING 123
SWIDTH 75 0
DWIDTH -1 0
BBX 7 14 0 1
BITMAP
0E
1C
38
38
38
78
F0
F0
78
38
38
38
1C
0E
ENDCHAR
STARTCHAR |
ENCODING 124
SWIDTH 75 0
DWIDTH -1 0
BBX 3 14 0 1
BITMAP
E0
E0
E0
E0
E0
E0
E0
E0
E0
E0
E0
E0
E0
E0
ENDCHAR
STARTCHAR }
ENCODING 125
SWIDTH 75 0
DWIDTH -1 0
BBX 7 14 0 1
BITMAP
E0
70
38
38
38
3C
1E
1E
3C
38
38
38
70
E0
ENDCHAR
STARTCHAR ~
ENCODING 126
SWIDTH 75 0
DWIDTH -1 0
BBX 10 3 0 7
BITMAP
3DC0
7F80
EF00
ENDCHAR
STARTCHAR ¤
ENCODING -92
SWIDTH 75 0
DWIDTH -1 0
BBX 10 14 0 1
BITMAP
1F80
3FC0
7FC0
7800
7000
FF80
7000
7000
FF80
7000
7800
7FC0
3FC0
1F80
ENDCHAR
STARTCHAR ¦
ENCODING -90
SWIDTH 75 0
DWIDTH -1 0
BBX 9 15 0 1
BITMAP
E380
7700
3E00
3E00
7F00
FF80
E380
E000
FE00
7F00
0380
E380
FF80
7F00
3E00
ENDCHAR
STARTCHAR ¼
ENCODING -68
SWIDTH 75 0
DWIDTH -1 0
BBX 12 14 0 1
BITMAP
37F0
7FF0
FFF0
F700
E700
E7C0
E7C0
E7C0
E700
E700
F700
FFF0
7FF0
37F0
ENDCHAR
STARTCHAR ´
ENCODING -76
SWIDTH 75 0
DWIDTH -1 0
BBX 9 15 0 1
BITMAP
E380
7700
3E00
0000
FF80
FF80
FF80
0700
0E00
1C00
3800
7000
FF80
FF80
FF80
ENDCHAR
STARTCHAR ¨
ENCODING -88
SWIDTH 75 0
DWIDTH -1 0
BBX 9 13 0 1
BITMAP
E380
7700
3E00
0000
3E00
7F00
E000
FC00
7E00
3F00
0700
FE00
7C00
ENDCHAR
STARTCHAR ½
ENCODING -67
SWIDTH 75 0
DWIDTH -1 0
BBX 12 9 0 1
BITMAP
3BC0
7FE0
E670
E670
C7E0
E600
E670
7FE0
3BC0
ENDCHAR
STARTCHAR ¸
ENCODING -72
SWIDTH 75 0
DWIDTH -1 0
BBX 9 13 0 1
BITMAP
E380
7700
3E00
0000
FF00
FF00
FF00
0E00
1C00
3800
7F00
FF00
FF00
ENDCHAR
STARTCHAR ¾
ENCODING -66
SWIDTH 75 0
DWIDTH -1 0
BBX 9 15 0 1
BITMAP
7700
7700
7700
E380
E380
E380
E380
F780
7F00
3E00
1C00
1C00
1C00
1C00
1C00
ENDCHAR
STARTCHAR ¡
ENCODING -95
SWIDTH 75 0
DWIDTH -1 0
BBX 3 14 0 1
BITMAP
E0
E0
E0
00
E0
E0
E0
E0
E0
E0
E0
E0
E0
E0
ENDCHAR
STARTCHAR ¢
ENCODING -94
SWIDTH 75 0
DWIDTH -1 0
BBX 9 11 0 0
BITMAP
0400
3E00
7F00
FF80
EB80
E800
EB80
FF80
7F00
3E00
1000
ENDCHAR
STARTCHAR £
ENCODING -93
SWIDTH 75 0
DWIDTH -1 0
BBX 9 14 0 1
BITMAP
3E00
7F00
FF80
E380
E000
E000
FF80
7F80
7F80
7000
7000
FF80
FF80
FF80
ENDCHAR
STARTCHAR ¥
ENCODING -91
SWIDTH 75 0
DWIDTH -1 0
BBX 9 14 0 1
BITMAP
E380
E380
E380
E380
F780
7F00
3E00
1C00
7F00
1C00
7F00
1C00
1C00
1C00
ENDCHAR
STARTCHAR §
ENCODING -89
SWIDTH 75 0
DWIDTH -1 0
BBX 9 14 0 1
BITMAP
1E00
3F00
6000
6000
3E00
7F00
E380
E380
7F00
3E00
0700
0700
7E00
3C00
ENDCHAR
STARTCHAR ©
ENCODING -87
SWIDTH 75 0
DWIDTH -1 0
BBX 12 12 0 2
BITMAP
3FC0
7FE0
C030
CFB0
DFB0
D830
D830
DFB0
CFB0
C030
7FE0
3FC0
ENDCHAR
STARTCHAR ª
ENCODING -86
SWIDTH 75 0
DWIDTH -1 0
BBX 5 5 0 10
BITMAP
70
08
78
88
78
ENDCHAR
STARTCHAR «
ENCODING -85
SWIDTH 75 0
DWIDTH -1 0
BBX 12 10 0 3
BITMAP
0E70
1CE0
39C0
7380
E700
E700
7380
39C0
1CE0
0E70
ENDCHAR
STARTCHAR ¬
ENCODING -84
SWIDTH 75 0
DWIDTH -1 0
BBX 10 7 0 6
BITMAP
FFC0
FFC0
FFC0
01C0
01C0
01C0
01C0
ENDCHAR
STARTCHAR ®
ENCODING -82
SWIDTH 75 0
DWIDTH -1 0
BBX 12 12 0 2
BITMAP
3FC0
7FE0
C030
DF30
D9B0
D9B0
DF30
D9B0
D9B0
C030
7FE0
3FC0
ENDCHAR
STARTCHAR ¯
ENCODING -81
SWIDTH 75 0
DWIDTH -1 0
BBX 10 3 0 12
BITMAP
FFC0
FFC0
FFC0
ENDCHAR
STARTCHAR °
ENCODING -80
SWIDTH 75 0
DWIDTH -1 0
BBX 4 4 0 11
BITMAP
60
90
90
60
ENDCHAR
STARTCHAR ±
ENCODING -79
SWIDTH 75 0
DWIDTH -1 0
BBX 9 14 0 1
BITMAP
1C00
1C00
1C00
FF80
FF80
FF80
1C00
1C00
1C00
0000
0000
FF80
FF80
FF80
ENDCHAR
STARTCHAR ²
ENCODING -78
SWIDTH 75 0
DWIDTH -1 0
BBX 5 6 0 9
BITMAP
70
88
10
20
40
F8
ENDCHAR
STARTCHAR ³
ENCODING -77
SWIDTH 75 0
DWIDTH -1 0
BBX 5 6 0 9
BITMAP
70
88
10
10
88
70
ENDCHAR
STARTCHAR µ
ENCODING -75
SWIDTH 75 0
DWIDTH -1 0
BBX 11 13 0 0
BITMAP
E0E0
E0E0
E0E0
E1E0
F3E0
FFE0
FFE0
FEE0
ECE0
E000
E000
E000
E000
ENDCHAR
STARTCHAR ·
ENCODING -73
SWIDTH 75 0
DWIDTH -1 0
BBX 3 3 0 7
BITMAP
E0
E0
E0
ENDCHAR
STARTCHAR ¹
ENCODING -71
SWIDTH 75 0
DWIDTH -1 0
BBX 2 6 0 9
BITMAP
40
C0
40
40
40
40
ENDCHAR
STARTCHAR º
ENCODING -70
SWIDTH 75 0
DWIDTH -1 0
BBX 5 6 0 9
BITMAP
70
88
88
88
88
70
ENDCHAR
STARTCHAR »
ENCODING -69
SWIDTH 75 0
DWIDTH -1 0
BBX 12 10 0 3
BITMAP
E700
7380
39C0
1CE0
0E70
0E70
1CE0
39C0
7380
E700
ENDCHAR
STARTCHAR ¿
ENCODING -65
SWIDTH 75 0
DWIDTH -1 0
BBX 10 14 0 1
BITMAP
1C00
1C00
1C00
0000
1C00
1C00
1C00
3800
7000
E1C0
F3C0
FFC0
7F80
3F00
ENDCHAR
STARTCHAR À
ENCODING -64
SWIDTH 75 0
DWIDTH -1 0
BBX 11 15 0 1
BITMAP
3800
1C00
0E00
3F80
7FC0
FFE0
F1E0
E0E0
E0E0
FFE0
FFE0
FFE0
E0E0
E0E0
E0E0
ENDCHAR
STARTCHAR Á
ENCODING -63
SWIDTH 75 0
DWIDTH -1 0
BBX 11 15 0 1
BITMAP
0380
0700
0E00
3F80
7FC0
FFE0
F1E0
E0E0
E0E0
FFE0
FFE0
FFE0
E0E0
E0E0
E0E0
ENDCHAR
STARTCHAR Â
ENCODING -62
SWIDTH 75 0
DWIDTH -1 0
BBX 11 15 0 1
BITMAP
1F00
3B80
71C0
3F80
7FC0
FFE0
F1E0
E0E0
E0E0
FFE0
FFE0
FFE0
E0E0
E0E0
E0E0
ENDCHAR
STARTCHAR Ã
ENCODING -61
SWIDTH 75 0
DWIDTH -1 0
BBX 11 15 0 1
BITMAP
1EE0
3FC0
7780
3F80
7FC0
FFE0
F1E0
E0E0
E0E0
FFE0
FFE0
FFE0
E0E0
E0E0
E0E0
ENDCHAR
STARTCHAR Ä
ENCODING -60
SWIDTH 75 0
DWIDTH -1 0
BBX 11 15 0 1
BITMAP
71C0
71C0
71C0
3F80
7FC0
FFE0
F1E0
E0E0
E0E0
FFE0
FFE0
FFE0
E0E0
E0E0
E0E0
ENDCHAR
STARTCHAR Å
ENCODING -59
SWIDTH 75 0
DWIDTH -1 0
BBX 11 15 0 1
BITMAP
0C00
1200
0C00
3F80
7FC0
FFE0
F1E0
E0E0
E0E0
FFE0
FFE0
FFE0
E0E0
E0E0
E0E0
ENDCHAR
STARTCHAR Æ
ENCODING -58
SWIDTH 75 0
DWIDTH -1 0
BBX 12 14 0 1
BITMAP
3FF0
7FF0
FFF0
E700
E700
E700
FFC0
FFC0
FFC0
E700
E700
E7F0
E7F0
E7F0
ENDCHAR
STARTCHAR Ç
ENCODING -57
SWIDTH 75 0
DWIDTH -1 0
BBX 12 15 0 0
BITMAP
3FC0
7FE0
FFF0
F0F0
E070
E000
E000
E070
F0F0
FFF0
7FE0
3FC0
0600
0300
1E00
ENDCHAR
STARTCHAR È
ENCODING -56
SWIDTH 75 0
DWIDTH -1 0
BBX 10 15 0 1
BITMAP
3800
1C00
0E00
FFC0
FFC0
FFC0
E000
E000
FF00
FF00
E000
E000
FFC0
FFC0
FFC0
ENDCHAR
STARTCHAR É
ENCODING -55
SWIDTH 75 0
DWIDTH -1 0
BBX 10 15 0 1
BITMAP
0700
0E00
1C00
FFC0
FFC0
FFC0
E000
E000
FF00
FF00
E000
E000
FFC0
FFC0
FFC0
ENDCHAR
STARTCHAR Ê
ENCODING -54
SWIDTH 75 0
DWIDTH -1 0
BBX 10 15 0 1
BITMAP
1F00
3B80
71C0
FFC0
FFC0
FFC0
E000
E000
FF00
FF00
E000
E000
FFC0
FFC0
FFC0
ENDCHAR
STARTCHAR Ë
ENCODING -53
SWIDTH 75 0
DWIDTH -1 0
BBX 10 15 0 1
BITMAP
7380
7380
7380
FFC0
FFC0
FFC0
E000
E000
FF00
FF00
E000
E000
FFC0
FFC0
FFC0
ENDCHAR
STARTCHAR Ì
ENCODING -52
SWIDTH 75 0
DWIDTH -1 0
BBX 5 15 0 1
BITMAP
E0
70
38
70
70
70
70
70
70
70
70
70
70
70
70
ENDCHAR
STARTCHAR Í
ENCODING -51
SWIDTH 75 0
DWIDTH -1 0
BBX 5 15 0 1
BITMAP
38
70
E0
70
70
70
70
70
70
70
70
70
70
70
70
ENDCHAR
STARTCHAR Î
ENCODING -50
SWIDTH 75 0
DWIDTH -1 0
BBX 9 15 0 1
BITMAP
3E00
7700
E380
1C00
1C00
1C00
1C00
1C00
1C00
1C00
1C00
1C00
1C00
1C00
1C00
ENDCHAR
STARTCHAR Ï
ENCODING -49
SWIDTH 75 0
DWIDTH -1 0
BBX 7 15 0 1
BITMAP
EE
EE
EE
38
38
38
38
38
38
38
38
38
38
38
38
ENDCHAR
STARTCHAR Ð
ENCODING -48
SWIDTH 75 0
DWIDTH -1 0
BBX 12 14 0 1
BITMAP
7FC0
7FE0
7FF0
70F0
7070
7070
FC70
FC70
7070
7070
70F0
7FF0
7FE0
7FC0
ENDCHAR
STARTCHAR Ñ
ENCODING -47
SWIDTH 75 0
DWIDTH -1 0
BBX 12 15 0 1
BITMAP
1EE0
3FC0
7780
C070
E070
F070
F870
FC70
EE70
E770
E3F0
E1F0
E0F0
E070
E070
ENDCHAR
STARTCHAR Ò
ENCODING -46
SWIDTH 75 0
DWIDTH -1 0
BBX 12 15 0 1
BITMAP
1C00
0E00
0700
3FC0
7FE0
FFF0
F0F0
E070
E070
E070
E070
F0F0
FFF0
7FE0
3FC0
ENDCHAR
STARTCHAR Ó
ENCODING -45
SWIDTH 75 0
DWIDTH -1 0
BBX 12 15 0 1
BITMAP
0380
0700
0E00
3FC0
7FE0
FFF0
F0F0
E070
E070
E070
E070
F0F0
FFF0
7FE0
3FC0
ENDCHAR
STARTCHAR Ô
ENCODING -44
SWIDTH 75 0
DWIDTH -1 0
BBX 12 15 0 1
BITMAP
1F00
3B80
71C0
3FC0
7FE0
FFF0
F0F0
E070
E070
E070
E070
F0F0
FFF0
7FE0
3FC0
ENDCHAR
STARTCHAR Õ
ENCODING -43
SWIDTH 75 0
DWIDTH -1 0
BBX 12 15 0 1
BITMAP
1EE0
3FC0
7780
3FC0
7FE0
FFF0
F0F0
E070
E070
E070
E070
F0F0
FFF0
7FE0
3FC0
ENDCHAR
STARTCHAR Ö
ENCODING -42
SWIDTH 75 0
DWIDTH -1 0
BBX 12 15 0 1
BITMAP
70E0
70E0
70E0
3FC0
7FE0
FFF0
F0F0
E070
E070
E070
E070
F0F0
FFF0
7FE0
3FC0
ENDCHAR
STARTCHAR ×
ENCODING -41
SWIDTH 75 0
DWIDTH -1 0
BBX 9 9 0 3
BITMAP
C180
E380
7700
3E00
1C00
3E00
7700
E380
C180
ENDCHAR
STARTCHAR Ø
ENCODING -40
SWIDTH 75 0
DWIDTH -1 0
BBX 12 16 0 0
BITMAP
0300
3FC0
7FE0
FFF0
F6F0
E670
E670
E670
E670
E670
E670
F6F0
FFF0
7FE0
3FC0
0C00
ENDCHAR
STARTCHAR Ù
ENCODING -39
SWIDTH 75 0
DWIDTH -1 0
BBX 11 15 0 1
BITMAP
1C00
0E00
0700
E0E0
E0E0
E0E0
E0E0
E0E0
E0E0
E0E0
E0E0
F1E0
FFE0
7FC0
3F80
ENDCHAR
STARTCHAR Ú
ENCODING -38
SWIDTH 75 0
DWIDTH -1 0
BBX 11 15 0 1
BITMAP
0700
0E00
1C00
E0E0
E0E0
E0E0
E0E0
E0E0
E0E0
E0E0
E0E0
F1E0
FFE0
7FC0
3F80
ENDCHAR
STARTCHAR Û
ENCODING -37
SWIDTH 75 0
DWIDTH -1 0
BBX 11 15 0 1
BITMAP
1F00
3B80
71C0
E0E0
E0E0
E0E0
E0E0
E0E0
E0E0
E0E0
E0E0
F1E0
FFE0
7FC0
3F80
ENDCHAR
STARTCHAR Ü
ENCODING -36
SWIDTH 75 0
DWIDTH -1 0
BBX 11 15 0 1
BITMAP
7380
7380
7380
E0E0
E0E0
E0E0
E0E0
E0E0
E0E0
E0E0
E0E0
F1E0
FFE0
7FC0
3F80
ENDCHAR
STARTCHAR Ý
ENCODING -35
SWIDTH 75 0
DWIDTH -1 0
BBX 9 15 0 1
BITMAP
0700
0E00
1C00
E380
E380
E380
E380
F780
7F00
3E00
1C00
1C00
1C00
1C00
1C00
ENDCHAR
STARTCHAR Þ
ENCODING -34
SWIDTH 75 0
DWIDTH -1 0
BBX 10 14 0 1
BITMAP
E000
E000
E000
FF00
FF80
FFC0
E1C0
E1C0
FFC0
FF80
FF00
E000
E000
E000
ENDCHAR
STARTCHAR ß
ENCODING -33
SWIDTH 75 0
DWIDTH -1 0
BBX 10 15 0 0
BITMAP
3E00
7F00
FF80
F380
E780
EF00
EE00
E780
E3C0
E1C0
E3C0
EFC0
EF80
EF00
E000
ENDCHAR
STARTCHAR à
ENCODING -32
SWIDTH 75 0
DWIDTH -1 0
BBX 9 13 0 1
BITMAP
3800
1C00
0E00
0000
3F00
3F80
0380
3F80
7F80
E380
E780
7F80
3B80
ENDCHAR
STARTCHAR á
ENCODING -31
SWIDTH 75 0
DWIDTH -1 0
BBX 9 13 0 1
BITMAP
0380
0700
0E00
0000
3F00
3F80
0380
3F80
7F80
E380
E780
7F80
3B80
ENDCHAR
STARTCHAR â
ENCODING -30
SWIDTH 75 0
DWIDTH -1 0
BBX 10 13 0 1
BITMAP
1F00
3B80
71C0
0000
3F00
3F80
0380
3F80
7F80
E380
E780
7F80
3B80
ENDCHAR
STARTCHAR ã
ENCODING -29
SWIDTH 75 0
DWIDTH -1 0
BBX 11 13 0 1
BITMAP
1EE0
3FC0
7780
0000
3F00
3F80
0380
3F80
7F80
E380
E780
7F80
3B80
ENDCHAR
STARTCHAR ä
ENCODING -28
SWIDTH 75 0
DWIDTH -1 0
BBX 10 13 0 1
BITMAP
71C0
71C0
71C0
0000
3F00
3F80
0380
3F80
7F80
E380
E780
7F80
3B80
ENDCHAR
STARTCHAR å
ENCODING -27
SWIDTH 75 0
DWIDTH -1 0
BBX 9 13 0 1
BITMAP
0C00
1200
0C00
0000
3F00
3F80
0380
3F80
7F80
E380
E780
7F80
3B80
ENDCHAR
STARTCHAR æ
ENCODING -26
SWIDTH 75 0
DWIDTH -1 0
BBX 12 9 0 1
BITMAP
7DE0
7FF0
0730
7F30
FFE0
C700
CF10
FFF0
75E0
ENDCHAR
STARTCHAR ç
ENCODING -25
SWIDTH 75 0
DWIDTH -1 0
BBX 8 10 0 0
BITMAP
3E
7F
E3
C0
C0
E3
7F
3E
08
3C
ENDCHAR
STARTCHAR è
ENCODING -24
SWIDTH 75 0
DWIDTH -1 0
BBX 9 13 0 1
BITMAP
3800
1C00
0E00
0000
3E00
7F00
E380
E380
FF00
E000
E380
7F00
3E00
ENDCHAR
STARTCHAR é
ENCODING -23
SWIDTH 75 0
DWIDTH -1 0
BBX 9 13 0 1
BITMAP
0700
0E00
1C00
0000
3E00
7F00
E380
E380
FF00
E000
E380
7F00
3E00
ENDCHAR
STARTCHAR ê
ENCODING -22
SWIDTH 75 0
DWIDTH -1 0
BBX 9 13 1 1
BITMAP
3E00
7700
E380
0000
3E00
7F00
E380
E380
FF00
E000
E380
7F00
3E00
ENDCHAR
STARTCHAR ë
ENCODING -21
SWIDTH 75 0
DWIDTH -1 0
BBX 9 13 0 1
BITMAP
7700
7700
7700
0000
3E00
7F00
E380
E380
FF00
E000
E380
7F00
3E00
ENDCHAR
STARTCHAR ì
ENCODING -20
SWIDTH 75 0
DWIDTH -1 0
BBX 5 13 0 1
BITMAP
E0
70
38
00
70
70
70
70
70
70
70
70
70
ENDCHAR
STARTCHAR í
ENCODING -19
SWIDTH 75 0
DWIDTH -1 0
BBX 5 13 0 1
BITMAP
38
70
E0
00
70
70
70
70
70
70
70
70
70
ENDCHAR
STARTCHAR î
ENCODING -18
SWIDTH 75 0
DWIDTH -1 0
BBX 9 13 0 1
BITMAP
3E00
7700
E380
0000
1C00
1C00
1C00
1C00
1C00
1C00
1C00
1C00
1C00
ENDCHAR
STARTCHAR ï
ENCODING -17
SWIDTH 75 0
DWIDTH -1 0
BBX 7 13 0 1
BITMAP
EE
EE
EE
00
38
38
38
38
38
38
38
38
38
ENDCHAR
STARTCHAR ð
ENCODING -16
SWIDTH 75 0
DWIDTH -1 0
BBX 9 13 0 1
BITMAP
2400
1800
2400
0400
3E00
7F00
FF80
E380
E380
E380
FF80
7F00
3E00
ENDCHAR
STARTCHAR ñ
ENCODING -15
SWIDTH 75 0
DWIDTH -1 0
BBX 10 13 0 1
BITMAP
3DC0
7F80
EF00
0000
EE00
FF00
FF80
F780
E380
E380
E380
E380
E380
ENDCHAR
STARTCHAR ò
ENCODING -14
SWIDTH 75 0
DWIDTH -1 0
BBX 9 13 0 1
BITMAP
3800
1C00
0E00
0000
3E00
7F00
FF80
E380
E380
E380
FF80
7F00
3E00
ENDCHAR
STARTCHAR ó
ENCODING -13
SWIDTH 75 0
DWIDTH -1 0
BBX 9 13 0 1
BITMAP
0700
0E00
1C00
0000
3E00
7F00
FF80
E380
E380
E380
FF80
7F00
3E00
ENDCHAR
STARTCHAR ô
ENCODING -12
SWIDTH 75 0
DWIDTH -1 0
BBX 9 13 0 1
BITMAP
3E00
7700
E380
0000
3E00
7F00
FF80
E380
E380
E380
FF80
7F00
3E00
ENDCHAR
STARTCHAR õ
ENCODING -11
SWIDTH 75 0
DWIDTH -1 0
BBX 10 13 0 1
BITMAP
3DC0
7F80
EF00
0000
3E00
7F00
FF80
E380
E380
E380
FF80
7F00
3E00
ENDCHAR
STARTCHAR ö
ENCODING -10
SWIDTH 75 0
DWIDTH -1 0
BBX 9 13 0 1
BITMAP
7700
7700
7700
0000
3E00
7F00
FF80
E380
E380
E380
FF80
7F00
3E00
ENDCHAR
STARTCHAR ÷
ENCODING -9
SWIDTH 75 0
DWIDTH -1 0
BBX 11 11 0 2
BITMAP
0E00
0E00
0E00
0000
FFE0
FFE0
FFE0
0000
0E00
0E00
0E00
ENDCHAR
STARTCHAR ø
ENCODING -8
SWIDTH 75 0
DWIDTH -1 0
BBX 9 11 0 0
BITMAP
0400
3E00
7F00
FF80
EB80
EB80
EB80
FF80
7F00
3E00
1000
ENDCHAR
STARTCHAR ù
ENCODING -7
SWIDTH 75 0
DWIDTH -1 0
BBX 9 13 0 1
BITMAP
7000
3800
1C00
0000
E380
E380
E380
E380
E380
F780
FF80
7F80
3B80
ENDCHAR
STARTCHAR ú
ENCODING -6
SWIDTH 75 0
DWIDTH -1 0
BBX 9 13 0 1
BITMAP
0700
0E00
1C00
0000
E380
E380
E380
E380
E380
F780
FF80
7F80
3B80
ENDCHAR
STARTCHAR û
ENCODING -5
SWIDTH 75 0
DWIDTH -1 0
BBX 9 13 0 1
BITMAP
3E00
7700
E380
0000
E380
E380
E380
E380
E380
F780
FF80
7F80
3B80
ENDCHAR
STARTCHAR ü
ENCODING -4
SWIDTH 75 0
DWIDTH -1 0
BBX 9 13 0 1
BITMAP
E380
E380
E380
0000
E380
E380
E380
E380
E380
F780
FF80
7F80
3B80
ENDCHAR
STARTCHAR ý
ENCODING -3
SWIDTH 75 0
DWIDTH -1 0
BBX 9 14 0 0
BITMAP
0700
0E00
1C00
0000
E380
E380
E380
F380
FF80
7F80
3F80
0380
E780
7F00
ENDCHAR
STARTCHAR þ
ENCODING -2
SWIDTH 75 0
DWIDTH -1 0
BBX 10 14 0 1
BITMAP
E000
E000
FF00
FF80
FFC0
E1C0
E1C0
E1C0
E1C0
FFC0
FF80
FF00
E000
E000
ENDCHAR
STARTCHAR ÿ
ENCODING -1
SWIDTH 75 0
DWIDTH -1 0
BBX 9 14 0 0
BITMAP
E380
E380
E380
0000
E380
E380
E380
F380
FF80
7F80
3F80
0380
E780
7F00
ENDCHAR
ENDFONT
