STARTFONT 2.1
COMMENT Lumiplan font build using LumiStudio
FONT B
SIZE 16 75 75
FONTBOUNDINGBOX 12 16 0 0
STARTPROPERTIES 1
Copyright "Copyright (c) 2021 Lumiplan"
ENDPROPERTIES
CHARS 145
STARTCHAR 
ENCODING 14
SWIDTH 75 0
DWIDTH -1 0
BBX 0 0 1 15
ENDCHAR
STARTCHAR  
ENCODING 32
SWIDTH 75 0
DWIDTH -1 0
BBX 0 0 3 15
ENDCHAR
STARTCHAR !
ENCODING 33
SWIDTH 75 0
DWIDTH -1 0
BBX 3 16 0 0
BITMAP
E0
E0
E0
E0
E0
E0
E0
E0
E0
E0
E0
00
00
E0
E0
E0
ENDCHAR
STARTCHAR "
ENCODING 34
SWIDTH 75 0
DWIDTH -1 0
BBX 6 4 0 12
BITMAP
6C
6C
48
90
ENDCHAR
STARTCHAR #
ENCODING 35
SWIDTH 75 0
DWIDTH -1 0
BBX 10 10 0 3
BITMAP
3300
3300
FFC0
FFC0
3300
3300
FFC0
FFC0
3300
3300
ENDCHAR
STARTCHAR $
ENCODING 36
SWIDTH 75 0
DWIDTH -1 0
BBX 9 16 0 0
BITMAP
1C00
1C00
3F00
7F00
DC00
DC00
DC00
FE00
7F00
1D80
1D80
1D80
7F00
7E00
1C00
1C00
ENDCHAR
STARTCHAR %
ENCODING 37
SWIDTH 75 0
DWIDTH -1 0
BBX 10 13 0 2
BITMAP
E040
E0C0
E1C0
03C0
0780
0F00
1E00
3C00
7800
F000
E1C0
C1C0
81C0
ENDCHAR
STARTCHAR &
ENCODING 38
SWIDTH 75 0
DWIDTH -1 0
BBX 0 0 12 15
ENDCHAR
STARTCHAR '
ENCODING 39
SWIDTH 75 0
DWIDTH -1 0
BBX 4 6 0 10
BITMAP
20
70
70
60
40
80
ENDCHAR
STARTCHAR (
ENCODING 40
SWIDTH 75 0
DWIDTH -1 0
BBX 5 16 0 0
BITMAP
38
78
E0
E0
E0
E0
E0
E0
E0
E0
E0
E0
E0
E0
78
38
ENDCHAR
STARTCHAR )
ENCODING 41
SWIDTH 75 0
DWIDTH -1 0
BBX 5 16 0 0
BITMAP
E0
F0
38
38
38
38
38
38
38
38
38
38
38
38
F0
E0
ENDCHAR
STARTCHAR *
ENCODING 42
SWIDTH 75 0
DWIDTH -1 0
BBX 10 10 0 3
BITMAP
0C00
4C80
2D00
1E00
FFC0
FFC0
1E00
2D00
4C80
0C00
ENDCHAR
STARTCHAR +
ENCODING 43
SWIDTH 75 0
DWIDTH -1 0
BBX 9 9 0 2
BITMAP
1C00
1C00
1C00
FF80
FF80
FF80
1C00
1C00
1C00
ENDCHAR
STARTCHAR ,
ENCODING 44
SWIDTH 75 0
DWIDTH -1 0
BBX 4 6 0 0
BITMAP
20
70
70
60
40
80
ENDCHAR
STARTCHAR -
ENCODING 45
SWIDTH 75 0
DWIDTH -1 0
BBX 7 3 0 4
BITMAP
FE
FE
FE
ENDCHAR
STARTCHAR .
ENCODING 46
SWIDTH 75 0
DWIDTH -1 0
BBX 3 3 0 0
BITMAP
E0
E0
E0
ENDCHAR
STARTCHAR /
ENCODING 47
SWIDTH 75 0
DWIDTH -1 0
BBX 9 16 0 0
BITMAP
0180
0380
0380
0700
0600
0E00
0C00
1C00
1800
3800
3000
7000
6000
E000
C000
C000
ENDCHAR
STARTCHAR 0
ENCODING 48
SWIDTH 75 0
DWIDTH -1 0
BBX 10 16 0 0
BITMAP
3F00
7F80
FFC0
E1C0
E1C0
E1C0
E1C0
E1C0
E1C0
E1C0
E1C0
E1C0
E1C0
FFC0
7F80
3F00
ENDCHAR
STARTCHAR 1
ENCODING 49
SWIDTH 75 0
DWIDTH -1 0
BBX 7 16 0 0
BITMAP
18
38
78
F8
F8
F8
38
38
38
38
38
38
38
FE
FE
FE
ENDCHAR
STARTCHAR 2
ENCODING 50
SWIDTH 75 0
DWIDTH -1 0
BBX 10 16 0 0
BITMAP
3F00
7F80
FFC0
E1C0
E1C0
01C0
01C0
03C0
0780
0F00
1E00
3C00
7800
FFC0
FFC0
FFC0
ENDCHAR
STARTCHAR 3
ENCODING 51
SWIDTH 75 0
DWIDTH -1 0
BBX 10 16 0 0
BITMAP
FFC0
FFC0
FFC0
03C0
0780
0F00
1E00
3F00
3F80
3FC0
01C0
01C0
01C0
FFC0
FF80
FF00
ENDCHAR
STARTCHAR 4
ENCODING 52
SWIDTH 75 0
DWIDTH -1 0
BBX 10 16 0 0
BITMAP
0380
0780
0F80
1F80
3F80
7B80
F380
E380
C380
FFC0
FFC0
FFC0
0380
0380
0380
0380
ENDCHAR
STARTCHAR 5
ENCODING 53
SWIDTH 75 0
DWIDTH -1 0
BBX 10 16 0 0
BITMAP
FFC0
FFC0
FFC0
E000
E000
E000
FF00
FF80
FFC0
01C0
01C0
01C0
E1C0
FFC0
FFC0
7F80
ENDCHAR
STARTCHAR 6
ENCODING 54
SWIDTH 75 0
DWIDTH -1 0
BBX 10 16 0 0
BITMAP
1F00
3F00
7F00
F000
E000
E000
E000
FF00
FF80
FFC0
E1C0
E1C0
E1C0
FFC0
7F80
3F00
ENDCHAR
STARTCHAR 7
ENCODING 55
SWIDTH 75 0
DWIDTH -1 0
BBX 10 16 0 0
BITMAP
FFC0
FFC0
FFC0
01C0
01C0
0380
0380
0700
0F00
0E00
1C00
1C00
1C00
1C00
1C00
1C00
ENDCHAR
STARTCHAR 8
ENCODING 56
SWIDTH 75 0
DWIDTH -1 0
BBX 10 16 0 0
BITMAP
3F00
7F80
FFC0
E1C0
E1C0
E1C0
FFC0
7F80
3F00
7F80
E1C0
E1C0
E1C0
FFC0
7F80
3F00
ENDCHAR
STARTCHAR 9
ENCODING 57
SWIDTH 75 0
DWIDTH -1 0
BBX 10 16 0 0
BITMAP
3F00
7F80
FFC0
E1C0
E1C0
E1C0
FFC0
7FC0
3FC0
01C0
01C0
01C0
01C0
3FC0
3F80
3F00
ENDCHAR
STARTCHAR :
ENCODING 58
SWIDTH 75 0
DWIDTH -1 0
BBX 3 8 0 2
BITMAP
E0
E0
E0
00
00
E0
E0
E0
ENDCHAR
STARTCHAR ;
ENCODING 59
SWIDTH 75 0
DWIDTH -1 0
BBX 4 10 0 0
BITMAP
70
70
70
00
00
70
70
60
40
80
ENDCHAR
STARTCHAR <
ENCODING 60
SWIDTH 75 0
DWIDTH -1 0
BBX 9 16 0 0
BITMAP
0180
0380
0700
0E00
1C00
3800
7000
E000
E000
7000
3800
1C00
0E00
0700
0380
0180
ENDCHAR
STARTCHAR =
ENCODING 61
SWIDTH 75 0
DWIDTH -1 0
BBX 7 8 0 3
BITMAP
FE
FE
FE
00
00
FE
FE
FE
ENDCHAR
STARTCHAR >
ENCODING 62
SWIDTH 75 0
DWIDTH -1 0
BBX 9 16 0 0
BITMAP
C000
E000
7000
3800
1C00
0E00
0700
0380
0380
0700
0E00
1C00
3800
7000
E000
C000
ENDCHAR
STARTCHAR ?
ENCODING 63
SWIDTH 75 0
DWIDTH -1 0
BBX 10 16 0 0
BITMAP
3F00
7F80
FFC0
E1C0
E1C0
01C0
03C0
0780
0F00
0E00
0E00
0000
0000
0E00
0E00
0E00
ENDCHAR
STARTCHAR @
ENCODING 64
SWIDTH 75 0
DWIDTH -1 0
BBX 0 0 12 15
ENDCHAR
STARTCHAR A
ENCODING 65
SWIDTH 75 0
DWIDTH -1 0
BBX 12 16 0 0
BITMAP
0F00
1F80
3FC0
39C0
79E0
70E0
70E0
7FE0
7FE0
7FE0
70E0
70E0
70E0
70E0
F9F0
F9F0
ENDCHAR
STARTCHAR B
ENCODING 66
SWIDTH 75 0
DWIDTH -1 0
BBX 11 16 0 0
BITMAP
FF80
FFC0
71E0
70E0
70E0
71E0
7FC0
7F80
7F80
71C0
70E0
70E0
70E0
71E0
FFC0
FF80
ENDCHAR
STARTCHAR C
ENCODING 67
SWIDTH 75 0
DWIDTH -1 0
BBX 10 16 0 0
BITMAP
3F00
7F80
FFC0
F1C0
E1C0
E000
E000
E000
E000
E000
E000
E1C0
F1C0
FFC0
7F80
3F00
ENDCHAR
STARTCHAR D
ENCODING 68
SWIDTH 75 0
DWIDTH -1 0
BBX 11 16 0 0
BITMAP
FE00
FF00
7F80
73C0
71C0
70E0
70E0
70E0
70E0
70E0
70E0
71C0
73C0
7F80
FF00
FE00
ENDCHAR
STARTCHAR E
ENCODING 69
SWIDTH 75 0
DWIDTH -1 0
BBX 10 16 0 0
BITMAP
FFC0
FFC0
7FC0
70C0
7000
7000
7300
7F00
7F00
7300
7000
7000
70C0
7FC0
FFC0
FFC0
ENDCHAR
STARTCHAR F
ENCODING 70
SWIDTH 75 0
DWIDTH -1 0
BBX 10 16 0 0
BITMAP
FFC0
FFC0
FFC0
70C0
7000
7000
7300
7F00
7F00
7300
7000
7000
7000
7000
F800
F800
ENDCHAR
STARTCHAR G
ENCODING 71
SWIDTH 75 0
DWIDTH -1 0
BBX 11 16 0 0
BITMAP
3F80
7FC0
F1C0
E1C0
E000
E000
E000
E000
E3E0
E3E0
E1C0
E1C0
E1C0
FFC0
7F80
3F00
ENDCHAR
STARTCHAR H
ENCODING 72
SWIDTH 75 0
DWIDTH -1 0
BBX 12 16 0 0
BITMAP
F9F0
F9F0
70E0
70E0
70E0
70E0
70E0
7FE0
7FE0
70E0
70E0
70E0
70E0
70E0
F9F0
F9F0
ENDCHAR
STARTCHAR I
ENCODING 73
SWIDTH 75 0
DWIDTH -1 0
BBX 7 16 0 0
BITMAP
FE
FE
38
38
38
38
38
38
38
38
38
38
38
38
FE
FE
ENDCHAR
STARTCHAR J
ENCODING 74
SWIDTH 75 0
DWIDTH -1 0
BBX 11 16 0 0
BITMAP
0FE0
0FE0
0380
0380
0380
0380
0380
0380
0380
0380
0380
E380
E380
F780
7F00
3E00
ENDCHAR
STARTCHAR K
ENCODING 75
SWIDTH 75 0
DWIDTH -1 0
BBX 12 16 0 0
BITMAP
F8F0
F8F0
71E0
73C0
7780
7F00
7E00
7C00
7C00
7E00
7F00
7780
73C0
71E0
F8F0
F8F0
ENDCHAR
STARTCHAR L
ENCODING 76
SWIDTH 75 0
DWIDTH -1 0
BBX 10 16 0 0
BITMAP
F800
F800
7000
7000
7000
7000
7000
7000
7000
7000
7000
7000
70C0
FFC0
FFC0
FFC0
ENDCHAR
STARTCHAR M
ENCODING 77
SWIDTH 75 0
DWIDTH -1 0
BBX 12 16 0 0
BITMAP
E070
F0F0
79E0
7FE0
7FE0
76E0
70E0
70E0
70E0
70E0
70E0
70E0
70E0
70E0
F9F0
F9F0
ENDCHAR
STARTCHAR N
ENCODING 78
SWIDTH 75 0
DWIDTH -1 0
BBX 12 16 0 0
BITMAP
F1F0
F1F0
78E0
78E0
7CE0
7CE0
7EE0
7EE0
77E0
77E0
73E0
73E0
71E0
71E0
F8E0
F8E0
ENDCHAR
STARTCHAR O
ENCODING 79
SWIDTH 75 0
DWIDTH -1 0
BBX 11 16 0 0
BITMAP
1F00
3F80
7FC0
F1E0
E0E0
E0E0
E0E0
E0E0
E0E0
E0E0
E0E0
E0E0
F1E0
7FC0
3F80
1F00
ENDCHAR
STARTCHAR P
ENCODING 80
SWIDTH 75 0
DWIDTH -1 0
BBX 11 16 0 0
BITMAP
FF80
FFC0
FFE0
70E0
70E0
70E0
7FE0
7FC0
7F80
7000
7000
7000
7000
7000
F800
F800
ENDCHAR
STARTCHAR Q
ENCODING 81
SWIDTH 75 0
DWIDTH -1 0
BBX 11 16 0 0
BITMAP
1F00
3F80
7FC0
F1E0
E0E0
E0E0
E0E0
E0E0
E0E0
E0E0
E6E0
E7E0
F3C0
7FC0
3FE0
1F60
ENDCHAR
STARTCHAR R
ENCODING 82
SWIDTH 75 0
DWIDTH -1 0
BBX 12 16 0 0
BITMAP
FF80
FFC0
71E0
70E0
70E0
70E0
71C0
7F80
7F00
7F80
73C0
71E0
70E0
70E0
F9F0
F9F0
ENDCHAR
STARTCHAR S
ENCODING 83
SWIDTH 75 0
DWIDTH -1 0
BBX 10 16 0 0
BITMAP
3F00
7F80
F3C0
E1C0
E000
F000
7800
3E00
1F00
0780
03C0
E1C0
E1C0
F3C0
7F80
3F00
ENDCHAR
STARTCHAR T
ENCODING 84
SWIDTH 75 0
DWIDTH -1 0
BBX 11 16 0 0
BITMAP
FFE0
FFE0
FFE0
CE60
0E00
0E00
0E00
0E00
0E00
0E00
0E00
0E00
0E00
0E00
1F00
1F00
ENDCHAR
STARTCHAR U
ENCODING 85
SWIDTH 75 0
DWIDTH -1 0
BBX 12 16 0 0
BITMAP
F9F0
F9F0
70E0
70E0
70E0
70E0
70E0
70E0
70E0
70E0
70E0
70E0
79E0
7FE0
3FC0
1F80
ENDCHAR
STARTCHAR V
ENCODING 86
SWIDTH 75 0
DWIDTH -1 0
BBX 12 16 0 0
BITMAP
F9F0
F9F0
70E0
70E0
70E0
70E0
79E0
39C0
39C0
39C0
1F80
1F80
0F00
0F00
0600
0600
ENDCHAR
STARTCHAR W
ENCODING 87
SWIDTH 75 0
DWIDTH -1 0
BBX 12 16 0 0
BITMAP
F9F0
F9F0
70E0
70E0
70E0
70E0
70E0
70E0
70E0
70E0
76E0
7FE0
7FE0
7FE0
39C0
1080
ENDCHAR
STARTCHAR X
ENCODING 88
SWIDTH 75 0
DWIDTH -1 0
BBX 11 16 0 0
BITMAP
FBE0
FBE0
71C0
71C0
71C0
3B80
1F00
0E00
0E00
1F00
3B80
71C0
71C0
71C0
FBE0
FBE0
ENDCHAR
STARTCHAR Y
ENCODING 89
SWIDTH 75 0
DWIDTH -1 0
BBX 11 16 0 0
BITMAP
FBE0
FBE0
71C0
71C0
71C0
7BC0
3F80
1F00
0E00
0E00
0E00
0E00
0E00
0E00
1F00
1F00
ENDCHAR
STARTCHAR Z
ENCODING 90
SWIDTH 75 0
DWIDTH -1 0
BBX 10 16 0 0
BITMAP
FFC0
FFC0
FFC0
C1C0
01C0
0380
0700
0E00
1C00
3800
7000
E000
E0C0
FFC0
FFC0
FFC0
ENDCHAR
STARTCHAR [
ENCODING 91
SWIDTH 75 0
DWIDTH -1 0
BBX 5 16 0 0
BITMAP
78
F8
F8
E0
E0
E0
E0
E0
E0
E0
E0
E0
E0
F8
F8
78
ENDCHAR
STARTCHAR \
ENCODING 92
SWIDTH 75 0
DWIDTH -1 0
BBX 9 15 0 0
BITMAP
C000
E000
6000
7000
3000
3800
1800
1C00
0C00
0E00
0600
0700
0300
0380
0180
ENDCHAR
STARTCHAR ]
ENCODING 93
SWIDTH 75 0
DWIDTH -1 0
BBX 5 16 0 0
BITMAP
F0
F8
F8
38
38
38
38
38
38
38
38
38
38
F8
F8
F0
ENDCHAR
STARTCHAR ^
ENCODING 94
SWIDTH 75 0
DWIDTH -1 0
BBX 9 5 0 11
BITMAP
1C00
3E00
7700
E380
C180
ENDCHAR
STARTCHAR _
ENCODING 95
SWIDTH 75 0
DWIDTH -1 0
BBX 10 3 0 0
BITMAP
FFC0
FFC0
FFC0
ENDCHAR
STARTCHAR `
ENCODING 96
SWIDTH 75 0
DWIDTH -1 0
BBX 4 5 0 10
BITMAP
E0
E0
60
20
10
ENDCHAR
STARTCHAR a
ENCODING 97
SWIDTH 75 0
DWIDTH -1 0
BBX 10 11 0 0
BITMAP
3F00
7F80
C3C0
01C0
3DC0
7FC0
E7C0
E3C0
E3C0
7FC0
3DC0
ENDCHAR
STARTCHAR b
ENCODING 98
SWIDTH 75 0
DWIDTH -1 0
BBX 10 16 0 0
BITMAP
E000
E000
E000
E000
E000
EF00
FF80
FBC0
F1C0
E1C0
E1C0
E1C0
F1C0
FBC0
FF80
EF00
ENDCHAR
STARTCHAR c
ENCODING 99
SWIDTH 75 0
DWIDTH -1 0
BBX 10 11 0 0
BITMAP
3F00
7F80
E1C0
E000
E000
E000
E000
E000
E1C0
7F80
3F00
ENDCHAR
STARTCHAR d
ENCODING 100
SWIDTH 75 0
DWIDTH -1 0
BBX 10 16 0 0
BITMAP
01C0
01C0
01C0
01C0
01C0
3DC0
7FC0
F7C0
E3C0
E1C0
E1C0
E1C0
E3C0
F7C0
FFC0
7DC0
ENDCHAR
STARTCHAR e
ENCODING 101
SWIDTH 75 0
DWIDTH -1 0
BBX 10 11 0 0
BITMAP
3F00
7F80
F3C0
E1C0
E1C0
FFC0
FF80
E000
F000
7F80
3F00
ENDCHAR
STARTCHAR f
ENCODING 102
SWIDTH 75 0
DWIDTH -1 0
BBX 10 16 0 0
BITMAP
1F00
3F80
71C0
71C0
7000
7000
7000
FC00
FC00
FC00
7000
7000
7000
7000
7000
7000
ENDCHAR
STARTCHAR g
ENCODING 103
SWIDTH 75 0
DWIDTH -1 0
BBX 10 11 0 0
BITMAP
7DC0
FFC0
F3C0
E1C0
F3C0
FFC0
7DC0
01C0
03C0
7F80
3F00
ENDCHAR
STARTCHAR h
ENCODING 104
SWIDTH 75 0
DWIDTH -1 0
BBX 10 16 0 0
BITMAP
E000
E000
E000
E000
E000
EF00
FF80
FBC0
F1C0
E1C0
E1C0
E1C0
E1C0
E1C0
E1C0
E1C0
ENDCHAR
STARTCHAR i
ENCODING 105
SWIDTH 75 0
DWIDTH -1 0
BBX 7 16 0 0
BITMAP
38
38
38
00
00
F8
F8
F8
38
38
38
38
38
FE
FE
FE
ENDCHAR
STARTCHAR j
ENCODING 106
SWIDTH 75 0
DWIDTH -1 0
BBX 9 16 0 0
BITMAP
0700
0700
0700
0000
0000
1F80
1F80
1F80
0700
0700
0700
0700
0700
E700
7E00
3C00
ENDCHAR
STARTCHAR k
ENCODING 107
SWIDTH 75 0
DWIDTH -1 0
BBX 10 16 0 0
BITMAP
E000
E000
E000
E000
E000
E3C0
E780
EF00
FE00
FC00
F800
FC00
FE00
EF00
E780
E3C0
ENDCHAR
STARTCHAR l
ENCODING 108
SWIDTH 75 0
DWIDTH -1 0
BBX 5 16 0 0
BITMAP
F0
F0
F0
70
70
70
70
70
70
70
70
70
70
F8
F8
F8
ENDCHAR
STARTCHAR m
ENCODING 109
SWIDTH 75 0
DWIDTH -1 0
BBX 10 11 0 0
BITMAP
E300
F780
FFC0
EDC0
EDC0
EDC0
E1C0
E1C0
E1C0
E1C0
E1C0
ENDCHAR
STARTCHAR n
ENCODING 110
SWIDTH 75 0
DWIDTH -1 0
BBX 10 11 0 0
BITMAP
EF00
FF80
F3C0
E1C0
E1C0
E1C0
E1C0
E1C0
E1C0
E1C0
E1C0
ENDCHAR
STARTCHAR o
ENCODING 111
SWIDTH 75 0
DWIDTH -1 0
BBX 10 11 0 0
BITMAP
3F00
7F80
F3C0
E1C0
E1C0
E1C0
E1C0
E1C0
F3C0
7F80
3F00
ENDCHAR
STARTCHAR p
ENCODING 112
SWIDTH 75 0
DWIDTH -1 0
BBX 10 11 0 0
BITMAP
EF00
FF80
F3C0
E1C0
F3C0
FF80
EF00
E000
E000
E000
E000
ENDCHAR
STARTCHAR q
ENCODING 113
SWIDTH 75 0
DWIDTH -1 0
BBX 10 11 0 0
BITMAP
3DC0
7FC0
F3C0
E1C0
F3C0
7FC0
3DC0
01C0
01C0
01C0
01C0
ENDCHAR
STARTCHAR r
ENCODING 114
SWIDTH 75 0
DWIDTH -1 0
BBX 10 11 0 0
BITMAP
EF00
FF80
F1C0
E1C0
E000
E000
E000
E000
E000
E000
E000
ENDCHAR
STARTCHAR s
ENCODING 115
SWIDTH 75 0
DWIDTH -1 0
BBX 10 11 0 0
BITMAP
3F00
7F80
FF80
E000
E000
7F00
0180
01C0
FFC0
FF80
FF00
ENDCHAR
STARTCHAR t
ENCODING 116
SWIDTH 75 0
DWIDTH -1 0
BBX 10 16 0 0
BITMAP
7000
7000
7000
7000
7000
FC00
FC00
FC00
7000
7000
7000
7000
71C0
71C0
3F80
1F00
ENDCHAR
STARTCHAR u
ENCODING 117
SWIDTH 75 0
DWIDTH -1 0
BBX 10 11 0 0
BITMAP
E1C0
E1C0
E1C0
E1C0
E1C0
E1C0
E1C0
E1C0
F3C0
FFC0
7EC0
ENDCHAR
STARTCHAR v
ENCODING 118
SWIDTH 75 0
DWIDTH -1 0
BBX 10 11 0 0
BITMAP
E1C0
E1C0
E1C0
E1C0
E1C0
E1C0
E1C0
7380
3F00
1E00
0C00
ENDCHAR
STARTCHAR w
ENCODING 119
SWIDTH 75 0
DWIDTH -1 0
BBX 10 11 0 0
BITMAP
E1C0
E1C0
E1C0
E1C0
E1C0
E1C0
E1C0
EDC0
EDC0
7F80
3300
ENDCHAR
STARTCHAR x
ENCODING 120
SWIDTH 75 0
DWIDTH -1 0
BBX 10 11 0 0
BITMAP
E1C0
E1C0
E1C0
7380
3F00
1E00
3F00
7380
E1C0
E1C0
E1C0
ENDCHAR
STARTCHAR y
ENCODING 121
SWIDTH 75 0
DWIDTH -1 0
BBX 9 11 0 0
BITMAP
E380
E380
E380
7700
3E00
1C00
1C00
1C00
1C00
1C00
1C00
ENDCHAR
STARTCHAR z
ENCODING 122
SWIDTH 75 0
DWIDTH -1 0
BBX 10 11 0 0
BITMAP
FFC0
FFC0
FFC0
0780
0F00
1E00
3C00
7800
FFC0
FFC0
FFC0
ENDCHAR
STARTCHAR {
ENCODING 123
SWIDTH 75 0
DWIDTH -1 0
BBX 7 16 0 0
BITMAP
1E
3E
38
38
38
38
38
F8
F8
38
38
38
38
3E
3E
1E
ENDCHAR
STARTCHAR |
ENCODING 124
SWIDTH 75 0
DWIDTH -1 0
BBX 0 0 12 15
ENDCHAR
STARTCHAR }
ENCODING 125
SWIDTH 75 0
DWIDTH -1 0
BBX 7 16 0 0
BITMAP
F0
F8
F8
38
38
38
38
3E
3E
38
38
38
38
F8
F8
F0
ENDCHAR
STARTCHAR ~
ENCODING 126
SWIDTH 75 0
DWIDTH -1 0
BBX 8 3 0 4
BITMAP
70
DB
0E
ENDCHAR
STARTCHAR 
ENCODING 127
SWIDTH 75 0
DWIDTH -1 0
BBX 0 0 12 15
ENDCHAR
STARTCHAR f
ENCODING 102
SWIDTH 75 0
DWIDTH -1 0
BBX 0 0 12 15
ENDCHAR
STARTCHAR ¡
ENCODING -95
SWIDTH 75 0
DWIDTH -1 0
BBX 0 0 12 15
ENDCHAR
STARTCHAR £
ENCODING -93
SWIDTH 75 0
DWIDTH -1 0
BBX 0 0 12 15
ENDCHAR
STARTCHAR ª
ENCODING -86
SWIDTH 75 0
DWIDTH -1 0
BBX 0 0 12 15
ENDCHAR
STARTCHAR «
ENCODING -85
SWIDTH 75 0
DWIDTH -1 0
BBX 0 0 12 15
ENDCHAR
STARTCHAR ¬
ENCODING -84
SWIDTH 75 0
DWIDTH -1 0
BBX 0 0 12 15
ENDCHAR
STARTCHAR ®
ENCODING -82
SWIDTH 75 0
DWIDTH -1 0
BBX 0 0 12 15
ENDCHAR
STARTCHAR º
ENCODING -70
SWIDTH 75 0
DWIDTH -1 0
BBX 10 11 0 0
BITMAP
E1C0
E1C0
E1C0
E1C0
E1C0
E1C0
F3C0
FF80
EF00
E000
E000
ENDCHAR
STARTCHAR »
ENCODING -69
SWIDTH 75 0
DWIDTH -1 0
BBX 0 0 12 15
ENDCHAR
STARTCHAR  
ENCODING 32
SWIDTH 75 0
DWIDTH -1 0
BBX 0 0 12 15
ENDCHAR
STARTCHAR  
ENCODING 32
SWIDTH 75 0
DWIDTH -1 0
BBX 0 0 12 15
ENDCHAR
STARTCHAR ¿
ENCODING -65
SWIDTH 75 0
DWIDTH -1 0
BBX 0 0 12 15
ENDCHAR
STARTCHAR Ä
ENCODING -60
SWIDTH 75 0
DWIDTH -1 0
BBX 0 0 12 15
ENDCHAR
STARTCHAR Å
ENCODING -59
SWIDTH 75 0
DWIDTH -1 0
BBX 0 0 12 15
ENDCHAR
STARTCHAR Æ
ENCODING -58
SWIDTH 75 0
DWIDTH -1 0
BBX 0 0 12 15
ENDCHAR
STARTCHAR Ç
ENCODING -57
SWIDTH 75 0
DWIDTH -1 0
BBX 0 0 12 15
ENDCHAR
STARTCHAR É
ENCODING -55
SWIDTH 75 0
DWIDTH -1 0
BBX 0 0 12 15
ENDCHAR
STARTCHAR Ñ
ENCODING -47
SWIDTH 75 0
DWIDTH -1 0
BBX 0 0 12 15
ENDCHAR
STARTCHAR Ö
ENCODING -42
SWIDTH 75 0
DWIDTH -1 0
BBX 0 0 12 15
ENDCHAR
STARTCHAR ×
ENCODING -41
SWIDTH 75 0
DWIDTH -1 0
BBX 0 0 12 15
ENDCHAR
STARTCHAR Ø
ENCODING -40
SWIDTH 75 0
DWIDTH -1 0
BBX 0 0 12 15
ENDCHAR
STARTCHAR Ü
ENCODING -36
SWIDTH 75 0
DWIDTH -1 0
BBX 0 0 12 15
ENDCHAR
STARTCHAR à
ENCODING -32
SWIDTH 75 0
DWIDTH -1 0
BBX 10 15 0 0
BITMAP
1C00
0E00
0700
0000
3F00
7F80
C3C0
01C0
3DC0
7FC0
E7C0
E3C0
E3C0
7FC0
3DC0
ENDCHAR
STARTCHAR á
ENCODING -31
SWIDTH 75 0
DWIDTH -1 0
BBX 0 0 12 15
ENDCHAR
STARTCHAR â
ENCODING -30
SWIDTH 75 0
DWIDTH -1 0
BBX 10 16 0 0
BITMAP
1C00
3E00
7700
E380
0000
3F00
7F80
C3C0
01C0
3DC0
7FC0
E7C0
E3C0
E3C0
7FC0
3DC0
ENDCHAR
STARTCHAR ä
ENCODING -28
SWIDTH 75 0
DWIDTH -1 0
BBX 10 15 0 0
BITMAP
7380
7380
7380
0000
3F00
7F80
C3C0
01C0
3DC0
7FC0
E7C0
E3C0
E3C0
7FC0
3DC0
ENDCHAR
STARTCHAR å
ENCODING -27
SWIDTH 75 0
DWIDTH -1 0
BBX 10 16 0 0
BITMAP
1C00
3600
3600
1C00
0000
3F00
7F80
C3C0
01C0
3DC0
7FC0
E7C0
E3C0
E3C0
7FC0
3DC0
ENDCHAR
STARTCHAR æ
ENCODING -26
SWIDTH 75 0
DWIDTH -1 0
BBX 0 0 12 15
ENDCHAR
STARTCHAR ç
ENCODING -25
SWIDTH 75 0
DWIDTH -1 0
BBX 10 11 0 0
BITMAP
3F00
7F80
E1C0
E000
E000
E000
E1C0
FF80
3F00
F800
F000
ENDCHAR
STARTCHAR è
ENCODING -24
SWIDTH 75 0
DWIDTH -1 0
BBX 10 15 0 0
BITMAP
1C00
0E00
0700
0000
3F00
7F80
F3C0
E1C0
E1C0
FFC0
FF80
E000
F000
7F80
3F00
ENDCHAR
STARTCHAR é
ENCODING -23
SWIDTH 75 0
DWIDTH -1 0
BBX 10 15 0 0
BITMAP
0E00
1C00
3800
0000
3F00
7F80
F3C0
E1C0
E1C0
FFC0
FF80
E000
F000
7F80
3F00
ENDCHAR
STARTCHAR ê
ENCODING -22
SWIDTH 75 0
DWIDTH -1 0
BBX 10 16 0 0
BITMAP
1C00
3E00
7700
E380
0000
3F00
7F80
F3C0
E1C0
E1C0
FFC0
FF80
E000
F000
7F80
3F00
ENDCHAR
STARTCHAR ë
ENCODING -21
SWIDTH 75 0
DWIDTH -1 0
BBX 10 15 0 0
BITMAP
7380
7380
7380
0000
3F00
7F80
F3C0
E1C0
E1C0
FFC0
FF80
E000
F000
7F80
3F00
ENDCHAR
STARTCHAR ì
ENCODING -20
SWIDTH 75 0
DWIDTH -1 0
BBX 7 15 0 0
BITMAP
70
38
1C
00
F8
F8
F8
38
38
38
38
38
FE
FE
FE
ENDCHAR
STARTCHAR í
ENCODING -19
SWIDTH 75 0
DWIDTH -1 0
BBX 0 0 12 15
ENDCHAR
STARTCHAR î
ENCODING -18
SWIDTH 75 0
DWIDTH -1 0
BBX 9 16 0 0
BITMAP
1C00
3E00
7700
E380
0000
7C00
7C00
7C00
1C00
1C00
1C00
1C00
1C00
7F00
7F00
7F00
ENDCHAR
STARTCHAR ï
ENCODING -17
SWIDTH 75 0
DWIDTH -1 0
BBX 8 15 0 0
BITMAP
E7
E7
E7
00
7C
7C
7C
1C
1C
1C
1C
1C
7F
7F
7F
ENDCHAR
STARTCHAR ñ
ENCODING -15
SWIDTH 75 0
DWIDTH -1 0
BBX 0 0 12 15
ENDCHAR
STARTCHAR ò
ENCODING -14
SWIDTH 75 0
DWIDTH -1 0
BBX 0 0 12 15
ENDCHAR
STARTCHAR ó
ENCODING -13
SWIDTH 75 0
DWIDTH -1 0
BBX 0 0 12 15
ENDCHAR
STARTCHAR ô
ENCODING -12
SWIDTH 75 0
DWIDTH -1 0
BBX 10 16 0 0
BITMAP
1C00
3E00
7700
E380
0000
3F00
7F80
F3C0
E1C0
E1C0
E1C0
E1C0
E1C0
F3C0
7F80
3F00
ENDCHAR
STARTCHAR ö
ENCODING -10
SWIDTH 75 0
DWIDTH -1 0
BBX 10 15 0 0
BITMAP
7380
7380
7380
0000
3F00
7F80
F3C0
E1C0
E1C0
E1C0
E1C0
E1C0
F3C0
7F80
3F00
ENDCHAR
STARTCHAR ø
ENCODING -8
SWIDTH 75 0
DWIDTH -1 0
BBX 0 0 12 15
ENDCHAR
STARTCHAR ù
ENCODING -7
SWIDTH 75 0
DWIDTH -1 0
BBX 10 15 0 0
BITMAP
1C00
0E00
0700
0000
E1C0
E1C0
E1C0
E1C0
E1C0
E1C0
E1C0
E1C0
F3C0
7FC0
3EC0
ENDCHAR
STARTCHAR ú
ENCODING -6
SWIDTH 75 0
DWIDTH -1 0
BBX 0 0 12 15
ENDCHAR
STARTCHAR û
ENCODING -5
SWIDTH 75 0
DWIDTH -1 0
BBX 10 16 0 0
BITMAP
1C00
3E00
7700
E380
0000
E1C0
E1C0
E1C0
E1C0
E1C0
E1C0
E1C0
E1C0
F3C0
7FC0
3EC0
ENDCHAR
STARTCHAR ü
ENCODING -4
SWIDTH 75 0
DWIDTH -1 0
BBX 10 15 0 0
BITMAP
7380
7380
7380
0000
E1C0
E1C0
E1C0
E1C0
E1C0
E1C0
E1C0
E1C0
F3C0
7FC0
3EC0
ENDCHAR
STARTCHAR ÿ
ENCODING -1
SWIDTH 75 0
DWIDTH -1 0
BBX 0 0 12 15
ENDCHAR
ENDFONT
