STARTFONT 2.1
COMMENT Lumiplan font build using LumiStudio
FONT S
SIZE 16 75 75
FONTBOUNDINGBOX 12 16 0 0
STARTPROPERTIES 1
Copyright "Copyright (c) 2021 Lumiplan"
ENDPROPERTIES
CHARS 145
STARTCHAR 
ENCODING 14
SWIDTH 75 0
DWIDTH -1 0
BBX 0 0 1 15
ENDCHAR
STARTCHAR  
ENCODING 32
SWIDTH 75 0
DWIDTH -1 0
BBX 0 0 3 15
ENDCHAR
STARTCHAR !
ENCODING 33
SWIDTH 75 0
DWIDTH -1 0
BBX 3 16 0 0
BITMAP
E0
E0
E0
E0
E0
E0
E0
E0
E0
E0
E0
00
00
E0
E0
E0
ENDCHAR
STARTCHAR "
ENCODING 34
SWIDTH 75 0
DWIDTH -1 0
BBX 6 4 0 12
BITMAP
6C
6C
48
90
ENDCHAR
STARTCHAR #
ENCODING 35
SWIDTH 75 0
DWIDTH -1 0
BBX 10 10 0 3
BITMAP
3300
3300
FFC0
FFC0
3300
3300
FFC0
FFC0
3300
3300
ENDCHAR
STARTCHAR $
ENCODING 36
SWIDTH 75 0
DWIDTH -1 0
BBX 9 16 0 0
BITMAP
1C00
1C00
3F00
7F00
DC00
DC00
DC00
FE00
7F00
1D80
1D80
1D80
7F00
7E00
1C00
1C00
ENDCHAR
STARTCHAR %
ENCODING 37
SWIDTH 75 0
DWIDTH -1 0
BBX 10 13 0 2
BITMAP
E040
E0C0
E1C0
03C0
0780
0F00
1E00
3C00
7800
F000
E1C0
C1C0
81C0
ENDCHAR
STARTCHAR &
ENCODING 38
SWIDTH 75 0
DWIDTH -1 0
BBX 0 0 12 15
ENDCHAR
STARTCHAR '
ENCODING 39
SWIDTH 75 0
DWIDTH -1 0
BBX 4 6 0 10
BITMAP
20
70
70
60
40
80
ENDCHAR
STARTCHAR (
ENCODING 40
SWIDTH 75 0
DWIDTH -1 0
BBX 5 16 0 0
BITMAP
38
78
E0
E0
E0
E0
E0
E0
E0
E0
E0
E0
E0
E0
78
38
ENDCHAR
STARTCHAR )
ENCODING 41
SWIDTH 75 0
DWIDTH -1 0
BBX 5 16 0 0
BITMAP
E0
F0
38
38
38
38
38
38
38
38
38
38
38
38
F0
E0
ENDCHAR
STARTCHAR *
ENCODING 42
SWIDTH 75 0
DWIDTH -1 0
BBX 10 10 0 3
BITMAP
0C00
4C80
2D00
1E00
FFC0
FFC0
1E00
2D00
4C80
0C00
ENDCHAR
STARTCHAR +
ENCODING 43
SWIDTH 75 0
DWIDTH -1 0
BBX 9 9 0 2
BITMAP
1C00
1C00
1C00
FF80
FF80
FF80
1C00
1C00
1C00
ENDCHAR
STARTCHAR ,
ENCODING 44
SWIDTH 75 0
DWIDTH -1 0
BBX 4 6 0 0
BITMAP
20
70
70
60
40
80
ENDCHAR
STARTCHAR -
ENCODING 45
SWIDTH 75 0
DWIDTH -1 0
BBX 3 2 0 4
BITMAP
E0
E0
ENDCHAR
STARTCHAR .
ENCODING 46
SWIDTH 75 0
DWIDTH -1 0
BBX 3 3 0 0
BITMAP
E0
E0
E0
ENDCHAR
STARTCHAR /
ENCODING 47
SWIDTH 75 0
DWIDTH -1 0
BBX 9 16 0 0
BITMAP
0180
0380
0380
0700
0600
0E00
0C00
1C00
1800
3800
3000
7000
6000
E000
C000
C000
ENDCHAR
STARTCHAR 0
ENCODING 48
SWIDTH 75 0
DWIDTH -1 0
BBX 10 16 0 0
BITMAP
3F00
7F80
FFC0
E1C0
E1C0
E1C0
E1C0
E1C0
E1C0
E1C0
E1C0
E1C0
E1C0
FFC0
7F80
3F00
ENDCHAR
STARTCHAR 1
ENCODING 49
SWIDTH 75 0
DWIDTH -1 0
BBX 7 16 0 0
BITMAP
18
38
78
F8
F8
F8
38
38
38
38
38
38
38
FE
FE
FE
ENDCHAR
STARTCHAR 2
ENCODING 50
SWIDTH 75 0
DWIDTH -1 0
BBX 10 16 0 0
BITMAP
3F00
7F80
FFC0
E1C0
E1C0
01C0
01C0
03C0
0780
0F00
1E00
3C00
7800
FFC0
FFC0
FFC0
ENDCHAR
STARTCHAR 3
ENCODING 51
SWIDTH 75 0
DWIDTH -1 0
BBX 10 16 0 0
BITMAP
FFC0
FFC0
FFC0
03C0
0780
0F00
1E00
3F00
3F80
3FC0
01C0
01C0
01C0
FFC0
FF80
FF00
ENDCHAR
STARTCHAR 4
ENCODING 52
SWIDTH 75 0
DWIDTH -1 0
BBX 10 16 0 0
BITMAP
0380
0780
0F80
1F80
3F80
7B80
F380
E380
C380
FFC0
FFC0
FFC0
0380
0380
0380
0380
ENDCHAR
STARTCHAR 5
ENCODING 53
SWIDTH 75 0
DWIDTH -1 0
BBX 10 16 0 0
BITMAP
FFC0
FFC0
FFC0
E000
E000
E000
FF00
FF80
FFC0
01C0
01C0
01C0
E1C0
FFC0
FFC0
7F80
ENDCHAR
STARTCHAR 6
ENCODING 54
SWIDTH 75 0
DWIDTH -1 0
BBX 10 16 0 0
BITMAP
1F00
3F00
7F00
F000
E000
E000
E000
FF00
FF80
FFC0
E1C0
E1C0
E1C0
FFC0
7F80
3F00
ENDCHAR
STARTCHAR 7
ENCODING 55
SWIDTH 75 0
DWIDTH -1 0
BBX 10 16 0 0
BITMAP
FFC0
FFC0
FFC0
01C0
01C0
0380
0380
0700
0F00
0E00
1C00
1C00
1C00
1C00
1C00
1C00
ENDCHAR
STARTCHAR 8
ENCODING 56
SWIDTH 75 0
DWIDTH -1 0
BBX 10 16 0 0
BITMAP
3F00
7F80
FFC0
E1C0
E1C0
E1C0
FFC0
7F80
3F00
7F80
E1C0
E1C0
E1C0
FFC0
7F80
3F00
ENDCHAR
STARTCHAR 9
ENCODING 57
SWIDTH 75 0
DWIDTH -1 0
BBX 10 16 0 0
BITMAP
3F00
7F80
FFC0
E1C0
E1C0
E1C0
FFC0
7FC0
3FC0
01C0
01C0
01C0
01C0
3FC0
3F80
3F00
ENDCHAR
STARTCHAR :
ENCODING 58
SWIDTH 75 0
DWIDTH -1 0
BBX 3 8 0 2
BITMAP
E0
E0
E0
00
00
E0
E0
E0
ENDCHAR
STARTCHAR ;
ENCODING 59
SWIDTH 75 0
DWIDTH -1 0
BBX 4 10 0 0
BITMAP
70
70
70
00
00
70
70
60
40
80
ENDCHAR
STARTCHAR <
ENCODING 60
SWIDTH 75 0
DWIDTH -1 0
BBX 9 16 0 0
BITMAP
0180
0380
0700
0E00
1C00
3800
7000
E000
E000
7000
3800
1C00
0E00
0700
0380
0180
ENDCHAR
STARTCHAR =
ENCODING 61
SWIDTH 75 0
DWIDTH -1 0
BBX 7 8 0 3
BITMAP
FE
FE
FE
00
00
FE
FE
FE
ENDCHAR
STARTCHAR >
ENCODING 62
SWIDTH 75 0
DWIDTH -1 0
BBX 9 16 0 0
BITMAP
C000
E000
7000
3800
1C00
0E00
0700
0380
0380
0700
0E00
1C00
3800
7000
E000
C000
ENDCHAR
STARTCHAR ?
ENCODING 63
SWIDTH 75 0
DWIDTH -1 0
BBX 10 16 0 0
BITMAP
3F00
7F80
FFC0
E1C0
E1C0
01C0
03C0
0780
0F00
0E00
0E00
0000
0000
0E00
0E00
0E00
ENDCHAR
STARTCHAR @
ENCODING 64
SWIDTH 75 0
DWIDTH -1 0
BBX 0 0 12 15
ENDCHAR
STARTCHAR A
ENCODING 65
SWIDTH 75 0
DWIDTH -1 0
BBX 5 3 0 4
BITMAP
38
20
F8
ENDCHAR
STARTCHAR B
ENCODING 66
SWIDTH 75 0
DWIDTH -1 0
BBX 2 11 0 4
BITMAP
40
C0
C0
C0
C0
C0
C0
C0
C0
C0
C0
ENDCHAR
STARTCHAR C
ENCODING 67
SWIDTH 75 0
DWIDTH -1 0
BBX 7 7 0 1
BITMAP
02
06
FE
FE
00
30
30
ENDCHAR
STARTCHAR D
ENCODING 68
SWIDTH 75 0
DWIDTH -1 0
BBX 9 6 0 4
BITMAP
1B00
1B00
0000
0180
FF80
FF80
ENDCHAR
STARTCHAR E
ENCODING 69
SWIDTH 75 0
DWIDTH -1 0
BBX 10 8 0 4
BITMAP
0600
0600
1980
1980
0000
00C0
FFC0
FFC0
ENDCHAR
STARTCHAR F
ENCODING 70
SWIDTH 75 0
DWIDTH -1 0
BBX 12 10 0 1
BITMAP
7E00
3F00
0380
01C0
00E0
FFF0
FFF0
0000
0600
0600
ENDCHAR
STARTCHAR G
ENCODING 71
SWIDTH 75 0
DWIDTH -1 0
BBX 12 7 0 4
BITMAP
7E00
3F00
0380
01C0
00E0
FFF0
FFF0
ENDCHAR
STARTCHAR H
ENCODING 72
SWIDTH 75 0
DWIDTH -1 0
BBX 12 10 0 4
BITMAP
1800
1800
0000
7E00
3F00
0380
01C0
00E0
FFF0
FFF0
ENDCHAR
STARTCHAR I
ENCODING 73
SWIDTH 75 0
DWIDTH -1 0
BBX 9 7 0 4
BITMAP
FE00
7F00
0300
0300
0300
7F80
FF80
ENDCHAR
STARTCHAR J
ENCODING 74
SWIDTH 75 0
DWIDTH -1 0
BBX 9 10 0 4
BITMAP
6000
6000
0000
FE00
7F00
0300
0300
0300
7F80
FF80
ENDCHAR
STARTCHAR K
ENCODING 75
SWIDTH 75 0
DWIDTH -1 0
BBX 7 6 0 0
BITMAP
06
06
06
0C
18
F0
ENDCHAR
STARTCHAR L
ENCODING 76
SWIDTH 75 0
DWIDTH -1 0
BBX 7 12 0 0
BITMAP
06
06
00
00
00
00
06
06
06
0C
18
F0
ENDCHAR
STARTCHAR M
ENCODING 77
SWIDTH 75 0
DWIDTH -1 0
BBX 11 5 0 4
BITMAP
0920
1B60
1B60
FFE0
FFE0
ENDCHAR
STARTCHAR N
ENCODING 78
SWIDTH 75 0
DWIDTH -1 0
BBX 11 10 0 4
BITMAP
0300
0300
0CC0
0CC0
0000
0920
1B60
1B60
FFE0
FFE0
ENDCHAR
STARTCHAR O
ENCODING 79
SWIDTH 75 0
DWIDTH -1 0
BBX 12 6 0 4
BITMAP
01E0
03F0
1630
1C30
FFF0
FFF0
ENDCHAR
STARTCHAR P
ENCODING 80
SWIDTH 75 0
DWIDTH -1 0
BBX 12 9 0 4
BITMAP
00C0
00C0
0000
01E0
03F0
1630
1C30
FFF0
FFF0
ENDCHAR
STARTCHAR Q
ENCODING 81
SWIDTH 75 0
DWIDTH -1 0
BBX 12 11 0 4
BITMAP
0C00
0C00
0C00
0C00
0C00
0DE0
0FF0
0E30
1C30
FFF0
FFF0
ENDCHAR
STARTCHAR R
ENCODING 82
SWIDTH 75 0
DWIDTH -1 0
BBX 12 11 0 4
BITMAP
0C00
0C00
0CC0
0CC0
0C00
0DE0
0FF0
0E30
1C30
FFF0
FFF0
ENDCHAR
STARTCHAR S
ENCODING 83
SWIDTH 75 0
DWIDTH -1 0
BBX 10 6 0 4
BITMAP
0780
0FC0
1800
1800
FFC0
FFC0
ENDCHAR
STARTCHAR T
ENCODING 84
SWIDTH 75 0
DWIDTH -1 0
BBX 10 10 0 4
BITMAP
0300
0300
0000
0000
0780
0FC0
1800
1800
FFC0
FFC0
ENDCHAR
STARTCHAR U
ENCODING 85
SWIDTH 75 0
DWIDTH -1 0
BBX 10 10 0 4
BITMAP
0300
0300
0000
0F80
18C0
18C0
1FC0
00C0
FFC0
FFC0
ENDCHAR
STARTCHAR V
ENCODING 86
SWIDTH 75 0
DWIDTH -1 0
BBX 10 10 0 4
BITMAP
0D80
0D80
0000
0F80
18C0
18C0
1FC0
00C0
FFC0
FFC0
ENDCHAR
STARTCHAR W
ENCODING 87
SWIDTH 75 0
DWIDTH -1 0
BBX 11 10 0 4
BITMAP
0180
0300
0600
0C00
1800
1FC0
0FE0
0060
FFE0
FFE0
ENDCHAR
STARTCHAR X
ENCODING 88
SWIDTH 75 0
DWIDTH -1 0
BBX 6 11 0 4
BITMAP
04
0C
0C
0C
0C
0C
0C
0C
0C
FC
FC
ENDCHAR
STARTCHAR Y
ENCODING 89
SWIDTH 75 0
DWIDTH -1 0
BBX 10 6 0 2
BITMAP
0780
0FC0
FCC0
FCC0
0FC0
0780
ENDCHAR
STARTCHAR Z
ENCODING 90
SWIDTH 75 0
DWIDTH -1 0
BBX 10 6 0 4
BITMAP
1800
1800
0040
00C0
FFC0
FFC0
ENDCHAR
STARTCHAR [
ENCODING 91
SWIDTH 75 0
DWIDTH -1 0
BBX 5 16 0 0
BITMAP
78
F8
F8
E0
E0
E0
E0
E0
E0
E0
E0
E0
E0
F8
F8
78
ENDCHAR
STARTCHAR \
ENCODING 92
SWIDTH 75 0
DWIDTH -1 0
BBX 9 15 0 0
BITMAP
C000
E000
6000
7000
3000
3800
1800
1C00
0C00
0E00
0600
0700
0300
0380
0180
ENDCHAR
STARTCHAR ]
ENCODING 93
SWIDTH 75 0
DWIDTH -1 0
BBX 5 16 0 0
BITMAP
F0
F8
F8
38
38
38
38
38
38
38
38
38
38
F8
F8
F0
ENDCHAR
STARTCHAR ^
ENCODING 94
SWIDTH 75 0
DWIDTH -1 0
BBX 9 5 0 11
BITMAP
1C00
3E00
7700
E380
C180
ENDCHAR
STARTCHAR _
ENCODING 95
SWIDTH 75 0
DWIDTH -1 0
BBX 10 3 0 0
BITMAP
FFC0
FFC0
FFC0
ENDCHAR
STARTCHAR `
ENCODING 96
SWIDTH 75 0
DWIDTH -1 0
BBX 4 5 0 10
BITMAP
E0
E0
60
20
10
ENDCHAR
STARTCHAR a
ENCODING 97
SWIDTH 75 0
DWIDTH -1 0
BBX 11 7 0 3
BITMAP
0FE0
0C60
1E60
1260
F260
FFE0
0FC0
ENDCHAR
STARTCHAR b
ENCODING 98
SWIDTH 75 0
DWIDTH -1 0
BBX 0 0 12 15
ENDCHAR
STARTCHAR c
ENCODING 99
SWIDTH 75 0
DWIDTH -1 0
BBX 0 0 12 15
ENDCHAR
STARTCHAR d
ENCODING 100
SWIDTH 75 0
DWIDTH -1 0
BBX 0 0 12 15
ENDCHAR
STARTCHAR e
ENCODING 101
SWIDTH 75 0
DWIDTH -1 0
BBX 0 0 12 15
ENDCHAR
STARTCHAR f
ENCODING 102
SWIDTH 75 0
DWIDTH -1 0
BBX 0 0 12 15
ENDCHAR
STARTCHAR g
ENCODING 103
SWIDTH 75 0
DWIDTH -1 0
BBX 7 9 0 0
BITMAP
7C
C6
C6
FE
FE
06
0C
18
F0
ENDCHAR
STARTCHAR h
ENCODING 104
SWIDTH 75 0
DWIDTH -1 0
BBX 10 7 0 1
BITMAP
0040
00C0
FFC0
FFC0
0000
1B00
1B00
ENDCHAR
STARTCHAR i
ENCODING 105
SWIDTH 75 0
DWIDTH -1 0
BBX 0 0 12 15
ENDCHAR
STARTCHAR j
ENCODING 106
SWIDTH 75 0
DWIDTH -1 0
BBX 0 0 12 15
ENDCHAR
STARTCHAR k
ENCODING 107
SWIDTH 75 0
DWIDTH -1 0
BBX 0 0 12 15
ENDCHAR
STARTCHAR l
ENCODING 108
SWIDTH 75 0
DWIDTH -1 0
BBX 7 11 0 4
BITMAP
40
C0
C0
C0
C0
C0
C0
C0
C0
FE
7E
ENDCHAR
STARTCHAR m
ENCODING 109
SWIDTH 75 0
DWIDTH -1 0
BBX 4 12 0 4
BITMAP
70
40
F0
00
20
60
60
60
60
60
60
60
ENDCHAR
STARTCHAR n
ENCODING 110
SWIDTH 75 0
DWIDTH -1 0
BBX 4 12 0 4
BITMAP
60
60
60
60
60
60
60
40
00
70
40
F0
ENDCHAR
STARTCHAR o
ENCODING 111
SWIDTH 75 0
DWIDTH -1 0
BBX 0 0 12 15
ENDCHAR
STARTCHAR p
ENCODING 112
SWIDTH 75 0
DWIDTH -1 0
BBX 0 0 12 15
ENDCHAR
STARTCHAR q
ENCODING 113
SWIDTH 75 0
DWIDTH -1 0
BBX 12 10 0 0
BITMAP
3FC0
3FC0
1980
0F00
7FF0
FFF0
C000
C000
FF00
7F80
ENDCHAR
STARTCHAR r
ENCODING 114
SWIDTH 75 0
DWIDTH -1 0
BBX 12 13 0 0
BITMAP
0600
0600
0000
3FC0
3FC0
1980
0F00
7FF0
FFF0
C000
C000
FF00
7F80
ENDCHAR
STARTCHAR s
ENCODING 115
SWIDTH 75 0
DWIDTH -1 0
BBX 12 6 0 4
BITMAP
3FC0
3FC0
1980
0F00
FFF0
FFF0
ENDCHAR
STARTCHAR t
ENCODING 116
SWIDTH 75 0
DWIDTH -1 0
BBX 12 9 0 4
BITMAP
0600
0600
0000
3FC0
3FC0
1980
0F00
FFF0
FFF0
ENDCHAR
STARTCHAR u
ENCODING 117
SWIDTH 75 0
DWIDTH -1 0
BBX 0 0 12 15
ENDCHAR
STARTCHAR v
ENCODING 118
SWIDTH 75 0
DWIDTH -1 0
BBX 10 12 0 4
BITMAP
0300
0300
0CC0
0CC0
0000
0F80
18C0
18C0
1FC0
00C0
FFC0
FFC0
ENDCHAR
STARTCHAR w
ENCODING 119
SWIDTH 75 0
DWIDTH -1 0
BBX 9 14 0 2
BITMAP
0600
0600
1980
1980
0000
1F00
3180
3180
3F80
9F80
C180
C180
7F80
3F00
ENDCHAR
STARTCHAR x
ENCODING 120
SWIDTH 75 0
DWIDTH -1 0
BBX 8 11 0 4
BITMAP
01
03
03
13
33
33
33
33
33
FF
FF
ENDCHAR
STARTCHAR y
ENCODING 121
SWIDTH 75 0
DWIDTH -1 0
BBX 0 0 12 15
ENDCHAR
STARTCHAR z
ENCODING 122
SWIDTH 75 0
DWIDTH -1 0
BBX 0 0 12 15
ENDCHAR
STARTCHAR {
ENCODING 123
SWIDTH 75 0
DWIDTH -1 0
BBX 7 16 0 0
BITMAP
1E
3E
38
38
38
38
38
F8
F8
38
38
38
38
3E
3E
1E
ENDCHAR
STARTCHAR |
ENCODING 124
SWIDTH 75 0
DWIDTH -1 0
BBX 0 0 12 15
ENDCHAR
STARTCHAR }
ENCODING 125
SWIDTH 75 0
DWIDTH -1 0
BBX 7 16 0 0
BITMAP
F0
F8
F8
38
38
38
38
3E
3E
38
38
38
38
F8
F8
F0
ENDCHAR
STARTCHAR ~
ENCODING 126
SWIDTH 75 0
DWIDTH -1 0
BBX 8 3 0 4
BITMAP
70
DB
0E
ENDCHAR
STARTCHAR 
ENCODING 127
SWIDTH 75 0
DWIDTH -1 0
BBX 0 0 12 15
ENDCHAR
STARTCHAR f
ENCODING 102
SWIDTH 75 0
DWIDTH -1 0
BBX 4 5 0 10
BITMAP
E0
E0
60
20
10
ENDCHAR
STARTCHAR ¡
ENCODING -95
SWIDTH 75 0
DWIDTH -1 0
BBX 0 0 12 15
ENDCHAR
STARTCHAR £
ENCODING -93
SWIDTH 75 0
DWIDTH -1 0
BBX 5 16 0 0
BITMAP
F0
F8
F8
38
38
38
38
38
38
38
38
38
38
F8
F8
F0
ENDCHAR
STARTCHAR ª
ENCODING -86
SWIDTH 75 0
DWIDTH -1 0
BBX 0 0 12 15
ENDCHAR
STARTCHAR «
ENCODING -85
SWIDTH 75 0
DWIDTH -1 0
BBX 0 0 12 15
ENDCHAR
STARTCHAR ¬
ENCODING -84
SWIDTH 75 0
DWIDTH -1 0
BBX 12 8 0 1
BITMAP
07E0
0FF0
0C30
CF30
CFB0
C180
FF80
7F00
ENDCHAR
STARTCHAR ®
ENCODING -82
SWIDTH 75 0
DWIDTH -1 0
BBX 10 8 0 1
BITMAP
0780
0FC0
0C40
CF00
C780
C180
FF80
7F00
ENDCHAR
STARTCHAR º
ENCODING -70
SWIDTH 75 0
DWIDTH -1 0
BBX 10 9 0 0
BITMAP
0780
0FC0
0C40
CF00
C780
C180
FF80
7F00
2200
ENDCHAR
STARTCHAR »
ENCODING -69
SWIDTH 75 0
DWIDTH -1 0
BBX 0 0 12 15
ENDCHAR
STARTCHAR  
ENCODING 32
SWIDTH 75 0
DWIDTH -1 0
BBX 0 0 12 15
ENDCHAR
STARTCHAR  
ENCODING 32
SWIDTH 75 0
DWIDTH -1 0
BBX 7 9 0 4
BITMAP
0E
08
1E
00
04
0C
0C
FC
FC
ENDCHAR
STARTCHAR ¿
ENCODING -65
SWIDTH 75 0
DWIDTH -1 0
BBX 12 9 0 0
BITMAP
07E0
0FF0
0C30
CF30
CFB0
C180
FF80
7F00
2400
ENDCHAR
STARTCHAR Ä
ENCODING -60
SWIDTH 75 0
DWIDTH -1 0
BBX 12 10 0 0
BITMAP
01E0
0BF0
0E30
0C30
8FF0
CFF0
CC00
CC00
FC00
7800
ENDCHAR
STARTCHAR Å
ENCODING -59
SWIDTH 75 0
DWIDTH -1 0
BBX 12 13 0 0
BITMAP
00C0
00C0
0000
01E0
0BF0
0E30
0C30
8FF0
CFF0
CC00
CC00
FC00
7800
ENDCHAR
STARTCHAR Æ
ENCODING -58
SWIDTH 75 0
DWIDTH -1 0
BBX 10 10 0 0
BITMAP
0780
0FC0
1800
1800
7FC0
FFC0
C000
C000
FF00
7F80
ENDCHAR
STARTCHAR Ç
ENCODING -57
SWIDTH 75 0
DWIDTH -1 0
BBX 0 0 12 15
ENDCHAR
STARTCHAR É
ENCODING -55
SWIDTH 75 0
DWIDTH -1 0
BBX 12 11 0 4
BITMAP
0C00
0C00
0C00
0C00
0C00
0DE0
0FF0
0E30
1C30
FFF0
FFF0
ENDCHAR
STARTCHAR Ñ
ENCODING -47
SWIDTH 75 0
DWIDTH -1 0
BBX 12 10 0 4
BITMAP
6C00
6C00
0100
0300
7F00
FF00
8300
FF00
FFF0
01F0
ENDCHAR
STARTCHAR Ö
ENCODING -42
SWIDTH 75 0
DWIDTH -1 0
BBX 10 9 0 0
BITMAP
0C00
0C00
8000
C040
C0C0
C0C0
C0C0
FFC0
7F80
ENDCHAR
STARTCHAR ×
ENCODING -41
SWIDTH 75 0
DWIDTH -1 0
BBX 10 3 0 0
BITMAP
FFC0
FFC0
FFC0
ENDCHAR
STARTCHAR Ø
ENCODING -40
SWIDTH 75 0
DWIDTH -1 0
BBX 9 5 0 11
BITMAP
1C00
3E00
7700
E380
C180
ENDCHAR
STARTCHAR Ü
ENCODING -36
SWIDTH 75 0
DWIDTH -1 0
BBX 5 16 0 0
BITMAP
78
F8
F8
E0
E0
E0
E0
E0
E0
E0
E0
E0
E0
F8
F8
78
ENDCHAR
STARTCHAR à
ENCODING -32
SWIDTH 75 0
DWIDTH -1 0
BBX 10 12 0 0
BITMAP
7C00
3E00
0300
0180
7FC0
FFC0
C000
D800
D900
C300
E700
7E00
ENDCHAR
STARTCHAR á
ENCODING -31
SWIDTH 75 0
DWIDTH -1 0
BBX 6 7 0 4
BITMAP
78
FC
CC
CC
CC
FC
78
ENDCHAR
STARTCHAR â
ENCODING -30
SWIDTH 75 0
DWIDTH -1 0
BBX 11 6 0 4
BITMAP
06C0
06C0
8000
C060
FFE0
FFE0
ENDCHAR
STARTCHAR ä
ENCODING -28
SWIDTH 75 0
DWIDTH -1 0
BBX 11 8 0 4
BITMAP
0300
0300
0CC0
0CC0
0000
C060
FFE0
FFE0
ENDCHAR
STARTCHAR å
ENCODING -27
SWIDTH 75 0
DWIDTH -1 0
BBX 10 12 0 0
BITMAP
7C00
3E00
0300
0180
7FC0
FFC0
C000
C000
C100
C300
E700
7E00
ENDCHAR
STARTCHAR æ
ENCODING -26
SWIDTH 75 0
DWIDTH -1 0
BBX 12 11 0 4
BITMAP
0C00
0C00
0CC0
0CC0
0C00
0DE0
0FF0
0E30
1C30
FFF0
FFF0
ENDCHAR
STARTCHAR ç
ENCODING -25
SWIDTH 75 0
DWIDTH -1 0
BBX 10 15 0 0
BITMAP
1800
1800
0000
7C00
3E00
0300
0180
7FC0
FFC0
C000
C000
C100
C300
E700
7E00
ENDCHAR
STARTCHAR è
ENCODING -24
SWIDTH 75 0
DWIDTH -1 0
BBX 7 6 0 0
BITMAP
06
06
06
0C
18
F0
ENDCHAR
STARTCHAR é
ENCODING -23
SWIDTH 75 0
DWIDTH -1 0
BBX 11 7 0 1
BITMAP
8020
C060
FFE0
FFE0
0000
0300
0300
ENDCHAR
STARTCHAR ê
ENCODING -22
SWIDTH 75 0
DWIDTH -1 0
BBX 10 7 0 4
BITMAP
FE00
7F00
0300
0300
0300
7FC0
FFC0
ENDCHAR
STARTCHAR ë
ENCODING -21
SWIDTH 75 0
DWIDTH -1 0
BBX 10 10 0 4
BITMAP
6000
6000
0000
FE00
7F00
0300
0300
0300
7FC0
FFC0
ENDCHAR
STARTCHAR ì
ENCODING -20
SWIDTH 75 0
DWIDTH -1 0
BBX 12 14 0 0
BITMAP
0180
0180
0660
0660
0000
0490
0DB0
0DB0
8FF0
CFF0
CC00
CC00
FC00
7800
ENDCHAR
STARTCHAR í
ENCODING -19
SWIDTH 75 0
DWIDTH -1 0
BBX 12 8 0 4
BITMAP
0100
0300
7F00
FF00
8300
FF00
FFF0
01F0
ENDCHAR
STARTCHAR î
ENCODING -18
SWIDTH 75 0
DWIDTH -1 0
BBX 12 9 0 0
BITMAP
0490
0DB0
0DB0
8FF0
CFF0
CC00
CC00
FC00
7800
ENDCHAR
STARTCHAR ï
ENCODING -17
SWIDTH 75 0
DWIDTH -1 0
BBX 7 12 0 0
BITMAP
06
06
00
00
00
00
06
06
06
0C
18
F0
ENDCHAR
STARTCHAR ñ
ENCODING -15
SWIDTH 75 0
DWIDTH -1 0
BBX 6 10 0 4
BITMAP
CC
CC
00
78
FC
CC
CC
CC
FC
78
ENDCHAR
STARTCHAR ò
ENCODING -14
SWIDTH 75 0
DWIDTH -1 0
BBX 9 12 0 2
BITMAP
1B00
1B00
0000
1F00
3180
3180
3F80
9F80
C180
C180
7F80
3F00
ENDCHAR
STARTCHAR ó
ENCODING -13
SWIDTH 75 0
DWIDTH -1 0
BBX 0 0 12 15
ENDCHAR
STARTCHAR ô
ENCODING -12
SWIDTH 75 0
DWIDTH -1 0
BBX 10 14 0 0
BITMAP
0300
0300
0000
0000
0780
0FC0
1800
1800
7FC0
FFC0
C000
C000
FF00
7F80
ENDCHAR
STARTCHAR ö
ENCODING -10
SWIDTH 75 0
DWIDTH -1 0
BBX 12 10 0 4
BITMAP
00C0
00C0
0000
03E0
0630
0630
87F0
C030
FFF0
FFF0
ENDCHAR
STARTCHAR ø
ENCODING -8
SWIDTH 75 0
DWIDTH -1 0
BBX 9 15 0 0
BITMAP
C000
E000
6000
7000
3000
3800
1800
1C00
0C00
0E00
0600
0700
0300
0380
0180
ENDCHAR
STARTCHAR ù
ENCODING -7
SWIDTH 75 0
DWIDTH -1 0
BBX 10 15 0 0
BITMAP
0040
00C0
00C0
00C0
00C0
00C0
00C0
00C0
00C0
00C0
00C0
C0C0
C0C0
FFC0
7F80
ENDCHAR
STARTCHAR ú
ENCODING -6
SWIDTH 75 0
DWIDTH -1 0
BBX 0 0 12 15
ENDCHAR
STARTCHAR û
ENCODING -5
SWIDTH 75 0
DWIDTH -1 0
BBX 10 11 0 4
BITMAP
0040
00C0
1CC0
10C0
3CC0
00C0
00C0
00C0
80C0
FFC0
FFC0
ENDCHAR
STARTCHAR ü
ENCODING -4
SWIDTH 75 0
DWIDTH -1 0
BBX 0 0 12 15
ENDCHAR
STARTCHAR ÿ
ENCODING -1
SWIDTH 75 0
DWIDTH -1 0
BBX 9 8 0 0
BITMAP
0F00
1F80
7980
F980
DF80
CF00
C000
C000
ENDCHAR
ENDFONT
