STARTFONT 2.1
COMMENT Lumiplan font build using LumiStudio
FONT Duhamel 24/24 4-Bold
SIZE 24 75 75
FONTBOUNDINGBOX 21 24 0 0
STARTPROPERTIES 1
Copyright "Copyright (c) 2021 Lumiplan"
ENDPROPERTIES
CHARS 189
STARTCHAR 
ENCODING 14
SWIDTH 75 0
DWIDTH -1 0
BBX 0 0 1 23
ENDCHAR
STARTCHAR  
ENCODING 32
SWIDTH 75 0
DWIDTH -1 0
BBX 0 0 2 23
ENDCHAR
STARTCHAR !
ENCODING 33
SWIDTH 75 0
DWIDTH -1 0
BBX 5 24 0 0
BITMAP
F8
F8
F8
F8
F8
F8
F8
F8
F8
F8
F8
F8
F8
F8
F8
F8
F8
F8
00
F8
F8
F8
F8
F8
ENDCHAR
STARTCHAR "
ENCODING 34
SWIDTH 75 0
DWIDTH -1 0
BBX 10 6 0 18
BITMAP
7BC0
7BC0
7BC0
7380
C600
C600
ENDCHAR
STARTCHAR #
ENCODING 35
SWIDTH 75 0
DWIDTH -1 0
BBX 19 24 0 0
BITMAP
1E1E00
1E1E00
1E1E00
1E1E00
1E1E00
FFFFE0
FFFFE0
FFFFE0
FFFFE0
1E1E00
1E1E00
1E1E00
1E1E00
1E1E00
1E1E00
FFFFE0
FFFFE0
FFFFE0
FFFFE0
1E1E00
1E1E00
1E1E00
1E1E00
1E1E00
ENDCHAR
STARTCHAR $
ENCODING 36
SWIDTH 75 0
DWIDTH -1 0
BBX 18 24 0 0
BITMAP
012000
012000
0FFC00
3FFF00
7FFF80
7FFF80
FFFFC0
FD2FC0
F92000
F92000
7FFC00
7FFF00
3FFF80
0FFF80
0127C0
0127C0
FD2FC0
FFFFC0
7FFF80
7FFF80
3FFF00
0FFC00
012000
012000
ENDCHAR
STARTCHAR %
ENCODING 37
SWIDTH 75 0
DWIDTH -1 0
BBX 17 24 0 0
BITMAP
F80F80
F81F00
F81F00
F83E00
F83E00
007C00
007C00
00F800
00F800
01F000
01F000
03E000
03E000
07C000
07C000
0F8000
0F8000
1F0000
1F0000
3E0F80
3E0F80
7C0F80
7C0F80
F80F80
ENDCHAR
STARTCHAR &
ENCODING 38
SWIDTH 75 0
DWIDTH -1 0
BBX 19 24 0 0
BITMAP
0FF000
1FF800
3FFC00
7FFC00
7C7C00
783C00
783C00
3C7C00
1FF800
1FF000
0FE000
1FC1E0
3FE1E0
7FF3E0
FDFBE0
F8FFC0
F07FC0
F03F00
F03F00
F87FE0
FFFFE0
FFFFE0
7FFFE0
3FF3E0
ENDCHAR
STARTCHAR '
ENCODING 39
SWIDTH 75 0
DWIDTH -1 0
BBX 5 6 0 18
BITMAP
78
78
78
70
C0
C0
ENDCHAR
STARTCHAR (
ENCODING 40
SWIDTH 75 0
DWIDTH -1 0
BBX 8 24 0 0
BITMAP
1F
3F
7E
FC
F8
F8
F8
F8
F8
F8
F8
F8
F8
F8
F8
F8
F8
F8
F8
F8
FC
7E
3F
1F
ENDCHAR
STARTCHAR )
ENCODING 41
SWIDTH 75 0
DWIDTH -1 0
BBX 8 24 0 0
BITMAP
F8
FC
7E
3F
1F
1F
1F
1F
1F
1F
1F
1F
1F
1F
1F
1F
1F
1F
1F
1F
3F
7E
FC
F8
ENDCHAR
STARTCHAR *
ENCODING 42
SWIDTH 75 0
DWIDTH -1 0
BBX 12 12 0 12
BITMAP
CF30
EF70
7FE0
3FC0
FFF0
FFF0
FFF0
FFF0
3FC0
7FE0
EF70
CF30
ENDCHAR
STARTCHAR +
ENCODING 43
SWIDTH 75 0
DWIDTH -1 0
BBX 19 20 0 2
BITMAP
01F000
01F000
01F000
01F000
01F000
01F000
01F000
FFFFE0
FFFFE0
FFFFE0
FFFFE0
FFFFE0
01F000
01F000
01F000
01F000
01F000
01F000
01F000
01F000
ENDCHAR
STARTCHAR ,
ENCODING 44
SWIDTH 75 0
DWIDTH -1 0
BBX 7 7 0 0
BITMAP
3E
3E
3E
7E
7E
F0
C0
ENDCHAR
STARTCHAR -
ENCODING 45
SWIDTH 75 0
DWIDTH -1 0
BBX 13 5 0 10
BITMAP
FFF8
FFF8
FFF8
FFF8
FFF8
ENDCHAR
STARTCHAR .
ENCODING 46
SWIDTH 75 0
DWIDTH -1 0
BBX 5 5 0 0
BITMAP
F8
F8
F8
F8
F8
ENDCHAR
STARTCHAR /
ENCODING 47
SWIDTH 75 0
DWIDTH -1 0
BBX 17 24 0 0
BITMAP
000F80
001F00
001F00
003E00
003E00
007C00
007C00
00F800
00F800
01F000
01F000
03E000
03E000
07C000
07C000
0F8000
0F8000
1F0000
1F0000
3E0000
3E0000
7C0000
7C0000
F80000
ENDCHAR
STARTCHAR 0
ENCODING 48
SWIDTH 75 0
DWIDTH -1 0
BBX 18 24 0 0
BITMAP
07F800
1FFE00
3FFF00
7FFF80
7FFF80
FC0FC0
F807C0
F807C0
F807C0
F807C0
F807C0
F807C0
F807C0
F807C0
F807C0
F807C0
F807C0
F807C0
FC0FC0
7FFF80
7FFF80
3FFF00
1FFE00
07F800
ENDCHAR
STARTCHAR 1
ENCODING 49
SWIDTH 75 0
DWIDTH -1 0
BBX 8 24 0 0
BITMAP
1F
3F
7F
FF
FF
1F
1F
1F
1F
1F
1F
1F
1F
1F
1F
1F
1F
1F
1F
1F
1F
1F
1F
1F
ENDCHAR
STARTCHAR 2
ENCODING 50
SWIDTH 75 0
DWIDTH -1 0
BBX 18 24 0 0
BITMAP
0FFC00
3FFF00
7FFF80
7FFF80
F80FC0
F007C0
F007C0
0007C0
0007C0
000F80
001F00
003E00
007C00
00F800
01F000
03E000
07C000
0F8000
1F0000
3E0000
7FFFC0
FFFFC0
FFFFC0
FFFFC0
ENDCHAR
STARTCHAR 3
ENCODING 51
SWIDTH 75 0
DWIDTH -1 0
BBX 18 24 0 0
BITMAP
0FFC00
3FFF00
7FFF80
7FFF80
FFFFC0
FC0FC0
F807C0
0007C0
000F80
003F00
007E00
007C00
007E00
003F00
000F80
0007C0
0007C0
F807C0
FC0FC0
FFFFC0
7FFF80
7FFF80
3FFF00
0FFC00
ENDCHAR
STARTCHAR 4
ENCODING 52
SWIDTH 75 0
DWIDTH -1 0
BBX 18 24 0 0
BITMAP
003F00
007F00
00FF00
01FF00
03FF00
07DF00
0F9F00
1F1F00
3E1F00
7C1F00
F81F00
F81F00
F81F00
F81F00
F81F00
F81F00
FFFFC0
FFFFC0
FFFFC0
FFFFC0
FFFFC0
001F00
001F00
001F00
ENDCHAR
STARTCHAR 5
ENCODING 53
SWIDTH 75 0
DWIDTH -1 0
BBX 18 24 0 0
BITMAP
FFFF80
FFFF80
FFFF80
FFFF80
FFFF80
F80000
F80000
F80000
F80000
FFFC00
FFFF00
FFFF80
FFFF80
FFFFC0
000FC0
0007C0
0007C0
F807C0
FC0FC0
FFFFC0
7FFF80
7FFF80
3FFF00
0FFC00
ENDCHAR
STARTCHAR 6
ENCODING 54
SWIDTH 75 0
DWIDTH -1 0
BBX 18 24 0 0
BITMAP
0FFE00
3FFE00
7FFE00
7FFE00
FFFE00
FC0000
F80000
F80000
F80000
FBFC00
FFFF00
FFFF80
FFFF80
FFFFC0
FC0FC0
F807C0
F807C0
F807C0
FC0FC0
FFFFC0
7FFF80
7FFF80
3FFF00
0FFC00
ENDCHAR
STARTCHAR 7
ENCODING 55
SWIDTH 75 0
DWIDTH -1 0
BBX 18 24 0 0
BITMAP
FFFFC0
FFFFC0
FFFFC0
FFFFC0
FFFFC0
0007C0
0007C0
000F80
000F80
001F00
001F00
003E00
003E00
007C00
007C00
00F800
00F800
01F000
01F000
03E000
03E000
03E000
03E000
03E000
ENDCHAR
STARTCHAR 8
ENCODING 56
SWIDTH 75 0
DWIDTH -1 0
BBX 18 24 0 0
BITMAP
0FFC00
3FFF00
7FFF80
7FFF80
FFFFC0
FC0FC0
F807C0
F807C0
FC0FC0
FFFFC0
7FFF80
3FFF00
7FFF80
FFFFC0
FC0FC0
F807C0
F807C0
F807C0
FC0FC0
FFFFC0
7FFF80
7FFF80
3FFF00
0FFC00
ENDCHAR
STARTCHAR 9
ENCODING 57
SWIDTH 75 0
DWIDTH -1 0
BBX 18 24 0 0
BITMAP
0FFC00
3FFF00
7FFF80
7FFF80
FFFFC0
FC0FC0
F807C0
F807C0
FC0FC0
FFFFC0
7FFFC0
7FFFC0
3FFFC0
0FF7C0
0007C0
0007C0
0007C0
0007C0
000FC0
1FFFC0
1FFF80
1FFF80
1FFF00
1FFC00
ENDCHAR
STARTCHAR :
ENCODING 58
SWIDTH 75 0
DWIDTH -1 0
BBX 5 15 0 0
BITMAP
F8
F8
F8
F8
F8
00
00
00
00
00
F8
F8
F8
F8
F8
ENDCHAR
STARTCHAR ;
ENCODING 59
SWIDTH 75 0
DWIDTH -1 0
BBX 7 15 0 0
BITMAP
3E
3E
3E
3E
3E
00
00
00
3E
3E
3E
7E
7E
F0
C0
ENDCHAR
STARTCHAR <
ENCODING 60
SWIDTH 75 0
DWIDTH -1 0
BBX 12 24 0 0
BITMAP
0070
00F0
01F0
03F0
07E0
0FC0
1F80
3F00
7E00
FC00
F800
F000
F000
F800
FC00
7E00
3F00
1F80
0FC0
07E0
03F0
01F0
00F0
0070
ENDCHAR
STARTCHAR =
ENCODING 61
SWIDTH 75 0
DWIDTH -1 0
BBX 15 13 0 6
BITMAP
FFFE
FFFE
FFFE
FFFE
FFFE
0000
0000
0000
FFFE
FFFE
FFFE
FFFE
FFFE
ENDCHAR
STARTCHAR >
ENCODING 62
SWIDTH 75 0
DWIDTH -1 0
BBX 12 24 0 0
BITMAP
E000
F000
F800
FC00
7E00
3F00
1F80
0FC0
07E0
03F0
01F0
00F0
00F0
01F0
03F0
07E0
0FC0
1F80
3F00
7E00
FC00
F800
F000
E000
ENDCHAR
STARTCHAR ?
ENCODING 63
SWIDTH 75 0
DWIDTH -1 0
BBX 18 24 0 0
BITMAP
0FFC00
3FFF00
7FFF80
7FFF80
FFFFC0
FC0FC0
F807C0
0007C0
0007C0
000F80
001F00
003E00
007C00
00F800
01F000
01F000
01F000
01F000
000000
01F000
01F000
01F000
01F000
01F000
ENDCHAR
STARTCHAR @
ENCODING 64
SWIDTH 75 0
DWIDTH -1 0
BBX 21 24 0 0
BITMAP
0FFF00
1FFF80
3FFFC0
7FFFE0
F000F0
E00078
E0FB78
E1FF78
E3FF78
E70F78
EE0778
EE0778
EE0778
EE0778
E70F78
E3FFF8
E1FBF0
E001E0
E00000
F000F0
7FFFE0
3FFFC0
1FFF80
0FFF00
ENDCHAR
STARTCHAR A
ENCODING 65
SWIDTH 75 0
DWIDTH -1 0
BBX 17 24 0 0
BITMAP
07F000
0FF800
1FFC00
3FFE00
7FFF00
FC1F80
F80F80
F80F80
F80F80
F80F80
F80F80
FFFF80
FFFF80
FFFF80
FFFF80
FFFF80
F80F80
F80F80
F80F80
F80F80
F80F80
F80F80
F80F80
F80F80
ENDCHAR
STARTCHAR B
ENCODING 66
SWIDTH 75 0
DWIDTH -1 0
BBX 18 24 0 0
BITMAP
FFFC00
FFFF00
FFFF80
FFFF80
FFFFC0
F80FC0
F807C0
F807C0
F80FC0
FFFF80
FFFF00
FFFE00
FFFE00
FFFF00
F80F80
F807C0
F807C0
F807C0
F80FC0
FFFFC0
FFFF80
FFFF80
FFFF00
FFFC00
ENDCHAR
STARTCHAR C
ENCODING 67
SWIDTH 75 0
DWIDTH -1 0
BBX 18 24 0 0
BITMAP
07FC00
1FFF00
3FFF80
7FFFC0
7FFFC0
FC0FC0
F803C0
F80000
F80000
F80000
F80000
F80000
F80000
F80000
F80000
F80000
F80000
F803C0
FC0FC0
7FFFC0
7FFFC0
3FFF80
1FFF00
07FC00
ENDCHAR
STARTCHAR D
ENCODING 68
SWIDTH 75 0
DWIDTH -1 0
BBX 18 24 0 0
BITMAP
FFF800
FFFE00
FFFF00
FFFF80
FFFF80
F80FC0
F807C0
F807C0
F807C0
F807C0
F807C0
F807C0
F807C0
F807C0
F807C0
F807C0
F807C0
F807C0
F80FC0
FFFF80
FFFF80
FFFF00
FFFE00
FFF800
ENDCHAR
STARTCHAR E
ENCODING 69
SWIDTH 75 0
DWIDTH -1 0
BBX 18 24 0 0
BITMAP
FFFFC0
FFFFC0
FFFFC0
FFFFC0
FFFFC0
F80000
F80000
F80000
F80000
FFFE00
FFFE00
FFFE00
FFFE00
FFFE00
F80000
F80000
F80000
F80000
F80000
FFFFC0
FFFFC0
FFFFC0
FFFFC0
FFFFC0
ENDCHAR
STARTCHAR F
ENCODING 70
SWIDTH 75 0
DWIDTH -1 0
BBX 18 24 0 0
BITMAP
FFFFC0
FFFFC0
FFFFC0
FFFFC0
FFFFC0
F80000
F80000
F80000
F80000
FFFE00
FFFE00
FFFE00
FFFE00
FFFE00
F80000
F80000
F80000
F80000
F80000
F80000
F80000
F80000
F80000
F80000
ENDCHAR
STARTCHAR G
ENCODING 71
SWIDTH 75 0
DWIDTH -1 0
BBX 18 24 0 0
BITMAP
07F800
1FFE00
3FFF00
7FFF80
7FFF80
FC0FC0
F807C0
F80000
F80000
F80000
F83FC0
F83FC0
F83FC0
F83FC0
F83FC0
F807C0
F807C0
F807C0
FC0FC0
7FFF80
7FFF80
3FFF00
1FFE00
07F800
ENDCHAR
STARTCHAR H
ENCODING 72
SWIDTH 75 0
DWIDTH -1 0
BBX 18 24 0 0
BITMAP
F807C0
F807C0
F807C0
F807C0
F807C0
F807C0
F807C0
F807C0
F807C0
FFFFC0
FFFFC0
FFFFC0
FFFFC0
FFFFC0
F807C0
F807C0
F807C0
F807C0
F807C0
F807C0
F807C0
F807C0
F807C0
F807C0
ENDCHAR
STARTCHAR I
ENCODING 73
SWIDTH 75 0
DWIDTH -1 0
BBX 5 24 0 0
BITMAP
F8
F8
F8
F8
F8
F8
F8
F8
F8
F8
F8
F8
F8
F8
F8
F8
F8
F8
F8
F8
F8
F8
F8
F8
ENDCHAR
STARTCHAR J
ENCODING 74
SWIDTH 75 0
DWIDTH -1 0
BBX 15 24 0 0
BITMAP
003E
003E
003E
003E
003E
003E
003E
003E
003E
003E
003E
003E
003E
003E
003E
F83E
F83E
F83E
FC7E
FFFE
7FFC
7FFC
3FF8
0FE0
ENDCHAR
STARTCHAR K
ENCODING 75
SWIDTH 75 0
DWIDTH -1 0
BBX 18 24 0 0
BITMAP
F807C0
F80FC0
F81FC0
F83FC0
F87F80
F8FF00
F9FE00
FBFC00
FFF800
FFF000
FFE000
FFC000
FFC000
FFE000
FFF000
FFF800
FBFC00
F9FE00
F8FF00
F87F80
F83FC0
F81FC0
F80FC0
F807C0
ENDCHAR
STARTCHAR L
ENCODING 76
SWIDTH 75 0
DWIDTH -1 0
BBX 16 24 0 0
BITMAP
F800
F800
F800
F800
F800
F800
F800
F800
F800
F800
F800
F800
F800
F800
F800
F800
F800
F800
F800
FFFF
FFFF
FFFF
FFFF
FFFF
ENDCHAR
STARTCHAR M
ENCODING 77
SWIDTH 75 0
DWIDTH -1 0
BBX 18 24 0 0
BITMAP
C000C0
E001C0
F003C0
F807C0
FC0FC0
FE1FC0
FF3FC0
FFFFC0
FFFFC0
FBF7C0
F9E7C0
F8C7C0
F807C0
F807C0
F807C0
F807C0
F807C0
F807C0
F807C0
F807C0
F807C0
F807C0
F807C0
F807C0
ENDCHAR
STARTCHAR N
ENCODING 78
SWIDTH 75 0
DWIDTH -1 0
BBX 18 24 0 0
BITMAP
C007C0
E007C0
F007C0
F807C0
FC07C0
FE07C0
FF07C0
FF87C0
FFC7C0
FBE7C0
F9F7C0
F8FFC0
F87FC0
F83FC0
F81FC0
F80FC0
F807C0
F807C0
F807C0
F807C0
F807C0
F807C0
F807C0
F807C0
ENDCHAR
STARTCHAR O
ENCODING 79
SWIDTH 75 0
DWIDTH -1 0
BBX 20 24 0 0
BITMAP
07FE00
1FFF80
3FFFC0
7FFFE0
7FFFE0
FC03F0
F801F0
F801F0
F801F0
F801F0
F801F0
F801F0
F801F0
F801F0
F801F0
F801F0
F801F0
F801F0
FC03F0
7FFFE0
7FFFE0
3FFFC0
1FFF80
07FE00
ENDCHAR
STARTCHAR P
ENCODING 80
SWIDTH 75 0
DWIDTH -1 0
BBX 18 24 0 0
BITMAP
FFFC00
FFFF00
FFFF80
FFFF80
FFFFC0
F80FC0
F807C0
F807C0
F807C0
F807C0
F80FC0
FFFFC0
FFFF80
FFFF80
FFFF00
FFFC00
F80000
F80000
F80000
F80000
F80000
F80000
F80000
F80000
ENDCHAR
STARTCHAR Q
ENCODING 81
SWIDTH 75 0
DWIDTH -1 0
BBX 19 24 0 0
BITMAP
0FFE00
3FFF80
7FFFC0
7FFFC0
FFFFE0
FC07E0
F803E0
F803E0
F803E0
F803E0
F803E0
F803E0
F803E0
F803E0
F803E0
F83BE0
F83DE0
F83EE0
FC1F40
FFEF80
7FF7C0
7FFBE0
3FFDE0
0FF8E0
ENDCHAR
STARTCHAR R
ENCODING 82
SWIDTH 75 0
DWIDTH -1 0
BBX 18 24 0 0
BITMAP
FFFC00
FFFF00
FFFF80
FFFF80
FFFFC0
F80FC0
F807C0
F807C0
F807C0
F80FC0
FFFFC0
FFFF80
FFFF80
FFFF00
FFFC00
F83E00
F81F00
F80F80
F807C0
F807C0
F807C0
F807C0
F807C0
F807C0
ENDCHAR
STARTCHAR S
ENCODING 83
SWIDTH 75 0
DWIDTH -1 0
BBX 18 24 0 0
BITMAP
0FFC00
3FFF00
7FFF80
7FFF80
FFFFC0
FC0FC0
F80000
F80000
FE0000
FFFC00
7FFF00
7FFF80
3FFF80
0FFFC0
001FC0
0007C0
0007C0
0007C0
FC0FC0
FFFFC0
7FFF80
7FFF80
3FFF00
0FFC00
ENDCHAR
STARTCHAR T
ENCODING 84
SWIDTH 75 0
DWIDTH -1 0
BBX 19 24 0 0
BITMAP
FFFFE0
FFFFE0
FFFFE0
FFFFE0
FFFFE0
01F000
01F000
01F000
01F000
01F000
01F000
01F000
01F000
01F000
01F000
01F000
01F000
01F000
01F000
01F000
01F000
01F000
01F000
01F000
ENDCHAR
STARTCHAR U
ENCODING 85
SWIDTH 75 0
DWIDTH -1 0
BBX 19 24 0 0
BITMAP
F803E0
F803E0
F803E0
F803E0
F803E0
F803E0
F803E0
F803E0
F803E0
F803E0
F803E0
F803E0
F803E0
F803E0
F803E0
F803E0
F803E0
F803E0
FC07E0
7FFFC0
7FFFC0
3FFF80
1FFF00
07FC00
ENDCHAR
STARTCHAR V
ENCODING 86
SWIDTH 75 0
DWIDTH -1 0
BBX 19 24 0 0
BITMAP
E000E0
E000E0
F001E0
F001E0
F803E0
F803E0
7C07C0
7C07C0
3E0F80
3E0F80
1F1F00
1F1F00
0FBE00
0FBE00
07FC00
07FC00
03F800
03F800
01F000
01F000
00E000
00E000
004000
004000
ENDCHAR
STARTCHAR W
ENCODING 87
SWIDTH 75 0
DWIDTH -1 0
BBX 18 24 0 0
BITMAP
F807C0
F807C0
F807C0
F807C0
F807C0
F807C0
F807C0
F807C0
F807C0
F807C0
F807C0
F807C0
F8C7C0
F9E7C0
FBF7C0
FFFFC0
FFFFC0
FF3FC0
FE1FC0
FC0FC0
F807C0
F003C0
E001C0
C000C0
ENDCHAR
STARTCHAR X
ENCODING 88
SWIDTH 75 0
DWIDTH -1 0
BBX 21 24 0 0
BITMAP
E00038
F00078
F800F8
FC01F8
FE03F8
7F07F0
3F8FE0
1FDFC0
0FFF80
07FF00
03FE00
01FC00
01FC00
03FE00
07FF00
0FFF80
1FDFC0
3F8FE0
7F07F0
FE03F8
FC01F8
F800F8
F00078
E00038
ENDCHAR
STARTCHAR Y
ENCODING 89
SWIDTH 75 0
DWIDTH -1 0
BBX 17 24 0 0
BITMAP
F80F80
F80F80
F80F80
F80F80
F80F80
F80F80
F80F80
F80F80
FC1F80
7E3F00
3F7E00
1FFC00
0FF800
07F000
03E000
03E000
03E000
03E000
03E000
03E000
03E000
03E000
03E000
03E000
ENDCHAR
STARTCHAR Z
ENCODING 90
SWIDTH 75 0
DWIDTH -1 0
BBX 19 24 0 0
BITMAP
FFFFE0
FFFFE0
FFFFE0
FFFFE0
FFFFE0
0007C0
000F80
001F00
003E00
007C00
00F800
01F000
03E000
07C000
0F8000
1F0000
3E0000
7C0000
F80000
FFFFE0
FFFFE0
FFFFE0
FFFFE0
FFFFE0
ENDCHAR
STARTCHAR [
ENCODING 91
SWIDTH 75 0
DWIDTH -1 0
BBX 8 24 0 0
BITMAP
FF
FF
FF
FF
FF
F8
F8
F8
F8
F8
F8
F8
F8
F8
F8
F8
F8
F8
F8
FF
FF
FF
FF
FF
ENDCHAR
STARTCHAR \
ENCODING 92
SWIDTH 75 0
DWIDTH -1 0
BBX 17 24 0 0
BITMAP
F80000
7C0000
7C0000
3E0000
3E0000
1F0000
1F0000
0F8000
0F8000
07C000
07C000
03E000
03E000
01F000
01F000
00F800
00F800
007C00
007C00
003E00
003E00
001F00
001F00
000F80
ENDCHAR
STARTCHAR ]
ENCODING 93
SWIDTH 75 0
DWIDTH -1 0
BBX 8 24 0 0
BITMAP
FF
FF
FF
FF
FF
1F
1F
1F
1F
1F
1F
1F
1F
1F
1F
1F
1F
1F
1F
FF
FF
FF
FF
FF
ENDCHAR
STARTCHAR ^
ENCODING 94
SWIDTH 75 0
DWIDTH -1 0
BBX 21 10 0 14
BITMAP
007000
00F800
01FC00
03FE00
07DF00
0F8F80
1F07C0
3E03E0
7C01F0
F800F8
ENDCHAR
STARTCHAR _
ENCODING 95
SWIDTH 75 0
DWIDTH -1 0
BBX 19 5 0 0
BITMAP
FFFFE0
FFFFE0
FFFFE0
FFFFE0
FFFFE0
ENDCHAR
STARTCHAR `
ENCODING 96
SWIDTH 75 0
DWIDTH -1 0
BBX 5 6 0 18
BITMAP
F0
F0
F0
70
18
18
ENDCHAR
STARTCHAR a
ENCODING 97
SWIDTH 75 0
DWIDTH -1 0
BBX 17 17 0 0
BITMAP
1FF800
3FFE00
3FFF00
3FFF00
3FFF80
000F80
0FEF80
3FFF80
7FFF80
F80F80
F80F80
F80F80
F80F80
FFFF80
7FFF80
3FFF80
0FF780
ENDCHAR
STARTCHAR b
ENCODING 98
SWIDTH 75 0
DWIDTH -1 0
BBX 17 24 0 0
BITMAP
F80000
F80000
F80000
F80000
F80000
F80000
F80000
FBF800
FFFE00
FFFF00
FFFF00
FFFF80
FE1F80
FC0F80
FC0F80
FC0F80
FC0F80
FC0F80
FE1F80
FFFF80
FFFF00
FFFF00
FFFE00
FBF800
ENDCHAR
STARTCHAR c
ENCODING 99
SWIDTH 75 0
DWIDTH -1 0
BBX 17 17 0 0
BITMAP
0FF800
3FFE00
7FFF00
7FFF00
FFFF80
FC0780
F80000
F80000
F80000
F80000
F80000
FC0780
FFFF80
7FFF00
7FFF00
3FFE00
0FF800
ENDCHAR
STARTCHAR d
ENCODING 100
SWIDTH 75 0
DWIDTH -1 0
BBX 17 24 0 0
BITMAP
000F80
000F80
000F80
000F80
000F80
000F80
000F80
0FEF80
3FFF80
7FFF80
7FFF80
FFFF80
FC3F80
F81F80
F81F80
F81F80
F81F80
F81F80
FC3F80
FFFF80
7FFF80
7FFF80
3FFF80
0FEF80
ENDCHAR
STARTCHAR e
ENCODING 101
SWIDTH 75 0
DWIDTH -1 0
BBX 17 17 0 0
BITMAP
0FF800
3FFE00
7FFF00
7FFF00
FC1F80
F80F80
F80F80
FFFF00
FFFE00
FFFE00
F80000
F80000
FC0F80
7FFF00
7FFF00
3FFE00
0FF800
ENDCHAR
STARTCHAR f
ENCODING 102
SWIDTH 75 0
DWIDTH -1 0
BBX 17 24 0 0
BITMAP
03F800
0FFE00
1FFF00
1FFF00
3FFF80
3F1F80
3E0F80
3E0000
3E0000
3E0000
FFE000
FFE000
FFE000
FFE000
FFE000
3E0000
3E0000
3E0000
3E0000
3E0000
3E0000
3E0000
3E0000
3E0000
ENDCHAR
STARTCHAR g
ENCODING 103
SWIDTH 75 0
DWIDTH -1 0
BBX 17 17 0 0
BITMAP
0FF780
3FFF80
7FFF80
FFFF80
FC0F80
F80F80
FC0F80
FFFF80
7FFF80
3FFF80
0FEF80
000F80
001F00
7FFF00
7FFF00
3FFE00
1FF800
ENDCHAR
STARTCHAR h
ENCODING 104
SWIDTH 75 0
DWIDTH -1 0
BBX 17 24 0 0
BITMAP
F80000
F80000
F80000
F80000
F80000
F80000
F80000
FBF800
FFFE00
FFFF00
FFFF00
FFFF80
FC1F80
F80F80
F80F80
F80F80
F80F80
F80F80
F80F80
F80F80
F80F80
F80F80
F80F80
F80F80
ENDCHAR
STARTCHAR i
ENCODING 105
SWIDTH 75 0
DWIDTH -1 0
BBX 5 23 0 0
BITMAP
F8
F8
F8
F8
F8
00
F8
F8
F8
F8
F8
F8
F8
F8
F8
F8
F8
F8
F8
F8
F8
F8
F8
ENDCHAR
STARTCHAR j
ENCODING 106
SWIDTH 75 0
DWIDTH -1 0
BBX 17 23 0 0
BITMAP
000F80
000F80
000F80
000F80
000F80
000000
000F80
000F80
000F80
000F80
000F80
000F80
000F80
000F80
000F80
F80F80
F80F80
FC1F80
FFFF80
7FFF00
7FFF00
3FFE00
0FF800
ENDCHAR
STARTCHAR k
ENCODING 107
SWIDTH 75 0
DWIDTH -1 0
BBX 15 24 0 0
BITMAP
F800
F800
F800
F800
F800
F800
F800
F83E
F87E
F8FC
F9F8
FBF0
FFE0
FFC0
FF80
FF00
FF80
FFC0
FFE0
FBF0
F9F8
F8FC
F87E
F83E
ENDCHAR
STARTCHAR l
ENCODING 108
SWIDTH 75 0
DWIDTH -1 0
BBX 5 24 0 0
BITMAP
F8
F8
F8
F8
F8
F8
F8
F8
F8
F8
F8
F8
F8
F8
F8
F8
F8
F8
F8
F8
F8
F8
F8
F8
ENDCHAR
STARTCHAR m
ENCODING 109
SWIDTH 75 0
DWIDTH -1 0
BBX 17 17 0 0
BITMAP
DE3E00
FF7F00
FFFF80
FFFF80
FFFF80
FBEF80
FBEF80
FBEF80
FBEF80
FBEF80
FBEF80
FBEF80
FBEF80
FBEF80
FBEF80
FBEF80
FBEF80
ENDCHAR
STARTCHAR n
ENCODING 110
SWIDTH 75 0
DWIDTH -1 0
BBX 17 17 0 0
BITMAP
F7F800
FFFE00
FFFF00
FFFF00
FC1F80
F80F80
F80F80
F80F80
F80F80
F80F80
F80F80
F80F80
F80F80
F80F80
F80F80
F80F80
F80F80
ENDCHAR
STARTCHAR o
ENCODING 111
SWIDTH 75 0
DWIDTH -1 0
BBX 16 17 0 0
BITMAP
0FF0
3FFC
7FFE
7FFE
F81F
F00F
F00F
F00F
F00F
F00F
F00F
F00F
F81F
7FFE
7FFE
3FFC
0FF0
ENDCHAR
STARTCHAR p
ENCODING 112
SWIDTH 75 0
DWIDTH -1 0
BBX 16 17 0 0
BITMAP
F7F0
FFFC
FFFE
FFFE
FC3F
F81F
F81F
FC3F
FFFE
FFFE
FFFC
FBF0
F800
F800
F800
F800
F800
ENDCHAR
STARTCHAR q
ENCODING 113
SWIDTH 75 0
DWIDTH -1 0
BBX 16 17 0 0
BITMAP
0FEF
3FFF
7FFF
7FFF
FC3F
F81F
F81F
FC3F
7FFF
7FFF
3FFF
0FDF
001F
001F
001F
001F
001F
ENDCHAR
STARTCHAR r
ENCODING 114
SWIDTH 75 0
DWIDTH -1 0
BBX 17 17 0 0
BITMAP
F7F800
FFFE00
FFFF00
FFFF00
FC1F80
F80F80
F80000
F80000
F80000
F80000
F80000
F80000
F80000
F80000
F80000
F80000
F80000
ENDCHAR
STARTCHAR s
ENCODING 115
SWIDTH 75 0
DWIDTH -1 0
BBX 17 17 0 0
BITMAP
0FF800
3FFE00
7FFF00
FFFF80
FC0780
FC0000
FFF800
7FFE00
3FFF00
0FFF80
001F80
001F80
F01F80
FFFF80
7FFF00
3FFE00
0FF800
ENDCHAR
STARTCHAR t
ENCODING 116
SWIDTH 75 0
DWIDTH -1 0
BBX 17 24 0 0
BITMAP
3E0000
3E0000
3E0000
3E0000
3E0000
3E0000
3E0000
3E0000
3E0000
FFE000
FFE000
FFE000
FFE000
FFE000
3E0000
3E0000
3E0000
3E0F80
3F1F80
3FFF80
1FFF00
1FFF00
0FFE00
03F800
ENDCHAR
STARTCHAR u
ENCODING 117
SWIDTH 75 0
DWIDTH -1 0
BBX 17 17 0 0
BITMAP
F80F80
F80F80
F80F80
F80F80
F80F80
F80F80
F80F80
F80F80
F80F80
F80F80
F80F80
F80F80
FC1F80
7FFF80
7FFF80
3FFF80
0FF780
ENDCHAR
STARTCHAR v
ENCODING 118
SWIDTH 75 0
DWIDTH -1 0
BBX 16 17 0 0
BITMAP
F81F
F81F
F81F
7C3E
7C3E
3E7C
3E7C
1FF8
1FF8
0FF0
0FF0
07E0
07E0
03C0
03C0
0180
0180
ENDCHAR
STARTCHAR w
ENCODING 119
SWIDTH 75 0
DWIDTH -1 0
BBX 17 17 0 0
BITMAP
F80F80
F80F80
F80F80
F80F80
F80F80
F88F80
F9CF80
FBEF80
FFFF80
FFFF80
FF7F80
FE3F80
FC1F80
F80F80
F00780
E00380
C00180
ENDCHAR
STARTCHAR x
ENCODING 120
SWIDTH 75 0
DWIDTH -1 0
BBX 17 17 0 0
BITMAP
F00780
F80F80
FC1F80
FE3F80
7F7F00
3FFE00
1FFC00
0FF800
07F000
0FF800
1FFC00
3FFE00
7F7F00
FE3F80
FC1F80
F80F80
F00780
ENDCHAR
STARTCHAR y
ENCODING 121
SWIDTH 75 0
DWIDTH -1 0
BBX 17 17 0 0
BITMAP
F80F80
F80F80
F80F80
F80F80
F80F80
F80F80
FC0F80
FFFF80
7FFF80
3FFF80
0FEF80
000F80
001F00
7FFF00
7FFF00
3FFE00
1FF800
ENDCHAR
STARTCHAR z
ENCODING 122
SWIDTH 75 0
DWIDTH -1 0
BBX 17 17 0 0
BITMAP
FFFF80
FFFF80
FFFF80
FFFF00
003E00
007C00
00F800
01F000
03E000
07C000
0F8000
1F0000
3E0000
7FFF80
FFFF80
FFFF80
FFFF80
ENDCHAR
STARTCHAR {
ENCODING 123
SWIDTH 75 0
DWIDTH -1 0
BBX 11 24 0 0
BITMAP
03E0
07C0
0F80
1F00
1F00
1F00
1F00
1F00
3F00
7E00
7C00
F800
F800
7C00
7E00
3F00
1F00
1F00
1F00
1F00
1F00
0F80
07C0
03E0
ENDCHAR
STARTCHAR |
ENCODING 124
SWIDTH 75 0
DWIDTH -1 0
BBX 5 24 0 0
BITMAP
F8
F8
F8
F8
F8
F8
F8
F8
F8
F8
F8
F8
F8
F8
F8
F8
F8
F8
F8
F8
F8
F8
F8
F8
ENDCHAR
STARTCHAR }
ENCODING 125
SWIDTH 75 0
DWIDTH -1 0
BBX 11 24 0 0
BITMAP
F800
7C00
3E00
1F00
1F00
1F00
1F00
1F00
1F80
0FC0
07C0
03E0
03E0
07C0
0FC0
1F80
1F00
1F00
1F00
1F00
1F00
3E00
7C00
F800
ENDCHAR
STARTCHAR ~
ENCODING 126
SWIDTH 75 0
DWIDTH -1 0
BBX 15 4 0 13
BITMAP
1F0E
3F9C
73F8
E0F0
ENDCHAR
STARTCHAR ¤
ENCODING -92
SWIDTH 75 0
DWIDTH -1 0
BBX 18 24 0 0
BITMAP
03FF00
0FFF80
1FFFC0
1FFFC0
3F03C0
3E0000
3E0000
3E0000
FFFF00
FFFF00
FFFF00
3E0000
3E0000
3E0000
FFFF00
FFFF00
FFFF00
3E0000
3E0000
3F03C0
1FFFC0
1FFFC0
0FFF80
03FF00
ENDCHAR
STARTCHAR ¦
ENCODING -90
SWIDTH 75 0
DWIDTH -1 0
BBX 17 24 0 0
BITMAP
1E3C00
0F7800
07F000
000000
1FFE00
3FFF00
7FFF80
FFFF80
FE0F80
FC0000
FE0000
FFF800
7FFE00
3FFF00
0FFF80
001F80
000F80
000F80
000F80
F81F80
FFFF80
FFFF00
7FFE00
3FFC00
ENDCHAR
STARTCHAR ¼
ENCODING -68
SWIDTH 75 0
DWIDTH -1 0
BBX 21 24 0 0
BITMAP
07DFF8
1FFFF8
3FFFF8
7FFFF8
7FFFF8
FC3E00
F83E00
F83E00
F83E00
F83FE0
F83FE0
F83FE0
F83FE0
F83FE0
F83E00
F83E00
F83E00
F83E00
FC3E00
7FFFF8
7FFFF8
3FFFF8
1FFFF8
07DFF8
ENDCHAR
STARTCHAR ´
ENCODING -76
SWIDTH 75 0
DWIDTH -1 0
BBX 19 24 0 0
BITMAP
0F1E00
07BC00
03F800
000000
FFFFE0
FFFFE0
FFFFE0
FFFFE0
FFFFC0
000F80
001F00
003E00
007C00
00F800
01F000
03E000
07C000
0F8000
1F0000
3FFFE0
7FFFE0
FFFFE0
FFFFE0
FFFFE0
ENDCHAR
STARTCHAR ¨
ENCODING -88
SWIDTH 75 0
DWIDTH -1 0
BBX 17 21 0 0
BITMAP
1E3C00
0F7800
07F000
000000
0FF800
3FFE00
7FFF00
FFFF80
FC0780
FC0000
FFF800
7FFE00
3FFF00
0FFF80
001F80
001F80
F01F80
FFFF80
7FFF00
3FFE00
0FF800
ENDCHAR
STARTCHAR ½
ENCODING -67
SWIDTH 75 0
DWIDTH -1 0
BBX 21 17 0 0
BITMAP
0FBF80
3FFFE0
7FFFF0
7FFFF0
FFF1F8
FCF0F8
F8F0F8
F8FFF0
F8FFE0
F8FFE0
F8F000
FCF000
FFF0F8
7FFFF0
7FFFF0
3FFFE0
0FBF80
ENDCHAR
STARTCHAR ¸
ENCODING -72
SWIDTH 75 0
DWIDTH -1 0
BBX 17 21 0 0
BITMAP
1E3C00
0F7800
07F000
000000
FFFF80
FFFF80
FFFF80
FFFF00
003E00
007C00
00F800
01F000
03E000
07C000
0F8000
1F0000
3E0000
7FFF80
FFFF80
FFFF80
FFFF80
ENDCHAR
STARTCHAR ¾
ENCODING -66
SWIDTH 75 0
DWIDTH -1 0
BBX 15 24 0 0
BITMAP
3C78
3C78
3C78
3C78
F83E
F83E
F83E
F83E
F83E
F83E
F83E
FC7E
7EFC
3FF8
1FF0
0FE0
07C0
07C0
07C0
07C0
07C0
07C0
07C0
07C0
ENDCHAR
STARTCHAR ¡
ENCODING -95
SWIDTH 75 0
DWIDTH -1 0
BBX 21 23 0 1
BITMAP
F80000
F80000
F80000
F80000
F80000
000000
F80000
F80000
F80000
F80000
F80008
F80008
F80008
F80008
F80008
F80008
F80008
F80008
F80008
F80000
F80000
F80000
F80000
ENDCHAR
STARTCHAR ¢
ENCODING -94
SWIDTH 75 0
DWIDTH -1 0
BBX 16 19 0 0
BITMAP
00C0
1FF0
7FFC
FFFE
FFFE
FFFF
F98F
F180
F180
F180
F300
F300
FB0F
FFFF
FFFE
FFFE
7FFC
1FF0
0600
ENDCHAR
STARTCHAR £
ENCODING -93
SWIDTH 75 0
DWIDTH -1 0
BBX 14 24 0 0
BITMAP
3FF0
7FF8
FFFC
FFFC
F03C
F03C
F000
F000
F000
7000
7FF0
7FF0
7FF0
7FF0
7800
7800
7800
7800
7800
7800
FFFC
FFFC
FFFC
FFFC
ENDCHAR
STARTCHAR ¥
ENCODING -91
SWIDTH 75 0
DWIDTH -1 0
BBX 15 24 0 0
BITMAP
F83E
F83E
F83E
F83E
F83E
F83E
F83E
F83E
F83E
F83E
7C7C
3EF8
1FF0
7FFC
7FFC
07C0
07C0
7FFC
7FFC
07C0
07C0
07C0
07C0
07C0
ENDCHAR
STARTCHAR §
ENCODING -89
SWIDTH 75 0
DWIDTH -1 0
BBX 15 24 0 0
BITMAP
1FF8
3FFC
7FFE
FFFE
F81E
F81E
FC00
7F80
7FE0
7FF8
FBFC
F87E
FC3E
7FBE
3FFC
0FFC
03FC
007E
F03E
F03E
FFFE
FFFC
7FF8
3FF0
ENDCHAR
STARTCHAR ©
ENCODING -87
SWIDTH 75 0
DWIDTH -1 0
BBX 16 16 0 8
BITMAP
3FFC
7FFE
E007
C7E3
CFF3
DFFB
DC3B
DC03
DC03
DC3B
DFFB
CFF3
C7E3
E007
7FFE
3FFC
ENDCHAR
STARTCHAR ª
ENCODING -86
SWIDTH 75 0
DWIDTH -1 0
BBX 5 6 0 18
BITMAP
70
88
08
78
88
78
ENDCHAR
STARTCHAR «
ENCODING -85
SWIDTH 75 0
DWIDTH -1 0
BBX 21 19 0 3
BITMAP
00F078
01F0F8
03F1F8
07E3F0
0FC7E0
1F8FC0
3F1F80
7E3F00
FC7E00
F87C00
FC7E00
7E3F00
3F1F80
1F8FC0
0FC7E0
07E3F0
03F1F8
01F0F8
00F078
ENDCHAR
STARTCHAR ¬
ENCODING -84
SWIDTH 75 0
DWIDTH -1 0
BBX 18 11 0 9
BITMAP
FFFFC0
FFFFC0
FFFFC0
FFFFC0
FFFFC0
0007C0
0007C0
0007C0
0007C0
0007C0
0007C0
ENDCHAR
STARTCHAR ®
ENCODING -82
SWIDTH 75 0
DWIDTH -1 0
BBX 16 16 0 8
BITMAP
3FFC
7FFE
E007
C7C3
C7E3
C673
C673
C7F3
C7E3
C6C3
C663
C633
C633
E007
7FFE
3FFC
ENDCHAR
STARTCHAR ¯
ENCODING -81
SWIDTH 75 0
DWIDTH -1 0
BBX 19 5 0 19
BITMAP
FFFFE0
FFFFE0
FFFFE0
FFFFE0
FFFFE0
ENDCHAR
STARTCHAR °
ENCODING -80
SWIDTH 75 0
DWIDTH -1 0
BBX 6 7 0 17
BITMAP
78
FC
CC
CC
CC
FC
78
ENDCHAR
STARTCHAR ±
ENCODING -79
SWIDTH 75 0
DWIDTH -1 0
BBX 17 23 0 1
BITMAP
03E000
03E000
03E000
03E000
03E000
03E000
FFFF80
FFFF80
FFFF80
FFFF80
FFFF80
03E000
03E000
03E000
03E000
03E000
03E000
000000
FFFF80
FFFF80
FFFF80
FFFF80
FFFF80
ENDCHAR
STARTCHAR ²
ENCODING -78
SWIDTH 75 0
DWIDTH -1 0
BBX 6 9 0 15
BITMAP
30
78
CC
0C
18
30
60
FC
FC
ENDCHAR
STARTCHAR ³
ENCODING -77
SWIDTH 75 0
DWIDTH -1 0
BBX 6 9 0 15
BITMAP
70
F8
8C
0C
38
0C
8C
F8
70
ENDCHAR
STARTCHAR µ
ENCODING -75
SWIDTH 75 0
DWIDTH -1 0
BBX 16 24 0 0
BITMAP
F81F
F81F
F81F
F81F
F81F
F81F
F81F
F81F
FC3F
FFFF
FFFF
FFFF
FFFF
FBDF
F81F
F81F
F800
F800
F800
F800
F800
F800
F800
F800
ENDCHAR
STARTCHAR ·
ENCODING -73
SWIDTH 75 0
DWIDTH -1 0
BBX 5 5 0 9
BITMAP
F8
F8
F8
F8
F8
ENDCHAR
STARTCHAR ¹
ENCODING -71
SWIDTH 75 0
DWIDTH -1 0
BBX 6 9 0 15
BITMAP
30
70
F0
30
30
30
30
FC
FC
ENDCHAR
STARTCHAR º
ENCODING -70
SWIDTH 75 0
DWIDTH -1 0
BBX 6 9 0 15
BITMAP
78
FC
CC
CC
CC
CC
CC
FC
78
ENDCHAR
STARTCHAR »
ENCODING -69
SWIDTH 75 0
DWIDTH -1 0
BBX 21 19 0 3
BITMAP
F07800
F87C00
FC7E00
7E3F00
3F1F80
1F8FC0
0FC7E0
07E3F0
03F1F8
01F0F8
03F1F8
07E3F0
0FC7E0
1F8FC0
3F1F80
7E3F00
FC7E00
F87C00
F07800
ENDCHAR
STARTCHAR ¿
ENCODING -65
SWIDTH 75 0
DWIDTH -1 0
BBX 18 24 0 0
BITMAP
03E000
03E000
03E000
03E000
03E000
000000
03E000
03E000
03E000
03E000
07C000
0F8000
1F0000
3E0000
7C0000
F80000
F80000
F807C0
FC0FC0
FFFFC0
7FFF80
7FFF80
3FFF00
0FFC00
ENDCHAR
STARTCHAR À
ENCODING -64
SWIDTH 75 0
DWIDTH -1 0
BBX 17 24 0 0
BITMAP
078000
03C000
01E000
000000
07F000
0FF800
1FFC00
3FFE00
7FFF00
FC1F80
F80F80
F80F80
F80F80
F80F80
FFFF80
FFFF80
FFFF80
FFFF80
FFFF80
F80F80
F80F80
F80F80
F80F80
F80F80
ENDCHAR
STARTCHAR Á
ENCODING -63
SWIDTH 75 0
DWIDTH -1 0
BBX 17 24 0 0
BITMAP
00F000
01E000
03C000
000000
07F000
0FF800
1FFC00
3FFE00
7FFF00
FC1F80
F80F80
F80F80
F80F80
F80F80
FFFF80
FFFF80
FFFF80
FFFF80
FFFF80
F80F80
F80F80
F80F80
F80F80
F80F80
ENDCHAR
STARTCHAR Â
ENCODING -62
SWIDTH 75 0
DWIDTH -1 0
BBX 17 24 0 0
BITMAP
07F000
0F7800
1E3C00
000000
07F000
0FF800
1FFC00
3FFE00
7FFF00
FC1F80
F80F80
F80F80
F80F80
F80F80
FFFF80
FFFF80
FFFF80
FFFF80
FFFF80
F80F80
F80F80
F80F80
F80F80
F80F80
ENDCHAR
STARTCHAR Ã
ENCODING -61
SWIDTH 75 0
DWIDTH -1 0
BBX 17 24 0 0
BITMAP
1F8F00
3DDE00
78FC00
000000
07F000
0FF800
1FFC00
3FFE00
7FFF00
FC1F80
F80F80
F80F80
F80F80
F80F80
FFFF80
FFFF80
FFFF80
FFFF80
FFFF80
F80F80
F80F80
F80F80
F80F80
F80F80
ENDCHAR
STARTCHAR Ä
ENCODING -60
SWIDTH 75 0
DWIDTH -1 0
BBX 17 24 0 0
BITMAP
1E3C00
1E3C00
1E3C00
1E3C00
07F000
0FF800
1FFC00
3FFE00
7FFF00
FC1F80
F80F80
F80F80
F80F80
F80F80
FFFF80
FFFF80
FFFF80
FFFF80
FFFF80
F80F80
F80F80
F80F80
F80F80
F80F80
ENDCHAR
STARTCHAR Å
ENCODING -59
SWIDTH 75 0
DWIDTH -1 0
BBX 17 24 0 0
BITMAP
018000
024000
018000
000000
07F000
0FF800
1FFC00
3FFE00
7FFF00
FC1F80
F80F80
F80F80
F80F80
F80F80
FFFF80
FFFF80
FFFF80
FFFF80
FFFF80
F80F80
F80F80
F80F80
F80F80
F80F80
ENDCHAR
STARTCHAR Æ
ENCODING -58
SWIDTH 75 0
DWIDTH -1 0
BBX 21 24 0 0
BITMAP
07FFF8
0FFFF8
1FFFF8
3FFFF8
7FFFF8
FCF800
F8F800
F8F800
F8F800
F8FFC0
FFFFC0
FFFFC0
FFFFC0
FFFFC0
F8F800
F8F800
F8F800
F8F800
F8F800
F8FFF8
F8FFF8
F8FFF8
F8FFF8
F8FFF8
ENDCHAR
STARTCHAR Ç
ENCODING -57
SWIDTH 75 0
DWIDTH -1 0
BBX 18 24 0 0
BITMAP
0FFC00
3FFF00
7FFF80
7FFF80
FFFFC0
FC07C0
F80000
F80000
F80000
F80000
F80000
F80000
F80000
F80000
FC07C0
FFFFC0
7FFF80
7FFF80
3FFF00
0FFC00
010000
07C000
004000
0F8000
ENDCHAR
STARTCHAR È
ENCODING -56
SWIDTH 75 0
DWIDTH -1 0
BBX 17 24 0 0
BITMAP
01E000
00F000
007800
000000
FFFF80
FFFF80
FFFF80
FFFF80
FFFF80
F80000
F80000
FFFC00
FFFC00
FFFC00
FFFC00
FFFC00
F80000
F80000
F80000
FFFF80
FFFF80
FFFF80
FFFF80
FFFF80
ENDCHAR
STARTCHAR É
ENCODING -55
SWIDTH 75 0
DWIDTH -1 0
BBX 17 24 0 0
BITMAP
00F000
01E000
03C000
000000
FFFF80
FFFF80
FFFF80
FFFF80
FFFF80
F80000
F80000
FFFC00
FFFC00
FFFC00
FFFC00
FFFC00
F80000
F80000
F80000
FFFF80
FFFF80
FFFF80
FFFF80
FFFF80
ENDCHAR
STARTCHAR Ê
ENCODING -54
SWIDTH 75 0
DWIDTH -1 0
BBX 17 24 0 0
BITMAP
07F000
0F7800
1E3C00
000000
FFFF80
FFFF80
FFFF80
FFFF80
FFFF80
F80000
F80000
FFFC00
FFFC00
FFFC00
FFFC00
FFFC00
F80000
F80000
F80000
FFFF80
FFFF80
FFFF80
FFFF80
FFFF80
ENDCHAR
STARTCHAR Ë
ENCODING -53
SWIDTH 75 0
DWIDTH -1 0
BBX 18 24 0 0
BITMAP
0F3C00
0F3C00
0F3C00
0F3C00
FFFFC0
FFFFC0
FFFFC0
FFFFC0
FFFFC0
F80000
F80000
FFFE00
FFFE00
FFFE00
FFFE00
FFFE00
F80000
F80000
F80000
FFFFC0
FFFFC0
FFFFC0
FFFFC0
FFFFC0
ENDCHAR
STARTCHAR Ì
ENCODING -52
SWIDTH 75 0
DWIDTH -1 0
BBX 6 24 0 0
BITMAP
F0
78
3C
00
7C
7C
7C
7C
7C
7C
7C
7C
7C
7C
7C
7C
7C
7C
7C
7C
7C
7C
7C
7C
ENDCHAR
STARTCHAR Í
ENCODING -51
SWIDTH 75 0
DWIDTH -1 0
BBX 6 24 0 0
BITMAP
3C
78
F0
00
F8
F8
F8
F8
F8
F8
F8
F8
F8
F8
F8
F8
F8
F8
F8
F8
F8
F8
F8
F8
ENDCHAR
STARTCHAR Î
ENCODING -50
SWIDTH 75 0
DWIDTH -1 0
BBX 11 24 0 0
BITMAP
3F80
7BC0
F1E0
0000
1F00
1F00
1F00
1F00
1F00
1F00
1F00
1F00
1F00
1F00
1F00
1F00
1F00
1F00
1F00
1F00
1F00
1F00
1F00
1F00
ENDCHAR
STARTCHAR Ï
ENCODING -49
SWIDTH 75 0
DWIDTH -1 0
BBX 9 24 0 0
BITMAP
F780
F780
F780
F780
3E00
3E00
3E00
3E00
3E00
3E00
3E00
3E00
3E00
3E00
3E00
3E00
3E00
3E00
3E00
3E00
3E00
3E00
3E00
3E00
ENDCHAR
STARTCHAR Ð
ENCODING -48
SWIDTH 75 0
DWIDTH -1 0
BBX 19 24 0 0
BITMAP
7FFC00
7FFF00
7FFF80
7FFFC0
7FFFC0
7C07E0
7C03E0
7C03E0
7C03E0
7C03E0
7C03E0
FF03E0
FF03E0
7C03E0
7C03E0
7C03E0
7C03E0
7C03E0
7C07E0
7FFFC0
7FFFC0
7FFF80
7FFF00
7FFC00
ENDCHAR
STARTCHAR Ñ
ENCODING -47
SWIDTH 75 0
DWIDTH -1 0
BBX 18 24 0 0
BITMAP
1F8F00
3DDE00
78FC00
000000
C007C0
E007C0
F007C0
F807C0
FC07C0
FE07C0
FF07C0
FF87C0
FFC7C0
FBE7C0
F9F7C0
F8FFC0
F87FC0
F83FC0
F81FC0
F80FC0
F807C0
F807C0
F807C0
F807C0
ENDCHAR
STARTCHAR Ò
ENCODING -46
SWIDTH 75 0
DWIDTH -1 0
BBX 17 24 0 0
BITMAP
078000
03C000
01E000
000000
07F000
1FFC00
3FFE00
7FFF00
7FFF00
FC1F80
F80F80
F80F80
F80F80
F80F80
F80F80
F80F80
F80F80
F80F80
FC1F80
7FFF00
7FFF00
3FFE00
1FFC00
07F000
ENDCHAR
STARTCHAR Ó
ENCODING -45
SWIDTH 75 0
DWIDTH -1 0
BBX 17 24 0 0
BITMAP
00F000
01E000
03C000
000000
07F000
1FFC00
3FFE00
7FFF00
7FFF00
FC1F80
F80F80
F80F80
F80F80
F80F80
F80F80
F80F80
F80F80
F80F80
FC1F80
7FFF00
7FFF00
3FFE00
1FFC00
07F000
ENDCHAR
STARTCHAR Ô
ENCODING -44
SWIDTH 75 0
DWIDTH -1 0
BBX 17 24 0 0
BITMAP
07F000
0F7800
1E3C00
000000
07F000
1FFC00
3FFE00
7FFF00
7FFF00
FC1F80
F80F80
F80F80
F80F80
F80F80
F80F80
F80F80
F80F80
F80F80
FC1F80
7FFF00
7FFF00
3FFE00
1FFC00
07F000
ENDCHAR
STARTCHAR Õ
ENCODING -43
SWIDTH 75 0
DWIDTH -1 0
BBX 17 24 0 0
BITMAP
1F8F00
3DDE00
78FC00
000000
07F000
1FFC00
3FFE00
7FFF00
7FFF00
FC1F80
F80F80
F80F80
F80F80
F80F80
F80F80
F80F80
F80F80
F80F80
FC1F80
7FFF00
7FFF00
3FFE00
1FFC00
07F000
ENDCHAR
STARTCHAR Ö
ENCODING -42
SWIDTH 75 0
DWIDTH -1 0
BBX 17 24 0 0
BITMAP
1E3C00
1E3C00
1E3C00
1E3C00
07F000
1FFC00
3FFE00
7FFF00
7FFF00
FC1F80
F80F80
F80F80
F80F80
F80F80
F80F80
F80F80
F80F80
F80F80
FC1F80
7FFF00
7FFF00
3FFE00
1FFC00
07F000
ENDCHAR
STARTCHAR ×
ENCODING -41
SWIDTH 75 0
DWIDTH -1 0
BBX 15 14 0 5
BITMAP
F01E
F83E
FC7E
FEFE
7FFC
3FF8
1FF0
1FF0
3FF8
7FFC
FEFE
FC7E
F83E
F01E
ENDCHAR
STARTCHAR Ø
ENCODING -40
SWIDTH 75 0
DWIDTH -1 0
BBX 18 24 0 0
BITMAP
003000
07F800
1FFE00
3FFF00
7FFF80
7FFF80
FC6FC0
F867C0
F867C0
F867C0
F867C0
F8E7C0
F9C7C0
F987C0
F987C0
F987C0
F987C0
FD8FC0
7FFF80
7FFF80
3FFF00
1FFE00
07F800
030000
ENDCHAR
STARTCHAR Ù
ENCODING -39
SWIDTH 75 0
DWIDTH -1 0
BBX 18 24 0 0
BITMAP
078000
03C000
01E000
000000
F807C0
F807C0
F807C0
F807C0
F807C0
F807C0
F807C0
F807C0
F807C0
F807C0
F807C0
F807C0
F807C0
F807C0
FC0FC0
7FFF80
7FFF80
3FFF00
1FFE00
07F800
ENDCHAR
STARTCHAR Ú
ENCODING -38
SWIDTH 75 0
DWIDTH -1 0
BBX 18 24 0 0
BITMAP
00F000
01E000
03C000
000000
F807C0
F807C0
F807C0
F807C0
F807C0
F807C0
F807C0
F807C0
F807C0
F807C0
F807C0
F807C0
F807C0
F807C0
FC0FC0
7FFF80
7FFF80
3FFF00
1FFE00
07F800
ENDCHAR
STARTCHAR Û
ENCODING -37
SWIDTH 75 0
DWIDTH -1 0
BBX 18 24 0 0
BITMAP
07F800
0F3C00
1E1E00
000000
F807C0
F807C0
F807C0
F807C0
F807C0
F807C0
F807C0
F807C0
F807C0
F807C0
F807C0
F807C0
F807C0
F807C0
FC0FC0
7FFF80
7FFF80
3FFF00
1FFE00
07F800
ENDCHAR
STARTCHAR Ü
ENCODING -36
SWIDTH 75 0
DWIDTH -1 0
BBX 18 24 0 0
BITMAP
1E1E00
1E1E00
1E1E00
1E1E00
F807C0
F807C0
F807C0
F807C0
F807C0
F807C0
F807C0
F807C0
F807C0
F807C0
F807C0
F807C0
F807C0
F807C0
FC0FC0
7FFF80
7FFF80
3FFF00
1FFE00
07F800
ENDCHAR
STARTCHAR Ý
ENCODING -35
SWIDTH 75 0
DWIDTH -1 0
BBX 15 24 0 0
BITMAP
01E0
03C0
0780
0000
F83E
F83E
F83E
F83E
F83E
F83E
F83E
FC7E
7EFC
3FF8
1FF0
0FE0
07C0
07C0
07C0
07C0
07C0
07C0
07C0
07C0
ENDCHAR
STARTCHAR Þ
ENCODING -34
SWIDTH 75 0
DWIDTH -1 0
BBX 15 24 0 0
BITMAP
F800
F800
F800
F800
F800
F800
FFE0
FFF8
FFFC
FFFC
F83E
F81E
F81E
F83E
FFFC
FFFC
FFF8
FFE0
F800
F800
F800
F800
F800
F800
ENDCHAR
STARTCHAR ß
ENCODING -33
SWIDTH 75 0
DWIDTH -1 0
BBX 17 24 0 0
BITMAP
0FF000
3FFC00
7FFE00
7FFE00
FC3F00
F81F00
F81F00
F83F00
F87E00
FBFC00
FBF800
FBFC00
FBFE00
F83F00
F81F80
F80F80
F80F80
F80F80
F80F80
F81F80
FBFF00
FBFF00
FBFE00
FBF000
ENDCHAR
STARTCHAR à
ENCODING -32
SWIDTH 75 0
DWIDTH -1 0
BBX 17 21 0 0
BITMAP
078000
03C000
01E000
000000
1FF800
3FFE00
3FFF00
3FFF00
3FFF80
000F80
0FEF80
3FFF80
7FFF80
F80F80
F80F80
F80F80
F80F80
FFFF80
7FFF80
3FFF80
0FF780
ENDCHAR
STARTCHAR á
ENCODING -31
SWIDTH 75 0
DWIDTH -1 0
BBX 17 21 0 0
BITMAP
00F000
01E000
03C000
000000
1FF800
3FFE00
3FFF00
3FFF00
3FFF80
000F80
0FEF80
3FFF80
7FFF80
F80F80
F80F80
F80F80
F80F80
FFFF80
7FFF80
3FFF80
0FF780
ENDCHAR
STARTCHAR â
ENCODING -30
SWIDTH 75 0
DWIDTH -1 0
BBX 17 21 0 0
BITMAP
07F000
0F7800
1E3C00
000000
1FF800
3FFE00
3FFF00
3FFF00
3FFF80
000F80
0FEF80
3FFF80
7FFF80
F80F80
F80F80
F80F80
F80F80
FFFF80
7FFF80
3FFF80
0FF780
ENDCHAR
STARTCHAR ã
ENCODING -29
SWIDTH 75 0
DWIDTH -1 0
BBX 17 21 0 0
BITMAP
1F8F00
3DDE00
78FC00
000000
1FF800
3FFE00
3FFF00
3FFF00
3FFF80
000F80
0FEF80
3FFF80
7FFF80
F80F80
F80F80
F80F80
F80F80
FFFF80
7FFF80
3FFF80
0FF780
ENDCHAR
STARTCHAR ä
ENCODING -28
SWIDTH 75 0
DWIDTH -1 0
BBX 17 22 0 0
BITMAP
1E7800
1E7800
1E7800
1E7800
000000
1FF800
3FFE00
3FFF00
3FFF00
3FFF80
000F80
0FEF80
3FFF80
7FFF80
F80F80
F80F80
F80F80
F80F80
FFFF80
7FFF80
3FFF80
0FF780
ENDCHAR
STARTCHAR å
ENCODING -27
SWIDTH 75 0
DWIDTH -1 0
BBX 17 21 0 0
BITMAP
018000
024000
018000
000000
1FF800
3FFE00
3FFF00
3FFF00
3FFF80
000F80
0FEF80
3FFF80
7FFF80
F80F80
F80F80
F80F80
F80F80
FFFF80
7FFF80
3FFF80
0FF780
ENDCHAR
STARTCHAR æ
ENCODING -26
SWIDTH 75 0
DWIDTH -1 0
BBX 21 17 0 0
BITMAP
1F9F80
3FFFE0
3FFFF0
3FFFF0
3FF9F8
01F0F8
0FF0F8
3FFFF0
7FFFE0
F9FFE0
F9F000
F9F000
F9F8F8
FFFFF0
7FFFF0
3FFFE0
0F9F80
ENDCHAR
STARTCHAR ç
ENCODING -25
SWIDTH 75 0
DWIDTH -1 0
BBX 17 17 0 0
BITMAP
0FF800
3FFE00
7FFF00
7FFF00
FFFF80
FC0780
F80000
F80000
FC0780
FFFF80
7FFF00
7FFF00
3FFE00
0FF800
004000
002000
07C000
ENDCHAR
STARTCHAR è
ENCODING -24
SWIDTH 75 0
DWIDTH -1 0
BBX 17 21 0 0
BITMAP
078000
03C000
01E000
000000
0FF800
3FFE00
7FFF00
7FFF00
FC1F80
F80F80
F80F80
FFFF00
FFFE00
FFFE00
F80000
F80000
FC0F80
7FFF00
7FFF00
3FFE00
0FF800
ENDCHAR
STARTCHAR é
ENCODING -23
SWIDTH 75 0
DWIDTH -1 0
BBX 17 21 0 0
BITMAP
00F000
01E000
03C000
000000
0FF800
3FFE00
7FFF00
7FFF00
FC1F80
F80F80
F80F80
FFFF00
FFFE00
FFFE00
F80000
F80000
FC0F80
7FFF00
7FFF00
3FFE00
0FF800
ENDCHAR
STARTCHAR ê
ENCODING -22
SWIDTH 75 0
DWIDTH -1 0
BBX 17 21 0 0
BITMAP
07F000
0F7800
1E3C00
000000
0FF800
3FFE00
7FFF00
7FFF00
FC1F80
F80F80
F80F80
FFFF00
FFFE00
FFFE00
F80000
F80000
FC0F80
7FFF00
7FFF00
3FFE00
0FF800
ENDCHAR
STARTCHAR ë
ENCODING -21
SWIDTH 75 0
DWIDTH -1 0
BBX 17 22 0 0
BITMAP
1E3C00
1E3C00
1E3C00
1E3C00
000000
0FF800
3FFE00
7FFF00
7FFF00
FC1F80
F80F80
F80F80
FFFF00
FFFE00
FFFE00
F80000
F80000
FC0F80
7FFF00
7FFF00
3FFE00
0FF800
ENDCHAR
STARTCHAR ì
ENCODING -20
SWIDTH 75 0
DWIDTH -1 0
BBX 6 21 0 0
BITMAP
F0
78
3C
00
7C
7C
7C
7C
7C
7C
7C
7C
7C
7C
7C
7C
7C
7C
7C
7C
7C
ENDCHAR
STARTCHAR í
ENCODING -19
SWIDTH 75 0
DWIDTH -1 0
BBX 6 21 0 0
BITMAP
3C
78
F0
00
F8
F8
F8
F8
F8
F8
F8
F8
F8
F8
F8
F8
F8
F8
F8
F8
F8
ENDCHAR
STARTCHAR î
ENCODING -18
SWIDTH 75 0
DWIDTH -1 0
BBX 9 21 0 0
BITMAP
3E00
7700
E380
0000
3E00
3E00
3E00
3E00
3E00
3E00
3E00
3E00
3E00
3E00
3E00
3E00
3E00
3E00
3E00
3E00
3E00
ENDCHAR
STARTCHAR ï
ENCODING -17
SWIDTH 75 0
DWIDTH -1 0
BBX 9 22 0 0
BITMAP
F780
F780
F780
F780
0000
3E00
3E00
3E00
3E00
3E00
3E00
3E00
3E00
3E00
3E00
3E00
3E00
3E00
3E00
3E00
3E00
3E00
ENDCHAR
STARTCHAR ð
ENCODING -16
SWIDTH 75 0
DWIDTH -1 0
BBX 16 22 0 0
BITMAP
1C00
0640
0F80
1300
01C0
0FF0
3FFC
7FFE
7FFE
F81F
F00F
F00F
F00F
F00F
F00F
F00F
F00F
F81F
7FFE
7FFE
3FFC
0FF0
ENDCHAR
STARTCHAR ñ
ENCODING -15
SWIDTH 75 0
DWIDTH -1 0
BBX 17 21 0 0
BITMAP
3F1E00
7BBC00
F1F800
000000
F7F800
FFFE00
FFFF00
FFFF00
FC1F80
F80F80
F80F80
F80F80
F80F80
F80F80
F80F80
F80F80
F80F80
F80F80
F80F80
F80F80
F80F80
ENDCHAR
STARTCHAR ò
ENCODING -14
SWIDTH 75 0
DWIDTH -1 0
BBX 16 21 0 0
BITMAP
0F00
0780
03C0
0000
0FF0
3FFC
7FFE
7FFE
F81F
F00F
F00F
F00F
F00F
F00F
F00F
F00F
F81F
7FFE
7FFE
3FFC
0FF0
ENDCHAR
STARTCHAR ó
ENCODING -13
SWIDTH 75 0
DWIDTH -1 0
BBX 16 21 0 0
BITMAP
00F0
01E0
03C0
0000
0FF0
3FFC
7FFE
7FFE
F81F
F00F
F00F
F00F
F00F
F00F
F00F
F00F
F81F
7FFE
7FFE
3FFC
0FF0
ENDCHAR
STARTCHAR ô
ENCODING -12
SWIDTH 75 0
DWIDTH -1 0
BBX 16 21 0 0
BITMAP
0FF0
1E78
3C3C
0000
0FF0
3FFC
7FFE
7FFE
F81F
F00F
F00F
F00F
F00F
F00F
F00F
F00F
F81F
7FFE
7FFE
3FFC
0FF0
ENDCHAR
STARTCHAR õ
ENCODING -11
SWIDTH 75 0
DWIDTH -1 0
BBX 16 21 0 0
BITMAP
1F8F
3DDE
78FC
0000
0FF0
3FFC
7FFE
7FFE
F81F
F00F
F00F
F00F
F00F
F00F
F00F
F00F
F81F
7FFE
7FFE
3FFC
0FF0
ENDCHAR
STARTCHAR ö
ENCODING -10
SWIDTH 75 0
DWIDTH -1 0
BBX 16 22 0 0
BITMAP
1E78
1E78
1E78
1E78
0000
0FF0
3FFC
7FFE
7FFE
F81F
F00F
F00F
F00F
F00F
F00F
F00F
F00F
F81F
7FFE
7FFE
3FFC
0FF0
ENDCHAR
STARTCHAR ÷
ENCODING -9
SWIDTH 75 0
DWIDTH -1 0
BBX 17 19 0 0
BITMAP
03E000
03E000
03E000
03E000
03E000
000000
000000
FFFF80
FFFF80
FFFF80
FFFF80
FFFF80
000000
000000
03E000
03E000
03E000
03E000
03E000
ENDCHAR
STARTCHAR ø
ENCODING -8
SWIDTH 75 0
DWIDTH -1 0
BBX 16 18 0 0
BITMAP
0040
0FF0
3FFC
7FFE
7FFE
F89F
F08F
F08F
F08F
F10F
F10F
F10F
F91F
7FFE
7FFE
3FFC
0FF0
0200
ENDCHAR
STARTCHAR ù
ENCODING -7
SWIDTH 75 0
DWIDTH -1 0
BBX 17 21 0 0
BITMAP
078000
03C000
01E000
000000
F80F80
F80F80
F80F80
F80F80
F80F80
F80F80
F80F80
F80F80
F80F80
F80F80
F80F80
F80F80
FC1F80
7FFF80
7FFF80
3FFF80
0FF780
ENDCHAR
STARTCHAR ú
ENCODING -6
SWIDTH 75 0
DWIDTH -1 0
BBX 17 21 0 0
BITMAP
00F000
01E000
03C000
000000
F80F80
F80F80
F80F80
F80F80
F80F80
F80F80
F80F80
F80F80
F80F80
F80F80
F80F80
F80F80
FC1F80
7FFF80
7FFF80
3FFF80
0FF780
ENDCHAR
STARTCHAR û
ENCODING -5
SWIDTH 75 0
DWIDTH -1 0
BBX 17 21 0 0
BITMAP
07F000
0F7800
1E3C00
000000
F80F80
F80F80
F80F80
F80F80
F80F80
F80F80
F80F80
F80F80
F80F80
F80F80
F80F80
F80F80
FC1F80
7FFF80
7FFF80
3FFF80
0FF780
ENDCHAR
STARTCHAR ü
ENCODING -4
SWIDTH 75 0
DWIDTH -1 0
BBX 17 22 0 0
BITMAP
1E3C00
1E3C00
1E3C00
1E3C00
000000
F80F80
F80F80
F80F80
F80F80
F80F80
F80F80
F80F80
F80F80
F80F80
F80F80
F80F80
F80F80
FC1F80
7FFF80
7FFF80
3FFF80
0FF780
ENDCHAR
STARTCHAR ý
ENCODING -3
SWIDTH 75 0
DWIDTH -1 0
BBX 17 17 0 0
BITMAP
F80F80
F80F80
F80F80
F80F80
F80F80
F80F80
FC0F80
FFFF80
7FFF80
3FFF80
0FEF80
000F80
001F00
7FFF00
7FFF00
3FFE00
1FF800
ENDCHAR
STARTCHAR þ
ENCODING -2
SWIDTH 75 0
DWIDTH -1 0
BBX 17 24 0 0
BITMAP
F80000
F80000
F80000
F80000
FFF800
FFFE00
FFFF00
FFFF00
F80F80
F80780
F80780
F80780
F80780
F80780
F80780
F80F80
FFFF00
FFFF00
FFFE00
FFF800
F80000
F80000
F80000
F80000
ENDCHAR
STARTCHAR ÿ
ENCODING -1
SWIDTH 75 0
DWIDTH -1 0
BBX 17 17 0 0
BITMAP
F80F80
F80F80
F80F80
F80F80
F80F80
F80F80
FC0F80
FFFF80
7FFF80
3FFF80
0FEF80
000F80
001F00
7FFF00
7FFF00
3FFE00
1FF800
ENDCHAR
ENDFONT
