STARTFONT 2.1
COMMENT Lumiplan font build using LumiStudio
FONT I_Import
SIZE 24 75 75
FONTBOUNDINGBOX 12 24 0 0
STARTPROPERTIES 1
Copyright "Copyright (c) 2021 Lumiplan"
ENDPROPERTIES
CHARS 145
STARTCHAR 
ENCODING 14
SWIDTH 75 0
DWIDTH -1 0
BBX 0 0 1 23
ENDCHAR
STARTCHAR  
ENCODING 32
SWIDTH 75 0
DWIDTH -1 0
BBX 0 0 4 23
ENDCHAR
STARTCHAR !
ENCODING 33
SWIDTH 75 0
DWIDTH -1 0
BBX 11 10 1 11
BITMAP
CAA0
AAA0
AAE0
AAA0
CEA0
0000
0000
0000
0180
0020
ENDCHAR
STARTCHAR "
ENCODING 34
SWIDTH 75 0
DWIDTH -1 0
BBX 12 12 0 9
BITMAP
2570
5740
7560
5540
5570
0000
0000
0000
0000
C060
3E00
01F0
ENDCHAR
STARTCHAR #
ENCODING 35
SWIDTH 75 0
DWIDTH -1 0
BBX 12 14 0 9
BITMAP
0030
0000
4000
4000
4000
4000
7000
0000
0000
0030
01E0
7E00
00F0
FF00
ENDCHAR
STARTCHAR $
ENCODING 36
SWIDTH 75 0
DWIDTH -1 0
BBX 9 11 0 11
BITMAP
E000
3800
1C00
0E00
3F80
1E00
3C00
F000
C000
0800
E000
ENDCHAR
STARTCHAR %
ENCODING 37
SWIDTH 75 0
DWIDTH -1 0
BBX 12 14 0 9
BITMAP
0600
0600
0600
0600
0F00
1F80
3FC0
7FE0
FFF0
FFF0
0600
0600
0600
0F00
ENDCHAR
STARTCHAR &
ENCODING 38
SWIDTH 75 0
DWIDTH -1 0
BBX 9 9 1 10
BITMAP
0800
4900
2A00
1C00
FF80
1C00
2A00
4900
0800
ENDCHAR
STARTCHAR '
ENCODING 39
SWIDTH 75 0
DWIDTH -1 0
BBX 11 16 0 8
BITMAP
0400
0E00
0400
0E00
1F00
0E00
1F00
3F80
1F00
3F80
7FC0
1F00
3F80
7FC0
FFE0
0400
ENDCHAR
STARTCHAR (
ENCODING 40
SWIDTH 75 0
DWIDTH -1 0
BBX 9 15 0 9
BITMAP
0C00
1E00
1E00
0C00
1E00
3F00
5E80
9E00
1E00
1E00
1E00
2100
4080
4000
C000
ENDCHAR
STARTCHAR )
ENCODING 41
SWIDTH 75 0
DWIDTH -1 0
BBX 10 13 0 9
BITMAP
0400
0E00
0E00
0400
1F00
AE80
4E40
0E00
0E00
1200
9380
9080
3000
ENDCHAR
STARTCHAR *
ENCODING 42
SWIDTH 75 0
DWIDTH -1 0
BBX 11 16 1 8
BITMAP
03C0
0C20
1000
2000
4000
59A0
9520
95A0
9920
9520
55A0
4000
2000
1000
0C20
03C0
ENDCHAR
STARTCHAR +
ENCODING 43
SWIDTH 75 0
DWIDTH -1 0
BBX 5 14 0 9
BITMAP
80
40
20
10
90
48
48
88
48
50
10
20
40
80
ENDCHAR
STARTCHAR ,
ENCODING 44
SWIDTH 75 0
DWIDTH -1 0
BBX 11 16 1 8
BITMAP
00C0
01E0
01E0
00C0
0000
7FE0
FFE0
07E0
0FE0
1FC0
3B80
7700
6E00
1C40
38A0
3040
ENDCHAR
STARTCHAR -
ENCODING 45
SWIDTH 75 0
DWIDTH -1 0
BBX 3 7 0 12
BITMAP
80
E0
E0
60
40
C0
80
ENDCHAR
STARTCHAR .
ENCODING 46
SWIDTH 75 0
DWIDTH -1 0
BBX 12 16 0 8
BITMAP
FFF0
8010
8010
8610
8610
8610
8F10
9F90
BFD0
8610
8610
8610
8F10
8010
8010
FFF0
ENDCHAR
STARTCHAR /
ENCODING 47
SWIDTH 75 0
DWIDTH -1 0
BBX 9 13 0 9
BITMAP
0180
0380
0F80
1F80
1E80
1880
1080
1380
1780
1300
7000
F000
6000
ENDCHAR
STARTCHAR 0
ENCODING 48
SWIDTH 75 0
DWIDTH -1 0
BBX 11 17 1 6
BITMAP
0F80
0880
0A80
0880
FE80
82E0
AA80
82A0
AA80
9FE0
B040
9560
B040
9560
B040
9560
FFE0
ENDCHAR
STARTCHAR 1
ENCODING 49
SWIDTH 75 0
DWIDTH -1 0
BBX 11 17 0 6
BITMAP
1FC0
1040
1540
1040
1540
F040
1540
5040
1540
7FE0
2020
6AA0
2020
6AA0
2020
6AA0
FFE0
ENDCHAR
STARTCHAR 2
ENCODING 50
SWIDTH 75 0
DWIDTH -1 0
BBX 12 19 0 5
BITMAP
FFF0
FFF0
FFE0
FFC0
FF80
FF00
C000
8000
C000
FF00
FF80
FFC0
FFE0
FFF0
FFF0
FFF0
FFF0
FFF0
FFF0
ENDCHAR
STARTCHAR 3
ENCODING 51
SWIDTH 75 0
DWIDTH -1 0
BBX 12 19 0 5
BITMAP
FFF0
0FF0
1FF0
7FF0
FF30
FE30
0070
0070
0070
FE30
FF30
7FF0
3FF0
1FF0
FFF0
FFF0
FFF0
FFF0
FFF0
ENDCHAR
STARTCHAR 4
ENCODING 52
SWIDTH 75 0
DWIDTH -1 0
BBX 12 16 0 8
BITMAP
07F0
FBF0
C5F0
6630
63C0
33F0
19F0
0DF0
06F0
03F0
01F0
0070
0030
0010
03F0
07F0
ENDCHAR
STARTCHAR 5
ENCODING 53
SWIDTH 75 0
DWIDTH -1 0
BBX 12 16 0 8
BITMAP
FE00
FDF0
FA30
C660
3E60
FCC0
FD80
FB00
F600
FC00
F000
E000
C000
8000
FC00
FE00
ENDCHAR
STARTCHAR 6
ENCODING 54
SWIDTH 75 0
DWIDTH -1 0
BBX 11 14 1 9
BITMAP
0780
1FE0
3FE0
5FE0
5FE0
E7E0
F860
FF80
FFE0
7FE0
7FE0
3FE0
1FE0
0780
ENDCHAR
STARTCHAR 7
ENCODING 55
SWIDTH 75 0
DWIDTH -1 0
BBX 3 10 0 11
BITMAP
80
80
C0
E0
E0
E0
60
40
80
80
ENDCHAR
STARTCHAR 8
ENCODING 56
SWIDTH 75 0
DWIDTH -1 0
BBX 12 15 0 6
BITMAP
1800
7C00
EEE0
C3F0
C7F0
87F0
07F0
03E0
03C0
0280
0480
0880
1080
1080
1040
ENDCHAR
STARTCHAR 9
ENCODING 57
SWIDTH 75 0
DWIDTH -1 0
BBX 12 18 0 6
BITMAP
0400
0700
0DC0
3FE0
7FF0
FC20
FC00
F800
F800
F000
7000
7800
2400
2200
2100
2100
2000
2000
ENDCHAR
STARTCHAR :
ENCODING 58
SWIDTH 75 0
DWIDTH -1 0
BBX 12 13 0 10
BITMAP
07C0
3860
4020
5B90
B420
4420
4C20
2020
21A0
2E20
1040
1080
0F00
ENDCHAR
STARTCHAR ;
ENCODING 59
SWIDTH 75 0
DWIDTH -1 0
BBX 12 15 0 8
BITMAP
0200
0780
08E0
DC30
6610
22C0
5A40
4610
50A0
5860
4E60
20A0
31A0
1E20
00C0
ENDCHAR
STARTCHAR <
ENCODING 60
SWIDTH 75 0
DWIDTH -1 0
BBX 11 16 1 8
BITMAP
03C0
0FE0
1E60
3800
7800
7180
F3C0
F3C0
F000
F000
73C0
73C0
3FE0
1FE0
0FE0
03C0
ENDCHAR
STARTCHAR =
ENCODING 61
SWIDTH 75 0
DWIDTH -1 0
BBX 5 14 0 9
BITMAP
80
C0
E0
F0
70
78
78
78
78
70
70
E0
C0
80
ENDCHAR
STARTCHAR >
ENCODING 62
SWIDTH 75 0
DWIDTH -1 0
BBX 12 15 0 8
BITMAP
07E0
07E0
03C0
03C0
03C0
1FF0
3FF0
7FF0
FFF0
F040
6710
29F0
0AA0
08A0
0710
ENDCHAR
STARTCHAR ?
ENCODING 63
SWIDTH 75 0
DWIDTH -1 0
BBX 12 15 0 8
BITMAP
0030
0010
0010
7390
7390
FFF0
FFF0
FFF0
FFF0
1070
C730
FF80
AA80
2880
C700
ENDCHAR
STARTCHAR @
ENCODING 64
SWIDTH 75 0
DWIDTH -1 0
BBX 11 15 0 8
BITMAP
FFE0
10C0
1080
1080
F080
F080
F080
FF80
FF80
8380
3980
4580
55C0
44E0
3800
ENDCHAR
STARTCHAR A
ENCODING 65
SWIDTH 75 0
DWIDTH -1 0
BBX 11 15 1 8
BITMAP
3FE0
4000
8000
B8C0
A520
A520
B920
A520
A520
B8C0
8000
8000
BFE0
8000
7FE0
ENDCHAR
STARTCHAR B
ENCODING 66
SWIDTH 75 0
DWIDTH -1 0
BBX 12 15 0 8
BITMAP
FFF0
0000
0000
48C0
6850
5850
4850
4850
4A50
4980
0000
0000
FFF0
0000
FFF0
ENDCHAR
STARTCHAR C
ENCODING 67
SWIDTH 75 0
DWIDTH -1 0
BBX 12 15 0 8
BITMAP
FFF0
0000
0000
C970
2940
2940
2970
2950
2940
C640
0000
0000
FFF0
0000
FFF0
ENDCHAR
STARTCHAR D
ENCODING 68
SWIDTH 75 0
DWIDTH -1 0
BBX 9 15 0 8
BITMAP
F000
0800
0400
1400
9400
9400
1400
1400
8400
5400
0400
0400
F200
0100
FF80
ENDCHAR
STARTCHAR E
ENCODING 69
SWIDTH 75 0
DWIDTH -1 0
BBX 11 17 1 6
BITMAP
2220
5540
5540
2220
7760
7760
7760
7760
7760
FFE0
FFE0
FFE0
FFE0
FFE0
FFE0
FFE0
FFE0
ENDCHAR
STARTCHAR F
ENCODING 70
SWIDTH 75 0
DWIDTH -1 0
BBX 10 17 0 6
BITMAP
1100
AA80
AA80
1100
BB80
BB80
BB80
BB80
BB80
FFC0
FFC0
FFC0
FFC0
FFC0
FFC0
FFC0
FFC0
ENDCHAR
STARTCHAR G
ENCODING 71
SWIDTH 75 0
DWIDTH -1 0
BBX 9 17 3 6
BITMAP
3F80
7780
6400
4780
4000
C000
C000
C000
4000
4000
7F80
7F80
6780
6400
7F80
1800
1800
ENDCHAR
STARTCHAR H
ENCODING 72
SWIDTH 75 0
DWIDTH -1 0
BBX 9 17 0 6
BITMAP
FE00
F700
1300
F100
0100
0180
0180
0180
1900
2500
FF00
FF00
F300
1300
FF00
0C00
0C00
ENDCHAR
STARTCHAR I
ENCODING 73
SWIDTH 75 0
DWIDTH -1 0
BBX 11 17 1 6
BITMAP
3FE0
7FE0
6100
7F00
6100
6100
6100
7FE0
4000
4000
4000
4000
4000
C180
7E60
0240
0180
ENDCHAR
STARTCHAR J
ENCODING 74
SWIDTH 75 0
DWIDTH -1 0
BBX 12 15 0 8
BITMAP
FFF0
FFF0
6480
6480
6480
6480
6480
E4F0
2480
3F80
3F80
3F80
3F80
3F80
FFF0
ENDCHAR
STARTCHAR K
ENCODING 75
SWIDTH 75 0
DWIDTH -1 0
BBX 12 15 0 8
BITMAP
FFF0
FFF0
8100
81F0
8100
8100
8100
FFF0
0000
0000
0000
0000
0000
0000
FFF0
ENDCHAR
STARTCHAR L
ENCODING 76
SWIDTH 75 0
DWIDTH -1 0
BBX 12 17 0 6
BITMAP
FFF0
FFF0
1880
F880
1880
1880
1880
F880
0880
0FF0
0FF0
0FF0
0FF0
6FF0
9FF0
9000
6000
ENDCHAR
STARTCHAR M
ENCODING 77
SWIDTH 75 0
DWIDTH -1 0
BBX 5 15 0 8
BITMAP
C0
A0
B8
A8
A8
A0
A0
A0
A0
E0
90
90
90
98
F0
ENDCHAR
STARTCHAR N
ENCODING 78
SWIDTH 75 0
DWIDTH -1 0
BBX 10 16 2 7
BITMAP
0600
01C0
01C0
0180
0080
0040
00C0
0140
0140
0240
04C0
0980
1300
2600
4C80
BF00
ENDCHAR
STARTCHAR O
ENCODING 79
SWIDTH 75 0
DWIDTH -1 0
BBX 11 14 0 7
BITMAP
8000
8000
8000
0000
9000
E800
8400
8200
C100
6080
3040
3020
3200
FC00
ENDCHAR
STARTCHAR P
ENCODING 80
SWIDTH 75 0
DWIDTH -1 0
BBX 11 12 1 11
BITMAP
00E0
03E0
27C0
1F80
1F00
3E00
7E00
7900
F080
E040
C020
8000
ENDCHAR
STARTCHAR Q
ENCODING 81
SWIDTH 75 0
DWIDTH -1 0
BBX 12 16 0 7
BITMAP
80C0
01E0
01E0
00C0
0000
0000
0060
0190
0C00
3300
0000
8060
4190
2000
1000
0800
ENDCHAR
STARTCHAR R
ENCODING 82
SWIDTH 75 0
DWIDTH -1 0
BBX 10 15 1 8
BITMAP
0180
3200
4FC0
9F00
2680
4D40
9540
9500
8500
0400
0400
0400
0400
0400
0400
ENDCHAR
STARTCHAR S
ENCODING 83
SWIDTH 75 0
DWIDTH -1 0
BBX 8 12 2 10
BITMAP
80
80
40
70
68
74
72
79
79
7D
3E
1C
ENDCHAR
STARTCHAR T
ENCODING 84
SWIDTH 75 0
DWIDTH -1 0
BBX 11 15 1 6
BITMAP
3000
7800
DDC0
C7E0
CFE0
CFE0
8FE0
07C0
0780
0500
0900
0900
0880
0840
0800
ENDCHAR
STARTCHAR U
ENCODING 85
SWIDTH 75 0
DWIDTH -1 0
BBX 11 18 0 6
BITMAP
0400
0700
0D80
3FC0
7FE0
FC60
FC40
F800
F800
F000
7000
7800
2400
2800
3000
6000
2000
2000
ENDCHAR
STARTCHAR V
ENCODING 86
SWIDTH 75 0
DWIDTH -1 0
BBX 10 11 1 12
BITMAP
0400
0C00
1600
2500
4480
87C0
FC00
0400
FFC0
7F80
3F00
ENDCHAR
STARTCHAR W
ENCODING 87
SWIDTH 75 0
DWIDTH -1 0
BBX 10 11 1 11
BITMAP
1C00
1C00
1C00
0800
0800
6E00
8800
8E00
8140
8480
7800
ENDCHAR
STARTCHAR X
ENCODING 88
SWIDTH 75 0
DWIDTH -1 0
BBX 11 16 1 8
BITMAP
0400
0E00
0E00
0E00
0400
0E00
0F00
0E80
0E60
3E00
4E00
8F00
8F80
82C0
4440
3860
ENDCHAR
STARTCHAR Y
ENCODING 89
SWIDTH 75 0
DWIDTH -1 0
BBX 12 16 0 8
BITMAP
0040
0010
0000
0060
0100
0000
0010
00F0
01F0
03F0
07F0
0FF0
1FF0
3FE0
7FC0
FF80
ENDCHAR
STARTCHAR Z
ENCODING 90
SWIDTH 75 0
DWIDTH -1 0
BBX 11 10 0 13
BITMAP
1800
1C00
BC00
1100
8420
D100
C880
8400
8000
8400
ENDCHAR
STARTCHAR [
ENCODING 91
SWIDTH 75 0
DWIDTH -1 0
BBX 0 0 12 23
ENDCHAR
STARTCHAR \
ENCODING 92
SWIDTH 75 0
DWIDTH -1 0
BBX 0 0 12 23
ENDCHAR
STARTCHAR ]
ENCODING 93
SWIDTH 75 0
DWIDTH -1 0
BBX 0 0 12 23
ENDCHAR
STARTCHAR ^
ENCODING 94
SWIDTH 75 0
DWIDTH -1 0
BBX 0 0 12 23
ENDCHAR
STARTCHAR _
ENCODING 95
SWIDTH 75 0
DWIDTH -1 0
BBX 0 0 12 23
ENDCHAR
STARTCHAR `
ENCODING 96
SWIDTH 75 0
DWIDTH -1 0
BBX 0 0 12 23
ENDCHAR
STARTCHAR a
ENCODING 97
SWIDTH 75 0
DWIDTH -1 0
BBX 0 0 12 23
ENDCHAR
STARTCHAR b
ENCODING 98
SWIDTH 75 0
DWIDTH -1 0
BBX 0 0 12 23
ENDCHAR
STARTCHAR c
ENCODING 99
SWIDTH 75 0
DWIDTH -1 0
BBX 0 0 12 23
ENDCHAR
STARTCHAR d
ENCODING 100
SWIDTH 75 0
DWIDTH -1 0
BBX 0 0 12 23
ENDCHAR
STARTCHAR e
ENCODING 101
SWIDTH 75 0
DWIDTH -1 0
BBX 0 0 12 23
ENDCHAR
STARTCHAR f
ENCODING 102
SWIDTH 75 0
DWIDTH -1 0
BBX 0 0 12 23
ENDCHAR
STARTCHAR g
ENCODING 103
SWIDTH 75 0
DWIDTH -1 0
BBX 0 0 12 23
ENDCHAR
STARTCHAR h
ENCODING 104
SWIDTH 75 0
DWIDTH -1 0
BBX 0 0 12 23
ENDCHAR
STARTCHAR i
ENCODING 105
SWIDTH 75 0
DWIDTH -1 0
BBX 0 0 12 23
ENDCHAR
STARTCHAR j
ENCODING 106
SWIDTH 75 0
DWIDTH -1 0
BBX 0 0 12 23
ENDCHAR
STARTCHAR k
ENCODING 107
SWIDTH 75 0
DWIDTH -1 0
BBX 0 0 12 23
ENDCHAR
STARTCHAR l
ENCODING 108
SWIDTH 75 0
DWIDTH -1 0
BBX 0 0 12 23
ENDCHAR
STARTCHAR m
ENCODING 109
SWIDTH 75 0
DWIDTH -1 0
BBX 0 0 12 23
ENDCHAR
STARTCHAR n
ENCODING 110
SWIDTH 75 0
DWIDTH -1 0
BBX 0 0 12 23
ENDCHAR
STARTCHAR o
ENCODING 111
SWIDTH 75 0
DWIDTH -1 0
BBX 0 0 12 23
ENDCHAR
STARTCHAR p
ENCODING 112
SWIDTH 75 0
DWIDTH -1 0
BBX 0 0 12 23
ENDCHAR
STARTCHAR q
ENCODING 113
SWIDTH 75 0
DWIDTH -1 0
BBX 0 0 12 23
ENDCHAR
STARTCHAR r
ENCODING 114
SWIDTH 75 0
DWIDTH -1 0
BBX 0 0 12 23
ENDCHAR
STARTCHAR s
ENCODING 115
SWIDTH 75 0
DWIDTH -1 0
BBX 0 0 12 23
ENDCHAR
STARTCHAR t
ENCODING 116
SWIDTH 75 0
DWIDTH -1 0
BBX 0 0 12 23
ENDCHAR
STARTCHAR u
ENCODING 117
SWIDTH 75 0
DWIDTH -1 0
BBX 0 0 12 23
ENDCHAR
STARTCHAR v
ENCODING 118
SWIDTH 75 0
DWIDTH -1 0
BBX 0 0 12 23
ENDCHAR
STARTCHAR w
ENCODING 119
SWIDTH 75 0
DWIDTH -1 0
BBX 0 0 12 23
ENDCHAR
STARTCHAR x
ENCODING 120
SWIDTH 75 0
DWIDTH -1 0
BBX 0 0 12 23
ENDCHAR
STARTCHAR y
ENCODING 121
SWIDTH 75 0
DWIDTH -1 0
BBX 0 0 12 23
ENDCHAR
STARTCHAR z
ENCODING 122
SWIDTH 75 0
DWIDTH -1 0
BBX 0 0 12 23
ENDCHAR
STARTCHAR {
ENCODING 123
SWIDTH 75 0
DWIDTH -1 0
BBX 0 0 12 23
ENDCHAR
STARTCHAR |
ENCODING 124
SWIDTH 75 0
DWIDTH -1 0
BBX 0 0 12 23
ENDCHAR
STARTCHAR }
ENCODING 125
SWIDTH 75 0
DWIDTH -1 0
BBX 0 0 12 23
ENDCHAR
STARTCHAR ~
ENCODING 126
SWIDTH 75 0
DWIDTH -1 0
BBX 0 0 12 23
ENDCHAR
STARTCHAR 
ENCODING 127
SWIDTH 75 0
DWIDTH -1 0
BBX 0 0 12 23
ENDCHAR
STARTCHAR f
ENCODING 102
SWIDTH 75 0
DWIDTH -1 0
BBX 0 0 12 23
ENDCHAR
STARTCHAR ¡
ENCODING -95
SWIDTH 75 0
DWIDTH -1 0
BBX 0 0 12 23
ENDCHAR
STARTCHAR £
ENCODING -93
SWIDTH 75 0
DWIDTH -1 0
BBX 0 0 12 23
ENDCHAR
STARTCHAR ª
ENCODING -86
SWIDTH 75 0
DWIDTH -1 0
BBX 0 0 12 23
ENDCHAR
STARTCHAR «
ENCODING -85
SWIDTH 75 0
DWIDTH -1 0
BBX 0 0 12 23
ENDCHAR
STARTCHAR ¬
ENCODING -84
SWIDTH 75 0
DWIDTH -1 0
BBX 0 0 12 23
ENDCHAR
STARTCHAR ®
ENCODING -82
SWIDTH 75 0
DWIDTH -1 0
BBX 0 0 12 23
ENDCHAR
STARTCHAR º
ENCODING -70
SWIDTH 75 0
DWIDTH -1 0
BBX 0 0 12 23
ENDCHAR
STARTCHAR »
ENCODING -69
SWIDTH 75 0
DWIDTH -1 0
BBX 0 0 12 23
ENDCHAR
STARTCHAR  
ENCODING 32
SWIDTH 75 0
DWIDTH -1 0
BBX 0 0 12 23
ENDCHAR
STARTCHAR  
ENCODING 32
SWIDTH 75 0
DWIDTH -1 0
BBX 0 0 12 23
ENDCHAR
STARTCHAR ¿
ENCODING -65
SWIDTH 75 0
DWIDTH -1 0
BBX 0 0 12 23
ENDCHAR
STARTCHAR Ä
ENCODING -60
SWIDTH 75 0
DWIDTH -1 0
BBX 0 0 12 23
ENDCHAR
STARTCHAR Å
ENCODING -59
SWIDTH 75 0
DWIDTH -1 0
BBX 0 0 12 23
ENDCHAR
STARTCHAR Æ
ENCODING -58
SWIDTH 75 0
DWIDTH -1 0
BBX 0 0 12 23
ENDCHAR
STARTCHAR Ç
ENCODING -57
SWIDTH 75 0
DWIDTH -1 0
BBX 0 0 12 23
ENDCHAR
STARTCHAR É
ENCODING -55
SWIDTH 75 0
DWIDTH -1 0
BBX 0 0 12 23
ENDCHAR
STARTCHAR Ñ
ENCODING -47
SWIDTH 75 0
DWIDTH -1 0
BBX 0 0 12 23
ENDCHAR
STARTCHAR Ö
ENCODING -42
SWIDTH 75 0
DWIDTH -1 0
BBX 0 0 12 23
ENDCHAR
STARTCHAR ×
ENCODING -41
SWIDTH 75 0
DWIDTH -1 0
BBX 0 0 12 23
ENDCHAR
STARTCHAR Ø
ENCODING -40
SWIDTH 75 0
DWIDTH -1 0
BBX 0 0 12 23
ENDCHAR
STARTCHAR Ü
ENCODING -36
SWIDTH 75 0
DWIDTH -1 0
BBX 0 0 12 23
ENDCHAR
STARTCHAR à
ENCODING -32
SWIDTH 75 0
DWIDTH -1 0
BBX 0 0 12 23
ENDCHAR
STARTCHAR á
ENCODING -31
SWIDTH 75 0
DWIDTH -1 0
BBX 0 0 12 23
ENDCHAR
STARTCHAR â
ENCODING -30
SWIDTH 75 0
DWIDTH -1 0
BBX 0 0 12 23
ENDCHAR
STARTCHAR ä
ENCODING -28
SWIDTH 75 0
DWIDTH -1 0
BBX 0 0 12 23
ENDCHAR
STARTCHAR å
ENCODING -27
SWIDTH 75 0
DWIDTH -1 0
BBX 0 0 12 23
ENDCHAR
STARTCHAR æ
ENCODING -26
SWIDTH 75 0
DWIDTH -1 0
BBX 0 0 12 23
ENDCHAR
STARTCHAR ç
ENCODING -25
SWIDTH 75 0
DWIDTH -1 0
BBX 0 0 12 23
ENDCHAR
STARTCHAR è
ENCODING -24
SWIDTH 75 0
DWIDTH -1 0
BBX 0 0 12 23
ENDCHAR
STARTCHAR é
ENCODING -23
SWIDTH 75 0
DWIDTH -1 0
BBX 0 0 12 23
ENDCHAR
STARTCHAR ê
ENCODING -22
SWIDTH 75 0
DWIDTH -1 0
BBX 0 0 12 23
ENDCHAR
STARTCHAR ë
ENCODING -21
SWIDTH 75 0
DWIDTH -1 0
BBX 0 0 12 23
ENDCHAR
STARTCHAR ì
ENCODING -20
SWIDTH 75 0
DWIDTH -1 0
BBX 0 0 12 23
ENDCHAR
STARTCHAR í
ENCODING -19
SWIDTH 75 0
DWIDTH -1 0
BBX 0 0 12 23
ENDCHAR
STARTCHAR î
ENCODING -18
SWIDTH 75 0
DWIDTH -1 0
BBX 0 0 12 23
ENDCHAR
STARTCHAR ï
ENCODING -17
SWIDTH 75 0
DWIDTH -1 0
BBX 0 0 12 23
ENDCHAR
STARTCHAR ñ
ENCODING -15
SWIDTH 75 0
DWIDTH -1 0
BBX 0 0 12 23
ENDCHAR
STARTCHAR ò
ENCODING -14
SWIDTH 75 0
DWIDTH -1 0
BBX 0 0 12 23
ENDCHAR
STARTCHAR ó
ENCODING -13
SWIDTH 75 0
DWIDTH -1 0
BBX 0 0 12 23
ENDCHAR
STARTCHAR ô
ENCODING -12
SWIDTH 75 0
DWIDTH -1 0
BBX 0 0 12 23
ENDCHAR
STARTCHAR ö
ENCODING -10
SWIDTH 75 0
DWIDTH -1 0
BBX 0 0 12 23
ENDCHAR
STARTCHAR ø
ENCODING -8
SWIDTH 75 0
DWIDTH -1 0
BBX 0 0 12 23
ENDCHAR
STARTCHAR ù
ENCODING -7
SWIDTH 75 0
DWIDTH -1 0
BBX 0 0 12 23
ENDCHAR
STARTCHAR ú
ENCODING -6
SWIDTH 75 0
DWIDTH -1 0
BBX 0 0 12 23
ENDCHAR
STARTCHAR û
ENCODING -5
SWIDTH 75 0
DWIDTH -1 0
BBX 0 0 12 23
ENDCHAR
STARTCHAR ü
ENCODING -4
SWIDTH 75 0
DWIDTH -1 0
BBX 0 0 12 23
ENDCHAR
STARTCHAR ÿ
ENCODING -1
SWIDTH 75 0
DWIDTH -1 0
BBX 0 0 12 23
ENDCHAR
ENDFONT
