STARTFONT 2.1
COMMENT Lumiplan font build using LumiStudio
FONT Duhamel 20/18 1-UltraCondensed
SIZE 20 75 75
FONTBOUNDINGBOX 7 20 0 0
STARTPROPERTIES 1
Copyright "Copyright (c) 2021 Lumiplan"
ENDPROPERTIES
CHARS 189
STARTCHAR 
ENCODING 14
SWIDTH 75 0
DWIDTH -1 0
BBX 0 0 1 19
ENDCHAR
STARTCHAR  
ENCODING 32
SWIDTH 75 0
DWIDTH -1 0
BBX 0 0 2 19
ENDCHAR
STARTCHAR !
ENCODING 33
SWIDTH 75 0
DWIDTH -1 0
BBX 2 18 0 1
BITMAP
C0
C0
C0
C0
C0
C0
C0
C0
C0
C0
C0
C0
C0
C0
C0
00
C0
C0
ENDCHAR
STARTCHAR "
ENCODING 34
SWIDTH 75 0
DWIDTH -1 0
BBX 6 4 0 15
BITMAP
6C
6C
48
90
ENDCHAR
STARTCHAR #
ENCODING 35
SWIDTH 75 0
DWIDTH -1 0
BBX 6 14 0 3
BITMAP
48
48
FC
FC
FC
48
48
48
48
FC
FC
FC
48
48
ENDCHAR
STARTCHAR $
ENCODING 36
SWIDTH 75 0
DWIDTH -1 0
BBX 7 14 0 3
BITMAP
10
7C
FE
D6
D0
D0
FC
7E
16
16
D6
FE
7C
10
ENDCHAR
STARTCHAR %
ENCODING 37
SWIDTH 75 0
DWIDTH -1 0
BBX 7 12 0 3
BITMAP
C6
C6
0C
0C
18
18
30
30
60
60
C6
C6
ENDCHAR
STARTCHAR &
ENCODING 38
SWIDTH 75 0
DWIDTH -1 0
BBX 7 16 0 1
BITMAP
78
FC
CC
CC
CC
DC
78
30
7C
CC
CE
C6
C6
CE
FA
70
ENDCHAR
STARTCHAR '
ENCODING 39
SWIDTH 75 0
DWIDTH -1 0
BBX 3 4 0 15
BITMAP
60
60
40
80
ENDCHAR
STARTCHAR (
ENCODING 40
SWIDTH 75 0
DWIDTH -1 0
BBX 4 18 0 1
BITMAP
70
F0
E0
C0
C0
C0
C0
C0
C0
C0
C0
C0
C0
C0
C0
E0
F0
70
ENDCHAR
STARTCHAR )
ENCODING 41
SWIDTH 75 0
DWIDTH -1 0
BBX 4 18 0 1
BITMAP
E0
F0
70
30
30
30
30
30
30
30
30
30
30
30
30
70
F0
E0
ENDCHAR
STARTCHAR *
ENCODING 42
SWIDTH 75 0
DWIDTH -1 0
BBX 7 7 0 12
BITMAP
92
54
38
FE
38
54
92
ENDCHAR
STARTCHAR +
ENCODING 43
SWIDTH 75 0
DWIDTH -1 0
BBX 6 8 0 6
BITMAP
30
30
30
FC
FC
30
30
30
ENDCHAR
STARTCHAR ,
ENCODING 44
SWIDTH 75 0
DWIDTH -1 0
BBX 3 4 0 0
BITMAP
60
60
40
80
ENDCHAR
STARTCHAR -
ENCODING 45
SWIDTH 75 0
DWIDTH -1 0
BBX 5 2 0 9
BITMAP
F8
F8
ENDCHAR
STARTCHAR .
ENCODING 46
SWIDTH 75 0
DWIDTH -1 0
BBX 2 2 0 1
BITMAP
C0
C0
ENDCHAR
STARTCHAR /
ENCODING 47
SWIDTH 75 0
DWIDTH -1 0
BBX 7 18 0 1
BITMAP
06
06
06
0C
0C
0C
18
18
18
30
30
30
60
60
60
C0
C0
C0
ENDCHAR
STARTCHAR 0
ENCODING 48
SWIDTH 75 0
DWIDTH -1 0
BBX 7 18 0 1
BITMAP
7C
FE
C6
C6
C6
C6
C6
C6
C6
C6
C6
C6
C6
C6
C6
C6
FE
7C
ENDCHAR
STARTCHAR 1
ENCODING 49
SWIDTH 75 0
DWIDTH -1 0
BBX 4 18 0 1
BITMAP
30
70
F0
F0
30
30
30
30
30
30
30
30
30
30
30
30
30
30
ENDCHAR
STARTCHAR 2
ENCODING 50
SWIDTH 75 0
DWIDTH -1 0
BBX 7 18 0 1
BITMAP
7C
FE
C6
C6
06
06
0C
0C
18
18
30
30
60
60
C0
C0
FE
FE
ENDCHAR
STARTCHAR 3
ENCODING 51
SWIDTH 75 0
DWIDTH -1 0
BBX 7 18 0 1
BITMAP
7C
FE
C6
C6
06
06
06
0C
38
38
0C
06
06
06
C6
C6
FE
7C
ENDCHAR
STARTCHAR 4
ENCODING 52
SWIDTH 75 0
DWIDTH -1 0
BBX 7 18 0 1
BITMAP
0E
1E
1E
36
36
66
66
C6
C6
C6
FE
FE
06
06
06
06
06
06
ENDCHAR
STARTCHAR 5
ENCODING 53
SWIDTH 75 0
DWIDTH -1 0
BBX 7 18 0 1
BITMAP
FE
FE
C0
C0
C0
C0
C0
C0
FC
FE
06
06
06
06
C6
C6
FE
7E
ENDCHAR
STARTCHAR 6
ENCODING 54
SWIDTH 75 0
DWIDTH -1 0
BBX 7 18 0 1
BITMAP
1C
3C
70
E0
C0
C0
C0
C0
FC
FE
C6
C6
C6
C6
C6
C6
FE
7C
ENDCHAR
STARTCHAR 7
ENCODING 55
SWIDTH 75 0
DWIDTH -1 0
BBX 7 18 0 1
BITMAP
FE
FE
06
06
06
06
06
06
0C
0C
18
18
30
30
30
30
30
30
ENDCHAR
STARTCHAR 8
ENCODING 56
SWIDTH 75 0
DWIDTH -1 0
BBX 7 18 0 1
BITMAP
7C
FE
C6
C6
C6
C6
C6
C6
7C
7C
C6
C6
C6
C6
C6
C6
FE
7C
ENDCHAR
STARTCHAR 9
ENCODING 57
SWIDTH 75 0
DWIDTH -1 0
BBX 7 18 0 1
BITMAP
7C
FE
C6
C6
C6
C6
C6
C6
FE
7E
06
06
06
06
0E
1C
78
70
ENDCHAR
STARTCHAR :
ENCODING 58
SWIDTH 75 0
DWIDTH -1 0
BBX 2 10 0 1
BITMAP
C0
C0
00
00
00
00
00
00
C0
C0
ENDCHAR
STARTCHAR ;
ENCODING 59
SWIDTH 75 0
DWIDTH -1 0
BBX 3 11 0 0
BITMAP
60
60
00
00
00
00
00
60
60
40
80
ENDCHAR
STARTCHAR <
ENCODING 60
SWIDTH 75 0
DWIDTH -1 0
BBX 7 18 0 1
BITMAP
02
06
0E
1C
38
70
60
C0
C0
C0
C0
60
70
38
1C
0E
06
02
ENDCHAR
STARTCHAR =
ENCODING 61
SWIDTH 75 0
DWIDTH -1 0
BBX 5 6 0 7
BITMAP
F8
F8
00
00
F8
F8
ENDCHAR
STARTCHAR >
ENCODING 62
SWIDTH 75 0
DWIDTH -1 0
BBX 7 18 0 1
BITMAP
80
C0
E0
70
38
1C
0C
06
06
06
06
0C
1C
38
70
E0
C0
80
ENDCHAR
STARTCHAR ?
ENCODING 63
SWIDTH 75 0
DWIDTH -1 0
BBX 7 18 0 1
BITMAP
7C
FE
C6
C6
C6
06
06
0C
0C
18
18
30
30
30
30
00
30
30
ENDCHAR
STARTCHAR @
ENCODING 64
SWIDTH 75 0
DWIDTH -1 0
BBX 7 18 0 1
BITMAP
7C
FE
C6
C6
C6
C6
C6
CE
DE
DE
CC
C0
C0
C0
C6
C6
FE
7C
ENDCHAR
STARTCHAR A
ENCODING 65
SWIDTH 75 0
DWIDTH -1 0
BBX 7 18 0 1
BITMAP
7C
FE
C6
C6
C6
C6
C6
C6
FE
FE
C6
C6
C6
C6
C6
C6
C6
C6
ENDCHAR
STARTCHAR B
ENCODING 66
SWIDTH 75 0
DWIDTH -1 0
BBX 7 18 0 1
BITMAP
FC
FE
C6
C6
C6
C6
C6
C6
FC
FC
C6
C6
C6
C6
C6
C6
FE
FC
ENDCHAR
STARTCHAR C
ENCODING 67
SWIDTH 75 0
DWIDTH -1 0
BBX 7 18 0 1
BITMAP
7C
FE
C6
C6
C0
C0
C0
C0
C0
C0
C0
C0
C0
C0
C6
C6
FE
7C
ENDCHAR
STARTCHAR D
ENCODING 68
SWIDTH 75 0
DWIDTH -1 0
BBX 7 18 0 1
BITMAP
F8
FC
C6
C6
C6
C6
C6
C6
C6
C6
C6
C6
C6
C6
C6
C6
FC
F8
ENDCHAR
STARTCHAR E
ENCODING 69
SWIDTH 75 0
DWIDTH -1 0
BBX 7 18 0 1
BITMAP
FE
FE
C0
C0
C0
C0
C0
C0
F8
F8
C0
C0
C0
C0
C0
C0
FE
FE
ENDCHAR
STARTCHAR F
ENCODING 70
SWIDTH 75 0
DWIDTH -1 0
BBX 7 18 0 1
BITMAP
FE
FE
C0
C0
C0
C0
C0
C0
F8
F8
C0
C0
C0
C0
C0
C0
C0
C0
ENDCHAR
STARTCHAR G
ENCODING 71
SWIDTH 75 0
DWIDTH -1 0
BBX 7 18 0 1
BITMAP
7C
FE
C6
C6
C0
C0
C0
C0
C0
DE
DE
C6
C6
C6
C6
C6
FE
7C
ENDCHAR
STARTCHAR H
ENCODING 72
SWIDTH 75 0
DWIDTH -1 0
BBX 7 18 0 1
BITMAP
C6
C6
C6
C6
C6
C6
C6
C6
FE
FE
C6
C6
C6
C6
C6
C6
C6
C6
ENDCHAR
STARTCHAR I
ENCODING 73
SWIDTH 75 0
DWIDTH -1 0
BBX 2 18 0 1
BITMAP
C0
C0
C0
C0
C0
C0
C0
C0
C0
C0
C0
C0
C0
C0
C0
C0
C0
C0
ENDCHAR
STARTCHAR J
ENCODING 74
SWIDTH 75 0
DWIDTH -1 0
BBX 7 18 0 1
BITMAP
06
06
06
06
06
06
06
06
06
06
06
06
06
06
C6
C6
FE
7C
ENDCHAR
STARTCHAR K
ENCODING 75
SWIDTH 75 0
DWIDTH -1 0
BBX 7 18 0 1
BITMAP
C6
C6
C6
C6
CC
CC
D8
D8
F0
F0
D8
D8
CC
CC
C6
C6
C6
C6
ENDCHAR
STARTCHAR L
ENCODING 76
SWIDTH 75 0
DWIDTH -1 0
BBX 7 18 0 1
BITMAP
C0
C0
C0
C0
C0
C0
C0
C0
C0
C0
C0
C0
C0
C0
C0
C0
FE
FE
ENDCHAR
STARTCHAR M
ENCODING 77
SWIDTH 75 0
DWIDTH -1 0
BBX 7 18 0 1
BITMAP
C6
EE
FE
D6
C6
C6
C6
C6
C6
C6
C6
C6
C6
C6
C6
C6
C6
C6
ENDCHAR
STARTCHAR N
ENCODING 78
SWIDTH 75 0
DWIDTH -1 0
BBX 7 18 0 1
BITMAP
E6
F6
DE
CE
C6
C6
C6
C6
C6
C6
C6
C6
C6
C6
C6
C6
C6
C6
ENDCHAR
STARTCHAR O
ENCODING 79
SWIDTH 75 0
DWIDTH -1 0
BBX 7 18 0 1
BITMAP
7C
FE
C6
C6
C6
C6
C6
C6
C6
C6
C6
C6
C6
C6
C6
C6
FE
7C
ENDCHAR
STARTCHAR P
ENCODING 80
SWIDTH 75 0
DWIDTH -1 0
BBX 7 18 0 1
BITMAP
FC
FE
C6
C6
C6
C6
C6
C6
FE
FC
C0
C0
C0
C0
C0
C0
C0
C0
ENDCHAR
STARTCHAR Q
ENCODING 81
SWIDTH 75 0
DWIDTH -1 0
BBX 7 18 0 1
BITMAP
7C
FE
C6
C6
C6
C6
C6
C6
C6
C6
E6
E6
D6
D6
CE
CE
FC
7A
ENDCHAR
STARTCHAR R
ENCODING 82
SWIDTH 75 0
DWIDTH -1 0
BBX 7 18 0 1
BITMAP
FC
FE
C6
C6
C6
C6
C6
FE
FC
F0
F0
D8
DC
CE
C6
C6
C6
C6
ENDCHAR
STARTCHAR S
ENCODING 83
SWIDTH 75 0
DWIDTH -1 0
BBX 7 18 0 1
BITMAP
7C
FE
C6
C6
C0
C0
C0
C0
FC
7E
06
06
06
06
C6
C6
FE
7C
ENDCHAR
STARTCHAR T
ENCODING 84
SWIDTH 75 0
DWIDTH -1 0
BBX 6 18 0 1
BITMAP
FC
FC
30
30
30
30
30
30
30
30
30
30
30
30
30
30
30
30
ENDCHAR
STARTCHAR U
ENCODING 85
SWIDTH 75 0
DWIDTH -1 0
BBX 7 18 0 1
BITMAP
C6
C6
C6
C6
C6
C6
C6
C6
C6
C6
C6
C6
C6
C6
C6
C6
FE
7C
ENDCHAR
STARTCHAR V
ENCODING 86
SWIDTH 75 0
DWIDTH -1 0
BBX 7 18 0 1
BITMAP
C6
C6
C6
C6
C6
C6
C6
C6
C6
C6
C6
C6
C6
C6
C6
6C
38
10
ENDCHAR
STARTCHAR W
ENCODING 87
SWIDTH 75 0
DWIDTH -1 0
BBX 7 18 0 1
BITMAP
C6
C6
C6
C6
C6
C6
C6
C6
C6
C6
C6
C6
C6
C6
D6
FE
EE
C6
ENDCHAR
STARTCHAR X
ENCODING 88
SWIDTH 75 0
DWIDTH -1 0
BBX 7 18 0 1
BITMAP
C6
C6
C6
C6
C6
C6
EE
7C
38
38
7C
EE
C6
C6
C6
C6
C6
C6
ENDCHAR
STARTCHAR Y
ENCODING 89
SWIDTH 75 0
DWIDTH -1 0
BBX 6 18 0 1
BITMAP
CC
CC
CC
CC
CC
CC
CC
CC
FC
78
30
30
30
30
30
30
30
30
ENDCHAR
STARTCHAR Z
ENCODING 90
SWIDTH 75 0
DWIDTH -1 0
BBX 7 18 0 1
BITMAP
FE
FE
06
0C
0C
0C
18
18
18
30
30
30
60
60
60
C0
FE
FE
ENDCHAR
STARTCHAR [
ENCODING 91
SWIDTH 75 0
DWIDTH -1 0
BBX 5 18 0 1
BITMAP
F8
F8
C0
C0
C0
C0
C0
C0
C0
C0
C0
C0
C0
C0
C0
C0
F8
F8
ENDCHAR
STARTCHAR \
ENCODING 92
SWIDTH 75 0
DWIDTH -1 0
BBX 7 18 0 1
BITMAP
C0
C0
C0
60
60
60
30
30
30
18
18
18
0C
0C
0C
06
06
06
ENDCHAR
STARTCHAR ]
ENCODING 93
SWIDTH 75 0
DWIDTH -1 0
BBX 5 18 2 1
BITMAP
F8
F8
18
18
18
18
18
18
18
18
18
18
18
18
18
18
F8
F8
ENDCHAR
STARTCHAR ^
ENCODING 94
SWIDTH 75 0
DWIDTH -1 0
BBX 7 5 0 14
BITMAP
10
38
6C
C6
82
ENDCHAR
STARTCHAR _
ENCODING 95
SWIDTH 75 0
DWIDTH -1 0
BBX 4 2 0 1
BITMAP
F0
F0
ENDCHAR
STARTCHAR `
ENCODING 96
SWIDTH 75 0
DWIDTH -1 0
BBX 3 4 0 15
BITMAP
C0
C0
40
20
ENDCHAR
STARTCHAR a
ENCODING 97
SWIDTH 75 0
DWIDTH -1 0
BBX 7 11 0 1
BITMAP
7C
7C
06
06
76
FE
C6
C6
C6
FE
76
ENDCHAR
STARTCHAR b
ENCODING 98
SWIDTH 75 0
DWIDTH -1 0
BBX 7 18 0 1
BITMAP
C0
C0
C0
C0
C0
C0
C0
DC
FE
E6
C6
C6
C6
C6
C6
E6
FE
DC
ENDCHAR
STARTCHAR c
ENCODING 99
SWIDTH 75 0
DWIDTH -1 0
BBX 7 11 0 1
BITMAP
7C
FE
C6
C0
C0
C0
C0
C0
C6
FE
7C
ENDCHAR
STARTCHAR d
ENCODING 100
SWIDTH 75 0
DWIDTH -1 0
BBX 7 18 0 1
BITMAP
06
06
06
06
06
06
06
76
FE
CE
C6
C6
C6
C6
C6
CE
FE
76
ENDCHAR
STARTCHAR e
ENCODING 101
SWIDTH 75 0
DWIDTH -1 0
BBX 7 11 0 1
BITMAP
7C
FE
C6
C6
FE
FE
C0
C0
C6
FE
7C
ENDCHAR
STARTCHAR f
ENCODING 102
SWIDTH 75 0
DWIDTH -1 0
BBX 7 18 0 1
BITMAP
7C
FE
C6
C6
C0
C0
C0
F0
F0
C0
C0
C0
C0
C0
C0
C0
C0
C0
ENDCHAR
STARTCHAR g
ENCODING 103
SWIDTH 75 0
DWIDTH -1 0
BBX 7 12 0 0
BITMAP
74
FE
C6
C6
C6
FE
76
06
06
06
7E
7C
ENDCHAR
STARTCHAR h
ENCODING 104
SWIDTH 75 0
DWIDTH -1 0
BBX 7 18 0 1
BITMAP
C0
C0
C0
C0
C0
C0
C0
F8
FC
C6
C6
C6
C6
C6
C6
C6
C6
C6
ENDCHAR
STARTCHAR i
ENCODING 105
SWIDTH 75 0
DWIDTH -1 0
BBX 2 16 0 1
BITMAP
C0
C0
00
00
00
C0
C0
C0
C0
C0
C0
C0
C0
C0
C0
C0
ENDCHAR
STARTCHAR j
ENCODING 106
SWIDTH 75 0
DWIDTH -1 0
BBX 6 17 0 0
BITMAP
0C
0C
00
00
00
0C
0C
0C
0C
0C
0C
0C
0C
CC
CC
FC
78
ENDCHAR
STARTCHAR k
ENCODING 107
SWIDTH 75 0
DWIDTH -1 0
BBX 7 18 0 1
BITMAP
C0
C0
C0
C0
C0
C0
C0
C6
CE
CC
D8
F8
F0
F8
D8
CC
CE
C6
ENDCHAR
STARTCHAR l
ENCODING 108
SWIDTH 75 0
DWIDTH -1 0
BBX 2 18 0 1
BITMAP
C0
C0
C0
C0
C0
C0
C0
C0
C0
C0
C0
C0
C0
C0
C0
C0
C0
C0
ENDCHAR
STARTCHAR m
ENCODING 109
SWIDTH 75 0
DWIDTH -1 0
BBX 7 11 0 1
BITMAP
AC
FE
D6
D6
D6
D6
D6
D6
D6
D6
D6
ENDCHAR
STARTCHAR n
ENCODING 110
SWIDTH 75 0
DWIDTH -1 0
BBX 7 11 0 1
BITMAP
D8
FC
E6
C6
C6
C6
C6
C6
C6
C6
C6
ENDCHAR
STARTCHAR o
ENCODING 111
SWIDTH 75 0
DWIDTH -1 0
BBX 7 11 0 1
BITMAP
7C
FE
C6
C6
C6
C6
C6
C6
C6
FE
7C
ENDCHAR
STARTCHAR p
ENCODING 112
SWIDTH 75 0
DWIDTH -1 0
BBX 7 12 0 0
BITMAP
DC
FE
C6
C6
C6
FE
DC
C0
C0
C0
C0
C0
ENDCHAR
STARTCHAR q
ENCODING 113
SWIDTH 75 0
DWIDTH -1 0
BBX 7 12 0 0
BITMAP
76
FE
C6
C6
C6
FE
76
06
06
06
06
06
ENDCHAR
STARTCHAR r
ENCODING 114
SWIDTH 75 0
DWIDTH -1 0
BBX 7 11 0 1
BITMAP
DC
FE
E6
C0
C0
C0
C0
C0
C0
C0
C0
ENDCHAR
STARTCHAR s
ENCODING 115
SWIDTH 75 0
DWIDTH -1 0
BBX 7 11 0 1
BITMAP
7C
FE
C6
C0
FC
7E
06
06
C6
FE
7C
ENDCHAR
STARTCHAR t
ENCODING 116
SWIDTH 75 0
DWIDTH -1 0
BBX 7 18 0 1
BITMAP
C0
C0
C0
C0
C0
C0
C0
F0
F0
C0
C0
C0
C0
C0
C6
C6
FE
7C
ENDCHAR
STARTCHAR u
ENCODING 117
SWIDTH 75 0
DWIDTH -1 0
BBX 7 11 0 1
BITMAP
C6
C6
C6
C6
C6
C6
C6
C6
CE
7E
36
ENDCHAR
STARTCHAR v
ENCODING 118
SWIDTH 75 0
DWIDTH -1 0
BBX 7 11 0 1
BITMAP
C6
C6
C6
C6
C6
C6
C6
C6
6C
38
10
ENDCHAR
STARTCHAR w
ENCODING 119
SWIDTH 75 0
DWIDTH -1 0
BBX 7 11 0 1
BITMAP
C6
C6
C6
C6
C6
C6
C6
D6
FE
C6
82
ENDCHAR
STARTCHAR x
ENCODING 120
SWIDTH 75 0
DWIDTH -1 0
BBX 7 11 0 1
BITMAP
C6
C6
6C
6C
38
38
38
6C
6C
C6
C6
ENDCHAR
STARTCHAR y
ENCODING 121
SWIDTH 75 0
DWIDTH -1 0
BBX 7 12 0 0
BITMAP
C6
C6
C6
C6
C6
FE
7E
06
06
06
7E
7C
ENDCHAR
STARTCHAR z
ENCODING 122
SWIDTH 75 0
DWIDTH -1 0
BBX 7 11 0 1
BITMAP
FE
FE
06
0E
1C
38
70
E0
C0
FE
FE
ENDCHAR
STARTCHAR {
ENCODING 123
SWIDTH 75 0
DWIDTH -1 0
BBX 6 18 0 1
BITMAP
0C
18
30
30
30
30
30
70
F0
F0
70
30
30
30
30
30
18
0C
ENDCHAR
STARTCHAR |
ENCODING 124
SWIDTH 75 0
DWIDTH -1 0
BBX 2 18 0 1
BITMAP
C0
C0
C0
C0
C0
C0
C0
C0
C0
C0
C0
C0
C0
C0
C0
C0
C0
C0
ENDCHAR
STARTCHAR }
ENCODING 125
SWIDTH 75 0
DWIDTH -1 0
BBX 6 18 0 1
BITMAP
C0
60
30
30
30
30
30
38
3C
3C
38
30
30
30
30
30
60
C0
ENDCHAR
STARTCHAR ~
ENCODING 126
SWIDTH 75 0
DWIDTH -1 0
BBX 7 3 0 8
BITMAP
70
9A
0C
ENDCHAR
STARTCHAR ¤
ENCODING -92
SWIDTH 75 0
DWIDTH -1 0
BBX 7 14 0 2
BITMAP
1E
3E
70
60
60
FC
60
60
FC
60
60
70
3E
1E
ENDCHAR
STARTCHAR ¦
ENCODING -90
SWIDTH 75 0
DWIDTH -1 0
BBX 7 19 0 1
BITMAP
C6
6C
38
7C
FE
C6
C6
C0
C0
C0
FC
7E
06
06
06
C6
C6
FE
7C
ENDCHAR
STARTCHAR ¼
ENCODING -68
SWIDTH 75 0
DWIDTH -1 0
BBX 7 18 0 1
BITMAP
7E
7E
D8
D8
D8
D8
D8
D8
DE
DE
D8
D8
D8
D8
D8
D8
7E
7E
ENDCHAR
STARTCHAR ´
ENCODING -76
SWIDTH 75 0
DWIDTH -1 0
BBX 7 19 0 1
BITMAP
C6
6C
38
FE
FE
06
06
0C
0C
18
18
30
30
60
60
C0
C0
FE
FE
ENDCHAR
STARTCHAR ¨
ENCODING -88
SWIDTH 75 0
DWIDTH -1 0
BBX 7 15 0 1
BITMAP
C6
6C
38
00
7C
FE
C6
C0
FC
7E
06
06
C6
FE
7C
ENDCHAR
STARTCHAR ½
ENCODING -67
SWIDTH 75 0
DWIDTH -1 0
BBX 7 11 0 1
BITMAP
74
FE
DA
DA
DA
DE
D8
D8
DA
FE
74
ENDCHAR
STARTCHAR ¸
ENCODING -72
SWIDTH 75 0
DWIDTH -1 0
BBX 7 14 0 1
BITMAP
C6
6C
38
00
FE
FE
06
0C
18
30
60
C0
FE
FE
ENDCHAR
STARTCHAR ¾
ENCODING -66
SWIDTH 75 0
DWIDTH -1 0
BBX 6 19 0 1
BITMAP
CC
CC
00
CC
CC
CC
CC
CC
CC
FC
78
30
30
30
30
30
30
30
30
ENDCHAR
STARTCHAR ¡
ENCODING -95
SWIDTH 75 0
DWIDTH -1 0
BBX 2 18 0 1
BITMAP
C0
C0
00
C0
C0
C0
C0
C0
C0
C0
C0
C0
C0
C0
C0
C0
C0
C0
ENDCHAR
STARTCHAR ¢
ENCODING -94
SWIDTH 75 0
DWIDTH -1 0
BBX 7 15 0 1
BITMAP
08
08
7C
FE
D6
D0
D0
D0
D0
D0
D6
FE
7C
20
20
ENDCHAR
STARTCHAR £
ENCODING -93
SWIDTH 75 0
DWIDTH -1 0
BBX 7 15 0 2
BITMAP
7C
FE
C6
C0
C0
C0
78
78
60
60
60
60
66
FE
FE
ENDCHAR
STARTCHAR ¥
ENCODING -91
SWIDTH 75 0
DWIDTH -1 0
BBX 6 15 0 1
BITMAP
CC
CC
CC
CC
CC
CC
FC
78
FC
30
FC
30
30
30
30
ENDCHAR
STARTCHAR §
ENCODING -89
SWIDTH 75 0
DWIDTH -1 0
BBX 7 18 0 1
BITMAP
7C
FE
C6
C0
C0
7C
FE
C6
C6
C6
C6
FC
7E
06
06
C6
FE
7C
ENDCHAR
STARTCHAR ©
ENCODING -87
SWIDTH 75 0
DWIDTH -1 0
BBX 7 7 0 6
BITMAP
7C
82
9A
A2
9A
82
7C
ENDCHAR
STARTCHAR ª
ENCODING -86
SWIDTH 75 0
DWIDTH -1 0
BBX 7 8 0 12
BITMAP
7C
7C
06
7E
FE
C6
FE
7E
ENDCHAR
STARTCHAR «
ENCODING -85
SWIDTH 75 0
DWIDTH -1 0
BBX 7 7 0 3
BITMAP
12
24
48
90
48
24
12
ENDCHAR
STARTCHAR ¬
ENCODING -84
SWIDTH 75 0
DWIDTH -1 0
BBX 6 4 0 7
BITMAP
FC
04
04
04
ENDCHAR
STARTCHAR ®
ENCODING -82
SWIDTH 75 0
DWIDTH -1 0
BBX 7 8 0 6
BITMAP
7C
82
B2
AA
B2
AA
82
7C
ENDCHAR
STARTCHAR ¯
ENCODING -81
SWIDTH 75 0
DWIDTH -1 0
BBX 5 1 0 12
BITMAP
F8
ENDCHAR
STARTCHAR °
ENCODING -80
SWIDTH 75 0
DWIDTH -1 0
BBX 4 4 0 14
BITMAP
60
90
90
60
ENDCHAR
STARTCHAR ±
ENCODING -79
SWIDTH 75 0
DWIDTH -1 0
BBX 6 10 0 6
BITMAP
30
30
FC
FC
30
30
00
00
FC
FC
ENDCHAR
STARTCHAR ²
ENCODING -78
SWIDTH 75 0
DWIDTH -1 0
BBX 4 6 0 14
BITMAP
60
90
10
20
40
F0
ENDCHAR
STARTCHAR ³
ENCODING -77
SWIDTH 75 0
DWIDTH -1 0
BBX 4 6 0 14
BITMAP
60
90
20
20
90
60
ENDCHAR
STARTCHAR µ
ENCODING -75
SWIDTH 75 0
DWIDTH -1 0
BBX 7 16 0 0
BITMAP
C6
C6
C6
C6
C6
FE
FE
C6
C0
C0
C0
C0
C0
C0
C0
C0
ENDCHAR
STARTCHAR ·
ENCODING -73
SWIDTH 75 0
DWIDTH -1 0
BBX 2 2 0 9
BITMAP
C0
C0
ENDCHAR
STARTCHAR ¹
ENCODING -71
SWIDTH 75 0
DWIDTH -1 0
BBX 3 6 0 14
BITMAP
40
C0
40
40
40
E0
ENDCHAR
STARTCHAR º
ENCODING -70
SWIDTH 75 0
DWIDTH -1 0
BBX 4 6 0 14
BITMAP
60
90
90
90
90
60
ENDCHAR
STARTCHAR »
ENCODING -69
SWIDTH 75 0
DWIDTH -1 0
BBX 7 7 0 3
BITMAP
90
48
24
12
24
48
90
ENDCHAR
STARTCHAR ¿
ENCODING -65
SWIDTH 75 0
DWIDTH -1 0
BBX 7 18 0 1
BITMAP
18
18
00
18
18
18
18
38
30
60
60
C0
C0
C0
C6
C6
FE
7C
ENDCHAR
STARTCHAR À
ENCODING -64
SWIDTH 75 0
DWIDTH -1 0
BBX 7 19 0 1
BITMAP
60
30
18
00
7C
FE
C6
C6
C6
C6
FE
FE
C6
C6
C6
C6
C6
C6
C6
ENDCHAR
STARTCHAR Á
ENCODING -63
SWIDTH 75 0
DWIDTH -1 0
BBX 7 19 0 1
BITMAP
0C
18
30
00
7C
FE
C6
C6
C6
C6
FE
FE
C6
C6
C6
C6
C6
C6
C6
ENDCHAR
STARTCHAR Â
ENCODING -62
SWIDTH 75 0
DWIDTH -1 0
BBX 7 19 0 1
BITMAP
38
6C
C6
00
7C
FE
C6
C6
C6
C6
FE
FE
C6
C6
C6
C6
C6
C6
C6
ENDCHAR
STARTCHAR Ã
ENCODING -61
SWIDTH 75 0
DWIDTH -1 0
BBX 7 19 0 1
BITMAP
70
9A
0C
00
7C
FE
C6
C6
C6
C6
FE
FE
C6
C6
C6
C6
C6
C6
C6
ENDCHAR
STARTCHAR Ä
ENCODING -60
SWIDTH 75 0
DWIDTH -1 0
BBX 7 19 0 1
BITMAP
6C
6C
00
00
7C
FE
C6
C6
C6
C6
FE
FE
C6
C6
C6
C6
C6
C6
C6
ENDCHAR
STARTCHAR Å
ENCODING -59
SWIDTH 75 0
DWIDTH -1 0
BBX 7 19 0 1
BITMAP
10
28
10
00
7C
FE
C6
C6
C6
C6
FE
FE
C6
C6
C6
C6
C6
C6
C6
ENDCHAR
STARTCHAR Æ
ENCODING -58
SWIDTH 75 0
DWIDTH -1 0
BBX 7 18 0 1
BITMAP
7E
FE
D8
D8
D8
D8
D8
D8
FE
FE
D8
D8
D8
D8
D8
D8
DE
DE
ENDCHAR
STARTCHAR Ç
ENCODING -57
SWIDTH 75 0
DWIDTH -1 0
BBX 7 19 0 0
BITMAP
7C
FE
C6
C6
C0
C0
C0
C0
C0
C0
C0
C0
C6
C6
FE
7C
20
30
70
ENDCHAR
STARTCHAR È
ENCODING -56
SWIDTH 75 0
DWIDTH -1 0
BBX 7 19 0 1
BITMAP
60
30
18
00
FE
FE
C0
C0
C0
C0
F8
F8
C0
C0
C0
C0
C0
FE
FE
ENDCHAR
STARTCHAR É
ENCODING -55
SWIDTH 75 0
DWIDTH -1 0
BBX 7 19 0 1
BITMAP
0C
18
30
00
FE
FE
C0
C0
C0
C0
F8
F8
C0
C0
C0
C0
C0
FE
FE
ENDCHAR
STARTCHAR Ê
ENCODING -54
SWIDTH 75 0
DWIDTH -1 0
BBX 7 19 0 1
BITMAP
38
6C
C6
00
FE
FE
C0
C0
C0
C0
F8
F8
C0
C0
C0
C0
C0
FE
FE
ENDCHAR
STARTCHAR Ë
ENCODING -53
SWIDTH 75 0
DWIDTH -1 0
BBX 7 19 0 1
BITMAP
6C
6C
00
00
FE
FE
C0
C0
C0
C0
F8
F8
C0
C0
C0
C0
C0
FE
FE
ENDCHAR
STARTCHAR Ì
ENCODING -52
SWIDTH 75 0
DWIDTH -1 0
BBX 4 19 0 1
BITMAP
C0
60
30
00
60
60
60
60
60
60
60
60
60
60
60
60
60
60
60
ENDCHAR
STARTCHAR Í
ENCODING -51
SWIDTH 75 0
DWIDTH -1 0
BBX 4 19 0 1
BITMAP
30
60
C0
00
60
60
60
60
60
60
60
60
60
60
60
60
60
60
60
ENDCHAR
STARTCHAR Î
ENCODING -50
SWIDTH 75 0
DWIDTH -1 0
BBX 6 19 0 1
BITMAP
30
48
84
00
30
30
30
30
30
30
30
30
30
30
30
30
30
30
30
ENDCHAR
STARTCHAR Ï
ENCODING -49
SWIDTH 75 0
DWIDTH -1 0
BBX 6 19 0 1
BITMAP
CC
CC
00
00
30
30
30
30
30
30
30
30
30
30
30
30
30
30
30
ENDCHAR
STARTCHAR Ð
ENCODING -48
SWIDTH 75 0
DWIDTH -1 0
BBX 7 18 0 1
BITMAP
F8
FC
C6
C6
C6
C6
C6
E6
E6
C6
C6
C6
C6
C6
C6
C6
FC
F8
ENDCHAR
STARTCHAR Ñ
ENCODING -47
SWIDTH 75 0
DWIDTH -1 0
BBX 7 19 0 1
BITMAP
70
9A
0C
00
E6
F6
DE
CE
C6
C6
C6
C6
C6
C6
C6
C6
C6
C6
C6
ENDCHAR
STARTCHAR Ò
ENCODING -46
SWIDTH 75 0
DWIDTH -1 0
BBX 7 19 0 1
BITMAP
60
30
18
00
7C
FE
C6
C6
C6
C6
C6
C6
C6
C6
C6
C6
C6
FE
7C
ENDCHAR
STARTCHAR Ó
ENCODING -45
SWIDTH 75 0
DWIDTH -1 0
BBX 7 19 0 1
BITMAP
0C
18
30
00
7C
FE
C6
C6
C6
C6
C6
C6
C6
C6
C6
C6
C6
FE
7C
ENDCHAR
STARTCHAR Ô
ENCODING -44
SWIDTH 75 0
DWIDTH -1 0
BBX 7 19 0 1
BITMAP
38
6C
C6
00
7C
FE
C6
C6
C6
C6
C6
C6
C6
C6
C6
C6
C6
FE
7C
ENDCHAR
STARTCHAR Õ
ENCODING -43
SWIDTH 75 0
DWIDTH -1 0
BBX 7 19 0 1
BITMAP
70
9A
0C
00
7C
FE
C6
C6
C6
C6
C6
C6
C6
C6
C6
C6
C6
FE
7C
ENDCHAR
STARTCHAR Ö
ENCODING -42
SWIDTH 75 0
DWIDTH -1 0
BBX 7 19 0 1
BITMAP
6C
6C
00
00
7C
FE
C6
C6
C6
C6
C6
C6
C6
C6
C6
C6
C6
FE
7C
ENDCHAR
STARTCHAR ×
ENCODING -41
SWIDTH 75 0
DWIDTH -1 0
BBX 7 8 0 3
BITMAP
C6
EE
7C
38
38
7C
EE
C6
ENDCHAR
STARTCHAR Ø
ENCODING -40
SWIDTH 75 0
DWIDTH -1 0
BBX 7 20 0 0
BITMAP
08
7C
FC
D6
D6
D6
D6
D6
D6
D6
D6
D6
D6
D6
D6
D6
D6
FC
78
20
ENDCHAR
STARTCHAR Ù
ENCODING -39
SWIDTH 75 0
DWIDTH -1 0
BBX 7 19 0 1
BITMAP
60
30
18
00
C6
C6
C6
C6
C6
C6
C6
C6
C6
C6
C6
C6
C6
FE
7C
ENDCHAR
STARTCHAR Ú
ENCODING -38
SWIDTH 75 0
DWIDTH -1 0
BBX 7 19 0 1
BITMAP
0C
18
30
00
C6
C6
C6
C6
C6
C6
C6
C6
C6
C6
C6
C6
C6
FE
7C
ENDCHAR
STARTCHAR Û
ENCODING -37
SWIDTH 75 0
DWIDTH -1 0
BBX 7 19 0 1
BITMAP
38
6C
C6
00
C6
C6
C6
C6
C6
C6
C6
C6
C6
C6
C6
C6
C6
FE
7C
ENDCHAR
STARTCHAR Ü
ENCODING -36
SWIDTH 75 0
DWIDTH -1 0
BBX 7 19 0 1
BITMAP
6C
6C
00
00
C6
C6
C6
C6
C6
C6
C6
C6
C6
C6
C6
C6
C6
FE
7C
ENDCHAR
STARTCHAR Ý
ENCODING -35
SWIDTH 75 0
DWIDTH -1 0
BBX 6 19 0 1
BITMAP
18
30
60
00
CC
CC
CC
CC
CC
CC
FC
78
30
30
30
30
30
30
30
ENDCHAR
STARTCHAR Þ
ENCODING -34
SWIDTH 75 0
DWIDTH -1 0
BBX 7 10 0 3
BITMAP
C0
C0
FC
FE
C6
C6
FE
FC
C0
C0
ENDCHAR
STARTCHAR ß
ENCODING -33
SWIDTH 75 0
DWIDTH -1 0
BBX 7 19 0 0
BITMAP
78
FC
CC
CC
CC
CC
CC
DC
D8
DC
C6
C6
C6
C6
C6
C6
DE
DC
C0
ENDCHAR
STARTCHAR à
ENCODING -32
SWIDTH 75 0
DWIDTH -1 0
BBX 7 15 0 1
BITMAP
60
30
18
00
7C
7C
06
06
76
FE
C6
C6
C6
FE
76
ENDCHAR
STARTCHAR á
ENCODING -31
SWIDTH 75 0
DWIDTH -1 0
BBX 7 15 0 1
BITMAP
0C
18
30
00
7C
7C
06
06
76
FE
C6
C6
C6
FE
76
ENDCHAR
STARTCHAR â
ENCODING -30
SWIDTH 75 0
DWIDTH -1 0
BBX 7 15 0 1
BITMAP
38
6C
C6
00
7C
7C
06
06
76
FE
C6
C6
C6
FE
76
ENDCHAR
STARTCHAR ã
ENCODING -29
SWIDTH 75 0
DWIDTH -1 0
BBX 7 15 0 1
BITMAP
70
9A
0C
00
7C
7C
06
06
76
FE
C6
C6
C6
FE
76
ENDCHAR
STARTCHAR ä
ENCODING -28
SWIDTH 75 0
DWIDTH -1 0
BBX 7 15 0 1
BITMAP
6C
6C
00
00
7C
7C
06
06
76
FE
C6
C6
C6
FE
76
ENDCHAR
STARTCHAR å
ENCODING -27
SWIDTH 75 0
DWIDTH -1 0
BBX 7 15 0 1
BITMAP
10
28
10
00
7C
7C
06
06
76
FE
C6
C6
C6
FE
76
ENDCHAR
STARTCHAR æ
ENCODING -26
SWIDTH 75 0
DWIDTH -1 0
BBX 7 11 0 1
BITMAP
6C
7E
1A
1A
7A
FE
D8
D8
DA
FE
74
ENDCHAR
STARTCHAR ç
ENCODING -25
SWIDTH 75 0
DWIDTH -1 0
BBX 7 12 0 0
BITMAP
7C
FE
C6
C0
C0
C0
C6
7E
7C
10
08
38
ENDCHAR
STARTCHAR è
ENCODING -24
SWIDTH 75 0
DWIDTH -1 0
BBX 7 15 0 1
BITMAP
60
30
18
00
7C
FE
C6
C6
FE
FE
C0
C0
C6
FE
7C
ENDCHAR
STARTCHAR é
ENCODING -23
SWIDTH 75 0
DWIDTH -1 0
BBX 7 15 0 1
BITMAP
0C
18
30
00
7C
FE
C6
C6
FE
FE
C0
C0
C6
FE
7C
ENDCHAR
STARTCHAR ê
ENCODING -22
SWIDTH 75 0
DWIDTH -1 0
BBX 7 15 0 1
BITMAP
38
6C
C6
00
7C
FE
C6
C6
FE
FE
C0
C0
C6
FE
7C
ENDCHAR
STARTCHAR ë
ENCODING -21
SWIDTH 75 0
DWIDTH -1 0
BBX 7 15 0 1
BITMAP
6C
6C
00
00
7C
FE
C6
C6
FE
FE
C0
C0
C6
FE
7C
ENDCHAR
STARTCHAR ì
ENCODING -20
SWIDTH 75 0
DWIDTH -1 0
BBX 4 15 0 1
BITMAP
C0
60
30
00
60
60
60
60
60
60
60
60
60
60
60
ENDCHAR
STARTCHAR í
ENCODING -19
SWIDTH 75 0
DWIDTH -1 0
BBX 4 15 0 1
BITMAP
30
60
C0
00
60
60
60
60
60
60
60
60
60
60
60
ENDCHAR
STARTCHAR î
ENCODING -18
SWIDTH 75 0
DWIDTH -1 0
BBX 6 15 0 1
BITMAP
30
48
84
00
30
30
30
30
30
30
30
30
30
30
30
ENDCHAR
STARTCHAR ï
ENCODING -17
SWIDTH 75 0
DWIDTH -1 0
BBX 5 15 0 1
BITMAP
D8
D8
00
00
30
30
30
30
30
30
30
30
30
30
30
ENDCHAR
STARTCHAR ð
ENCODING -16
SWIDTH 75 0
DWIDTH -1 0
BBX 7 16 0 1
BITMAP
64
38
30
48
04
7C
FE
C6
C6
C6
C6
C6
C6
C6
FE
7C
ENDCHAR
STARTCHAR ñ
ENCODING -15
SWIDTH 75 0
DWIDTH -1 0
BBX 7 15 0 1
BITMAP
70
9A
0C
00
D8
FC
E6
C6
C6
C6
C6
C6
C6
C6
C6
ENDCHAR
STARTCHAR ò
ENCODING -14
SWIDTH 75 0
DWIDTH -1 0
BBX 7 15 0 1
BITMAP
60
30
18
00
7C
FE
C6
C6
C6
C6
C6
C6
C6
FE
7C
ENDCHAR
STARTCHAR ó
ENCODING -13
SWIDTH 75 0
DWIDTH -1 0
BBX 7 15 0 1
BITMAP
0C
18
30
00
7C
FE
C6
C6
C6
C6
C6
C6
C6
FE
7C
ENDCHAR
STARTCHAR ô
ENCODING -12
SWIDTH 75 0
DWIDTH -1 0
BBX 7 15 0 1
BITMAP
38
6C
C6
00
7C
FE
C6
C6
C6
C6
C6
C6
C6
FE
7C
ENDCHAR
STARTCHAR õ
ENCODING -11
SWIDTH 75 0
DWIDTH -1 0
BBX 7 15 0 1
BITMAP
70
9A
0C
00
7C
FE
C6
C6
C6
C6
C6
C6
C6
FE
7C
ENDCHAR
STARTCHAR ö
ENCODING -10
SWIDTH 75 0
DWIDTH -1 0
BBX 7 15 0 1
BITMAP
6C
6C
00
00
7C
FE
C6
C6
C6
C6
C6
C6
C6
FE
7C
ENDCHAR
STARTCHAR ÷
ENCODING -9
SWIDTH 75 0
DWIDTH -1 0
BBX 6 8 0 3
BITMAP
30
30
00
FC
FC
00
30
30
ENDCHAR
STARTCHAR ø
ENCODING -8
SWIDTH 75 0
DWIDTH -1 0
BBX 7 13 0 0
BITMAP
08
7C
FE
D6
D6
D6
D6
D6
D6
D6
FE
7C
20
ENDCHAR
STARTCHAR ù
ENCODING -7
SWIDTH 75 0
DWIDTH -1 0
BBX 7 15 0 1
BITMAP
60
30
18
00
C6
C6
C6
C6
C6
C6
C6
C6
CE
7E
36
ENDCHAR
STARTCHAR ú
ENCODING -6
SWIDTH 75 0
DWIDTH -1 0
BBX 7 15 0 1
BITMAP
0C
18
30
00
C6
C6
C6
C6
C6
C6
C6
C6
CE
7E
36
ENDCHAR
STARTCHAR û
ENCODING -5
SWIDTH 75 0
DWIDTH -1 0
BBX 7 15 0 1
BITMAP
38
6C
C6
00
C6
C6
C6
C6
C6
C6
C6
C6
CE
7E
36
ENDCHAR
STARTCHAR ü
ENCODING -4
SWIDTH 75 0
DWIDTH -1 0
BBX 7 15 0 1
BITMAP
6C
6C
00
00
C6
C6
C6
C6
C6
C6
C6
C6
CE
7E
36
ENDCHAR
STARTCHAR ý
ENCODING -3
SWIDTH 75 0
DWIDTH -1 0
BBX 7 16 0 0
BITMAP
0C
18
30
00
C6
C6
C6
C6
C6
FE
7E
06
06
06
7E
7C
ENDCHAR
STARTCHAR þ
ENCODING -2
SWIDTH 75 0
DWIDTH -1 0
BBX 7 13 0 2
BITMAP
C0
C0
C0
FC
FE
C6
C6
C6
FE
FC
C0
C0
C0
ENDCHAR
STARTCHAR ÿ
ENCODING -1
SWIDTH 75 0
DWIDTH -1 0
BBX 7 16 0 0
BITMAP
6C
6C
00
00
C6
C6
C6
C6
C6
FE
7E
06
06
06
7E
7C
ENDCHAR
ENDFONT
