STARTFONT 2.1
COMMENT Lumiplan font build using LumiStudio
FONT Parisine 12
SIZE 12 75 75
FONTBOUNDINGBOX 14 12 0 0
STARTPROPERTIES 1
Copyright "Copyright (c) 2021 Lumiplan"
ENDPROPERTIES
CHARS 145
STARTCHAR 
ENCODING 14
SWIDTH 75 0
DWIDTH -1 0
BBX 0 0 1 11
ENDCHAR
STARTCHAR  
ENCODING 32
SWIDTH 75 0
DWIDTH -1 0
BBX 0 0 3 11
ENDCHAR
STARTCHAR !
ENCODING 33
SWIDTH 75 0
DWIDTH -1 0
BBX 1 9 0 2
BITMAP
80
80
80
80
80
80
00
80
80
ENDCHAR
STARTCHAR "
ENCODING 34
SWIDTH 75 0
DWIDTH -1 0
BBX 5 4 0 8
BITMAP
D8
48
48
90
ENDCHAR
STARTCHAR #
ENCODING 35
SWIDTH 75 0
DWIDTH -1 0
BBX 13 12 0 0
BITMAP
1FC0
2020
4F90
8208
8208
8208
8208
8208
8208
4210
2020
1FC0
ENDCHAR
STARTCHAR $
ENCODING 36
SWIDTH 75 0
DWIDTH -1 0
BBX 13 12 0 0
BITMAP
1FC0
2020
4890
8D88
8A88
8A88
8A88
8888
8888
4890
2020
1FC0
ENDCHAR
STARTCHAR %
ENCODING 37
SWIDTH 75 0
DWIDTH -1 0
BBX 14 12 0 0
BITMAP
1FE0
2010
4008
B364
AA54
AB54
B264
AA54
AB54
4008
2010
1FE0
ENDCHAR
STARTCHAR &
ENCODING 38
SWIDTH 75 0
DWIDTH -1 0
BBX 6 9 0 2
BITMAP
60
90
90
90
40
A4
94
88
74
ENDCHAR
STARTCHAR '
ENCODING 39
SWIDTH 75 0
DWIDTH -1 0
BBX 2 4 0 8
BITMAP
C0
40
40
80
ENDCHAR
STARTCHAR (
ENCODING 40
SWIDTH 75 0
DWIDTH -1 0
BBX 2 11 0 0
BITMAP
40
80
80
80
80
80
80
80
80
80
40
ENDCHAR
STARTCHAR )
ENCODING 41
SWIDTH 75 0
DWIDTH -1 0
BBX 2 11 0 0
BITMAP
80
40
40
40
40
40
40
40
40
40
80
ENDCHAR
STARTCHAR *
ENCODING 42
SWIDTH 75 0
DWIDTH -1 0
BBX 4 4 0 7
BITMAP
90
60
60
90
ENDCHAR
STARTCHAR +
ENCODING 43
SWIDTH 75 0
DWIDTH -1 0
BBX 5 5 0 3
BITMAP
20
20
F8
20
20
ENDCHAR
STARTCHAR ,
ENCODING 44
SWIDTH 75 0
DWIDTH -1 0
BBX 2 4 0 0
BITMAP
C0
40
40
80
ENDCHAR
STARTCHAR -
ENCODING 45
SWIDTH 75 0
DWIDTH -1 0
BBX 2 1 0 5
BITMAP
C0
ENDCHAR
STARTCHAR .
ENCODING 46
SWIDTH 75 0
DWIDTH -1 0
BBX 1 2 0 2
BITMAP
80
80
ENDCHAR
STARTCHAR /
ENCODING 47
SWIDTH 75 0
DWIDTH -1 0
BBX 3 8 0 3
BITMAP
20
20
20
40
40
80
80
80
ENDCHAR
STARTCHAR 0
ENCODING 48
SWIDTH 75 0
DWIDTH -1 0
BBX 4 9 0 2
BITMAP
60
90
90
90
90
90
90
90
60
ENDCHAR
STARTCHAR 1
ENCODING 49
SWIDTH 75 0
DWIDTH -1 0
BBX 3 9 0 2
BITMAP
20
60
A0
20
20
20
20
20
20
ENDCHAR
STARTCHAR 2
ENCODING 50
SWIDTH 75 0
DWIDTH -1 0
BBX 4 9 0 2
BITMAP
60
90
10
10
20
40
80
80
F0
ENDCHAR
STARTCHAR 3
ENCODING 51
SWIDTH 75 0
DWIDTH -1 0
BBX 4 9 0 2
BITMAP
60
90
10
10
60
10
10
90
60
ENDCHAR
STARTCHAR 4
ENCODING 52
SWIDTH 75 0
DWIDTH -1 0
BBX 5 9 0 2
BITMAP
30
50
50
50
90
90
F8
10
10
ENDCHAR
STARTCHAR 5
ENCODING 53
SWIDTH 75 0
DWIDTH -1 0
BBX 4 9 0 2
BITMAP
F0
80
80
80
60
10
10
90
60
ENDCHAR
STARTCHAR 6
ENCODING 54
SWIDTH 75 0
DWIDTH -1 0
BBX 4 9 0 2
BITMAP
60
90
80
80
E0
90
90
90
60
ENDCHAR
STARTCHAR 7
ENCODING 55
SWIDTH 75 0
DWIDTH -1 0
BBX 4 9 0 2
BITMAP
F0
10
10
10
20
20
40
40
40
ENDCHAR
STARTCHAR 8
ENCODING 56
SWIDTH 75 0
DWIDTH -1 0
BBX 4 9 0 2
BITMAP
60
90
90
90
60
90
90
90
60
ENDCHAR
STARTCHAR 9
ENCODING 57
SWIDTH 75 0
DWIDTH -1 0
BBX 4 9 0 2
BITMAP
60
90
90
90
70
10
10
90
60
ENDCHAR
STARTCHAR :
ENCODING 58
SWIDTH 75 0
DWIDTH -1 0
BBX 1 7 0 2
BITMAP
80
80
00
00
00
80
80
ENDCHAR
STARTCHAR ;
ENCODING 59
SWIDTH 75 0
DWIDTH -1 0
BBX 2 9 0 0
BITMAP
80
80
00
00
00
C0
40
40
80
ENDCHAR
STARTCHAR <
ENCODING 60
SWIDTH 75 0
DWIDTH -1 0
BBX 3 5 0 3
BITMAP
20
40
80
40
20
ENDCHAR
STARTCHAR =
ENCODING 61
SWIDTH 75 0
DWIDTH -1 0
BBX 3 3 0 4
BITMAP
E0
00
E0
ENDCHAR
STARTCHAR >
ENCODING 62
SWIDTH 75 0
DWIDTH -1 0
BBX 3 5 0 3
BITMAP
80
40
20
40
80
ENDCHAR
STARTCHAR ?
ENCODING 63
SWIDTH 75 0
DWIDTH -1 0
BBX 4 9 0 2
BITMAP
60
90
10
20
40
40
00
40
40
ENDCHAR
STARTCHAR @
ENCODING 64
SWIDTH 75 0
DWIDTH -1 0
BBX 3 1 0 5
BITMAP
E0
ENDCHAR
STARTCHAR A
ENCODING 65
SWIDTH 75 0
DWIDTH -1 0
BBX 4 9 0 2
BITMAP
60
60
90
90
90
F0
90
90
90
ENDCHAR
STARTCHAR B
ENCODING 66
SWIDTH 75 0
DWIDTH -1 0
BBX 4 9 0 2
BITMAP
E0
90
90
90
E0
90
90
90
E0
ENDCHAR
STARTCHAR C
ENCODING 67
SWIDTH 75 0
DWIDTH -1 0
BBX 4 9 0 2
BITMAP
60
90
80
80
80
80
80
90
60
ENDCHAR
STARTCHAR D
ENCODING 68
SWIDTH 75 0
DWIDTH -1 0
BBX 4 9 0 2
BITMAP
E0
90
90
90
90
90
90
90
E0
ENDCHAR
STARTCHAR E
ENCODING 69
SWIDTH 75 0
DWIDTH -1 0
BBX 3 9 0 2
BITMAP
E0
80
80
80
E0
80
80
80
60
ENDCHAR
STARTCHAR F
ENCODING 70
SWIDTH 75 0
DWIDTH -1 0
BBX 3 9 0 2
BITMAP
E0
A0
80
80
E0
80
80
80
80
ENDCHAR
STARTCHAR G
ENCODING 71
SWIDTH 75 0
DWIDTH -1 0
BBX 4 9 0 2
BITMAP
60
90
80
80
80
B0
90
90
60
ENDCHAR
STARTCHAR H
ENCODING 72
SWIDTH 75 0
DWIDTH -1 0
BBX 4 9 0 2
BITMAP
90
90
90
90
F0
90
90
90
90
ENDCHAR
STARTCHAR I
ENCODING 73
SWIDTH 75 0
DWIDTH -1 0
BBX 1 9 0 2
BITMAP
80
80
80
80
80
80
80
80
80
ENDCHAR
STARTCHAR J
ENCODING 74
SWIDTH 75 0
DWIDTH -1 0
BBX 2 9 0 2
BITMAP
C0
40
40
40
40
40
40
40
80
ENDCHAR
STARTCHAR K
ENCODING 75
SWIDTH 75 0
DWIDTH -1 0
BBX 4 9 0 2
BITMAP
90
90
A0
A0
C0
A0
A0
90
90
ENDCHAR
STARTCHAR L
ENCODING 76
SWIDTH 75 0
DWIDTH -1 0
BBX 3 9 0 2
BITMAP
80
80
80
80
80
80
80
80
E0
ENDCHAR
STARTCHAR M
ENCODING 77
SWIDTH 75 0
DWIDTH -1 0
BBX 5 9 0 2
BITMAP
88
88
D8
A8
A8
A8
A8
88
88
ENDCHAR
STARTCHAR N
ENCODING 78
SWIDTH 75 0
DWIDTH -1 0
BBX 5 9 0 2
BITMAP
88
C8
A8
A8
A8
A8
98
88
88
ENDCHAR
STARTCHAR O
ENCODING 79
SWIDTH 75 0
DWIDTH -1 0
BBX 4 9 0 2
BITMAP
60
90
90
90
90
90
90
90
60
ENDCHAR
STARTCHAR P
ENCODING 80
SWIDTH 75 0
DWIDTH -1 0
BBX 4 9 0 2
BITMAP
E0
90
90
90
90
E0
80
80
80
ENDCHAR
STARTCHAR Q
ENCODING 81
SWIDTH 75 0
DWIDTH -1 0
BBX 4 11 0 0
BITMAP
60
90
90
90
90
90
90
90
60
40
30
ENDCHAR
STARTCHAR R
ENCODING 82
SWIDTH 75 0
DWIDTH -1 0
BBX 5 9 0 2
BITMAP
E0
90
90
90
90
E0
A0
90
88
ENDCHAR
STARTCHAR S
ENCODING 83
SWIDTH 75 0
DWIDTH -1 0
BBX 4 9 0 2
BITMAP
60
90
80
80
60
10
10
90
60
ENDCHAR
STARTCHAR T
ENCODING 84
SWIDTH 75 0
DWIDTH -1 0
BBX 5 9 0 2
BITMAP
F8
20
20
20
20
20
20
20
20
ENDCHAR
STARTCHAR U
ENCODING 85
SWIDTH 75 0
DWIDTH -1 0
BBX 4 9 0 2
BITMAP
90
90
90
90
90
90
90
B0
D0
ENDCHAR
STARTCHAR V
ENCODING 86
SWIDTH 75 0
DWIDTH -1 0
BBX 4 9 0 2
BITMAP
90
90
90
90
90
90
90
60
60
ENDCHAR
STARTCHAR W
ENCODING 87
SWIDTH 75 0
DWIDTH -1 0
BBX 5 9 0 2
BITMAP
88
88
A8
A8
A8
A8
A8
50
50
ENDCHAR
STARTCHAR X
ENCODING 88
SWIDTH 75 0
DWIDTH -1 0
BBX 4 9 0 2
BITMAP
90
90
90
60
60
90
90
90
90
ENDCHAR
STARTCHAR Y
ENCODING 89
SWIDTH 75 0
DWIDTH -1 0
BBX 5 9 0 2
BITMAP
88
88
88
88
50
20
20
20
20
ENDCHAR
STARTCHAR Z
ENCODING 90
SWIDTH 75 0
DWIDTH -1 0
BBX 4 9 0 2
BITMAP
F0
10
20
20
40
40
80
80
F0
ENDCHAR
STARTCHAR [
ENCODING 91
SWIDTH 75 0
DWIDTH -1 0
BBX 2 11 0 0
BITMAP
C0
80
80
80
80
80
80
80
80
80
C0
ENDCHAR
STARTCHAR \
ENCODING 92
SWIDTH 75 0
DWIDTH -1 0
BBX 14 12 0 0
BITMAP
1FE0
2010
4008
BAB4
AAA4
B2A4
AA94
AA94
BBB4
4008
2010
1FE0
ENDCHAR
STARTCHAR ]
ENCODING 93
SWIDTH 75 0
DWIDTH -1 0
BBX 2 11 0 0
BITMAP
C0
40
40
40
40
40
40
40
40
40
C0
ENDCHAR
STARTCHAR ^
ENCODING 94
SWIDTH 75 0
DWIDTH -1 0
BBX 2 2 0 5
BITMAP
C0
C0
ENDCHAR
STARTCHAR _
ENCODING 95
SWIDTH 75 0
DWIDTH -1 0
BBX 4 2 0 10
BITMAP
60
90
ENDCHAR
STARTCHAR `
ENCODING 96
SWIDTH 75 0
DWIDTH -1 0
BBX 3 3 0 9
BITMAP
80
40
20
ENDCHAR
STARTCHAR a
ENCODING 97
SWIDTH 75 0
DWIDTH -1 0
BBX 5 7 0 2
BITMAP
60
90
10
70
90
90
68
ENDCHAR
STARTCHAR b
ENCODING 98
SWIDTH 75 0
DWIDTH -1 0
BBX 4 10 0 2
BITMAP
80
80
80
B0
D0
90
90
90
90
E0
ENDCHAR
STARTCHAR c
ENCODING 99
SWIDTH 75 0
DWIDTH -1 0
BBX 4 7 0 2
BITMAP
70
80
80
80
80
90
60
ENDCHAR
STARTCHAR d
ENCODING 100
SWIDTH 75 0
DWIDTH -1 0
BBX 4 10 0 2
BITMAP
10
10
10
70
90
90
90
90
B0
D0
ENDCHAR
STARTCHAR e
ENCODING 101
SWIDTH 75 0
DWIDTH -1 0
BBX 4 7 0 2
BITMAP
60
90
90
E0
80
90
60
ENDCHAR
STARTCHAR f
ENCODING 102
SWIDTH 75 0
DWIDTH -1 0
BBX 4 10 0 2
BITMAP
30
40
40
F0
40
40
40
40
40
40
ENDCHAR
STARTCHAR g
ENCODING 103
SWIDTH 75 0
DWIDTH -1 0
BBX 5 9 0 0
BITMAP
78
90
90
E0
80
F0
90
90
60
ENDCHAR
STARTCHAR h
ENCODING 104
SWIDTH 75 0
DWIDTH -1 0
BBX 4 10 0 2
BITMAP
80
80
80
B0
D0
90
90
90
90
90
ENDCHAR
STARTCHAR i
ENCODING 105
SWIDTH 75 0
DWIDTH -1 0
BBX 1 10 0 2
BITMAP
80
80
00
80
80
80
80
80
80
80
ENDCHAR
STARTCHAR j
ENCODING 106
SWIDTH 75 0
DWIDTH -1 0
BBX 2 12 0 0
BITMAP
40
40
00
40
40
40
40
40
40
40
40
80
ENDCHAR
STARTCHAR k
ENCODING 107
SWIDTH 75 0
DWIDTH -1 0
BBX 4 10 0 2
BITMAP
80
80
80
90
A0
C0
A0
A0
90
90
ENDCHAR
STARTCHAR l
ENCODING 108
SWIDTH 75 0
DWIDTH -1 0
BBX 2 10 0 2
BITMAP
80
80
80
80
80
80
80
80
80
40
ENDCHAR
STARTCHAR m
ENCODING 109
SWIDTH 75 0
DWIDTH -1 0
BBX 7 7 0 2
BITMAP
B6
DA
92
92
92
92
92
ENDCHAR
STARTCHAR n
ENCODING 110
SWIDTH 75 0
DWIDTH -1 0
BBX 4 7 0 2
BITMAP
B0
D0
90
90
90
90
90
ENDCHAR
STARTCHAR o
ENCODING 111
SWIDTH 75 0
DWIDTH -1 0
BBX 4 7 0 2
BITMAP
60
90
90
90
90
90
60
ENDCHAR
STARTCHAR p
ENCODING 112
SWIDTH 75 0
DWIDTH -1 0
BBX 4 9 0 0
BITMAP
B0
D0
90
90
90
90
E0
80
80
ENDCHAR
STARTCHAR q
ENCODING 113
SWIDTH 75 0
DWIDTH -1 0
BBX 4 9 0 0
BITMAP
70
90
90
90
90
B0
D0
10
10
ENDCHAR
STARTCHAR r
ENCODING 114
SWIDTH 75 0
DWIDTH -1 0
BBX 3 7 0 2
BITMAP
A0
E0
A0
80
80
80
80
ENDCHAR
STARTCHAR s
ENCODING 115
SWIDTH 75 0
DWIDTH -1 0
BBX 4 7 0 2
BITMAP
60
90
80
60
10
90
60
ENDCHAR
STARTCHAR t
ENCODING 116
SWIDTH 75 0
DWIDTH -1 0
BBX 4 9 0 2
BITMAP
40
40
F0
40
40
40
40
40
30
ENDCHAR
STARTCHAR u
ENCODING 117
SWIDTH 75 0
DWIDTH -1 0
BBX 4 7 0 2
BITMAP
90
90
90
90
90
B0
D0
ENDCHAR
STARTCHAR v
ENCODING 118
SWIDTH 75 0
DWIDTH -1 0
BBX 4 7 0 2
BITMAP
90
90
90
90
90
60
60
ENDCHAR
STARTCHAR w
ENCODING 119
SWIDTH 75 0
DWIDTH -1 0
BBX 5 7 0 2
BITMAP
88
88
A8
A8
A8
50
50
ENDCHAR
STARTCHAR x
ENCODING 120
SWIDTH 75 0
DWIDTH -1 0
BBX 4 7 0 2
BITMAP
90
90
60
60
90
90
90
ENDCHAR
STARTCHAR y
ENCODING 121
SWIDTH 75 0
DWIDTH -1 0
BBX 4 9 0 0
BITMAP
90
90
90
90
90
B0
50
10
E0
ENDCHAR
STARTCHAR z
ENCODING 122
SWIDTH 75 0
DWIDTH -1 0
BBX 4 7 0 2
BITMAP
F0
10
20
60
40
80
F0
ENDCHAR
STARTCHAR {
ENCODING 123
SWIDTH 75 0
DWIDTH -1 0
BBX 3 11 0 0
BITMAP
20
40
40
40
40
80
40
40
40
40
20
ENDCHAR
STARTCHAR |
ENCODING 124
SWIDTH 75 0
DWIDTH -1 0
BBX 1 12 0 0
BITMAP
80
80
80
80
80
80
80
80
80
80
80
80
ENDCHAR
STARTCHAR }
ENCODING 125
SWIDTH 75 0
DWIDTH -1 0
BBX 3 11 0 0
BITMAP
80
40
40
40
40
20
40
40
40
40
80
ENDCHAR
STARTCHAR ~
ENCODING 126
SWIDTH 75 0
DWIDTH -1 0
BBX 7 7 0 2
BITMAP
6C
92
92
9C
90
92
6C
ENDCHAR
STARTCHAR 
ENCODING 127
SWIDTH 75 0
DWIDTH -1 0
BBX 0 0 14 11
ENDCHAR
STARTCHAR f
ENCODING 102
SWIDTH 75 0
DWIDTH -1 0
BBX 5 10 0 2
BITMAP
50
88
88
88
88
50
20
20
20
20
ENDCHAR
STARTCHAR ¡
ENCODING -95
SWIDTH 75 0
DWIDTH -1 0
BBX 0 0 14 11
ENDCHAR
STARTCHAR £
ENCODING -93
SWIDTH 75 0
DWIDTH -1 0
BBX 6 9 0 2
BITMAP
7C
70
90
90
9C
F0
90
90
8C
ENDCHAR
STARTCHAR ª
ENCODING -86
SWIDTH 75 0
DWIDTH -1 0
BBX 1 12 0 0
BITMAP
80
80
80
80
80
00
80
80
80
80
80
80
ENDCHAR
STARTCHAR «
ENCODING -85
SWIDTH 75 0
DWIDTH -1 0
BBX 0 0 14 11
ENDCHAR
STARTCHAR ¬
ENCODING -84
SWIDTH 75 0
DWIDTH -1 0
BBX 0 0 14 11
ENDCHAR
STARTCHAR ®
ENCODING -82
SWIDTH 75 0
DWIDTH -1 0
BBX 0 0 14 11
ENDCHAR
STARTCHAR º
ENCODING -70
SWIDTH 75 0
DWIDTH -1 0
BBX 0 0 14 11
ENDCHAR
STARTCHAR »
ENCODING -69
SWIDTH 75 0
DWIDTH -1 0
BBX 0 0 14 11
ENDCHAR
STARTCHAR  
ENCODING 32
SWIDTH 75 0
DWIDTH -1 0
BBX 0 0 14 11
ENDCHAR
STARTCHAR  
ENCODING 32
SWIDTH 75 0
DWIDTH -1 0
BBX 4 5 0 3
BITMAP
50
50
A0
50
50
ENDCHAR
STARTCHAR ¿
ENCODING -65
SWIDTH 75 0
DWIDTH -1 0
BBX 3 1 0 10
BITMAP
A0
ENDCHAR
STARTCHAR Ä
ENCODING -60
SWIDTH 75 0
DWIDTH -1 0
BBX 4 10 0 2
BITMAP
90
00
60
90
90
90
F0
90
90
90
ENDCHAR
STARTCHAR Å
ENCODING -59
SWIDTH 75 0
DWIDTH -1 0
BBX 4 10 0 2
BITMAP
60
90
60
90
90
90
F0
90
90
90
ENDCHAR
STARTCHAR Æ
ENCODING -58
SWIDTH 75 0
DWIDTH -1 0
BBX 4 2 0 10
BITMAP
D0
B0
ENDCHAR
STARTCHAR Ç
ENCODING -57
SWIDTH 75 0
DWIDTH -1 0
BBX 4 11 0 0
BITMAP
60
90
80
80
80
80
80
90
60
20
40
ENDCHAR
STARTCHAR É
ENCODING -55
SWIDTH 75 0
DWIDTH -1 0
BBX 3 10 0 2
BITMAP
60
E0
80
80
80
E0
80
80
80
60
ENDCHAR
STARTCHAR Ñ
ENCODING -47
SWIDTH 75 0
DWIDTH -1 0
BBX 7 8 0 2
BITMAP
14
14
7E
28
28
FC
50
50
ENDCHAR
STARTCHAR Ö
ENCODING -42
SWIDTH 75 0
DWIDTH -1 0
BBX 4 10 0 2
BITMAP
90
00
60
90
90
90
90
90
90
60
ENDCHAR
STARTCHAR ×
ENCODING -41
SWIDTH 75 0
DWIDTH -1 0
BBX 0 0 14 11
ENDCHAR
STARTCHAR Ø
ENCODING -40
SWIDTH 75 0
DWIDTH -1 0
BBX 0 0 14 11
ENDCHAR
STARTCHAR Ü
ENCODING -36
SWIDTH 75 0
DWIDTH -1 0
BBX 4 10 0 2
BITMAP
60
00
90
90
90
90
90
90
B0
D0
ENDCHAR
STARTCHAR à
ENCODING -32
SWIDTH 75 0
DWIDTH -1 0
BBX 5 10 0 2
BITMAP
80
40
20
60
90
10
70
90
90
68
ENDCHAR
STARTCHAR á
ENCODING -31
SWIDTH 75 0
DWIDTH -1 0
BBX 0 0 14 11
ENDCHAR
STARTCHAR â
ENCODING -30
SWIDTH 75 0
DWIDTH -1 0
BBX 5 10 0 2
BITMAP
60
90
00
60
90
10
70
90
90
68
ENDCHAR
STARTCHAR ä
ENCODING -28
SWIDTH 75 0
DWIDTH -1 0
BBX 5 9 0 2
BITMAP
50
00
60
90
10
70
90
90
68
ENDCHAR
STARTCHAR å
ENCODING -27
SWIDTH 75 0
DWIDTH -1 0
BBX 5 10 0 2
BITMAP
60
90
90
60
90
10
70
90
90
68
ENDCHAR
STARTCHAR æ
ENCODING -26
SWIDTH 75 0
DWIDTH -1 0
BBX 7 7 0 2
BITMAP
6C
92
12
7C
90
92
6C
ENDCHAR
STARTCHAR ç
ENCODING -25
SWIDTH 75 0
DWIDTH -1 0
BBX 4 9 0 0
BITMAP
70
80
80
80
80
90
60
20
40
ENDCHAR
STARTCHAR è
ENCODING -24
SWIDTH 75 0
DWIDTH -1 0
BBX 4 10 0 2
BITMAP
80
40
20
60
90
90
E0
80
90
60
ENDCHAR
STARTCHAR é
ENCODING -23
SWIDTH 75 0
DWIDTH -1 0
BBX 4 10 0 2
BITMAP
10
20
40
60
90
90
E0
80
90
60
ENDCHAR
STARTCHAR ê
ENCODING -22
SWIDTH 75 0
DWIDTH -1 0
BBX 4 10 0 2
BITMAP
60
90
00
60
90
90
E0
80
90
60
ENDCHAR
STARTCHAR ë
ENCODING -21
SWIDTH 75 0
DWIDTH -1 0
BBX 4 9 0 2
BITMAP
50
00
60
90
90
E0
80
90
60
ENDCHAR
STARTCHAR ì
ENCODING -20
SWIDTH 75 0
DWIDTH -1 0
BBX 2 10 0 2
BITMAP
80
40
00
40
40
40
40
40
40
40
ENDCHAR
STARTCHAR í
ENCODING -19
SWIDTH 75 0
DWIDTH -1 0
BBX 1 9 0 0
BITMAP
80
80
00
80
80
80
80
80
80
ENDCHAR
STARTCHAR î
ENCODING -18
SWIDTH 75 0
DWIDTH -1 0
BBX 3 10 0 2
BITMAP
40
A0
00
40
40
40
40
40
40
40
ENDCHAR
STARTCHAR ï
ENCODING -17
SWIDTH 75 0
DWIDTH -1 0
BBX 3 9 0 2
BITMAP
A0
00
40
40
40
40
40
40
40
ENDCHAR
STARTCHAR ñ
ENCODING -15
SWIDTH 75 0
DWIDTH -1 0
BBX 0 0 14 11
ENDCHAR
STARTCHAR ò
ENCODING -14
SWIDTH 75 0
DWIDTH -1 0
BBX 4 10 0 2
BITMAP
80
40
20
60
90
90
90
90
90
60
ENDCHAR
STARTCHAR ó
ENCODING -13
SWIDTH 75 0
DWIDTH -1 0
BBX 9 10 0 2
BITMAP
6200
9200
9400
9400
9B00
6C80
1480
1480
2480
2300
ENDCHAR
STARTCHAR ô
ENCODING -12
SWIDTH 75 0
DWIDTH -1 0
BBX 4 10 0 2
BITMAP
60
90
00
60
90
90
90
90
90
60
ENDCHAR
STARTCHAR ö
ENCODING -10
SWIDTH 75 0
DWIDTH -1 0
BBX 4 9 0 2
BITMAP
50
00
60
90
90
90
90
90
60
ENDCHAR
STARTCHAR ø
ENCODING -8
SWIDTH 75 0
DWIDTH -1 0
BBX 0 0 14 11
ENDCHAR
STARTCHAR ù
ENCODING -7
SWIDTH 75 0
DWIDTH -1 0
BBX 4 10 0 2
BITMAP
80
40
20
90
90
90
90
90
B0
D0
ENDCHAR
STARTCHAR ú
ENCODING -6
SWIDTH 75 0
DWIDTH -1 0
BBX 3 8 0 3
BITMAP
80
80
80
40
40
20
20
20
ENDCHAR
STARTCHAR û
ENCODING -5
SWIDTH 75 0
DWIDTH -1 0
BBX 4 10 0 2
BITMAP
60
90
00
90
90
90
90
90
B0
D0
ENDCHAR
STARTCHAR ü
ENCODING -4
SWIDTH 75 0
DWIDTH -1 0
BBX 4 9 0 2
BITMAP
50
00
90
90
90
90
90
B0
D0
ENDCHAR
STARTCHAR ÿ
ENCODING -1
SWIDTH 75 0
DWIDTH -1 0
BBX 4 11 0 0
BITMAP
50
00
90
90
90
90
90
B0
50
10
E0
ENDCHAR
ENDFONT
