STARTFONT 2.1
COMMENT Lumiplan font build using LumiStudio
FONT Duhamel 24/22 4-Bold
SIZE 24 75 75
FONTBOUNDINGBOX 19 24 0 0
STARTPROPERTIES 1
Copyright "Copyright (c) 2021 Lumiplan"
ENDPROPERTIES
CHARS 189
STARTCHAR 
ENCODING 14
SWIDTH 75 0
DWIDTH -1 0
BBX 0 0 1 23
ENDCHAR
STARTCHAR  
ENCODING 32
SWIDTH 75 0
DWIDTH -1 0
BBX 0 0 2 23
ENDCHAR
STARTCHAR !
ENCODING 33
SWIDTH 75 0
DWIDTH -1 0
BBX 5 22 0 1
BITMAP
F8
F8
F8
F8
F8
F8
F8
F8
F8
F8
F8
F8
F8
F8
F8
F8
00
F8
F8
F8
F8
F8
ENDCHAR
STARTCHAR "
ENCODING 34
SWIDTH 75 0
DWIDTH -1 0
BBX 10 6 0 17
BITMAP
7BC0
7BC0
7BC0
7380
C600
C600
ENDCHAR
STARTCHAR #
ENCODING 35
SWIDTH 75 0
DWIDTH -1 0
BBX 18 22 0 1
BITMAP
1E1E00
1E1E00
1E1E00
1E1E00
FFFFC0
FFFFC0
FFFFC0
FFFFC0
1E1E00
1E1E00
1E1E00
1E1E00
1E1E00
1E1E00
FFFFC0
FFFFC0
FFFFC0
FFFFC0
1E1E00
1E1E00
1E1E00
1E1E00
ENDCHAR
STARTCHAR $
ENCODING 36
SWIDTH 75 0
DWIDTH -1 0
BBX 17 22 0 1
BITMAP
014000
0FF800
3FFE00
7FFF00
7FFF00
FFFF80
FD5F80
F94000
F94000
7FF800
7FFE00
3FFF00
0FFF00
014F80
014F80
FD5F80
FFFF80
7FFF00
7FFF00
3FFE00
0FF800
014000
ENDCHAR
STARTCHAR %
ENCODING 37
SWIDTH 75 0
DWIDTH -1 0
BBX 15 22 0 1
BITMAP
F83E
F83E
F87C
F87C
F8F8
00F8
01F0
01F0
03E0
03E0
07C0
07C0
0F80
0F80
1F00
1F00
3E00
3E3E
7C3E
7C3E
F83E
F83E
ENDCHAR
STARTCHAR &
ENCODING 38
SWIDTH 75 0
DWIDTH -1 0
BBX 18 22 0 1
BITMAP
0FE000
1FF000
3FF800
7CF800
787800
787800
3CF800
1FF000
1FE000
0FC000
1F8380
3FC380
7FE780
FDF700
F8FF00
F07E00
F03E00
F03E00
F87C00
FFFFC0
7FFFC0
3FE7C0
ENDCHAR
STARTCHAR '
ENCODING 39
SWIDTH 75 0
DWIDTH -1 0
BBX 5 6 0 17
BITMAP
78
78
78
70
C0
C0
ENDCHAR
STARTCHAR (
ENCODING 40
SWIDTH 75 0
DWIDTH -1 0
BBX 8 22 0 1
BITMAP
1F
3F
7E
FC
F8
F8
F8
F8
F8
F8
F8
F8
F8
F8
F8
F8
F8
F8
FC
7E
3F
1F
ENDCHAR
STARTCHAR )
ENCODING 41
SWIDTH 75 0
DWIDTH -1 0
BBX 8 22 0 1
BITMAP
F8
FC
7E
3F
1F
1F
1F
1F
1F
1F
1F
1F
1F
1F
1F
1F
1F
1F
3F
7E
FC
F8
ENDCHAR
STARTCHAR *
ENCODING 42
SWIDTH 75 0
DWIDTH -1 0
BBX 12 12 0 12
BITMAP
CF30
EF70
7FE0
3FC0
FFF0
FFF0
FFF0
FFF0
3FC0
7FE0
EF70
CF30
ENDCHAR
STARTCHAR +
ENCODING 43
SWIDTH 75 0
DWIDTH -1 0
BBX 19 20 0 2
BITMAP
01F000
01F000
01F000
01F000
01F000
01F000
01F000
FFFFE0
FFFFE0
FFFFE0
FFFFE0
FFFFE0
01F000
01F000
01F000
01F000
01F000
01F000
01F000
01F000
ENDCHAR
STARTCHAR ,
ENCODING 44
SWIDTH 75 0
DWIDTH -1 0
BBX 7 7 0 1
BITMAP
3E
3E
3E
7E
7E
F0
C0
ENDCHAR
STARTCHAR -
ENCODING 45
SWIDTH 75 0
DWIDTH -1 0
BBX 17 5 0 10
BITMAP
FFFF80
FFFF80
FFFF80
FFFF80
FFFF80
ENDCHAR
STARTCHAR .
ENCODING 46
SWIDTH 75 0
DWIDTH -1 0
BBX 5 5 0 1
BITMAP
F8
F8
F8
F8
F8
ENDCHAR
STARTCHAR /
ENCODING 47
SWIDTH 75 0
DWIDTH -1 0
BBX 15 22 0 1
BITMAP
003E
003E
007C
007C
00F8
00F8
01F0
01F0
03E0
03E0
07C0
07C0
0F80
0F80
1F00
1F00
3E00
3E00
7C00
7C00
F800
F800
ENDCHAR
STARTCHAR 0
ENCODING 48
SWIDTH 75 0
DWIDTH -1 0
BBX 16 22 0 1
BITMAP
07E0
1FF8
3FFC
7FFE
7FFE
FC3F
F81F
F81F
F81F
F81F
F81F
F81F
F81F
F81F
F81F
F81F
FC3F
7FFE
7FFE
3FFC
1FF8
07E0
ENDCHAR
STARTCHAR 1
ENCODING 49
SWIDTH 75 0
DWIDTH -1 0
BBX 8 22 0 1
BITMAP
1F
3F
7F
FF
FF
1F
1F
1F
1F
1F
1F
1F
1F
1F
1F
1F
1F
1F
1F
1F
1F
1F
ENDCHAR
STARTCHAR 2
ENCODING 50
SWIDTH 75 0
DWIDTH -1 0
BBX 16 23 0 1
BITMAP
0FF0
3FFC
7FFE
7FFE
FFFF
FC3F
F81F
001F
001F
001F
003F
007E
00FC
01F8
03F0
07E0
0FC0
1F80
3F00
7FFF
FFFF
FFFF
FFFF
ENDCHAR
STARTCHAR 3
ENCODING 51
SWIDTH 75 0
DWIDTH -1 0
BBX 16 22 0 1
BITMAP
0FF0
3FFC
7FFE
7FFE
FFFF
FC3F
F81F
001F
007E
00FC
00FC
00FC
007E
001F
001F
F81F
FC3F
FFFF
7FFE
7FFE
3FFC
0FF0
ENDCHAR
STARTCHAR 4
ENCODING 52
SWIDTH 75 0
DWIDTH -1 0
BBX 17 22 0 1
BITMAP
007E00
00FE00
01FE00
03FE00
07FE00
0FFE00
1FBE00
3F3E00
7E3E00
FC3E00
F83E00
F83E00
F83E00
F83E00
FFFF80
FFFF80
FFFF80
FFFF80
FFFF80
003E00
003E00
003E00
ENDCHAR
STARTCHAR 5
ENCODING 53
SWIDTH 75 0
DWIDTH -1 0
BBX 15 22 0 1
BITMAP
FFFC
FFFC
FFFC
FFFC
FFFC
F800
F800
F800
FFE0
FFF8
FFFC
FFFC
FFFE
007E
003E
F83E
FC7E
FFFE
7FFC
7FFC
3FF8
0FE0
ENDCHAR
STARTCHAR 6
ENCODING 54
SWIDTH 75 0
DWIDTH -1 0
BBX 15 22 0 1
BITMAP
0FF0
3FF0
7FF0
7FF0
FFF0
FC00
F800
F800
FFE0
FFF8
FFFC
FFFC
FFFE
FC7E
F83E
F83E
FC7E
FFFE
7FFC
7FFC
3FF8
0FE0
ENDCHAR
STARTCHAR 7
ENCODING 55
SWIDTH 75 0
DWIDTH -1 0
BBX 16 22 0 1
BITMAP
FFFF
FFFF
FFFF
FFFF
FFFF
001F
001F
003E
003E
007C
007C
00F8
00F8
01F0
01F0
03E0
03E0
07C0
07C0
07C0
07C0
07C0
ENDCHAR
STARTCHAR 8
ENCODING 56
SWIDTH 75 0
DWIDTH -1 0
BBX 15 22 0 1
BITMAP
0FE0
3FF8
7FFC
FFFE
FFFE
FC7E
F83E
FC7E
7FFC
3FF8
1FF0
3FF8
7FFC
FC7E
F83E
F83E
FC7E
FFFE
FFFE
7FFC
3FF8
0FE0
ENDCHAR
STARTCHAR 9
ENCODING 57
SWIDTH 75 0
DWIDTH -1 0
BBX 15 22 0 1
BITMAP
0FE0
3FF8
7FFC
7FFC
FFFE
FC7E
F83E
F83E
FC7E
FFFE
7FFE
7FFE
3FFE
0FFE
003E
003E
007E
1FFE
1FFC
1FFC
1FF8
1FE0
ENDCHAR
STARTCHAR :
ENCODING 58
SWIDTH 75 0
DWIDTH -1 0
BBX 5 14 0 1
BITMAP
F8
F8
F8
F8
F8
00
00
00
00
F8
F8
F8
F8
F8
ENDCHAR
STARTCHAR ;
ENCODING 59
SWIDTH 75 0
DWIDTH -1 0
BBX 7 14 0 1
BITMAP
3E
3E
3E
3E
3E
00
00
3E
3E
3E
7E
7E
F0
C0
ENDCHAR
STARTCHAR <
ENCODING 60
SWIDTH 75 0
DWIDTH -1 0
BBX 11 22 0 1
BITMAP
00E0
01E0
03E0
07E0
0FC0
1F80
3F00
7E00
FC00
F800
F000
F000
F800
FC00
7E00
3F00
1F80
0FC0
07E0
03E0
01E0
00E0
ENDCHAR
STARTCHAR =
ENCODING 61
SWIDTH 75 0
DWIDTH -1 0
BBX 11 13 0 6
BITMAP
FFE0
FFE0
FFE0
FFE0
FFE0
0000
0000
0000
FFE0
FFE0
FFE0
FFE0
FFE0
ENDCHAR
STARTCHAR >
ENCODING 62
SWIDTH 75 0
DWIDTH -1 0
BBX 11 22 0 1
BITMAP
E000
F000
F800
FC00
7E00
3F00
1F80
0FC0
07E0
03E0
01E0
01E0
03E0
07E0
0FC0
1F80
3F00
7E00
FC00
F800
F000
E000
ENDCHAR
STARTCHAR ?
ENCODING 63
SWIDTH 75 0
DWIDTH -1 0
BBX 16 22 0 1
BITMAP
0FF0
3FFC
7FFE
7FFE
FFFF
FC3F
F81F
001F
003E
007C
00F8
01F0
01F0
01F0
01F0
01F0
0000
01F0
01F0
01F0
01F0
01F0
ENDCHAR
STARTCHAR @
ENCODING 64
SWIDTH 75 0
DWIDTH -1 0
BBX 19 22 0 1
BITMAP
0FFC00
1FFE00
3FFF00
7FFF80
F003C0
E001E0
E0EDE0
E1FDE0
E3FDE0
E73DE0
EE1DE0
EE1DE0
E73DE0
E3FFE0
E1EFC0
E00780
E00000
F003C0
7FFF80
3FFF00
1FFE00
0FFC00
ENDCHAR
STARTCHAR A
ENCODING 65
SWIDTH 75 0
DWIDTH -1 0
BBX 15 22 0 1
BITMAP
07C0
1FF0
3FF8
7FFC
7FFC
FC7E
F83E
F83E
F83E
F83E
FFFE
FFFE
FFFE
FFFE
FFFE
F83E
F83E
F83E
F83E
F83E
F83E
F83E
ENDCHAR
STARTCHAR B
ENCODING 66
SWIDTH 75 0
DWIDTH -1 0
BBX 16 22 0 1
BITMAP
FFF0
FFFC
FFFE
FFFE
FFFF
F83F
F81F
F83F
FFFE
FFFC
FFF8
FFF8
FFFC
F83E
F81F
F81F
F83F
FFFF
FFFE
FFFE
FFFC
FFF0
ENDCHAR
STARTCHAR C
ENCODING 67
SWIDTH 75 0
DWIDTH -1 0
BBX 17 22 0 1
BITMAP
07F800
1FFE00
3FFF00
7FFF80
7FFF80
FC1F80
F80780
F80000
F80000
F80000
F80000
F80000
F80000
F80000
F80000
F80780
FC1F80
7FFF80
7FFF80
3FFF00
1FFE00
07F800
ENDCHAR
STARTCHAR D
ENCODING 68
SWIDTH 75 0
DWIDTH -1 0
BBX 16 22 0 1
BITMAP
FFE0
FFF8
FFFC
FFFE
FFFE
F83F
F81F
F81F
F81F
F81F
F81F
F81F
F81F
F81F
F81F
F81F
F83F
FFFE
FFFE
FFFC
FFF8
FFE0
ENDCHAR
STARTCHAR E
ENCODING 69
SWIDTH 75 0
DWIDTH -1 0
BBX 15 22 0 1
BITMAP
FFFE
FFFE
FFFE
FFFE
FFFE
F800
F800
F800
FFF8
FFF8
FFF8
FFF8
FFF8
F800
F800
F800
F800
FFFE
FFFE
FFFE
FFFE
FFFE
ENDCHAR
STARTCHAR F
ENCODING 70
SWIDTH 75 0
DWIDTH -1 0
BBX 15 22 0 1
BITMAP
FFFE
FFFE
FFFE
FFFE
FFFE
F800
F800
F800
FFF8
FFF8
FFF8
FFF8
FFF8
F800
F800
F800
F800
F800
F800
F800
F800
F800
ENDCHAR
STARTCHAR G
ENCODING 71
SWIDTH 75 0
DWIDTH -1 0
BBX 18 22 0 1
BITMAP
07F800
1FFE00
3FFF00
7FFF80
7FFF80
FC0FC0
F807C0
F80000
F80000
F83FC0
F83FC0
F83FC0
F83FC0
F807C0
F807C0
F807C0
FC0FC0
7FFF80
7FFF80
3FFF00
1FFE00
07F800
ENDCHAR
STARTCHAR H
ENCODING 72
SWIDTH 75 0
DWIDTH -1 0
BBX 17 22 0 1
BITMAP
F80F80
F80F80
F80F80
F80F80
F80F80
F80F80
F80F80
F80F80
FFFF80
FFFF80
FFFF80
FFFF80
FFFF80
F80F80
F80F80
F80F80
F80F80
F80F80
F80F80
F80F80
F80F80
F80F80
ENDCHAR
STARTCHAR I
ENCODING 73
SWIDTH 75 0
DWIDTH -1 0
BBX 5 22 0 1
BITMAP
F8
F8
F8
F8
F8
F8
F8
F8
F8
F8
F8
F8
F8
F8
F8
F8
F8
F8
F8
F8
F8
F8
ENDCHAR
STARTCHAR J
ENCODING 74
SWIDTH 75 0
DWIDTH -1 0
BBX 15 22 0 1
BITMAP
003E
003E
003E
003E
003E
003E
003E
003E
003E
003E
003E
003E
003E
003E
F83E
F83E
FC7E
FFFE
7FFC
7FFC
3FF8
0FE0
ENDCHAR
STARTCHAR K
ENCODING 75
SWIDTH 75 0
DWIDTH -1 0
BBX 16 22 0 1
BITMAP
F807
F80F
F81F
F83F
F87E
F8FC
F9F8
FBF0
FFE0
FFC0
FF80
FF80
FFC0
FFE0
FBF0
F9F8
F8FC
F87E
F83F
F81F
F80F
F807
ENDCHAR
STARTCHAR L
ENCODING 76
SWIDTH 75 0
DWIDTH -1 0
BBX 16 22 0 1
BITMAP
F800
F800
F800
F800
F800
F800
F800
F800
F800
F800
F800
F800
F800
F800
F800
F800
F800
FFFF
FFFF
FFFF
FFFF
FFFF
ENDCHAR
STARTCHAR M
ENCODING 77
SWIDTH 75 0
DWIDTH -1 0
BBX 18 22 0 1
BITMAP
E001C0
F003C0
F807C0
FC0FC0
FE1FC0
FF3FC0
FFFFC0
FFFFC0
FBF7C0
F9E7C0
F8C7C0
F807C0
F807C0
F807C0
F807C0
F807C0
F807C0
F807C0
F807C0
F807C0
F807C0
F807C0
ENDCHAR
STARTCHAR N
ENCODING 78
SWIDTH 75 0
DWIDTH -1 0
BBX 18 22 0 1
BITMAP
E007C0
F007C0
F807C0
FC07C0
FE07C0
FF07C0
FF87C0
FFC7C0
FBE7C0
F9F7C0
F8FFC0
F87FC0
F83FC0
F81FC0
F80FC0
F807C0
F807C0
F807C0
F807C0
F807C0
F807C0
F807C0
ENDCHAR
STARTCHAR O
ENCODING 79
SWIDTH 75 0
DWIDTH -1 0
BBX 18 22 0 1
BITMAP
07F800
1FFE00
3FFF00
7FFF80
7FFF80
FC0FC0
F807C0
F807C0
F807C0
F807C0
F807C0
F807C0
F807C0
F807C0
F807C0
F807C0
FC0FC0
7FFF80
7FFF80
3FFF00
1FFE00
07F800
ENDCHAR
STARTCHAR P
ENCODING 80
SWIDTH 75 0
DWIDTH -1 0
BBX 16 22 0 1
BITMAP
FFF0
FFFC
FFFE
FFFE
FFFF
F83F
F81F
F81F
F81F
F83F
FFFF
FFFE
FFFE
FFFC
FFF0
F800
F800
F800
F800
F800
F800
F800
ENDCHAR
STARTCHAR Q
ENCODING 81
SWIDTH 75 0
DWIDTH -1 0
BBX 18 22 0 1
BITMAP
0FFC00
3FFF00
7FFF80
7FFF80
FFFFC0
FC0FC0
F807C0
F807C0
F807C0
F807C0
F807C0
F807C0
F807C0
F877C0
F87BC0
F87DC0
FC3E80
FFDF00
7FEF80
7FF7C0
3FFBC0
0FF1C0
ENDCHAR
STARTCHAR R
ENCODING 82
SWIDTH 75 0
DWIDTH -1 0
BBX 17 22 0 1
BITMAP
FFF000
FFFC00
FFFE00
FFFE00
FFFF00
F83F00
F81F00
F83F00
FFFF00
FFFE00
FFFE00
FFFC00
FFF800
F87C00
F87C00
F83E00
F83E00
F81F00
F81F00
F80F80
F80F80
F80F80
ENDCHAR
STARTCHAR S
ENCODING 83
SWIDTH 75 0
DWIDTH -1 0
BBX 18 22 0 1
BITMAP
0FFC00
3FFF00
7FFF80
7FFF80
FFFFC0
FC0FC0
F80000
F80000
FFFC00
7FFF00
7FFF80
3FFF80
0FFFC0
0007C0
0007C0
0007C0
FC0FC0
FFFFC0
7FFF80
7FFF80
3FFF00
0FFC00
ENDCHAR
STARTCHAR T
ENCODING 84
SWIDTH 75 0
DWIDTH -1 0
BBX 15 22 0 1
BITMAP
FFFE
FFFE
FFFE
FFFE
FFFE
07C0
07C0
07C0
07C0
07C0
07C0
07C0
07C0
07C0
07C0
07C0
07C0
07C0
07C0
07C0
07C0
07C0
ENDCHAR
STARTCHAR U
ENCODING 85
SWIDTH 75 0
DWIDTH -1 0
BBX 17 22 0 1
BITMAP
F80F80
F80F80
F80F80
F80F80
F80F80
F80F80
F80F80
F80F80
F80F80
F80F80
F80F80
F80F80
F80F80
F80F80
F80F80
F80F80
FC1F80
7FFF00
7FFF00
3FFE00
1FFC00
07F000
ENDCHAR
STARTCHAR V
ENCODING 86
SWIDTH 75 0
DWIDTH -1 0
BBX 17 22 0 1
BITMAP
F00780
F00780
F00780
F00780
F80F80
F80F80
7C1F00
7C1F00
3E3E00
3E3E00
1F7C00
1F7C00
0FF800
0FF800
07F000
07F000
03E000
03E000
01C000
01C000
008000
008000
ENDCHAR
STARTCHAR W
ENCODING 87
SWIDTH 75 0
DWIDTH -1 0
BBX 18 22 0 1
BITMAP
F807C0
F807C0
F807C0
F807C0
F807C0
F807C0
F807C0
F807C0
F807C0
F807C0
F807C0
F8C7C0
F9E7C0
FBF7C0
FFFFC0
FFFFC0
FF3FC0
FE1FC0
FC0FC0
F807C0
F003C0
E001C0
ENDCHAR
STARTCHAR X
ENCODING 88
SWIDTH 75 0
DWIDTH -1 0
BBX 18 22 0 1
BITMAP
C000C0
E001C0
F003C0
F807C0
FC0FC0
7E1F80
3F3F00
1FFE00
0FFC00
07F800
03F000
03F000
07F800
0FFC00
1FFE00
3F3F00
7E1F80
FC0FC0
F807C0
F003C0
E001C0
C000C0
ENDCHAR
STARTCHAR Y
ENCODING 89
SWIDTH 75 0
DWIDTH -1 0
BBX 17 22 0 1
BITMAP
F80F80
F80F80
F80F80
F80F80
F80F80
F80F80
F80F80
F80F80
FC1F80
7E3F00
3F7E00
1FFC00
0FF800
07F000
03E000
03E000
03E000
03E000
03E000
03E000
03E000
03E000
ENDCHAR
STARTCHAR Z
ENCODING 90
SWIDTH 75 0
DWIDTH -1 0
BBX 18 22 0 1
BITMAP
FFFFC0
FFFFC0
FFFFC0
FFFFC0
FFFFC0
000F80
001F00
003E00
007C00
00F800
01F000
03E000
07C000
0F8000
1F0000
3E0000
7C0000
FFFFC0
FFFFC0
FFFFC0
FFFFC0
FFFFC0
ENDCHAR
STARTCHAR [
ENCODING 91
SWIDTH 75 0
DWIDTH -1 0
BBX 8 22 0 1
BITMAP
FF
FF
FF
FF
FF
F8
F8
F8
F8
F8
F8
F8
F8
F8
F8
F8
F8
FF
FF
FF
FF
FF
ENDCHAR
STARTCHAR \
ENCODING 92
SWIDTH 75 0
DWIDTH -1 0
BBX 15 22 0 1
BITMAP
F800
F800
7C00
7C00
3E00
3E00
1F00
1F00
0F80
0F80
07C0
07C0
03E0
03E0
01F0
01F0
00F8
00F8
007C
007C
003E
003E
ENDCHAR
STARTCHAR ]
ENCODING 93
SWIDTH 75 0
DWIDTH -1 0
BBX 8 22 0 1
BITMAP
FF
FF
FF
FF
FF
1F
1F
1F
1F
1F
1F
1F
1F
1F
1F
1F
1F
FF
FF
FF
FF
FF
ENDCHAR
STARTCHAR ^
ENCODING 94
SWIDTH 75 0
DWIDTH -1 0
BBX 18 8 0 15
BITMAP
01E000
03F000
07F800
0FFC00
1F3E00
3E1F00
7C0F80
F807C0
ENDCHAR
STARTCHAR _
ENCODING 95
SWIDTH 75 0
DWIDTH -1 0
BBX 16 5 0 1
BITMAP
FFFF
FFFF
FFFF
FFFF
FFFF
ENDCHAR
STARTCHAR `
ENCODING 96
SWIDTH 75 0
DWIDTH -1 0
BBX 5 6 0 17
BITMAP
F0
F0
F0
70
18
18
ENDCHAR
STARTCHAR a
ENCODING 97
SWIDTH 75 0
DWIDTH -1 0
BBX 16 16 0 1
BITMAP
1FF0
3FFC
3FFE
3FFE
3FFF
001F
0FDF
3FFF
7FFF
F81F
F81F
F81F
FFFF
7FFF
3FFF
0FEF
ENDCHAR
STARTCHAR b
ENCODING 98
SWIDTH 75 0
DWIDTH -1 0
BBX 16 22 0 1
BITMAP
F800
F800
F800
F800
F800
F800
FBF0
FFFC
FFFE
FFFE
FFFF
FE3F
FC1F
FC1F
FC1F
FC1F
FE3F
FFFF
FFFE
FFFE
FFFC
FBF0
ENDCHAR
STARTCHAR c
ENCODING 99
SWIDTH 75 0
DWIDTH -1 0
BBX 16 16 0 1
BITMAP
0FF0
3FFC
7FFE
7FFE
FFFF
FC0F
F800
F800
F800
F800
FC0F
FFFF
7FFE
7FFE
3FFC
0FF0
ENDCHAR
STARTCHAR d
ENCODING 100
SWIDTH 75 0
DWIDTH -1 0
BBX 16 22 0 1
BITMAP
001F
001F
001F
001F
001F
001F
0FDF
3FFF
7FFF
7FFF
FFFF
FC7F
F83F
F83F
F83F
F83F
FC7F
FFFF
7FFF
7FFF
3FFF
0FDF
ENDCHAR
STARTCHAR e
ENCODING 101
SWIDTH 75 0
DWIDTH -1 0
BBX 16 16 0 1
BITMAP
0FF0
3FFC
7FFE
7FFE
FC3F
F81F
F81F
FFFE
FFFC
FFFC
F800
FC1F
7FFE
7FFE
3FFC
0FF0
ENDCHAR
STARTCHAR f
ENCODING 102
SWIDTH 75 0
DWIDTH -1 0
BBX 16 22 0 1
BITMAP
07F0
1FFC
3FFE
3FFE
7FFF
7E3F
7C1F
7C00
7C00
7C00
FFC0
FFC0
FFC0
FFC0
FFC0
7C00
7C00
7C00
7C00
7C00
7C00
7C00
ENDCHAR
STARTCHAR g
ENCODING 103
SWIDTH 75 0
DWIDTH -1 0
BBX 16 17 0 0
BITMAP
0FEF
3FFF
7FFF
FFFF
FC1F
F81F
FC1F
FFFF
7FFF
3FFF
0FDF
001F
003E
7FFE
7FFE
3FFC
1FF0
ENDCHAR
STARTCHAR h
ENCODING 104
SWIDTH 75 0
DWIDTH -1 0
BBX 15 22 0 1
BITMAP
F800
F800
F800
F800
F800
F800
FBE0
FFF8
FFFC
FFFC
FFFE
FC7E
F83E
F83E
F83E
F83E
F83E
F83E
F83E
F83E
F83E
F83E
ENDCHAR
STARTCHAR i
ENCODING 105
SWIDTH 75 0
DWIDTH -1 0
BBX 5 22 0 1
BITMAP
F8
F8
F8
F8
F8
00
F8
F8
F8
F8
F8
F8
F8
F8
F8
F8
F8
F8
F8
F8
F8
F8
ENDCHAR
STARTCHAR j
ENCODING 106
SWIDTH 75 0
DWIDTH -1 0
BBX 15 22 0 1
BITMAP
003E
003E
003E
003E
003E
0000
003E
003E
003E
003E
003E
003E
003E
003E
F83E
F83E
FC7E
FFFE
7FFC
7FFC
3FF8
0FE0
ENDCHAR
STARTCHAR k
ENCODING 107
SWIDTH 75 0
DWIDTH -1 0
BBX 15 22 0 1
BITMAP
F800
F800
F800
F800
F800
F800
F83E
F87C
F8F8
F9F0
FBE0
FFC0
FF80
FF00
FF00
FF80
FFC0
FBE0
F9F0
F8F8
F87C
F83E
ENDCHAR
STARTCHAR l
ENCODING 108
SWIDTH 75 0
DWIDTH -1 0
BBX 5 22 0 1
BITMAP
F8
F8
F8
F8
F8
F8
F8
F8
F8
F8
F8
F8
F8
F8
F8
F8
F8
F8
F8
F8
F8
F8
ENDCHAR
STARTCHAR m
ENCODING 109
SWIDTH 75 0
DWIDTH -1 0
BBX 16 16 0 1
BITMAP
D81C
FC3E
FE7F
FFFF
FFFF
FBDF
FBDF
FBDF
FBDF
FBDF
FBDF
FBDF
FBDF
FBDF
FBDF
FBDF
ENDCHAR
STARTCHAR n
ENCODING 110
SWIDTH 75 0
DWIDTH -1 0
BBX 16 16 0 1
BITMAP
F7F0
FFFC
FFFE
FFFE
FC3F
F81F
F81F
F81F
F81F
F81F
F81F
F81F
F81F
F81F
F81F
F81F
ENDCHAR
STARTCHAR o
ENCODING 111
SWIDTH 75 0
DWIDTH -1 0
BBX 16 16 0 1
BITMAP
0FF0
3FFC
7FFE
7FFE
F81F
F00F
F00F
F00F
F00F
F00F
F00F
F81F
7FFE
7FFE
3FFC
0FF0
ENDCHAR
STARTCHAR p
ENCODING 112
SWIDTH 75 0
DWIDTH -1 0
BBX 16 17 0 0
BITMAP
F7F0
FFFC
FFFE
FFFE
FC3F
F81F
F81F
FC3F
FFFE
FFFE
FFFC
FBF0
F800
F800
F800
F800
F800
ENDCHAR
STARTCHAR q
ENCODING 113
SWIDTH 75 0
DWIDTH -1 0
BBX 16 17 0 0
BITMAP
0FEF
3FFF
7FFF
7FFF
FC3F
F81F
F81F
FC3F
7FFF
7FFF
3FFF
0FDF
001F
001F
001F
001F
001F
ENDCHAR
STARTCHAR r
ENCODING 114
SWIDTH 75 0
DWIDTH -1 0
BBX 16 16 0 1
BITMAP
F7F0
FFFC
FFFE
FFFE
FC1F
F800
F800
F800
F800
F800
F800
F800
F800
F800
F800
F800
ENDCHAR
STARTCHAR s
ENCODING 115
SWIDTH 75 0
DWIDTH -1 0
BBX 16 16 0 1
BITMAP
0FF0
3FFC
7FFE
FFFF
FC0F
FC00
FFF0
7FFC
3FFE
0FFF
003F
F03F
FFFF
7FFE
3FFC
0FF0
ENDCHAR
STARTCHAR t
ENCODING 116
SWIDTH 75 0
DWIDTH -1 0
BBX 16 22 0 1
BITMAP
7C00
7C00
7C00
7C00
7C00
7C00
7C00
FFC0
FFC0
FFC0
FFC0
FFC0
7C00
7C00
7C00
7C1F
7E3F
7FFF
3FFE
3FFE
1FFC
07F0
ENDCHAR
STARTCHAR u
ENCODING 117
SWIDTH 75 0
DWIDTH -1 0
BBX 16 16 0 1
BITMAP
F81F
F81F
F81F
F81F
F81F
F81F
F81F
F81F
F81F
F81F
F81F
FC3F
7FFF
7FFF
3FFF
0FEF
ENDCHAR
STARTCHAR v
ENCODING 118
SWIDTH 75 0
DWIDTH -1 0
BBX 17 16 0 1
BITMAP
F80F80
F80F80
F80F80
F80F80
F80F80
F80F80
F80F80
F80F80
7C1F00
3E3E00
1F7C00
0FF800
07F000
03E000
01C000
008000
ENDCHAR
STARTCHAR w
ENCODING 119
SWIDTH 75 0
DWIDTH -1 0
BBX 17 16 0 1
BITMAP
F80F80
F80F80
F80F80
F80F80
F80F80
F80F80
F88F80
F9CF80
FBEF80
FFFF80
FFFF80
FF7F80
FE3F80
FC1F80
F80F80
F00780
ENDCHAR
STARTCHAR x
ENCODING 120
SWIDTH 75 0
DWIDTH -1 0
BBX 16 16 0 1
BITMAP
F00F
F81F
FC3F
FE7F
7FFE
3FFC
1FF8
0FF0
0FF0
1FF8
3FFC
7FFE
FE7F
FC3F
F81F
F00F
ENDCHAR
STARTCHAR y
ENCODING 121
SWIDTH 75 0
DWIDTH -1 0
BBX 16 17 0 0
BITMAP
F81F
F81F
F81F
F81F
F81F
F81F
FC3F
FFFF
7FFF
3FFF
0FDF
001F
003E
7FFE
7FFE
3FFC
1FF0
ENDCHAR
STARTCHAR z
ENCODING 122
SWIDTH 75 0
DWIDTH -1 0
BBX 15 16 0 1
BITMAP
FFFE
FFFE
FFFE
FFFC
00F8
01F0
03E0
07C0
0F80
1F00
3E00
7C00
FFFE
FFFE
FFFE
FFFE
ENDCHAR
STARTCHAR {
ENCODING 123
SWIDTH 75 0
DWIDTH -1 0
BBX 10 22 0 1
BITMAP
07C0
0F80
1F00
1F00
1F00
1F00
1F00
3F00
7E00
7C00
F800
F800
7C00
7E00
3F00
1F00
1F00
1F00
1F00
1F00
0F80
07C0
ENDCHAR
STARTCHAR |
ENCODING 124
SWIDTH 75 0
DWIDTH -1 0
BBX 5 22 0 1
BITMAP
F8
F8
F8
F8
F8
F8
F8
F8
F8
F8
F8
F8
F8
F8
F8
F8
F8
F8
F8
F8
F8
F8
ENDCHAR
STARTCHAR }
ENCODING 125
SWIDTH 75 0
DWIDTH -1 0
BBX 10 22 0 1
BITMAP
F800
7C00
3E00
3E00
3E00
3E00
3E00
3F00
1F80
0F80
07C0
07C0
0F80
1F80
3F00
3E00
3E00
3E00
3E00
3E00
7C00
F800
ENDCHAR
STARTCHAR ~
ENCODING 126
SWIDTH 75 0
DWIDTH -1 0
BBX 15 4 0 13
BITMAP
1F0E
3F9C
73F8
E0F0
ENDCHAR
STARTCHAR ¤
ENCODING -92
SWIDTH 75 0
DWIDTH -1 0
BBX 15 22 0 1
BITMAP
07F8
1FFC
3FFE
3FFE
7E1E
7C00
7C00
7C00
FFF8
FFF8
7C00
7C00
7C00
FFF8
FFF8
7C00
7C00
7E1E
3FFE
3FFE
1FFC
07F8
ENDCHAR
STARTCHAR ¦
ENCODING -90
SWIDTH 75 0
DWIDTH -1 0
BBX 15 23 0 1
BITMAP
1C70
0EE0
07C0
0000
1FF8
3FFC
7FFE
FFFE
FC3E
FC00
FC00
FFE0
7FF8
3FFC
0FFE
007E
003E
003E
F87E
FFFE
FFFC
7FF8
3FF0
ENDCHAR
STARTCHAR ¼
ENCODING -68
SWIDTH 75 0
DWIDTH -1 0
BBX 19 22 0 1
BITMAP
07BFE0
1FFFE0
3FFFE0
7FFFE0
7FFFE0
FC7C00
F87C00
F87C00
F87F80
F87F80
F87F80
F87F80
F87F80
F87C00
F87C00
F87C00
FC7C00
7FFFE0
7FFFE0
3FFFE0
1FFFE0
07BFE0
ENDCHAR
STARTCHAR ´
ENCODING -76
SWIDTH 75 0
DWIDTH -1 0
BBX 18 22 0 1
BITMAP
0E3800
077000
03E000
000000
FFFFC0
FFFFC0
FFFFC0
FFFF80
FFFF00
003E00
007C00
00F800
01F000
03E000
07C000
0F8000
1F0000
3FFFC0
7FFFC0
FFFFC0
FFFFC0
FFFFC0
ENDCHAR
STARTCHAR ¨
ENCODING -88
SWIDTH 75 0
DWIDTH -1 0
BBX 16 20 0 1
BITMAP
1C70
0EE0
07C0
0000
0FF0
3FFC
7FFE
FFFF
FC0F
FC00
FFF0
7FFC
3FFE
0FFF
003F
F03F
FFFF
7FFE
3FFC
0FF0
ENDCHAR
STARTCHAR ½
ENCODING -67
SWIDTH 75 0
DWIDTH -1 0
BBX 19 16 0 1
BITMAP
0FBE00
3FFF80
7FFFC0
7FFFC0
FFFFE0
FCF3E0
F8F3E0
F8FFC0
F8FF80
F8FF00
FCF000
FFFFE0
7FFFC0
7FFFC0
3FFF80
0FBE00
ENDCHAR
STARTCHAR ¸
ENCODING -72
SWIDTH 75 0
DWIDTH -1 0
BBX 15 20 0 1
BITMAP
1C70
0EE0
07C0
0000
FFFE
FFFE
FFFE
FFFC
00F8
01F0
03E0
07C0
0F80
1F00
3E00
7C00
FFFE
FFFE
FFFE
FFFE
ENDCHAR
STARTCHAR ¾
ENCODING -66
SWIDTH 75 0
DWIDTH -1 0
BBX 15 23 0 1
BITMAP
3C78
3C78
3C78
3C78
F83E
F83E
F83E
F83E
F83E
F83E
F83E
FC7E
7EFC
3FF8
1FF0
0FE0
07C0
07C0
07C0
07C0
07C0
07C0
07C0
ENDCHAR
STARTCHAR ¡
ENCODING -95
SWIDTH 75 0
DWIDTH -1 0
BBX 5 22 0 1
BITMAP
F8
F8
F8
F8
F8
00
F8
F8
F8
F8
F8
F8
F8
F8
F8
F8
F8
F8
F8
F8
F8
F8
ENDCHAR
STARTCHAR ¢
ENCODING -94
SWIDTH 75 0
DWIDTH -1 0
BBX 16 22 0 1
BITMAP
0020
0020
0FF0
3FFC
7FFE
7FFE
FFFF
FC4F
F840
F840
F840
F880
F880
F880
FC8F
FFFF
7FFE
7FFE
3FFC
0FF0
0100
0100
ENDCHAR
STARTCHAR £
ENCODING -93
SWIDTH 75 0
DWIDTH -1 0
BBX 13 22 0 1
BITMAP
3FE0
7FF0
FFF8
FFF8
F078
F078
F000
F000
7000
7FE0
7FE0
7FE0
7FE0
7800
7800
7800
7800
7800
FFF8
FFF8
FFF8
FFF8
ENDCHAR
STARTCHAR ¥
ENCODING -91
SWIDTH 75 0
DWIDTH -1 0
BBX 15 22 0 1
BITMAP
F83E
F83E
F83E
F83E
F83E
F83E
F83E
F83E
7C7C
3EF8
1FF0
7FFC
7FFC
07C0
07C0
7FFC
7FFC
07C0
07C0
07C0
07C0
07C0
ENDCHAR
STARTCHAR §
ENCODING -89
SWIDTH 75 0
DWIDTH -1 0
BBX 15 22 0 1
BITMAP
1FF8
3FFC
7FFE
FFFE
FC3E
F800
FC00
7FF0
7FF8
FFFC
F83E
F83E
7FFE
3FFC
1FFC
007E
003E
F87E
FFFE
FFFC
7FF8
3FF0
ENDCHAR
STARTCHAR ©
ENCODING -87
SWIDTH 75 0
DWIDTH -1 0
BBX 16 16 0 7
BITMAP
3FFC
7FFE
E007
C7E3
CFF3
DFFB
DC3B
DC03
DC03
DC3B
DFFB
CFF3
C7E3
E007
7FFE
3FFC
ENDCHAR
STARTCHAR ª
ENCODING -86
SWIDTH 75 0
DWIDTH -1 0
BBX 5 6 0 17
BITMAP
70
88
08
78
88
78
ENDCHAR
STARTCHAR «
ENCODING -85
SWIDTH 75 0
DWIDTH -1 0
BBX 19 15 0 4
BITMAP
03C1E0
07C3E0
0FC7E0
1F8FC0
3F1F80
7E3F00
FC7E00
F87C00
FC7E00
7E3F00
3F1F80
1F8FC0
0FC7E0
07C3E0
03C1E0
ENDCHAR
STARTCHAR ¬
ENCODING -84
SWIDTH 75 0
DWIDTH -1 0
BBX 15 11 0 8
BITMAP
FFFE
FFFE
FFFE
FFFE
FFFE
003E
003E
003E
003E
003E
003E
ENDCHAR
STARTCHAR ®
ENCODING -82
SWIDTH 75 0
DWIDTH -1 0
BBX 16 16 0 7
BITMAP
3FFC
7FFE
E007
C7C3
C7E3
C673
C673
C7F3
C7E3
C6C3
C663
C633
C633
E007
7FFE
3FFC
ENDCHAR
STARTCHAR ¯
ENCODING -81
SWIDTH 75 0
DWIDTH -1 0
BBX 16 5 0 18
BITMAP
FFFF
FFFF
FFFF
FFFF
FFFF
ENDCHAR
STARTCHAR °
ENCODING -80
SWIDTH 75 0
DWIDTH -1 0
BBX 6 7 0 16
BITMAP
78
FC
CC
CC
CC
FC
78
ENDCHAR
STARTCHAR ±
ENCODING -79
SWIDTH 75 0
DWIDTH -1 0
BBX 13 19 0 3
BITMAP
0F80
0F80
0F80
0F80
FFF8
FFF8
FFF8
FFF8
FFF8
0F80
0F80
0F80
0F80
0000
FFF8
FFF8
FFF8
FFF8
FFF8
ENDCHAR
STARTCHAR ²
ENCODING -78
SWIDTH 75 0
DWIDTH -1 0
BBX 6 9 0 14
BITMAP
30
78
CC
0C
18
30
60
FC
FC
ENDCHAR
STARTCHAR ³
ENCODING -77
SWIDTH 75 0
DWIDTH -1 0
BBX 6 9 0 14
BITMAP
70
F8
8C
0C
38
0C
8C
F8
70
ENDCHAR
STARTCHAR µ
ENCODING -75
SWIDTH 75 0
DWIDTH -1 0
BBX 16 22 0 1
BITMAP
F81F
F81F
F81F
F81F
F81F
F81F
F81F
FC3F
FFFF
FFFF
FFFF
FFFF
FBDF
F81F
F81F
F800
F800
F800
F800
F800
F800
F800
ENDCHAR
STARTCHAR ·
ENCODING -73
SWIDTH 75 0
DWIDTH -1 0
BBX 5 5 0 8
BITMAP
F8
F8
F8
F8
F8
ENDCHAR
STARTCHAR ¹
ENCODING -71
SWIDTH 75 0
DWIDTH -1 0
BBX 6 9 0 14
BITMAP
30
70
F0
30
30
30
30
FC
FC
ENDCHAR
STARTCHAR º
ENCODING -70
SWIDTH 75 0
DWIDTH -1 0
BBX 6 9 0 14
BITMAP
78
FC
CC
CC
CC
CC
CC
FC
78
ENDCHAR
STARTCHAR »
ENCODING -69
SWIDTH 75 0
DWIDTH -1 0
BBX 19 15 0 5
BITMAP
F07800
F87C00
FC7E00
7E3F00
3F1F80
1F8FC0
0FC7E0
07C3E0
0FC7E0
1F8FC0
3F1F80
7E3F00
FC7E00
F87C00
F07800
ENDCHAR
STARTCHAR ¿
ENCODING -65
SWIDTH 75 0
DWIDTH -1 0
BBX 16 22 0 1
BITMAP
0F80
0F80
0F80
0F80
0F80
0000
0F80
0F80
0F80
0F80
0F80
1F00
3E00
7C00
F800
F81F
FC3F
FFFF
7FFE
7FFE
3FFC
0FF0
ENDCHAR
STARTCHAR À
ENCODING -64
SWIDTH 75 0
DWIDTH -1 0
BBX 15 23 0 1
BITMAP
0700
0380
01C0
0000
07C0
1FF0
3FF8
7FFC
7FFC
FC7E
F83E
F83E
F83E
F83E
FFFE
FFFE
FFFE
FFFE
FFFE
F83E
F83E
F83E
F83E
ENDCHAR
STARTCHAR Á
ENCODING -63
SWIDTH 75 0
DWIDTH -1 0
BBX 15 23 0 1
BITMAP
00E0
01C0
0380
0000
07C0
1FF0
3FF8
7FFC
7FFC
FC7E
F83E
F83E
F83E
F83E
FFFE
FFFE
FFFE
FFFE
FFFE
F83E
F83E
F83E
F83E
ENDCHAR
STARTCHAR Â
ENCODING -62
SWIDTH 75 0
DWIDTH -1 0
BBX 15 23 0 1
BITMAP
07C0
0EE0
1C70
0000
07C0
1FF0
3FF8
7FFC
7FFC
FC7E
F83E
F83E
F83E
F83E
FFFE
FFFE
FFFE
FFFE
FFFE
F83E
F83E
F83E
F83E
ENDCHAR
STARTCHAR Ã
ENCODING -61
SWIDTH 75 0
DWIDTH -1 0
BBX 15 23 0 1
BITMAP
1F1C
3BB8
71F0
0000
07C0
1FF0
3FF8
7FFC
7FFC
FC7E
F83E
F83E
F83E
F83E
FFFE
FFFE
FFFE
FFFE
FFFE
F83E
F83E
F83E
F83E
ENDCHAR
STARTCHAR Ä
ENCODING -60
SWIDTH 75 0
DWIDTH -1 0
BBX 15 23 0 1
BITMAP
3C78
3C78
3C78
3C78
07C0
1FF0
3FF8
7FFC
7FFC
FC7E
F83E
F83E
F83E
F83E
FFFE
FFFE
FFFE
FFFE
FFFE
F83E
F83E
F83E
F83E
ENDCHAR
STARTCHAR Å
ENCODING -59
SWIDTH 75 0
DWIDTH -1 0
BBX 15 23 0 1
BITMAP
0300
0480
0300
0000
07C0
1FF0
3FF8
7FFC
7FFC
FC7E
F83E
F83E
F83E
F83E
FFFE
FFFE
FFFE
FFFE
FFFE
F83E
F83E
F83E
F83E
ENDCHAR
STARTCHAR Æ
ENCODING -58
SWIDTH 75 0
DWIDTH -1 0
BBX 18 22 0 1
BITMAP
07FFC0
1FFFC0
3FFFC0
7FFFC0
7FFFC0
FDF000
F9F000
F9F000
F9FF00
FFFF00
FFFF00
FFFF00
FFFF00
F9F000
F9F000
F9F000
F9F000
F9FFC0
F9FFC0
F9FFC0
F9FFC0
F9FFC0
ENDCHAR
STARTCHAR Ç
ENCODING -57
SWIDTH 75 0
DWIDTH -1 0
BBX 17 22 0 1
BITMAP
0FF800
3FFE00
7FFF00
7FFF00
FFFF80
FC0F80
F80000
F80000
F80000
F80000
F80000
F80000
FC0F80
FFFF80
7FFF00
7FFF00
3FFE00
0FF800
010000
07C000
004000
0F8000
ENDCHAR
STARTCHAR È
ENCODING -56
SWIDTH 75 0
DWIDTH -1 0
BBX 15 23 0 1
BITMAP
0700
0380
01C0
0000
FFFE
FFFE
FFFE
FFFE
FFFE
F800
F800
FFF8
FFF8
FFF8
FFF8
FFF8
F800
F800
FFFE
FFFE
FFFE
FFFE
FFFE
ENDCHAR
STARTCHAR É
ENCODING -55
SWIDTH 75 0
DWIDTH -1 0
BBX 15 23 0 1
BITMAP
00E0
01C0
0380
0000
FFFE
FFFE
FFFE
FFFE
FFFE
F800
F800
FFF8
FFF8
FFF8
FFF8
FFF8
F800
F800
FFFE
FFFE
FFFE
FFFE
FFFE
ENDCHAR
STARTCHAR Ê
ENCODING -54
SWIDTH 75 0
DWIDTH -1 0
BBX 15 23 0 1
BITMAP
07C0
0EE0
1C70
0000
FFFE
FFFE
FFFE
FFFE
FFFE
F800
F800
FFF8
FFF8
FFF8
FFF8
FFF8
F800
F800
FFFE
FFFE
FFFE
FFFE
FFFE
ENDCHAR
STARTCHAR Ë
ENCODING -53
SWIDTH 75 0
DWIDTH -1 0
BBX 15 23 0 1
BITMAP
3C78
3C78
3C78
3C78
FFFE
FFFE
FFFE
FFFE
FFFE
F800
F800
FFF8
FFF8
FFF8
FFF8
FFF8
F800
F800
FFFE
FFFE
FFFE
FFFE
FFFE
ENDCHAR
STARTCHAR Ì
ENCODING -52
SWIDTH 75 0
DWIDTH -1 0
BBX 5 23 0 1
BITMAP
E0
70
38
00
F8
F8
F8
F8
F8
F8
F8
F8
F8
F8
F8
F8
F8
F8
F8
F8
F8
F8
F8
ENDCHAR
STARTCHAR Í
ENCODING -51
SWIDTH 75 0
DWIDTH -1 0
BBX 7 23 0 1
BITMAP
0E
1C
38
00
F8
F8
F8
F8
F8
F8
F8
F8
F8
F8
F8
F8
F8
F8
F8
F8
F8
F8
F8
ENDCHAR
STARTCHAR Î
ENCODING -50
SWIDTH 75 0
DWIDTH -1 0
BBX 9 23 0 1
BITMAP
3E00
7700
E380
0000
7C00
7C00
7C00
7C00
7C00
7C00
7C00
7C00
7C00
7C00
7C00
7C00
7C00
7C00
7C00
7C00
7C00
7C00
7C00
ENDCHAR
STARTCHAR Ï
ENCODING -49
SWIDTH 75 0
DWIDTH -1 0
BBX 9 23 0 1
BITMAP
F780
F780
F780
F780
3E00
3E00
3E00
3E00
3E00
3E00
3E00
3E00
3E00
3E00
3E00
3E00
3E00
3E00
3E00
3E00
3E00
3E00
3E00
ENDCHAR
STARTCHAR Ð
ENCODING -48
SWIDTH 75 0
DWIDTH -1 0
BBX 18 22 0 1
BITMAP
7FF800
7FFE00
7FFF00
7FFF80
7FFF80
7C0FC0
7C07C0
7C07C0
7C07C0
7C07C0
FF07C0
FF07C0
7C07C0
7C07C0
7C07C0
7C07C0
7C0FC0
7FFF80
7FFF80
7FFF00
7FFE00
7FF800
ENDCHAR
STARTCHAR Ñ
ENCODING -47
SWIDTH 75 0
DWIDTH -1 0
BBX 18 23 0 1
BITMAP
0F8E00
1DDC00
38F800
000000
E007C0
F007C0
F807C0
FC07C0
FE07C0
FF07C0
FF87C0
FFC7C0
FBE7C0
F9F7C0
F8FFC0
F87FC0
F83FC0
F81FC0
F80FC0
F807C0
F807C0
F807C0
F807C0
ENDCHAR
STARTCHAR Ò
ENCODING -46
SWIDTH 75 0
DWIDTH -1 0
BBX 16 23 0 1
BITMAP
0700
0380
01C0
0000
07E0
1FF8
3FFC
7FFE
7FFE
FC3F
F81F
F81F
F81F
F81F
F81F
F81F
F81F
FC3F
7FFE
7FFE
3FFC
1FF8
07E0
ENDCHAR
STARTCHAR Ó
ENCODING -45
SWIDTH 75 0
DWIDTH -1 0
BBX 16 23 0 1
BITMAP
00E0
01C0
0380
0000
07E0
1FF8
3FFC
7FFE
7FFE
FC3F
F81F
F81F
F81F
F81F
F81F
F81F
F81F
FC3F
7FFE
7FFE
3FFC
1FF8
07E0
ENDCHAR
STARTCHAR Ô
ENCODING -44
SWIDTH 75 0
DWIDTH -1 0
BBX 16 23 0 1
BITMAP
07C0
0EE0
1C70
0000
07E0
1FF8
3FFC
7FFE
7FFE
FC3F
F81F
F81F
F81F
F81F
F81F
F81F
F81F
FC3F
7FFE
7FFE
3FFC
1FF8
07E0
ENDCHAR
STARTCHAR Õ
ENCODING -43
SWIDTH 75 0
DWIDTH -1 0
BBX 16 23 0 1
BITMAP
1F1C
3BB8
71F0
0000
07E0
1FF8
3FFC
7FFE
7FFE
FC3F
F81F
F81F
F81F
F81F
F81F
F81F
F81F
FC3F
7FFE
7FFE
3FFC
1FF8
07E0
ENDCHAR
STARTCHAR Ö
ENCODING -42
SWIDTH 75 0
DWIDTH -1 0
BBX 16 23 0 1
BITMAP
1E78
1E78
1E78
1E78
07E0
1FF8
3FFC
7FFE
7FFE
FC3F
F81F
F81F
F81F
F81F
F81F
F81F
F81F
FC3F
7FFE
7FFE
3FFC
1FF8
07E0
ENDCHAR
STARTCHAR ×
ENCODING -41
SWIDTH 75 0
DWIDTH -1 0
BBX 15 14 0 5
BITMAP
F01E
F83E
FC7E
FEFE
7FFC
3FF8
1FF0
1FF0
3FF8
7FFC
FEFE
FC7E
F83E
F01E
ENDCHAR
STARTCHAR Ø
ENCODING -40
SWIDTH 75 0
DWIDTH -1 0
BBX 16 22 0 1
BITMAP
0040
07E0
1FF8
3FFC
7FFE
7FFE
FCBF
F89F
F89F
F89F
F89F
F91F
F91F
F91F
F91F
FD3F
7FFE
7FFE
3FFC
1FF8
07E0
0200
ENDCHAR
STARTCHAR Ù
ENCODING -39
SWIDTH 75 0
DWIDTH -1 0
BBX 17 23 0 1
BITMAP
038000
01C000
00E000
000000
F80F80
F80F80
F80F80
F80F80
F80F80
F80F80
F80F80
F80F80
F80F80
F80F80
F80F80
F80F80
F80F80
FC1F80
7FFF00
7FFF00
3FFE00
1FFC00
07F000
ENDCHAR
STARTCHAR Ú
ENCODING -38
SWIDTH 75 0
DWIDTH -1 0
BBX 17 23 0 1
BITMAP
007000
00E000
01C000
000000
F80F80
F80F80
F80F80
F80F80
F80F80
F80F80
F80F80
F80F80
F80F80
F80F80
F80F80
F80F80
F80F80
FC1F80
7FFF00
7FFF00
3FFE00
1FFC00
07F000
ENDCHAR
STARTCHAR Û
ENCODING -37
SWIDTH 75 0
DWIDTH -1 0
BBX 17 23 0 1
BITMAP
03E000
077000
0E3800
000000
F80F80
F80F80
F80F80
F80F80
F80F80
F80F80
F80F80
F80F80
F80F80
F80F80
F80F80
F80F80
F80F80
FC1F80
7FFF00
7FFF00
3FFE00
1FFC00
07F000
ENDCHAR
STARTCHAR Ü
ENCODING -36
SWIDTH 75 0
DWIDTH -1 0
BBX 17 23 0 1
BITMAP
1E3C00
1E3C00
1E3C00
1E3C00
F80F80
F80F80
F80F80
F80F80
F80F80
F80F80
F80F80
F80F80
F80F80
F80F80
F80F80
F80F80
F80F80
FC1F80
7FFF00
7FFF00
3FFE00
1FFC00
07F000
ENDCHAR
STARTCHAR Ý
ENCODING -35
SWIDTH 75 0
DWIDTH -1 0
BBX 15 23 0 1
BITMAP
00E0
01C0
0380
0000
F83E
F83E
F83E
F83E
F83E
F83E
F83E
FC7E
7EFC
3FF8
1FF0
0FE0
07C0
07C0
07C0
07C0
07C0
07C0
07C0
ENDCHAR
STARTCHAR Þ
ENCODING -34
SWIDTH 75 0
DWIDTH -1 0
BBX 15 22 0 1
BITMAP
F800
F800
F800
F800
F800
FFE0
FFF8
FFFC
FFFC
F83E
F81E
F81E
F83E
FFFC
FFFC
FFF8
FFE0
F800
F800
F800
F800
F800
ENDCHAR
STARTCHAR ß
ENCODING -33
SWIDTH 75 0
DWIDTH -1 0
BBX 17 23 0 0
BITMAP
07F000
1FFC00
3FFE00
7FFE00
7FFF00
FC3F00
F81F00
F83F00
F87E00
F9FC00
F9F800
F9FC00
F9FE00
F83F00
F81F80
F80F80
F80F80
F81F80
FBFF00
FBFF00
FBFE00
FBF800
F80000
ENDCHAR
STARTCHAR à
ENCODING -32
SWIDTH 75 0
DWIDTH -1 0
BBX 16 20 0 1
BITMAP
0700
0380
01C0
0000
1FF0
3FFC
3FFE
3FFE
3FFF
001F
0FDF
3FFF
7FFF
F81F
F81F
F81F
FFFF
7FFF
3FFF
0FEF
ENDCHAR
STARTCHAR á
ENCODING -31
SWIDTH 75 0
DWIDTH -1 0
BBX 16 20 0 1
BITMAP
00E0
01C0
0380
0000
1FF0
3FFC
3FFE
3FFE
3FFF
001F
0FDF
3FFF
7FFF
F81F
F81F
F81F
FFFF
7FFF
3FFF
0FEF
ENDCHAR
STARTCHAR â
ENCODING -30
SWIDTH 75 0
DWIDTH -1 0
BBX 16 20 0 1
BITMAP
07C0
0EE0
1C70
0000
1FF0
3FFC
3FFE
3FFE
3FFF
001F
0FDF
3FFF
7FFF
F81F
F81F
F81F
FFFF
7FFF
3FFF
0FEF
ENDCHAR
STARTCHAR ã
ENCODING -29
SWIDTH 75 0
DWIDTH -1 0
BBX 16 20 0 1
BITMAP
1F1C
3BB8
71F0
0000
1FF0
3FFC
3FFE
3FFE
3FFF
001F
0FDF
3FFF
7FFF
F81F
F81F
F81F
FFFF
7FFF
3FFF
0FEF
ENDCHAR
STARTCHAR ä
ENCODING -28
SWIDTH 75 0
DWIDTH -1 0
BBX 16 21 0 1
BITMAP
1E78
1E78
1E78
1E78
0000
1FF0
3FFC
3FFE
3FFE
3FFF
001F
0FDF
3FFF
7FFF
F81F
F81F
F81F
FFFF
7FFF
3FFF
0FEF
ENDCHAR
STARTCHAR å
ENCODING -27
SWIDTH 75 0
DWIDTH -1 0
BBX 16 20 0 1
BITMAP
0180
0240
0180
0000
1FF0
3FFC
3FFE
3FFE
3FFF
001F
0FDF
3FFF
7FFF
F81F
F81F
F81F
FFFF
7FFF
3FFF
0FEF
ENDCHAR
STARTCHAR æ
ENCODING -26
SWIDTH 75 0
DWIDTH -1 0
BBX 18 16 0 1
BITMAP
1FFC00
3FFF00
3FFF80
3FFF80
3FEFC0
00E7C0
0EE7C0
1FE7C0
3FFF80
7FFF00
F8E000
F8E7C0
FFFF80
7FFF80
3FFF00
0FFC00
ENDCHAR
STARTCHAR ç
ENCODING -25
SWIDTH 75 0
DWIDTH -1 0
BBX 16 16 0 1
BITMAP
0FF0
3FFC
7FFE
7FFE
FC1F
F800
F800
F800
FC1F
7FFE
7FFE
3FFC
0FF0
0080
0040
0F80
ENDCHAR
STARTCHAR è
ENCODING -24
SWIDTH 75 0
DWIDTH -1 0
BBX 16 20 0 1
BITMAP
0700
0380
01C0
0000
0FF0
3FFC
7FFE
7FFE
FC3F
F81F
F81F
FFFE
FFFC
FFFC
F800
FC1F
7FFE
7FFE
3FFC
0FF0
ENDCHAR
STARTCHAR é
ENCODING -23
SWIDTH 75 0
DWIDTH -1 0
BBX 16 20 0 1
BITMAP
00E0
01C0
0380
0000
0FF0
3FFC
7FFE
7FFE
FC3F
F81F
F81F
FFFE
FFFC
FFFC
F800
FC1F
7FFE
7FFE
3FFC
0FF0
ENDCHAR
STARTCHAR ê
ENCODING -22
SWIDTH 75 0
DWIDTH -1 0
BBX 16 20 0 1
BITMAP
07C0
0EE0
1C70
0000
0FF0
3FFC
7FFE
7FFE
FC3F
F81F
F81F
FFFE
FFFC
FFFC
F800
FC1F
7FFE
7FFE
3FFC
0FF0
ENDCHAR
STARTCHAR ë
ENCODING -21
SWIDTH 75 0
DWIDTH -1 0
BBX 16 21 0 1
BITMAP
1E78
1E78
1E78
1E78
0000
0FF0
3FFC
7FFE
7FFE
FC3F
F81F
F81F
FFFE
FFFC
FFFC
F800
FC1F
7FFE
7FFE
3FFC
0FF0
ENDCHAR
STARTCHAR ì
ENCODING -20
SWIDTH 75 0
DWIDTH -1 0
BBX 5 20 0 1
BITMAP
E0
70
38
00
F8
F8
F8
F8
F8
F8
F8
F8
F8
F8
F8
F8
F8
F8
F8
F8
ENDCHAR
STARTCHAR í
ENCODING -19
SWIDTH 75 0
DWIDTH -1 0
BBX 5 20 0 1
BITMAP
38
70
E0
00
F8
F8
F8
F8
F8
F8
F8
F8
F8
F8
F8
F8
F8
F8
F8
F8
ENDCHAR
STARTCHAR î
ENCODING -18
SWIDTH 75 0
DWIDTH -1 0
BBX 9 20 0 1
BITMAP
3E00
7700
E380
0000
3E00
3E00
3E00
3E00
3E00
3E00
3E00
3E00
3E00
3E00
3E00
3E00
3E00
3E00
3E00
3E00
ENDCHAR
STARTCHAR ï
ENCODING -17
SWIDTH 75 0
DWIDTH -1 0
BBX 9 21 0 1
BITMAP
F780
F780
F780
F780
0000
3E00
3E00
3E00
3E00
3E00
3E00
3E00
3E00
3E00
3E00
3E00
3E00
3E00
3E00
3E00
3E00
ENDCHAR
STARTCHAR ð
ENCODING -16
SWIDTH 75 0
DWIDTH -1 0
BBX 16 21 0 1
BITMAP
1C00
0640
0F80
1300
01C0
0FF0
3FFC
7FFE
7FFE
F81F
F00F
F00F
F00F
F00F
F00F
F00F
F81F
7FFE
7FFE
3FFC
0FF0
ENDCHAR
STARTCHAR ñ
ENCODING -15
SWIDTH 75 0
DWIDTH -1 0
BBX 16 20 0 1
BITMAP
1F1C
3BB8
71F0
0000
F7F0
FFFC
FFFE
FFFE
FC3F
F81F
F81F
F81F
F81F
F81F
F81F
F81F
F81F
F81F
F81F
F81F
ENDCHAR
STARTCHAR ò
ENCODING -14
SWIDTH 75 0
DWIDTH -1 0
BBX 16 20 0 1
BITMAP
0700
0380
01C0
0000
0FF0
3FFC
7FFE
7FFE
F81F
F00F
F00F
F00F
F00F
F00F
F00F
F81F
7FFE
7FFE
3FFC
0FF0
ENDCHAR
STARTCHAR ó
ENCODING -13
SWIDTH 75 0
DWIDTH -1 0
BBX 16 20 0 1
BITMAP
00E0
01C0
0380
0000
0FF0
3FFC
7FFE
7FFE
F81F
F00F
F00F
F00F
F00F
F00F
F00F
F81F
7FFE
7FFE
3FFC
0FF0
ENDCHAR
STARTCHAR ô
ENCODING -12
SWIDTH 75 0
DWIDTH -1 0
BBX 16 20 0 1
BITMAP
03E0
0770
0E38
0000
0FF0
3FFC
7FFE
7FFE
F81F
F00F
F00F
F00F
F00F
F00F
F00F
F81F
7FFE
7FFE
3FFC
0FF0
ENDCHAR
STARTCHAR õ
ENCODING -11
SWIDTH 75 0
DWIDTH -1 0
BBX 16 20 0 1
BITMAP
1F1C
3BB8
71F0
0000
0FF0
3FFC
7FFE
7FFE
F81F
F00F
F00F
F00F
F00F
F00F
F00F
F81F
7FFE
7FFE
3FFC
0FF0
ENDCHAR
STARTCHAR ö
ENCODING -10
SWIDTH 75 0
DWIDTH -1 0
BBX 16 21 0 1
BITMAP
1E78
1E78
1E78
1E78
0000
0FF0
3FFC
7FFE
7FFE
F81F
F00F
F00F
F00F
F00F
F00F
F00F
F81F
7FFE
7FFE
3FFC
0FF0
ENDCHAR
STARTCHAR ÷
ENCODING -9
SWIDTH 75 0
DWIDTH -1 0
BBX 17 19 0 1
BITMAP
03E000
03E000
03E000
03E000
03E000
000000
000000
FFFF80
FFFF80
FFFF80
FFFF80
FFFF80
000000
000000
03E000
03E000
03E000
03E000
03E000
ENDCHAR
STARTCHAR ø
ENCODING -8
SWIDTH 75 0
DWIDTH -1 0
BBX 16 17 0 1
BITMAP
0040
0FF0
3FFC
7FFE
7FFE
F89F
F08F
F08F
F08F
F10F
F10F
F91F
7FFE
7FFE
3FFC
0FF0
0200
ENDCHAR
STARTCHAR ù
ENCODING -7
SWIDTH 75 0
DWIDTH -1 0
BBX 16 20 0 1
BITMAP
0380
01C0
00E0
0000
F81F
F81F
F81F
F81F
F81F
F81F
F81F
F81F
F81F
F81F
F81F
FC3F
7FFF
7FFF
3FFF
0FEF
ENDCHAR
STARTCHAR ú
ENCODING -6
SWIDTH 75 0
DWIDTH -1 0
BBX 16 20 0 1
BITMAP
0070
00E0
01C0
0000
F81F
F81F
F81F
F81F
F81F
F81F
F81F
F81F
F81F
F81F
F81F
FC3F
7FFF
7FFF
3FFF
0FEF
ENDCHAR
STARTCHAR û
ENCODING -5
SWIDTH 75 0
DWIDTH -1 0
BBX 16 20 0 1
BITMAP
03E0
0770
0E38
0000
F81F
F81F
F81F
F81F
F81F
F81F
F81F
F81F
F81F
F81F
F81F
FC3F
7FFF
7FFF
3FFF
0FEF
ENDCHAR
STARTCHAR ü
ENCODING -4
SWIDTH 75 0
DWIDTH -1 0
BBX 16 21 0 1
BITMAP
3C3C
3C3C
3C3C
3C3C
0000
F81F
F81F
F81F
F81F
F81F
F81F
F81F
F81F
F81F
F81F
F81F
FC3F
7FFF
7FFF
3FFF
0FEF
ENDCHAR
STARTCHAR ý
ENCODING -3
SWIDTH 75 0
DWIDTH -1 0
BBX 16 21 0 0
BITMAP
00E0
01C0
0380
0000
F81F
F81F
F81F
F81F
F81F
F81F
FC3F
FFFF
7FFF
3FFF
0FDF
001F
003E
7FFE
7FFE
3FFC
1FF0
ENDCHAR
STARTCHAR þ
ENCODING -2
SWIDTH 75 0
DWIDTH -1 0
BBX 17 22 0 1
BITMAP
F80000
F80000
F80000
F80000
FBF800
FFFE00
FFFF00
FFFF00
FC0F80
F80780
F80780
F80780
F80780
FC0F80
FFFF00
FFFF00
FFFE00
FBF800
F80000
F80000
F80000
F80000
ENDCHAR
STARTCHAR ÿ
ENCODING -1
SWIDTH 75 0
DWIDTH -1 0
BBX 16 22 0 0
BITMAP
3C3C
3C3C
3C3C
3C3C
0000
F81F
F81F
F81F
F81F
F81F
F81F
FC3F
FFFF
7FFF
3FFF
0FDF
001F
003E
7FFE
7FFE
3FFC
1FF0
ENDCHAR
ENDFONT
