STARTFONT 2.1
COMMENT Lumiplan font build using LumiStudio
FONT Duhamel 16/14 3-Normal
SIZE 16 75 75
FONTBOUNDINGBOX 9 16 0 0
STARTPROPERTIES 1
Copyright "Copyright (c) 2021 Lumiplan"
ENDPROPERTIES
CHARS 189
STARTCHAR 
ENCODING 14
SWIDTH 75 0
DWIDTH -1 0
BBX 0 0 1 15
ENDCHAR
STARTCHAR  
ENCODING 32
SWIDTH 75 0
DWIDTH -1 0
BBX 0 0 2 15
ENDCHAR
STARTCHAR !
ENCODING 33
SWIDTH 75 0
DWIDTH -1 0
BBX 2 14 0 1
BITMAP
C0
C0
C0
C0
C0
C0
C0
C0
C0
C0
C0
00
C0
C0
ENDCHAR
STARTCHAR "
ENCODING 34
SWIDTH 75 0
DWIDTH -1 0
BBX 7 3 0 12
BITMAP
66
66
88
ENDCHAR
STARTCHAR #
ENCODING 35
SWIDTH 75 0
DWIDTH -1 0
BBX 8 14 0 1
BITMAP
66
66
FF
FF
66
66
66
66
66
66
FF
FF
66
66
ENDCHAR
STARTCHAR $
ENCODING 36
SWIDTH 75 0
DWIDTH -1 0
BBX 8 14 0 1
BITMAP
18
7E
FF
DB
D8
D8
FE
7F
1B
1B
DB
FF
7E
18
ENDCHAR
STARTCHAR %
ENCODING 37
SWIDTH 75 0
DWIDTH -1 0
BBX 8 14 0 1
BITMAP
C3
C3
06
06
0C
0C
18
18
30
30
60
60
C3
C3
ENDCHAR
STARTCHAR &
ENCODING 38
SWIDTH 75 0
DWIDTH -1 0
BBX 9 14 0 1
BITMAP
3C00
7E00
6600
6600
7E00
3C00
6600
E700
C380
C380
C300
E780
FF80
7E00
ENDCHAR
STARTCHAR '
ENCODING 39
SWIDTH 75 0
DWIDTH -1 0
BBX 3 3 0 12
BITMAP
60
60
80
ENDCHAR
STARTCHAR (
ENCODING 40
SWIDTH 75 0
DWIDTH -1 0
BBX 4 14 0 1
BITMAP
70
F0
C0
C0
C0
C0
C0
C0
C0
C0
C0
C0
F0
70
ENDCHAR
STARTCHAR )
ENCODING 41
SWIDTH 75 0
DWIDTH -1 0
BBX 4 14 0 1
BITMAP
E0
F0
30
30
30
30
30
30
30
30
30
30
F0
E0
ENDCHAR
STARTCHAR *
ENCODING 42
SWIDTH 75 0
DWIDTH -1 0
BBX 8 8 0 3
BITMAP
DB
FF
7E
FF
FF
7E
FF
DB
ENDCHAR
STARTCHAR +
ENCODING 43
SWIDTH 75 0
DWIDTH -1 0
BBX 6 6 0 4
BITMAP
30
30
FC
FC
30
30
ENDCHAR
STARTCHAR ,
ENCODING 44
SWIDTH 75 0
DWIDTH -1 0
BBX 3 3 0 1
BITMAP
60
60
80
ENDCHAR
STARTCHAR -
ENCODING 45
SWIDTH 75 0
DWIDTH -1 0
BBX 6 2 0 5
BITMAP
FC
FC
ENDCHAR
STARTCHAR .
ENCODING 46
SWIDTH 75 0
DWIDTH -1 0
BBX 3 3 0 1
BITMAP
E0
E0
E0
ENDCHAR
STARTCHAR /
ENCODING 47
SWIDTH 75 0
DWIDTH -1 0
BBX 8 14 0 1
BITMAP
03
03
06
06
0C
0C
18
18
30
30
60
60
C0
C0
ENDCHAR
STARTCHAR 0
ENCODING 48
SWIDTH 75 0
DWIDTH -1 0
BBX 8 14 0 1
BITMAP
7E
FF
C3
C3
C3
C3
C3
C3
C3
C3
C3
C3
FF
7E
ENDCHAR
STARTCHAR 1
ENCODING 49
SWIDTH 75 0
DWIDTH -1 0
BBX 4 14 0 1
BITMAP
30
70
F0
F0
30
30
30
30
30
30
30
30
30
30
ENDCHAR
STARTCHAR 2
ENCODING 50
SWIDTH 75 0
DWIDTH -1 0
BBX 8 14 0 1
BITMAP
7E
FF
C3
C3
07
0E
1C
38
70
E0
C0
C0
FF
FF
ENDCHAR
STARTCHAR 3
ENCODING 51
SWIDTH 75 0
DWIDTH -1 0
BBX 8 14 0 1
BITMAP
7E
FF
C3
C3
03
07
1E
1E
07
03
C3
C3
FF
7E
ENDCHAR
STARTCHAR 4
ENCODING 52
SWIDTH 75 0
DWIDTH -1 0
BBX 8 14 0 1
BITMAP
06
0E
1E
3E
76
E6
C6
FF
FF
06
06
06
06
06
ENDCHAR
STARTCHAR 5
ENCODING 53
SWIDTH 75 0
DWIDTH -1 0
BBX 8 14 0 1
BITMAP
FF
FF
C0
C0
C0
C0
FE
7F
03
03
03
C3
FF
7E
ENDCHAR
STARTCHAR 6
ENCODING 54
SWIDTH 75 0
DWIDTH -1 0
BBX 8 14 0 1
BITMAP
1E
3E
70
E0
C0
C0
FE
FF
C3
C3
C3
C3
FF
7E
ENDCHAR
STARTCHAR 7
ENCODING 55
SWIDTH 75 0
DWIDTH -1 0
BBX 8 14 0 1
BITMAP
FF
FF
03
03
07
0E
1C
18
18
18
18
18
18
18
ENDCHAR
STARTCHAR 8
ENCODING 56
SWIDTH 75 0
DWIDTH -1 0
BBX 8 14 0 1
BITMAP
7E
FF
C3
C3
C3
C3
7E
7E
C3
C3
C3
C3
FF
7E
ENDCHAR
STARTCHAR 9
ENCODING 57
SWIDTH 75 0
DWIDTH -1 0
BBX 8 14 0 1
BITMAP
7E
FF
C3
C3
C3
C3
FF
7F
03
03
07
0E
7C
78
ENDCHAR
STARTCHAR :
ENCODING 58
SWIDTH 75 0
DWIDTH -1 0
BBX 2 6 0 1
BITMAP
C0
C0
00
00
C0
C0
ENDCHAR
STARTCHAR ;
ENCODING 59
SWIDTH 75 0
DWIDTH -1 0
BBX 3 6 0 1
BITMAP
60
60
00
60
60
80
ENDCHAR
STARTCHAR <
ENCODING 60
SWIDTH 75 0
DWIDTH -1 0
BBX 8 14 0 1
BITMAP
03
07
0E
1C
38
70
E0
E0
70
38
1C
0E
07
03
ENDCHAR
STARTCHAR =
ENCODING 61
SWIDTH 75 0
DWIDTH -1 0
BBX 6 5 0 6
BITMAP
FC
FC
00
FC
FC
ENDCHAR
STARTCHAR >
ENCODING 62
SWIDTH 75 0
DWIDTH -1 0
BBX 8 14 0 1
BITMAP
C0
E0
70
38
1C
0E
07
07
0E
1C
38
70
E0
C0
ENDCHAR
STARTCHAR ?
ENCODING 63
SWIDTH 75 0
DWIDTH -1 0
BBX 7 14 0 1
BITMAP
7C
FE
C6
C6
06
06
0E
1C
18
18
18
00
18
18
ENDCHAR
STARTCHAR @
ENCODING 64
SWIDTH 75 0
DWIDTH -1 0
BBX 8 14 0 1
BITMAP
7E
FF
C3
C3
C3
DF
D7
DF
DE
C0
C0
C0
FE
7E
ENDCHAR
STARTCHAR A
ENCODING 65
SWIDTH 75 0
DWIDTH -1 0
BBX 8 14 0 1
BITMAP
7E
FF
C3
C3
C3
C3
FF
FF
C3
C3
C3
C3
C3
C3
ENDCHAR
STARTCHAR B
ENCODING 66
SWIDTH 75 0
DWIDTH -1 0
BBX 8 14 0 1
BITMAP
FE
FF
C3
C3
C3
C3
FE
FE
C3
C3
C3
C3
FF
FE
ENDCHAR
STARTCHAR C
ENCODING 67
SWIDTH 75 0
DWIDTH -1 0
BBX 8 14 0 1
BITMAP
7E
FF
C3
C3
C0
C0
C0
C0
C0
C0
C3
C3
FF
7E
ENDCHAR
STARTCHAR D
ENCODING 68
SWIDTH 75 0
DWIDTH -1 0
BBX 8 14 0 1
BITMAP
FE
FF
C3
C3
C3
C3
C3
C3
C3
C3
C3
C3
FF
FE
ENDCHAR
STARTCHAR E
ENCODING 69
SWIDTH 75 0
DWIDTH -1 0
BBX 8 14 0 1
BITMAP
FF
FF
C0
C0
C0
C0
FE
FE
C0
C0
C0
C0
FF
FF
ENDCHAR
STARTCHAR F
ENCODING 70
SWIDTH 75 0
DWIDTH -1 0
BBX 8 14 0 1
BITMAP
FF
FF
C0
C0
C0
C0
FE
FE
C0
C0
C0
C0
C0
C0
ENDCHAR
STARTCHAR G
ENCODING 71
SWIDTH 75 0
DWIDTH -1 0
BBX 8 14 0 1
BITMAP
7E
FF
C3
C3
C0
C0
DF
DF
C3
C3
C3
C3
FF
7E
ENDCHAR
STARTCHAR H
ENCODING 72
SWIDTH 75 0
DWIDTH -1 0
BBX 8 14 0 1
BITMAP
C3
C3
C3
C3
C3
C3
FF
FF
C3
C3
C3
C3
C3
C3
ENDCHAR
STARTCHAR I
ENCODING 73
SWIDTH 75 0
DWIDTH -1 0
BBX 2 14 0 1
BITMAP
C0
C0
C0
C0
C0
C0
C0
C0
C0
C0
C0
C0
C0
C0
ENDCHAR
STARTCHAR J
ENCODING 74
SWIDTH 75 0
DWIDTH -1 0
BBX 8 14 0 1
BITMAP
03
03
03
03
03
03
03
03
03
03
C3
C3
FF
7E
ENDCHAR
STARTCHAR K
ENCODING 75
SWIDTH 75 0
DWIDTH -1 0
BBX 9 14 0 1
BITMAP
C180
C380
C700
CE00
DC00
F800
F000
F000
F800
DC00
CE00
C700
C380
C180
ENDCHAR
STARTCHAR L
ENCODING 76
SWIDTH 75 0
DWIDTH -1 0
BBX 8 14 0 1
BITMAP
C0
C0
C0
C0
C0
C0
C0
C0
C0
C0
C0
C0
FF
FF
ENDCHAR
STARTCHAR M
ENCODING 77
SWIDTH 75 0
DWIDTH -1 0
BBX 8 14 0 1
BITMAP
C3
E7
FF
DB
C3
C3
C3
C3
C3
C3
C3
C3
C3
C3
ENDCHAR
STARTCHAR N
ENCODING 78
SWIDTH 75 0
DWIDTH -1 0
BBX 8 14 0 1
BITMAP
C3
E3
F3
DB
CF
C7
C3
C3
C3
C3
C3
C3
C3
C3
ENDCHAR
STARTCHAR O
ENCODING 79
SWIDTH 75 0
DWIDTH -1 0
BBX 8 14 0 1
BITMAP
7E
FF
C3
C3
C3
C3
C3
C3
C3
C3
C3
C3
FF
7E
ENDCHAR
STARTCHAR P
ENCODING 80
SWIDTH 75 0
DWIDTH -1 0
BBX 8 14 0 1
BITMAP
FE
FF
C3
C3
C3
C3
FF
FE
C0
C0
C0
C0
C0
C0
ENDCHAR
STARTCHAR Q
ENCODING 81
SWIDTH 75 0
DWIDTH -1 0
BBX 8 14 0 1
BITMAP
7E
FF
C3
C3
C3
C3
C3
C3
C3
C3
CB
C7
FE
7D
ENDCHAR
STARTCHAR R
ENCODING 82
SWIDTH 75 0
DWIDTH -1 0
BBX 8 14 0 1
BITMAP
FE
FF
C3
C3
C3
C3
FF
FE
C6
C7
C3
C3
C3
C3
ENDCHAR
STARTCHAR S
ENCODING 83
SWIDTH 75 0
DWIDTH -1 0
BBX 8 14 0 1
BITMAP
7E
FF
C3
C3
C0
E0
7C
3E
07
03
C3
C3
FF
7E
ENDCHAR
STARTCHAR T
ENCODING 84
SWIDTH 75 0
DWIDTH -1 0
BBX 8 14 0 1
BITMAP
FF
FF
18
18
18
18
18
18
18
18
18
18
18
18
ENDCHAR
STARTCHAR U
ENCODING 85
SWIDTH 75 0
DWIDTH -1 0
BBX 8 14 0 1
BITMAP
C3
C3
C3
C3
C3
C3
C3
C3
C3
C3
C3
C3
FF
7E
ENDCHAR
STARTCHAR V
ENCODING 86
SWIDTH 75 0
DWIDTH -1 0
BBX 7 14 0 1
BITMAP
C6
C6
C6
C6
C6
C6
C6
C6
C6
C6
C6
6C
38
10
ENDCHAR
STARTCHAR W
ENCODING 87
SWIDTH 75 0
DWIDTH -1 0
BBX 8 14 0 1
BITMAP
C3
C3
C3
C3
C3
C3
C3
C3
C3
C3
DB
FF
E7
C3
ENDCHAR
STARTCHAR X
ENCODING 88
SWIDTH 75 0
DWIDTH -1 0
BBX 8 14 0 1
BITMAP
C3
C3
C3
C3
E7
7E
3C
3C
7E
E7
C3
C3
C3
C3
ENDCHAR
STARTCHAR Y
ENCODING 89
SWIDTH 75 0
DWIDTH -1 0
BBX 8 14 0 1
BITMAP
C3
C3
C3
C3
C3
E7
7E
3C
18
18
18
18
18
18
ENDCHAR
STARTCHAR Z
ENCODING 90
SWIDTH 75 0
DWIDTH -1 0
BBX 8 14 0 1
BITMAP
FF
FF
03
03
07
0E
1C
38
70
E0
C0
C0
FF
FF
ENDCHAR
STARTCHAR [
ENCODING 91
SWIDTH 75 0
DWIDTH -1 0
BBX 4 14 0 1
BITMAP
F0
F0
C0
C0
C0
C0
C0
C0
C0
C0
C0
C0
F0
F0
ENDCHAR
STARTCHAR \
ENCODING 92
SWIDTH 75 0
DWIDTH -1 0
BBX 8 14 0 1
BITMAP
C0
C0
60
60
30
30
18
18
0C
0C
06
06
03
03
ENDCHAR
STARTCHAR ]
ENCODING 93
SWIDTH 75 0
DWIDTH -1 0
BBX 4 14 0 1
BITMAP
F0
F0
30
30
30
30
30
30
30
30
30
30
F0
F0
ENDCHAR
STARTCHAR ^
ENCODING 94
SWIDTH 75 0
DWIDTH -1 0
BBX 8 5 0 10
BITMAP
18
3C
7E
E7
C3
ENDCHAR
STARTCHAR _
ENCODING 95
SWIDTH 75 0
DWIDTH -1 0
BBX 7 2 0 1
BITMAP
FE
FE
ENDCHAR
STARTCHAR `
ENCODING 96
SWIDTH 75 0
DWIDTH -1 0
BBX 3 3 0 12
BITMAP
C0
C0
20
ENDCHAR
STARTCHAR a
ENCODING 97
SWIDTH 75 0
DWIDTH -1 0
BBX 8 9 0 1
BITMAP
7E
7F
03
7F
FF
C3
C3
FF
7F
ENDCHAR
STARTCHAR b
ENCODING 98
SWIDTH 75 0
DWIDTH -1 0
BBX 8 14 0 1
BITMAP
C0
C0
C0
C0
C0
DE
FF
E3
C3
C3
C3
E3
FF
DE
ENDCHAR
STARTCHAR c
ENCODING 99
SWIDTH 75 0
DWIDTH -1 0
BBX 8 9 0 1
BITMAP
7E
FF
C3
C0
C0
C0
C3
FF
7E
ENDCHAR
STARTCHAR d
ENCODING 100
SWIDTH 75 0
DWIDTH -1 0
BBX 8 14 0 1
BITMAP
03
03
03
03
03
7B
FF
C7
C3
C3
C3
C7
FF
7B
ENDCHAR
STARTCHAR e
ENCODING 101
SWIDTH 75 0
DWIDTH -1 0
BBX 8 9 0 1
BITMAP
7E
FF
C3
FF
FE
C0
C0
FF
7E
ENDCHAR
STARTCHAR f
ENCODING 102
SWIDTH 75 0
DWIDTH -1 0
BBX 8 14 0 1
BITMAP
3E
7F
63
60
60
F0
F0
60
60
60
60
60
60
60
ENDCHAR
STARTCHAR g
ENCODING 103
SWIDTH 75 0
DWIDTH -1 0
BBX 8 10 0 0
BITMAP
7B
FF
C7
C3
FF
7F
03
03
FF
7E
ENDCHAR
STARTCHAR h
ENCODING 104
SWIDTH 75 0
DWIDTH -1 0
BBX 8 14 0 1
BITMAP
C0
C0
C0
C0
C0
DE
FF
E3
C3
C3
C3
C3
C3
C3
ENDCHAR
STARTCHAR i
ENCODING 105
SWIDTH 75 0
DWIDTH -1 0
BBX 2 12 0 1
BITMAP
C0
C0
00
C0
C0
C0
C0
C0
C0
C0
C0
C0
ENDCHAR
STARTCHAR j
ENCODING 106
SWIDTH 75 0
DWIDTH -1 0
BBX 7 13 0 0
BITMAP
06
06
00
06
06
06
06
06
06
06
C6
FE
7C
ENDCHAR
STARTCHAR k
ENCODING 107
SWIDTH 75 0
DWIDTH -1 0
BBX 7 14 0 1
BITMAP
C0
C0
C0
C0
C0
C6
CE
DC
F8
F0
F8
DC
CE
C6
ENDCHAR
STARTCHAR l
ENCODING 108
SWIDTH 75 0
DWIDTH -1 0
BBX 2 14 0 1
BITMAP
C0
C0
C0
C0
C0
C0
C0
C0
C0
C0
C0
C0
C0
C0
ENDCHAR
STARTCHAR m
ENCODING 109
SWIDTH 75 0
DWIDTH -1 0
BBX 8 9 0 1
BITMAP
B6
FF
FF
DB
DB
DB
DB
DB
DB
ENDCHAR
STARTCHAR n
ENCODING 110
SWIDTH 75 0
DWIDTH -1 0
BBX 8 9 0 1
BITMAP
DE
FF
E3
C3
C3
C3
C3
C3
C3
ENDCHAR
STARTCHAR o
ENCODING 111
SWIDTH 75 0
DWIDTH -1 0
BBX 8 9 0 1
BITMAP
7E
FF
C3
C3
C3
C3
C3
FF
7E
ENDCHAR
STARTCHAR p
ENCODING 112
SWIDTH 75 0
DWIDTH -1 0
BBX 8 10 0 0
BITMAP
DE
FF
E3
C3
FF
FE
C0
C0
C0
C0
ENDCHAR
STARTCHAR q
ENCODING 113
SWIDTH 75 0
DWIDTH -1 0
BBX 8 10 0 0
BITMAP
7B
FF
C7
C3
FF
7F
03
03
03
03
ENDCHAR
STARTCHAR r
ENCODING 114
SWIDTH 75 0
DWIDTH -1 0
BBX 8 9 0 1
BITMAP
DE
FF
E3
C0
C0
C0
C0
C0
C0
ENDCHAR
STARTCHAR s
ENCODING 115
SWIDTH 75 0
DWIDTH -1 0
BBX 8 9 0 1
BITMAP
7E
FF
C3
C0
7E
03
C3
FF
7E
ENDCHAR
STARTCHAR t
ENCODING 116
SWIDTH 75 0
DWIDTH -1 0
BBX 7 14 0 1
BITMAP
60
60
60
60
60
F0
F0
60
60
60
60
66
7E
3C
ENDCHAR
STARTCHAR u
ENCODING 117
SWIDTH 75 0
DWIDTH -1 0
BBX 8 9 0 1
BITMAP
C3
C3
C3
C3
C3
C3
C7
FF
7B
ENDCHAR
STARTCHAR v
ENCODING 118
SWIDTH 75 0
DWIDTH -1 0
BBX 9 9 0 1
BITMAP
C180
C180
C180
C180
C180
6300
3600
1C00
0800
ENDCHAR
STARTCHAR w
ENCODING 119
SWIDTH 75 0
DWIDTH -1 0
BBX 8 9 0 1
BITMAP
C3
C3
C3
C3
C3
DB
DB
FF
66
ENDCHAR
STARTCHAR x
ENCODING 120
SWIDTH 75 0
DWIDTH -1 0
BBX 9 9 0 1
BITMAP
C180
E380
7700
3E00
1C00
3E00
7700
E380
C180
ENDCHAR
STARTCHAR y
ENCODING 121
SWIDTH 75 0
DWIDTH -1 0
BBX 8 10 0 0
BITMAP
C3
C3
C3
C3
C3
FF
7F
03
FF
7E
ENDCHAR
STARTCHAR z
ENCODING 122
SWIDTH 75 0
DWIDTH -1 0
BBX 8 9 0 1
BITMAP
FF
FF
07
0E
1C
38
70
FF
FF
ENDCHAR
STARTCHAR {
ENCODING 123
SWIDTH 75 0
DWIDTH -1 0
BBX 4 14 0 1
BITMAP
30
70
60
60
60
60
C0
C0
60
60
60
60
70
30
ENDCHAR
STARTCHAR |
ENCODING 124
SWIDTH 75 0
DWIDTH -1 0
BBX 2 14 0 1
BITMAP
C0
C0
C0
C0
C0
C0
C0
C0
C0
C0
C0
C0
C0
C0
ENDCHAR
STARTCHAR }
ENCODING 125
SWIDTH 75 0
DWIDTH -1 0
BBX 4 14 0 1
BITMAP
C0
E0
60
60
60
60
30
30
60
60
60
60
E0
C0
ENDCHAR
STARTCHAR ~
ENCODING 126
SWIDTH 75 0
DWIDTH -1 0
BBX 8 3 0 7
BITMAP
7B
FF
DE
ENDCHAR
STARTCHAR ¤
ENCODING -92
SWIDTH 75 0
DWIDTH -1 0
BBX 8 14 0 1
BITMAP
3E
7F
63
60
FC
FC
60
60
FC
FC
60
63
7F
3E
ENDCHAR
STARTCHAR ¦
ENCODING -90
SWIDTH 75 0
DWIDTH -1 0
BBX 8 15 0 1
BITMAP
24
18
00
7E
FF
C3
C0
E0
7C
3E
07
03
C3
FF
7E
ENDCHAR
STARTCHAR ¼
ENCODING -68
SWIDTH 75 0
DWIDTH -1 0
BBX 9 14 0 1
BITMAP
7F80
FF80
CC00
CC00
CC00
CC00
CF00
CF00
CC00
CC00
CC00
CC00
FF80
7F80
ENDCHAR
STARTCHAR ´
ENCODING -76
SWIDTH 75 0
DWIDTH -1 0
BBX 8 14 0 1
BITMAP
24
18
00
FF
FF
03
07
0E
1C
38
70
E0
FF
FF
ENDCHAR
STARTCHAR ¨
ENCODING -88
SWIDTH 75 0
DWIDTH -1 0
BBX 8 12 0 1
BITMAP
24
18
00
7E
FF
C3
C0
7E
03
C3
FF
7E
ENDCHAR
STARTCHAR ½
ENCODING -67
SWIDTH 75 0
DWIDTH -1 0
BBX 8 9 0 1
BITMAP
6E
FF
DB
DF
DE
D8
D8
FF
6E
ENDCHAR
STARTCHAR ¸
ENCODING -72
SWIDTH 75 0
DWIDTH -1 0
BBX 8 12 0 1
BITMAP
24
18
00
FF
FF
07
0E
1C
38
70
FF
FF
ENDCHAR
STARTCHAR ¾
ENCODING -66
SWIDTH 75 0
DWIDTH -1 0
BBX 8 15 0 1
BITMAP
C3
C3
00
C3
C3
C3
C3
E7
7E
3C
18
18
18
18
18
ENDCHAR
STARTCHAR ¡
ENCODING -95
SWIDTH 75 0
DWIDTH -1 0
BBX 2 14 0 1
BITMAP
C0
C0
00
C0
C0
C0
C0
C0
C0
C0
C0
C0
C0
C0
ENDCHAR
STARTCHAR ¢
ENCODING -94
SWIDTH 75 0
DWIDTH -1 0
BBX 8 14 0 1
BITMAP
18
7E
FF
DB
D8
D8
D8
D8
D8
D8
DB
FF
7E
18
ENDCHAR
STARTCHAR £
ENCODING -93
SWIDTH 75 0
DWIDTH -1 0
BBX 8 14 0 1
BITMAP
7E
FF
C3
C0
C0
C0
60
FE
FE
60
C0
C0
FF
FF
ENDCHAR
STARTCHAR ¥
ENCODING -91
SWIDTH 75 0
DWIDTH -1 0
BBX 8 14 0 1
BITMAP
C3
C3
C3
C3
E7
7E
3C
18
FF
FF
18
FF
FF
18
ENDCHAR
STARTCHAR §
ENCODING -89
SWIDTH 75 0
DWIDTH -1 0
BBX 8 14 0 1
BITMAP
7E
FF
C3
C0
7E
7E
C3
C3
FF
7E
03
C3
FF
7E
ENDCHAR
STARTCHAR ©
ENCODING -87
SWIDTH 75 0
DWIDTH -1 0
BBX 9 9 0 7
BITMAP
7F00
8080
9C80
A280
A080
A280
9C80
8080
7F00
ENDCHAR
STARTCHAR ª
ENCODING -86
SWIDTH 75 0
DWIDTH -1 0
BBX 3 5 0 10
BITMAP
40
20
60
A0
60
ENDCHAR
STARTCHAR «
ENCODING -85
SWIDTH 75 0
DWIDTH -1 0
BBX 8 6 0 5
BITMAP
33
77
EE
EE
77
33
ENDCHAR
STARTCHAR ¬
ENCODING -84
SWIDTH 75 0
DWIDTH -1 0
BBX 6 4 0 7
BITMAP
FC
FC
0C
0C
ENDCHAR
STARTCHAR ®
ENCODING -82
SWIDTH 75 0
DWIDTH -1 0
BBX 8 9 0 7
BITMAP
7E
81
B9
A5
B9
A5
A5
81
7E
ENDCHAR
STARTCHAR ¯
ENCODING -81
SWIDTH 75 0
DWIDTH -1 0
BBX 8 2 0 13
BITMAP
FF
FF
ENDCHAR
STARTCHAR °
ENCODING -80
SWIDTH 75 0
DWIDTH -1 0
BBX 3 3 0 12
BITMAP
40
A0
40
ENDCHAR
STARTCHAR ±
ENCODING -79
SWIDTH 75 0
DWIDTH -1 0
BBX 8 11 0 2
BITMAP
18
18
18
FF
FF
18
18
18
00
FF
FF
ENDCHAR
STARTCHAR ²
ENCODING -78
SWIDTH 75 0
DWIDTH -1 0
BBX 3 5 0 10
BITMAP
C0
20
40
80
E0
ENDCHAR
STARTCHAR ³
ENCODING -77
SWIDTH 75 0
DWIDTH -1 0
BBX 3 5 0 10
BITMAP
C0
20
40
20
C0
ENDCHAR
STARTCHAR µ
ENCODING -75
SWIDTH 75 0
DWIDTH -1 0
BBX 8 13 0 0
BITMAP
C3
C3
C3
C3
E7
FF
DB
C0
C0
C0
C0
C0
C0
ENDCHAR
STARTCHAR ·
ENCODING -73
SWIDTH 75 0
DWIDTH -1 0
BBX 2 2 0 5
BITMAP
C0
C0
ENDCHAR
STARTCHAR ¹
ENCODING -71
SWIDTH 75 0
DWIDTH -1 0
BBX 2 5 0 10
BITMAP
40
C0
40
40
40
ENDCHAR
STARTCHAR º
ENCODING -70
SWIDTH 75 0
DWIDTH -1 0
BBX 3 5 0 10
BITMAP
40
A0
A0
A0
40
ENDCHAR
STARTCHAR »
ENCODING -69
SWIDTH 75 0
DWIDTH -1 0
BBX 8 6 0 5
BITMAP
CC
EE
77
77
EE
CC
ENDCHAR
STARTCHAR ¿
ENCODING -65
SWIDTH 75 0
DWIDTH -1 0
BBX 7 14 0 1
BITMAP
30
30
00
30
30
30
70
E0
C0
C0
C6
C6
FE
7C
ENDCHAR
STARTCHAR À
ENCODING -64
SWIDTH 75 0
DWIDTH -1 0
BBX 8 15 0 1
BITMAP
60
30
18
7E
FF
C3
C3
C3
C3
FF
FF
C3
C3
C3
C3
ENDCHAR
STARTCHAR Á
ENCODING -63
SWIDTH 75 0
DWIDTH -1 0
BBX 8 15 0 1
BITMAP
06
0C
18
7E
FF
C3
C3
C3
C3
FF
FF
C3
C3
C3
C3
ENDCHAR
STARTCHAR Â
ENCODING -62
SWIDTH 75 0
DWIDTH -1 0
BBX 8 15 0 1
BITMAP
18
3C
66
7E
FF
C3
C3
C3
C3
FF
FF
C3
C3
C3
C3
ENDCHAR
STARTCHAR Ã
ENCODING -61
SWIDTH 75 0
DWIDTH -1 0
BBX 8 15 0 1
BITMAP
71
DB
8E
7E
FF
C3
C3
C3
C3
FF
FF
C3
C3
C3
C3
ENDCHAR
STARTCHAR Ä
ENCODING -60
SWIDTH 75 0
DWIDTH -1 0
BBX 8 15 0 1
BITMAP
66
66
00
7E
FF
C3
C3
C3
C3
FF
FF
C3
C3
C3
C3
ENDCHAR
STARTCHAR Å
ENCODING -59
SWIDTH 75 0
DWIDTH -1 0
BBX 8 15 0 1
BITMAP
10
28
10
7E
FF
C3
C3
C3
C3
FF
FF
C3
C3
C3
C3
ENDCHAR
STARTCHAR Æ
ENCODING -58
SWIDTH 75 0
DWIDTH -1 0
BBX 9 14 0 1
BITMAP
7F80
FF80
CC00
CC00
CC00
FF00
FF00
CC00
CC00
CC00
CC00
CC00
CF80
CF80
ENDCHAR
STARTCHAR Ç
ENCODING -57
SWIDTH 75 0
DWIDTH -1 0
BBX 8 15 0 0
BITMAP
7E
FF
C3
C0
C0
C0
C0
C0
C0
C0
C3
FF
7E
08
30
ENDCHAR
STARTCHAR È
ENCODING -56
SWIDTH 75 0
DWIDTH -1 0
BBX 8 15 0 1
BITMAP
30
18
0C
FF
FF
C0
C0
C0
FE
FE
C0
C0
C0
FF
FF
ENDCHAR
STARTCHAR É
ENCODING -55
SWIDTH 75 0
DWIDTH -1 0
BBX 8 15 0 1
BITMAP
0C
18
30
FF
FF
C0
C0
C0
FE
FE
C0
C0
C0
FF
FF
ENDCHAR
STARTCHAR Ê
ENCODING -54
SWIDTH 75 0
DWIDTH -1 0
BBX 8 15 0 1
BITMAP
18
3C
66
FF
FF
C0
C0
C0
FE
FE
C0
C0
C0
FF
FF
ENDCHAR
STARTCHAR Ë
ENCODING -53
SWIDTH 75 0
DWIDTH -1 0
BBX 8 15 0 1
BITMAP
66
66
00
FF
FF
C0
C0
C0
FE
FE
C0
C0
C0
FF
FF
ENDCHAR
STARTCHAR Ì
ENCODING -52
SWIDTH 75 0
DWIDTH -1 0
BBX 4 15 0 1
BITMAP
C0
60
30
60
60
60
60
60
60
60
60
60
60
60
60
ENDCHAR
STARTCHAR Í
ENCODING -51
SWIDTH 75 0
DWIDTH -1 0
BBX 4 15 0 1
BITMAP
30
60
C0
60
60
60
60
60
60
60
60
60
60
60
60
ENDCHAR
STARTCHAR Î
ENCODING -50
SWIDTH 75 0
DWIDTH -1 0
BBX 6 15 0 1
BITMAP
30
78
CC
30
30
30
30
30
30
30
30
30
30
30
30
ENDCHAR
STARTCHAR Ï
ENCODING -49
SWIDTH 75 0
DWIDTH -1 0
BBX 6 15 0 1
BITMAP
CC
CC
00
30
30
30
30
30
30
30
30
30
30
30
30
ENDCHAR
STARTCHAR Ð
ENCODING -48
SWIDTH 75 0
DWIDTH -1 0
BBX 8 14 0 1
BITMAP
7E
7F
63
63
63
F3
F3
63
63
63
63
63
7F
7E
ENDCHAR
STARTCHAR Ñ
ENCODING -47
SWIDTH 75 0
DWIDTH -1 0
BBX 8 15 0 1
BITMAP
71
DB
8E
C3
E3
F3
DB
CF
C7
C3
C3
C3
C3
C3
C3
ENDCHAR
STARTCHAR Ò
ENCODING -46
SWIDTH 75 0
DWIDTH -1 0
BBX 8 15 0 1
BITMAP
60
30
18
7E
FF
C3
C3
C3
C3
C3
C3
C3
C3
FF
7E
ENDCHAR
STARTCHAR Ó
ENCODING -45
SWIDTH 75 0
DWIDTH -1 0
BBX 8 15 0 1
BITMAP
06
0C
18
7E
FF
C3
C3
C3
C3
C3
C3
C3
C3
FF
7E
ENDCHAR
STARTCHAR Ô
ENCODING -44
SWIDTH 75 0
DWIDTH -1 0
BBX 8 15 0 1
BITMAP
18
3C
66
7E
FF
C3
C3
C3
C3
C3
C3
C3
C3
FF
7E
ENDCHAR
STARTCHAR Õ
ENCODING -43
SWIDTH 75 0
DWIDTH -1 0
BBX 8 15 0 1
BITMAP
71
DB
8E
7E
FF
C3
C3
C3
C3
C3
C3
C3
C3
FF
7E
ENDCHAR
STARTCHAR Ö
ENCODING -42
SWIDTH 75 0
DWIDTH -1 0
BBX 8 15 0 1
BITMAP
66
66
00
7E
FF
C3
C3
C3
C3
C3
C3
C3
C3
FF
7E
ENDCHAR
STARTCHAR ×
ENCODING -41
SWIDTH 75 0
DWIDTH -1 0
BBX 7 7 0 6
BITMAP
C6
EE
7C
38
7C
EE
C6
ENDCHAR
STARTCHAR Ø
ENCODING -40
SWIDTH 75 0
DWIDTH -1 0
BBX 8 16 0 0
BITMAP
0C
7E
FF
DB
DB
DB
DB
DB
DB
DB
DB
DB
DB
FF
7E
30
ENDCHAR
STARTCHAR Ù
ENCODING -39
SWIDTH 75 0
DWIDTH -1 0
BBX 8 15 0 1
BITMAP
60
30
18
C3
C3
C3
C3
C3
C3
C3
C3
C3
C3
FF
7E
ENDCHAR
STARTCHAR Ú
ENCODING -38
SWIDTH 75 0
DWIDTH -1 0
BBX 8 15 0 1
BITMAP
06
0C
18
C3
C3
C3
C3
C3
C3
C3
C3
C3
C3
FF
7E
ENDCHAR
STARTCHAR Û
ENCODING -37
SWIDTH 75 0
DWIDTH -1 0
BBX 8 15 0 1
BITMAP
18
3C
66
C3
C3
C3
C3
C3
C3
C3
C3
C3
C3
FF
7E
ENDCHAR
STARTCHAR Ü
ENCODING -36
SWIDTH 75 0
DWIDTH -1 0
BBX 8 15 0 1
BITMAP
66
66
00
C3
C3
C3
C3
C3
C3
C3
C3
C3
C3
FF
7E
ENDCHAR
STARTCHAR Ý
ENCODING -35
SWIDTH 75 0
DWIDTH -1 0
BBX 8 15 0 1
BITMAP
0C
18
00
C3
C3
C3
C3
C3
E7
7E
3C
18
18
18
18
ENDCHAR
STARTCHAR Þ
ENCODING -34
SWIDTH 75 0
DWIDTH -1 0
BBX 8 12 0 1
BITMAP
C0
C0
C0
FE
FF
C3
C3
FF
FE
C0
C0
C0
ENDCHAR
STARTCHAR ß
ENCODING -33
SWIDTH 75 0
DWIDTH -1 0
BBX 8 15 0 0
BITMAP
7C
FE
C6
C6
C6
CE
DC
DE
C7
C3
C3
C3
DF
DE
C0
ENDCHAR
STARTCHAR à
ENCODING -32
SWIDTH 75 0
DWIDTH -1 0
BBX 8 13 0 1
BITMAP
30
18
0C
00
7E
7F
03
7F
FF
C3
C3
FF
7F
ENDCHAR
STARTCHAR á
ENCODING -31
SWIDTH 75 0
DWIDTH -1 0
BBX 8 13 0 1
BITMAP
0C
18
30
00
7E
7F
03
7F
FF
C3
C3
FF
7F
ENDCHAR
STARTCHAR â
ENCODING -30
SWIDTH 75 0
DWIDTH -1 0
BBX 8 13 0 1
BITMAP
18
3C
66
00
7E
7F
03
7F
FF
C3
C3
FF
7F
ENDCHAR
STARTCHAR ã
ENCODING -29
SWIDTH 75 0
DWIDTH -1 0
BBX 8 13 0 1
BITMAP
71
DB
8E
00
7E
7F
03
7F
FF
C3
C3
FF
7F
ENDCHAR
STARTCHAR ä
ENCODING -28
SWIDTH 75 0
DWIDTH -1 0
BBX 8 12 0 1
BITMAP
66
66
00
7E
7F
03
7F
FF
C3
C3
FF
7F
ENDCHAR
STARTCHAR å
ENCODING -27
SWIDTH 75 0
DWIDTH -1 0
BBX 8 13 0 1
BITMAP
10
28
10
00
7E
7F
03
7F
FF
C3
C3
FF
7F
ENDCHAR
STARTCHAR æ
ENCODING -26
SWIDTH 75 0
DWIDTH -1 0
BBX 9 9 0 1
BITMAP
7700
7F80
1980
7F80
FF00
D800
D800
FF80
7700
ENDCHAR
STARTCHAR ç
ENCODING -25
SWIDTH 75 0
DWIDTH -1 0
BBX 8 10 0 0
BITMAP
7E
FF
C3
C0
C0
C3
FF
7E
08
30
ENDCHAR
STARTCHAR è
ENCODING -24
SWIDTH 75 0
DWIDTH -1 0
BBX 8 13 0 1
BITMAP
30
18
0C
00
7E
FF
C3
FF
FE
C0
C0
FF
7E
ENDCHAR
STARTCHAR é
ENCODING -23
SWIDTH 75 0
DWIDTH -1 0
BBX 8 13 0 1
BITMAP
0C
18
30
00
7E
FF
C3
FF
FE
C0
C0
FF
7E
ENDCHAR
STARTCHAR ê
ENCODING -22
SWIDTH 75 0
DWIDTH -1 0
BBX 8 13 0 1
BITMAP
18
3C
66
00
7E
FF
C3
FF
FE
C0
C0
FF
7E
ENDCHAR
STARTCHAR ë
ENCODING -21
SWIDTH 75 0
DWIDTH -1 0
BBX 8 12 0 1
BITMAP
66
66
00
7E
FF
C3
FF
FE
C0
C0
FF
7E
ENDCHAR
STARTCHAR ì
ENCODING -20
SWIDTH 75 0
DWIDTH -1 0
BBX 4 13 0 1
BITMAP
C0
60
30
00
60
60
60
60
60
60
60
60
60
ENDCHAR
STARTCHAR í
ENCODING -19
SWIDTH 75 0
DWIDTH -1 0
BBX 9 13 0 1
BITMAP
3000
6000
C080
0000
6000
6000
6000
6000
6000
6000
6000
6000
6000
ENDCHAR
STARTCHAR î
ENCODING -18
SWIDTH 75 0
DWIDTH -1 0
BBX 5 13 0 1
BITMAP
60
F0
98
00
60
60
60
60
60
60
60
60
60
ENDCHAR
STARTCHAR ï
ENCODING -17
SWIDTH 75 0
DWIDTH -1 0
BBX 6 12 0 1
BITMAP
CC
CC
00
30
30
30
30
30
30
30
30
30
ENDCHAR
STARTCHAR ð
ENCODING -16
SWIDTH 75 0
DWIDTH -1 0
BBX 8 13 0 1
BITMAP
90
60
90
18
7E
FF
C3
C3
C3
C3
C3
FF
7E
ENDCHAR
STARTCHAR ñ
ENCODING -15
SWIDTH 75 0
DWIDTH -1 0
BBX 8 13 0 1
BITMAP
71
DB
8E
00
DE
FF
E3
C3
C3
C3
C3
C3
C3
ENDCHAR
STARTCHAR ò
ENCODING -14
SWIDTH 75 0
DWIDTH -1 0
BBX 8 13 0 1
BITMAP
30
18
0C
00
7E
FF
C3
C3
C3
C3
C3
FF
7E
ENDCHAR
STARTCHAR ó
ENCODING -13
SWIDTH 75 0
DWIDTH -1 0
BBX 8 13 0 1
BITMAP
0C
18
30
00
7E
FF
C3
C3
C3
C3
C3
FF
7E
ENDCHAR
STARTCHAR ô
ENCODING -12
SWIDTH 75 0
DWIDTH -1 0
BBX 8 13 0 1
BITMAP
18
3C
66
00
7E
FF
C3
C3
C3
C3
C3
FF
7E
ENDCHAR
STARTCHAR õ
ENCODING -11
SWIDTH 75 0
DWIDTH -1 0
BBX 8 13 0 1
BITMAP
71
DB
8E
00
7E
FF
C3
C3
C3
C3
C3
FF
7E
ENDCHAR
STARTCHAR ö
ENCODING -10
SWIDTH 75 0
DWIDTH -1 0
BBX 8 12 0 1
BITMAP
66
66
00
7E
FF
C3
C3
C3
C3
C3
FF
7E
ENDCHAR
STARTCHAR ÷
ENCODING -9
SWIDTH 75 0
DWIDTH -1 0
BBX 8 8 0 3
BITMAP
18
18
00
FF
FF
00
18
18
ENDCHAR
STARTCHAR ø
ENCODING -8
SWIDTH 75 0
DWIDTH -1 0
BBX 8 11 0 0
BITMAP
18
7E
FF
DB
DB
DB
DB
DB
FF
7E
18
ENDCHAR
STARTCHAR ù
ENCODING -7
SWIDTH 75 0
DWIDTH -1 0
BBX 8 12 0 1
BITMAP
30
18
00
C3
C3
C3
C3
C3
C3
C7
FF
7B
ENDCHAR
STARTCHAR ú
ENCODING -6
SWIDTH 75 0
DWIDTH -1 0
BBX 8 12 0 1
BITMAP
0C
18
00
C3
C3
C3
C3
C3
C3
C7
FF
7B
ENDCHAR
STARTCHAR û
ENCODING -5
SWIDTH 75 0
DWIDTH -1 0
BBX 8 12 0 1
BITMAP
18
24
00
C3
C3
C3
C3
C3
C3
C7
FF
7B
ENDCHAR
STARTCHAR ü
ENCODING -4
SWIDTH 75 0
DWIDTH -1 0
BBX 8 12 0 1
BITMAP
66
66
00
C3
C3
C3
C3
C3
C3
C7
FF
7B
ENDCHAR
STARTCHAR ý
ENCODING -3
SWIDTH 75 0
DWIDTH -1 0
BBX 8 13 0 0
BITMAP
0C
18
00
C3
C3
C3
C3
C3
FF
7F
03
FF
7E
ENDCHAR
STARTCHAR þ
ENCODING -2
SWIDTH 75 0
DWIDTH -1 0
BBX 8 14 0 1
BITMAP
C0
C0
C0
FE
FF
C3
C3
C3
C3
FF
FE
C0
C0
C0
ENDCHAR
STARTCHAR ÿ
ENCODING -1
SWIDTH 75 0
DWIDTH -1 0
BBX 8 13 0 0
BITMAP
66
66
00
C3
C3
C3
C3
C3
FF
7F
03
FF
7E
ENDCHAR
ENDFONT
