STARTFONT 2.1
COMMENT Lumiplan font build using LumiStudio
FONT Duhamel 20/20 3-Normal
SIZE 20 75 75
FONTBOUNDINGBOX 13 20 0 0
STARTPROPERTIES 1
Copyright "Copyright (c) 2021 Lumiplan"
ENDPROPERTIES
CHARS 189
STARTCHAR 
ENCODING 14
SWIDTH 75 0
DWIDTH -1 0
BBX 0 0 1 19
ENDCHAR
STARTCHAR  
ENCODING 32
SWIDTH 75 0
DWIDTH -1 0
BBX 0 0 2 19
ENDCHAR
STARTCHAR !
ENCODING 33
SWIDTH 75 0
DWIDTH -1 0
BBX 4 20 0 0
BITMAP
F0
F0
F0
F0
F0
F0
F0
F0
F0
F0
F0
F0
F0
F0
F0
00
F0
F0
F0
F0
ENDCHAR
STARTCHAR "
ENCODING 34
SWIDTH 75 0
DWIDTH -1 0
BBX 9 5 0 15
BITMAP
3B80
3B80
7700
6600
CC00
ENDCHAR
STARTCHAR #
ENCODING 35
SWIDTH 75 0
DWIDTH -1 0
BBX 13 16 0 2
BITMAP
78F0
78F0
78F0
FFF8
FFF8
FFF8
FFF8
78F0
78F0
FFF8
FFF8
FFF8
FFF8
78F0
78F0
78F0
ENDCHAR
STARTCHAR $
ENCODING 36
SWIDTH 75 0
DWIDTH -1 0
BBX 13 20 0 0
BITMAP
0500
3FE0
7FF0
FFF8
FFF8
F578
F578
F500
7D00
1F00
07C0
05F0
0578
F578
F578
FFF8
FFF8
7FF0
3FE0
0500
ENDCHAR
STARTCHAR %
ENCODING 37
SWIDTH 75 0
DWIDTH -1 0
BBX 13 20 0 0
BITMAP
F1E0
F1E0
F1E0
F3E0
03E0
03C0
07C0
07C0
0780
0F80
0F80
0F00
1F00
1F00
1E00
3E00
3E78
3C78
3C78
3C78
ENDCHAR
STARTCHAR &
ENCODING 38
SWIDTH 75 0
DWIDTH -1 0
BBX 13 20 0 0
BITMAP
0F80
1FC0
3FE0
38E0
38E0
38E0
39E0
1B80
1F00
3F00
FE00
F700
E318
E3B8
E3B0
E1E0
F3E0
FFE0
3FF8
3FB8
ENDCHAR
STARTCHAR '
ENCODING 39
SWIDTH 75 0
DWIDTH -1 0
BBX 5 5 0 15
BITMAP
38
38
70
60
C0
ENDCHAR
STARTCHAR (
ENCODING 40
SWIDTH 75 0
DWIDTH -1 0
BBX 7 20 0 0
BITMAP
3E
7E
FC
F8
F0
F0
F0
F0
F0
F0
F0
F0
F0
F0
F0
F0
F8
FC
7E
3E
ENDCHAR
STARTCHAR )
ENCODING 41
SWIDTH 75 0
DWIDTH -1 0
BBX 7 20 0 0
BITMAP
F8
FC
7E
3E
1E
1E
1E
1E
1E
1E
1E
1E
1E
1E
1E
1E
3E
7E
FC
F8
ENDCHAR
STARTCHAR *
ENCODING 42
SWIDTH 75 0
DWIDTH -1 0
BBX 11 11 0 9
BITMAP
CE60
EEE0
7FC0
3F80
FFE0
FFE0
FFE0
3F80
7FC0
EEE0
CE60
ENDCHAR
STARTCHAR +
ENCODING 43
SWIDTH 75 0
DWIDTH -1 0
BBX 12 12 0 5
BITMAP
0F00
0F00
0F00
0F00
FFF0
FFF0
FFF0
FFF0
0F00
0F00
0F00
0F00
ENDCHAR
STARTCHAR ,
ENCODING 44
SWIDTH 75 0
DWIDTH -1 0
BBX 6 6 0 0
BITMAP
3C
3C
3C
3C
70
C0
ENDCHAR
STARTCHAR -
ENCODING 45
SWIDTH 75 0
DWIDTH -1 0
BBX 10 4 0 9
BITMAP
FFC0
FFC0
FFC0
FFC0
ENDCHAR
STARTCHAR .
ENCODING 46
SWIDTH 75 0
DWIDTH -1 0
BBX 4 4 0 0
BITMAP
F0
F0
F0
F0
ENDCHAR
STARTCHAR /
ENCODING 47
SWIDTH 75 0
DWIDTH -1 0
BBX 12 20 0 0
BITMAP
00F0
00F0
01F0
01F0
03E0
03E0
07C0
07C0
0F80
0F80
1F00
1F00
3E00
3E00
7C00
7C00
F800
F800
F000
F000
ENDCHAR
STARTCHAR 0
ENCODING 48
SWIDTH 75 0
DWIDTH -1 0
BBX 12 20 0 0
BITMAP
0F00
3FC0
7FE0
7FE0
F9F0
F0F0
F0F0
F0F0
F0F0
F0F0
F0F0
F0F0
F0F0
F0F0
F0F0
F9F0
7FE0
7FE0
3FC0
0F00
ENDCHAR
STARTCHAR 1
ENCODING 49
SWIDTH 75 0
DWIDTH -1 0
BBX 8 20 0 0
BITMAP
0F
1F
3F
7F
FF
EF
0F
0F
0F
0F
0F
0F
0F
0F
0F
0F
0F
0F
0F
0F
ENDCHAR
STARTCHAR 2
ENCODING 50
SWIDTH 75 0
DWIDTH -1 0
BBX 13 20 0 0
BITMAP
0F80
3FE0
7FF0
7FF0
F8F8
F078
0078
0078
0078
00F8
01F0
03E0
07C0
0F80
1F00
3E00
7FF8
FFF8
FFF8
FFF8
ENDCHAR
STARTCHAR 3
ENCODING 51
SWIDTH 75 0
DWIDTH -1 0
BBX 13 20 0 0
BITMAP
0F80
3FE0
7FF0
7FF0
F8F8
F078
0078
00F8
01F0
03E0
03E0
01F0
00F8
0078
F078
F8F8
7FF0
7FF0
3FE0
0F80
ENDCHAR
STARTCHAR 4
ENCODING 52
SWIDTH 75 0
DWIDTH -1 0
BBX 13 20 0 0
BITMAP
00F0
01F0
03F0
07F0
0FF0
1EF0
3CF0
78F0
F0F0
E0F0
E0F0
E0F0
E0F0
FFF8
FFF8
FFF8
FFF8
00F0
00F0
00F0
ENDCHAR
STARTCHAR 5
ENCODING 53
SWIDTH 75 0
DWIDTH -1 0
BBX 13 20 0 0
BITMAP
FFF0
FFF0
FFF0
FFF0
F000
F000
F000
FFC0
FFF0
FFF0
FFF8
00F8
0078
0078
0078
F8F8
FFF0
7FF0
3FE0
1F80
ENDCHAR
STARTCHAR 6
ENCODING 54
SWIDTH 75 0
DWIDTH -1 0
BBX 13 20 0 0
BITMAP
07F0
1FF0
3FF0
7FF0
7800
F000
F000
FFC0
FFF0
FFF0
FFF8
F8F8
F078
F078
F078
F8F8
7FF0
7FF0
3FE0
0F80
ENDCHAR
STARTCHAR 7
ENCODING 55
SWIDTH 75 0
DWIDTH -1 0
BBX 13 20 0 0
BITMAP
FFF8
FFF8
FFF8
FFF8
0078
00F8
00F0
01F0
01E0
03E0
03C0
07C0
0780
0F80
0F00
1F00
1E00
1E00
1E00
1E00
ENDCHAR
STARTCHAR 8
ENCODING 56
SWIDTH 75 0
DWIDTH -1 0
BBX 13 20 0 0
BITMAP
0F80
3FE0
7FF0
FFF8
F8F8
F078
F078
F8F8
FFF8
7FF0
7FF0
FFF8
F8F8
F078
F078
F8F8
7FF0
7FF0
3FE0
0F80
ENDCHAR
STARTCHAR 9
ENCODING 57
SWIDTH 75 0
DWIDTH -1 0
BBX 13 20 0 0
BITMAP
0F80
3FE0
7FF0
7FF0
F8F8
F078
F078
F8F8
FFF8
7FF8
7FF8
1FF8
0078
0078
0078
00F0
7FF0
7FE0
7FC0
7F00
ENDCHAR
STARTCHAR :
ENCODING 58
SWIDTH 75 0
DWIDTH -1 0
BBX 4 11 0 2
BITMAP
F0
F0
F0
F0
00
00
00
F0
F0
F0
F0
ENDCHAR
STARTCHAR ;
ENCODING 59
SWIDTH 75 0
DWIDTH -1 0
BBX 6 13 0 0
BITMAP
3C
3C
3C
3C
00
00
00
3C
3C
3C
3C
70
C0
ENDCHAR
STARTCHAR <
ENCODING 60
SWIDTH 75 0
DWIDTH -1 0
BBX 10 20 0 0
BITMAP
01C0
03C0
07C0
0FC0
1F00
3E00
7C00
F800
F000
E000
E000
F000
F800
7C00
3E00
1F00
0FC0
07C0
03C0
01C0
ENDCHAR
STARTCHAR =
ENCODING 61
SWIDTH 75 0
DWIDTH -1 0
BBX 9 11 0 3
BITMAP
FF80
FF80
FF80
FF80
0000
0000
0000
FF80
FF80
FF80
FF80
ENDCHAR
STARTCHAR >
ENCODING 62
SWIDTH 75 0
DWIDTH -1 0
BBX 10 20 0 0
BITMAP
E000
F000
F800
FC00
3E00
1F00
0F80
07C0
03C0
01C0
01C0
03C0
07C0
0F80
1F00
3E00
FC00
F800
F000
E000
ENDCHAR
STARTCHAR ?
ENCODING 63
SWIDTH 75 0
DWIDTH -1 0
BBX 13 20 0 0
BITMAP
0F80
3FE0
7FF0
7FF0
F8F8
F078
F078
00F0
01E0
03C0
0780
0780
0780
0780
0780
0000
0780
0780
0780
0780
ENDCHAR
STARTCHAR @
ENCODING 64
SWIDTH 75 0
DWIDTH -1 0
BBX 13 20 0 0
BITMAP
1FE0
3FF0
7FF8
F078
E038
E738
EFB8
EFB8
EDB8
EDF8
EDF8
EDF8
EFB8
E738
E038
E000
F078
7FF8
3FF0
1FE0
ENDCHAR
STARTCHAR A
ENCODING 65
SWIDTH 75 0
DWIDTH -1 0
BBX 13 20 0 0
BITMAP
1FC0
3FE0
7FF0
FFF8
F8F8
F078
F078
F078
FFF8
FFF8
FFF8
FFF8
F078
F078
F078
F078
F078
F078
F078
F078
ENDCHAR
STARTCHAR B
ENCODING 66
SWIDTH 75 0
DWIDTH -1 0
BBX 13 20 0 0
BITMAP
FFC0
FFE0
FFF0
FFF8
F0F8
F078
F078
F0F0
FFF0
FFE0
FFE0
FFF0
F0F0
F078
F078
F0F8
FFF8
FFF0
FFE0
FFC0
ENDCHAR
STARTCHAR C
ENCODING 67
SWIDTH 75 0
DWIDTH -1 0
BBX 13 20 0 0
BITMAP
0F80
3FE0
7FF0
7FF0
F8F8
F078
F078
F000
F000
F000
F000
F000
F000
F078
F078
F8F8
7FF0
7FF0
3FE0
0F80
ENDCHAR
STARTCHAR D
ENCODING 68
SWIDTH 75 0
DWIDTH -1 0
BBX 13 20 0 0
BITMAP
FF80
FFE0
FFF0
FFF0
F0F8
F078
F078
F078
F078
F078
F078
F078
F078
F078
F078
F0F8
FFF0
FFF0
FFE0
FF80
ENDCHAR
STARTCHAR E
ENCODING 69
SWIDTH 75 0
DWIDTH -1 0
BBX 13 20 0 0
BITMAP
FFF8
FFF8
FFF8
FFF8
F000
F000
F000
F000
FFE0
FFE0
FFE0
FFE0
F000
F000
F000
F000
FFF8
FFF8
FFF8
FFF8
ENDCHAR
STARTCHAR F
ENCODING 70
SWIDTH 75 0
DWIDTH -1 0
BBX 13 20 0 0
BITMAP
FFF8
FFF8
FFF8
FFF8
F000
F000
F000
F000
FFE0
FFE0
FFE0
FFE0
F000
F000
F000
F000
F000
F000
F000
F000
ENDCHAR
STARTCHAR G
ENCODING 71
SWIDTH 75 0
DWIDTH -1 0
BBX 13 20 0 0
BITMAP
0F80
3FE0
7FF0
7FF0
F8F8
F078
F000
F000
F3F8
F3F8
F3F8
F3F8
F078
F078
F078
F8F8
7FF0
7FF0
3FE0
0F80
ENDCHAR
STARTCHAR H
ENCODING 72
SWIDTH 75 0
DWIDTH -1 0
BBX 13 20 0 0
BITMAP
F078
F078
F078
F078
F078
F078
F078
F078
FFF8
FFF8
FFF8
FFF8
F078
F078
F078
F078
F078
F078
F078
F078
ENDCHAR
STARTCHAR I
ENCODING 73
SWIDTH 75 0
DWIDTH -1 0
BBX 4 20 0 0
BITMAP
F0
F0
F0
F0
F0
F0
F0
F0
F0
F0
F0
F0
F0
F0
F0
F0
F0
F0
F0
F0
ENDCHAR
STARTCHAR J
ENCODING 74
SWIDTH 75 0
DWIDTH -1 0
BBX 13 20 0 0
BITMAP
0078
0078
0078
0078
0078
0078
0078
0078
0078
0078
0078
0078
F078
F078
F078
F8F8
7FF0
7FF0
3FE0
0F80
ENDCHAR
STARTCHAR K
ENCODING 75
SWIDTH 75 0
DWIDTH -1 0
BBX 13 20 0 0
BITMAP
F038
F078
F0F8
F1F8
F3F8
F7F0
FFE0
FFC0
FF80
FF00
FF00
FF80
FFC0
FFE0
F7F0
F3F8
F1F8
F0F8
F078
F038
ENDCHAR
STARTCHAR L
ENCODING 76
SWIDTH 75 0
DWIDTH -1 0
BBX 11 20 0 0
BITMAP
F000
F000
F000
F000
F000
F000
F000
F000
F000
F000
F000
F000
F000
F000
F000
F000
FFE0
FFE0
FFE0
FFE0
ENDCHAR
STARTCHAR M
ENCODING 77
SWIDTH 75 0
DWIDTH -1 0
BBX 13 20 0 0
BITMAP
C018
E038
F078
F8F8
FDF8
FFF8
FFF8
FFF8
F778
F278
F078
F078
F078
F078
F078
F078
F078
F078
F078
F078
ENDCHAR
STARTCHAR N
ENCODING 78
SWIDTH 75 0
DWIDTH -1 0
BBX 13 20 0 0
BITMAP
C078
E078
F078
F878
FC78
FE78
FF78
FFF8
F7F8
F3F8
F1F8
F0F8
F078
F078
F078
F078
F078
F078
F078
F078
ENDCHAR
STARTCHAR O
ENCODING 79
SWIDTH 75 0
DWIDTH -1 0
BBX 13 20 0 0
BITMAP
0F80
3FE0
7FF0
7FF0
F8F8
F078
F078
F078
F078
F078
F078
F078
F078
F078
F078
F8F8
7FF0
7FF0
3FE0
0F80
ENDCHAR
STARTCHAR P
ENCODING 80
SWIDTH 75 0
DWIDTH -1 0
BBX 13 20 0 0
BITMAP
FF80
FFE0
FFF0
FFF0
F0F8
F078
F078
F0F8
FFF0
FFF0
FFE0
FF80
F000
F000
F000
F000
F000
F000
F000
F000
ENDCHAR
STARTCHAR Q
ENCODING 81
SWIDTH 75 0
DWIDTH -1 0
BBX 13 20 0 0
BITMAP
0F80
3FE0
7FF0
7FF0
F8F8
F078
F078
F078
F078
F078
F078
F078
F078
F378
F3B8
F9D0
7EE0
7F70
3FB8
0F18
ENDCHAR
STARTCHAR R
ENCODING 82
SWIDTH 75 0
DWIDTH -1 0
BBX 13 20 0 0
BITMAP
FF80
FFE0
FFF0
FFF0
F0F8
F078
F078
F0F8
FFF0
FFF0
FFE0
FFF0
F0F0
F078
F078
F078
F078
F078
F078
F078
ENDCHAR
STARTCHAR S
ENCODING 83
SWIDTH 75 0
DWIDTH -1 0
BBX 13 20 0 0
BITMAP
0F80
3FE0
7FF0
7FF0
F8F8
F000
F000
F800
FE00
7F80
0FF0
03F8
00F8
0078
0078
F8F8
7FF0
7FF0
3FE0
0F80
ENDCHAR
STARTCHAR T
ENCODING 84
SWIDTH 75 0
DWIDTH -1 0
BBX 10 20 0 0
BITMAP
FFC0
FFC0
FFC0
FFC0
1E00
1E00
1E00
1E00
1E00
1E00
1E00
1E00
1E00
1E00
1E00
1E00
1E00
1E00
1E00
1E00
ENDCHAR
STARTCHAR U
ENCODING 85
SWIDTH 75 0
DWIDTH -1 0
BBX 13 20 0 0
BITMAP
F078
F078
F078
F078
F078
F078
F078
F078
F078
F078
F078
F078
F078
F078
F078
F8F8
7FF0
7FF0
3FE0
0F80
ENDCHAR
STARTCHAR V
ENCODING 86
SWIDTH 75 0
DWIDTH -1 0
BBX 13 20 0 0
BITMAP
F078
F078
F078
F078
F078
F078
F078
F078
78F0
78F0
3DE0
3DE0
1FC0
1FC0
0F80
0F80
0700
0700
0200
0200
ENDCHAR
STARTCHAR W
ENCODING 87
SWIDTH 75 0
DWIDTH -1 0
BBX 13 20 0 0
BITMAP
F078
F078
F078
F078
F078
F078
F078
F078
F078
F078
F278
F778
FFF8
FFF8
FFF8
FDF8
F8F8
F078
E038
C018
ENDCHAR
STARTCHAR X
ENCODING 88
SWIDTH 75 0
DWIDTH -1 0
BBX 13 20 0 0
BITMAP
F078
F078
F078
F078
F8F8
7DF0
3FE0
1FC0
0F80
0700
0700
0F80
1FC0
3FE0
7DF0
F8F8
F078
F078
F078
F078
ENDCHAR
STARTCHAR Y
ENCODING 89
SWIDTH 75 0
DWIDTH -1 0
BBX 12 20 0 0
BITMAP
E070
E070
E070
F0F0
F0F0
79E0
79E0
3FC0
3FC0
1F80
1F80
0F00
0F00
0F00
0F00
0F00
0F00
0F00
0F00
0F00
ENDCHAR
STARTCHAR Z
ENCODING 90
SWIDTH 75 0
DWIDTH -1 0
BBX 13 20 0 0
BITMAP
FFF8
FFF8
FFF8
FFF8
0078
0078
00F8
01F0
03E0
07C0
0F80
1F00
3E00
7C00
F800
F800
FFF8
FFF8
FFF8
FFF8
ENDCHAR
STARTCHAR [
ENCODING 91
SWIDTH 75 0
DWIDTH -1 0
BBX 9 20 0 0
BITMAP
FF80
FF80
FF80
FF80
F000
F000
F000
F000
F000
F000
F000
F000
F000
F000
F000
F000
FF80
FF80
FF80
FF80
ENDCHAR
STARTCHAR \
ENCODING 92
SWIDTH 75 0
DWIDTH -1 0
BBX 12 20 0 0
BITMAP
F000
F000
F800
F800
7C00
7C00
3E00
3E00
1F00
1F00
0F80
0F80
07C0
07C0
03E0
03E0
01F0
01F0
00F0
00F0
ENDCHAR
STARTCHAR ]
ENCODING 93
SWIDTH 75 0
DWIDTH -1 0
BBX 9 20 0 0
BITMAP
FF80
FF80
FF80
FF80
0780
0780
0780
0780
0780
0780
0780
0780
0780
0780
0780
0780
FF80
FF80
FF80
FF80
ENDCHAR
STARTCHAR ^
ENCODING 94
SWIDTH 75 0
DWIDTH -1 0
BBX 13 9 0 11
BITMAP
0700
0F80
1FC0
3DE0
78F0
F078
E038
C018
8008
ENDCHAR
STARTCHAR _
ENCODING 95
SWIDTH 75 0
DWIDTH -1 0
BBX 13 4 0 1
BITMAP
FFF8
FFF8
FFF8
FFF8
ENDCHAR
STARTCHAR `
ENCODING 96
SWIDTH 75 0
DWIDTH -1 0
BBX 5 5 0 15
BITMAP
E0
E0
70
30
18
ENDCHAR
STARTCHAR a
ENCODING 97
SWIDTH 75 0
DWIDTH -1 0
BBX 13 14 0 0
BITMAP
1F80
3FE0
3FF0
3FF0
0078
3F78
7FF8
FFF8
F078
F078
FFF8
FFF8
7FF8
3FB8
ENDCHAR
STARTCHAR b
ENCODING 98
SWIDTH 75 0
DWIDTH -1 0
BBX 13 20 0 0
BITMAP
F000
F000
F000
F000
F000
F000
F780
FFE0
FFF0
FFF0
F8F8
F078
F078
F078
F078
F8F8
FFF0
FFF0
FFE0
F780
ENDCHAR
STARTCHAR c
ENCODING 99
SWIDTH 75 0
DWIDTH -1 0
BBX 13 14 0 0
BITMAP
0F80
3FE0
7FF0
7FF0
F8F8
F078
F000
F000
F078
F8F8
7FF0
7FF0
3FE0
0F80
ENDCHAR
STARTCHAR d
ENCODING 100
SWIDTH 75 0
DWIDTH -1 0
BBX 13 20 0 0
BITMAP
0078
0078
0078
0078
0078
0078
0F78
3FF8
7FF8
7FF8
F8F8
F078
F078
F078
F078
F8F8
7FF8
7FF8
3FF8
0F78
ENDCHAR
STARTCHAR e
ENCODING 101
SWIDTH 75 0
DWIDTH -1 0
BBX 13 14 0 0
BITMAP
0F80
3FE0
7FF0
7FF0
F8F8
F078
FFF8
FFF0
FFE0
F000
F8F8
7FF0
7FF0
3FE0
ENDCHAR
STARTCHAR f
ENCODING 102
SWIDTH 75 0
DWIDTH -1 0
BBX 13 20 0 0
BITMAP
0780
1FE0
3FF0
3FF0
7CF8
7878
7800
7800
7800
FF00
FF00
FF00
FF00
7800
7800
7800
7800
7800
7800
7800
ENDCHAR
STARTCHAR g
ENCODING 103
SWIDTH 75 0
DWIDTH -1 0
BBX 11 14 0 0
BITMAP
3EE0
7FE0
FFE0
FFE0
F1E0
F1E0
FFE0
7FE0
3DE0
01E0
01E0
FFE0
7FC0
3F80
ENDCHAR
STARTCHAR h
ENCODING 104
SWIDTH 75 0
DWIDTH -1 0
BBX 13 20 0 0
BITMAP
F000
F000
F000
F000
F000
F000
F780
FFE0
FFF0
FFF0
F8F8
F078
F078
F078
F078
F078
F078
F078
F078
F078
ENDCHAR
STARTCHAR i
ENCODING 105
SWIDTH 75 0
DWIDTH -1 0
BBX 4 20 0 0
BITMAP
F0
F0
F0
F0
00
00
F0
F0
F0
F0
F0
F0
F0
F0
F0
F0
F0
F0
F0
F0
ENDCHAR
STARTCHAR j
ENCODING 106
SWIDTH 75 0
DWIDTH -1 0
BBX 13 20 0 0
BITMAP
0078
0078
0078
0078
0000
0000
0078
0078
0078
0078
0078
0078
0078
0078
F078
F8F8
7FF0
7FF0
3FE0
0F80
ENDCHAR
STARTCHAR k
ENCODING 107
SWIDTH 75 0
DWIDTH -1 0
BBX 12 20 0 0
BITMAP
F000
F000
F000
F000
F000
F000
F0F0
F1F0
F3F0
F7E0
FFC0
FF80
FF00
FF00
FF80
FFC0
F7E0
F3F0
F1F0
F0F0
ENDCHAR
STARTCHAR l
ENCODING 108
SWIDTH 75 0
DWIDTH -1 0
BBX 4 20 0 0
BITMAP
F0
F0
F0
F0
F0
F0
F0
F0
F0
F0
F0
F0
F0
F0
F0
F0
F0
F0
F0
F0
ENDCHAR
STARTCHAR m
ENCODING 109
SWIDTH 75 0
DWIDTH -1 0
BBX 13 14 0 0
BITMAP
D8E0
FDF0
FFF8
FFF8
F778
F778
F778
F778
F778
F778
F778
F778
F778
F778
ENDCHAR
STARTCHAR n
ENCODING 110
SWIDTH 75 0
DWIDTH -1 0
BBX 13 14 0 0
BITMAP
EF80
FFE0
FFF0
FFF0
F8F8
F078
F078
F078
F078
F078
F078
F078
F078
F078
ENDCHAR
STARTCHAR o
ENCODING 111
SWIDTH 75 0
DWIDTH -1 0
BBX 13 14 0 0
BITMAP
0F80
3FE0
7FF0
7FF0
F8F8
F078
F078
F078
F078
F8F8
7FF0
7FF0
3FE0
0F80
ENDCHAR
STARTCHAR p
ENCODING 112
SWIDTH 75 0
DWIDTH -1 0
BBX 11 14 0 0
BITMAP
EF80
FFC0
FFE0
FFE0
F1E0
F1E0
FFE0
FFC0
F780
F000
F000
F000
F000
F000
ENDCHAR
STARTCHAR q
ENCODING 113
SWIDTH 75 0
DWIDTH -1 0
BBX 11 14 0 0
BITMAP
3EE0
7FE0
FFE0
FFE0
F1E0
F1E0
FFE0
7FE0
3DE0
01E0
01E0
01E0
01E0
01E0
ENDCHAR
STARTCHAR r
ENCODING 114
SWIDTH 75 0
DWIDTH -1 0
BBX 13 14 0 0
BITMAP
EFC0
FFE0
FFF0
FFF8
F878
F000
F000
F000
F000
F000
F000
F000
F000
F000
ENDCHAR
STARTCHAR s
ENCODING 115
SWIDTH 75 0
DWIDTH -1 0
BBX 13 14 0 0
BITMAP
1FC0
3FE0
7FF0
F8F8
F078
F800
7F80
0FF0
00F8
F078
F8F8
7FF0
3FE0
1FC0
ENDCHAR
STARTCHAR t
ENCODING 116
SWIDTH 75 0
DWIDTH -1 0
BBX 13 20 0 0
BITMAP
7800
7800
7800
7800
7800
7800
FF00
FF00
FF00
FF00
7800
7800
7800
7878
7878
7CF8
3FF0
3FF0
1FE0
0780
ENDCHAR
STARTCHAR u
ENCODING 117
SWIDTH 75 0
DWIDTH -1 0
BBX 13 14 0 0
BITMAP
F078
F078
F078
F078
F078
F078
F078
F078
F078
F8F8
7FF8
7FF8
3FF8
0FB8
ENDCHAR
STARTCHAR v
ENCODING 118
SWIDTH 75 0
DWIDTH -1 0
BBX 13 14 0 0
BITMAP
F078
F078
F078
F078
F078
F078
F078
F078
78F0
3DE0
1FC0
0F80
0700
0200
ENDCHAR
STARTCHAR w
ENCODING 119
SWIDTH 75 0
DWIDTH -1 0
BBX 13 14 0 0
BITMAP
F078
F078
F078
F078
F078
F078
F278
F778
FFF8
FFF8
FDF8
F8F8
F078
E038
ENDCHAR
STARTCHAR x
ENCODING 120
SWIDTH 75 0
DWIDTH -1 0
BBX 13 14 0 0
BITMAP
F078
F8F8
FDF8
7FF0
3FE0
1FC0
0F80
0F80
1FC0
3FE0
7FF0
FDF8
F8F8
F078
ENDCHAR
STARTCHAR y
ENCODING 121
SWIDTH 75 0
DWIDTH -1 0
BBX 11 14 0 0
BITMAP
F1E0
F1E0
F1E0
F1E0
F1E0
F1E0
FFE0
7FE0
3FE0
01E0
01E0
FFE0
7FC0
3F80
ENDCHAR
STARTCHAR z
ENCODING 122
SWIDTH 75 0
DWIDTH -1 0
BBX 13 14 0 0
BITMAP
FFF8
FFF8
FFF8
FFF8
0078
00F0
03C0
0F00
3C00
F000
FFF8
FFF8
FFF8
FFF8
ENDCHAR
STARTCHAR {
ENCODING 123
SWIDTH 75 0
DWIDTH -1 0
BBX 8 20 0 0
BITMAP
0F
1E
3C
3C
3C
3C
3C
3C
7C
F8
F8
7C
3C
3C
3C
3C
3C
3C
1E
0F
ENDCHAR
STARTCHAR |
ENCODING 124
SWIDTH 75 0
DWIDTH -1 0
BBX 4 20 0 0
BITMAP
F0
F0
F0
F0
F0
F0
F0
F0
F0
F0
F0
F0
F0
F0
F0
F0
F0
F0
F0
F0
ENDCHAR
STARTCHAR }
ENCODING 125
SWIDTH 75 0
DWIDTH -1 0
BBX 8 20 0 0
BITMAP
F0
78
3C
3C
3C
3C
3C
3C
3E
1F
1F
3E
3C
3C
3C
3C
3C
3C
78
F0
ENDCHAR
STARTCHAR ~
ENCODING 126
SWIDTH 75 0
DWIDTH -1 0
BBX 12 3 0 9
BITMAP
3C70
76E0
E3C0
ENDCHAR
STARTCHAR ¤
ENCODING -92
SWIDTH 75 0
DWIDTH -1 0
BBX 12 20 0 0
BITMAP
0FC0
3FE0
7FF0
7FF0
F870
F000
F000
FF80
FF80
F000
F000
FF80
FF80
F000
F000
F8F0
7FF0
7FF0
3FE0
0FC0
ENDCHAR
STARTCHAR ¦
ENCODING -90
SWIDTH 75 0
DWIDTH -1 0
BBX 13 20 0 0
BITMAP
38E0
1DC0
0F80
0000
3FE0
7FF0
FFF8
FFF8
F078
F800
FE00
7F80
1FE0
07F0
01F8
F078
FFF8
FFF8
7FF0
3FE0
ENDCHAR
STARTCHAR ¼
ENCODING -68
SWIDTH 75 0
DWIDTH -1 0
BBX 13 20 0 0
BITMAP
3DF8
7FF8
FFF8
FFF8
F3C0
F1C0
F1C0
F1C0
F1F0
F1F0
F1F0
F1F0
F1C0
F1C0
F1C0
F3C0
FFF8
FFF8
7FF8
3DF8
ENDCHAR
STARTCHAR ´
ENCODING -76
SWIDTH 75 0
DWIDTH -1 0
BBX 13 20 0 0
BITMAP
38E0
1DC0
0F80
0000
FFF8
FFF8
FFF8
FFF8
03F8
07F0
0FE0
1FC0
3F80
7F00
FE00
FC00
FFF8
FFF8
FFF8
FFF8
ENDCHAR
STARTCHAR ¨
ENCODING -88
SWIDTH 75 0
DWIDTH -1 0
BBX 13 18 0 0
BITMAP
38E0
1DC0
0F80
0000
1FC0
3FE0
7FF0
F078
F000
F800
7F80
0FF0
00F8
0078
F078
7FF0
3FE0
1FC0
ENDCHAR
STARTCHAR ½
ENCODING -67
SWIDTH 75 0
DWIDTH -1 0
BBX 13 14 0 0
BITMAP
1FE0
3FF0
7FF8
FFF8
E738
E738
E7F8
E7F8
E7F0
E700
FF98
7FF8
3FF8
1FF0
ENDCHAR
STARTCHAR ¸
ENCODING -72
SWIDTH 75 0
DWIDTH -1 0
BBX 13 18 0 0
BITMAP
38E0
1DC0
0F80
0000
FFF8
FFF8
FFF8
FFF8
0078
00F0
03C0
0F00
3C00
F000
FFF8
FFF8
FFF8
FFF8
ENDCHAR
STARTCHAR ¾
ENCODING -66
SWIDTH 75 0
DWIDTH -1 0
BBX 12 20 0 0
BITMAP
39C0
39C0
39C0
0000
E070
E070
E070
F0F0
F0F0
79E0
79E0
3FC0
3FC0
1F80
1F80
0F00
0F00
0F00
0F00
0F00
ENDCHAR
STARTCHAR ¡
ENCODING -95
SWIDTH 75 0
DWIDTH -1 0
BBX 4 20 0 0
BITMAP
F0
F0
F0
F0
00
F0
F0
F0
F0
F0
F0
F0
F0
F0
F0
F0
F0
F0
F0
F0
ENDCHAR
STARTCHAR ¢
ENCODING -94
SWIDTH 75 0
DWIDTH -1 0
BBX 13 16 0 0
BITMAP
0100
0F80
3FE0
7FF0
7FF0
FAF8
F278
F200
F200
F278
FAF8
7FF0
7FF0
3FE0
0F80
0400
ENDCHAR
STARTCHAR £
ENCODING -93
SWIDTH 75 0
DWIDTH -1 0
BBX 12 20 0 0
BITMAP
3FC0
7FE0
FFF0
FFF0
F0F0
F0F0
F000
F000
7000
7FC0
7FC0
7FC0
7800
7800
7800
7800
FFF0
FFF0
FFF0
FFF0
ENDCHAR
STARTCHAR ¥
ENCODING -91
SWIDTH 75 0
DWIDTH -1 0
BBX 13 20 0 0
BITMAP
F078
F078
F078
F078
F078
F078
F8F8
FDF8
FFF8
7FF0
3FE0
7FF0
7FF0
0F80
7FF0
7FF0
0F80
0F80
0F80
0F80
ENDCHAR
STARTCHAR §
ENCODING -89
SWIDTH 75 0
DWIDTH -1 0
BBX 13 20 0 0
BITMAP
1FC0
3FE0
7FF0
F078
F000
F800
7FC0
3FF0
7FF8
F078
F078
FFF0
7FE0
1FF0
00F8
0078
F078
7FF0
3FE0
1FC0
ENDCHAR
STARTCHAR ©
ENCODING -87
SWIDTH 75 0
DWIDTH -1 0
BBX 13 13 0 7
BITMAP
3FE0
7FF0
E038
CF98
DFD8
D8D8
D818
D8D8
DFD8
CF98
E038
7FF0
3FE0
ENDCHAR
STARTCHAR ª
ENCODING -86
SWIDTH 75 0
DWIDTH -1 0
BBX 5 6 0 14
BITMAP
70
88
08
78
88
78
ENDCHAR
STARTCHAR «
ENCODING -85
SWIDTH 75 0
DWIDTH -1 0
BBX 13 13 0 4
BITMAP
0618
0E38
1E78
3CF0
79E0
F3C0
E380
F3C0
79E0
3CF0
1E78
0E38
0618
ENDCHAR
STARTCHAR ¬
ENCODING -84
SWIDTH 75 0
DWIDTH -1 0
BBX 11 8 0 9
BITMAP
FFE0
FFE0
FFE0
FFE0
01E0
01E0
01E0
01E0
ENDCHAR
STARTCHAR ®
ENCODING -82
SWIDTH 75 0
DWIDTH -1 0
BBX 13 13 0 7
BITMAP
3FE0
7FF0
E038
DF98
DFD8
D8D8
D8D8
DF98
D8D8
D8D8
E038
7FF0
3FE0
ENDCHAR
STARTCHAR ¯
ENCODING -81
SWIDTH 75 0
DWIDTH -1 0
BBX 10 4 0 13
BITMAP
FFC0
FFC0
FFC0
FFC0
ENDCHAR
STARTCHAR °
ENCODING -80
SWIDTH 75 0
DWIDTH -1 0
BBX 6 6 0 14
BITMAP
78
FC
CC
CC
FC
78
ENDCHAR
STARTCHAR ±
ENCODING -79
SWIDTH 75 0
DWIDTH -1 0
BBX 13 18 0 0
BITMAP
0F80
0F80
0F80
0F80
FFF8
FFF8
FFF8
FFF8
FFF8
0F80
0F80
0F80
0F80
0000
FFF8
FFF8
FFF8
FFF8
ENDCHAR
STARTCHAR ²
ENCODING -78
SWIDTH 75 0
DWIDTH -1 0
BBX 6 9 0 11
BITMAP
30
78
CC
0C
18
30
60
FC
FC
ENDCHAR
STARTCHAR ³
ENCODING -77
SWIDTH 75 0
DWIDTH -1 0
BBX 6 9 0 11
BITMAP
70
F8
8C
0C
38
0C
8C
F8
70
ENDCHAR
STARTCHAR µ
ENCODING -75
SWIDTH 75 0
DWIDTH -1 0
BBX 13 16 0 0
BITMAP
F078
F078
F078
F078
F078
F8F8
FFF8
FFF8
FFF8
F778
F000
F000
F000
F000
F000
F000
ENDCHAR
STARTCHAR ·
ENCODING -73
SWIDTH 75 0
DWIDTH -1 0
BBX 3 3 0 3
BITMAP
E0
E0
E0
ENDCHAR
STARTCHAR ¹
ENCODING -71
SWIDTH 75 0
DWIDTH -1 0
BBX 6 9 0 11
BITMAP
30
70
F0
30
30
30
30
FC
FC
ENDCHAR
STARTCHAR º
ENCODING -70
SWIDTH 75 0
DWIDTH -1 0
BBX 6 9 0 11
BITMAP
78
FC
CC
CC
CC
CC
CC
FC
78
ENDCHAR
STARTCHAR »
ENCODING -69
SWIDTH 75 0
DWIDTH -1 0
BBX 13 13 0 4
BITMAP
C300
E380
F3C0
79E0
3CF0
1E78
0E38
1E78
3CF0
79E0
F3C0
E380
C300
ENDCHAR
STARTCHAR ¿
ENCODING -65
SWIDTH 75 0
DWIDTH -1 0
BBX 13 20 0 0
BITMAP
0F00
0F00
0F00
0F00
0000
0F00
0F00
0F00
0F00
0F00
1E00
3C00
7800
F078
F078
F8F8
7FF0
7FF0
3FE0
0F80
ENDCHAR
STARTCHAR À
ENCODING -64
SWIDTH 75 0
DWIDTH -1 0
BBX 13 20 0 0
BITMAP
0E00
0700
0380
0000
1FC0
3FE0
7FF0
FFF8
F8F8
F078
F078
F078
FFF8
FFF8
FFF8
FFF8
F078
F078
F078
F078
ENDCHAR
STARTCHAR Á
ENCODING -63
SWIDTH 75 0
DWIDTH -1 0
BBX 13 20 0 0
BITMAP
01C0
0380
0700
0000
1FC0
3FE0
7FF0
FFF8
F8F8
F078
F078
F078
FFF8
FFF8
FFF8
FFF8
F078
F078
F078
F078
ENDCHAR
STARTCHAR Â
ENCODING -62
SWIDTH 75 0
DWIDTH -1 0
BBX 13 20 0 0
BITMAP
0F80
1DC0
38E0
0000
1FC0
3FE0
7FF0
FFF8
F8F8
F078
F078
F078
FFF8
FFF8
FFF8
FFF8
F078
F078
F078
F078
ENDCHAR
STARTCHAR Ã
ENCODING -61
SWIDTH 75 0
DWIDTH -1 0
BBX 13 20 0 0
BITMAP
3C70
76E0
E3C0
0000
1FC0
3FE0
7FF0
FFF8
F8F8
F078
F078
F078
FFF8
FFF8
FFF8
FFF8
F078
F078
F078
F078
ENDCHAR
STARTCHAR Ä
ENCODING -60
SWIDTH 75 0
DWIDTH -1 0
BBX 13 20 0 0
BITMAP
38E0
38E0
38E0
0000
1FC0
3FE0
7FF0
FFF8
F8F8
F078
F078
F078
FFF8
FFF8
FFF8
FFF8
F078
F078
F078
F078
ENDCHAR
STARTCHAR Å
ENCODING -59
SWIDTH 75 0
DWIDTH -1 0
BBX 13 20 0 0
BITMAP
0600
0900
0600
0000
1FC0
3FE0
7FF0
FFF8
F8F8
F078
F078
F078
FFF8
FFF8
FFF8
FFF8
F078
F078
F078
F078
ENDCHAR
STARTCHAR Æ
ENCODING -58
SWIDTH 75 0
DWIDTH -1 0
BBX 13 20 0 0
BITMAP
1FF8
3FF8
7FF8
FFF8
FBC0
F3C0
F3C0
F3C0
FFF0
FFF0
FFF0
FFF0
F3C0
F3C0
F3C0
F3C0
F3F8
F3F8
F3F8
F3F8
ENDCHAR
STARTCHAR Ç
ENCODING -57
SWIDTH 75 0
DWIDTH -1 0
BBX 13 20 0 0
BITMAP
3FE0
7FF0
FFF8
FFF8
F878
F000
F000
F000
F000
F000
F000
F000
F000
F878
FFF8
FFF8
7FF0
3FE0
0700
1E00
ENDCHAR
STARTCHAR È
ENCODING -56
SWIDTH 75 0
DWIDTH -1 0
BBX 12 20 0 0
BITMAP
1C00
0E00
0700
0000
FFF0
FFF0
FFF0
FFF0
F000
F000
FFE0
FFE0
FFE0
FFE0
F000
F000
FFF0
FFF0
FFF0
FFF0
ENDCHAR
STARTCHAR É
ENCODING -55
SWIDTH 75 0
DWIDTH -1 0
BBX 12 20 0 0
BITMAP
0380
0700
0E00
0000
FFF0
FFF0
FFF0
FFF0
F000
F000
FFE0
FFE0
FFE0
FFE0
F000
F000
FFF0
FFF0
FFF0
FFF0
ENDCHAR
STARTCHAR Ê
ENCODING -54
SWIDTH 75 0
DWIDTH -1 0
BBX 12 20 0 0
BITMAP
1F80
39C0
70E0
0000
FFF0
FFF0
FFF0
FFF0
F000
F000
FFE0
FFE0
FFE0
FFE0
F000
F000
FFF0
FFF0
FFF0
FFF0
ENDCHAR
STARTCHAR Ë
ENCODING -53
SWIDTH 75 0
DWIDTH -1 0
BBX 12 20 0 0
BITMAP
70E0
70E0
70E0
0000
FFF0
FFF0
FFF0
FFF0
F000
F000
FFE0
FFE0
FFE0
FFE0
F000
F000
FFF0
FFF0
FFF0
FFF0
ENDCHAR
STARTCHAR Ì
ENCODING -52
SWIDTH 75 0
DWIDTH -1 0
BBX 5 20 0 0
BITMAP
E0
70
38
00
78
78
78
78
78
78
78
78
78
78
78
78
78
78
78
78
ENDCHAR
STARTCHAR Í
ENCODING -51
SWIDTH 75 0
DWIDTH -1 0
BBX 5 20 0 0
BITMAP
38
70
E0
00
F0
F0
F0
F0
F0
F0
F0
F0
F0
F0
F0
F0
F0
F0
F0
F0
ENDCHAR
STARTCHAR Î
ENCODING -50
SWIDTH 75 0
DWIDTH -1 0
BBX 10 20 0 0
BITMAP
3F00
7380
E1C0
0000
1E00
1E00
1E00
1E00
1E00
1E00
1E00
1E00
1E00
1E00
1E00
1E00
1E00
1E00
1E00
1E00
ENDCHAR
STARTCHAR Ï
ENCODING -49
SWIDTH 75 0
DWIDTH -1 0
BBX 8 20 0 0
BITMAP
E7
E7
E7
00
3C
3C
3C
3C
3C
3C
3C
3C
3C
3C
3C
3C
3C
3C
3C
3C
ENDCHAR
STARTCHAR Ð
ENCODING -48
SWIDTH 75 0
DWIDTH -1 0
BBX 13 20 0 0
BITMAP
7FC0
7FE0
7FF0
7FF8
7878
7878
7878
7878
7878
FE78
FE78
7878
7878
7878
7878
7878
7FF8
7FF0
7FE0
7FC0
ENDCHAR
STARTCHAR Ñ
ENCODING -47
SWIDTH 75 0
DWIDTH -1 0
BBX 13 20 0 0
BITMAP
1E38
3B70
71E0
0000
F078
F878
FC78
FE78
FF78
FFF8
F7F8
F3F8
F1F8
F0F8
F078
F078
F078
F078
F078
F078
ENDCHAR
STARTCHAR Ò
ENCODING -46
SWIDTH 75 0
DWIDTH -1 0
BBX 13 20 0 0
BITMAP
0E00
0700
0380
0000
0F80
3FE0
7FF0
7FF0
F8F8
F078
F078
F078
F078
F078
F078
F8F8
7FF0
7FF0
3FE0
0F80
ENDCHAR
STARTCHAR Ó
ENCODING -45
SWIDTH 75 0
DWIDTH -1 0
BBX 13 20 0 0
BITMAP
01C0
0380
0700
0000
0F80
3FE0
7FF0
7FF0
F8F8
F078
F078
F078
F078
F078
F078
F8F8
7FF0
7FF0
3FE0
0F80
ENDCHAR
STARTCHAR Ô
ENCODING -44
SWIDTH 75 0
DWIDTH -1 0
BBX 13 20 0 0
BITMAP
0F80
1DC0
38E0
0000
0F80
3FE0
7FF0
7FF0
F8F8
F078
F078
F078
F078
F078
F078
F8F8
7FF0
7FF0
3FE0
0F80
ENDCHAR
STARTCHAR Õ
ENCODING -43
SWIDTH 75 0
DWIDTH -1 0
BBX 13 20 0 0
BITMAP
3C70
76E0
E3C0
0000
0F80
3FE0
7FF0
7FF0
F8F8
F078
F078
F078
F078
F078
F078
F8F8
7FF0
7FF0
3FE0
0F80
ENDCHAR
STARTCHAR Ö
ENCODING -42
SWIDTH 75 0
DWIDTH -1 0
BBX 13 20 0 0
BITMAP
38E0
38E0
38E0
0000
0F80
3FE0
7FF0
7FF0
F8F8
F078
F078
F078
F078
F078
F078
F8F8
7FF0
7FF0
3FE0
0F80
ENDCHAR
STARTCHAR ×
ENCODING -41
SWIDTH 75 0
DWIDTH -1 0
BBX 13 12 0 3
BITMAP
F078
F8F8
7DF0
3FE0
1FC0
0F80
0F80
1FC0
3FE0
7DF0
F8F8
F078
ENDCHAR
STARTCHAR Ø
ENCODING -40
SWIDTH 75 0
DWIDTH -1 0
BBX 13 20 0 0
BITMAP
0080
0080
0F80
3FE0
7FF0
7FF0
FAF8
F278
F278
F278
F478
F478
F478
FCF8
7FF0
7FF0
3FE0
0F80
0800
0800
ENDCHAR
STARTCHAR Ù
ENCODING -39
SWIDTH 75 0
DWIDTH -1 0
BBX 13 20 0 0
BITMAP
0E00
0700
0380
0000
F078
F078
F078
F078
F078
F078
F078
F078
F078
F078
F078
F8F8
7FF0
7FF0
3FE0
0F80
ENDCHAR
STARTCHAR Ú
ENCODING -38
SWIDTH 75 0
DWIDTH -1 0
BBX 13 20 0 0
BITMAP
0380
0700
0E00
0000
F078
F078
F078
F078
F078
F078
F078
F078
F078
F078
F078
F8F8
7FF0
7FF0
3FE0
0F80
ENDCHAR
STARTCHAR Û
ENCODING -37
SWIDTH 75 0
DWIDTH -1 0
BBX 13 20 0 0
BITMAP
0F80
1DC0
38E0
0000
F078
F078
F078
F078
F078
F078
F078
F078
F078
F078
F078
F8F8
7FF0
7FF0
3FE0
0F80
ENDCHAR
STARTCHAR Ü
ENCODING -36
SWIDTH 75 0
DWIDTH -1 0
BBX 13 20 0 0
BITMAP
38E0
38E0
38E0
0000
F078
F078
F078
F078
F078
F078
F078
F078
F078
F078
F078
F8F8
7FF0
7FF0
3FE0
0F80
ENDCHAR
STARTCHAR Ý
ENCODING -35
SWIDTH 75 0
DWIDTH -1 0
BBX 12 20 0 0
BITMAP
0380
0700
0E00
0000
E070
E070
E070
F0F0
F0F0
79E0
79E0
3FC0
3FC0
1F80
1F80
0F00
0F00
0F00
0F00
0F00
ENDCHAR
STARTCHAR Þ
ENCODING -34
SWIDTH 75 0
DWIDTH -1 0
BBX 11 20 0 0
BITMAP
F000
F000
F000
F000
F000
FF80
FFC0
FFE0
FFE0
F1E0
F1E0
FFE0
FFE0
FFC0
FF80
F000
F000
F000
F000
F000
ENDCHAR
STARTCHAR ß
ENCODING -33
SWIDTH 75 0
DWIDTH -1 0
BBX 13 20 0 0
BITMAP
0F00
3FC0
7FE0
7FE0
F9F0
F0F0
F0F0
F1F0
F3E0
F7C0
F780
F7C0
F3F0
F0F8
F078
F078
F0F8
F7F0
F7E0
F7C0
ENDCHAR
STARTCHAR à
ENCODING -32
SWIDTH 75 0
DWIDTH -1 0
BBX 13 18 0 0
BITMAP
0E00
0700
0380
0000
1FC0
3FE0
3FF0
3FF8
0078
3F78
7FF8
FFF8
F078
F078
FFF8
FFF8
7FF8
3FB8
ENDCHAR
STARTCHAR á
ENCODING -31
SWIDTH 75 0
DWIDTH -1 0
BBX 13 18 0 0
BITMAP
01C0
0380
0700
0000
1FC0
3FE0
3FF0
3FF8
0078
3F78
7FF8
FFF8
F078
F078
FFF8
FFF8
7FF8
3FB8
ENDCHAR
STARTCHAR â
ENCODING -30
SWIDTH 75 0
DWIDTH -1 0
BBX 13 18 0 0
BITMAP
0F80
1DC0
38E0
0000
1FC0
3FE0
3FF0
3FF8
0078
3F78
7FF8
FFF8
F078
F078
FFF8
FFF8
7FF8
3FB8
ENDCHAR
STARTCHAR ã
ENCODING -29
SWIDTH 75 0
DWIDTH -1 0
BBX 13 18 0 0
BITMAP
3C70
76E0
E3C0
0000
1FC0
3FE0
3FF0
3FF8
0078
3F78
7FF8
FFF8
F078
F078
FFF8
FFF8
7FF8
3FB8
ENDCHAR
STARTCHAR ä
ENCODING -28
SWIDTH 75 0
DWIDTH -1 0
BBX 13 18 0 0
BITMAP
38E0
38E0
38E0
0000
1FC0
3FE0
3FF0
3FF8
0078
3F78
7FF8
FFF8
F078
F078
FFF8
FFF8
7FF8
3FB8
ENDCHAR
STARTCHAR å
ENCODING -27
SWIDTH 75 0
DWIDTH -1 0
BBX 13 18 0 0
BITMAP
0600
0900
0600
0000
1FC0
3FE0
3FF0
3FF8
0078
3F78
7FF8
FFF8
F078
F078
FFF8
FFF8
7FF8
3FB8
ENDCHAR
STARTCHAR æ
ENCODING -26
SWIDTH 75 0
DWIDTH -1 0
BBX 13 14 0 0
BITMAP
1FE0
3FF0
3FF8
3FF8
0738
3F38
7FF8
FFF8
F7F0
F700
FF98
FFF8
7FF8
3FF0
ENDCHAR
STARTCHAR ç
ENCODING -25
SWIDTH 75 0
DWIDTH -1 0
BBX 13 14 0 0
BITMAP
0F80
3FE0
7FF0
7FF0
F8F8
F000
F000
F8F8
7FF0
7FF0
3FE0
0F80
0200
1F00
ENDCHAR
STARTCHAR è
ENCODING -24
SWIDTH 75 0
DWIDTH -1 0
BBX 13 18 0 0
BITMAP
0E00
0700
0380
0000
0F80
3FE0
7FF0
7FF0
F8F8
F078
FFF8
FFF0
FFE0
F000
F8F8
7FF0
7FF0
3FE0
ENDCHAR
STARTCHAR é
ENCODING -23
SWIDTH 75 0
DWIDTH -1 0
BBX 13 18 0 0
BITMAP
0380
0700
0E00
0000
0F80
3FE0
7FF0
7FF0
F8F8
F078
FFF8
FFF0
FFE0
F000
F8F8
7FF0
7FF0
3FE0
ENDCHAR
STARTCHAR ê
ENCODING -22
SWIDTH 75 0
DWIDTH -1 0
BBX 13 18 0 0
BITMAP
0F80
1DC0
38E0
0000
0F80
3FE0
7FF0
7FF0
F8F8
F078
FFF8
FFF0
FFE0
F000
F8F8
7FF0
7FF0
3FE0
ENDCHAR
STARTCHAR ë
ENCODING -21
SWIDTH 75 0
DWIDTH -1 0
BBX 13 18 0 0
BITMAP
38E0
38E0
38E0
0000
0F80
3FE0
7FF0
7FF0
F8F8
F078
FFF8
FFF0
FFE0
F000
F8F8
7FF0
7FF0
3FE0
ENDCHAR
STARTCHAR ì
ENCODING -20
SWIDTH 75 0
DWIDTH -1 0
BBX 5 18 0 0
BITMAP
E0
70
38
00
78
78
78
78
78
78
78
78
78
78
78
78
78
78
ENDCHAR
STARTCHAR í
ENCODING -19
SWIDTH 75 0
DWIDTH -1 0
BBX 5 18 0 0
BITMAP
38
70
E0
00
F0
F0
F0
F0
F0
F0
F0
F0
F0
F0
F0
F0
F0
F0
ENDCHAR
STARTCHAR î
ENCODING -18
SWIDTH 75 0
DWIDTH -1 0
BBX 10 18 0 0
BITMAP
3F00
7380
E1C0
0000
1E00
1E00
1E00
1E00
1E00
1E00
1E00
1E00
1E00
1E00
1E00
1E00
1E00
1E00
ENDCHAR
STARTCHAR ï
ENCODING -17
SWIDTH 75 0
DWIDTH -1 0
BBX 9 18 0 0
BITMAP
E380
E380
E380
0000
3C00
3C00
3C00
3C00
3C00
3C00
3C00
3C00
3C00
3C00
3C00
3C00
3C00
3C00
ENDCHAR
STARTCHAR ð
ENCODING -16
SWIDTH 75 0
DWIDTH -1 0
BBX 13 19 0 0
BITMAP
3800
0C80
1F00
2600
0380
0F80
3FE0
7FF0
7FF0
F8F8
F078
F078
F078
F078
F8F8
7FF0
7FF0
3FE0
0F80
ENDCHAR
STARTCHAR ñ
ENCODING -15
SWIDTH 75 0
DWIDTH -1 0
BBX 13 18 0 0
BITMAP
3C70
76E0
E3C0
0000
EF80
FFE0
FFF0
FFF0
F8F8
F078
F078
F078
F078
F078
F078
F078
F078
F078
ENDCHAR
STARTCHAR ò
ENCODING -14
SWIDTH 75 0
DWIDTH -1 0
BBX 13 18 0 0
BITMAP
0E00
0700
0380
0000
0F80
3FE0
7FF0
7FF0
F8F8
F078
F078
F078
F078
F8F8
7FF0
7FF0
3FE0
0F80
ENDCHAR
STARTCHAR ó
ENCODING -13
SWIDTH 75 0
DWIDTH -1 0
BBX 13 18 0 0
BITMAP
01C0
0380
0700
0000
0F80
3FE0
7FF0
7FF0
F8F8
F078
F078
F078
F078
F8F8
7FF0
7FF0
3FE0
0F80
ENDCHAR
STARTCHAR ô
ENCODING -12
SWIDTH 75 0
DWIDTH -1 0
BBX 13 18 0 0
BITMAP
0F80
1DC0
38E0
0000
0F80
3FE0
7FF0
7FF0
F8F8
F078
F078
F078
F078
F8F8
7FF0
7FF0
3FE0
0F80
ENDCHAR
STARTCHAR õ
ENCODING -11
SWIDTH 75 0
DWIDTH -1 0
BBX 13 18 0 0
BITMAP
3C70
76E0
E3C0
0000
0F80
3FE0
7FF0
7FF0
F8F8
F078
F078
F078
F078
F8F8
7FF0
7FF0
3FE0
0F80
ENDCHAR
STARTCHAR ö
ENCODING -10
SWIDTH 75 0
DWIDTH -1 0
BBX 13 18 0 0
BITMAP
38E0
38E0
38E0
0000
0F80
3FE0
7FF0
7FF0
F8F8
F078
F078
F078
F078
F8F8
7FF0
7FF0
3FE0
0F80
ENDCHAR
STARTCHAR ÷
ENCODING -9
SWIDTH 75 0
DWIDTH -1 0
BBX 11 11 0 2
BITMAP
0E00
0E00
0E00
0000
FFE0
FFE0
FFE0
0000
0E00
0E00
0E00
ENDCHAR
STARTCHAR ø
ENCODING -8
SWIDTH 75 0
DWIDTH -1 0
BBX 13 15 0 0
BITMAP
0100
0F80
3FE0
7FF0
7FF0
FAF8
F278
F278
F278
FAF8
7FF0
7FF0
3FE0
0F80
0400
ENDCHAR
STARTCHAR ù
ENCODING -7
SWIDTH 75 0
DWIDTH -1 0
BBX 13 18 0 0
BITMAP
0E00
0700
0380
0000
F078
F078
F078
F078
F078
F078
F078
F078
F078
F8F8
7FF8
7FF8
3FF8
0FB8
ENDCHAR
STARTCHAR ú
ENCODING -6
SWIDTH 75 0
DWIDTH -1 0
BBX 13 18 0 0
BITMAP
0380
0700
0E00
0000
F078
F078
F078
F078
F078
F078
F078
F078
F078
F8F8
7FF8
7FF8
3FF8
0FB8
ENDCHAR
STARTCHAR û
ENCODING -5
SWIDTH 75 0
DWIDTH -1 0
BBX 13 18 0 0
BITMAP
0F80
1DC0
38E0
0000
F078
F078
F078
F078
F078
F078
F078
F078
F078
F8F8
7FF8
7FF8
3FF8
0FB8
ENDCHAR
STARTCHAR ü
ENCODING -4
SWIDTH 75 0
DWIDTH -1 0
BBX 13 18 0 0
BITMAP
38E0
38E0
38E0
0000
F078
F078
F078
F078
F078
F078
F078
F078
F078
F8F8
7FF8
7FF8
3FF8
0FB8
ENDCHAR
STARTCHAR ý
ENCODING -3
SWIDTH 75 0
DWIDTH -1 0
BBX 11 18 0 0
BITMAP
0380
0700
0E00
0000
F1E0
F1E0
F1E0
F1E0
F1E0
F1E0
FFE0
7FE0
3FE0
01E0
01E0
FFE0
7FC0
3F80
ENDCHAR
STARTCHAR þ
ENCODING -2
SWIDTH 75 0
DWIDTH -1 0
BBX 13 20 0 0
BITMAP
F000
F000
F000
F000
FFE0
FFF0
FFF8
FFF8
F078
F078
F078
F078
FFF8
FFF8
FFF0
FFE0
F000
F000
F000
F000
ENDCHAR
STARTCHAR ÿ
ENCODING -1
SWIDTH 75 0
DWIDTH -1 0
BBX 11 18 0 0
BITMAP
71C0
71C0
71C0
0000
F1E0
F1E0
F1E0
F1E0
F1E0
F1E0
FFE0
7FE0
3FE0
01E0
01E0
FFE0
7FC0
3F80
ENDCHAR
ENDFONT
