STARTFONT 2.1
COMMENT Lumiplan font build using LumiStudio
FONT Duhamel 16/16 4-Bold
SIZE 16 75 75
FONTBOUNDINGBOX 12 16 0 0
STARTPROPERTIES 1
Copyright "Copyright (c) 2021 Lumiplan"
ENDPROPERTIES
CHARS 189
STARTCHAR 
ENCODING 14
SWIDTH 75 0
DWIDTH -1 0
BBX 0 0 1 15
ENDCHAR
STARTCHAR  
ENCODING 32
SWIDTH 75 0
DWIDTH -1 0
BBX 0 0 2 15
ENDCHAR
STARTCHAR !
ENCODING 33
SWIDTH 75 0
DWIDTH -1 0
BBX 3 16 0 0
BITMAP
E0
E0
E0
E0
E0
E0
E0
E0
E0
E0
E0
00
00
E0
E0
E0
ENDCHAR
STARTCHAR "
ENCODING 34
SWIDTH 75 0
DWIDTH -1 0
BBX 6 4 0 12
BITMAP
6C
6C
48
90
ENDCHAR
STARTCHAR #
ENCODING 35
SWIDTH 75 0
DWIDTH -1 0
BBX 10 10 0 3
BITMAP
3300
3300
FFC0
FFC0
3300
3300
FFC0
FFC0
3300
3300
ENDCHAR
STARTCHAR $
ENCODING 36
SWIDTH 75 0
DWIDTH -1 0
BBX 9 16 0 0
BITMAP
1C00
1C00
3F00
7F00
DC00
DC00
DC00
FE00
7F00
1D80
1D80
1D80
7F00
7E00
1C00
1C00
ENDCHAR
STARTCHAR %
ENCODING 37
SWIDTH 75 0
DWIDTH -1 0
BBX 10 13 0 2
BITMAP
E040
E0C0
E1C0
03C0
0780
0F00
1E00
3C00
7800
F000
E1C0
C1C0
81C0
ENDCHAR
STARTCHAR &
ENCODING 38
SWIDTH 75 0
DWIDTH -1 0
BBX 10 15 0 0
BITMAP
3E00
7F00
7700
6300
7700
3E00
3E00
7F00
77C0
E3C0
C1C0
C180
E3C0
FFC0
7F00
ENDCHAR
STARTCHAR '
ENCODING 39
SWIDTH 75 0
DWIDTH -1 0
BBX 4 6 0 10
BITMAP
20
70
70
60
40
80
ENDCHAR
STARTCHAR (
ENCODING 40
SWIDTH 75 0
DWIDTH -1 0
BBX 5 16 0 0
BITMAP
38
78
E0
E0
E0
E0
E0
E0
E0
E0
E0
E0
E0
E0
78
38
ENDCHAR
STARTCHAR )
ENCODING 41
SWIDTH 75 0
DWIDTH -1 0
BBX 5 16 0 0
BITMAP
E0
F0
38
38
38
38
38
38
38
38
38
38
38
38
F0
E0
ENDCHAR
STARTCHAR *
ENCODING 42
SWIDTH 75 0
DWIDTH -1 0
BBX 10 10 0 3
BITMAP
0C00
4C80
2D00
1E00
FFC0
FFC0
1E00
2D00
4C80
0C00
ENDCHAR
STARTCHAR +
ENCODING 43
SWIDTH 75 0
DWIDTH -1 0
BBX 9 9 0 2
BITMAP
1C00
1C00
1C00
FF80
FF80
FF80
1C00
1C00
1C00
ENDCHAR
STARTCHAR ,
ENCODING 44
SWIDTH 75 0
DWIDTH -1 0
BBX 4 6 0 0
BITMAP
20
70
70
60
40
80
ENDCHAR
STARTCHAR -
ENCODING 45
SWIDTH 75 0
DWIDTH -1 0
BBX 7 3 0 4
BITMAP
FE
FE
FE
ENDCHAR
STARTCHAR .
ENCODING 46
SWIDTH 75 0
DWIDTH -1 0
BBX 3 3 0 0
BITMAP
E0
E0
E0
ENDCHAR
STARTCHAR /
ENCODING 47
SWIDTH 75 0
DWIDTH -1 0
BBX 8 15 0 0
BITMAP
03
03
07
06
0E
0C
1C
18
38
30
70
60
E0
C0
C0
ENDCHAR
STARTCHAR 0
ENCODING 48
SWIDTH 75 0
DWIDTH -1 0
BBX 10 16 0 0
BITMAP
3F00
7F80
FFC0
E1C0
E1C0
E1C0
E1C0
E1C0
E1C0
E1C0
E1C0
E1C0
E1C0
FFC0
7F80
3F00
ENDCHAR
STARTCHAR 1
ENCODING 49
SWIDTH 75 0
DWIDTH -1 0
BBX 7 16 0 0
BITMAP
18
38
78
F8
F8
F8
38
38
38
38
38
38
38
FE
FE
FE
ENDCHAR
STARTCHAR 2
ENCODING 50
SWIDTH 75 0
DWIDTH -1 0
BBX 10 16 0 0
BITMAP
3F00
7F80
FFC0
E1C0
E1C0
01C0
01C0
03C0
0780
0F00
1E00
3C00
7800
FFC0
FFC0
FFC0
ENDCHAR
STARTCHAR 3
ENCODING 51
SWIDTH 75 0
DWIDTH -1 0
BBX 10 16 0 0
BITMAP
FFC0
FFC0
FFC0
03C0
0780
0F00
1E00
3F00
3F80
3FC0
01C0
01C0
01C0
FFC0
FF80
FF00
ENDCHAR
STARTCHAR 4
ENCODING 52
SWIDTH 75 0
DWIDTH -1 0
BBX 10 16 0 0
BITMAP
0380
0780
0F80
1F80
3F80
7B80
F380
E380
C380
FFC0
FFC0
FFC0
0380
0380
0380
0380
ENDCHAR
STARTCHAR 5
ENCODING 53
SWIDTH 75 0
DWIDTH -1 0
BBX 10 16 0 0
BITMAP
FFC0
FFC0
FFC0
E000
E000
E000
FF00
FF80
FFC0
01C0
01C0
01C0
E1C0
FFC0
FFC0
7F80
ENDCHAR
STARTCHAR 6
ENCODING 54
SWIDTH 75 0
DWIDTH -1 0
BBX 10 16 0 0
BITMAP
1F00
3F00
7F00
F000
E000
E000
E000
FF00
FF80
FFC0
E1C0
E1C0
E1C0
FFC0
7F80
3F00
ENDCHAR
STARTCHAR 7
ENCODING 55
SWIDTH 75 0
DWIDTH -1 0
BBX 10 16 0 0
BITMAP
FFC0
FFC0
FFC0
01C0
01C0
0380
0380
0700
0F00
0E00
1C00
1C00
1C00
1C00
1C00
1C00
ENDCHAR
STARTCHAR 8
ENCODING 56
SWIDTH 75 0
DWIDTH -1 0
BBX 10 16 0 0
BITMAP
3F00
7F80
FFC0
E1C0
E1C0
E1C0
FFC0
7F80
3F00
7F80
E1C0
E1C0
E1C0
FFC0
7F80
3F00
ENDCHAR
STARTCHAR 9
ENCODING 57
SWIDTH 75 0
DWIDTH -1 0
BBX 10 16 0 0
BITMAP
3F00
7F80
FFC0
E1C0
E1C0
E1C0
FFC0
7FC0
3FC0
01C0
01C0
01C0
01C0
3FC0
3F80
3F00
ENDCHAR
STARTCHAR :
ENCODING 58
SWIDTH 75 0
DWIDTH -1 0
BBX 3 8 0 2
BITMAP
E0
E0
E0
00
00
E0
E0
E0
ENDCHAR
STARTCHAR ;
ENCODING 59
SWIDTH 75 0
DWIDTH -1 0
BBX 4 10 0 0
BITMAP
70
70
70
00
00
70
70
60
40
80
ENDCHAR
STARTCHAR <
ENCODING 60
SWIDTH 75 0
DWIDTH -1 0
BBX 9 16 0 0
BITMAP
0180
0380
0700
0E00
1C00
3800
7000
E000
E000
7000
3800
1C00
0E00
0700
0380
0180
ENDCHAR
STARTCHAR =
ENCODING 61
SWIDTH 75 0
DWIDTH -1 0
BBX 7 8 0 3
BITMAP
FE
FE
FE
00
00
FE
FE
FE
ENDCHAR
STARTCHAR >
ENCODING 62
SWIDTH 75 0
DWIDTH -1 0
BBX 9 16 0 0
BITMAP
C000
E000
7000
3800
1C00
0E00
0700
0380
0380
0700
0E00
1C00
3800
7000
E000
C000
ENDCHAR
STARTCHAR ?
ENCODING 63
SWIDTH 75 0
DWIDTH -1 0
BBX 10 16 0 0
BITMAP
3F00
7F80
FFC0
E1C0
E1C0
01C0
03C0
0780
0F00
0E00
0E00
0000
0000
0E00
0E00
0E00
ENDCHAR
STARTCHAR @
ENCODING 64
SWIDTH 75 0
DWIDTH -1 0
BBX 0 0 12 15
ENDCHAR
STARTCHAR A
ENCODING 65
SWIDTH 75 0
DWIDTH -1 0
BBX 12 16 0 0
BITMAP
0F00
1F80
3FC0
39C0
79E0
70E0
70E0
7FE0
7FE0
7FE0
70E0
70E0
70E0
70E0
F9F0
F9F0
ENDCHAR
STARTCHAR B
ENCODING 66
SWIDTH 75 0
DWIDTH -1 0
BBX 11 16 0 0
BITMAP
FF80
FFC0
71E0
70E0
70E0
71E0
7FC0
7F80
7F80
71C0
70E0
70E0
70E0
71E0
FFC0
FF80
ENDCHAR
STARTCHAR C
ENCODING 67
SWIDTH 75 0
DWIDTH -1 0
BBX 10 16 0 0
BITMAP
3F00
7F80
FFC0
F1C0
E1C0
E000
E000
E000
E000
E000
E000
E1C0
F1C0
FFC0
7F80
3F00
ENDCHAR
STARTCHAR D
ENCODING 68
SWIDTH 75 0
DWIDTH -1 0
BBX 11 16 0 0
BITMAP
FE00
FF00
7F80
73C0
71C0
70E0
70E0
70E0
70E0
70E0
70E0
71C0
73C0
7F80
FF00
FE00
ENDCHAR
STARTCHAR E
ENCODING 69
SWIDTH 75 0
DWIDTH -1 0
BBX 10 16 0 0
BITMAP
FFC0
FFC0
7FC0
70C0
7000
7000
7300
7F00
7F00
7300
7000
7000
70C0
7FC0
FFC0
FFC0
ENDCHAR
STARTCHAR F
ENCODING 70
SWIDTH 75 0
DWIDTH -1 0
BBX 10 16 0 0
BITMAP
FFC0
FFC0
FFC0
70C0
7000
7000
7300
7F00
7F00
7300
7000
7000
7000
7000
F800
F800
ENDCHAR
STARTCHAR G
ENCODING 71
SWIDTH 75 0
DWIDTH -1 0
BBX 11 16 0 0
BITMAP
3F80
7FC0
F1C0
E1C0
E000
E000
E000
E000
E3E0
E3E0
E1C0
E1C0
E1C0
FFC0
7F80
3F00
ENDCHAR
STARTCHAR H
ENCODING 72
SWIDTH 75 0
DWIDTH -1 0
BBX 12 16 0 0
BITMAP
F9F0
F9F0
70E0
70E0
70E0
70E0
70E0
7FE0
7FE0
70E0
70E0
70E0
70E0
70E0
F9F0
F9F0
ENDCHAR
STARTCHAR I
ENCODING 73
SWIDTH 75 0
DWIDTH -1 0
BBX 7 16 0 0
BITMAP
FE
FE
38
38
38
38
38
38
38
38
38
38
38
38
FE
FE
ENDCHAR
STARTCHAR J
ENCODING 74
SWIDTH 75 0
DWIDTH -1 0
BBX 11 16 0 0
BITMAP
0FE0
0FE0
0380
0380
0380
0380
0380
0380
0380
0380
0380
E380
E380
F780
7F00
3E00
ENDCHAR
STARTCHAR K
ENCODING 75
SWIDTH 75 0
DWIDTH -1 0
BBX 12 16 0 0
BITMAP
F8F0
F8F0
71E0
73C0
7780
7F00
7E00
7C00
7C00
7E00
7F00
7780
73C0
71E0
F8F0
F8F0
ENDCHAR
STARTCHAR L
ENCODING 76
SWIDTH 75 0
DWIDTH -1 0
BBX 10 16 0 0
BITMAP
F800
F800
7000
7000
7000
7000
7000
7000
7000
7000
7000
7000
70C0
FFC0
FFC0
FFC0
ENDCHAR
STARTCHAR M
ENCODING 77
SWIDTH 75 0
DWIDTH -1 0
BBX 12 16 0 0
BITMAP
E070
F0F0
79E0
7FE0
7FE0
76E0
70E0
70E0
70E0
70E0
70E0
70E0
70E0
70E0
F9F0
F9F0
ENDCHAR
STARTCHAR N
ENCODING 78
SWIDTH 75 0
DWIDTH -1 0
BBX 12 16 0 0
BITMAP
F1F0
F1F0
78E0
78E0
7CE0
7CE0
7EE0
7EE0
77E0
77E0
73E0
73E0
71E0
71E0
F8E0
F8E0
ENDCHAR
STARTCHAR O
ENCODING 79
SWIDTH 75 0
DWIDTH -1 0
BBX 11 16 0 0
BITMAP
1F00
3F80
7FC0
F1E0
E0E0
E0E0
E0E0
E0E0
E0E0
E0E0
E0E0
E0E0
F1E0
7FC0
3F80
1F00
ENDCHAR
STARTCHAR P
ENCODING 80
SWIDTH 75 0
DWIDTH -1 0
BBX 11 16 0 0
BITMAP
FF80
FFC0
FFE0
70E0
70E0
70E0
7FE0
7FC0
7F80
7000
7000
7000
7000
7000
F800
F800
ENDCHAR
STARTCHAR Q
ENCODING 81
SWIDTH 75 0
DWIDTH -1 0
BBX 11 16 0 0
BITMAP
1F00
3F80
7FC0
F1E0
E0E0
E0E0
E0E0
E0E0
E0E0
E0E0
E6E0
E7E0
F3C0
7FC0
3FE0
1F60
ENDCHAR
STARTCHAR R
ENCODING 82
SWIDTH 75 0
DWIDTH -1 0
BBX 12 16 0 0
BITMAP
FF80
FFC0
71E0
70E0
70E0
70E0
71C0
7F80
7F00
7F80
73C0
71E0
70E0
70E0
F9F0
F9F0
ENDCHAR
STARTCHAR S
ENCODING 83
SWIDTH 75 0
DWIDTH -1 0
BBX 10 16 0 0
BITMAP
3F00
7F80
F3C0
E1C0
E000
F000
7800
3E00
1F00
0780
03C0
E1C0
E1C0
F3C0
7F80
3F00
ENDCHAR
STARTCHAR T
ENCODING 84
SWIDTH 75 0
DWIDTH -1 0
BBX 11 16 0 0
BITMAP
FFE0
FFE0
FFE0
CE60
0E00
0E00
0E00
0E00
0E00
0E00
0E00
0E00
0E00
0E00
1F00
1F00
ENDCHAR
STARTCHAR U
ENCODING 85
SWIDTH 75 0
DWIDTH -1 0
BBX 12 16 0 0
BITMAP
F9F0
F9F0
70E0
70E0
70E0
70E0
70E0
70E0
70E0
70E0
70E0
70E0
79E0
7FE0
3FC0
1F80
ENDCHAR
STARTCHAR V
ENCODING 86
SWIDTH 75 0
DWIDTH -1 0
BBX 12 16 0 0
BITMAP
F9F0
F9F0
70E0
70E0
70E0
70E0
79E0
39C0
39C0
39C0
1F80
1F80
0F00
0F00
0600
0600
ENDCHAR
STARTCHAR W
ENCODING 87
SWIDTH 75 0
DWIDTH -1 0
BBX 12 16 0 0
BITMAP
F9F0
F9F0
70E0
70E0
70E0
70E0
70E0
70E0
70E0
70E0
76E0
7FE0
7FE0
7FE0
39C0
1080
ENDCHAR
STARTCHAR X
ENCODING 88
SWIDTH 75 0
DWIDTH -1 0
BBX 11 16 0 0
BITMAP
FBE0
FBE0
71C0
71C0
71C0
3B80
1F00
0E00
0E00
1F00
3B80
71C0
71C0
71C0
FBE0
FBE0
ENDCHAR
STARTCHAR Y
ENCODING 89
SWIDTH 75 0
DWIDTH -1 0
BBX 11 16 0 0
BITMAP
FBE0
FBE0
71C0
71C0
71C0
7BC0
3F80
1F00
0E00
0E00
0E00
0E00
0E00
0E00
1F00
1F00
ENDCHAR
STARTCHAR Z
ENCODING 90
SWIDTH 75 0
DWIDTH -1 0
BBX 10 16 0 0
BITMAP
FFC0
FFC0
FFC0
C1C0
01C0
0380
0700
0E00
1C00
3800
7000
E000
E0C0
FFC0
FFC0
FFC0
ENDCHAR
STARTCHAR [
ENCODING 91
SWIDTH 75 0
DWIDTH -1 0
BBX 5 16 0 0
BITMAP
78
F8
F8
E0
E0
E0
E0
E0
E0
E0
E0
E0
E0
F8
F8
78
ENDCHAR
STARTCHAR \
ENCODING 92
SWIDTH 75 0
DWIDTH -1 0
BBX 8 15 0 0
BITMAP
C0
C0
E0
60
70
30
38
18
1C
0C
0E
06
07
03
03
ENDCHAR
STARTCHAR ]
ENCODING 93
SWIDTH 75 0
DWIDTH -1 0
BBX 5 16 0 0
BITMAP
F0
F8
F8
38
38
38
38
38
38
38
38
38
38
F8
F8
F0
ENDCHAR
STARTCHAR ^
ENCODING 94
SWIDTH 75 0
DWIDTH -1 0
BBX 9 5 0 11
BITMAP
1C00
3E00
7700
E380
C180
ENDCHAR
STARTCHAR _
ENCODING 95
SWIDTH 75 0
DWIDTH -1 0
BBX 10 3 0 0
BITMAP
FFC0
FFC0
FFC0
ENDCHAR
STARTCHAR `
ENCODING 96
SWIDTH 75 0
DWIDTH -1 0
BBX 4 6 0 10
BITMAP
40
E0
E0
60
20
10
ENDCHAR
STARTCHAR a
ENCODING 97
SWIDTH 75 0
DWIDTH -1 0
BBX 10 11 0 0
BITMAP
3F00
7F80
C3C0
01C0
3DC0
7FC0
E7C0
E3C0
E3C0
7FC0
3DC0
ENDCHAR
STARTCHAR b
ENCODING 98
SWIDTH 75 0
DWIDTH -1 0
BBX 10 16 0 0
BITMAP
E000
E000
E000
E000
E000
EF00
FF80
FBC0
F1C0
E1C0
E1C0
E1C0
F1C0
FBC0
FF80
EF00
ENDCHAR
STARTCHAR c
ENCODING 99
SWIDTH 75 0
DWIDTH -1 0
BBX 10 11 0 0
BITMAP
3F00
7F80
F1C0
E000
E000
E000
E000
E000
F1C0
7F80
3F00
ENDCHAR
STARTCHAR d
ENCODING 100
SWIDTH 75 0
DWIDTH -1 0
BBX 10 16 0 0
BITMAP
01C0
01C0
01C0
01C0
01C0
3DC0
7FC0
F7C0
E3C0
E1C0
E1C0
E1C0
E3C0
F7C0
FFC0
7DC0
ENDCHAR
STARTCHAR e
ENCODING 101
SWIDTH 75 0
DWIDTH -1 0
BBX 10 11 0 0
BITMAP
3F00
7F80
F3C0
E1C0
E1C0
FFC0
FF80
E000
F000
7F80
3F00
ENDCHAR
STARTCHAR f
ENCODING 102
SWIDTH 75 0
DWIDTH -1 0
BBX 10 16 0 0
BITMAP
1F00
3F80
71C0
71C0
7000
7000
7000
FC00
FC00
FC00
7000
7000
7000
7000
7000
7000
ENDCHAR
STARTCHAR g
ENCODING 103
SWIDTH 75 0
DWIDTH -1 0
BBX 10 11 0 0
BITMAP
3DC0
7FC0
F3C0
E1C0
F3C0
7FC0
3DC0
01C0
03C0
7F80
3F00
ENDCHAR
STARTCHAR h
ENCODING 104
SWIDTH 75 0
DWIDTH -1 0
BBX 10 16 0 0
BITMAP
E000
E000
E000
E000
E000
EF00
FF80
FBC0
F1C0
E1C0
E1C0
E1C0
E1C0
E1C0
E1C0
E1C0
ENDCHAR
STARTCHAR i
ENCODING 105
SWIDTH 75 0
DWIDTH -1 0
BBX 7 16 0 0
BITMAP
38
38
38
00
00
F8
F8
F8
38
38
38
38
38
FE
FE
FE
ENDCHAR
STARTCHAR j
ENCODING 106
SWIDTH 75 0
DWIDTH -1 0
BBX 9 16 0 0
BITMAP
0700
0700
0700
0000
0000
1F80
1F80
1F80
0700
0700
0700
0700
0700
E700
7E00
3C00
ENDCHAR
STARTCHAR k
ENCODING 107
SWIDTH 75 0
DWIDTH -1 0
BBX 10 16 0 0
BITMAP
E000
E000
E000
E000
E000
E3C0
E780
EF00
FE00
FC00
F800
FC00
FE00
EF00
E780
E3C0
ENDCHAR
STARTCHAR l
ENCODING 108
SWIDTH 75 0
DWIDTH -1 0
BBX 5 16 0 0
BITMAP
F0
F0
F0
70
70
70
70
70
70
70
70
70
70
F8
F8
F8
ENDCHAR
STARTCHAR m
ENCODING 109
SWIDTH 75 0
DWIDTH -1 0
BBX 10 11 0 0
BITMAP
E300
F780
FFC0
EDC0
EDC0
EDC0
E1C0
E1C0
E1C0
E1C0
E1C0
ENDCHAR
STARTCHAR n
ENCODING 110
SWIDTH 75 0
DWIDTH -1 0
BBX 10 11 0 0
BITMAP
EF00
FF80
F3C0
E1C0
E1C0
E1C0
E1C0
E1C0
E1C0
E1C0
E1C0
ENDCHAR
STARTCHAR o
ENCODING 111
SWIDTH 75 0
DWIDTH -1 0
BBX 10 11 0 0
BITMAP
3F00
7F80
F3C0
E1C0
E1C0
E1C0
E1C0
E1C0
F3C0
7F80
3F00
ENDCHAR
STARTCHAR p
ENCODING 112
SWIDTH 75 0
DWIDTH -1 0
BBX 10 11 0 0
BITMAP
EF00
FF80
F3C0
E1C0
F3C0
FF80
EF00
E000
E000
E000
E000
ENDCHAR
STARTCHAR q
ENCODING 113
SWIDTH 75 0
DWIDTH -1 0
BBX 10 11 0 0
BITMAP
3DC0
7FC0
F3C0
E1C0
F3C0
7FC0
3DC0
01C0
01C0
01C0
01C0
ENDCHAR
STARTCHAR r
ENCODING 114
SWIDTH 75 0
DWIDTH -1 0
BBX 10 11 0 0
BITMAP
EF00
FF80
F1C0
E1C0
E000
E000
E000
E000
E000
E000
E000
ENDCHAR
STARTCHAR s
ENCODING 115
SWIDTH 75 0
DWIDTH -1 0
BBX 10 11 0 0
BITMAP
3F00
7F80
F000
E000
FC00
7F80
0FC0
01C0
03C0
FF80
7F00
ENDCHAR
STARTCHAR t
ENCODING 116
SWIDTH 75 0
DWIDTH -1 0
BBX 10 16 0 0
BITMAP
7000
7000
7000
7000
7000
FC00
FC00
FC00
7000
7000
7000
7000
71C0
71C0
3F80
1F00
ENDCHAR
STARTCHAR u
ENCODING 117
SWIDTH 75 0
DWIDTH -1 0
BBX 10 11 0 0
BITMAP
E1C0
E1C0
E1C0
E1C0
E1C0
E1C0
E1C0
E1C0
F3C0
7FC0
3EC0
ENDCHAR
STARTCHAR v
ENCODING 118
SWIDTH 75 0
DWIDTH -1 0
BBX 10 11 0 0
BITMAP
E1C0
E1C0
E1C0
E1C0
E1C0
E1C0
E1C0
7380
3F00
1E00
0C00
ENDCHAR
STARTCHAR w
ENCODING 119
SWIDTH 75 0
DWIDTH -1 0
BBX 10 11 0 0
BITMAP
E1C0
E1C0
E1C0
E1C0
E1C0
E1C0
E1C0
EDC0
EDC0
7F80
3300
ENDCHAR
STARTCHAR x
ENCODING 120
SWIDTH 75 0
DWIDTH -1 0
BBX 10 11 0 0
BITMAP
E1C0
E1C0
E1C0
7380
3F00
1E00
3F00
7380
E1C0
E1C0
E1C0
ENDCHAR
STARTCHAR y
ENCODING 121
SWIDTH 75 0
DWIDTH -1 0
BBX 9 11 0 0
BITMAP
E380
E380
E380
E380
F780
7F80
3B80
0380
0780
7F00
3E00
ENDCHAR
STARTCHAR z
ENCODING 122
SWIDTH 75 0
DWIDTH -1 0
BBX 10 11 0 0
BITMAP
FFC0
FFC0
FFC0
0780
0F00
1E00
3C00
7800
FFC0
FFC0
FFC0
ENDCHAR
STARTCHAR {
ENCODING 123
SWIDTH 75 0
DWIDTH -1 0
BBX 7 16 0 0
BITMAP
1E
3E
3E
38
38
38
38
F8
F8
38
38
38
38
3E
3E
1E
ENDCHAR
STARTCHAR |
ENCODING 124
SWIDTH 75 0
DWIDTH -1 0
BBX 0 0 12 15
ENDCHAR
STARTCHAR }
ENCODING 125
SWIDTH 75 0
DWIDTH -1 0
BBX 7 16 0 0
BITMAP
F0
F8
F8
38
38
38
38
3E
3E
38
38
38
38
F8
F8
F0
ENDCHAR
STARTCHAR ~
ENCODING 126
SWIDTH 75 0
DWIDTH -1 0
BBX 8 3 0 4
BITMAP
70
DB
0E
ENDCHAR
STARTCHAR ¤
ENCODING -92
SWIDTH 75 0
DWIDTH -1 0
BBX 11 16 0 0
BITMAP
1F80
3FC0
7FE0
7860
7000
FF80
FF80
7000
7000
FF80
FF80
7000
7860
7FE0
3FC0
1F80
ENDCHAR
STARTCHAR ¦
ENCODING -90
SWIDTH 75 0
DWIDTH -1 0
BBX 10 16 0 0
BITMAP
E1C0
7380
3F00
3F00
7F80
F3C0
E1C0
E000
FC00
7F80
0FC0
E1C0
E1C0
F3C0
7F80
3F00
ENDCHAR
STARTCHAR ¼
ENCODING -68
SWIDTH 75 0
DWIDTH -1 0
BBX 12 16 0 0
BITMAP
3BF0
7FF0
FFF0
F730
E700
E760
E7E0
E7E0
E7E0
E760
E700
E700
F730
FFF0
7FF0
3BF0
ENDCHAR
STARTCHAR ´
ENCODING -76
SWIDTH 75 0
DWIDTH -1 0
BBX 10 16 0 0
BITMAP
E1C0
7380
3F00
FFC0
FFC0
FFC0
C380
0700
0E00
1C00
3800
7000
E0C0
FFC0
FFC0
FFC0
ENDCHAR
STARTCHAR ¨
ENCODING -88
SWIDTH 75 0
DWIDTH -1 0
BBX 10 15 0 0
BITMAP
E1C0
7380
3F00
0000
3F00
7F80
F000
E000
7C00
3F00
0F80
01C0
03C0
FF80
7F00
ENDCHAR
STARTCHAR ½
ENCODING -67
SWIDTH 75 0
DWIDTH -1 0
BBX 12 9 0 0
BITMAP
3BC0
7FE0
E670
E670
C7E0
E600
E670
7FE0
3BC0
ENDCHAR
STARTCHAR ¸
ENCODING -72
SWIDTH 75 0
DWIDTH -1 0
BBX 9 15 0 0
BITMAP
E380
7700
3E00
0000
FF80
FF80
FF80
0780
0F00
1E00
3C00
7800
FF80
FF80
FF80
ENDCHAR
STARTCHAR ¾
ENCODING -66
SWIDTH 75 0
DWIDTH -1 0
BBX 11 16 0 0
BITMAP
71C0
71C0
71C0
FBE0
FBE0
71C0
71C0
7BC0
3F80
1F00
0E00
0E00
0E00
0E00
1F00
1F00
ENDCHAR
STARTCHAR ¡
ENCODING -95
SWIDTH 75 0
DWIDTH -1 0
BBX 3 16 0 0
BITMAP
E0
E0
E0
00
00
E0
E0
E0
E0
E0
E0
E0
E0
E0
E0
E0
ENDCHAR
STARTCHAR ¢
ENCODING -94
SWIDTH 75 0
DWIDTH -1 0
BBX 10 12 0 0
BITMAP
0300
3F00
7F80
F7C0
E600
E600
EC00
EC00
FDC0
7F80
3F00
1800
ENDCHAR
STARTCHAR £
ENCODING -93
SWIDTH 75 0
DWIDTH -1 0
BBX 10 16 0 0
BITMAP
1F00
3F80
7FC0
71C0
7000
7000
7000
3C00
FE00
FC00
7000
7000
71C0
7FC0
FF80
FF00
ENDCHAR
STARTCHAR ¥
ENCODING -91
SWIDTH 75 0
DWIDTH -1 0
BBX 11 16 0 0
BITMAP
FBE0
FBE0
71C0
71C0
71C0
7BC0
3F80
1F00
7FC0
7FC0
0E00
7FC0
7FC0
0E00
1F00
1F00
ENDCHAR
STARTCHAR §
ENCODING -89
SWIDTH 75 0
DWIDTH -1 0
BBX 7 16 0 0
BITMAP
7C
FE
C6
E0
70
F8
DC
CE
E6
76
3E
1C
0E
C6
FE
7C
ENDCHAR
STARTCHAR ©
ENCODING -87
SWIDTH 75 0
DWIDTH -1 0
BBX 12 12 0 2
BITMAP
3FC0
7FE0
C030
CFB0
DFB0
D830
D830
DFB0
CFB0
C030
7FE0
3FC0
ENDCHAR
STARTCHAR ª
ENCODING -86
SWIDTH 75 0
DWIDTH -1 0
BBX 5 5 0 10
BITMAP
70
08
78
88
78
ENDCHAR
STARTCHAR «
ENCODING -85
SWIDTH 75 0
DWIDTH -1 0
BBX 12 10 0 2
BITMAP
0E70
1CE0
39C0
7380
E700
E700
7380
39C0
1CE0
0E70
ENDCHAR
STARTCHAR ¬
ENCODING -84
SWIDTH 75 0
DWIDTH -1 0
BBX 10 7 0 7
BITMAP
FFC0
FFC0
FFC0
01C0
01C0
01C0
01C0
ENDCHAR
STARTCHAR ®
ENCODING -82
SWIDTH 75 0
DWIDTH -1 0
BBX 12 12 0 2
BITMAP
3FC0
7FE0
C030
DF30
D9B0
D9B0
DF30
D9B0
D9B0
C030
7FE0
3FC0
ENDCHAR
STARTCHAR ¯
ENCODING -81
SWIDTH 75 0
DWIDTH -1 0
BBX 10 3 0 13
BITMAP
FFC0
FFC0
FFC0
ENDCHAR
STARTCHAR °
ENCODING -80
SWIDTH 75 0
DWIDTH -1 0
BBX 4 4 0 12
BITMAP
60
90
90
60
ENDCHAR
STARTCHAR ±
ENCODING -79
SWIDTH 75 0
DWIDTH -1 0
BBX 9 13 0 1
BITMAP
1C00
1C00
1C00
FF80
FF80
FF80
1C00
1C00
1C00
0000
FF80
FF80
FF80
ENDCHAR
STARTCHAR ²
ENCODING -78
SWIDTH 75 0
DWIDTH -1 0
BBX 4 5 0 11
BITMAP
E0
10
20
40
F0
ENDCHAR
STARTCHAR ³
ENCODING -77
SWIDTH 75 0
DWIDTH -1 0
BBX 4 5 0 11
BITMAP
E0
10
20
10
E0
ENDCHAR
STARTCHAR µ
ENCODING -75
SWIDTH 75 0
DWIDTH -1 0
BBX 10 11 0 0
BITMAP
E1C0
E1C0
E1C0
E1C0
E1C0
E1C0
F3C0
FF80
EF00
E000
E000
ENDCHAR
STARTCHAR ·
ENCODING -73
SWIDTH 75 0
DWIDTH -1 0
BBX 3 3 0 6
BITMAP
E0
E0
E0
ENDCHAR
STARTCHAR ¹
ENCODING -71
SWIDTH 75 0
DWIDTH -1 0
BBX 2 6 0 10
BITMAP
40
C0
40
40
40
40
ENDCHAR
STARTCHAR º
ENCODING -70
SWIDTH 75 0
DWIDTH -1 0
BBX 5 6 0 10
BITMAP
70
88
88
88
88
70
ENDCHAR
STARTCHAR »
ENCODING -69
SWIDTH 75 0
DWIDTH -1 0
BBX 12 10 0 2
BITMAP
E700
7380
39C0
1CE0
0E70
0E70
1CE0
39C0
7380
E700
ENDCHAR
STARTCHAR ¿
ENCODING -65
SWIDTH 75 0
DWIDTH -1 0
BBX 10 16 0 0
BITMAP
1C00
1C00
1C00
0000
0000
1C00
1C00
3C00
7800
F000
E000
E1C0
E1C0
FFC0
7F80
3F00
ENDCHAR
STARTCHAR À
ENCODING -64
SWIDTH 75 0
DWIDTH -1 0
BBX 12 16 0 0
BITMAP
0E00
0700
0380
0F00
1F80
3FC0
79E0
70E0
70E0
7FE0
7FE0
7FE0
70E0
70E0
F9F0
F9F0
ENDCHAR
STARTCHAR Á
ENCODING -63
SWIDTH 75 0
DWIDTH -1 0
BBX 12 16 0 0
BITMAP
0700
0E00
1C00
0F00
1F80
3FC0
79E0
70E0
70E0
7FE0
7FE0
7FE0
70E0
70E0
F9F0
F9F0
ENDCHAR
STARTCHAR Â
ENCODING -62
SWIDTH 75 0
DWIDTH -1 0
BBX 12 16 0 0
BITMAP
1F80
39C0
70E0
0F00
1F80
3FC0
79E0
70E0
70E0
7FE0
7FE0
7FE0
70E0
70E0
F9F0
F9F0
ENDCHAR
STARTCHAR Ã
ENCODING -61
SWIDTH 75 0
DWIDTH -1 0
BBX 12 16 0 0
BITMAP
0E60
1FC0
3380
0F00
1F80
3FC0
79E0
70E0
70E0
7FE0
7FE0
7FE0
70E0
70E0
F9F0
F9F0
ENDCHAR
STARTCHAR Ä
ENCODING -60
SWIDTH 75 0
DWIDTH -1 0
BBX 12 16 0 0
BITMAP
39C0
39C0
39C0
0F00
1F80
3FC0
79E0
70E0
70E0
7FE0
7FE0
7FE0
70E0
70E0
F9F0
F9F0
ENDCHAR
STARTCHAR Å
ENCODING -59
SWIDTH 75 0
DWIDTH -1 0
BBX 12 16 0 0
BITMAP
0F00
1980
0F00
0F00
1F80
3FC0
79E0
70E0
70E0
7FE0
7FE0
7FE0
70E0
70E0
F9F0
F9F0
ENDCHAR
STARTCHAR Æ
ENCODING -58
SWIDTH 75 0
DWIDTH -1 0
BBX 12 16 0 0
BITMAP
0FF0
1FF0
3FF0
3BB0
7B80
7380
73A0
7FE0
7FE0
7FA0
7380
7380
73B0
73F0
FBF0
FBF0
ENDCHAR
STARTCHAR Ç
ENCODING -57
SWIDTH 75 0
DWIDTH -1 0
BBX 10 16 0 0
BITMAP
3F00
7F80
FFC0
F1C0
E1C0
E000
E000
E000
E000
E1C0
F1C0
FFC0
7F80
3F00
0C00
1C00
ENDCHAR
STARTCHAR È
ENCODING -56
SWIDTH 75 0
DWIDTH -1 0
BBX 10 16 0 0
BITMAP
1C00
0E00
0700
FFC0
FFC0
7FC0
70C0
7600
7E00
7E00
7600
7000
70C0
7FC0
FFC0
FFC0
ENDCHAR
STARTCHAR É
ENCODING -55
SWIDTH 75 0
DWIDTH -1 0
BBX 10 16 0 0
BITMAP
0700
0E00
1C00
FFC0
FFC0
7FC0
70C0
7600
7E00
7E00
7600
7000
70C0
7FC0
FFC0
FFC0
ENDCHAR
STARTCHAR Ê
ENCODING -54
SWIDTH 75 0
DWIDTH -1 0
BBX 10 16 0 0
BITMAP
3F00
7380
E1C0
FFC0
FFC0
7FC0
70C0
7600
7E00
7E00
7600
7000
70C0
7FC0
FFC0
FFC0
ENDCHAR
STARTCHAR Ë
ENCODING -53
SWIDTH 75 0
DWIDTH -1 0
BBX 10 16 0 0
BITMAP
7380
7380
7380
FFC0
FFC0
7FC0
70C0
7600
7E00
7E00
7600
7000
70C0
7FC0
FFC0
FFC0
ENDCHAR
STARTCHAR Ì
ENCODING -52
SWIDTH 75 0
DWIDTH -1 0
BBX 7 16 0 0
BITMAP
E0
70
38
FE
FE
38
38
38
38
38
38
38
38
38
FE
FE
ENDCHAR
STARTCHAR Í
ENCODING -51
SWIDTH 75 0
DWIDTH -1 0
BBX 7 16 0 0
BITMAP
1C
38
70
FE
FE
38
38
38
38
38
38
38
38
38
FE
FE
ENDCHAR
STARTCHAR Î
ENCODING -50
SWIDTH 75 0
DWIDTH -1 0
BBX 10 16 1 0
BITMAP
3F00
7380
E1C0
7F00
7F00
1C00
1C00
1C00
1C00
1C00
1C00
1C00
1C00
1C00
7F00
7F00
ENDCHAR
STARTCHAR Ï
ENCODING -49
SWIDTH 75 0
DWIDTH -1 0
BBX 7 16 0 0
BITMAP
EE
EE
EE
FE
FE
38
38
38
38
38
38
38
38
38
FE
FE
ENDCHAR
STARTCHAR Ð
ENCODING -48
SWIDTH 75 0
DWIDTH -1 0
BBX 12 16 0 0
BITMAP
7F00
7F80
3FC0
39E0
38E0
3870
FE70
FE70
FE70
3870
3870
38E0
39E0
3FC0
7F80
7F00
ENDCHAR
STARTCHAR Ñ
ENCODING -47
SWIDTH 75 0
DWIDTH -1 0
BBX 12 16 0 0
BITMAP
0E60
1FC0
3380
F9F0
F9F0
7CE0
7CE0
7EE0
7EE0
77E0
77E0
73E0
73E0
71E0
F1F0
F0F0
ENDCHAR
STARTCHAR Ò
ENCODING -46
SWIDTH 75 0
DWIDTH -1 0
BBX 11 16 0 0
BITMAP
3800
1C00
0E00
3F80
7FC0
F1E0
E0E0
E0E0
E0E0
E0E0
E0E0
E0E0
E0E0
F1E0
7FC0
3F80
ENDCHAR
STARTCHAR Ó
ENCODING -45
SWIDTH 75 0
DWIDTH -1 0
BBX 11 16 0 0
BITMAP
0380
0700
0E00
3F80
7FC0
F1E0
E0E0
E0E0
E0E0
E0E0
E0E0
E0E0
E0E0
F1E0
7FC0
3F80
ENDCHAR
STARTCHAR Ô
ENCODING -44
SWIDTH 75 0
DWIDTH -1 0
BBX 11 16 0 0
BITMAP
1F00
3B80
71C0
3F80
7FC0
F1E0
E0E0
E0E0
E0E0
E0E0
E0E0
E0E0
E0E0
F1E0
7FC0
3F80
ENDCHAR
STARTCHAR Õ
ENCODING -43
SWIDTH 75 0
DWIDTH -1 0
BBX 11 16 0 0
BITMAP
1CC0
3F80
6700
3F80
7FC0
F1E0
E0E0
E0E0
E0E0
E0E0
E0E0
E0E0
E0E0
F1E0
7FC0
3F80
ENDCHAR
STARTCHAR Ö
ENCODING -42
SWIDTH 75 0
DWIDTH -1 0
BBX 11 16 0 0
BITMAP
71C0
71C0
71C0
3F80
7FC0
F1E0
E0E0
E0E0
E0E0
E0E0
E0E0
E0E0
E0E0
F1E0
7FC0
3F80
ENDCHAR
STARTCHAR ×
ENCODING -41
SWIDTH 75 0
DWIDTH -1 0
BBX 9 9 0 2
BITMAP
C180
E380
7700
3E00
1C00
3E00
7700
E380
C180
ENDCHAR
STARTCHAR Ø
ENCODING -40
SWIDTH 75 0
DWIDTH -1 0
BBX 11 16 0 0
BITMAP
1F00
3F80
7FC0
F1E0
E1E0
E3E0
E3E0
E6E0
E6E0
ECE0
ECE0
F8E0
F9E0
7FC0
3F80
1F00
ENDCHAR
STARTCHAR Ù
ENCODING -39
SWIDTH 75 0
DWIDTH -1 0
BBX 12 16 0 0
BITMAP
3800
1C00
0E00
F9F0
F9F0
70E0
70E0
70E0
70E0
70E0
70E0
70E0
70E0
79E0
3FC0
1F80
ENDCHAR
STARTCHAR Ú
ENCODING -38
SWIDTH 75 0
DWIDTH -1 0
BBX 12 16 0 0
BITMAP
0380
0700
0E00
F9F0
F9F0
70E0
70E0
70E0
70E0
70E0
70E0
70E0
70E0
79E0
3FC0
1F80
ENDCHAR
STARTCHAR Û
ENCODING -37
SWIDTH 75 0
DWIDTH -1 0
BBX 12 16 0 0
BITMAP
1F80
39C0
70E0
F9F0
F9F0
70E0
70E0
70E0
70E0
70E0
70E0
70E0
70E0
79E0
3FC0
1F80
ENDCHAR
STARTCHAR Ü
ENCODING -36
SWIDTH 75 0
DWIDTH -1 0
BBX 12 16 0 0
BITMAP
70E0
70E0
70E0
F9F0
F9F0
70E0
70E0
70E0
70E0
70E0
70E0
70E0
70E0
79E0
3FC0
1F80
ENDCHAR
STARTCHAR Ý
ENCODING -35
SWIDTH 75 0
DWIDTH -1 0
BBX 11 16 0 0
BITMAP
0700
0E00
1C00
FBE0
FBE0
71C0
71C0
7BC0
3F80
1F00
0E00
0E00
0E00
0E00
1F00
1F00
ENDCHAR
STARTCHAR Þ
ENCODING -34
SWIDTH 75 0
DWIDTH -1 0
BBX 10 16 1 0
BITMAP
E000
E000
E000
E000
FF00
FF80
FFC0
E1C0
E1C0
FFC0
FF80
FF00
E000
E000
E000
E000
ENDCHAR
STARTCHAR ß
ENCODING -33
SWIDTH 75 0
DWIDTH -1 0
BBX 10 16 1 0
BITMAP
3E00
7F00
FF80
F380
E780
EF00
EE00
E780
E3C0
E3C0
E1C0
E3C0
EFC0
EF80
EF00
E000
ENDCHAR
STARTCHAR à
ENCODING -32
SWIDTH 75 0
DWIDTH -1 0
BBX 10 15 0 0
BITMAP
1C00
0E00
0700
0000
3F00
7F80
C3C0
01C0
3DC0
7FC0
E7C0
E3C0
E3C0
7FC0
3DC0
ENDCHAR
STARTCHAR á
ENCODING -31
SWIDTH 75 0
DWIDTH -1 0
BBX 10 15 0 0
BITMAP
0E00
1C00
3800
0000
3F00
7F80
C3C0
01C0
3DC0
7FC0
E7C0
E3C0
E3C0
7FC0
3DC0
ENDCHAR
STARTCHAR â
ENCODING -30
SWIDTH 75 0
DWIDTH -1 0
BBX 10 16 0 0
BITMAP
1C00
3E00
7700
E380
0000
3F00
7F80
C3C0
01C0
3DC0
7FC0
E7C0
E3C0
E3C0
7FC0
3DC0
ENDCHAR
STARTCHAR ã
ENCODING -29
SWIDTH 75 0
DWIDTH -1 0
BBX 10 15 0 0
BITMAP
1CC0
3F80
6700
0000
3F00
7F80
C3C0
01C0
3DC0
7FC0
E7C0
E3C0
E3C0
7FC0
3DC0
ENDCHAR
STARTCHAR ä
ENCODING -28
SWIDTH 75 0
DWIDTH -1 0
BBX 10 15 0 0
BITMAP
7380
7380
7380
0000
3F00
7F80
C3C0
01C0
3DC0
7FC0
E7C0
E3C0
E3C0
7FC0
3DC0
ENDCHAR
STARTCHAR å
ENCODING -27
SWIDTH 75 0
DWIDTH -1 0
BBX 10 16 0 0
BITMAP
1C00
3600
3600
1C00
0000
3F00
7F80
C3C0
01C0
3DC0
7FC0
E7C0
E3C0
E3C0
7FC0
3DC0
ENDCHAR
STARTCHAR æ
ENCODING -26
SWIDTH 75 0
DWIDTH -1 0
BBX 12 11 0 0
BITMAP
3DC0
7FE0
CF70
0630
3630
7FF0
EFE0
CE00
CE00
7FE0
36C0
ENDCHAR
STARTCHAR ç
ENCODING -25
SWIDTH 75 0
DWIDTH -1 0
BBX 10 11 0 0
BITMAP
3F00
7F80
E1C0
E000
E000
E000
E1C0
FF80
3F00
F800
F000
ENDCHAR
STARTCHAR è
ENCODING -24
SWIDTH 75 0
DWIDTH -1 0
BBX 10 15 0 0
BITMAP
1C00
0E00
0700
0000
3F00
7F80
F3C0
E1C0
E1C0
FFC0
FF80
E000
F000
7F80
3F00
ENDCHAR
STARTCHAR é
ENCODING -23
SWIDTH 75 0
DWIDTH -1 0
BBX 10 15 0 0
BITMAP
0E00
1C00
3800
0000
3F00
7F80
F3C0
E1C0
E1C0
FFC0
FF80
E000
F000
7F80
3F00
ENDCHAR
STARTCHAR ê
ENCODING -22
SWIDTH 75 0
DWIDTH -1 0
BBX 10 16 0 0
BITMAP
1C00
3E00
7700
E380
0000
3F00
7F80
F3C0
E1C0
E1C0
FFC0
FF80
E000
F000
7F80
3F00
ENDCHAR
STARTCHAR ë
ENCODING -21
SWIDTH 75 0
DWIDTH -1 0
BBX 10 15 0 0
BITMAP
7380
7380
7380
0000
3F00
7F80
F3C0
E1C0
E1C0
FFC0
FF80
E000
F000
7F80
3F00
ENDCHAR
STARTCHAR ì
ENCODING -20
SWIDTH 75 0
DWIDTH -1 0
BBX 7 15 0 0
BITMAP
E0
70
38
00
F8
F8
F8
38
38
38
38
38
FE
FE
FE
ENDCHAR
STARTCHAR í
ENCODING -19
SWIDTH 75 0
DWIDTH -1 0
BBX 7 15 0 0
BITMAP
38
70
E0
00
F8
F8
F8
38
38
38
38
38
FE
FE
FE
ENDCHAR
STARTCHAR î
ENCODING -18
SWIDTH 75 0
DWIDTH -1 0
BBX 8 16 0 0
BITMAP
18
3C
7E
E7
00
7C
7C
7C
1C
1C
1C
1C
1C
7F
7F
7F
ENDCHAR
STARTCHAR ï
ENCODING -17
SWIDTH 75 0
DWIDTH -1 0
BBX 8 15 0 0
BITMAP
E7
E7
E7
00
7C
7C
7C
1C
1C
1C
1C
1C
7F
7F
7F
ENDCHAR
STARTCHAR ð
ENCODING -16
SWIDTH 75 0
DWIDTH -1 0
BBX 10 15 0 0
BITMAP
1200
0C00
1200
0300
3F00
7F80
F3C0
E1C0
E1C0
E1C0
E1C0
E1C0
F3C0
7F80
3F00
ENDCHAR
STARTCHAR ñ
ENCODING -15
SWIDTH 75 0
DWIDTH -1 0
BBX 10 15 0 0
BITMAP
1CC0
3F80
6700
0000
EF00
FF80
F3C0
E1C0
E1C0
E1C0
E1C0
E1C0
E1C0
E1C0
E1C0
ENDCHAR
STARTCHAR ò
ENCODING -14
SWIDTH 75 0
DWIDTH -1 0
BBX 10 15 0 0
BITMAP
3800
1C00
0E00
0000
3F00
7F80
F3C0
E1C0
E1C0
E1C0
E1C0
E1C0
F3C0
7F80
3F00
ENDCHAR
STARTCHAR ó
ENCODING -13
SWIDTH 75 0
DWIDTH -1 0
BBX 10 15 0 0
BITMAP
0700
0E00
1C00
0000
3F00
7F80
F3C0
E1C0
E1C0
E1C0
E1C0
E1C0
F3C0
7F80
3F00
ENDCHAR
STARTCHAR ô
ENCODING -12
SWIDTH 75 0
DWIDTH -1 0
BBX 10 16 0 0
BITMAP
1E00
3F00
7380
E1C0
0000
3F00
7F80
F3C0
E1C0
E1C0
E1C0
E1C0
E1C0
F3C0
7F80
3F00
ENDCHAR
STARTCHAR õ
ENCODING -11
SWIDTH 75 0
DWIDTH -1 0
BBX 10 15 0 0
BITMAP
1CC0
3F80
6700
0000
3F00
7F80
F3C0
E1C0
E1C0
E1C0
E1C0
E1C0
F3C0
7F80
3F00
ENDCHAR
STARTCHAR ö
ENCODING -10
SWIDTH 75 0
DWIDTH -1 0
BBX 10 15 0 0
BITMAP
7380
7380
7380
0000
3F00
7F80
F3C0
E1C0
E1C0
E1C0
E1C0
E1C0
F3C0
7F80
3F00
ENDCHAR
STARTCHAR ÷
ENCODING -9
SWIDTH 75 0
DWIDTH -1 0
BBX 11 11 0 1
BITMAP
0E00
0E00
0E00
0000
FFE0
FFE0
FFE0
0000
0E00
0E00
0E00
ENDCHAR
STARTCHAR ø
ENCODING -8
SWIDTH 75 0
DWIDTH -1 0
BBX 10 11 0 0
BITMAP
3F00
7F80
F3C0
E1C0
E1C0
E1C0
E1C0
E1C0
F3C0
7F80
3F00
ENDCHAR
STARTCHAR ù
ENCODING -7
SWIDTH 75 0
DWIDTH -1 0
BBX 10 15 0 0
BITMAP
3800
1C00
0E00
0000
E1C0
E1C0
E1C0
E1C0
E1C0
E1C0
E1C0
E1C0
F3C0
7FC0
3EC0
ENDCHAR
STARTCHAR ú
ENCODING -6
SWIDTH 75 0
DWIDTH -1 0
BBX 10 15 0 0
BITMAP
0700
0E00
1C00
0000
E1C0
E1C0
E1C0
E1C0
E1C0
E1C0
E1C0
E1C0
F3C0
7FC0
3EC0
ENDCHAR
STARTCHAR û
ENCODING -5
SWIDTH 75 0
DWIDTH -1 0
BBX 10 16 0 0
BITMAP
1E00
3F00
7380
E1C0
0000
E1C0
E1C0
E1C0
E1C0
E1C0
E1C0
E1C0
E1C0
F3C0
7FC0
3EC0
ENDCHAR
STARTCHAR ü
ENCODING -4
SWIDTH 75 0
DWIDTH -1 0
BBX 10 15 0 0
BITMAP
7380
7380
7380
0000
E1C0
E1C0
E1C0
E1C0
E1C0
E1C0
E1C0
E1C0
F3C0
7FC0
3EC0
ENDCHAR
STARTCHAR ý
ENCODING -3
SWIDTH 75 0
DWIDTH -1 0
BBX 9 15 0 0
BITMAP
0E00
1C00
3800
0000
E380
E380
E380
E380
F780
7F80
3B80
0380
0780
7F00
3E00
ENDCHAR
STARTCHAR þ
ENCODING -2
SWIDTH 75 0
DWIDTH -1 0
BBX 10 16 0 0
BITMAP
E000
E000
E000
FF00
FF80
FFC0
E1C0
E1C0
E1C0
E1C0
FFC0
FF80
FF00
E000
E000
E000
ENDCHAR
STARTCHAR ÿ
ENCODING -1
SWIDTH 75 0
DWIDTH -1 0
BBX 9 15 0 0
BITMAP
E380
E380
E380
0000
E380
E380
E380
E380
F780
7F80
3B80
0380
0780
7F00
3E00
ENDCHAR
ENDFONT
