STARTFONT 2.1
COMMENT Lumiplan font build using LumiStudio
FONT I_Import
SIZE 24 75 75
FONTBOUNDINGBOX 12 24 0 0
STARTPROPERTIES 1
Copyright "Copyright (c) 2021 Lumiplan"
ENDPROPERTIES
CHARS 145
STARTCHAR 
ENCODING 14
SWIDTH 75 0
DWIDTH -1 0
BBX 0 0 1 23
ENDCHAR
STARTCHAR  
ENCODING 32
SWIDTH 75 0
DWIDTH -1 0
BBX 0 0 4 23
ENDCHAR
STARTCHAR !
ENCODING 33
SWIDTH 75 0
DWIDTH -1 0
BBX 11 17 0 6
BITMAP
0C00
1E00
1E00
0C00
0C00
1E00
3F00
5E80
9E40
1E20
1E00
2200
4200
4100
40E0
4020
C000
ENDCHAR
STARTCHAR "
ENCODING 34
SWIDTH 75 0
DWIDTH -1 0
BBX 12 14 0 6
BITMAP
0800
1C00
1C00
0800
1E00
3D00
5CA0
9C50
1CA0
1440
2200
2180
2080
6000
ENDCHAR
STARTCHAR #
ENCODING 35
SWIDTH 75 0
DWIDTH -1 0
BBX 12 12 0 12
BITMAP
FFF0
7FF0
3FF0
1FF0
0FF0
07F0
03F0
01F0
00F0
0070
0030
0010
ENDCHAR
STARTCHAR $
ENCODING 36
SWIDTH 75 0
DWIDTH -1 0
BBX 0 0 12 23
ENDCHAR
STARTCHAR %
ENCODING 37
SWIDTH 75 0
DWIDTH -1 0
BBX 0 0 12 23
ENDCHAR
STARTCHAR &
ENCODING 38
SWIDTH 75 0
DWIDTH -1 0
BBX 10 14 0 9
BITMAP
7C00
FE00
C600
C600
C600
6C00
3800
3840
6CC0
C780
C300
C780
FCC0
7840
ENDCHAR
STARTCHAR '
ENCODING 39
SWIDTH 75 0
DWIDTH -1 0
BBX 5 6 0 17
BITMAP
30
78
78
30
60
80
ENDCHAR
STARTCHAR (
ENCODING 40
SWIDTH 75 0
DWIDTH -1 0
BBX 9 15 0 9
BITMAP
1C00
1C00
1C00
0800
1C00
3E00
5D00
9C80
1C00
1C00
1E00
2100
4080
4000
C000
ENDCHAR
STARTCHAR )
ENCODING 41
SWIDTH 75 0
DWIDTH -1 0
BBX 10 13 0 9
BITMAP
0400
0E00
0E00
0400
1F00
2E80
CE40
0E00
0E00
1200
9380
9080
3000
ENDCHAR
STARTCHAR *
ENCODING 42
SWIDTH 75 0
DWIDTH -1 0
BBX 8 10 0 14
BITMAP
0E
1E
36
66
C6
FF
FF
06
06
06
ENDCHAR
STARTCHAR +
ENCODING 43
SWIDTH 75 0
DWIDTH -1 0
BBX 0 0 12 23
ENDCHAR
STARTCHAR ,
ENCODING 44
SWIDTH 75 0
DWIDTH -1 0
BBX 0 0 12 23
ENDCHAR
STARTCHAR -
ENCODING 45
SWIDTH 75 0
DWIDTH -1 0
BBX 0 0 12 23
ENDCHAR
STARTCHAR .
ENCODING 46
SWIDTH 75 0
DWIDTH -1 0
BBX 0 0 12 23
ENDCHAR
STARTCHAR /
ENCODING 47
SWIDTH 75 0
DWIDTH -1 0
BBX 0 0 12 23
ENDCHAR
STARTCHAR 0
ENCODING 48
SWIDTH 75 0
DWIDTH -1 0
BBX 9 14 0 9
BITMAP
3E00
7F00
E380
E380
E380
E380
E380
E380
E380
E380
E380
E380
7F00
3E00
ENDCHAR
STARTCHAR 1
ENCODING 49
SWIDTH 75 0
DWIDTH -1 0
BBX 7 14 0 9
BITMAP
38
78
F8
F8
38
38
38
38
38
38
38
FE
FE
FE
ENDCHAR
STARTCHAR 2
ENCODING 50
SWIDTH 75 0
DWIDTH -1 0
BBX 9 14 0 9
BITMAP
3E00
7F00
E380
E380
0380
0700
0E00
1C00
3800
7000
E000
FF80
FF80
FF80
ENDCHAR
STARTCHAR 3
ENCODING 51
SWIDTH 75 0
DWIDTH -1 0
BBX 9 14 0 9
BITMAP
FF80
FF80
0380
0700
0E00
1E00
1F00
0380
0380
0380
E380
E380
7F00
3E00
ENDCHAR
STARTCHAR 4
ENCODING 52
SWIDTH 75 0
DWIDTH -1 0
BBX 9 14 0 9
BITMAP
0300
0700
0F00
1F00
3F00
7700
E700
C700
FF80
FF80
0700
0700
0700
0700
ENDCHAR
STARTCHAR 5
ENCODING 53
SWIDTH 75 0
DWIDTH -1 0
BBX 9 14 0 9
BITMAP
FF80
FF80
E000
E000
E000
FE00
FF00
0380
0380
0380
E380
E380
7F00
3E00
ENDCHAR
STARTCHAR 6
ENCODING 54
SWIDTH 75 0
DWIDTH -1 0
BBX 9 14 0 9
BITMAP
1E00
3E00
7000
E000
E000
E000
FE00
FF00
E380
E380
E380
E380
7F00
3E00
ENDCHAR
STARTCHAR 7
ENCODING 55
SWIDTH 75 0
DWIDTH -1 0
BBX 9 14 0 9
BITMAP
FF80
FF80
FF80
0180
0300
0600
0C00
1C00
1C00
1C00
1C00
1C00
1C00
1C00
ENDCHAR
STARTCHAR 8
ENCODING 56
SWIDTH 75 0
DWIDTH -1 0
BBX 9 14 0 9
BITMAP
3E00
7F00
E380
E380
E380
E380
7F00
7F00
E380
E380
E380
E380
7F00
3E00
ENDCHAR
STARTCHAR 9
ENCODING 57
SWIDTH 75 0
DWIDTH -1 0
BBX 9 14 0 9
BITMAP
3E00
7F00
E380
E380
E380
E380
7F80
3F80
0380
0380
0380
0700
3E00
3C00
ENDCHAR
STARTCHAR :
ENCODING 58
SWIDTH 75 0
DWIDTH -1 0
BBX 8 10 0 8
BITMAP
3C
7E
E7
C3
C3
C3
FF
FF
C3
C3
ENDCHAR
STARTCHAR ;
ENCODING 59
SWIDTH 75 0
DWIDTH -1 0
BBX 0 0 12 23
ENDCHAR
STARTCHAR <
ENCODING 60
SWIDTH 75 0
DWIDTH -1 0
BBX 0 0 12 23
ENDCHAR
STARTCHAR =
ENCODING 61
SWIDTH 75 0
DWIDTH -1 0
BBX 0 0 12 23
ENDCHAR
STARTCHAR >
ENCODING 62
SWIDTH 75 0
DWIDTH -1 0
BBX 0 0 12 23
ENDCHAR
STARTCHAR ?
ENCODING 63
SWIDTH 75 0
DWIDTH -1 0
BBX 9 14 0 9
BITMAP
3E00
7F00
E380
E380
0380
0380
0700
0E00
1C00
1C00
1C00
0000
1C00
1C00
ENDCHAR
STARTCHAR @
ENCODING 64
SWIDTH 75 0
DWIDTH -1 0
BBX 0 0 12 23
ENDCHAR
STARTCHAR A
ENCODING 65
SWIDTH 75 0
DWIDTH -1 0
BBX 9 14 0 9
BITMAP
3E00
7F00
E380
E380
E380
E380
E380
FF80
FF80
E380
E380
E380
E380
E380
ENDCHAR
STARTCHAR B
ENCODING 66
SWIDTH 75 0
DWIDTH -1 0
BBX 9 14 0 9
BITMAP
FE00
FF00
E380
E380
E380
E380
FF00
FF00
E380
E380
E380
E380
FF00
FE00
ENDCHAR
STARTCHAR C
ENCODING 67
SWIDTH 75 0
DWIDTH -1 0
BBX 9 14 0 9
BITMAP
3E00
7F00
E380
E380
E000
E000
E000
E000
E000
E000
E380
E380
7F00
3E00
ENDCHAR
STARTCHAR D
ENCODING 68
SWIDTH 75 0
DWIDTH -1 0
BBX 9 14 0 9
BITMAP
FC00
FE00
E300
E380
E380
E380
E380
E380
E380
E380
E380
E300
FE00
FC00
ENDCHAR
STARTCHAR E
ENCODING 69
SWIDTH 75 0
DWIDTH -1 0
BBX 8 14 0 9
BITMAP
FF
FF
E0
E0
E0
E0
FC
FC
E0
E0
E0
E0
FF
FF
ENDCHAR
STARTCHAR F
ENCODING 70
SWIDTH 75 0
DWIDTH -1 0
BBX 8 14 0 9
BITMAP
FF
FF
E0
E0
E0
E0
FC
FC
E0
E0
E0
E0
E0
E0
ENDCHAR
STARTCHAR G
ENCODING 71
SWIDTH 75 0
DWIDTH -1 0
BBX 9 14 0 9
BITMAP
3E00
7F00
E380
E380
E000
E000
E000
E780
E780
E380
E380
E380
7F80
3F80
ENDCHAR
STARTCHAR H
ENCODING 72
SWIDTH 75 0
DWIDTH -1 0
BBX 9 14 0 9
BITMAP
E380
E380
E380
E380
E380
E380
FF80
FF80
E380
E380
E380
E380
E380
E380
ENDCHAR
STARTCHAR I
ENCODING 73
SWIDTH 75 0
DWIDTH -1 0
BBX 5 14 0 9
BITMAP
F8
F8
70
70
70
70
70
70
70
70
70
70
F8
F8
ENDCHAR
STARTCHAR J
ENCODING 74
SWIDTH 75 0
DWIDTH -1 0
BBX 9 14 0 9
BITMAP
0F80
0F80
0700
0700
0700
0700
0700
0700
0700
E700
E700
E700
7E00
3C00
ENDCHAR
STARTCHAR K
ENCODING 75
SWIDTH 75 0
DWIDTH -1 0
BBX 9 14 0 9
BITMAP
E380
E700
EE00
FC00
F800
F000
E000
E000
F000
F800
FC00
EE00
E700
E380
ENDCHAR
STARTCHAR L
ENCODING 76
SWIDTH 75 0
DWIDTH -1 0
BBX 8 14 0 9
BITMAP
E0
E0
E0
E0
E0
E0
E0
E0
E0
E0
E0
E0
FF
FF
ENDCHAR
STARTCHAR M
ENCODING 77
SWIDTH 75 0
DWIDTH -1 0
BBX 9 14 0 9
BITMAP
C180
E380
F780
FF80
EB80
E380
E380
E380
E380
E380
E380
E380
E380
E380
ENDCHAR
STARTCHAR N
ENCODING 78
SWIDTH 75 0
DWIDTH -1 0
BBX 9 14 0 9
BITMAP
C380
E380
F380
FB80
EF80
E780
E380
E380
E380
E380
E380
E380
E380
E380
ENDCHAR
STARTCHAR O
ENCODING 79
SWIDTH 75 0
DWIDTH -1 0
BBX 9 14 0 9
BITMAP
3E00
7F00
E380
E380
E380
E380
E380
E380
E380
E380
E380
E380
7F00
3E00
ENDCHAR
STARTCHAR P
ENCODING 80
SWIDTH 75 0
DWIDTH -1 0
BBX 9 14 0 9
BITMAP
FE00
FF00
E380
E380
E380
E380
FF00
FE00
E000
E000
E000
E000
E000
E000
ENDCHAR
STARTCHAR Q
ENCODING 81
SWIDTH 75 0
DWIDTH -1 0
BBX 9 14 0 9
BITMAP
3E00
7F00
E380
E380
E380
E380
E380
E380
E380
E380
EF80
EF00
7F00
3D80
ENDCHAR
STARTCHAR R
ENCODING 82
SWIDTH 75 0
DWIDTH -1 0
BBX 9 14 0 9
BITMAP
FE00
FF00
E380
E380
E380
E380
FF00
FE00
FC00
EE00
E700
E380
E380
E380
ENDCHAR
STARTCHAR S
ENCODING 83
SWIDTH 75 0
DWIDTH -1 0
BBX 9 14 0 9
BITMAP
3E00
7F00
E380
E000
E000
E000
7E00
3F00
0380
0380
0380
E380
7F00
3E00
ENDCHAR
STARTCHAR T
ENCODING 84
SWIDTH 75 0
DWIDTH -1 0
BBX 9 14 0 9
BITMAP
FF80
FF80
1C00
1C00
1C00
1C00
1C00
1C00
1C00
1C00
1C00
1C00
1C00
1C00
ENDCHAR
STARTCHAR U
ENCODING 85
SWIDTH 75 0
DWIDTH -1 0
BBX 9 14 0 9
BITMAP
E380
E380
E380
E380
E380
E380
E380
E380
E380
E380
E380
E380
7F00
3E00
ENDCHAR
STARTCHAR V
ENCODING 86
SWIDTH 75 0
DWIDTH -1 0
BBX 9 14 0 9
BITMAP
E380
E380
E380
E380
E380
E380
E380
E380
E380
E380
6300
3600
1C00
0800
ENDCHAR
STARTCHAR W
ENCODING 87
SWIDTH 75 0
DWIDTH -1 0
BBX 9 14 0 9
BITMAP
E380
E380
E380
E380
E380
E380
E380
E380
E380
EB80
EB80
FF80
7700
2200
ENDCHAR
STARTCHAR X
ENCODING 88
SWIDTH 75 0
DWIDTH -1 0
BBX 9 14 0 9
BITMAP
E380
E380
E380
E380
6300
3600
1C00
1C00
3600
6300
E380
E380
E380
E380
ENDCHAR
STARTCHAR Y
ENCODING 89
SWIDTH 75 0
DWIDTH -1 0
BBX 9 14 0 9
BITMAP
E380
E380
E380
E380
E380
7700
3E00
1C00
1C00
1C00
1C00
1C00
1C00
1C00
ENDCHAR
STARTCHAR Z
ENCODING 90
SWIDTH 75 0
DWIDTH -1 0
BBX 9 14 0 9
BITMAP
FF80
FF80
0380
0380
0300
0600
0C00
1800
3000
6000
E000
E000
FF80
FF80
ENDCHAR
STARTCHAR [
ENCODING 91
SWIDTH 75 0
DWIDTH -1 0
BBX 0 0 12 23
ENDCHAR
STARTCHAR \
ENCODING 92
SWIDTH 75 0
DWIDTH -1 0
BBX 0 0 12 23
ENDCHAR
STARTCHAR ]
ENCODING 93
SWIDTH 75 0
DWIDTH -1 0
BBX 0 0 12 23
ENDCHAR
STARTCHAR ^
ENCODING 94
SWIDTH 75 0
DWIDTH -1 0
BBX 0 0 12 23
ENDCHAR
STARTCHAR _
ENCODING 95
SWIDTH 75 0
DWIDTH -1 0
BBX 0 0 12 23
ENDCHAR
STARTCHAR `
ENCODING 96
SWIDTH 75 0
DWIDTH -1 0
BBX 0 0 12 23
ENDCHAR
STARTCHAR a
ENCODING 97
SWIDTH 75 0
DWIDTH -1 0
BBX 0 0 12 23
ENDCHAR
STARTCHAR b
ENCODING 98
SWIDTH 75 0
DWIDTH -1 0
BBX 0 0 12 23
ENDCHAR
STARTCHAR c
ENCODING 99
SWIDTH 75 0
DWIDTH -1 0
BBX 0 0 12 23
ENDCHAR
STARTCHAR d
ENCODING 100
SWIDTH 75 0
DWIDTH -1 0
BBX 0 0 12 23
ENDCHAR
STARTCHAR e
ENCODING 101
SWIDTH 75 0
DWIDTH -1 0
BBX 0 0 12 23
ENDCHAR
STARTCHAR f
ENCODING 102
SWIDTH 75 0
DWIDTH -1 0
BBX 0 0 12 23
ENDCHAR
STARTCHAR g
ENCODING 103
SWIDTH 75 0
DWIDTH -1 0
BBX 0 0 12 23
ENDCHAR
STARTCHAR h
ENCODING 104
SWIDTH 75 0
DWIDTH -1 0
BBX 0 0 12 23
ENDCHAR
STARTCHAR i
ENCODING 105
SWIDTH 75 0
DWIDTH -1 0
BBX 0 0 12 23
ENDCHAR
STARTCHAR j
ENCODING 106
SWIDTH 75 0
DWIDTH -1 0
BBX 0 0 12 23
ENDCHAR
STARTCHAR k
ENCODING 107
SWIDTH 75 0
DWIDTH -1 0
BBX 0 0 12 23
ENDCHAR
STARTCHAR l
ENCODING 108
SWIDTH 75 0
DWIDTH -1 0
BBX 0 0 12 23
ENDCHAR
STARTCHAR m
ENCODING 109
SWIDTH 75 0
DWIDTH -1 0
BBX 0 0 12 23
ENDCHAR
STARTCHAR n
ENCODING 110
SWIDTH 75 0
DWIDTH -1 0
BBX 0 0 12 23
ENDCHAR
STARTCHAR o
ENCODING 111
SWIDTH 75 0
DWIDTH -1 0
BBX 0 0 12 23
ENDCHAR
STARTCHAR p
ENCODING 112
SWIDTH 75 0
DWIDTH -1 0
BBX 0 0 12 23
ENDCHAR
STARTCHAR q
ENCODING 113
SWIDTH 75 0
DWIDTH -1 0
BBX 0 0 12 23
ENDCHAR
STARTCHAR r
ENCODING 114
SWIDTH 75 0
DWIDTH -1 0
BBX 0 0 12 23
ENDCHAR
STARTCHAR s
ENCODING 115
SWIDTH 75 0
DWIDTH -1 0
BBX 0 0 12 23
ENDCHAR
STARTCHAR t
ENCODING 116
SWIDTH 75 0
DWIDTH -1 0
BBX 0 0 12 23
ENDCHAR
STARTCHAR u
ENCODING 117
SWIDTH 75 0
DWIDTH -1 0
BBX 0 0 12 23
ENDCHAR
STARTCHAR v
ENCODING 118
SWIDTH 75 0
DWIDTH -1 0
BBX 0 0 12 23
ENDCHAR
STARTCHAR w
ENCODING 119
SWIDTH 75 0
DWIDTH -1 0
BBX 0 0 12 23
ENDCHAR
STARTCHAR x
ENCODING 120
SWIDTH 75 0
DWIDTH -1 0
BBX 0 0 12 23
ENDCHAR
STARTCHAR y
ENCODING 121
SWIDTH 75 0
DWIDTH -1 0
BBX 0 0 12 23
ENDCHAR
STARTCHAR z
ENCODING 122
SWIDTH 75 0
DWIDTH -1 0
BBX 0 0 12 23
ENDCHAR
STARTCHAR {
ENCODING 123
SWIDTH 75 0
DWIDTH -1 0
BBX 0 0 12 23
ENDCHAR
STARTCHAR |
ENCODING 124
SWIDTH 75 0
DWIDTH -1 0
BBX 0 0 12 23
ENDCHAR
STARTCHAR }
ENCODING 125
SWIDTH 75 0
DWIDTH -1 0
BBX 0 0 12 23
ENDCHAR
STARTCHAR ~
ENCODING 126
SWIDTH 75 0
DWIDTH -1 0
BBX 0 0 12 23
ENDCHAR
STARTCHAR 
ENCODING 127
SWIDTH 75 0
DWIDTH -1 0
BBX 0 0 12 23
ENDCHAR
STARTCHAR f
ENCODING 102
SWIDTH 75 0
DWIDTH -1 0
BBX 0 0 12 23
ENDCHAR
STARTCHAR ¡
ENCODING -95
SWIDTH 75 0
DWIDTH -1 0
BBX 0 0 12 23
ENDCHAR
STARTCHAR £
ENCODING -93
SWIDTH 75 0
DWIDTH -1 0
BBX 0 0 12 23
ENDCHAR
STARTCHAR ª
ENCODING -86
SWIDTH 75 0
DWIDTH -1 0
BBX 0 0 12 23
ENDCHAR
STARTCHAR «
ENCODING -85
SWIDTH 75 0
DWIDTH -1 0
BBX 0 0 12 23
ENDCHAR
STARTCHAR ¬
ENCODING -84
SWIDTH 75 0
DWIDTH -1 0
BBX 0 0 12 23
ENDCHAR
STARTCHAR ®
ENCODING -82
SWIDTH 75 0
DWIDTH -1 0
BBX 0 0 12 23
ENDCHAR
STARTCHAR º
ENCODING -70
SWIDTH 75 0
DWIDTH -1 0
BBX 0 0 12 23
ENDCHAR
STARTCHAR »
ENCODING -69
SWIDTH 75 0
DWIDTH -1 0
BBX 0 0 12 23
ENDCHAR
STARTCHAR  
ENCODING 32
SWIDTH 75 0
DWIDTH -1 0
BBX 0 0 12 23
ENDCHAR
STARTCHAR  
ENCODING 32
SWIDTH 75 0
DWIDTH -1 0
BBX 0 0 12 23
ENDCHAR
STARTCHAR ¿
ENCODING -65
SWIDTH 75 0
DWIDTH -1 0
BBX 0 0 12 23
ENDCHAR
STARTCHAR Ä
ENCODING -60
SWIDTH 75 0
DWIDTH -1 0
BBX 0 0 12 23
ENDCHAR
STARTCHAR Å
ENCODING -59
SWIDTH 75 0
DWIDTH -1 0
BBX 0 0 12 23
ENDCHAR
STARTCHAR Æ
ENCODING -58
SWIDTH 75 0
DWIDTH -1 0
BBX 0 0 12 23
ENDCHAR
STARTCHAR Ç
ENCODING -57
SWIDTH 75 0
DWIDTH -1 0
BBX 0 0 12 23
ENDCHAR
STARTCHAR É
ENCODING -55
SWIDTH 75 0
DWIDTH -1 0
BBX 0 0 12 23
ENDCHAR
STARTCHAR Ñ
ENCODING -47
SWIDTH 75 0
DWIDTH -1 0
BBX 0 0 12 23
ENDCHAR
STARTCHAR Ö
ENCODING -42
SWIDTH 75 0
DWIDTH -1 0
BBX 0 0 12 23
ENDCHAR
STARTCHAR ×
ENCODING -41
SWIDTH 75 0
DWIDTH -1 0
BBX 0 0 12 23
ENDCHAR
STARTCHAR Ø
ENCODING -40
SWIDTH 75 0
DWIDTH -1 0
BBX 0 0 12 23
ENDCHAR
STARTCHAR Ü
ENCODING -36
SWIDTH 75 0
DWIDTH -1 0
BBX 0 0 12 23
ENDCHAR
STARTCHAR à
ENCODING -32
SWIDTH 75 0
DWIDTH -1 0
BBX 0 0 12 23
ENDCHAR
STARTCHAR á
ENCODING -31
SWIDTH 75 0
DWIDTH -1 0
BBX 0 0 12 23
ENDCHAR
STARTCHAR â
ENCODING -30
SWIDTH 75 0
DWIDTH -1 0
BBX 0 0 12 23
ENDCHAR
STARTCHAR ä
ENCODING -28
SWIDTH 75 0
DWIDTH -1 0
BBX 0 0 12 23
ENDCHAR
STARTCHAR å
ENCODING -27
SWIDTH 75 0
DWIDTH -1 0
BBX 0 0 12 23
ENDCHAR
STARTCHAR æ
ENCODING -26
SWIDTH 75 0
DWIDTH -1 0
BBX 0 0 12 23
ENDCHAR
STARTCHAR ç
ENCODING -25
SWIDTH 75 0
DWIDTH -1 0
BBX 0 0 12 23
ENDCHAR
STARTCHAR è
ENCODING -24
SWIDTH 75 0
DWIDTH -1 0
BBX 0 0 12 23
ENDCHAR
STARTCHAR é
ENCODING -23
SWIDTH 75 0
DWIDTH -1 0
BBX 0 0 12 23
ENDCHAR
STARTCHAR ê
ENCODING -22
SWIDTH 75 0
DWIDTH -1 0
BBX 0 0 12 23
ENDCHAR
STARTCHAR ë
ENCODING -21
SWIDTH 75 0
DWIDTH -1 0
BBX 0 0 12 23
ENDCHAR
STARTCHAR ì
ENCODING -20
SWIDTH 75 0
DWIDTH -1 0
BBX 0 0 12 23
ENDCHAR
STARTCHAR í
ENCODING -19
SWIDTH 75 0
DWIDTH -1 0
BBX 0 0 12 23
ENDCHAR
STARTCHAR î
ENCODING -18
SWIDTH 75 0
DWIDTH -1 0
BBX 0 0 12 23
ENDCHAR
STARTCHAR ï
ENCODING -17
SWIDTH 75 0
DWIDTH -1 0
BBX 0 0 12 23
ENDCHAR
STARTCHAR ñ
ENCODING -15
SWIDTH 75 0
DWIDTH -1 0
BBX 0 0 12 23
ENDCHAR
STARTCHAR ò
ENCODING -14
SWIDTH 75 0
DWIDTH -1 0
BBX 0 0 12 23
ENDCHAR
STARTCHAR ó
ENCODING -13
SWIDTH 75 0
DWIDTH -1 0
BBX 0 0 12 23
ENDCHAR
STARTCHAR ô
ENCODING -12
SWIDTH 75 0
DWIDTH -1 0
BBX 0 0 12 23
ENDCHAR
STARTCHAR ö
ENCODING -10
SWIDTH 75 0
DWIDTH -1 0
BBX 0 0 12 23
ENDCHAR
STARTCHAR ø
ENCODING -8
SWIDTH 75 0
DWIDTH -1 0
BBX 0 0 12 23
ENDCHAR
STARTCHAR ù
ENCODING -7
SWIDTH 75 0
DWIDTH -1 0
BBX 0 0 12 23
ENDCHAR
STARTCHAR ú
ENCODING -6
SWIDTH 75 0
DWIDTH -1 0
BBX 0 0 12 23
ENDCHAR
STARTCHAR û
ENCODING -5
SWIDTH 75 0
DWIDTH -1 0
BBX 0 0 12 23
ENDCHAR
STARTCHAR ü
ENCODING -4
SWIDTH 75 0
DWIDTH -1 0
BBX 0 0 12 23
ENDCHAR
STARTCHAR ÿ
ENCODING -1
SWIDTH 75 0
DWIDTH -1 0
BBX 0 0 12 23
ENDCHAR
ENDFONT
