STARTFONT 2.1
COMMENT Lumiplan font build using LumiStudio
FONT A
SIZE 16 75 75
FONTBOUNDINGBOX 7 16 0 0
STARTPROPERTIES 1
Copyright "Copyright (c) 2021 Lumiplan"
ENDPROPERTIES
CHARS 145
STARTCHAR 
ENCODING 14
SWIDTH 75 0
DWIDTH -1 0
BBX 0 0 1 15
ENDCHAR
STARTCHAR  
ENCODING 32
SWIDTH 75 0
DWIDTH -1 0
BBX 0 0 3 15
ENDCHAR
STARTCHAR !
ENCODING 33
SWIDTH 75 0
DWIDTH -1 0
BBX 2 14 0 1
BITMAP
C0
C0
C0
C0
C0
C0
C0
C0
C0
C0
C0
00
C0
C0
ENDCHAR
STARTCHAR "
ENCODING 34
SWIDTH 75 0
DWIDTH -1 0
BBX 6 4 0 11
BITMAP
6C
6C
48
90
ENDCHAR
STARTCHAR #
ENCODING 35
SWIDTH 75 0
DWIDTH -1 0
BBX 7 8 0 4
BITMAP
6C
FE
FE
6C
6C
FE
FE
6C
ENDCHAR
STARTCHAR $
ENCODING 36
SWIDTH 75 0
DWIDTH -1 0
BBX 7 14 0 1
BITMAP
18
7E
FE
DA
D8
D8
FE
7E
1A
1A
DA
FE
7E
18
ENDCHAR
STARTCHAR %
ENCODING 37
SWIDTH 75 0
DWIDTH -1 0
BBX 7 10 0 3
BITMAP
C0
C2
06
0C
18
30
60
C0
82
02
ENDCHAR
STARTCHAR &
ENCODING 38
SWIDTH 75 0
DWIDTH -1 0
BBX 7 14 0 1
BITMAP
7C
FE
C6
C6
C6
CC
78
30
78
CE
C6
CE
FA
70
ENDCHAR
STARTCHAR '
ENCODING 39
SWIDTH 75 0
DWIDTH -1 0
BBX 3 4 0 11
BITMAP
60
60
40
80
ENDCHAR
STARTCHAR (
ENCODING 40
SWIDTH 75 0
DWIDTH -1 0
BBX 4 14 0 1
BITMAP
30
70
E0
C0
C0
C0
C0
C0
C0
C0
C0
E0
70
30
ENDCHAR
STARTCHAR )
ENCODING 41
SWIDTH 75 0
DWIDTH -1 0
BBX 4 14 0 1
BITMAP
C0
E0
70
30
30
30
30
30
30
30
30
70
E0
C0
ENDCHAR
STARTCHAR *
ENCODING 42
SWIDTH 75 0
DWIDTH -1 0
BBX 6 8 0 4
BITMAP
30
B4
78
FC
FC
78
B4
30
ENDCHAR
STARTCHAR +
ENCODING 43
SWIDTH 75 0
DWIDTH -1 0
BBX 6 6 0 4
BITMAP
30
30
FC
FC
30
30
ENDCHAR
STARTCHAR ,
ENCODING 44
SWIDTH 75 0
DWIDTH -1 0
BBX 3 3 0 1
BITMAP
60
60
80
ENDCHAR
STARTCHAR -
ENCODING 45
SWIDTH 75 0
DWIDTH -1 0
BBX 6 2 0 6
BITMAP
FC
FC
ENDCHAR
STARTCHAR .
ENCODING 46
SWIDTH 75 0
DWIDTH -1 0
BBX 2 2 0 1
BITMAP
C0
C0
ENDCHAR
STARTCHAR /
ENCODING 47
SWIDTH 75 0
DWIDTH -1 0
BBX 7 14 0 1
BITMAP
02
02
06
06
0C
0C
18
18
30
30
60
60
C0
C0
ENDCHAR
STARTCHAR 0
ENCODING 48
SWIDTH 75 0
DWIDTH -1 0
BBX 7 14 0 1
BITMAP
38
7C
C6
C6
C6
C6
C6
C6
C6
C6
C6
C6
7C
38
ENDCHAR
STARTCHAR 1
ENCODING 49
SWIDTH 75 0
DWIDTH -1 0
BBX 6 14 0 1
BITMAP
30
70
F0
F0
30
30
30
30
30
30
30
30
FC
FC
ENDCHAR
STARTCHAR 2
ENCODING 50
SWIDTH 75 0
DWIDTH -1 0
BBX 7 14 0 1
BITMAP
7C
FE
C6
C6
06
06
0C
18
30
60
C0
C0
FE
FE
ENDCHAR
STARTCHAR 3
ENCODING 51
SWIDTH 75 0
DWIDTH -1 0
BBX 7 14 0 1
BITMAP
FE
FE
06
0C
18
38
3C
0E
06
06
C6
C6
FE
7C
ENDCHAR
STARTCHAR 4
ENCODING 52
SWIDTH 75 0
DWIDTH -1 0
BBX 7 14 0 1
BITMAP
04
0C
1C
3C
7C
EC
CC
CC
FE
FE
0C
0C
0C
0C
ENDCHAR
STARTCHAR 5
ENCODING 53
SWIDTH 75 0
DWIDTH -1 0
BBX 7 14 0 1
BITMAP
FE
FE
C0
C0
C0
FC
FE
06
06
06
C6
C6
FE
7C
ENDCHAR
STARTCHAR 6
ENCODING 54
SWIDTH 75 0
DWIDTH -1 0
BBX 7 14 0 1
BITMAP
3C
7C
E0
C0
C0
C0
FC
FE
C6
C6
C6
C6
FE
7C
ENDCHAR
STARTCHAR 7
ENCODING 55
SWIDTH 75 0
DWIDTH -1 0
BBX 7 14 0 1
BITMAP
FE
FE
06
06
0C
0C
18
18
30
30
30
30
30
30
ENDCHAR
STARTCHAR 8
ENCODING 56
SWIDTH 75 0
DWIDTH -1 0
BBX 7 14 0 1
BITMAP
7C
FE
C6
C6
C6
C6
7C
7C
C6
C6
C6
C6
FE
7C
ENDCHAR
STARTCHAR 9
ENCODING 57
SWIDTH 75 0
DWIDTH -1 0
BBX 7 14 0 1
BITMAP
7C
FE
C6
C6
C6
C6
7E
3E
06
06
06
0E
7C
78
ENDCHAR
STARTCHAR :
ENCODING 58
SWIDTH 75 0
DWIDTH -1 0
BBX 2 6 0 2
BITMAP
C0
C0
00
00
C0
C0
ENDCHAR
STARTCHAR ;
ENCODING 59
SWIDTH 75 0
DWIDTH -1 0
BBX 3 7 0 1
BITMAP
60
60
00
00
60
60
80
ENDCHAR
STARTCHAR <
ENCODING 60
SWIDTH 75 0
DWIDTH -1 0
BBX 7 14 0 1
BITMAP
02
06
0C
18
30
60
C0
C0
60
30
18
0C
06
02
ENDCHAR
STARTCHAR =
ENCODING 61
SWIDTH 75 0
DWIDTH -1 0
BBX 6 6 0 4
BITMAP
FC
FC
00
00
FC
FC
ENDCHAR
STARTCHAR >
ENCODING 62
SWIDTH 75 0
DWIDTH -1 0
BBX 7 14 0 1
BITMAP
80
C0
60
30
18
0C
06
06
0C
18
30
60
C0
80
ENDCHAR
STARTCHAR ?
ENCODING 63
SWIDTH 75 0
DWIDTH -1 0
BBX 7 14 0 1
BITMAP
7C
FE
C6
C6
06
06
0C
18
18
18
18
00
18
18
ENDCHAR
STARTCHAR @
ENCODING 64
SWIDTH 75 0
DWIDTH -1 0
BBX 7 14 0 1
BITMAP
7C
FE
C6
C6
DE
DE
DE
CC
C0
C0
C0
C0
7C
3C
ENDCHAR
STARTCHAR A
ENCODING 65
SWIDTH 75 0
DWIDTH -1 0
BBX 7 14 0 1
BITMAP
7C
FE
C6
C6
C6
C6
C6
FE
FE
C6
C6
C6
C6
C6
ENDCHAR
STARTCHAR B
ENCODING 66
SWIDTH 75 0
DWIDTH -1 0
BBX 7 14 0 1
BITMAP
F8
FC
C6
C6
C6
C6
FC
FC
C6
C6
C6
C6
FC
F8
ENDCHAR
STARTCHAR C
ENCODING 67
SWIDTH 75 0
DWIDTH -1 0
BBX 7 14 0 1
BITMAP
7C
FE
C6
C6
C0
C0
C0
C0
C0
C0
C6
C6
FE
7C
ENDCHAR
STARTCHAR D
ENCODING 68
SWIDTH 75 0
DWIDTH -1 0
BBX 7 14 0 1
BITMAP
F8
FC
C6
C6
C6
C6
C6
C6
C6
C6
C6
C6
FC
F8
ENDCHAR
STARTCHAR E
ENCODING 69
SWIDTH 75 0
DWIDTH -1 0
BBX 6 14 0 1
BITMAP
FC
FC
C0
C0
C0
C0
F0
F0
C0
C0
C0
C0
FC
FC
ENDCHAR
STARTCHAR F
ENCODING 70
SWIDTH 75 0
DWIDTH -1 0
BBX 6 14 0 1
BITMAP
FC
FC
C0
C0
C0
C0
F0
F0
C0
C0
C0
C0
C0
C0
ENDCHAR
STARTCHAR G
ENCODING 71
SWIDTH 75 0
DWIDTH -1 0
BBX 7 14 0 1
BITMAP
7C
FE
C6
C6
C0
C0
C0
CE
CE
C6
C6
C6
FE
7C
ENDCHAR
STARTCHAR H
ENCODING 72
SWIDTH 75 0
DWIDTH -1 0
BBX 7 14 0 1
BITMAP
C6
C6
C6
C6
C6
C6
FE
FE
C6
C6
C6
C6
C6
C6
ENDCHAR
STARTCHAR I
ENCODING 73
SWIDTH 75 0
DWIDTH -1 0
BBX 4 14 0 1
BITMAP
F0
F0
60
60
60
60
60
60
60
60
60
60
F0
F0
ENDCHAR
STARTCHAR J
ENCODING 74
SWIDTH 75 0
DWIDTH -1 0
BBX 7 14 0 1
BITMAP
1E
1E
0C
0C
0C
0C
0C
0C
0C
CC
CC
CC
FC
78
ENDCHAR
STARTCHAR K
ENCODING 75
SWIDTH 75 0
DWIDTH -1 0
BBX 7 14 0 1
BITMAP
C6
C6
C6
CC
D8
F0
E0
E0
F0
D8
CC
C6
C6
C6
ENDCHAR
STARTCHAR L
ENCODING 76
SWIDTH 75 0
DWIDTH -1 0
BBX 6 14 0 1
BITMAP
C0
C0
C0
C0
C0
C0
C0
C0
C0
C0
C0
C0
FC
FC
ENDCHAR
STARTCHAR M
ENCODING 77
SWIDTH 75 0
DWIDTH -1 0
BBX 7 14 0 1
BITMAP
C6
EE
FE
D6
C6
C6
C6
C6
C6
C6
C6
C6
C6
C6
ENDCHAR
STARTCHAR N
ENCODING 78
SWIDTH 75 0
DWIDTH -1 0
BBX 7 14 0 1
BITMAP
C6
E6
F6
DE
CE
C6
C6
C6
C6
C6
C6
C6
C6
C6
ENDCHAR
STARTCHAR O
ENCODING 79
SWIDTH 75 0
DWIDTH -1 0
BBX 7 14 0 1
BITMAP
7C
FE
C6
C6
C6
C6
C6
C6
C6
C6
C6
C6
FE
7C
ENDCHAR
STARTCHAR P
ENCODING 80
SWIDTH 75 0
DWIDTH -1 0
BBX 7 14 0 1
BITMAP
FC
FE
C6
C6
C6
C6
FE
FC
C0
C0
C0
C0
C0
C0
ENDCHAR
STARTCHAR Q
ENCODING 81
SWIDTH 75 0
DWIDTH -1 0
BBX 7 14 0 1
BITMAP
38
7C
C6
C6
C6
C6
C6
C6
C6
C6
CA
CC
76
3A
ENDCHAR
STARTCHAR R
ENCODING 82
SWIDTH 75 0
DWIDTH -1 0
BBX 7 14 0 1
BITMAP
FC
FE
C6
C6
C6
C6
FC
F8
DC
CE
C6
C6
C6
C6
ENDCHAR
STARTCHAR S
ENCODING 83
SWIDTH 75 0
DWIDTH -1 0
BBX 7 14 0 1
BITMAP
7C
FE
C6
C0
C0
C0
78
3C
06
06
06
C6
FE
7C
ENDCHAR
STARTCHAR T
ENCODING 84
SWIDTH 75 0
DWIDTH -1 0
BBX 6 14 0 1
BITMAP
FC
FC
30
30
30
30
30
30
30
30
30
30
30
30
ENDCHAR
STARTCHAR U
ENCODING 85
SWIDTH 75 0
DWIDTH -1 0
BBX 7 14 0 1
BITMAP
C6
C6
C6
C6
C6
C6
C6
C6
C6
C6
C6
C6
FE
7C
ENDCHAR
STARTCHAR V
ENCODING 86
SWIDTH 75 0
DWIDTH -1 0
BBX 7 14 0 1
BITMAP
C6
C6
C6
C6
C6
C6
C6
C6
C6
C6
C6
6C
38
10
ENDCHAR
STARTCHAR W
ENCODING 87
SWIDTH 75 0
DWIDTH -1 0
BBX 7 14 0 1
BITMAP
C6
C6
C6
C6
C6
C6
C6
C6
C6
C6
D6
FE
EE
44
ENDCHAR
STARTCHAR X
ENCODING 88
SWIDTH 75 0
DWIDTH -1 0
BBX 7 14 0 1
BITMAP
C6
C6
C6
C6
C6
6C
38
38
6C
C6
C6
C6
C6
C6
ENDCHAR
STARTCHAR Y
ENCODING 89
SWIDTH 75 0
DWIDTH -1 0
BBX 6 14 0 1
BITMAP
CC
CC
CC
CC
CC
CC
78
30
30
30
30
30
30
30
ENDCHAR
STARTCHAR Z
ENCODING 90
SWIDTH 75 0
DWIDTH -1 0
BBX 7 14 0 1
BITMAP
FE
FE
06
06
06
0C
18
30
60
C0
C0
C0
FE
FE
ENDCHAR
STARTCHAR [
ENCODING 91
SWIDTH 75 0
DWIDTH -1 0
BBX 4 14 0 1
BITMAP
F0
F0
C0
C0
C0
C0
C0
C0
C0
C0
C0
C0
F0
F0
ENDCHAR
STARTCHAR \
ENCODING 92
SWIDTH 75 0
DWIDTH -1 0
BBX 7 14 0 1
BITMAP
C0
C0
60
60
30
30
18
18
0C
0C
06
06
02
02
ENDCHAR
STARTCHAR ]
ENCODING 93
SWIDTH 75 0
DWIDTH -1 0
BBX 4 14 0 1
BITMAP
F0
F0
30
30
30
30
30
30
30
30
30
30
F0
F0
ENDCHAR
STARTCHAR ^
ENCODING 94
SWIDTH 75 0
DWIDTH -1 0
BBX 7 4 0 11
BITMAP
10
38
6C
C6
ENDCHAR
STARTCHAR _
ENCODING 95
SWIDTH 75 0
DWIDTH -1 0
BBX 5 2 0 1
BITMAP
F8
F8
ENDCHAR
STARTCHAR `
ENCODING 96
SWIDTH 75 0
DWIDTH -1 0
BBX 3 4 0 11
BITMAP
C0
C0
40
20
ENDCHAR
STARTCHAR a
ENCODING 97
SWIDTH 75 0
DWIDTH -1 0
BBX 7 9 0 1
BITMAP
38
3C
06
36
7E
C6
C6
7E
36
ENDCHAR
STARTCHAR b
ENCODING 98
SWIDTH 75 0
DWIDTH -1 0
BBX 7 14 0 1
BITMAP
C0
C0
C0
C0
C0
D8
FC
E6
C6
C6
C6
E6
FC
D8
ENDCHAR
STARTCHAR c
ENCODING 99
SWIDTH 75 0
DWIDTH -1 0
BBX 6 9 0 1
BITMAP
78
FC
CC
C0
C0
C0
CC
FC
78
ENDCHAR
STARTCHAR d
ENCODING 100
SWIDTH 75 0
DWIDTH -1 0
BBX 7 14 0 1
BITMAP
06
06
06
06
06
76
FE
CE
C6
C6
C6
C6
FE
76
ENDCHAR
STARTCHAR e
ENCODING 101
SWIDTH 75 0
DWIDTH -1 0
BBX 7 9 0 1
BITMAP
7C
FE
C6
FE
FE
C0
C0
FC
78
ENDCHAR
STARTCHAR f
ENCODING 102
SWIDTH 75 0
DWIDTH -1 0
BBX 7 14 0 1
BITMAP
3C
7E
66
60
60
60
F8
F8
60
60
60
60
60
60
ENDCHAR
STARTCHAR g
ENCODING 103
SWIDTH 75 0
DWIDTH -1 0
BBX 7 10 0 0
BITMAP
36
7E
C6
C6
7E
36
06
06
7C
78
ENDCHAR
STARTCHAR h
ENCODING 104
SWIDTH 75 0
DWIDTH -1 0
BBX 7 14 0 1
BITMAP
C0
C0
C0
C0
C0
DC
FE
E6
C6
C6
C6
C6
C6
C6
ENDCHAR
STARTCHAR i
ENCODING 105
SWIDTH 75 0
DWIDTH -1 0
BBX 4 12 0 1
BITMAP
60
60
00
E0
E0
60
60
60
60
60
F0
F0
ENDCHAR
STARTCHAR j
ENCODING 106
SWIDTH 75 0
DWIDTH -1 0
BBX 7 13 0 0
BITMAP
06
06
00
1E
1E
06
06
06
06
06
C6
FE
7C
ENDCHAR
STARTCHAR k
ENCODING 107
SWIDTH 75 0
DWIDTH -1 0
BBX 6 14 0 1
BITMAP
C0
C0
C0
C0
C0
C4
CC
D8
F0
E0
F0
D8
CC
C4
ENDCHAR
STARTCHAR l
ENCODING 108
SWIDTH 75 0
DWIDTH -1 0
BBX 4 14 0 1
BITMAP
E0
E0
60
60
60
60
60
60
60
60
60
60
F0
F0
ENDCHAR
STARTCHAR m
ENCODING 109
SWIDTH 75 0
DWIDTH -1 0
BBX 7 9 0 1
BITMAP
EC
FE
D6
D6
C6
C6
C6
C6
C6
ENDCHAR
STARTCHAR n
ENCODING 110
SWIDTH 75 0
DWIDTH -1 0
BBX 7 9 0 1
BITMAP
DC
FE
E6
C6
C6
C6
C6
C6
C6
ENDCHAR
STARTCHAR o
ENCODING 111
SWIDTH 75 0
DWIDTH -1 0
BBX 7 9 0 1
BITMAP
7C
FE
C6
C6
C6
C6
C6
FE
7C
ENDCHAR
STARTCHAR p
ENCODING 112
SWIDTH 75 0
DWIDTH -1 0
BBX 7 10 0 0
BITMAP
D8
FC
C6
C6
FC
D8
C0
C0
C0
C0
ENDCHAR
STARTCHAR q
ENCODING 113
SWIDTH 75 0
DWIDTH -1 0
BBX 7 10 0 0
BITMAP
36
7E
C6
C6
7E
36
06
06
06
06
ENDCHAR
STARTCHAR r
ENCODING 114
SWIDTH 75 0
DWIDTH -1 0
BBX 7 9 0 1
BITMAP
DC
FE
E6
C0
C0
C0
C0
C0
C0
ENDCHAR
STARTCHAR s
ENCODING 115
SWIDTH 75 0
DWIDTH -1 0
BBX 7 9 0 1
BITMAP
7C
FC
C0
FC
7E
06
06
FE
FC
ENDCHAR
STARTCHAR t
ENCODING 116
SWIDTH 75 0
DWIDTH -1 0
BBX 7 14 0 1
BITMAP
60
60
60
60
60
F8
F8
60
60
60
60
66
7E
3C
ENDCHAR
STARTCHAR u
ENCODING 117
SWIDTH 75 0
DWIDTH -1 0
BBX 7 9 0 1
BITMAP
C6
C6
C6
C6
C6
C6
CE
FE
76
ENDCHAR
STARTCHAR v
ENCODING 118
SWIDTH 75 0
DWIDTH -1 0
BBX 7 9 0 1
BITMAP
C6
C6
C6
C6
C6
C6
6C
38
10
ENDCHAR
STARTCHAR w
ENCODING 119
SWIDTH 75 0
DWIDTH -1 0
BBX 7 9 0 1
BITMAP
C6
C6
C6
C6
C6
D6
FE
EE
44
ENDCHAR
STARTCHAR x
ENCODING 120
SWIDTH 75 0
DWIDTH -1 0
BBX 7 9 0 1
BITMAP
C6
C6
6C
38
10
38
6C
C6
C6
ENDCHAR
STARTCHAR y
ENCODING 121
SWIDTH 75 0
DWIDTH -1 0
BBX 7 10 0 0
BITMAP
C6
C6
C6
C6
7E
3E
06
06
7C
78
ENDCHAR
STARTCHAR z
ENCODING 122
SWIDTH 75 0
DWIDTH -1 0
BBX 6 9 0 1
BITMAP
FC
FC
0C
18
30
60
C0
FC
FC
ENDCHAR
STARTCHAR {
ENCODING 123
SWIDTH 75 0
DWIDTH -1 0
BBX 7 14 0 1
BITMAP
0E
1C
38
30
30
30
F0
F0
30
30
30
38
1C
0E
ENDCHAR
STARTCHAR |
ENCODING 124
SWIDTH 75 0
DWIDTH -1 0
BBX 0 0 7 15
ENDCHAR
STARTCHAR }
ENCODING 125
SWIDTH 75 0
DWIDTH -1 0
BBX 7 14 0 1
BITMAP
E0
70
38
18
18
18
1E
1E
18
18
18
38
70
E0
ENDCHAR
STARTCHAR ~
ENCODING 126
SWIDTH 75 0
DWIDTH -1 0
BBX 0 0 7 15
ENDCHAR
STARTCHAR 
ENCODING 127
SWIDTH 75 0
DWIDTH -1 0
BBX 0 0 7 15
ENDCHAR
STARTCHAR f
ENCODING 102
SWIDTH 75 0
DWIDTH -1 0
BBX 0 0 7 15
ENDCHAR
STARTCHAR ¡
ENCODING -95
SWIDTH 75 0
DWIDTH -1 0
BBX 0 0 7 15
ENDCHAR
STARTCHAR £
ENCODING -93
SWIDTH 75 0
DWIDTH -1 0
BBX 0 0 7 15
ENDCHAR
STARTCHAR ª
ENCODING -86
SWIDTH 75 0
DWIDTH -1 0
BBX 0 0 7 15
ENDCHAR
STARTCHAR «
ENCODING -85
SWIDTH 75 0
DWIDTH -1 0
BBX 0 0 7 15
ENDCHAR
STARTCHAR ¬
ENCODING -84
SWIDTH 75 0
DWIDTH -1 0
BBX 0 0 7 15
ENDCHAR
STARTCHAR ®
ENCODING -82
SWIDTH 75 0
DWIDTH -1 0
BBX 0 0 7 15
ENDCHAR
STARTCHAR º
ENCODING -70
SWIDTH 75 0
DWIDTH -1 0
BBX 7 10 0 0
BITMAP
C6
C6
C6
C6
CE
FE
F6
C6
C0
C0
ENDCHAR
STARTCHAR »
ENCODING -69
SWIDTH 75 0
DWIDTH -1 0
BBX 0 0 7 15
ENDCHAR
STARTCHAR  
ENCODING 32
SWIDTH 75 0
DWIDTH -1 0
BBX 0 0 7 15
ENDCHAR
STARTCHAR  
ENCODING 32
SWIDTH 75 0
DWIDTH -1 0
BBX 0 0 7 15
ENDCHAR
STARTCHAR ¿
ENCODING -65
SWIDTH 75 0
DWIDTH -1 0
BBX 0 0 7 15
ENDCHAR
STARTCHAR Ä
ENCODING -60
SWIDTH 75 0
DWIDTH -1 0
BBX 0 0 7 15
ENDCHAR
STARTCHAR Å
ENCODING -59
SWIDTH 75 0
DWIDTH -1 0
BBX 0 0 7 15
ENDCHAR
STARTCHAR Æ
ENCODING -58
SWIDTH 75 0
DWIDTH -1 0
BBX 0 0 7 15
ENDCHAR
STARTCHAR Ç
ENCODING -57
SWIDTH 75 0
DWIDTH -1 0
BBX 0 0 7 15
ENDCHAR
STARTCHAR É
ENCODING -55
SWIDTH 75 0
DWIDTH -1 0
BBX 0 0 7 15
ENDCHAR
STARTCHAR Ñ
ENCODING -47
SWIDTH 75 0
DWIDTH -1 0
BBX 0 0 7 15
ENDCHAR
STARTCHAR Ö
ENCODING -42
SWIDTH 75 0
DWIDTH -1 0
BBX 0 0 7 15
ENDCHAR
STARTCHAR ×
ENCODING -41
SWIDTH 75 0
DWIDTH -1 0
BBX 0 0 7 15
ENDCHAR
STARTCHAR Ø
ENCODING -40
SWIDTH 75 0
DWIDTH -1 0
BBX 0 0 7 15
ENDCHAR
STARTCHAR Ü
ENCODING -36
SWIDTH 75 0
DWIDTH -1 0
BBX 0 0 7 15
ENDCHAR
STARTCHAR à
ENCODING -32
SWIDTH 75 0
DWIDTH -1 0
BBX 7 13 0 1
BITMAP
30
18
0C
00
38
3C
06
36
7E
C6
C6
7E
36
ENDCHAR
STARTCHAR á
ENCODING -31
SWIDTH 75 0
DWIDTH -1 0
BBX 0 0 7 15
ENDCHAR
STARTCHAR â
ENCODING -30
SWIDTH 75 0
DWIDTH -1 0
BBX 7 13 0 1
BITMAP
10
38
6C
00
38
3C
06
36
7E
C6
C6
7E
36
ENDCHAR
STARTCHAR ä
ENCODING -28
SWIDTH 75 0
DWIDTH -1 0
BBX 7 12 0 1
BITMAP
6C
6C
00
38
3C
06
36
7E
C6
C6
7E
36
ENDCHAR
STARTCHAR å
ENCODING -27
SWIDTH 75 0
DWIDTH -1 0
BBX 7 12 0 1
BITMAP
30
30
00
38
3C
06
36
7E
C6
C6
7E
36
ENDCHAR
STARTCHAR æ
ENCODING -26
SWIDTH 75 0
DWIDTH -1 0
BBX 0 0 7 15
ENDCHAR
STARTCHAR ç
ENCODING -25
SWIDTH 75 0
DWIDTH -1 0
BBX 6 10 0 0
BITMAP
78
FC
CC
C0
C0
C0
CC
FC
78
E0
ENDCHAR
STARTCHAR è
ENCODING -24
SWIDTH 75 0
DWIDTH -1 0
BBX 7 13 0 1
BITMAP
60
30
18
00
7C
FE
C6
FE
FE
C0
C0
FC
78
ENDCHAR
STARTCHAR é
ENCODING -23
SWIDTH 75 0
DWIDTH -1 0
BBX 7 13 0 1
BITMAP
18
30
60
00
7C
FE
C6
FE
FE
C0
C0
FC
78
ENDCHAR
STARTCHAR ê
ENCODING -22
SWIDTH 75 0
DWIDTH -1 0
BBX 7 13 0 1
BITMAP
10
38
6C
00
7C
FE
C6
FE
FE
C0
C0
FC
78
ENDCHAR
STARTCHAR ë
ENCODING -21
SWIDTH 75 0
DWIDTH -1 0
BBX 7 12 0 1
BITMAP
6C
6C
00
7C
FE
C6
FE
FE
C0
C0
FC
78
ENDCHAR
STARTCHAR ì
ENCODING -20
SWIDTH 75 0
DWIDTH -1 0
BBX 4 13 0 1
BITMAP
C0
60
30
00
E0
E0
60
60
60
60
60
F0
F0
ENDCHAR
STARTCHAR í
ENCODING -19
SWIDTH 75 0
DWIDTH -1 0
BBX 0 0 7 15
ENDCHAR
STARTCHAR î
ENCODING -18
SWIDTH 75 0
DWIDTH -1 0
BBX 5 13 0 1
BITMAP
20
70
D8
00
70
70
30
30
30
30
30
78
78
ENDCHAR
STARTCHAR ï
ENCODING -17
SWIDTH 75 0
DWIDTH -1 0
BBX 5 12 0 1
BITMAP
D8
D8
00
70
70
30
30
30
30
30
78
78
ENDCHAR
STARTCHAR ñ
ENCODING -15
SWIDTH 75 0
DWIDTH -1 0
BBX 0 0 7 15
ENDCHAR
STARTCHAR ò
ENCODING -14
SWIDTH 75 0
DWIDTH -1 0
BBX 7 13 0 1
BITMAP
30
18
0C
00
7C
FE
C6
C6
C6
C6
C6
FE
7C
ENDCHAR
STARTCHAR ó
ENCODING -13
SWIDTH 75 0
DWIDTH -1 0
BBX 0 0 7 15
ENDCHAR
STARTCHAR ô
ENCODING -12
SWIDTH 75 0
DWIDTH -1 0
BBX 7 13 0 1
BITMAP
10
38
6C
00
7C
FE
C6
C6
C6
C6
C6
FE
7C
ENDCHAR
STARTCHAR ö
ENCODING -10
SWIDTH 75 0
DWIDTH -1 0
BBX 7 12 0 1
BITMAP
6C
6C
00
7C
FE
C6
C6
C6
C6
C6
FE
7C
ENDCHAR
STARTCHAR ø
ENCODING -8
SWIDTH 75 0
DWIDTH -1 0
BBX 0 0 7 15
ENDCHAR
STARTCHAR ù
ENCODING -7
SWIDTH 75 0
DWIDTH -1 0
BBX 7 13 0 1
BITMAP
30
18
0C
00
C6
C6
C6
C6
C6
C6
CE
FE
76
ENDCHAR
STARTCHAR ú
ENCODING -6
SWIDTH 75 0
DWIDTH -1 0
BBX 0 0 7 15
ENDCHAR
STARTCHAR û
ENCODING -5
SWIDTH 75 0
DWIDTH -1 0
BBX 7 13 0 1
BITMAP
10
38
6C
00
C6
C6
C6
C6
C6
C6
CE
FE
76
ENDCHAR
STARTCHAR ü
ENCODING -4
SWIDTH 75 0
DWIDTH -1 0
BBX 7 12 0 1
BITMAP
C6
C6
00
C6
C6
C6
C6
C6
C6
CE
FE
76
ENDCHAR
STARTCHAR ÿ
ENCODING -1
SWIDTH 75 0
DWIDTH -1 0
BBX 7 12 0 1
BITMAP
C6
C6
00
C6
C6
C6
C6
7E
3E
06
7C
78
ENDCHAR
ENDFONT
