STARTFONT 2.1
COMMENT Lumiplan font build using LumiStudio
FONT Duhamel 10/10 4-Bold
SIZE 10 75 75
FONTBOUNDINGBOX 9 10 0 0
STARTPROPERTIES 1
Copyright "Copyright (c) 2021 Lumiplan"
ENDPROPERTIES
CHARS 189
STARTCHAR 
ENCODING 14
SWIDTH 75 0
DWIDTH -1 0
BBX 0 0 1 9
ENDCHAR
STARTCHAR  
ENCODING 32
SWIDTH 75 0
DWIDTH -1 0
BBX 0 0 2 9
ENDCHAR
STARTCHAR !
ENCODING 33
SWIDTH 75 0
DWIDTH -1 0
BBX 2 10 0 0
BITMAP
C0
C0
C0
C0
C0
C0
C0
00
C0
C0
ENDCHAR
STARTCHAR "
ENCODING 34
SWIDTH 75 0
DWIDTH -1 0
BBX 6 4 0 6
BITMAP
6C
6C
48
90
ENDCHAR
STARTCHAR #
ENCODING 35
SWIDTH 75 0
DWIDTH -1 0
BBX 8 10 0 0
BITMAP
66
66
FF
FF
66
66
66
FF
FF
66
ENDCHAR
STARTCHAR $
ENCODING 36
SWIDTH 75 0
DWIDTH -1 0
BBX 8 10 0 0
BITMAP
18
7E
FF
D8
FE
7F
1B
FF
7E
18
ENDCHAR
STARTCHAR %
ENCODING 37
SWIDTH 75 0
DWIDTH -1 0
BBX 9 10 0 0
BITMAP
C080
C180
0300
0600
0C00
1800
3000
6000
C180
8180
ENDCHAR
STARTCHAR &
ENCODING 38
SWIDTH 75 0
DWIDTH -1 0
BBX 9 10 0 0
BITMAP
3C00
7E00
6600
7E00
3C00
6680
E780
E600
7F80
7D80
ENDCHAR
STARTCHAR '
ENCODING 39
SWIDTH 75 0
DWIDTH -1 0
BBX 3 4 0 6
BITMAP
60
60
40
80
ENDCHAR
STARTCHAR (
ENCODING 40
SWIDTH 75 0
DWIDTH -1 0
BBX 3 10 0 0
BITMAP
60
E0
C0
C0
C0
C0
C0
C0
E0
60
ENDCHAR
STARTCHAR )
ENCODING 41
SWIDTH 75 0
DWIDTH -1 0
BBX 3 10 0 0
BITMAP
C0
E0
60
60
60
60
60
60
E0
C0
ENDCHAR
STARTCHAR *
ENCODING 42
SWIDTH 75 0
DWIDTH -1 0
BBX 8 8 0 2
BITMAP
DB
DB
3C
FF
FF
3C
DB
DB
ENDCHAR
STARTCHAR +
ENCODING 43
SWIDTH 75 0
DWIDTH -1 0
BBX 6 6 0 4
BITMAP
30
30
FC
FC
30
30
ENDCHAR
STARTCHAR ,
ENCODING 44
SWIDTH 75 0
DWIDTH -1 0
BBX 3 4 0 0
BITMAP
60
60
40
80
ENDCHAR
STARTCHAR -
ENCODING 45
SWIDTH 75 0
DWIDTH -1 0
BBX 6 2 0 4
BITMAP
FC
FC
ENDCHAR
STARTCHAR .
ENCODING 46
SWIDTH 75 0
DWIDTH -1 0
BBX 2 2 0 0
BITMAP
C0
C0
ENDCHAR
STARTCHAR /
ENCODING 47
SWIDTH 75 0
DWIDTH -1 0
BBX 9 10 0 0
BITMAP
0080
0180
0300
0600
0C00
1800
3000
6000
C000
8000
ENDCHAR
STARTCHAR 0
ENCODING 48
SWIDTH 75 0
DWIDTH -1 0
BBX 7 10 0 0
BITMAP
7C
FE
C6
C6
C6
C6
C6
C6
FE
7C
ENDCHAR
STARTCHAR 1
ENCODING 49
SWIDTH 75 0
DWIDTH -1 0
BBX 4 10 0 0
BITMAP
30
70
F0
30
30
30
30
30
30
30
ENDCHAR
STARTCHAR 2
ENCODING 50
SWIDTH 75 0
DWIDTH -1 0
BBX 8 10 0 0
BITMAP
7E
FF
C3
06
0C
18
30
60
FF
FF
ENDCHAR
STARTCHAR 3
ENCODING 51
SWIDTH 75 0
DWIDTH -1 0
BBX 7 10 0 0
BITMAP
7C
FE
C6
06
1C
1C
06
C6
FE
7C
ENDCHAR
STARTCHAR 4
ENCODING 52
SWIDTH 75 0
DWIDTH -1 0
BBX 8 10 0 0
BITMAP
06
0E
1E
36
66
C6
FF
FF
06
06
ENDCHAR
STARTCHAR 5
ENCODING 53
SWIDTH 75 0
DWIDTH -1 0
BBX 7 10 0 0
BITMAP
FE
FE
C0
C0
FC
7E
06
C6
FE
7C
ENDCHAR
STARTCHAR 6
ENCODING 54
SWIDTH 75 0
DWIDTH -1 0
BBX 7 10 0 0
BITMAP
7C
FC
C0
C0
FC
FE
C6
C6
FE
7C
ENDCHAR
STARTCHAR 7
ENCODING 55
SWIDTH 75 0
DWIDTH -1 0
BBX 8 10 0 0
BITMAP
FF
FF
03
03
06
0C
18
18
18
18
ENDCHAR
STARTCHAR 8
ENCODING 56
SWIDTH 75 0
DWIDTH -1 0
BBX 7 10 0 0
BITMAP
7C
FE
C6
C6
7C
7C
C6
C6
FE
7C
ENDCHAR
STARTCHAR 9
ENCODING 57
SWIDTH 75 0
DWIDTH -1 0
BBX 7 10 0 0
BITMAP
7C
FE
C6
C6
FE
7E
06
06
7E
7C
ENDCHAR
STARTCHAR :
ENCODING 58
SWIDTH 75 0
DWIDTH -1 0
BBX 2 5 0 2
BITMAP
C0
C0
00
C0
C0
ENDCHAR
STARTCHAR ;
ENCODING 59
SWIDTH 75 0
DWIDTH -1 0
BBX 3 7 0 0
BITMAP
60
60
00
60
60
40
80
ENDCHAR
STARTCHAR <
ENCODING 60
SWIDTH 75 0
DWIDTH -1 0
BBX 6 10 0 0
BITMAP
0C
1C
38
70
E0
E0
70
38
1C
0C
ENDCHAR
STARTCHAR =
ENCODING 61
SWIDTH 75 0
DWIDTH -1 0
BBX 5 5 0 2
BITMAP
F8
F8
00
F8
F8
ENDCHAR
STARTCHAR >
ENCODING 62
SWIDTH 75 0
DWIDTH -1 0
BBX 6 10 0 0
BITMAP
C0
E0
70
38
1C
1C
38
70
E0
C0
ENDCHAR
STARTCHAR ?
ENCODING 63
SWIDTH 75 0
DWIDTH -1 0
BBX 7 10 0 0
BITMAP
7C
FE
C6
06
0C
18
18
00
18
18
ENDCHAR
STARTCHAR @
ENCODING 64
SWIDTH 75 0
DWIDTH -1 0
BBX 8 10 0 0
BITMAP
7E
FF
C3
C3
DF
DE
C0
C0
7F
3E
ENDCHAR
STARTCHAR A
ENCODING 65
SWIDTH 75 0
DWIDTH -1 0
BBX 8 10 0 0
BITMAP
7E
FF
C3
C3
FF
FF
C3
C3
C3
C3
ENDCHAR
STARTCHAR B
ENCODING 66
SWIDTH 75 0
DWIDTH -1 0
BBX 8 10 0 0
BITMAP
FE
FF
C3
C3
FE
FE
C3
C3
FF
FE
ENDCHAR
STARTCHAR C
ENCODING 67
SWIDTH 75 0
DWIDTH -1 0
BBX 8 10 0 0
BITMAP
7E
FF
C3
C3
C0
C0
C3
C3
FF
7E
ENDCHAR
STARTCHAR D
ENCODING 68
SWIDTH 75 0
DWIDTH -1 0
BBX 8 10 0 0
BITMAP
FE
FF
C3
C3
C3
C3
C3
C3
FF
FE
ENDCHAR
STARTCHAR E
ENCODING 69
SWIDTH 75 0
DWIDTH -1 0
BBX 8 10 0 0
BITMAP
FF
FF
C0
C0
FC
FC
C0
C0
FF
FF
ENDCHAR
STARTCHAR F
ENCODING 70
SWIDTH 75 0
DWIDTH -1 0
BBX 7 10 0 0
BITMAP
FE
FE
C0
C0
FC
FC
C0
C0
C0
C0
ENDCHAR
STARTCHAR G
ENCODING 71
SWIDTH 75 0
DWIDTH -1 0
BBX 8 10 0 0
BITMAP
7E
FF
C3
C0
DF
DF
C3
C3
FF
7E
ENDCHAR
STARTCHAR H
ENCODING 72
SWIDTH 75 0
DWIDTH -1 0
BBX 8 10 0 0
BITMAP
C3
C3
C3
C3
FF
FF
C3
C3
C3
C3
ENDCHAR
STARTCHAR I
ENCODING 73
SWIDTH 75 0
DWIDTH -1 0
BBX 2 10 0 0
BITMAP
C0
C0
C0
C0
C0
C0
C0
C0
C0
C0
ENDCHAR
STARTCHAR J
ENCODING 74
SWIDTH 75 0
DWIDTH -1 0
BBX 7 10 0 0
BITMAP
06
06
06
06
06
06
06
C6
FE
7C
ENDCHAR
STARTCHAR K
ENCODING 75
SWIDTH 75 0
DWIDTH -1 0
BBX 8 10 0 0
BITMAP
C3
C7
CE
DC
F8
F8
DC
CE
C7
C3
ENDCHAR
STARTCHAR L
ENCODING 76
SWIDTH 75 0
DWIDTH -1 0
BBX 7 10 0 0
BITMAP
C0
C0
C0
C0
C0
C0
C0
C0
FE
FE
ENDCHAR
STARTCHAR M
ENCODING 77
SWIDTH 75 0
DWIDTH -1 0
BBX 9 10 0 0
BITMAP
C180
E380
F780
DD80
C980
C180
C180
C180
C180
C180
ENDCHAR
STARTCHAR N
ENCODING 78
SWIDTH 75 0
DWIDTH -1 0
BBX 9 10 0 0
BITMAP
C180
E180
F180
D980
CD80
C780
C380
C180
C180
C180
ENDCHAR
STARTCHAR O
ENCODING 79
SWIDTH 75 0
DWIDTH -1 0
BBX 8 10 0 0
BITMAP
7E
FF
C3
C3
C3
C3
C3
C3
FF
7E
ENDCHAR
STARTCHAR P
ENCODING 80
SWIDTH 75 0
DWIDTH -1 0
BBX 8 10 0 0
BITMAP
FE
FF
C3
C3
FF
FE
C0
C0
C0
C0
ENDCHAR
STARTCHAR Q
ENCODING 81
SWIDTH 75 0
DWIDTH -1 0
BBX 8 10 0 0
BITMAP
7E
FF
C3
C3
C3
C3
CB
C7
FE
7D
ENDCHAR
STARTCHAR R
ENCODING 82
SWIDTH 75 0
DWIDTH -1 0
BBX 8 10 0 0
BITMAP
FE
FF
C3
C3
FE
FE
CC
C6
C3
C3
ENDCHAR
STARTCHAR S
ENCODING 83
SWIDTH 75 0
DWIDTH -1 0
BBX 8 10 0 0
BITMAP
7E
FF
C3
C0
FE
7F
03
C3
FF
7E
ENDCHAR
STARTCHAR T
ENCODING 84
SWIDTH 75 0
DWIDTH -1 0
BBX 8 10 0 0
BITMAP
FF
FF
18
18
18
18
18
18
18
18
ENDCHAR
STARTCHAR U
ENCODING 85
SWIDTH 75 0
DWIDTH -1 0
BBX 8 10 0 0
BITMAP
C3
C3
C3
C3
C3
C3
C3
C3
FF
7E
ENDCHAR
STARTCHAR V
ENCODING 86
SWIDTH 75 0
DWIDTH -1 0
BBX 9 10 0 0
BITMAP
C180
C180
C180
C180
C180
C180
6300
3600
1C00
0800
ENDCHAR
STARTCHAR W
ENCODING 87
SWIDTH 75 0
DWIDTH -1 0
BBX 9 10 0 0
BITMAP
C180
C180
C180
C180
C180
C980
DD80
F780
E380
C180
ENDCHAR
STARTCHAR X
ENCODING 88
SWIDTH 75 0
DWIDTH -1 0
BBX 9 10 0 0
BITMAP
C180
E380
7700
3E00
1C00
1C00
3E00
7700
E380
C180
ENDCHAR
STARTCHAR Y
ENCODING 89
SWIDTH 75 0
DWIDTH -1 0
BBX 8 10 0 0
BITMAP
C3
C3
C3
E7
7E
3C
18
18
18
18
ENDCHAR
STARTCHAR Z
ENCODING 90
SWIDTH 75 0
DWIDTH -1 0
BBX 8 10 0 0
BITMAP
FF
FF
03
06
0C
18
30
60
FF
FF
ENDCHAR
STARTCHAR [
ENCODING 91
SWIDTH 75 0
DWIDTH -1 0
BBX 4 10 0 0
BITMAP
F0
F0
C0
C0
C0
C0
C0
C0
F0
F0
ENDCHAR
STARTCHAR \
ENCODING 92
SWIDTH 75 0
DWIDTH -1 0
BBX 9 10 0 0
BITMAP
8000
C000
6000
3000
1800
0C00
0600
0300
0180
0080
ENDCHAR
STARTCHAR ]
ENCODING 93
SWIDTH 75 0
DWIDTH -1 0
BBX 4 10 0 0
BITMAP
F0
F0
30
30
30
30
30
30
F0
F0
ENDCHAR
STARTCHAR ^
ENCODING 94
SWIDTH 75 0
DWIDTH -1 0
BBX 7 4 0 6
BITMAP
38
7C
EE
C6
ENDCHAR
STARTCHAR _
ENCODING 95
SWIDTH 75 0
DWIDTH -1 0
BBX 6 2 0 0
BITMAP
FC
FC
ENDCHAR
STARTCHAR `
ENCODING 96
SWIDTH 75 0
DWIDTH -1 0
BBX 3 4 0 6
BITMAP
C0
C0
40
20
ENDCHAR
STARTCHAR a
ENCODING 97
SWIDTH 75 0
DWIDTH -1 0
BBX 7 7 0 0
BITMAP
3C
7E
06
7E
C6
FE
76
ENDCHAR
STARTCHAR b
ENCODING 98
SWIDTH 75 0
DWIDTH -1 0
BBX 8 10 0 0
BITMAP
C0
C0
C0
DE
FF
E3
E3
E3
FF
DE
ENDCHAR
STARTCHAR c
ENCODING 99
SWIDTH 75 0
DWIDTH -1 0
BBX 7 7 0 0
BITMAP
7C
FE
C6
C0
C6
FE
7C
ENDCHAR
STARTCHAR d
ENCODING 100
SWIDTH 75 0
DWIDTH -1 0
BBX 8 10 0 0
BITMAP
03
03
03
7B
FF
C7
C7
C7
FF
7B
ENDCHAR
STARTCHAR e
ENCODING 101
SWIDTH 75 0
DWIDTH -1 0
BBX 7 7 0 0
BITMAP
7C
FE
C6
FC
C0
FE
7C
ENDCHAR
STARTCHAR f
ENCODING 102
SWIDTH 75 0
DWIDTH -1 0
BBX 7 10 0 0
BITMAP
3C
7E
66
60
F0
F0
60
60
60
60
ENDCHAR
STARTCHAR g
ENCODING 103
SWIDTH 75 0
DWIDTH -1 0
BBX 7 7 0 0
BITMAP
76
FE
C6
7E
06
FE
7C
ENDCHAR
STARTCHAR h
ENCODING 104
SWIDTH 75 0
DWIDTH -1 0
BBX 8 10 0 0
BITMAP
C0
C0
C0
DE
FF
E3
C3
C3
C3
C3
ENDCHAR
STARTCHAR i
ENCODING 105
SWIDTH 75 0
DWIDTH -1 0
BBX 2 10 0 0
BITMAP
C0
C0
00
C0
C0
C0
C0
C0
C0
C0
ENDCHAR
STARTCHAR j
ENCODING 106
SWIDTH 75 0
DWIDTH -1 0
BBX 7 10 0 0
BITMAP
06
06
00
06
06
06
06
C6
FE
7C
ENDCHAR
STARTCHAR k
ENCODING 107
SWIDTH 75 0
DWIDTH -1 0
BBX 6 10 0 0
BITMAP
C0
C0
C0
CC
DC
F8
F0
F8
DC
CC
ENDCHAR
STARTCHAR l
ENCODING 108
SWIDTH 75 0
DWIDTH -1 0
BBX 2 10 0 0
BITMAP
C0
C0
C0
C0
C0
C0
C0
C0
C0
C0
ENDCHAR
STARTCHAR m
ENCODING 109
SWIDTH 75 0
DWIDTH -1 0
BBX 8 7 0 0
BITMAP
B6
DB
DB
DB
DB
DB
DB
ENDCHAR
STARTCHAR n
ENCODING 110
SWIDTH 75 0
DWIDTH -1 0
BBX 8 7 0 0
BITMAP
DE
FF
E3
C3
C3
C3
C3
ENDCHAR
STARTCHAR o
ENCODING 111
SWIDTH 75 0
DWIDTH -1 0
BBX 7 7 0 0
BITMAP
7C
FE
C6
C6
C6
FE
7C
ENDCHAR
STARTCHAR p
ENCODING 112
SWIDTH 75 0
DWIDTH -1 0
BBX 7 7 0 0
BITMAP
DC
FE
C6
FE
DC
C0
C0
ENDCHAR
STARTCHAR q
ENCODING 113
SWIDTH 75 0
DWIDTH -1 0
BBX 7 7 0 0
BITMAP
76
FE
C6
FE
76
06
06
ENDCHAR
STARTCHAR r
ENCODING 114
SWIDTH 75 0
DWIDTH -1 0
BBX 8 7 0 0
BITMAP
DE
FF
E3
C0
C0
C0
C0
ENDCHAR
STARTCHAR s
ENCODING 115
SWIDTH 75 0
DWIDTH -1 0
BBX 7 7 0 0
BITMAP
7C
FE
C0
7C
06
FE
7C
ENDCHAR
STARTCHAR t
ENCODING 116
SWIDTH 75 0
DWIDTH -1 0
BBX 8 10 0 0
BITMAP
60
60
60
F0
F0
60
60
63
7F
3E
ENDCHAR
STARTCHAR u
ENCODING 117
SWIDTH 75 0
DWIDTH -1 0
BBX 8 7 0 0
BITMAP
C3
C3
C3
C3
C7
FF
7B
ENDCHAR
STARTCHAR v
ENCODING 118
SWIDTH 75 0
DWIDTH -1 0
BBX 8 7 0 0
BITMAP
C3
C3
C3
C3
66
3C
18
ENDCHAR
STARTCHAR w
ENCODING 119
SWIDTH 75 0
DWIDTH -1 0
BBX 8 7 0 0
BITMAP
C3
C3
C3
C3
DB
FF
66
ENDCHAR
STARTCHAR x
ENCODING 120
SWIDTH 75 0
DWIDTH -1 0
BBX 7 7 0 0
BITMAP
C6
EE
7C
38
7C
EE
C6
ENDCHAR
STARTCHAR y
ENCODING 121
SWIDTH 75 0
DWIDTH -1 0
BBX 7 7 0 0
BITMAP
C6
C6
FE
7E
06
FE
7C
ENDCHAR
STARTCHAR z
ENCODING 122
SWIDTH 75 0
DWIDTH -1 0
BBX 6 7 0 0
BITMAP
FC
FC
18
30
60
FC
FC
ENDCHAR
STARTCHAR {
ENCODING 123
SWIDTH 75 0
DWIDTH -1 0
BBX 4 10 0 0
BITMAP
30
70
60
60
C0
C0
60
60
70
30
ENDCHAR
STARTCHAR |
ENCODING 124
SWIDTH 75 0
DWIDTH -1 0
BBX 2 10 0 0
BITMAP
C0
C0
C0
C0
C0
C0
C0
C0
C0
C0
ENDCHAR
STARTCHAR }
ENCODING 125
SWIDTH 75 0
DWIDTH -1 0
BBX 4 10 0 0
BITMAP
C0
E0
60
60
30
30
60
60
E0
C0
ENDCHAR
STARTCHAR ~
ENCODING 126
SWIDTH 75 0
DWIDTH -1 0
BBX 8 2 0 5
BITMAP
33
CC
ENDCHAR
STARTCHAR ¤
ENCODING -92
SWIDTH 75 0
DWIDTH -1 0
BBX 8 10 0 0
BITMAP
3E
7F
63
FC
60
FC
60
63
7F
3E
ENDCHAR
STARTCHAR ¦
ENCODING -90
SWIDTH 75 0
DWIDTH -1 0
BBX 7 10 0 0
BITMAP
6C
38
7C
FE
C0
FC
7E
06
FE
7C
ENDCHAR
STARTCHAR ¼
ENCODING -68
SWIDTH 75 0
DWIDTH -1 0
BBX 9 10 0 0
BITMAP
6F80
FF80
CC00
CC00
CF00
CF00
CC00
CC00
FF80
6F80
ENDCHAR
STARTCHAR ´
ENCODING -76
SWIDTH 75 0
DWIDTH -1 0
BBX 7 10 0 0
BITMAP
6C
38
FE
FE
0C
18
30
60
FE
FE
ENDCHAR
STARTCHAR ¨
ENCODING -88
SWIDTH 75 0
DWIDTH -1 0
BBX 7 10 0 0
BITMAP
6C
38
00
7C
FE
C0
7C
06
FE
7C
ENDCHAR
STARTCHAR ½
ENCODING -67
SWIDTH 75 0
DWIDTH -1 0
BBX 9 7 0 0
BITMAP
7700
FF80
D980
DF00
D800
FF80
7700
ENDCHAR
STARTCHAR ¸
ENCODING -72
SWIDTH 75 0
DWIDTH -1 0
BBX 6 10 0 0
BITMAP
6C
38
00
FC
FC
18
30
60
FC
FC
ENDCHAR
STARTCHAR ¾
ENCODING -66
SWIDTH 75 0
DWIDTH -1 0
BBX 8 10 0 0
BITMAP
66
66
C3
C3
E7
7E
3C
18
18
18
ENDCHAR
STARTCHAR ¡
ENCODING -95
SWIDTH 75 0
DWIDTH -1 0
BBX 2 10 0 0
BITMAP
C0
C0
00
C0
C0
C0
C0
C0
C0
C0
ENDCHAR
STARTCHAR ¢
ENCODING -94
SWIDTH 75 0
DWIDTH -1 0
BBX 7 9 0 0
BITMAP
08
7C
FE
D6
D0
D6
FE
7C
20
ENDCHAR
STARTCHAR £
ENCODING -93
SWIDTH 75 0
DWIDTH -1 0
BBX 8 10 0 0
BITMAP
7E
FF
C3
C0
60
FC
60
C0
FF
FF
ENDCHAR
STARTCHAR ¥
ENCODING -91
SWIDTH 75 0
DWIDTH -1 0
BBX 8 10 0 0
BITMAP
C3
C3
C3
E7
7E
FF
18
FF
18
18
ENDCHAR
STARTCHAR §
ENCODING -89
SWIDTH 75 0
DWIDTH -1 0
BBX 4 10 0 0
BITMAP
60
90
C0
60
B0
D0
60
30
90
60
ENDCHAR
STARTCHAR ©
ENCODING -87
SWIDTH 75 0
DWIDTH -1 0
BBX 7 8 0 1
BITMAP
7C
82
9A
A2
A2
9A
82
7C
ENDCHAR
STARTCHAR ª
ENCODING -86
SWIDTH 75 0
DWIDTH -1 0
BBX 3 5 0 5
BITMAP
40
20
60
A0
60
ENDCHAR
STARTCHAR «
ENCODING -85
SWIDTH 75 0
DWIDTH -1 0
BBX 9 7 0 2
BITMAP
1980
3300
6600
CC00
6600
3300
1980
ENDCHAR
STARTCHAR ¬
ENCODING -84
SWIDTH 75 0
DWIDTH -1 0
BBX 7 4 0 4
BITMAP
FE
FE
06
06
ENDCHAR
STARTCHAR ®
ENCODING -82
SWIDTH 75 0
DWIDTH -1 0
BBX 8 8 0 1
BITMAP
7E
81
B9
A5
B9
A5
81
7E
ENDCHAR
STARTCHAR ¯
ENCODING -81
SWIDTH 75 0
DWIDTH -1 0
BBX 8 2 0 8
BITMAP
FF
FF
ENDCHAR
STARTCHAR °
ENCODING -80
SWIDTH 75 0
DWIDTH -1 0
BBX 4 4 1 6
BITMAP
60
90
90
60
ENDCHAR
STARTCHAR ±
ENCODING -79
SWIDTH 75 0
DWIDTH -1 0
BBX 6 9 1 1
BITMAP
30
30
FC
FC
30
30
00
FC
FC
ENDCHAR
STARTCHAR ²
ENCODING -78
SWIDTH 75 0
DWIDTH -1 0
BBX 3 5 0 5
BITMAP
C0
20
40
80
E0
ENDCHAR
STARTCHAR ³
ENCODING -77
SWIDTH 75 0
DWIDTH -1 0
BBX 3 5 0 5
BITMAP
C0
20
40
20
C0
ENDCHAR
STARTCHAR µ
ENCODING -75
SWIDTH 75 0
DWIDTH -1 0
BBX 7 8 0 0
BITMAP
C6
C6
CE
FE
F6
C6
C0
C0
ENDCHAR
STARTCHAR ·
ENCODING -73
SWIDTH 75 0
DWIDTH -1 0
BBX 2 2 0 3
BITMAP
C0
C0
ENDCHAR
STARTCHAR ¹
ENCODING -71
SWIDTH 75 0
DWIDTH -1 0
BBX 2 5 0 5
BITMAP
40
C0
40
40
40
ENDCHAR
STARTCHAR º
ENCODING -70
SWIDTH 75 0
DWIDTH -1 0
BBX 3 5 0 5
BITMAP
40
A0
A0
A0
40
ENDCHAR
STARTCHAR »
ENCODING -69
SWIDTH 75 0
DWIDTH -1 0
BBX 9 7 0 2
BITMAP
CC00
6600
3300
1980
3300
6600
CC00
ENDCHAR
STARTCHAR ¿
ENCODING -65
SWIDTH 75 0
DWIDTH -1 0
BBX 7 10 0 0
BITMAP
30
30
00
30
30
60
C0
C6
FE
7C
ENDCHAR
STARTCHAR À
ENCODING -64
SWIDTH 75 0
DWIDTH -1 0
BBX 7 10 0 0
BITMAP
30
18
7C
FE
C6
C6
FE
FE
C6
C6
ENDCHAR
STARTCHAR Á
ENCODING -63
SWIDTH 75 0
DWIDTH -1 0
BBX 7 10 0 0
BITMAP
18
30
7C
FE
C6
C6
FE
FE
C6
C6
ENDCHAR
STARTCHAR Â
ENCODING -62
SWIDTH 75 0
DWIDTH -1 0
BBX 7 10 0 0
BITMAP
38
6C
7C
FE
C6
C6
FE
FE
C6
C6
ENDCHAR
STARTCHAR Ã
ENCODING -61
SWIDTH 75 0
DWIDTH -1 0
BBX 8 10 0 0
BITMAP
33
CC
7C
FE
C6
C6
FE
FE
C6
C6
ENDCHAR
STARTCHAR Ä
ENCODING -60
SWIDTH 75 0
DWIDTH -1 0
BBX 7 10 0 0
BITMAP
6C
6C
7C
FE
C6
C6
FE
FE
C6
C6
ENDCHAR
STARTCHAR Å
ENCODING -59
SWIDTH 75 0
DWIDTH -1 0
BBX 7 10 0 0
BITMAP
38
6C
7C
FE
C6
C6
FE
FE
C6
C6
ENDCHAR
STARTCHAR Æ
ENCODING -58
SWIDTH 75 0
DWIDTH -1 0
BBX 9 10 0 0
BITMAP
7F80
FF80
CC00
CC00
FF00
FF00
CC00
CC00
CF80
CF80
ENDCHAR
STARTCHAR Ç
ENCODING -57
SWIDTH 75 0
DWIDTH -1 0
BBX 7 10 0 0
BITMAP
7C
FE
C6
C0
C0
C6
FE
7C
08
30
ENDCHAR
STARTCHAR È
ENCODING -56
SWIDTH 75 0
DWIDTH -1 0
BBX 7 10 0 0
BITMAP
30
18
FE
FE
C0
FC
FC
C0
FE
FE
ENDCHAR
STARTCHAR É
ENCODING -55
SWIDTH 75 0
DWIDTH -1 0
BBX 7 10 0 0
BITMAP
0C
18
FE
FE
C0
FC
FC
C0
FE
FE
ENDCHAR
STARTCHAR Ê
ENCODING -54
SWIDTH 75 0
DWIDTH -1 0
BBX 7 10 0 0
BITMAP
38
6C
FE
FE
C0
FC
FC
C0
FE
FE
ENDCHAR
STARTCHAR Ë
ENCODING -53
SWIDTH 75 0
DWIDTH -1 0
BBX 7 10 0 0
BITMAP
6C
6C
FE
FE
C0
FC
FC
C0
FE
FE
ENDCHAR
STARTCHAR Ì
ENCODING -52
SWIDTH 75 0
DWIDTH -1 0
BBX 3 10 0 0
BITMAP
C0
60
C0
C0
C0
C0
C0
C0
C0
C0
ENDCHAR
STARTCHAR Í
ENCODING -51
SWIDTH 75 0
DWIDTH -1 0
BBX 3 10 0 0
BITMAP
60
C0
60
60
60
60
60
60
60
60
ENDCHAR
STARTCHAR Î
ENCODING -50
SWIDTH 75 0
DWIDTH -1 0
BBX 4 10 0 0
BITMAP
60
90
60
60
60
60
60
60
60
60
ENDCHAR
STARTCHAR Ï
ENCODING -49
SWIDTH 75 0
DWIDTH -1 0
BBX 6 10 0 0
BITMAP
CC
CC
30
30
30
30
30
30
30
30
ENDCHAR
STARTCHAR Ð
ENCODING -48
SWIDTH 75 0
DWIDTH -1 0
BBX 8 10 0 0
BITMAP
7E
7F
63
63
FB
FB
63
63
7F
7E
ENDCHAR
STARTCHAR Ñ
ENCODING -47
SWIDTH 75 0
DWIDTH -1 0
BBX 8 10 0 0
BITMAP
33
CC
86
C6
E6
F6
DE
CE
C6
C2
ENDCHAR
STARTCHAR Ò
ENCODING -46
SWIDTH 75 0
DWIDTH -1 0
BBX 7 10 0 0
BITMAP
30
18
7C
FE
C6
C6
C6
C6
FE
7C
ENDCHAR
STARTCHAR Ó
ENCODING -45
SWIDTH 75 0
DWIDTH -1 0
BBX 7 10 0 0
BITMAP
0C
18
7C
FE
C6
C6
C6
C6
FE
7C
ENDCHAR
STARTCHAR Ô
ENCODING -44
SWIDTH 75 0
DWIDTH -1 0
BBX 7 10 0 0
BITMAP
38
6C
7C
FE
C6
C6
C6
C6
FE
7C
ENDCHAR
STARTCHAR Õ
ENCODING -43
SWIDTH 75 0
DWIDTH -1 0
BBX 8 10 0 0
BITMAP
33
CC
7C
FE
C6
C6
C6
C6
FE
7C
ENDCHAR
STARTCHAR Ö
ENCODING -42
SWIDTH 75 0
DWIDTH -1 0
BBX 7 10 0 0
BITMAP
6C
6C
7C
FE
C6
C6
C6
C6
FE
7C
ENDCHAR
STARTCHAR ×
ENCODING -41
SWIDTH 75 0
DWIDTH -1 0
BBX 6 6 0 2
BITMAP
CC
FC
78
78
FC
CC
ENDCHAR
STARTCHAR Ø
ENCODING -40
SWIDTH 75 0
DWIDTH -1 0
BBX 8 10 0 0
BITMAP
04
7E
FF
CB
CB
D3
D3
FF
7E
20
ENDCHAR
STARTCHAR Ù
ENCODING -39
SWIDTH 75 0
DWIDTH -1 0
BBX 7 10 0 0
BITMAP
60
30
C6
C6
C6
C6
C6
C6
FE
7C
ENDCHAR
STARTCHAR Ú
ENCODING -38
SWIDTH 75 0
DWIDTH -1 0
BBX 7 10 0 0
BITMAP
18
30
C6
C6
C6
C6
C6
C6
FE
7C
ENDCHAR
STARTCHAR Û
ENCODING -37
SWIDTH 75 0
DWIDTH -1 0
BBX 7 10 0 0
BITMAP
38
6C
C6
C6
C6
C6
C6
C6
FE
7C
ENDCHAR
STARTCHAR Ü
ENCODING -36
SWIDTH 75 0
DWIDTH -1 0
BBX 7 10 0 0
BITMAP
6C
6C
C6
C6
C6
C6
C6
C6
FE
7C
ENDCHAR
STARTCHAR Ý
ENCODING -35
SWIDTH 75 0
DWIDTH -1 0
BBX 8 10 0 0
BITMAP
0C
18
C3
C3
E7
7E
3C
18
18
18
ENDCHAR
STARTCHAR Þ
ENCODING -34
SWIDTH 75 0
DWIDTH -1 0
BBX 8 10 0 0
BITMAP
C0
C0
FE
FF
C3
C3
FF
FE
C0
C0
ENDCHAR
STARTCHAR ß
ENCODING -33
SWIDTH 75 0
DWIDTH -1 0
BBX 8 10 0 0
BITMAP
7C
FE
CE
DC
DE
C7
C3
C3
DF
DE
ENDCHAR
STARTCHAR à
ENCODING -32
SWIDTH 75 0
DWIDTH -1 0
BBX 7 10 0 0
BITMAP
30
18
00
3C
7E
06
7E
C6
FE
76
ENDCHAR
STARTCHAR á
ENCODING -31
SWIDTH 75 0
DWIDTH -1 0
BBX 7 10 0 0
BITMAP
0C
18
00
3C
7E
06
7E
C6
FE
76
ENDCHAR
STARTCHAR â
ENCODING -30
SWIDTH 75 0
DWIDTH -1 0
BBX 7 10 0 0
BITMAP
38
6C
00
3C
7E
06
7E
C6
FE
76
ENDCHAR
STARTCHAR ã
ENCODING -29
SWIDTH 75 0
DWIDTH -1 0
BBX 8 10 0 0
BITMAP
33
CC
00
3C
7E
06
7E
C6
FE
76
ENDCHAR
STARTCHAR ä
ENCODING -28
SWIDTH 75 0
DWIDTH -1 0
BBX 7 10 0 0
BITMAP
6C
6C
00
3C
7E
06
7E
C6
FE
76
ENDCHAR
STARTCHAR å
ENCODING -27
SWIDTH 75 0
DWIDTH -1 0
BBX 7 10 0 0
BITMAP
10
28
10
3C
7E
06
7E
C6
FE
76
ENDCHAR
STARTCHAR æ
ENCODING -26
SWIDTH 75 0
DWIDTH -1 0
BBX 9 7 0 0
BITMAP
3700
7F80
1980
7F00
9800
FF80
7B00
ENDCHAR
STARTCHAR ç
ENCODING -25
SWIDTH 75 0
DWIDTH -1 0
BBX 6 7 0 0
BITMAP
78
FC
C0
FC
78
10
20
ENDCHAR
STARTCHAR è
ENCODING -24
SWIDTH 75 0
DWIDTH -1 0
BBX 7 10 0 0
BITMAP
30
18
00
7C
FE
C6
FC
C0
FE
7C
ENDCHAR
STARTCHAR é
ENCODING -23
SWIDTH 75 0
DWIDTH -1 0
BBX 7 10 0 0
BITMAP
0C
18
00
7C
FE
C6
FC
C0
FE
7C
ENDCHAR
STARTCHAR ê
ENCODING -22
SWIDTH 75 0
DWIDTH -1 0
BBX 7 10 0 0
BITMAP
38
6C
00
7C
FE
C6
FC
C0
FE
7C
ENDCHAR
STARTCHAR ë
ENCODING -21
SWIDTH 75 0
DWIDTH -1 0
BBX 7 10 0 0
BITMAP
66
66
00
7C
FE
C6
FC
C0
FE
7C
ENDCHAR
STARTCHAR ì
ENCODING -20
SWIDTH 75 0
DWIDTH -1 0
BBX 3 10 0 0
BITMAP
C0
60
00
C0
C0
C0
C0
C0
C0
C0
ENDCHAR
STARTCHAR í
ENCODING -19
SWIDTH 75 0
DWIDTH -1 0
BBX 3 10 0 0
BITMAP
60
C0
00
C0
C0
C0
C0
C0
C0
C0
ENDCHAR
STARTCHAR î
ENCODING -18
SWIDTH 75 0
DWIDTH -1 0
BBX 4 10 0 0
BITMAP
60
90
00
60
60
60
60
60
60
60
ENDCHAR
STARTCHAR ï
ENCODING -17
SWIDTH 75 0
DWIDTH -1 0
BBX 6 10 0 0
BITMAP
CC
CC
00
30
30
30
30
30
30
30
ENDCHAR
STARTCHAR ð
ENCODING -16
SWIDTH 75 0
DWIDTH -1 0
BBX 7 10 0 0
BITMAP
50
20
50
7C
FE
C6
C6
C6
FE
7C
ENDCHAR
STARTCHAR ñ
ENCODING -15
SWIDTH 75 0
DWIDTH -1 0
BBX 8 10 0 0
BITMAP
33
CC
00
DE
FF
E3
C3
C3
C3
C3
ENDCHAR
STARTCHAR ò
ENCODING -14
SWIDTH 75 0
DWIDTH -1 0
BBX 7 10 0 0
BITMAP
30
18
00
7C
FE
C6
C6
C6
FE
7C
ENDCHAR
STARTCHAR ó
ENCODING -13
SWIDTH 75 0
DWIDTH -1 0
BBX 7 10 0 0
BITMAP
0C
18
00
7C
FE
C6
C6
C6
FE
7C
ENDCHAR
STARTCHAR ô
ENCODING -12
SWIDTH 75 0
DWIDTH -1 0
BBX 7 10 0 0
BITMAP
38
6C
00
7C
FE
C6
C6
C6
FE
7C
ENDCHAR
STARTCHAR õ
ENCODING -11
SWIDTH 75 0
DWIDTH -1 0
BBX 8 10 0 0
BITMAP
33
CC
00
7C
FE
C6
C6
C6
FE
7C
ENDCHAR
STARTCHAR ö
ENCODING -10
SWIDTH 75 0
DWIDTH -1 0
BBX 7 10 0 0
BITMAP
6C
6C
00
7C
FE
C6
C6
C6
FE
7C
ENDCHAR
STARTCHAR ÷
ENCODING -9
SWIDTH 75 0
DWIDTH -1 0
BBX 6 8 0 1
BITMAP
30
30
00
FC
FC
00
30
30
ENDCHAR
STARTCHAR ø
ENCODING -8
SWIDTH 75 0
DWIDTH -1 0
BBX 8 8 0 0
BITMAP
04
7E
FF
DB
D3
FF
7E
20
ENDCHAR
STARTCHAR ù
ENCODING -7
SWIDTH 75 0
DWIDTH -1 0
BBX 7 10 0 0
BITMAP
30
18
00
C6
C6
C6
C6
CE
FE
76
ENDCHAR
STARTCHAR ú
ENCODING -6
SWIDTH 75 0
DWIDTH -1 0
BBX 7 10 0 0
BITMAP
0C
18
00
C6
C6
C6
C6
CE
FE
76
ENDCHAR
STARTCHAR û
ENCODING -5
SWIDTH 75 0
DWIDTH -1 0
BBX 7 10 0 0
BITMAP
38
6C
00
C6
C6
C6
C6
CE
FE
76
ENDCHAR
STARTCHAR ü
ENCODING -4
SWIDTH 75 0
DWIDTH -1 0
BBX 7 10 0 0
BITMAP
C6
C6
00
C6
C6
C6
C6
CE
FE
76
ENDCHAR
STARTCHAR ý
ENCODING -3
SWIDTH 75 0
DWIDTH -1 0
BBX 7 10 0 0
BITMAP
0C
18
00
C6
C6
FE
7E
06
FE
7C
ENDCHAR
STARTCHAR þ
ENCODING -2
SWIDTH 75 0
DWIDTH -1 0
BBX 8 10 0 0
BITMAP
C0
C0
FE
FF
C3
C3
C3
FF
FE
C0
ENDCHAR
STARTCHAR ÿ
ENCODING -1
SWIDTH 75 0
DWIDTH -1 0
BBX 7 10 0 0
BITMAP
C6
C6
00
C6
C6
FE
7E
06
FE
7C
ENDCHAR
ENDFONT
