STARTFONT 2.1
COMMENT Lumiplan font build using LumiStudio
FONT Duhamel 08/07 4-Bold
SIZE 8 75 75
FONTBOUNDINGBOX 7 8 0 0
STARTPROPERTIES 1
Copyright "Copyright (c) 2021 Lumiplan"
ENDPROPERTIES
CHARS 189
STARTCHAR 
ENCODING 14
SWIDTH 75 0
DWIDTH -1 0
BBX 0 0 1 7
ENDCHAR
STARTCHAR  
ENCODING 32
SWIDTH 75 0
DWIDTH -1 0
BBX 0 0 2 7
ENDCHAR
STARTCHAR !
ENCODING 33
SWIDTH 75 0
DWIDTH -1 0
BBX 2 7 0 1
BITMAP
C0
C0
C0
C0
00
C0
C0
ENDCHAR
STARTCHAR "
ENCODING 34
SWIDTH 75 0
DWIDTH -1 0
BBX 4 3 0 5
BITMAP
50
50
A0
ENDCHAR
STARTCHAR #
ENCODING 35
SWIDTH 75 0
DWIDTH -1 0
BBX 7 7 0 1
BITMAP
6C
FE
FE
6C
FE
FE
6C
ENDCHAR
STARTCHAR $
ENCODING 36
SWIDTH 75 0
DWIDTH -1 0
BBX 6 7 0 1
BITMAP
30
78
B0
78
34
78
30
ENDCHAR
STARTCHAR %
ENCODING 37
SWIDTH 75 0
DWIDTH -1 0
BBX 6 5 0 2
BITMAP
CC
D8
30
6C
CC
ENDCHAR
STARTCHAR &
ENCODING 38
SWIDTH 75 0
DWIDTH -1 0
BBX 6 7 0 1
BITMAP
78
CC
D8
70
F4
C8
74
ENDCHAR
STARTCHAR '
ENCODING 39
SWIDTH 75 0
DWIDTH -1 0
BBX 2 3 0 5
BITMAP
40
40
80
ENDCHAR
STARTCHAR (
ENCODING 40
SWIDTH 75 0
DWIDTH -1 0
BBX 3 7 0 1
BITMAP
60
E0
C0
C0
C0
E0
60
ENDCHAR
STARTCHAR )
ENCODING 41
SWIDTH 75 0
DWIDTH -1 0
BBX 3 7 0 1
BITMAP
C0
E0
60
60
60
E0
C0
ENDCHAR
STARTCHAR *
ENCODING 42
SWIDTH 75 0
DWIDTH -1 0
BBX 6 7 0 1
BITMAP
30
B4
78
FC
78
B4
30
ENDCHAR
STARTCHAR +
ENCODING 43
SWIDTH 75 0
DWIDTH -1 0
BBX 6 6 0 1
BITMAP
30
30
FC
FC
30
30
ENDCHAR
STARTCHAR ,
ENCODING 44
SWIDTH 75 0
DWIDTH -1 0
BBX 3 3 0 1
BITMAP
60
60
80
ENDCHAR
STARTCHAR -
ENCODING 45
SWIDTH 75 0
DWIDTH -1 0
BBX 4 2 0 3
BITMAP
F0
F0
ENDCHAR
STARTCHAR .
ENCODING 46
SWIDTH 75 0
DWIDTH -1 0
BBX 2 2 0 1
BITMAP
C0
C0
ENDCHAR
STARTCHAR /
ENCODING 47
SWIDTH 75 0
DWIDTH -1 0
BBX 6 7 0 1
BITMAP
04
0C
18
30
60
C0
80
ENDCHAR
STARTCHAR 0
ENCODING 48
SWIDTH 75 0
DWIDTH -1 0
BBX 6 7 0 1
BITMAP
78
CC
CC
CC
CC
CC
78
ENDCHAR
STARTCHAR 1
ENCODING 49
SWIDTH 75 0
DWIDTH -1 0
BBX 5 7 0 1
BITMAP
30
70
F0
30
30
30
78
ENDCHAR
STARTCHAR 2
ENCODING 50
SWIDTH 75 0
DWIDTH -1 0
BBX 6 7 0 1
BITMAP
78
CC
CC
18
30
7C
FC
ENDCHAR
STARTCHAR 3
ENCODING 51
SWIDTH 75 0
DWIDTH -1 0
BBX 6 7 0 1
BITMAP
FC
18
38
0C
0C
CC
78
ENDCHAR
STARTCHAR 4
ENCODING 52
SWIDTH 75 0
DWIDTH -1 0
BBX 6 7 0 1
BITMAP
18
38
58
D8
FC
18
18
ENDCHAR
STARTCHAR 5
ENCODING 53
SWIDTH 75 0
DWIDTH -1 0
BBX 5 7 0 1
BITMAP
F8
C0
F0
18
18
98
70
ENDCHAR
STARTCHAR 6
ENCODING 54
SWIDTH 75 0
DWIDTH -1 0
BBX 6 7 0 1
BITMAP
38
60
C0
F8
CC
CC
78
ENDCHAR
STARTCHAR 7
ENCODING 55
SWIDTH 75 0
DWIDTH -1 0
BBX 6 7 0 1
BITMAP
FC
0C
18
30
30
30
30
ENDCHAR
STARTCHAR 8
ENCODING 56
SWIDTH 75 0
DWIDTH -1 0
BBX 6 7 0 1
BITMAP
78
CC
CC
78
CC
CC
78
ENDCHAR
STARTCHAR 9
ENCODING 57
SWIDTH 75 0
DWIDTH -1 0
BBX 6 7 0 1
BITMAP
78
CC
CC
7C
0C
18
70
ENDCHAR
STARTCHAR :
ENCODING 58
SWIDTH 75 0
DWIDTH -1 0
BBX 2 5 0 2
BITMAP
C0
C0
00
C0
C0
ENDCHAR
STARTCHAR ;
ENCODING 59
SWIDTH 75 0
DWIDTH -1 0
BBX 3 6 0 1
BITMAP
60
60
00
60
40
80
ENDCHAR
STARTCHAR <
ENCODING 60
SWIDTH 75 0
DWIDTH -1 0
BBX 5 7 0 1
BITMAP
18
30
60
C0
60
30
18
ENDCHAR
STARTCHAR =
ENCODING 61
SWIDTH 75 0
DWIDTH -1 0
BBX 5 5 0 2
BITMAP
F8
F8
00
F8
F8
ENDCHAR
STARTCHAR >
ENCODING 62
SWIDTH 75 0
DWIDTH -1 0
BBX 5 7 0 1
BITMAP
C0
60
30
18
30
60
C0
ENDCHAR
STARTCHAR ?
ENCODING 63
SWIDTH 75 0
DWIDTH -1 0
BBX 6 7 0 1
BITMAP
78
CC
0C
18
30
00
30
ENDCHAR
STARTCHAR @
ENCODING 64
SWIDTH 75 0
DWIDTH -1 0
BBX 6 7 0 1
BITMAP
78
CC
FC
D8
C0
C0
78
ENDCHAR
STARTCHAR A
ENCODING 65
SWIDTH 75 0
DWIDTH -1 0
BBX 6 7 0 1
BITMAP
78
CC
CC
FC
CC
CC
CC
ENDCHAR
STARTCHAR B
ENCODING 66
SWIDTH 75 0
DWIDTH -1 0
BBX 6 7 0 1
BITMAP
F8
CC
CC
F8
CC
CC
F8
ENDCHAR
STARTCHAR C
ENCODING 67
SWIDTH 75 0
DWIDTH -1 0
BBX 6 7 0 1
BITMAP
78
CC
C0
C0
C0
CC
78
ENDCHAR
STARTCHAR D
ENCODING 68
SWIDTH 75 0
DWIDTH -1 0
BBX 6 7 0 1
BITMAP
F0
D8
CC
CC
CC
D8
F0
ENDCHAR
STARTCHAR E
ENCODING 69
SWIDTH 75 0
DWIDTH -1 0
BBX 5 7 0 1
BITMAP
F8
C0
C0
F0
C0
C0
F8
ENDCHAR
STARTCHAR F
ENCODING 70
SWIDTH 75 0
DWIDTH -1 0
BBX 5 7 0 1
BITMAP
F8
C0
C0
F0
C0
C0
C0
ENDCHAR
STARTCHAR G
ENCODING 71
SWIDTH 75 0
DWIDTH -1 0
BBX 6 7 0 1
BITMAP
78
C4
C0
DC
CC
CC
7C
ENDCHAR
STARTCHAR H
ENCODING 72
SWIDTH 75 0
DWIDTH -1 0
BBX 6 7 0 1
BITMAP
CC
CC
CC
FC
CC
CC
CC
ENDCHAR
STARTCHAR I
ENCODING 73
SWIDTH 75 0
DWIDTH -1 0
BBX 4 7 0 1
BITMAP
F0
60
60
60
60
60
F0
ENDCHAR
STARTCHAR J
ENCODING 74
SWIDTH 75 0
DWIDTH -1 0
BBX 6 7 0 1
BITMAP
3C
18
18
18
18
D8
70
ENDCHAR
STARTCHAR K
ENCODING 75
SWIDTH 75 0
DWIDTH -1 0
BBX 6 7 0 1
BITMAP
CC
D8
F0
E0
F0
D8
CC
ENDCHAR
STARTCHAR L
ENCODING 76
SWIDTH 75 0
DWIDTH -1 0
BBX 5 7 0 1
BITMAP
C0
C0
C0
C0
C0
C0
F8
ENDCHAR
STARTCHAR M
ENCODING 77
SWIDTH 75 0
DWIDTH -1 0
BBX 7 7 0 1
BITMAP
C6
EE
D6
D6
C6
C6
C6
ENDCHAR
STARTCHAR N
ENCODING 78
SWIDTH 75 0
DWIDTH -1 0
BBX 6 7 0 1
BITMAP
CC
EC
DC
CC
CC
CC
CC
ENDCHAR
STARTCHAR O
ENCODING 79
SWIDTH 75 0
DWIDTH -1 0
BBX 6 7 0 1
BITMAP
78
CC
CC
CC
CC
CC
78
ENDCHAR
STARTCHAR P
ENCODING 80
SWIDTH 75 0
DWIDTH -1 0
BBX 6 7 0 1
BITMAP
F8
CC
CC
F8
C0
C0
C0
ENDCHAR
STARTCHAR Q
ENCODING 81
SWIDTH 75 0
DWIDTH -1 0
BBX 6 7 0 1
BITMAP
78
CC
CC
CC
CC
D0
68
ENDCHAR
STARTCHAR R
ENCODING 82
SWIDTH 75 0
DWIDTH -1 0
BBX 6 7 0 1
BITMAP
F8
CC
CC
F8
F0
D8
CC
ENDCHAR
STARTCHAR S
ENCODING 83
SWIDTH 75 0
DWIDTH -1 0
BBX 6 7 0 1
BITMAP
78
CC
C0
78
0C
CC
78
ENDCHAR
STARTCHAR T
ENCODING 84
SWIDTH 75 0
DWIDTH -1 0
BBX 6 7 0 1
BITMAP
FC
30
30
30
30
30
30
ENDCHAR
STARTCHAR U
ENCODING 85
SWIDTH 75 0
DWIDTH -1 0
BBX 6 7 0 1
BITMAP
CC
CC
CC
CC
CC
CC
78
ENDCHAR
STARTCHAR V
ENCODING 86
SWIDTH 75 0
DWIDTH -1 0
BBX 6 7 0 1
BITMAP
CC
CC
CC
CC
CC
48
30
ENDCHAR
STARTCHAR W
ENCODING 87
SWIDTH 75 0
DWIDTH -1 0
BBX 7 7 0 1
BITMAP
C6
C6
C6
D6
D6
EE
44
ENDCHAR
STARTCHAR X
ENCODING 88
SWIDTH 75 0
DWIDTH -1 0
BBX 5 7 0 1
BITMAP
D8
D8
50
20
50
D8
D8
ENDCHAR
STARTCHAR Y
ENCODING 89
SWIDTH 75 0
DWIDTH -1 0
BBX 6 7 0 1
BITMAP
CC
CC
48
30
30
30
30
ENDCHAR
STARTCHAR Z
ENCODING 90
SWIDTH 75 0
DWIDTH -1 0
BBX 6 7 0 1
BITMAP
FC
0C
18
30
60
C0
FC
ENDCHAR
STARTCHAR [
ENCODING 91
SWIDTH 75 0
DWIDTH -1 0
BBX 4 7 0 1
BITMAP
F0
C0
C0
C0
C0
C0
F0
ENDCHAR
STARTCHAR \
ENCODING 92
SWIDTH 75 0
DWIDTH -1 0
BBX 6 7 0 1
BITMAP
80
C0
60
30
18
0C
04
ENDCHAR
STARTCHAR ]
ENCODING 93
SWIDTH 75 0
DWIDTH -1 0
BBX 4 7 0 1
BITMAP
F0
30
30
30
30
30
F0
ENDCHAR
STARTCHAR ^
ENCODING 94
SWIDTH 75 0
DWIDTH -1 0
BBX 6 3 0 5
BITMAP
30
78
CC
ENDCHAR
STARTCHAR _
ENCODING 95
SWIDTH 75 0
DWIDTH -1 0
BBX 5 2 0 1
BITMAP
F8
F8
ENDCHAR
STARTCHAR `
ENCODING 96
SWIDTH 75 0
DWIDTH -1 0
BBX 2 3 0 5
BITMAP
80
80
40
ENDCHAR
STARTCHAR a
ENCODING 97
SWIDTH 75 0
DWIDTH -1 0
BBX 6 5 0 1
BITMAP
78
0C
7C
CC
7C
ENDCHAR
STARTCHAR b
ENCODING 98
SWIDTH 75 0
DWIDTH -1 0
BBX 6 7 0 1
BITMAP
C0
C0
D8
EC
CC
CC
F8
ENDCHAR
STARTCHAR c
ENCODING 99
SWIDTH 75 0
DWIDTH -1 0
BBX 6 5 0 1
BITMAP
78
CC
C0
CC
78
ENDCHAR
STARTCHAR d
ENCODING 100
SWIDTH 75 0
DWIDTH -1 0
BBX 6 7 0 1
BITMAP
0C
0C
6C
DC
CC
CC
7C
ENDCHAR
STARTCHAR e
ENCODING 101
SWIDTH 75 0
DWIDTH -1 0
BBX 6 5 0 1
BITMAP
78
CC
FC
C0
78
ENDCHAR
STARTCHAR f
ENCODING 102
SWIDTH 75 0
DWIDTH -1 0
BBX 5 7 0 1
BITMAP
38
60
F0
60
60
60
60
ENDCHAR
STARTCHAR g
ENCODING 103
SWIDTH 75 0
DWIDTH -1 0
BBX 6 6 0 0
BITMAP
7C
CC
CC
7C
0C
78
ENDCHAR
STARTCHAR h
ENCODING 104
SWIDTH 75 0
DWIDTH -1 0
BBX 6 7 0 1
BITMAP
C0
C0
D8
EC
CC
CC
CC
ENDCHAR
STARTCHAR i
ENCODING 105
SWIDTH 75 0
DWIDTH -1 0
BBX 4 7 0 1
BITMAP
40
00
E0
60
60
60
F0
ENDCHAR
STARTCHAR j
ENCODING 106
SWIDTH 75 0
DWIDTH -1 0
BBX 5 8 0 0
BITMAP
18
00
38
18
18
18
D8
70
ENDCHAR
STARTCHAR k
ENCODING 107
SWIDTH 75 0
DWIDTH -1 0
BBX 5 7 0 1
BITMAP
C0
C0
C8
D0
E0
D0
C8
ENDCHAR
STARTCHAR l
ENCODING 108
SWIDTH 75 0
DWIDTH -1 0
BBX 4 7 0 1
BITMAP
E0
60
60
60
60
60
F0
ENDCHAR
STARTCHAR m
ENCODING 109
SWIDTH 75 0
DWIDTH -1 0
BBX 7 5 0 1
BITMAP
EC
D6
D6
C6
C6
ENDCHAR
STARTCHAR n
ENCODING 110
SWIDTH 75 0
DWIDTH -1 0
BBX 6 5 0 1
BITMAP
D8
EC
CC
CC
CC
ENDCHAR
STARTCHAR o
ENCODING 111
SWIDTH 75 0
DWIDTH -1 0
BBX 5 5 0 1
BITMAP
70
D8
D8
D8
70
ENDCHAR
STARTCHAR p
ENCODING 112
SWIDTH 75 0
DWIDTH -1 0
BBX 6 6 0 0
BITMAP
F8
CC
CC
F8
C0
C0
ENDCHAR
STARTCHAR q
ENCODING 113
SWIDTH 75 0
DWIDTH -1 0
BBX 6 6 0 0
BITMAP
7C
CC
CC
7C
0C
0C
ENDCHAR
STARTCHAR r
ENCODING 114
SWIDTH 75 0
DWIDTH -1 0
BBX 6 5 0 1
BITMAP
D8
EC
C0
C0
C0
ENDCHAR
STARTCHAR s
ENCODING 115
SWIDTH 75 0
DWIDTH -1 0
BBX 6 5 0 1
BITMAP
70
C0
78
0C
F8
ENDCHAR
STARTCHAR t
ENCODING 116
SWIDTH 75 0
DWIDTH -1 0
BBX 6 7 0 1
BITMAP
60
60
F0
60
60
6C
38
ENDCHAR
STARTCHAR u
ENCODING 117
SWIDTH 75 0
DWIDTH -1 0
BBX 6 5 0 1
BITMAP
CC
CC
CC
DC
6C
ENDCHAR
STARTCHAR v
ENCODING 118
SWIDTH 75 0
DWIDTH -1 0
BBX 6 5 0 1
BITMAP
CC
CC
CC
48
30
ENDCHAR
STARTCHAR w
ENCODING 119
SWIDTH 75 0
DWIDTH -1 0
BBX 7 5 0 1
BITMAP
C6
C6
C6
D6
6C
ENDCHAR
STARTCHAR x
ENCODING 120
SWIDTH 75 0
DWIDTH -1 0
BBX 6 5 0 1
BITMAP
CC
78
30
78
CC
ENDCHAR
STARTCHAR y
ENCODING 121
SWIDTH 75 0
DWIDTH -1 0
BBX 6 6 0 0
BITMAP
CC
CC
CC
7C
0C
78
ENDCHAR
STARTCHAR z
ENCODING 122
SWIDTH 75 0
DWIDTH -1 0
BBX 5 5 0 1
BITMAP
F8
18
30
60
F8
ENDCHAR
STARTCHAR {
ENCODING 123
SWIDTH 75 0
DWIDTH -1 0
BBX 5 7 0 1
BITMAP
38
60
60
E0
60
60
38
ENDCHAR
STARTCHAR |
ENCODING 124
SWIDTH 75 0
DWIDTH -1 0
BBX 2 7 0 1
BITMAP
C0
C0
C0
C0
C0
C0
C0
ENDCHAR
STARTCHAR }
ENCODING 125
SWIDTH 75 0
DWIDTH -1 0
BBX 5 7 0 1
BITMAP
E0
30
30
38
30
30
E0
ENDCHAR
STARTCHAR ~
ENCODING 126
SWIDTH 75 0
DWIDTH -1 0
BBX 6 2 0 6
BITMAP
6C
D8
ENDCHAR
STARTCHAR ¤
ENCODING -92
SWIDTH 75 0
DWIDTH -1 0
BBX 7 7 0 1
BITMAP
3C
62
F8
60
F8
62
3C
ENDCHAR
STARTCHAR ¦
ENCODING -90
SWIDTH 75 0
DWIDTH -1 0
BBX 6 7 0 1
BITMAP
50
20
70
C0
78
0C
F8
ENDCHAR
STARTCHAR ¼
ENCODING -68
SWIDTH 75 0
DWIDTH -1 0
BBX 7 7 0 1
BITMAP
7E
D8
D8
DC
D8
D8
7E
ENDCHAR
STARTCHAR ´
ENCODING -76
SWIDTH 75 0
DWIDTH -1 0
BBX 5 7 0 1
BITMAP
50
20
F8
18
30
60
F8
ENDCHAR
STARTCHAR ¨
ENCODING -88
SWIDTH 75 0
DWIDTH -1 0
BBX 6 7 0 1
BITMAP
50
20
70
C0
78
0C
F8
ENDCHAR
STARTCHAR ½
ENCODING -67
SWIDTH 75 0
DWIDTH -1 0
BBX 7 5 0 1
BITMAP
7C
DA
DE
D8
7E
ENDCHAR
STARTCHAR ¸
ENCODING -72
SWIDTH 75 0
DWIDTH -1 0
BBX 5 7 0 1
BITMAP
50
20
F8
18
30
60
F8
ENDCHAR
STARTCHAR ¾
ENCODING -66
SWIDTH 75 0
DWIDTH -1 0
BBX 6 7 0 1
BITMAP
48
84
CC
48
30
30
30
ENDCHAR
STARTCHAR ¡
ENCODING -95
SWIDTH 75 0
DWIDTH -1 0
BBX 2 6 0 0
BITMAP
C0
00
C0
C0
C0
C0
ENDCHAR
STARTCHAR ¢
ENCODING -94
SWIDTH 75 0
DWIDTH -1 0
BBX 6 7 0 0
BITMAP
08
78
DC
D0
EC
78
40
ENDCHAR
STARTCHAR £
ENCODING -93
SWIDTH 75 0
DWIDTH -1 0
BBX 7 7 0 1
BITMAP
3C
66
60
F0
60
66
DC
ENDCHAR
STARTCHAR ¥
ENCODING -91
SWIDTH 75 0
DWIDTH -1 0
BBX 6 7 0 1
BITMAP
84
48
30
FC
30
FC
30
ENDCHAR
STARTCHAR §
ENCODING -89
SWIDTH 75 0
DWIDTH -1 0
BBX 6 7 0 1
BITMAP
78
C0
78
CC
78
0C
F8
ENDCHAR
STARTCHAR ©
ENCODING -87
SWIDTH 75 0
DWIDTH -1 0
BBX 3 5 0 3
BITMAP
40
A0
80
A0
40
ENDCHAR
STARTCHAR ª
ENCODING -86
SWIDTH 75 0
DWIDTH -1 0
BBX 3 4 0 4
BITMAP
C0
60
E0
60
ENDCHAR
STARTCHAR «
ENCODING -85
SWIDTH 75 0
DWIDTH -1 0
BBX 7 5 0 2
BITMAP
36
6C
D8
6C
36
ENDCHAR
STARTCHAR ¬
ENCODING -84
SWIDTH 75 0
DWIDTH -1 0
BBX 6 4 0 3
BITMAP
FC
FC
0C
0C
ENDCHAR
STARTCHAR ®
ENCODING -82
SWIDTH 75 0
DWIDTH -1 0
BBX 3 4 0 4
BITMAP
C0
A0
C0
A0
ENDCHAR
STARTCHAR ¯
ENCODING -81
SWIDTH 75 0
DWIDTH -1 0
BBX 6 2 0 6
BITMAP
FC
FC
ENDCHAR
STARTCHAR °
ENCODING -80
SWIDTH 75 0
DWIDTH -1 0
BBX 5 3 0 5
BITMAP
70
D8
70
ENDCHAR
STARTCHAR ±
ENCODING -79
SWIDTH 75 0
DWIDTH -1 0
BBX 6 8 0 0
BITMAP
30
30
FC
FC
30
30
FC
FC
ENDCHAR
STARTCHAR ²
ENCODING -78
SWIDTH 75 0
DWIDTH -1 0
BBX 2 4 0 4
BITMAP
80
40
80
C0
ENDCHAR
STARTCHAR ³
ENCODING -77
SWIDTH 75 0
DWIDTH -1 0
BBX 2 4 0 4
BITMAP
C0
40
40
C0
ENDCHAR
STARTCHAR µ
ENCODING -75
SWIDTH 75 0
DWIDTH -1 0
BBX 6 6 0 0
BITMAP
CC
CC
DC
EC
C0
C0
ENDCHAR
STARTCHAR ·
ENCODING -73
SWIDTH 75 0
DWIDTH -1 0
BBX 2 2 0 3
BITMAP
C0
C0
ENDCHAR
STARTCHAR ¹
ENCODING -71
SWIDTH 75 0
DWIDTH -1 0
BBX 2 4 0 4
BITMAP
40
C0
40
40
ENDCHAR
STARTCHAR º
ENCODING -70
SWIDTH 75 0
DWIDTH -1 0
BBX 3 4 0 4
BITMAP
40
A0
A0
40
ENDCHAR
STARTCHAR »
ENCODING -69
SWIDTH 75 0
DWIDTH -1 0
BBX 7 5 0 2
BITMAP
D8
6C
36
6C
D8
ENDCHAR
STARTCHAR ¿
ENCODING -65
SWIDTH 75 0
DWIDTH -1 0
BBX 6 7 0 1
BITMAP
30
00
30
70
C0
CC
78
ENDCHAR
STARTCHAR À
ENCODING -64
SWIDTH 75 0
DWIDTH -1 0
BBX 6 7 0 1
BITMAP
60
30
78
CC
FC
CC
CC
ENDCHAR
STARTCHAR Á
ENCODING -63
SWIDTH 75 0
DWIDTH -1 0
BBX 6 7 0 1
BITMAP
18
30
78
CC
FC
CC
CC
ENDCHAR
STARTCHAR Â
ENCODING -62
SWIDTH 75 0
DWIDTH -1 0
BBX 6 7 0 1
BITMAP
30
48
78
CC
FC
CC
CC
ENDCHAR
STARTCHAR Ã
ENCODING -61
SWIDTH 75 0
DWIDTH -1 0
BBX 6 7 0 1
BITMAP
68
B0
78
CC
FC
CC
CC
ENDCHAR
STARTCHAR Ä
ENCODING -60
SWIDTH 75 0
DWIDTH -1 0
BBX 6 7 0 1
BITMAP
CC
00
78
CC
FC
CC
CC
ENDCHAR
STARTCHAR Å
ENCODING -59
SWIDTH 75 0
DWIDTH -1 0
BBX 6 7 0 1
BITMAP
30
00
78
CC
FC
CC
CC
ENDCHAR
STARTCHAR Æ
ENCODING -58
SWIDTH 75 0
DWIDTH -1 0
BBX 7 7 0 1
BITMAP
3E
58
D8
DC
F8
D8
DE
ENDCHAR
STARTCHAR Ç
ENCODING -57
SWIDTH 75 0
DWIDTH -1 0
BBX 6 8 0 0
BITMAP
78
CC
C0
C0
C0
CC
78
60
ENDCHAR
STARTCHAR È
ENCODING -56
SWIDTH 75 0
DWIDTH -1 0
BBX 5 7 0 1
BITMAP
60
30
F8
C0
F0
C0
F8
ENDCHAR
STARTCHAR É
ENCODING -55
SWIDTH 75 0
DWIDTH -1 0
BBX 5 7 0 1
BITMAP
30
60
F8
C0
F0
C0
F8
ENDCHAR
STARTCHAR Ê
ENCODING -54
SWIDTH 75 0
DWIDTH -1 0
BBX 5 7 0 1
BITMAP
20
50
F8
C0
F0
C0
F8
ENDCHAR
STARTCHAR Ë
ENCODING -53
SWIDTH 75 0
DWIDTH -1 0
BBX 5 7 0 1
BITMAP
D8
00
F8
C0
F0
C0
F8
ENDCHAR
STARTCHAR Ì
ENCODING -52
SWIDTH 75 0
DWIDTH -1 0
BBX 3 7 0 1
BITMAP
C0
60
C0
C0
C0
C0
C0
ENDCHAR
STARTCHAR Í
ENCODING -51
SWIDTH 75 0
DWIDTH -1 0
BBX 3 7 0 1
BITMAP
60
C0
60
60
60
60
60
ENDCHAR
STARTCHAR Î
ENCODING -50
SWIDTH 75 0
DWIDTH -1 0
BBX 4 7 0 1
BITMAP
60
90
60
60
60
60
60
ENDCHAR
STARTCHAR Ï
ENCODING -49
SWIDTH 75 0
DWIDTH -1 0
BBX 4 7 0 1
BITMAP
90
60
60
60
60
60
60
ENDCHAR
STARTCHAR Ð
ENCODING -48
SWIDTH 75 0
DWIDTH -1 0
BBX 7 7 0 1
BITMAP
78
6C
66
F6
66
6C
78
ENDCHAR
STARTCHAR Ñ
ENCODING -47
SWIDTH 75 0
DWIDTH -1 0
BBX 6 7 0 1
BITMAP
68
B0
0C
DC
EC
CC
CC
ENDCHAR
STARTCHAR Ò
ENCODING -46
SWIDTH 75 0
DWIDTH -1 0
BBX 6 7 0 1
BITMAP
60
30
78
CC
CC
CC
78
ENDCHAR
STARTCHAR Ó
ENCODING -45
SWIDTH 75 0
DWIDTH -1 0
BBX 6 7 0 1
BITMAP
18
30
78
CC
CC
CC
78
ENDCHAR
STARTCHAR Ô
ENCODING -44
SWIDTH 75 0
DWIDTH -1 0
BBX 6 7 0 1
BITMAP
30
48
78
CC
CC
CC
78
ENDCHAR
STARTCHAR Õ
ENCODING -43
SWIDTH 75 0
DWIDTH -1 0
BBX 6 7 0 1
BITMAP
6C
D8
78
CC
CC
CC
78
ENDCHAR
STARTCHAR Ö
ENCODING -42
SWIDTH 75 0
DWIDTH -1 0
BBX 6 7 0 1
BITMAP
CC
00
78
CC
CC
CC
78
ENDCHAR
STARTCHAR ×
ENCODING -41
SWIDTH 75 0
DWIDTH -1 0
BBX 4 4 0 2
BITMAP
90
60
60
90
ENDCHAR
STARTCHAR Ø
ENCODING -40
SWIDTH 75 0
DWIDTH -1 0
BBX 6 7 0 1
BITMAP
78
CC
CC
DC
EC
CC
78
ENDCHAR
STARTCHAR Ù
ENCODING -39
SWIDTH 75 0
DWIDTH -1 0
BBX 6 7 0 1
BITMAP
60
30
CC
CC
CC
CC
78
ENDCHAR
STARTCHAR Ú
ENCODING -38
SWIDTH 75 0
DWIDTH -1 0
BBX 6 7 0 1
BITMAP
18
30
CC
CC
CC
CC
78
ENDCHAR
STARTCHAR Û
ENCODING -37
SWIDTH 75 0
DWIDTH -1 0
BBX 6 7 0 1
BITMAP
30
48
CC
CC
CC
CC
78
ENDCHAR
STARTCHAR Ü
ENCODING -36
SWIDTH 75 0
DWIDTH -1 0
BBX 6 7 0 1
BITMAP
CC
00
CC
CC
CC
CC
78
ENDCHAR
STARTCHAR Ý
ENCODING -35
SWIDTH 75 0
DWIDTH -1 0
BBX 6 7 0 1
BITMAP
18
B4
CC
48
30
30
30
ENDCHAR
STARTCHAR Þ
ENCODING -34
SWIDTH 75 0
DWIDTH -1 0
BBX 5 7 0 1
BITMAP
C0
C0
F0
C8
F0
C0
C0
ENDCHAR
STARTCHAR ß
ENCODING -33
SWIDTH 75 0
DWIDTH -1 0
BBX 6 8 0 0
BITMAP
70
D8
D8
D0
CC
CC
D8
C0
ENDCHAR
STARTCHAR à
ENCODING -32
SWIDTH 75 0
DWIDTH -1 0
BBX 6 7 0 1
BITMAP
20
10
78
0C
7C
CC
7C
ENDCHAR
STARTCHAR á
ENCODING -31
SWIDTH 75 0
DWIDTH -1 0
BBX 6 7 0 1
BITMAP
30
60
78
0C
7C
CC
7C
ENDCHAR
STARTCHAR â
ENCODING -30
SWIDTH 75 0
DWIDTH -1 0
BBX 6 7 0 1
BITMAP
30
48
78
0C
7C
CC
7C
ENDCHAR
STARTCHAR ã
ENCODING -29
SWIDTH 75 0
DWIDTH -1 0
BBX 6 7 0 1
BITMAP
68
B0
78
0C
7C
CC
7C
ENDCHAR
STARTCHAR ä
ENCODING -28
SWIDTH 75 0
DWIDTH -1 0
BBX 6 7 0 1
BITMAP
6C
00
78
0C
7C
CC
7C
ENDCHAR
STARTCHAR å
ENCODING -27
SWIDTH 75 0
DWIDTH -1 0
BBX 6 7 0 1
BITMAP
20
00
78
0C
7C
CC
7C
ENDCHAR
STARTCHAR æ
ENCODING -26
SWIDTH 75 0
DWIDTH -1 0
BBX 7 5 0 1
BITMAP
7C
36
7C
B0
7C
ENDCHAR
STARTCHAR ç
ENCODING -25
SWIDTH 75 0
DWIDTH -1 0
BBX 6 6 0 0
BITMAP
78
CC
C0
CC
78
E0
ENDCHAR
STARTCHAR è
ENCODING -24
SWIDTH 75 0
DWIDTH -1 0
BBX 6 7 0 1
BITMAP
20
10
78
CC
FC
C0
78
ENDCHAR
STARTCHAR é
ENCODING -23
SWIDTH 75 0
DWIDTH -1 0
BBX 6 7 0 1
BITMAP
10
20
78
CC
FC
C0
78
ENDCHAR
STARTCHAR ê
ENCODING -22
SWIDTH 75 0
DWIDTH -1 0
BBX 6 7 0 1
BITMAP
30
48
78
CC
FC
C0
78
ENDCHAR
STARTCHAR ë
ENCODING -21
SWIDTH 75 0
DWIDTH -1 0
BBX 6 7 0 1
BITMAP
48
00
78
CC
FC
C0
78
ENDCHAR
STARTCHAR ì
ENCODING -20
SWIDTH 75 0
DWIDTH -1 0
BBX 4 7 0 1
BITMAP
C0
60
E0
60
60
60
F0
ENDCHAR
STARTCHAR í
ENCODING -19
SWIDTH 75 0
DWIDTH -1 0
BBX 4 7 0 1
BITMAP
60
C0
E0
60
60
60
F0
ENDCHAR
STARTCHAR î
ENCODING -18
SWIDTH 75 0
DWIDTH -1 0
BBX 4 7 0 1
BITMAP
40
A0
E0
60
60
60
F0
ENDCHAR
STARTCHAR ï
ENCODING -17
SWIDTH 75 0
DWIDTH -1 0
BBX 5 7 0 1
BITMAP
D8
00
70
30
30
30
78
ENDCHAR
STARTCHAR ð
ENCODING -16
SWIDTH 75 0
DWIDTH -1 0
BBX 5 7 0 1
BITMAP
E0
50
08
78
D8
D8
70
ENDCHAR
STARTCHAR ñ
ENCODING -15
SWIDTH 75 0
DWIDTH -1 0
BBX 6 7 0 1
BITMAP
68
B0
D8
EC
CC
CC
CC
ENDCHAR
STARTCHAR ò
ENCODING -14
SWIDTH 75 0
DWIDTH -1 0
BBX 5 7 0 1
BITMAP
60
30
70
D8
D8
D8
70
ENDCHAR
STARTCHAR ó
ENCODING -13
SWIDTH 75 0
DWIDTH -1 0
BBX 5 7 0 1
BITMAP
30
60
70
D8
D8
D8
70
ENDCHAR
STARTCHAR ô
ENCODING -12
SWIDTH 75 0
DWIDTH -1 0
BBX 5 7 0 1
BITMAP
70
88
70
D8
D8
D8
70
ENDCHAR
STARTCHAR õ
ENCODING -11
SWIDTH 75 0
DWIDTH -1 0
BBX 5 7 0 1
BITMAP
68
B0
70
D8
D8
D8
70
ENDCHAR
STARTCHAR ö
ENCODING -10
SWIDTH 75 0
DWIDTH -1 0
BBX 5 7 0 1
BITMAP
D8
00
70
D8
D8
D8
70
ENDCHAR
STARTCHAR ÷
ENCODING -9
SWIDTH 75 0
DWIDTH -1 0
BBX 4 5 0 1
BITMAP
60
00
F0
00
60
ENDCHAR
STARTCHAR ø
ENCODING -8
SWIDTH 75 0
DWIDTH -1 0
BBX 7 5 0 1
BITMAP
7C
CE
D6
E6
7C
ENDCHAR
STARTCHAR ù
ENCODING -7
SWIDTH 75 0
DWIDTH -1 0
BBX 6 7 0 1
BITMAP
60
30
CC
CC
CC
DC
6C
ENDCHAR
STARTCHAR ú
ENCODING -6
SWIDTH 75 0
DWIDTH -1 0
BBX 6 7 0 1
BITMAP
18
30
CC
CC
CC
DC
6C
ENDCHAR
STARTCHAR û
ENCODING -5
SWIDTH 75 0
DWIDTH -1 0
BBX 6 7 0 1
BITMAP
10
28
CC
CC
CC
DC
6C
ENDCHAR
STARTCHAR ü
ENCODING -4
SWIDTH 75 0
DWIDTH -1 0
BBX 6 7 0 1
BITMAP
CC
00
CC
CC
CC
DC
6C
ENDCHAR
STARTCHAR ý
ENCODING -3
SWIDTH 75 0
DWIDTH -1 0
BBX 6 8 0 0
BITMAP
18
30
CC
CC
CC
7C
0C
78
ENDCHAR
STARTCHAR þ
ENCODING -2
SWIDTH 75 0
DWIDTH -1 0
BBX 5 7 0 1
BITMAP
C0
F0
C8
C8
C8
F0
C0
ENDCHAR
STARTCHAR ÿ
ENCODING -1
SWIDTH 75 0
DWIDTH -1 0
BBX 6 8 0 0
BITMAP
CC
00
CC
CC
CC
7C
0C
78
ENDCHAR
ENDFONT
