STARTFONT 2.1
COMMENT Lumiplan font build using LumiStudio
FONT L
SIZE 24 75 75
FONTBOUNDINGBOX 12 24 0 0
STARTPROPERTIES 1
Copyright "Copyright (c) 2021 Lumiplan"
ENDPROPERTIES
CHARS 145
STARTCHAR 
ENCODING 14
SWIDTH 75 0
DWIDTH -1 0
BBX 0 0 1 23
ENDCHAR
STARTCHAR  
ENCODING 32
SWIDTH 75 0
DWIDTH -1 0
BBX 0 0 4 23
ENDCHAR
STARTCHAR !
ENCODING 33
SWIDTH 75 0
DWIDTH -1 0
BBX 4 20 0 4
BITMAP
60
60
60
60
60
60
60
60
60
60
60
60
60
60
00
00
00
60
F0
60
ENDCHAR
STARTCHAR "
ENCODING 34
SWIDTH 75 0
DWIDTH -1 0
BBX 6 7 0 17
BITMAP
CC
CC
CC
CC
CC
48
48
ENDCHAR
STARTCHAR #
ENCODING 35
SWIDTH 75 0
DWIDTH -1 0
BBX 12 19 0 4
BITMAP
0C60
0C60
0C60
18C0
18C0
18C0
7FF0
7FF0
18C0
18C0
3180
3180
FFE0
FFE0
3180
3180
3180
6300
6300
ENDCHAR
STARTCHAR $
ENCODING 36
SWIDTH 75 0
DWIDTH -1 0
BBX 12 23 0 1
BITMAP
0600
0600
3FE0
7FE0
E000
C000
C000
E000
7800
3E00
0F80
01C0
00E0
0070
0030
0030
0070
00E0
FFC0
FF80
0600
0600
0600
ENDCHAR
STARTCHAR %
ENCODING 37
SWIDTH 75 0
DWIDTH -1 0
BBX 12 20 0 4
BITMAP
3010
7830
CC30
CC60
CCE0
CCC0
CD80
7980
3300
0600
0600
0CC0
19E0
1B30
3330
7330
6330
C330
C1E0
80C0
ENDCHAR
STARTCHAR &
ENCODING 38
SWIDTH 75 0
DWIDTH -1 0
BBX 12 20 0 4
BITMAP
1E00
3F00
7380
6180
6180
6180
6300
3600
1C00
3800
7800
EC10
C630
C360
C1C0
C1C0
C1C0
E3C0
7E60
3C30
ENDCHAR
STARTCHAR '
ENCODING 39
SWIDTH 75 0
DWIDTH -1 0
BBX 2 7 0 17
BITMAP
C0
C0
C0
C0
C0
40
40
ENDCHAR
STARTCHAR (
ENCODING 40
SWIDTH 75 0
DWIDTH -1 0
BBX 6 20 0 4
BITMAP
0C
18
18
30
30
60
60
C0
C0
C0
C0
C0
C0
60
60
30
30
18
18
0C
ENDCHAR
STARTCHAR )
ENCODING 41
SWIDTH 75 0
DWIDTH -1 0
BBX 6 20 0 4
BITMAP
C0
60
60
30
30
18
18
0C
0C
0C
0C
0C
0C
18
18
30
30
60
60
C0
ENDCHAR
STARTCHAR *
ENCODING 42
SWIDTH 75 0
DWIDTH -1 0
BBX 10 10 0 13
BITMAP
2100
3300
1E00
0C00
FFC0
FFC0
0C00
1E00
3300
2100
ENDCHAR
STARTCHAR +
ENCODING 43
SWIDTH 75 0
DWIDTH -1 0
BBX 12 12 0 5
BITMAP
0600
0600
0600
0600
0600
FFF0
FFF0
0600
0600
0600
0600
0600
ENDCHAR
STARTCHAR ,
ENCODING 44
SWIDTH 75 0
DWIDTH -1 0
BBX 4 7 0 0
BITMAP
30
30
60
60
C0
C0
80
ENDCHAR
STARTCHAR -
ENCODING 45
SWIDTH 75 0
DWIDTH -1 0
BBX 7 2 0 11
BITMAP
FE
FE
ENDCHAR
STARTCHAR .
ENCODING 46
SWIDTH 75 0
DWIDTH -1 0
BBX 4 3 0 4
BITMAP
60
F0
60
ENDCHAR
STARTCHAR /
ENCODING 47
SWIDTH 75 0
DWIDTH -1 0
BBX 9 21 0 3
BITMAP
0080
0080
0180
0180
0100
0300
0300
0600
0600
0400
0C00
0C00
1800
1800
3000
3000
3000
6000
6000
C000
C000
ENDCHAR
STARTCHAR 0
ENCODING 48
SWIDTH 75 0
DWIDTH -1 0
BBX 12 20 0 4
BITMAP
3FC0
7FE0
E070
C030
C030
C030
C030
C030
C030
C030
C030
C030
C030
C030
C030
C030
C030
E070
7FE0
3FC0
ENDCHAR
STARTCHAR 1
ENCODING 49
SWIDTH 75 0
DWIDTH -1 0
BBX 6 20 0 4
BITMAP
0C
1C
3C
6C
CC
0C
0C
0C
0C
0C
0C
0C
0C
0C
0C
0C
0C
0C
0C
0C
ENDCHAR
STARTCHAR 2
ENCODING 50
SWIDTH 75 0
DWIDTH -1 0
BBX 11 20 0 4
BITMAP
3F80
7FC0
E0E0
C060
0060
0060
0060
0060
00E0
01C0
0380
0700
0E00
1C00
3800
7000
E000
C000
FFE0
FFE0
ENDCHAR
STARTCHAR 3
ENCODING 51
SWIDTH 75 0
DWIDTH -1 0
BBX 11 20 0 4
BITMAP
3F80
7FC0
E0E0
C060
0060
0060
0060
00E0
01C0
1F80
1F80
01C0
00E0
0060
0060
0060
C060
E0E0
7FC0
3F80
ENDCHAR
STARTCHAR 4
ENCODING 52
SWIDTH 75 0
DWIDTH -1 0
BBX 12 20 0 4
BITMAP
01C0
03C0
03C0
07C0
0EC0
0CC0
1CC0
18C0
30C0
70C0
60C0
E0C0
C0C0
FFF0
FFF0
00C0
00C0
00C0
00C0
00C0
ENDCHAR
STARTCHAR 5
ENCODING 53
SWIDTH 75 0
DWIDTH -1 0
BBX 10 20 0 4
BITMAP
FFC0
FFC0
C000
C000
C000
C000
C000
C000
FE00
FF00
0380
01C0
00C0
00C0
00C0
00C0
01C0
0380
FF00
FE00
ENDCHAR
STARTCHAR 6
ENCODING 54
SWIDTH 75 0
DWIDTH -1 0
BBX 12 20 0 4
BITMAP
1FE0
3FE0
7000
E000
C000
C000
C000
C000
DF80
FFC0
F0E0
E070
C030
C030
C030
C030
E070
70E0
3FC0
1F80
ENDCHAR
STARTCHAR 7
ENCODING 55
SWIDTH 75 0
DWIDTH -1 0
BBX 12 20 0 4
BITMAP
FFF0
FFF0
0030
0070
0060
00C0
00C0
0180
0180
0300
0300
0600
0600
0C00
0C00
1800
1800
3000
3000
3000
ENDCHAR
STARTCHAR 8
ENCODING 56
SWIDTH 75 0
DWIDTH -1 0
BBX 12 20 0 4
BITMAP
1F80
3FC0
70E0
6060
6060
6060
70E0
39C0
1F80
0F00
1F80
39C0
70E0
E070
C030
C030
E070
70E0
3FC0
1F80
ENDCHAR
STARTCHAR 9
ENCODING 57
SWIDTH 75 0
DWIDTH -1 0
BBX 12 20 0 4
BITMAP
1F80
3FC0
70E0
E070
C030
C030
C030
C030
C030
E070
70F0
3FF0
1FB0
0030
0030
0030
0070
00E0
3FC0
3F80
ENDCHAR
STARTCHAR :
ENCODING 58
SWIDTH 75 0
DWIDTH -1 0
BBX 4 10 0 4
BITMAP
60
F0
60
00
00
00
00
60
F0
60
ENDCHAR
STARTCHAR ;
ENCODING 59
SWIDTH 75 0
DWIDTH -1 0
BBX 5 14 0 0
BITMAP
30
78
30
00
00
00
00
30
30
60
60
C0
C0
80
ENDCHAR
STARTCHAR <
ENCODING 60
SWIDTH 75 0
DWIDTH -1 0
BBX 12 16 0 4
BITMAP
0010
0070
00E0
0380
0700
0C00
3800
F000
F000
3800
0C00
0700
0380
00E0
0070
0010
ENDCHAR
STARTCHAR =
ENCODING 61
SWIDTH 75 0
DWIDTH -1 0
BBX 12 8 0 8
BITMAP
FFF0
FFF0
0000
0000
0000
0000
FFF0
FFF0
ENDCHAR
STARTCHAR >
ENCODING 62
SWIDTH 75 0
DWIDTH -1 0
BBX 12 16 0 4
BITMAP
8000
E000
7000
1800
0E00
0700
01C0
00F0
00F0
01C0
0700
0E00
1800
7000
E000
8000
ENDCHAR
STARTCHAR ?
ENCODING 63
SWIDTH 75 0
DWIDTH -1 0
BBX 8 20 0 4
BITMAP
3C
7E
E7
C3
03
03
07
0E
1C
18
18
18
18
18
00
00
00
18
3C
18
ENDCHAR
STARTCHAR @
ENCODING 64
SWIDTH 75 0
DWIDTH -1 0
BBX 12 13 0 5
BITMAP
1F80
2040
4E20
9110
A090
A090
A090
A090
A190
A290
9C60
4000
3FF0
ENDCHAR
STARTCHAR A
ENCODING 65
SWIDTH 75 0
DWIDTH -1 0
BBX 12 20 0 4
BITMAP
0600
0600
0F00
0F00
1F80
1980
1980
1980
30C0
30C0
30C0
30C0
7FE0
7FE0
6060
6060
6060
C030
C030
C030
ENDCHAR
STARTCHAR B
ENCODING 66
SWIDTH 75 0
DWIDTH -1 0
BBX 12 20 0 4
BITMAP
FF00
FF80
C1C0
C0E0
C060
C060
C060
C0C0
C180
FF00
FFC0
C0E0
C070
C030
C030
C030
C070
C0E0
FFC0
FF80
ENDCHAR
STARTCHAR C
ENCODING 67
SWIDTH 75 0
DWIDTH -1 0
BBX 12 20 0 4
BITMAP
1FF0
3FF0
7000
E000
C000
C000
C000
C000
C000
C000
C000
C000
C000
C000
C000
C000
E000
7000
3FF0
1FF0
ENDCHAR
STARTCHAR D
ENCODING 68
SWIDTH 75 0
DWIDTH -1 0
BBX 12 20 0 4
BITMAP
FF00
FF80
C1C0
C0E0
C070
C030
C030
C030
C030
C030
C030
C030
C030
C030
C030
C070
C0E0
C1C0
FF80
FF00
ENDCHAR
STARTCHAR E
ENCODING 69
SWIDTH 75 0
DWIDTH -1 0
BBX 11 20 0 4
BITMAP
FFE0
FFE0
C000
C000
C000
C000
C000
C000
C000
FF80
FF80
C000
C000
C000
C000
C000
C000
C000
FFE0
FFE0
ENDCHAR
STARTCHAR F
ENCODING 70
SWIDTH 75 0
DWIDTH -1 0
BBX 11 20 0 4
BITMAP
FFE0
FFE0
C000
C000
C000
C000
C000
C000
C000
FFC0
FFC0
C000
C000
C000
C000
C000
C000
C000
C000
C000
ENDCHAR
STARTCHAR G
ENCODING 71
SWIDTH 75 0
DWIDTH -1 0
BBX 12 20 0 4
BITMAP
1FE0
3FE0
7000
E000
C000
C000
C000
C000
C000
C000
C3F0
C3F0
C030
C030
C030
C030
E070
70E0
3FC0
1F80
ENDCHAR
STARTCHAR H
ENCODING 72
SWIDTH 75 0
DWIDTH -1 0
BBX 12 20 0 4
BITMAP
C030
C030
C030
C030
C030
C030
C030
C030
C030
FFF0
FFF0
C030
C030
C030
C030
C030
C030
C030
C030
C030
ENDCHAR
STARTCHAR I
ENCODING 73
SWIDTH 75 0
DWIDTH -1 0
BBX 2 19 0 4
BITMAP
C0
C0
C0
C0
C0
C0
C0
C0
C0
C0
C0
C0
C0
C0
C0
C0
C0
C0
C0
ENDCHAR
STARTCHAR J
ENCODING 74
SWIDTH 75 0
DWIDTH -1 0
BBX 9 20 0 4
BITMAP
0180
0180
0180
0180
0180
0180
0180
0180
0180
0180
0180
0180
0180
0180
0180
0180
0380
0700
FE00
FC00
ENDCHAR
STARTCHAR K
ENCODING 75
SWIDTH 75 0
DWIDTH -1 0
BBX 11 20 0 4
BITMAP
C000
C000
C060
C0E0
C1C0
C380
C700
CE00
DC00
F800
F000
F000
F800
DC00
CE00
C700
C380
C1C0
C0E0
C060
ENDCHAR
STARTCHAR L
ENCODING 76
SWIDTH 75 0
DWIDTH -1 0
BBX 9 20 0 4
BITMAP
C000
C000
C000
C000
C000
C000
C000
C000
C000
C000
C000
C000
C000
C000
C000
C000
C000
C000
FF80
FF80
ENDCHAR
STARTCHAR M
ENCODING 77
SWIDTH 75 0
DWIDTH -1 0
BBX 12 20 0 4
BITMAP
C030
E070
E070
F0F0
F9F0
DFB0
CF30
CF30
C630
C630
C030
C030
C030
C030
C030
C030
C030
C030
C030
C030
ENDCHAR
STARTCHAR N
ENCODING 78
SWIDTH 75 0
DWIDTH -1 0
BBX 12 20 0 4
BITMAP
C030
C030
E030
F030
F030
D830
D830
CC30
CC30
C630
C630
C330
C330
C1B0
C1B0
C0F0
C0F0
C070
C030
C030
ENDCHAR
STARTCHAR O
ENCODING 79
SWIDTH 75 0
DWIDTH -1 0
BBX 12 20 0 4
BITMAP
1F80
3FC0
70E0
E070
C030
C030
C030
C030
C030
C030
C030
C030
C030
C030
C030
C030
E070
70E0
3FC0
1F80
ENDCHAR
STARTCHAR P
ENCODING 80
SWIDTH 75 0
DWIDTH -1 0
BBX 12 20 0 4
BITMAP
FF80
FFC0
C0E0
C070
C030
C030
C030
C030
C070
C0E0
FFC0
FF80
C000
C000
C000
C000
C000
C000
C000
C000
ENDCHAR
STARTCHAR Q
ENCODING 81
SWIDTH 75 0
DWIDTH -1 0
BBX 12 24 0 0
BITMAP
1F80
3FC0
70E0
E070
C030
C030
C030
C030
C030
C030
C030
C030
C030
C030
C030
C030
E070
70E0
3FC0
1F80
0600
0300
0180
00C0
ENDCHAR
STARTCHAR R
ENCODING 82
SWIDTH 75 0
DWIDTH -1 0
BBX 12 20 0 4
BITMAP
FF80
FFC0
C0E0
C070
C030
C030
C030
C070
C0E0
C1C0
FF80
FF80
C1C0
C0E0
C070
C030
C030
C030
C030
C030
ENDCHAR
STARTCHAR S
ENCODING 83
SWIDTH 75 0
DWIDTH -1 0
BBX 12 20 0 4
BITMAP
1FE0
3FE0
7000
E000
C000
C000
E000
7800
3E00
0F80
03C0
00E0
0070
0030
0030
0030
0070
00E0
7FC0
7F80
ENDCHAR
STARTCHAR T
ENCODING 84
SWIDTH 75 0
DWIDTH -1 0
BBX 12 20 0 4
BITMAP
FFF0
FFF0
0600
0600
0600
0600
0600
0600
0600
0600
0600
0600
0600
0600
0600
0600
0600
0600
0600
0600
ENDCHAR
STARTCHAR U
ENCODING 85
SWIDTH 75 0
DWIDTH -1 0
BBX 12 20 0 4
BITMAP
C030
C030
C030
C030
C030
C030
C030
C030
C030
C030
C030
C030
C030
C030
C030
E070
6060
70E0
3FC0
1F80
ENDCHAR
STARTCHAR V
ENCODING 86
SWIDTH 75 0
DWIDTH -1 0
BBX 12 20 0 4
BITMAP
C030
C030
C030
C030
C030
C030
C030
C030
C030
6060
6060
6060
30C0
30C0
30C0
1980
1980
1F80
0F00
0600
ENDCHAR
STARTCHAR W
ENCODING 87
SWIDTH 75 0
DWIDTH -1 0
BBX 12 20 0 4
BITMAP
C030
C030
C030
C030
C030
C030
C630
C630
C630
C630
C630
C630
C630
C630
CF30
DFB0
F9F0
F0F0
E070
C030
ENDCHAR
STARTCHAR X
ENCODING 88
SWIDTH 75 0
DWIDTH -1 0
BBX 12 20 0 4
BITMAP
C030
C030
6060
6060
30C0
30C0
1980
1F80
0F00
0600
0600
0F00
1F80
1980
30C0
30C0
6060
6060
C030
C030
ENDCHAR
STARTCHAR Y
ENCODING 89
SWIDTH 75 0
DWIDTH -1 0
BBX 12 20 0 4
BITMAP
C030
C030
6060
6060
30C0
30C0
30C0
1980
1980
0F00
0F00
0600
0600
0600
0600
0600
0600
0600
0600
0600
ENDCHAR
STARTCHAR Z
ENCODING 90
SWIDTH 75 0
DWIDTH -1 0
BBX 11 20 0 4
BITMAP
FFE0
FFE0
0060
0060
00C0
0180
0180
0300
0300
0600
0C00
0C00
1800
3000
3000
6000
C000
C000
FFE0
FFE0
ENDCHAR
STARTCHAR [
ENCODING 91
SWIDTH 75 0
DWIDTH -1 0
BBX 5 23 0 1
BITMAP
F8
F8
C0
C0
C0
C0
C0
C0
C0
C0
C0
C0
C0
C0
C0
C0
C0
C0
C0
C0
C0
F8
F8
ENDCHAR
STARTCHAR \
ENCODING 92
SWIDTH 75 0
DWIDTH -1 0
BBX 9 21 0 3
BITMAP
8000
8000
C000
C000
6000
6000
2000
3000
3000
1800
1800
0800
0C00
0C00
0600
0600
0600
0300
0300
0180
0180
ENDCHAR
STARTCHAR ]
ENCODING 93
SWIDTH 75 0
DWIDTH -1 0
BBX 5 23 0 1
BITMAP
F8
F8
18
18
18
18
18
18
18
18
18
18
18
18
18
18
18
18
18
18
18
F8
F8
ENDCHAR
STARTCHAR ^
ENCODING 94
SWIDTH 75 0
DWIDTH -1 0
BBX 12 13 0 10
BITMAP
0600
0F00
0F00
1980
1980
30C0
30C0
30C0
6060
6060
C030
C030
8010
ENDCHAR
STARTCHAR _
ENCODING 95
SWIDTH 75 0
DWIDTH -1 0
BBX 12 2 0 0
BITMAP
FFF0
FFF0
ENDCHAR
STARTCHAR `
ENCODING 96
SWIDTH 75 0
DWIDTH -1 0
BBX 5 4 0 20
BITMAP
C0
60
30
18
ENDCHAR
STARTCHAR a
ENCODING 97
SWIDTH 75 0
DWIDTH -1 0
BBX 10 14 0 4
BITMAP
1F00
3F80
61C0
00C0
00C0
3EC0
7FC0
E1C0
C0C0
C0C0
C1C0
E3C0
7EC0
3CC0
ENDCHAR
STARTCHAR b
ENCODING 98
SWIDTH 75 0
DWIDTH -1 0
BBX 12 20 0 4
BITMAP
C000
C000
C000
C000
C000
C000
CF80
DFC0
F0E0
E070
C030
C030
C030
C030
C030
C030
E070
F0E0
DFC0
CF80
ENDCHAR
STARTCHAR c
ENCODING 99
SWIDTH 75 0
DWIDTH -1 0
BBX 11 14 0 4
BITMAP
1F80
3FC0
70E0
E060
C000
C000
C000
C000
C000
C000
E060
70E0
3FC0
1F80
ENDCHAR
STARTCHAR d
ENCODING 100
SWIDTH 75 0
DWIDTH -1 0
BBX 12 20 0 4
BITMAP
0030
0030
0030
0030
0030
0030
1F30
3FB0
70F0
E070
C030
C030
C030
C030
C030
C030
E070
70F0
3FB0
1F30
ENDCHAR
STARTCHAR e
ENCODING 101
SWIDTH 75 0
DWIDTH -1 0
BBX 10 14 0 4
BITMAP
3F00
7F80
E1C0
C0C0
C0C0
C1C0
FF80
FF00
C000
C000
E000
7000
3FC0
1F80
ENDCHAR
STARTCHAR f
ENCODING 102
SWIDTH 75 0
DWIDTH -1 0
BBX 8 20 0 4
BITMAP
07
0F
1C
38
30
30
FE
FE
30
30
30
30
30
30
30
30
30
30
30
30
ENDCHAR
STARTCHAR g
ENCODING 103
SWIDTH 75 0
DWIDTH -1 0
BBX 12 18 0 0
BITMAP
1FB0
3FF0
70F0
E070
C030
C030
C030
C030
C030
C030
E070
70F0
3FF0
1FB0
0030
0070
3FE0
3FC0
ENDCHAR
STARTCHAR h
ENCODING 104
SWIDTH 75 0
DWIDTH -1 0
BBX 12 20 0 4
BITMAP
C000
C000
C000
C000
C000
C000
DF80
FFC0
F0E0
E070
C030
C030
C030
C030
C030
C030
C030
C030
C030
C030
ENDCHAR
STARTCHAR i
ENCODING 105
SWIDTH 75 0
DWIDTH -1 0
BBX 2 20 0 4
BITMAP
C0
C0
C0
00
00
00
C0
C0
C0
C0
C0
C0
C0
C0
C0
C0
C0
C0
C0
C0
ENDCHAR
STARTCHAR j
ENCODING 106
SWIDTH 75 0
DWIDTH -1 0
BBX 5 24 0 0
BITMAP
18
18
18
00
00
00
18
18
18
18
18
18
18
18
18
18
18
18
18
18
18
38
F0
E0
ENDCHAR
STARTCHAR k
ENCODING 107
SWIDTH 75 0
DWIDTH -1 0
BBX 11 20 0 4
BITMAP
C000
C000
C000
C000
C000
C000
C0E0
C1C0
C380
C700
CE00
DC00
F800
F800
DC00
CE00
C700
C380
C1C0
C0E0
ENDCHAR
STARTCHAR l
ENCODING 108
SWIDTH 75 0
DWIDTH -1 0
BBX 2 20 0 4
BITMAP
C0
C0
C0
C0
C0
C0
C0
C0
C0
C0
C0
C0
C0
C0
C0
C0
C0
C0
C0
C0
ENDCHAR
STARTCHAR m
ENCODING 109
SWIDTH 75 0
DWIDTH -1 0
BBX 12 14 0 4
BITMAP
D9E0
FFF0
EF70
C630
C630
C630
C630
C630
C630
C630
C630
C630
C630
C630
ENDCHAR
STARTCHAR n
ENCODING 110
SWIDTH 75 0
DWIDTH -1 0
BBX 12 14 0 4
BITMAP
CFC0
DFE0
F070
E030
C030
C030
C030
C030
C030
C030
C030
C030
C030
C030
ENDCHAR
STARTCHAR o
ENCODING 111
SWIDTH 75 0
DWIDTH -1 0
BBX 12 14 0 4
BITMAP
1F80
3FC0
70E0
E070
C030
C030
C030
C030
C030
C030
E070
70E0
3FC0
1F80
ENDCHAR
STARTCHAR p
ENCODING 112
SWIDTH 75 0
DWIDTH -1 0
BBX 12 18 0 0
BITMAP
CF80
DFC0
F0E0
E070
C030
C030
C030
C030
C030
C030
E070
F0E0
DFC0
CF80
C000
C000
C000
C000
ENDCHAR
STARTCHAR q
ENCODING 113
SWIDTH 75 0
DWIDTH -1 0
BBX 12 18 0 0
BITMAP
1F30
3FB0
70F0
E070
C030
C030
C030
C030
C030
C030
E070
70F0
3FB0
1F30
0030
0030
0030
0030
ENDCHAR
STARTCHAR r
ENCODING 114
SWIDTH 75 0
DWIDTH -1 0
BBX 7 14 0 4
BITMAP
CE
DE
F8
F0
E0
C0
C0
C0
C0
C0
C0
C0
C0
C0
ENDCHAR
STARTCHAR s
ENCODING 115
SWIDTH 75 0
DWIDTH -1 0
BBX 8 14 0 4
BITMAP
3F
7F
E0
C0
E0
70
38
1C
0E
07
03
07
FE
FC
ENDCHAR
STARTCHAR t
ENCODING 116
SWIDTH 75 0
DWIDTH -1 0
BBX 8 17 0 4
BITMAP
30
30
30
FF
FF
30
30
30
30
30
30
30
30
30
38
1F
0F
ENDCHAR
STARTCHAR u
ENCODING 117
SWIDTH 75 0
DWIDTH -1 0
BBX 12 14 0 4
BITMAP
C030
C030
C030
C030
C030
C030
C030
C030
C030
C030
E070
70F0
3FB0
1F30
ENDCHAR
STARTCHAR v
ENCODING 118
SWIDTH 75 0
DWIDTH -1 0
BBX 12 14 0 4
BITMAP
C030
C030
C030
6060
6060
30C0
30C0
1980
1980
1980
0F00
0F00
0600
0600
ENDCHAR
STARTCHAR w
ENCODING 119
SWIDTH 75 0
DWIDTH -1 0
BBX 12 14 0 4
BITMAP
C030
C030
C030
C630
C630
C630
C630
C630
C630
C630
EF70
FFF0
79E0
30C0
ENDCHAR
STARTCHAR x
ENCODING 120
SWIDTH 75 0
DWIDTH -1 0
BBX 12 14 0 4
BITMAP
C030
C030
6060
30C0
1980
0F00
0600
0600
0F00
1980
30C0
6060
C030
C030
ENDCHAR
STARTCHAR y
ENCODING 121
SWIDTH 75 0
DWIDTH -1 0
BBX 12 18 0 0
BITMAP
C030
C030
6060
6060
6060
30C0
30C0
1980
1980
0F00
0F00
0600
0600
0600
0600
0E00
1C00
3800
ENDCHAR
STARTCHAR z
ENCODING 122
SWIDTH 75 0
DWIDTH -1 0
BBX 9 14 0 4
BITMAP
FF80
FF80
0180
0300
0600
0600
0C00
1800
3000
3000
6000
C000
FF80
FF80
ENDCHAR
STARTCHAR {
ENCODING 123
SWIDTH 75 0
DWIDTH -1 0
BBX 7 23 0 1
BITMAP
0E
18
30
30
30
30
30
30
30
30
60
C0
60
30
30
30
30
30
30
30
30
18
0E
ENDCHAR
STARTCHAR |
ENCODING 124
SWIDTH 75 0
DWIDTH -1 0
BBX 2 24 0 0
BITMAP
C0
C0
C0
C0
C0
C0
C0
C0
C0
C0
C0
C0
C0
C0
C0
C0
C0
C0
C0
C0
C0
C0
C0
C0
ENDCHAR
STARTCHAR }
ENCODING 125
SWIDTH 75 0
DWIDTH -1 0
BBX 7 23 0 1
BITMAP
E0
30
18
18
18
18
18
18
18
18
0C
06
0C
18
18
18
18
18
18
18
18
30
E0
ENDCHAR
STARTCHAR ~
ENCODING 126
SWIDTH 75 0
DWIDTH -1 0
BBX 12 5 0 10
BITMAP
3830
7C70
EEE0
C7C0
8380
ENDCHAR
STARTCHAR 
ENCODING 127
SWIDTH 75 0
DWIDTH -1 0
BBX 4 20 0 4
BITMAP
60
F0
60
00
00
00
60
60
60
60
60
60
60
60
60
60
60
60
60
60
ENDCHAR
STARTCHAR f
ENCODING 102
SWIDTH 75 0
DWIDTH -1 0
BBX 0 0 12 23
ENDCHAR
STARTCHAR ¡
ENCODING -95
SWIDTH 75 0
DWIDTH -1 0
BBX 0 0 12 23
ENDCHAR
STARTCHAR £
ENCODING -93
SWIDTH 75 0
DWIDTH -1 0
BBX 8 20 0 4
BITMAP
18
3C
18
00
00
00
18
18
18
18
18
38
70
E0
C0
C0
C3
E7
7E
3C
ENDCHAR
STARTCHAR ª
ENCODING -86
SWIDTH 75 0
DWIDTH -1 0
BBX 9 20 0 4
BITMAP
0600
0C00
1800
0000
FF80
FF80
C000
C000
C000
C000
C000
FF80
FF80
C000
C000
C000
C000
C000
FF80
FF80
ENDCHAR
STARTCHAR «
ENCODING -85
SWIDTH 75 0
DWIDTH -1 0
BBX 10 20 0 4
BITMAP
1980
3F00
6600
0000
C0C0
C0C0
E0C0
F0C0
F0C0
D8C0
D8C0
CCC0
CCC0
C6C0
C6C0
C3C0
C3C0
C1C0
C0C0
C0C0
ENDCHAR
STARTCHAR ¬
ENCODING -84
SWIDTH 75 0
DWIDTH -1 0
BBX 0 0 12 23
ENDCHAR
STARTCHAR ®
ENCODING -82
SWIDTH 75 0
DWIDTH -1 0
BBX 0 0 12 23
ENDCHAR
STARTCHAR º
ENCODING -70
SWIDTH 75 0
DWIDTH -1 0
BBX 0 0 12 23
ENDCHAR
STARTCHAR »
ENCODING -69
SWIDTH 75 0
DWIDTH -1 0
BBX 0 0 12 23
ENDCHAR
STARTCHAR  
ENCODING 32
SWIDTH 75 0
DWIDTH -1 0
BBX 0 0 12 23
ENDCHAR
STARTCHAR  
ENCODING 32
SWIDTH 75 0
DWIDTH -1 0
BBX 0 0 12 23
ENDCHAR
STARTCHAR ¿
ENCODING -65
SWIDTH 75 0
DWIDTH -1 0
BBX 0 0 12 23
ENDCHAR
STARTCHAR Ä
ENCODING -60
SWIDTH 75 0
DWIDTH -1 0
BBX 0 0 12 23
ENDCHAR
STARTCHAR Å
ENCODING -59
SWIDTH 75 0
DWIDTH -1 0
BBX 0 0 12 23
ENDCHAR
STARTCHAR Æ
ENCODING -58
SWIDTH 75 0
DWIDTH -1 0
BBX 0 0 12 23
ENDCHAR
STARTCHAR Ç
ENCODING -57
SWIDTH 75 0
DWIDTH -1 0
BBX 0 0 12 23
ENDCHAR
STARTCHAR É
ENCODING -55
SWIDTH 75 0
DWIDTH -1 0
BBX 0 0 12 23
ENDCHAR
STARTCHAR Ñ
ENCODING -47
SWIDTH 75 0
DWIDTH -1 0
BBX 0 0 12 23
ENDCHAR
STARTCHAR Ö
ENCODING -42
SWIDTH 75 0
DWIDTH -1 0
BBX 0 0 12 23
ENDCHAR
STARTCHAR ×
ENCODING -41
SWIDTH 75 0
DWIDTH -1 0
BBX 0 0 12 23
ENDCHAR
STARTCHAR Ø
ENCODING -40
SWIDTH 75 0
DWIDTH -1 0
BBX 0 0 12 23
ENDCHAR
STARTCHAR Ü
ENCODING -36
SWIDTH 75 0
DWIDTH -1 0
BBX 0 0 12 23
ENDCHAR
STARTCHAR à
ENCODING -32
SWIDTH 75 0
DWIDTH -1 0
BBX 0 0 12 23
ENDCHAR
STARTCHAR á
ENCODING -31
SWIDTH 75 0
DWIDTH -1 0
BBX 0 0 12 23
ENDCHAR
STARTCHAR â
ENCODING -30
SWIDTH 75 0
DWIDTH -1 0
BBX 0 0 12 23
ENDCHAR
STARTCHAR ä
ENCODING -28
SWIDTH 75 0
DWIDTH -1 0
BBX 0 0 12 23
ENDCHAR
STARTCHAR å
ENCODING -27
SWIDTH 75 0
DWIDTH -1 0
BBX 0 0 12 23
ENDCHAR
STARTCHAR æ
ENCODING -26
SWIDTH 75 0
DWIDTH -1 0
BBX 0 0 12 23
ENDCHAR
STARTCHAR ç
ENCODING -25
SWIDTH 75 0
DWIDTH -1 0
BBX 0 0 12 23
ENDCHAR
STARTCHAR è
ENCODING -24
SWIDTH 75 0
DWIDTH -1 0
BBX 12 8 0 8
BITMAP
FFF0
0030
0030
0030
0030
0030
0030
0030
ENDCHAR
STARTCHAR é
ENCODING -23
SWIDTH 75 0
DWIDTH -1 0
BBX 0 0 12 23
ENDCHAR
STARTCHAR ê
ENCODING -22
SWIDTH 75 0
DWIDTH -1 0
BBX 6 9 0 15
BITMAP
70
88
04
74
8C
84
8C
94
64
ENDCHAR
STARTCHAR ë
ENCODING -21
SWIDTH 75 0
DWIDTH -1 0
BBX 11 11 0 6
BITMAP
0660
0CC0
1980
3300
6600
CC00
6600
3300
1980
0CC0
0660
ENDCHAR
STARTCHAR ì
ENCODING -20
SWIDTH 75 0
DWIDTH -1 0
BBX 0 0 12 23
ENDCHAR
STARTCHAR í
ENCODING -19
SWIDTH 75 0
DWIDTH -1 0
BBX 12 20 0 4
BITMAP
1080
39C0
1080
0000
0600
0F00
1F80
1980
1980
30C0
30C0
30C0
30C0
7FE0
7FE0
6060
C030
C030
C030
C030
ENDCHAR
STARTCHAR î
ENCODING -18
SWIDTH 75 0
DWIDTH -1 0
BBX 10 10 0 14
BITMAP
1E00
2100
5C80
9240
9C40
9440
9240
4080
2100
1E00
ENDCHAR
STARTCHAR ï
ENCODING -17
SWIDTH 75 0
DWIDTH -1 0
BBX 7 2 0 11
BITMAP
FE
FE
ENDCHAR
STARTCHAR ñ
ENCODING -15
SWIDTH 75 0
DWIDTH -1 0
BBX 12 24 0 0
BITMAP
1FF0
3FF0
7000
E000
C000
C000
C000
C000
C000
C000
C000
C000
C000
C000
C000
C000
E000
7000
3FF0
1FF0
0100
0180
0040
0180
ENDCHAR
STARTCHAR ò
ENCODING -14
SWIDTH 75 0
DWIDTH -1 0
BBX 0 0 12 23
ENDCHAR
STARTCHAR ó
ENCODING -13
SWIDTH 75 0
DWIDTH -1 0
BBX 12 20 0 4
BITMAP
0600
0900
0600
0000
0600
0F00
1F80
1980
1980
30C0
30C0
30C0
30C0
7FE0
7FE0
6060
C030
C030
C030
C030
ENDCHAR
STARTCHAR ô
ENCODING -12
SWIDTH 75 0
DWIDTH -1 0
BBX 0 0 12 23
ENDCHAR
STARTCHAR ö
ENCODING -10
SWIDTH 75 0
DWIDTH -1 0
BBX 0 0 12 23
ENDCHAR
STARTCHAR ø
ENCODING -8
SWIDTH 75 0
DWIDTH -1 0
BBX 0 0 12 23
ENDCHAR
STARTCHAR ù
ENCODING -7
SWIDTH 75 0
DWIDTH -1 0
BBX 4 4 0 20
BITMAP
60
90
90
60
ENDCHAR
STARTCHAR ú
ENCODING -6
SWIDTH 75 0
DWIDTH -1 0
BBX 12 20 0 4
BITMAP
1FF0
1FF0
1E00
1E00
3600
3600
3600
3600
3600
37E0
67E0
6600
6600
7E00
7E00
6600
C600
C600
C7F0
C7F0
ENDCHAR
STARTCHAR û
ENCODING -5
SWIDTH 75 0
DWIDTH -1 0
BBX 0 0 12 23
ENDCHAR
STARTCHAR ü
ENCODING -4
SWIDTH 75 0
DWIDTH -1 0
BBX 12 19 0 4
BITMAP
03E0
07F0
0E00
1C00
1800
1800
1800
1800
1800
7F80
7F80
1800
1800
1800
1800
3800
7000
FFF0
FFF0
ENDCHAR
STARTCHAR ÿ
ENCODING -1
SWIDTH 75 0
DWIDTH -1 0
BBX 11 11 0 6
BITMAP
CC00
6600
3300
1980
0CC0
0660
0CC0
1980
3300
6600
CC00
ENDCHAR
ENDFONT
