STARTFONT 2.1
COMMENT Lumiplan font build using LumiStudio
FONT Parisine 24
SIZE 24 75 75
FONTBOUNDINGBOX 24 24 0 0
STARTPROPERTIES 1
Copyright "Copyright (c) 2021 Lumiplan"
ENDPROPERTIES
CHARS 145
STARTCHAR 
ENCODING 14
SWIDTH 75 0
DWIDTH -1 0
BBX 0 0 1 23
ENDCHAR
STARTCHAR  
ENCODING 32
SWIDTH 75 0
DWIDTH -1 0
BBX 0 0 4 23
ENDCHAR
STARTCHAR !
ENCODING 33
SWIDTH 75 0
DWIDTH -1 0
BBX 4 17 0 5
BITMAP
70
70
70
70
70
70
70
60
60
60
40
00
00
60
F0
F0
60
ENDCHAR
STARTCHAR "
ENCODING 34
SWIDTH 75 0
DWIDTH -1 0
BBX 7 7 0 16
BITMAP
CC
EE
EE
66
66
66
CC
ENDCHAR
STARTCHAR #
ENCODING 35
SWIDTH 75 0
DWIDTH -1 0
BBX 23 24 0 0
BITMAP
01FF00
07FFC0
0C0060
180030
300018
63FF8C
63FF8C
C3FF86
C03806
C03806
C03806
C03806
C03806
C03806
C03806
C03806
C03806
60380C
60380C
300018
180030
0C0060
07FFC0
01FF00
ENDCHAR
STARTCHAR $
ENCODING 36
SWIDTH 75 0
DWIDTH -1 0
BBX 24 24 0 0
BITMAP
01FF80
07FFE0
0C0030
180018
30000C
6300C6
6381C6
C381C3
C3C3C3
C3C3C3
C3E7C3
C3FFC3
C3BDC3
C399C3
C399C3
C381C3
C381C3
6381C6
6381C6
30000C
180018
0C0030
07FFE0
01FF80
ENDCHAR
STARTCHAR %
ENCODING 37
SWIDTH 75 0
DWIDTH -1 0
BBX 24 24 0 0
BITMAP
01FF80
07FFE0
0C0030
180018
30000C
600006
400002
CF3DE3
CDB1B3
CDB1B3
CDB1B3
CD3DA3
CE31C3
CF31E3
CDB1B3
CCB193
CCBD9B
400002
600006
30000C
180018
0C0030
07FFE0
01FF80
ENDCHAR
STARTCHAR &
ENCODING 38
SWIDTH 75 0
DWIDTH -1 0
BBX 12 17 0 5
BITMAP
1C00
7F00
E380
E380
E380
E380
6300
3600
1C30
6E30
E730
E360
E1E0
E0C0
F1E0
7F70
1E30
ENDCHAR
STARTCHAR '
ENCODING 39
SWIDTH 75 0
DWIDTH -1 0
BBX 3 7 0 16
BITMAP
C0
E0
E0
60
60
60
C0
ENDCHAR
STARTCHAR (
ENCODING 40
SWIDTH 75 0
DWIDTH -1 0
BBX 4 20 0 2
BITMAP
30
20
60
C0
C0
C0
C0
C0
C0
C0
C0
C0
C0
C0
C0
C0
C0
60
20
30
ENDCHAR
STARTCHAR )
ENCODING 41
SWIDTH 75 0
DWIDTH -1 0
BBX 4 20 0 2
BITMAP
C0
40
60
30
30
30
30
30
30
30
30
30
30
30
30
30
30
60
40
C0
ENDCHAR
STARTCHAR *
ENCODING 42
SWIDTH 75 0
DWIDTH -1 0
BBX 8 7 0 15
BITMAP
18
18
DB
FF
3C
66
66
ENDCHAR
STARTCHAR +
ENCODING 43
SWIDTH 75 0
DWIDTH -1 0
BBX 6 6 0 9
BITMAP
30
30
FC
FC
30
30
ENDCHAR
STARTCHAR ,
ENCODING 44
SWIDTH 75 0
DWIDTH -1 0
BBX 3 7 0 2
BITMAP
C0
E0
E0
60
60
60
C0
ENDCHAR
STARTCHAR -
ENCODING 45
SWIDTH 75 0
DWIDTH -1 0
BBX 5 3 0 11
BITMAP
78
F8
F0
ENDCHAR
STARTCHAR .
ENCODING 46
SWIDTH 75 0
DWIDTH -1 0
BBX 4 4 0 5
BITMAP
60
F0
F0
60
ENDCHAR
STARTCHAR /
ENCODING 47
SWIDTH 75 0
DWIDTH -1 0
BBX 6 15 0 6
BITMAP
0C
0C
0C
1C
18
18
38
30
70
60
60
E0
C0
C0
C0
ENDCHAR
STARTCHAR 0
ENCODING 48
SWIDTH 75 0
DWIDTH -1 0
BBX 10 18 0 5
BITMAP
1E00
3F00
7380
6180
E1C0
E1C0
E1C0
E1C0
E1C0
E1C0
E1C0
E1C0
E1C0
E1C0
6180
7380
3F00
1E00
ENDCHAR
STARTCHAR 1
ENCODING 49
SWIDTH 75 0
DWIDTH -1 0
BBX 7 18 0 5
BITMAP
0E
1E
3E
6E
CE
CE
8E
0E
0E
0E
0E
0E
0E
0E
0E
0E
0E
0E
ENDCHAR
STARTCHAR 2
ENCODING 50
SWIDTH 75 0
DWIDTH -1 0
BBX 10 18 0 5
BITMAP
1E00
7F80
E3C0
C1C0
41C0
01C0
01C0
01C0
0380
0380
0700
0E00
1C00
3800
6000
FFC0
FFC0
FFC0
ENDCHAR
STARTCHAR 3
ENCODING 51
SWIDTH 75 0
DWIDTH -1 0
BBX 9 18 0 5
BITMAP
7C00
FF00
8780
0380
0380
0380
0380
0700
7C00
7F00
0780
0380
0380
0380
0380
8700
FF00
7C00
ENDCHAR
STARTCHAR 4
ENCODING 52
SWIDTH 75 0
DWIDTH -1 0
BBX 11 18 0 5
BITMAP
0780
0F80
1B80
3380
3380
3380
6380
6380
6380
C380
C380
C380
FFE0
FFE0
0380
0380
0380
0380
ENDCHAR
STARTCHAR 5
ENCODING 53
SWIDTH 75 0
DWIDTH -1 0
BBX 9 18 0 5
BITMAP
FF00
FF00
FF00
C000
C000
C000
C000
F000
FC00
3F00
0700
0380
0380
0380
0380
8700
FF00
7C00
ENDCHAR
STARTCHAR 6
ENCODING 54
SWIDTH 75 0
DWIDTH -1 0
BBX 10 18 0 5
BITMAP
1F00
3F80
7080
6000
E000
E000
EE00
FF80
E380
E1C0
E1C0
E1C0
E1C0
E1C0
E1C0
7380
7F80
1E00
ENDCHAR
STARTCHAR 7
ENCODING 55
SWIDTH 75 0
DWIDTH -1 0
BBX 10 18 0 5
BITMAP
FFC0
FFC0
FFC0
01C0
0180
0380
0300
0700
0600
0E00
0C00
1C00
1800
3800
3000
7000
7000
7000
ENDCHAR
STARTCHAR 8
ENCODING 56
SWIDTH 75 0
DWIDTH -1 0
BBX 10 18 0 5
BITMAP
1E00
7F80
F3C0
E1C0
E1C0
E1C0
E180
7980
1E00
6780
61C0
E1C0
E1C0
E1C0
E1C0
7380
7F80
1E00
ENDCHAR
STARTCHAR 9
ENCODING 57
SWIDTH 75 0
DWIDTH -1 0
BBX 10 18 0 5
BITMAP
1E00
7F80
7380
E1C0
E1C0
E1C0
E1C0
E1C0
E1C0
71C0
7FC0
1DC0
01C0
01C0
0180
4380
7F00
3E00
ENDCHAR
STARTCHAR :
ENCODING 58
SWIDTH 75 0
DWIDTH -1 0
BBX 4 13 0 5
BITMAP
60
F0
F0
60
00
00
00
00
00
60
F0
F0
60
ENDCHAR
STARTCHAR ;
ENCODING 59
SWIDTH 75 0
DWIDTH -1 0
BBX 4 16 0 2
BITMAP
60
F0
F0
60
00
00
00
00
00
60
70
70
30
30
30
60
ENDCHAR
STARTCHAR <
ENCODING 60
SWIDTH 75 0
DWIDTH -1 0
BBX 4 6 0 9
BITMAP
30
60
C0
C0
60
30
ENDCHAR
STARTCHAR =
ENCODING 61
SWIDTH 75 0
DWIDTH -1 0
BBX 4 6 0 9
BITMAP
F0
F0
00
00
F0
F0
ENDCHAR
STARTCHAR >
ENCODING 62
SWIDTH 75 0
DWIDTH -1 0
BBX 4 6 0 9
BITMAP
C0
60
30
30
60
C0
ENDCHAR
STARTCHAR ?
ENCODING 63
SWIDTH 75 0
DWIDTH -1 0
BBX 8 17 0 5
BITMAP
7C
FE
8F
07
07
07
06
0C
18
30
30
00
00
30
78
78
30
ENDCHAR
STARTCHAR @
ENCODING 64
SWIDTH 75 0
DWIDTH -1 0
BBX 8 2 0 11
BITMAP
FF
FF
ENDCHAR
STARTCHAR A
ENCODING 65
SWIDTH 75 0
DWIDTH -1 0
BBX 9 17 0 5
BITMAP
1C00
1C00
3E00
3600
3600
6300
6300
6300
6300
E380
FF80
FF80
E380
E380
E380
E380
E380
ENDCHAR
STARTCHAR B
ENCODING 66
SWIDTH 75 0
DWIDTH -1 0
BBX 9 17 0 5
BITMAP
FE00
FF00
E700
E380
E380
E380
E380
FF00
FE00
E300
E380
E380
E380
E380
E300
FF00
FE00
ENDCHAR
STARTCHAR C
ENCODING 67
SWIDTH 75 0
DWIDTH -1 0
BBX 8 17 0 5
BITMAP
3E
7F
62
E0
E0
E0
E0
E0
E0
E0
E0
E0
E0
E0
72
7F
3E
ENDCHAR
STARTCHAR D
ENCODING 68
SWIDTH 75 0
DWIDTH -1 0
BBX 9 17 0 5
BITMAP
FE00
FF00
E700
E380
E380
E380
E380
E380
E380
E380
E380
E380
E380
E380
E300
FF00
FE00
ENDCHAR
STARTCHAR E
ENCODING 69
SWIDTH 75 0
DWIDTH -1 0
BBX 8 17 0 5
BITMAP
FE
FE
E0
E0
E0
E0
E0
FE
FE
E0
E0
E0
E0
E0
E0
FF
7F
ENDCHAR
STARTCHAR F
ENCODING 70
SWIDTH 75 0
DWIDTH -1 0
BBX 7 17 0 5
BITMAP
FE
FE
E0
E0
E0
E0
E0
E0
FE
FE
E0
E0
E0
E0
E0
E0
E0
ENDCHAR
STARTCHAR G
ENCODING 71
SWIDTH 75 0
DWIDTH -1 0
BBX 9 17 0 5
BITMAP
3E00
7F00
6200
E000
E000
E000
E000
E000
EF00
EF80
E380
E380
E380
E380
7380
7F80
3C80
ENDCHAR
STARTCHAR H
ENCODING 72
SWIDTH 75 0
DWIDTH -1 0
BBX 9 17 0 5
BITMAP
E380
E380
E380
E380
E380
E380
E380
FF80
FF80
E380
E380
E380
E380
E380
E380
E380
E380
ENDCHAR
STARTCHAR I
ENCODING 73
SWIDTH 75 0
DWIDTH -1 0
BBX 3 17 0 5
BITMAP
E0
E0
E0
E0
E0
E0
E0
E0
E0
E0
E0
E0
E0
E0
E0
E0
E0
ENDCHAR
STARTCHAR J
ENCODING 74
SWIDTH 75 0
DWIDTH -1 0
BBX 6 17 0 5
BITMAP
7C
7C
1C
1C
1C
1C
1C
1C
1C
1C
1C
1C
1C
1C
18
F8
E0
ENDCHAR
STARTCHAR K
ENCODING 75
SWIDTH 75 0
DWIDTH -1 0
BBX 10 17 0 5
BITMAP
E380
E380
E380
E300
E300
E600
E600
EC00
FC00
FC00
E600
E700
E700
E380
E380
E1C0
E1C0
ENDCHAR
STARTCHAR L
ENCODING 76
SWIDTH 75 0
DWIDTH -1 0
BBX 7 17 0 5
BITMAP
E0
E0
E0
E0
E0
E0
E0
E0
E0
E0
E0
E0
E0
E0
E0
FE
FE
ENDCHAR
STARTCHAR M
ENCODING 77
SWIDTH 75 0
DWIDTH -1 0
BBX 11 17 0 5
BITMAP
C060
C060
E0E0
E0E0
F1E0
F1E0
FBE0
FBE0
EEE0
EEE0
E4E0
E0E0
E0E0
E0E0
E0E0
E0E0
E0E0
ENDCHAR
STARTCHAR N
ENCODING 78
SWIDTH 75 0
DWIDTH -1 0
BBX 10 17 0 5
BITMAP
C1C0
C1C0
E1C0
E1C0
F1C0
F1C0
F9C0
F9C0
EDC0
EDC0
E7C0
E7C0
E3C0
E1C0
E1C0
E0C0
E0C0
ENDCHAR
STARTCHAR O
ENCODING 79
SWIDTH 75 0
DWIDTH -1 0
BBX 10 17 0 5
BITMAP
1E00
7F80
7380
E1C0
E1C0
E1C0
E1C0
E1C0
E1C0
E1C0
E1C0
E1C0
E1C0
E1C0
7380
7F80
1E00
ENDCHAR
STARTCHAR P
ENCODING 80
SWIDTH 75 0
DWIDTH -1 0
BBX 9 17 0 5
BITMAP
FE00
FF00
E700
E380
E380
E380
E380
E380
E380
E300
FF00
FE00
E000
E000
E000
E000
E000
ENDCHAR
STARTCHAR Q
ENCODING 81
SWIDTH 75 0
DWIDTH -1 0
BBX 10 20 0 2
BITMAP
1E00
7F80
7380
E1C0
E1C0
E1C0
E1C0
E1C0
E1C0
E1C0
E1C0
E1C0
E1C0
E1C0
7380
7F80
1E00
0C00
0F80
0780
ENDCHAR
STARTCHAR R
ENCODING 82
SWIDTH 75 0
DWIDTH -1 0
BBX 10 17 0 5
BITMAP
FE00
FF00
E380
E380
E380
E380
E380
E300
FE00
FE00
E600
E700
E700
E380
E380
E1C0
E1C0
ENDCHAR
STARTCHAR S
ENCODING 83
SWIDTH 75 0
DWIDTH -1 0
BBX 8 17 0 5
BITMAP
1E
7F
E2
E0
E0
E0
70
78
3C
1E
0E
07
07
07
47
FE
78
ENDCHAR
STARTCHAR T
ENCODING 84
SWIDTH 75 0
DWIDTH -1 0
BBX 9 17 0 5
BITMAP
FF80
FF80
1C00
1C00
1C00
1C00
1C00
1C00
1C00
1C00
1C00
1C00
1C00
1C00
1C00
1C00
1C00
ENDCHAR
STARTCHAR U
ENCODING 85
SWIDTH 75 0
DWIDTH -1 0
BBX 9 17 0 5
BITMAP
E380
E380
E380
E380
E380
E380
E380
E380
E380
E380
E380
E380
E380
E380
F380
7F80
3B80
ENDCHAR
STARTCHAR V
ENCODING 86
SWIDTH 75 0
DWIDTH -1 0
BBX 9 17 0 5
BITMAP
E380
E380
E380
E380
E380
E380
E380
E380
6300
6300
6300
6300
3600
3600
3E00
1C00
1C00
ENDCHAR
STARTCHAR W
ENCODING 87
SWIDTH 75 0
DWIDTH -1 0
BBX 12 17 0 5
BITMAP
E070
E070
E070
E670
E670
E670
E670
E670
E670
6660
6660
6660
6660
36C0
3FC0
1980
1980
ENDCHAR
STARTCHAR X
ENCODING 88
SWIDTH 75 0
DWIDTH -1 0
BBX 9 17 0 5
BITMAP
E380
E380
E380
E380
6300
6300
7300
3E00
1C00
3E00
6700
6300
6300
E380
E380
E380
E380
ENDCHAR
STARTCHAR Y
ENCODING 89
SWIDTH 75 0
DWIDTH -1 0
BBX 9 17 0 5
BITMAP
E380
E380
E380
E380
E380
6300
6300
6300
3600
3600
1C00
1C00
1C00
1C00
1C00
1C00
1C00
ENDCHAR
STARTCHAR Z
ENCODING 90
SWIDTH 75 0
DWIDTH -1 0
BBX 8 17 0 5
BITMAP
FF
FF
03
07
07
0E
0E
1C
3C
38
70
70
E0
E0
C0
FF
FF
ENDCHAR
STARTCHAR [
ENCODING 91
SWIDTH 75 0
DWIDTH -1 0
BBX 3 20 0 2
BITMAP
E0
E0
C0
C0
C0
C0
C0
C0
C0
C0
C0
C0
C0
C0
C0
C0
C0
C0
E0
E0
ENDCHAR
STARTCHAR \
ENCODING 92
SWIDTH 75 0
DWIDTH -1 0
BBX 24 24 0 0
BITMAP
01FF80
07FFE0
0C0030
180018
30000C
600006
400002
CF3663
CDB6D3
CDB6C3
CDB6C3
CF3643
CDB623
CDB633
CDB633
CDB6B3
CF1C63
400002
600006
30000C
180018
0C0030
07FFE0
01FF80
ENDCHAR
STARTCHAR ]
ENCODING 93
SWIDTH 75 0
DWIDTH -1 0
BBX 3 20 0 2
BITMAP
E0
E0
60
60
60
60
60
60
60
60
60
60
60
60
60
60
60
60
E0
E0
ENDCHAR
STARTCHAR ^
ENCODING 94
SWIDTH 75 0
DWIDTH -1 0
BBX 5 5 0 11
BITMAP
70
F8
F8
F8
70
ENDCHAR
STARTCHAR _
ENCODING 95
SWIDTH 75 0
DWIDTH -1 0
BBX 7 4 0 20
BITMAP
10
38
7C
C6
ENDCHAR
STARTCHAR `
ENCODING 96
SWIDTH 75 0
DWIDTH -1 0
BBX 5 4 0 20
BITMAP
E0
70
30
18
ENDCHAR
STARTCHAR a
ENCODING 97
SWIDTH 75 0
DWIDTH -1 0
BBX 10 14 0 5
BITMAP
3E00
7F00
4780
0380
0380
0380
3F80
7F80
E380
E380
E380
E380
7FC0
39C0
ENDCHAR
STARTCHAR b
ENCODING 98
SWIDTH 75 0
DWIDTH -1 0
BBX 9 19 0 5
BITMAP
E000
E000
E000
E000
E000
EE00
FF00
E700
E380
E380
E380
E380
E380
E380
E380
E380
E300
FF00
CE00
ENDCHAR
STARTCHAR c
ENCODING 99
SWIDTH 75 0
DWIDTH -1 0
BBX 8 14 0 5
BITMAP
1E
7F
62
E0
E0
E0
E0
E0
E0
E0
E0
72
7F
3E
ENDCHAR
STARTCHAR d
ENCODING 100
SWIDTH 75 0
DWIDTH -1 0
BBX 9 19 0 5
BITMAP
0380
0380
0380
0380
0380
3B80
7F80
6380
E380
E380
E380
E380
E380
E380
E380
E380
7380
7F80
3B80
ENDCHAR
STARTCHAR e
ENCODING 101
SWIDTH 75 0
DWIDTH -1 0
BBX 9 14 0 5
BITMAP
3E00
7F00
6380
E380
E380
E380
FF80
FF80
E000
E000
E000
7100
7F80
3F00
ENDCHAR
STARTCHAR f
ENCODING 102
SWIDTH 75 0
DWIDTH -1 0
BBX 6 19 0 5
BITMAP
3C
7C
60
E0
E0
FC
FC
E0
E0
E0
E0
E0
E0
E0
E0
E0
E0
E0
E0
ENDCHAR
STARTCHAR g
ENCODING 103
SWIDTH 75 0
DWIDTH -1 0
BBX 9 19 0 0
BITMAP
1D80
7F80
E700
E700
E700
E700
E700
E700
7E00
7800
C000
C000
FF00
FF80
7F80
0380
C380
FF00
3E00
ENDCHAR
STARTCHAR h
ENCODING 104
SWIDTH 75 0
DWIDTH -1 0
BBX 9 19 0 5
BITMAP
E000
E000
E000
E000
E000
EE00
FF00
E780
E380
E380
E380
E380
E380
E380
E380
E380
E380
E380
E380
ENDCHAR
STARTCHAR i
ENCODING 105
SWIDTH 75 0
DWIDTH -1 0
BBX 4 19 0 5
BITMAP
70
70
70
00
00
F0
F0
70
70
70
70
70
70
70
70
70
70
70
70
ENDCHAR
STARTCHAR j
ENCODING 106
SWIDTH 75 0
DWIDTH -1 0
BBX 4 23 0 1
BITMAP
70
70
70
00
00
F0
F0
70
70
70
70
70
70
70
70
70
70
70
70
70
60
E0
C0
ENDCHAR
STARTCHAR k
ENCODING 107
SWIDTH 75 0
DWIDTH -1 0
BBX 9 19 0 5
BITMAP
E000
E000
E000
E000
E000
E700
E700
E700
E600
E600
FC00
FC00
EC00
EE00
EE00
E700
E700
E380
E380
ENDCHAR
STARTCHAR l
ENCODING 108
SWIDTH 75 0
DWIDTH -1 0
BBX 4 19 0 5
BITMAP
E0
E0
E0
E0
E0
E0
E0
E0
E0
E0
E0
E0
E0
E0
E0
E0
E0
F0
70
ENDCHAR
STARTCHAR m
ENCODING 109
SWIDTH 75 0
DWIDTH -1 0
BBX 15 14 0 5
BITMAP
EE38
FF7C
E79E
E38E
E38E
E38E
E38E
E38E
E38E
E38E
E38E
E38E
E38E
E38E
ENDCHAR
STARTCHAR n
ENCODING 110
SWIDTH 75 0
DWIDTH -1 0
BBX 9 14 0 5
BITMAP
EE00
FF00
E780
E380
E380
E380
E380
E380
E380
E380
E380
E380
E380
E380
ENDCHAR
STARTCHAR o
ENCODING 111
SWIDTH 75 0
DWIDTH -1 0
BBX 9 14 0 5
BITMAP
3E00
7F00
6300
E380
E380
E380
E380
E380
E380
E380
E380
6300
7F00
3E00
ENDCHAR
STARTCHAR p
ENCODING 112
SWIDTH 75 0
DWIDTH -1 0
BBX 9 18 0 1
BITMAP
EE00
FF00
E700
E380
E380
E380
E380
E380
E380
E380
E380
E300
FF00
EE00
E000
E000
E000
E000
ENDCHAR
STARTCHAR q
ENCODING 113
SWIDTH 75 0
DWIDTH -1 0
BBX 9 18 0 1
BITMAP
3B80
7F80
6380
E380
E380
E380
E380
E380
E380
E380
E380
7380
7F80
3B80
0380
0380
0380
0380
ENDCHAR
STARTCHAR r
ENCODING 114
SWIDTH 75 0
DWIDTH -1 0
BBX 7 14 0 5
BITMAP
C4
EE
7E
76
70
70
70
70
70
70
70
70
70
70
ENDCHAR
STARTCHAR s
ENCODING 115
SWIDTH 75 0
DWIDTH -1 0
BBX 8 14 0 5
BITMAP
1E
7F
E2
E0
E0
F0
7C
3E
0F
07
07
47
FE
78
ENDCHAR
STARTCHAR t
ENCODING 116
SWIDTH 75 0
DWIDTH -1 0
BBX 6 18 0 5
BITMAP
20
60
E0
E0
FC
FC
E0
E0
E0
E0
E0
E0
E0
E0
E0
E0
7C
3C
ENDCHAR
STARTCHAR u
ENCODING 117
SWIDTH 75 0
DWIDTH -1 0
BBX 9 14 0 5
BITMAP
E380
E380
E380
E380
E380
E380
E380
E380
E380
E380
E380
F380
7F80
3B80
ENDCHAR
STARTCHAR v
ENCODING 118
SWIDTH 75 0
DWIDTH -1 0
BBX 9 14 0 5
BITMAP
E380
E380
E380
E380
E380
E380
E380
6300
6300
6300
3600
3E00
1C00
1C00
ENDCHAR
STARTCHAR w
ENCODING 119
SWIDTH 75 0
DWIDTH -1 0
BBX 12 14 0 5
BITMAP
E070
E070
E670
E670
E670
E670
E670
E670
6660
6660
3FC0
3FC0
1980
1980
ENDCHAR
STARTCHAR x
ENCODING 120
SWIDTH 75 0
DWIDTH -1 0
BBX 9 14 0 5
BITMAP
E380
E380
E380
6300
7300
3E00
1C00
1C00
3E00
6700
6300
E380
E380
E380
ENDCHAR
STARTCHAR y
ENCODING 121
SWIDTH 75 0
DWIDTH -1 0
BBX 9 18 0 1
BITMAP
E380
E380
E380
E380
E380
E380
6300
6300
6300
6300
3600
3600
1C00
0C00
0C00
4C00
F800
7000
ENDCHAR
STARTCHAR z
ENCODING 122
SWIDTH 75 0
DWIDTH -1 0
BBX 8 14 0 5
BITMAP
FF
FF
03
07
0E
0E
1C
38
70
70
E0
C0
FF
FF
ENDCHAR
STARTCHAR {
ENCODING 123
SWIDTH 75 0
DWIDTH -1 0
BBX 4 20 0 2
BITMAP
30
30
60
60
60
60
60
60
60
C0
C0
60
60
60
60
60
60
60
30
30
ENDCHAR
STARTCHAR |
ENCODING 124
SWIDTH 75 0
DWIDTH -1 0
BBX 2 24 0 0
BITMAP
C0
C0
C0
C0
C0
C0
C0
C0
C0
C0
C0
C0
C0
C0
C0
C0
C0
C0
C0
C0
C0
C0
C0
C0
ENDCHAR
STARTCHAR }
ENCODING 125
SWIDTH 75 0
DWIDTH -1 0
BBX 4 20 0 2
BITMAP
C0
C0
60
60
60
60
60
60
60
30
30
60
60
60
60
60
60
60
C0
C0
ENDCHAR
STARTCHAR ~
ENCODING 126
SWIDTH 75 0
DWIDTH -1 0
BBX 15 14 0 5
BITMAP
3EF8
7FFC
638E
E38E
E38E
E38E
E3FE
E3FE
E380
E380
E380
63C4
7FFE
3EFC
ENDCHAR
STARTCHAR 
ENCODING 127
SWIDTH 75 0
DWIDTH -1 0
BBX 0 0 24 23
ENDCHAR
STARTCHAR f
ENCODING 102
SWIDTH 75 0
DWIDTH -1 0
BBX 9 19 0 5
BITMAP
3600
3600
E380
E380
E380
E380
E380
6300
6300
6300
3600
3600
1C00
1C00
1C00
1C00
1C00
1C00
1C00
ENDCHAR
STARTCHAR ¡
ENCODING -95
SWIDTH 75 0
DWIDTH -1 0
BBX 0 0 24 23
ENDCHAR
STARTCHAR £
ENCODING -93
SWIDTH 75 0
DWIDTH -1 0
BBX 14 17 0 5
BITMAP
1FF8
1FF8
3F80
3380
3380
6380
6380
6380
63F8
FFF8
FF80
E380
E380
E380
E380
E3FC
E3FC
ENDCHAR
STARTCHAR ª
ENCODING -86
SWIDTH 75 0
DWIDTH -1 0
BBX 2 24 0 0
BITMAP
C0
C0
C0
C0
C0
C0
C0
C0
C0
C0
00
00
C0
C0
C0
C0
C0
C0
C0
C0
C0
C0
C0
C0
ENDCHAR
STARTCHAR «
ENCODING -85
SWIDTH 75 0
DWIDTH -1 0
BBX 0 0 24 23
ENDCHAR
STARTCHAR ¬
ENCODING -84
SWIDTH 75 0
DWIDTH -1 0
BBX 0 0 24 23
ENDCHAR
STARTCHAR ®
ENCODING -82
SWIDTH 75 0
DWIDTH -1 0
BBX 0 0 24 23
ENDCHAR
STARTCHAR º
ENCODING -70
SWIDTH 75 0
DWIDTH -1 0
BBX 0 0 24 23
ENDCHAR
STARTCHAR »
ENCODING -69
SWIDTH 75 0
DWIDTH -1 0
BBX 0 0 24 23
ENDCHAR
STARTCHAR  
ENCODING 32
SWIDTH 75 0
DWIDTH -1 0
BBX 0 0 24 23
ENDCHAR
STARTCHAR  
ENCODING 32
SWIDTH 75 0
DWIDTH -1 0
BBX 7 9 0 7
BITMAP
66
66
66
CC
CC
CC
66
66
66
ENDCHAR
STARTCHAR ¿
ENCODING -65
SWIDTH 75 0
DWIDTH -1 0
BBX 5 3 0 21
BITMAP
D8
D8
D8
ENDCHAR
STARTCHAR Ä
ENCODING -60
SWIDTH 75 0
DWIDTH -1 0
BBX 9 19 0 5
BITMAP
3600
3600
1C00
1C00
3E00
3600
6300
6300
6300
6300
E380
E380
FF80
FF80
E380
E380
E380
E380
E380
ENDCHAR
STARTCHAR Å
ENCODING -59
SWIDTH 75 0
DWIDTH -1 0
BBX 9 19 0 5
BITMAP
1C00
2200
3E00
1C00
3E00
3600
3600
6300
6300
6300
6300
E380
FF80
FF80
E380
E380
E380
E380
E380
ENDCHAR
STARTCHAR Æ
ENCODING -58
SWIDTH 75 0
DWIDTH -1 0
BBX 15 14 0 5
BITMAP
3EF8
7FFC
638E
E38E
E38E
E38E
E3FE
E3FE
E380
E380
E380
63C4
7FFE
3EFC
ENDCHAR
STARTCHAR Ç
ENCODING -57
SWIDTH 75 0
DWIDTH -1 0
BBX 8 22 0 0
BITMAP
3E
7F
62
E0
E0
E0
E0
E0
E0
E0
E0
E0
E0
E0
72
7F
3E
18
0C
0C
18
10
ENDCHAR
STARTCHAR É
ENCODING -55
SWIDTH 75 0
DWIDTH -1 0
BBX 8 19 0 5
BITMAP
18
38
FE
FE
E0
E0
E0
E0
E0
FE
FE
E0
E0
E0
E0
E0
E0
FF
3F
ENDCHAR
STARTCHAR Ñ
ENCODING -47
SWIDTH 75 0
DWIDTH -1 0
BBX 12 17 0 5
BITMAP
0660
0660
0660
0CC0
0CC0
7FF0
7FF0
1980
1980
1980
FFE0
FFE0
3300
3300
6600
6600
6600
ENDCHAR
STARTCHAR Ö
ENCODING -42
SWIDTH 75 0
DWIDTH -1 0
BBX 10 19 0 5
BITMAP
3300
3300
1E00
7F80
7380
E1C0
E1C0
E1C0
E1C0
E1C0
E1C0
E1C0
E1C0
E1C0
E1C0
E1C0
7380
7F80
1E00
ENDCHAR
STARTCHAR ×
ENCODING -41
SWIDTH 75 0
DWIDTH -1 0
BBX 0 0 24 23
ENDCHAR
STARTCHAR Ø
ENCODING -40
SWIDTH 75 0
DWIDTH -1 0
BBX 0 0 24 23
ENDCHAR
STARTCHAR Ü
ENCODING -36
SWIDTH 75 0
DWIDTH -1 0
BBX 9 19 0 5
BITMAP
3600
3600
E380
E380
E380
E380
E380
E380
E380
E380
E380
E380
E380
E380
E380
E380
F380
7F80
3B80
ENDCHAR
STARTCHAR à
ENCODING -32
SWIDTH 75 0
DWIDTH -1 0
BBX 10 19 0 5
BITMAP
7000
3800
1800
0C00
0000
3E00
7F00
4780
0380
0380
0380
3F80
7F80
E380
E380
E380
E380
7FC0
39C0
ENDCHAR
STARTCHAR á
ENCODING -31
SWIDTH 75 0
DWIDTH -1 0
BBX 0 0 24 23
ENDCHAR
STARTCHAR â
ENCODING -30
SWIDTH 75 0
DWIDTH -1 0
BBX 10 19 0 5
BITMAP
0800
1C00
3E00
6300
0000
3E00
7F00
4780
0380
0380
0380
3F80
7F80
E380
E380
E380
E380
7FC0
39C0
ENDCHAR
STARTCHAR ä
ENCODING -28
SWIDTH 75 0
DWIDTH -1 0
BBX 10 19 0 5
BITMAP
3600
3600
3600
0000
0000
3E00
7F00
4780
0380
0380
0380
3F80
7F80
E380
E380
E380
E380
7FC0
39C0
ENDCHAR
STARTCHAR å
ENCODING -27
SWIDTH 75 0
DWIDTH -1 0
BBX 10 19 0 5
BITMAP
0C00
1A00
1600
0C00
0000
3E00
7F00
4780
0380
0380
0380
3F80
7F80
E380
E380
E380
E380
7FC0
39C0
ENDCHAR
STARTCHAR æ
ENCODING -26
SWIDTH 75 0
DWIDTH -1 0
BBX 16 14 0 5
BITMAP
3E7C
7FFE
47C7
03C7
03C7
03C7
3FFF
7FFF
E3C0
E3C0
E3C0
E3E2
7E7F
383E
ENDCHAR
STARTCHAR ç
ENCODING -25
SWIDTH 75 0
DWIDTH -1 0
BBX 8 19 0 0
BITMAP
1E
7F
62
E0
E0
E0
E0
E0
E0
E0
E0
72
7F
3E
18
0C
0C
18
10
ENDCHAR
STARTCHAR è
ENCODING -24
SWIDTH 75 0
DWIDTH -1 0
BBX 9 19 0 5
BITMAP
7000
3800
1800
0C00
0000
3E00
7F00
6380
E380
E380
E380
FF80
FF80
E000
E000
E000
7100
7F80
3F00
ENDCHAR
STARTCHAR é
ENCODING -23
SWIDTH 75 0
DWIDTH -1 0
BBX 9 19 0 5
BITMAP
0380
0700
0600
0C00
0000
3E00
7F00
6380
E380
E380
E380
FF80
FF80
E000
E000
E000
7100
7F80
3F00
ENDCHAR
STARTCHAR ê
ENCODING -22
SWIDTH 75 0
DWIDTH -1 0
BBX 9 19 0 5
BITMAP
0800
1C00
3E00
6300
0000
3E00
7F00
6380
E380
E380
E380
FF80
FF80
E000
E000
E000
7100
7F80
3F00
ENDCHAR
STARTCHAR ë
ENCODING -21
SWIDTH 75 0
DWIDTH -1 0
BBX 9 19 0 5
BITMAP
3600
3600
3600
0000
0000
3E00
7F00
6380
E380
E380
E380
FF80
FF80
E000
E000
E000
7100
7F80
3F00
ENDCHAR
STARTCHAR ì
ENCODING -20
SWIDTH 75 0
DWIDTH -1 0
BBX 4 19 0 5
BITMAP
E0
E0
60
30
00
F0
F0
70
70
70
70
70
70
70
70
70
70
70
70
ENDCHAR
STARTCHAR í
ENCODING -19
SWIDTH 75 0
DWIDTH -1 0
BBX 4 17 0 2
BITMAP
60
F0
F0
60
00
00
40
60
60
60
70
70
70
70
70
70
70
ENDCHAR
STARTCHAR î
ENCODING -18
SWIDTH 75 0
DWIDTH -1 0
BBX 5 19 0 5
BITMAP
20
70
D8
88
00
F0
F0
70
70
70
70
70
70
70
70
70
70
70
70
ENDCHAR
STARTCHAR ï
ENCODING -17
SWIDTH 75 0
DWIDTH -1 0
BBX 5 19 0 5
BITMAP
D8
D8
D8
00
00
F0
F0
70
70
70
70
70
70
70
70
70
70
70
70
ENDCHAR
STARTCHAR ñ
ENCODING -15
SWIDTH 75 0
DWIDTH -1 0
BBX 0 0 24 23
ENDCHAR
STARTCHAR ò
ENCODING -14
SWIDTH 75 0
DWIDTH -1 0
BBX 9 19 0 5
BITMAP
E000
7000
3000
1800
0000
3E00
7F00
6300
E380
E380
E380
E380
E380
E380
E380
E380
6300
7F00
3E00
ENDCHAR
STARTCHAR ó
ENCODING -13
SWIDTH 75 0
DWIDTH -1 0
BBX 18 17 0 5
BITMAP
381800
7C1800
6C3000
C63000
C66000
C66000
C66700
C6CF80
6CCD80
7CD8C0
3998C0
0198C0
0198C0
0318C0
030D80
060F80
060700
ENDCHAR
STARTCHAR ô
ENCODING -12
SWIDTH 75 0
DWIDTH -1 0
BBX 9 19 0 5
BITMAP
0800
1C00
3E00
6300
0000
3E00
7F00
6300
E380
E380
E380
E380
E380
E380
E380
E380
6300
7F00
3E00
ENDCHAR
STARTCHAR ö
ENCODING -10
SWIDTH 75 0
DWIDTH -1 0
BBX 9 19 0 5
BITMAP
3600
3600
3600
0000
0000
3E00
7F00
6300
E380
E380
E380
E380
E380
E380
E380
E380
6300
7F00
3E00
ENDCHAR
STARTCHAR ø
ENCODING -8
SWIDTH 75 0
DWIDTH -1 0
BBX 0 0 24 23
ENDCHAR
STARTCHAR ù
ENCODING -7
SWIDTH 75 0
DWIDTH -1 0
BBX 9 19 0 5
BITMAP
E000
7000
3000
1800
0000
E380
E380
E380
E380
E380
E380
E380
E380
E380
E380
E380
F380
7F80
3B80
ENDCHAR
STARTCHAR ú
ENCODING -6
SWIDTH 75 0
DWIDTH -1 0
BBX 6 15 0 6
BITMAP
C0
C0
C0
E0
60
60
70
30
38
18
18
1C
0C
0C
0C
ENDCHAR
STARTCHAR û
ENCODING -5
SWIDTH 75 0
DWIDTH -1 0
BBX 9 19 0 5
BITMAP
0800
1C00
3E00
6300
0000
E380
E380
E380
E380
E380
E380
E380
E380
E380
E380
E380
F380
7F80
3B80
ENDCHAR
STARTCHAR ü
ENCODING -4
SWIDTH 75 0
DWIDTH -1 0
BBX 9 19 0 5
BITMAP
3600
3600
3600
0000
0000
E380
E380
E380
E380
E380
E380
E380
E380
E380
E380
E380
F380
7F80
3B80
ENDCHAR
STARTCHAR ÿ
ENCODING -1
SWIDTH 75 0
DWIDTH -1 0
BBX 9 23 0 1
BITMAP
3600
3600
3600
0000
0000
E380
E380
E380
E380
E380
E380
6300
6300
6300
6300
3600
3600
1C00
0C00
0C00
4C00
F800
7000
ENDCHAR
ENDFONT
