STARTFONT 2.1
COMMENT Lumiplan font build using LumiStudio
FONT Duhamel 20/20 2-Condensed
SIZE 20 75 75
FONTBOUNDINGBOX 10 20 0 0
STARTPROPERTIES 1
Copyright "Copyright (c) 2021 Lumiplan"
ENDPROPERTIES
CHARS 189
STARTCHAR 
ENCODING 14
SWIDTH 75 0
DWIDTH -1 0
BBX 0 0 1 19
ENDCHAR
STARTCHAR  
ENCODING 32
SWIDTH 75 0
DWIDTH -1 0
BBX 0 0 2 19
ENDCHAR
STARTCHAR !
ENCODING 33
SWIDTH 75 0
DWIDTH -1 0
BBX 3 20 0 0
BITMAP
E0
E0
E0
E0
E0
E0
E0
E0
E0
E0
E0
E0
E0
E0
E0
E0
00
E0
E0
E0
ENDCHAR
STARTCHAR "
ENCODING 34
SWIDTH 75 0
DWIDTH -1 0
BBX 6 4 0 16
BITMAP
6C
6C
48
90
ENDCHAR
STARTCHAR #
ENCODING 35
SWIDTH 75 0
DWIDTH -1 0
BBX 8 14 1 3
BITMAP
66
66
FF
FF
FF
66
66
66
66
FF
FF
FF
66
66
ENDCHAR
STARTCHAR $
ENCODING 36
SWIDTH 75 0
DWIDTH -1 0
BBX 10 18 0 1
BITMAP
0C00
0C00
7F80
FFC0
FFC0
EDC0
EC00
FF00
7F80
3FC0
0DC0
0DC0
EDC0
FFC0
FFC0
7F80
0C00
0C00
ENDCHAR
STARTCHAR %
ENCODING 37
SWIDTH 75 0
DWIDTH -1 0
BBX 10 14 0 3
BITMAP
E180
E180
E300
0300
0600
0600
0C00
0C00
1800
1800
3000
31C0
61C0
61C0
ENDCHAR
STARTCHAR &
ENCODING 38
SWIDTH 75 0
DWIDTH -1 0
BBX 10 20 0 0
BITMAP
1E00
3F00
7380
6180
6180
6180
6180
7380
3F00
1E40
7FC0
FFC0
F3C0
E180
E180
E1C0
F3C0
7FC0
3F80
1E00
ENDCHAR
STARTCHAR '
ENCODING 39
SWIDTH 75 0
DWIDTH -1 0
BBX 3 4 0 16
BITMAP
60
60
40
80
ENDCHAR
STARTCHAR (
ENCODING 40
SWIDTH 75 0
DWIDTH -1 0
BBX 4 20 0 0
BITMAP
30
70
E0
E0
E0
E0
E0
E0
E0
E0
E0
E0
E0
E0
E0
E0
E0
E0
70
30
ENDCHAR
STARTCHAR )
ENCODING 41
SWIDTH 75 0
DWIDTH -1 0
BBX 4 20 0 0
BITMAP
C0
E0
70
70
70
70
70
70
70
70
70
70
70
70
70
70
70
70
E0
C0
ENDCHAR
STARTCHAR *
ENCODING 42
SWIDTH 75 0
DWIDTH -1 0
BBX 10 9 0 11
BITMAP
CCC0
EDC0
7F80
3F00
FFC0
3F00
7F80
EDC0
CCC0
ENDCHAR
STARTCHAR +
ENCODING 43
SWIDTH 75 0
DWIDTH -1 0
BBX 9 9 0 6
BITMAP
1C00
1C00
1C00
FF80
FF80
FF80
1C00
1C00
1C00
ENDCHAR
STARTCHAR ,
ENCODING 44
SWIDTH 75 0
DWIDTH -1 0
BBX 4 4 0 0
BITMAP
70
70
60
80
ENDCHAR
STARTCHAR -
ENCODING 45
SWIDTH 75 0
DWIDTH -1 0
BBX 6 3 0 9
BITMAP
FC
FC
FC
ENDCHAR
STARTCHAR .
ENCODING 46
SWIDTH 75 0
DWIDTH -1 0
BBX 3 3 0 0
BITMAP
E0
E0
E0
ENDCHAR
STARTCHAR /
ENCODING 47
SWIDTH 75 0
DWIDTH -1 0
BBX 10 19 0 0
BITMAP
00C0
00C0
01C0
0180
0380
0300
0700
0600
0E00
0C00
1C00
1800
3800
3000
7000
6000
E000
C000
C000
ENDCHAR
STARTCHAR 0
ENCODING 48
SWIDTH 75 0
DWIDTH -1 0
BBX 9 20 0 0
BITMAP
3E00
7F00
FF80
E380
E380
E380
E380
E380
E380
E380
E380
E380
E380
E380
E380
E380
E380
FF80
7F00
3E00
ENDCHAR
STARTCHAR 1
ENCODING 49
SWIDTH 75 0
DWIDTH -1 0
BBX 6 20 0 0
BITMAP
0C
1C
3C
7C
FC
FC
1C
1C
1C
1C
1C
1C
1C
1C
1C
1C
1C
1C
1C
1C
ENDCHAR
STARTCHAR 2
ENCODING 50
SWIDTH 75 0
DWIDTH -1 0
BBX 10 20 0 0
BITMAP
3F00
7F80
FFC0
F3C0
E1C0
01C0
01C0
01C0
01C0
03C0
0780
0F00
1E00
3C00
7800
F000
E000
FFC0
FFC0
FFC0
ENDCHAR
STARTCHAR 3
ENCODING 51
SWIDTH 75 0
DWIDTH -1 0
BBX 10 20 0 0
BITMAP
3F00
7F80
FFC0
F3C0
E1C0
01C0
01C0
01C0
0380
0700
0700
0380
01C0
01C0
01C0
E1C0
F3C0
FFC0
7F80
3F00
ENDCHAR
STARTCHAR 4
ENCODING 52
SWIDTH 75 0
DWIDTH -1 0
BBX 10 20 0 0
BITMAP
03C0
07C0
0FC0
1DC0
39C0
71C0
E1C0
E1C0
E1C0
E1C0
FFC0
FFC0
FFC0
01C0
01C0
01C0
01C0
01C0
01C0
01C0
ENDCHAR
STARTCHAR 5
ENCODING 53
SWIDTH 75 0
DWIDTH -1 0
BBX 10 20 0 0
BITMAP
FFC0
FFC0
FFC0
E000
E000
E000
E000
E000
FF00
FF80
FFC0
03C0
01C0
01C0
01C0
E1C0
F3C0
FFC0
7F80
3F00
ENDCHAR
STARTCHAR 6
ENCODING 54
SWIDTH 75 0
DWIDTH -1 0
BBX 10 20 0 0
BITMAP
1F80
3F80
7F80
F000
E000
E000
E000
E000
FF00
FF80
FFC0
F3C0
E1C0
E1C0
E1C0
E1C0
F3C0
FFC0
7F80
3F00
ENDCHAR
STARTCHAR 7
ENCODING 55
SWIDTH 75 0
DWIDTH -1 0
BBX 10 20 0 0
BITMAP
FFC0
FFC0
FFC0
01C0
01C0
01C0
0380
0380
0700
0700
0E00
0E00
1C00
1C00
1C00
1C00
1C00
1C00
1C00
1C00
ENDCHAR
STARTCHAR 8
ENCODING 56
SWIDTH 75 0
DWIDTH -1 0
BBX 10 20 0 0
BITMAP
3F00
7F80
FFC0
F3C0
E1C0
E1C0
E1C0
F3C0
7F80
3F00
7F80
F3C0
E1C0
E1C0
E1C0
E1C0
F3C0
FFC0
7F80
3F00
ENDCHAR
STARTCHAR 9
ENCODING 57
SWIDTH 75 0
DWIDTH -1 0
BBX 10 20 0 0
BITMAP
3F00
7F80
FFC0
F3C0
E1C0
E1C0
E1C0
E1C0
F3C0
FFC0
7FC0
3FC0
01C0
01C0
01C0
01C0
03C0
7F80
7F00
7E00
ENDCHAR
STARTCHAR :
ENCODING 58
SWIDTH 75 0
DWIDTH -1 0
BBX 3 9 0 0
BITMAP
E0
E0
E0
00
00
00
E0
E0
E0
ENDCHAR
STARTCHAR ;
ENCODING 59
SWIDTH 75 0
DWIDTH -1 0
BBX 4 9 0 0
BITMAP
70
70
70
00
00
70
70
60
80
ENDCHAR
STARTCHAR <
ENCODING 60
SWIDTH 75 0
DWIDTH -1 0
BBX 10 20 0 0
BITMAP
0040
00C0
01C0
0380
0700
0E00
1C00
3800
7000
E000
E000
7000
3800
1C00
0E00
0700
0380
01C0
00C0
0040
ENDCHAR
STARTCHAR =
ENCODING 61
SWIDTH 75 0
DWIDTH -1 0
BBX 6 8 0 2
BITMAP
FC
FC
FC
00
00
FC
FC
FC
ENDCHAR
STARTCHAR >
ENCODING 62
SWIDTH 75 0
DWIDTH -1 0
BBX 10 20 0 0
BITMAP
8000
C000
E000
7000
3800
1C00
0E00
0700
0380
01C0
01C0
0380
0700
0E00
1C00
3800
7000
E000
C000
8000
ENDCHAR
STARTCHAR ?
ENCODING 63
SWIDTH 75 0
DWIDTH -1 0
BBX 10 20 0 0
BITMAP
3F00
7F80
FFC0
E1C0
E1C0
E1C0
01C0
03C0
0780
0F00
0E00
0E00
0E00
0E00
0E00
0000
0000
0E00
0E00
0E00
ENDCHAR
STARTCHAR @
ENCODING 64
SWIDTH 75 0
DWIDTH -1 0
BBX 0 0 10 19
ENDCHAR
STARTCHAR A
ENCODING 65
SWIDTH 75 0
DWIDTH -1 0
BBX 10 20 0 0
BITMAP
3F00
7F80
FFC0
F3C0
E1C0
E1C0
E1C0
E1C0
FFC0
FFC0
FFC0
E1C0
E1C0
E1C0
E1C0
E1C0
E1C0
E1C0
E1C0
E1C0
ENDCHAR
STARTCHAR B
ENCODING 66
SWIDTH 75 0
DWIDTH -1 0
BBX 10 20 0 0
BITMAP
FF00
FF80
FFC0
E3C0
E1C0
E1C0
E1C0
E380
FF00
FF00
FF80
E3C0
E1C0
E1C0
E1C0
E1C0
E3C0
FFC0
FF80
FF00
ENDCHAR
STARTCHAR C
ENCODING 67
SWIDTH 75 0
DWIDTH -1 0
BBX 10 20 0 0
BITMAP
3F00
7F80
FFC0
F3C0
E1C0
E000
E000
E000
E000
E000
E000
E000
E000
E000
E000
E1C0
F3C0
FFC0
7F80
3F00
ENDCHAR
STARTCHAR D
ENCODING 68
SWIDTH 75 0
DWIDTH -1 0
BBX 10 20 0 0
BITMAP
FF00
FF80
FFC0
E3C0
E1C0
E1C0
E1C0
E1C0
E1C0
E1C0
E1C0
E1C0
E1C0
E1C0
E1C0
E1C0
E3C0
FFC0
FF80
FF00
ENDCHAR
STARTCHAR E
ENCODING 69
SWIDTH 75 0
DWIDTH -1 0
BBX 10 20 0 0
BITMAP
FFC0
FFC0
FFC0
E000
E000
E000
E000
E000
FF00
FF00
FF00
E000
E000
E000
E000
E000
E000
FF80
FF80
FF80
ENDCHAR
STARTCHAR F
ENCODING 70
SWIDTH 75 0
DWIDTH -1 0
BBX 10 20 0 0
BITMAP
FFC0
FFC0
FFC0
E000
E000
E000
E000
E000
FF00
FF00
FF00
E000
E000
E000
E000
E000
E000
E000
E000
E000
ENDCHAR
STARTCHAR G
ENCODING 71
SWIDTH 75 0
DWIDTH -1 0
BBX 10 20 0 0
BITMAP
3F00
7F80
FFC0
F3C0
E1C0
E000
E000
E000
E780
E7C0
E7C0
E1C0
E1C0
E1C0
E1C0
E1C0
F3C0
FFC0
7F80
3F00
ENDCHAR
STARTCHAR H
ENCODING 72
SWIDTH 75 0
DWIDTH -1 0
BBX 10 20 0 0
BITMAP
E1C0
E1C0
E1C0
E1C0
E1C0
E1C0
E1C0
E1C0
FFC0
FFC0
FFC0
E1C0
E1C0
E1C0
E1C0
E1C0
E1C0
E1C0
E1C0
E1C0
ENDCHAR
STARTCHAR I
ENCODING 73
SWIDTH 75 0
DWIDTH -1 0
BBX 3 20 0 0
BITMAP
E0
E0
E0
E0
E0
E0
E0
E0
E0
E0
E0
E0
E0
E0
E0
E0
E0
E0
E0
E0
ENDCHAR
STARTCHAR J
ENCODING 74
SWIDTH 75 0
DWIDTH -1 0
BBX 10 20 0 0
BITMAP
01C0
01C0
01C0
01C0
01C0
01C0
01C0
01C0
01C0
01C0
01C0
01C0
01C0
01C0
01C0
E1C0
F3C0
FFC0
7F80
3F00
ENDCHAR
STARTCHAR K
ENCODING 75
SWIDTH 75 0
DWIDTH -1 0
BBX 10 20 0 0
BITMAP
E1C0
E1C0
E3C0
E380
E780
E700
EF00
EE00
FE00
FC00
FC00
FE00
EE00
EF00
E700
E780
E380
E3C0
E1C0
E1C0
ENDCHAR
STARTCHAR L
ENCODING 76
SWIDTH 75 0
DWIDTH -1 0
BBX 8 20 0 0
BITMAP
E0
E0
E0
E0
E0
E0
E0
E0
E0
E0
E0
E0
E0
E0
E0
E0
E0
FF
FF
FF
ENDCHAR
STARTCHAR M
ENCODING 77
SWIDTH 75 0
DWIDTH -1 0
BBX 10 20 0 0
BITMAP
C0C0
E1C0
F3C0
FFC0
FFC0
EDC0
E1C0
E1C0
E1C0
E1C0
E1C0
E1C0
E1C0
E1C0
E1C0
E1C0
E1C0
E1C0
E1C0
E1C0
ENDCHAR
STARTCHAR N
ENCODING 78
SWIDTH 75 0
DWIDTH -1 0
BBX 10 20 0 0
BITMAP
81C0
C1C0
E1C0
F1C0
F9C0
FDC0
FFC0
EFC0
E7C0
E3C0
E1C0
E1C0
E1C0
E1C0
E1C0
E1C0
E1C0
E1C0
E1C0
E1C0
ENDCHAR
STARTCHAR O
ENCODING 79
SWIDTH 75 0
DWIDTH -1 0
BBX 10 20 0 0
BITMAP
3F00
7F80
FFC0
F3C0
E1C0
E1C0
E1C0
E1C0
E1C0
E1C0
E1C0
E1C0
E1C0
E1C0
E1C0
E1C0
F3C0
FFC0
7F80
3F00
ENDCHAR
STARTCHAR P
ENCODING 80
SWIDTH 75 0
DWIDTH -1 0
BBX 10 20 0 0
BITMAP
FF00
FF80
FFC0
E3C0
E1C0
E1C0
E1C0
E1C0
E3C0
FFC0
FF80
FF00
E000
E000
E000
E000
E000
E000
E000
E000
ENDCHAR
STARTCHAR Q
ENCODING 81
SWIDTH 75 0
DWIDTH -1 0
BBX 10 20 0 0
BITMAP
3F00
7F80
FFC0
F3C0
E1C0
E1C0
E1C0
E1C0
E1C0
E1C0
E1C0
E1C0
E1C0
E1C0
E1C0
E7C0
F780
FFC0
7FC0
3DC0
ENDCHAR
STARTCHAR R
ENCODING 82
SWIDTH 75 0
DWIDTH -1 0
BBX 10 20 0 0
BITMAP
FF00
FF80
FFC0
E3C0
E1C0
E1C0
E1C0
E1C0
E3C0
FF80
FF00
FF80
E3C0
E1C0
E1C0
E1C0
E1C0
E1C0
E1C0
E1C0
ENDCHAR
STARTCHAR S
ENCODING 83
SWIDTH 75 0
DWIDTH -1 0
BBX 10 20 0 0
BITMAP
3F00
7F80
FFC0
F3C0
E1C0
E000
F000
7800
3C00
1E00
0F00
0780
03C0
01C0
01C0
E1C0
F3C0
FFC0
7F80
3F00
ENDCHAR
STARTCHAR T
ENCODING 84
SWIDTH 75 0
DWIDTH -1 0
BBX 9 20 0 0
BITMAP
FF80
FF80
FF80
1C00
1C00
1C00
1C00
1C00
1C00
1C00
1C00
1C00
1C00
1C00
1C00
1C00
1C00
1C00
1C00
1C00
ENDCHAR
STARTCHAR U
ENCODING 85
SWIDTH 75 0
DWIDTH -1 0
BBX 10 20 0 0
BITMAP
E1C0
E1C0
E1C0
E1C0
E1C0
E1C0
E1C0
E1C0
E1C0
E1C0
E1C0
E1C0
E1C0
E1C0
E1C0
E1C0
F3C0
FFC0
7F80
3F00
ENDCHAR
STARTCHAR V
ENCODING 86
SWIDTH 75 0
DWIDTH -1 0
BBX 10 20 0 0
BITMAP
E1C0
E1C0
E1C0
E1C0
E1C0
E1C0
E1C0
E1C0
E1C0
E1C0
E1C0
E1C0
E1C0
E1C0
E1C0
E1C0
7380
3F00
1E00
0C00
ENDCHAR
STARTCHAR W
ENCODING 87
SWIDTH 75 0
DWIDTH -1 0
BBX 10 20 0 0
BITMAP
E1C0
E1C0
E1C0
E1C0
E1C0
E1C0
E1C0
E1C0
E1C0
E1C0
E1C0
E1C0
E1C0
E1C0
EDC0
FFC0
FFC0
F3C0
E1C0
C0C0
ENDCHAR
STARTCHAR X
ENCODING 88
SWIDTH 75 0
DWIDTH -1 0
BBX 10 20 0 0
BITMAP
E1C0
E1C0
E1C0
E1C0
E1C0
E1C0
F3C0
7F80
3F00
1E00
1E00
3F00
7F80
F3C0
E1C0
E1C0
E1C0
E1C0
E1C0
E1C0
ENDCHAR
STARTCHAR Y
ENCODING 89
SWIDTH 75 0
DWIDTH -1 0
BBX 9 20 0 0
BITMAP
E380
E380
E380
E380
E380
E380
E380
E380
E380
F780
7F00
3E00
1C00
1C00
1C00
1C00
1C00
1C00
1C00
1C00
ENDCHAR
STARTCHAR Z
ENCODING 90
SWIDTH 75 0
DWIDTH -1 0
BBX 10 20 0 0
BITMAP
FFC0
FFC0
FFC0
01C0
01C0
01C0
01C0
0380
0700
0E00
1C00
3800
7000
E000
E000
E000
E000
FFC0
FFC0
FFC0
ENDCHAR
STARTCHAR [
ENCODING 91
SWIDTH 75 0
DWIDTH -1 0
BBX 7 20 0 0
BITMAP
FE
FE
FE
E0
E0
E0
E0
E0
E0
E0
E0
E0
E0
E0
E0
E0
E0
FE
FE
FE
ENDCHAR
STARTCHAR \
ENCODING 92
SWIDTH 75 0
DWIDTH -1 0
BBX 10 20 0 0
BITMAP
E000
E000
E000
7000
7000
7000
3800
3800
3800
1C00
1C00
1C00
0E00
0E00
0E00
0700
0700
07C0
01C0
01C0
ENDCHAR
STARTCHAR ]
ENCODING 93
SWIDTH 75 0
DWIDTH -1 0
BBX 7 20 0 0
BITMAP
FE
FE
FE
0E
0E
0E
0E
0E
0E
0E
0E
0E
0E
0E
0E
0E
0E
FE
FE
FE
ENDCHAR
STARTCHAR ^
ENCODING 94
SWIDTH 75 0
DWIDTH -1 0
BBX 10 8 0 12
BITMAP
1E00
1E00
3300
3300
6180
6180
C0C0
C0C0
ENDCHAR
STARTCHAR _
ENCODING 95
SWIDTH 75 0
DWIDTH -1 0
BBX 7 3 0 0
BITMAP
FE
FE
FE
ENDCHAR
STARTCHAR `
ENCODING 96
SWIDTH 75 0
DWIDTH -1 0
BBX 3 4 0 16
BITMAP
C0
C0
40
20
ENDCHAR
STARTCHAR a
ENCODING 97
SWIDTH 75 0
DWIDTH -1 0
BBX 10 13 0 0
BITMAP
7F00
7F80
01C0
01C0
3DC0
7FC0
FFC0
E1C0
E1C0
E1C0
FFC0
7FC0
3DC0
ENDCHAR
STARTCHAR b
ENCODING 98
SWIDTH 75 0
DWIDTH -1 0
BBX 10 20 0 0
BITMAP
E000
E000
E000
E000
E000
E000
E000
EF00
FF80
FFC0
E3C0
E1C0
E1C0
E1C0
E1C0
E1C0
E3C0
FFC0
FF80
EF00
ENDCHAR
STARTCHAR c
ENCODING 99
SWIDTH 75 0
DWIDTH -1 0
BBX 10 13 0 0
BITMAP
3F00
7F80
FFC0
F1C0
E000
E000
E000
E000
E000
F1C0
FFC0
7F80
3F00
ENDCHAR
STARTCHAR d
ENCODING 100
SWIDTH 75 0
DWIDTH -1 0
BBX 10 20 0 0
BITMAP
01C0
01C0
01C0
01C0
01C0
01C0
01C0
3DC0
7FC0
FFC0
F1C0
E1C0
E1C0
E1C0
E1C0
E1C0
F1C0
FFC0
7FC0
3DC0
ENDCHAR
STARTCHAR e
ENCODING 101
SWIDTH 75 0
DWIDTH -1 0
BBX 10 13 0 0
BITMAP
3F00
7F80
FFC0
E1C0
E1C0
FFC0
FFC0
FF80
E000
E000
FFC0
7F80
3F00
ENDCHAR
STARTCHAR f
ENCODING 102
SWIDTH 75 0
DWIDTH -1 0
BBX 10 20 0 0
BITMAP
3F00
7F80
FFC0
F3C0
E1C0
E000
E000
E000
FC00
FC00
FC00
E000
E000
E000
E000
E000
E000
E000
E000
E000
ENDCHAR
STARTCHAR g
ENCODING 103
SWIDTH 75 0
DWIDTH -1 0
BBX 10 13 0 0
BITMAP
3EC0
7FC0
FFC0
E1C0
E1C0
FFC0
7FC0
3FC0
01C0
01C0
7FC0
3F80
1F00
ENDCHAR
STARTCHAR h
ENCODING 104
SWIDTH 75 0
DWIDTH -1 0
BBX 10 20 0 0
BITMAP
E000
E000
E000
E000
E000
E000
E000
EF00
FF80
FFC0
F1C0
E1C0
E1C0
E1C0
E1C0
E1C0
E1C0
E1C0
E1C0
E1C0
ENDCHAR
STARTCHAR i
ENCODING 105
SWIDTH 75 0
DWIDTH -1 0
BBX 3 18 0 0
BITMAP
E0
E0
E0
00
00
E0
E0
E0
E0
E0
E0
E0
E0
E0
E0
E0
E0
E0
ENDCHAR
STARTCHAR j
ENCODING 106
SWIDTH 75 0
DWIDTH -1 0
BBX 9 18 0 0
BITMAP
0380
0380
0380
0000
0000
0380
0380
0380
0380
0380
0380
0380
0380
E380
E380
FF80
7F00
3E00
ENDCHAR
STARTCHAR k
ENCODING 107
SWIDTH 75 0
DWIDTH -1 0
BBX 10 20 0 0
BITMAP
E000
E000
E000
E000
E000
E000
E000
E0C0
E1C0
E3C0
E780
EF00
FE00
FC00
FC00
FE00
EF00
E780
E3C0
E1C0
ENDCHAR
STARTCHAR l
ENCODING 108
SWIDTH 75 0
DWIDTH -1 0
BBX 3 20 0 0
BITMAP
E0
E0
E0
E0
E0
E0
E0
E0
E0
E0
E0
E0
E0
E0
E0
E0
E0
E0
E0
E0
ENDCHAR
STARTCHAR m
ENCODING 109
SWIDTH 75 0
DWIDTH -1 0
BBX 10 13 0 0
BITMAP
DB00
FF80
FFC0
FFC0
EDC0
EDC0
EDC0
EDC0
EDC0
EDC0
EDC0
EDC0
EDC0
ENDCHAR
STARTCHAR n
ENCODING 110
SWIDTH 75 0
DWIDTH -1 0
BBX 10 13 0 0
BITMAP
DF00
FF80
FFC0
F1C0
E1C0
E1C0
E1C0
E1C0
E1C0
E1C0
E1C0
E1C0
E1C0
ENDCHAR
STARTCHAR o
ENCODING 111
SWIDTH 75 0
DWIDTH -1 0
BBX 10 13 0 0
BITMAP
3F00
7F80
FFC0
F3C0
E1C0
E1C0
E1C0
E1C0
E1C0
F3C0
FFC0
7F80
3F00
ENDCHAR
STARTCHAR p
ENCODING 112
SWIDTH 75 0
DWIDTH -1 0
BBX 10 13 0 0
BITMAP
DF00
FF80
FFC0
E1C0
E1C0
FFC0
FF80
FF00
E000
E000
E000
E000
E000
ENDCHAR
STARTCHAR q
ENCODING 113
SWIDTH 75 0
DWIDTH -1 0
BBX 10 13 0 0
BITMAP
3EC0
7FC0
FFC0
E1C0
E1C0
FFC0
7FC0
3FC0
01C0
01C0
01C0
01C0
01C0
ENDCHAR
STARTCHAR r
ENCODING 114
SWIDTH 75 0
DWIDTH -1 0
BBX 10 13 0 0
BITMAP
DF00
FF80
FFC0
F1C0
E000
E000
E000
E000
E000
E000
E000
E000
E000
ENDCHAR
STARTCHAR s
ENCODING 115
SWIDTH 75 0
DWIDTH -1 0
BBX 10 13 0 0
BITMAP
3F00
7F80
FFC0
E1C0
E000
FF00
7F80
3FC0
01C0
E1C0
FFC0
7F80
3F00
ENDCHAR
STARTCHAR t
ENCODING 116
SWIDTH 75 0
DWIDTH -1 0
BBX 10 20 0 0
BITMAP
E000
E000
E000
E000
E000
E000
E000
FC00
FC00
FC00
E000
E000
E000
E000
E000
E1C0
F3C0
FFC0
7F80
3F00
ENDCHAR
STARTCHAR u
ENCODING 117
SWIDTH 75 0
DWIDTH -1 0
BBX 10 13 0 0
BITMAP
E1C0
E1C0
E1C0
E1C0
E1C0
E1C0
E1C0
E1C0
E1C0
E3C0
FFC0
7FC0
3EC0
ENDCHAR
STARTCHAR v
ENCODING 118
SWIDTH 75 0
DWIDTH -1 0
BBX 10 13 0 0
BITMAP
E1C0
E1C0
E1C0
E1C0
E1C0
E1C0
E1C0
E1C0
F3C0
7F80
3F00
1E00
0C00
ENDCHAR
STARTCHAR w
ENCODING 119
SWIDTH 75 0
DWIDTH -1 0
BBX 10 13 0 0
BITMAP
E1C0
E1C0
E1C0
E1C0
E1C0
E1C0
E1C0
E1C0
EDC0
FFC0
F3C0
E1C0
C0C0
ENDCHAR
STARTCHAR x
ENCODING 120
SWIDTH 75 0
DWIDTH -1 0
BBX 10 13 0 0
BITMAP
E1C0
E1C0
F3C0
7F80
3F00
1E00
0C00
1E00
3F00
7F80
F3C0
E1C0
E1C0
ENDCHAR
STARTCHAR y
ENCODING 121
SWIDTH 75 0
DWIDTH -1 0
BBX 10 13 0 0
BITMAP
E1C0
E1C0
E1C0
E1C0
E3C0
FFC0
7FC0
3DC0
01C0
01C0
7FC0
7F80
7F00
ENDCHAR
STARTCHAR z
ENCODING 122
SWIDTH 75 0
DWIDTH -1 0
BBX 10 13 0 0
BITMAP
FFC0
FFC0
FFC0
01C0
0380
0700
0E00
1C00
3800
7000
FFC0
FFC0
FFC0
ENDCHAR
STARTCHAR {
ENCODING 123
SWIDTH 75 0
DWIDTH -1 0
BBX 7 20 0 0
BITMAP
1E
3E
7E
70
70
70
70
70
F0
E0
E0
F0
70
70
70
70
70
7E
3E
1E
ENDCHAR
STARTCHAR |
ENCODING 124
SWIDTH 75 0
DWIDTH -1 0
BBX 3 20 0 0
BITMAP
E0
E0
E0
E0
E0
E0
E0
E0
E0
E0
E0
E0
E0
E0
E0
E0
E0
E0
E0
E0
ENDCHAR
STARTCHAR }
ENCODING 125
SWIDTH 75 0
DWIDTH -1 0
BBX 7 20 0 0
BITMAP
F0
F8
FC
1C
1C
1C
1C
1C
1E
0E
0E
1E
1C
1C
1C
1C
1C
FC
F8
F0
ENDCHAR
STARTCHAR ~
ENCODING 126
SWIDTH 75 0
DWIDTH -1 0
BBX 9 3 0 9
BITMAP
3880
6D80
C700
ENDCHAR
STARTCHAR ¤
ENCODING -92
SWIDTH 75 0
DWIDTH -1 0
BBX 10 20 0 0
BITMAP
1F00
3F80
7FC0
70C0
7000
7000
FF00
FF00
FF00
7000
7000
FF00
FF00
FF00
7000
7000
70C0
7FC0
3F80
1F00
ENDCHAR
STARTCHAR ¦
ENCODING -90
SWIDTH 75 0
DWIDTH -1 0
BBX 10 20 0 0
BITMAP
6300
3600
1C00
3F00
7F80
FFC0
F3C0
E1C0
F000
7800
3C00
1E00
0F00
0780
03C0
E1C0
F3C0
FFC0
7F80
3F00
ENDCHAR
STARTCHAR ¼
ENCODING -68
SWIDTH 75 0
DWIDTH -1 0
BBX 0 0 10 19
ENDCHAR
STARTCHAR ´
ENCODING -76
SWIDTH 75 0
DWIDTH -1 0
BBX 10 20 0 0
BITMAP
6300
3600
1C00
FFC0
FFC0
FF80
0180
0300
0300
0600
0600
0C00
0C00
1800
1800
3000
7000
7FC0
FFC0
FFC0
ENDCHAR
STARTCHAR ¨
ENCODING -88
SWIDTH 75 0
DWIDTH -1 0
BBX 10 17 0 0
BITMAP
3180
1B00
0E00
0000
3F00
7F80
FFC0
E1C0
E000
FF00
7F80
3FC0
01C0
E1C0
FFC0
7F80
3F00
ENDCHAR
STARTCHAR ½
ENCODING -67
SWIDTH 75 0
DWIDTH -1 0
BBX 0 0 10 19
ENDCHAR
STARTCHAR ¸
ENCODING -72
SWIDTH 75 0
DWIDTH -1 0
BBX 10 17 0 0
BITMAP
6300
3600
1C00
0000
FFC0
FFC0
FFC0
01C0
0380
0700
0E00
1C00
3800
7000
FFC0
FFC0
FFC0
ENDCHAR
STARTCHAR ¾
ENCODING -66
SWIDTH 75 0
DWIDTH -1 0
BBX 9 20 0 0
BITMAP
7700
7700
7700
0000
E380
E380
E380
E380
E380
E380
F780
7F00
3E00
1C00
1C00
1C00
1C00
1C00
1C00
1C00
ENDCHAR
STARTCHAR ¡
ENCODING -95
SWIDTH 75 0
DWIDTH -1 0
BBX 3 20 0 0
BITMAP
E0
E0
E0
00
E0
E0
E0
E0
E0
E0
E0
E0
E0
E0
E0
E0
E0
E0
E0
E0
ENDCHAR
STARTCHAR ¢
ENCODING -94
SWIDTH 75 0
DWIDTH -1 0
BBX 10 17 0 0
BITMAP
0200
0200
3F00
7F80
FFC0
F5C0
E400
E400
E400
E400
E400
F5C0
FFC0
7F80
3F00
0800
0800
ENDCHAR
STARTCHAR £
ENCODING -93
SWIDTH 75 0
DWIDTH -1 0
BBX 10 20 0 0
BITMAP
3F00
7F80
FFC0
E1C0
E000
6000
6000
6000
FE00
FE00
FE00
6000
6000
6000
6000
6000
E1C0
FFC0
FF80
BF00
ENDCHAR
STARTCHAR ¥
ENCODING -91
SWIDTH 75 0
DWIDTH -1 0
BBX 9 20 0 0
BITMAP
E380
E380
E380
E380
E380
E380
E380
7700
7700
7F00
3E00
1C00
FF80
FF80
1C00
FF80
FF80
1C00
1C00
1C00
ENDCHAR
STARTCHAR §
ENCODING -89
SWIDTH 75 0
DWIDTH -1 0
BBX 9 20 0 0
BITMAP
3F00
7F80
FF80
E180
F000
7800
7C00
FE00
EF00
E780
F380
7B80
3F80
1F00
0F00
0780
C380
FF80
FF00
7E00
ENDCHAR
STARTCHAR ©
ENCODING -87
SWIDTH 75 0
DWIDTH -1 0
BBX 8 8 0 12
BITMAP
7E
81
BD
A1
A1
BD
81
7E
ENDCHAR
STARTCHAR ª
ENCODING -86
SWIDTH 75 0
DWIDTH -1 0
BBX 5 8 0 12
BITMAP
70
08
08
F8
88
88
88
78
ENDCHAR
STARTCHAR «
ENCODING -85
SWIDTH 75 0
DWIDTH -1 0
BBX 8 7 0 7
BITMAP
33
77
EE
CC
EE
77
33
ENDCHAR
STARTCHAR ¬
ENCODING -84
SWIDTH 75 0
DWIDTH -1 0
BBX 7 5 0 8
BITMAP
FE
02
02
02
02
ENDCHAR
STARTCHAR ®
ENCODING -82
SWIDTH 75 0
DWIDTH -1 0
BBX 8 8 0 12
BITMAP
7E
81
B1
A9
B1
A9
81
7E
ENDCHAR
STARTCHAR ¯
ENCODING -81
SWIDTH 75 0
DWIDTH -1 0
BBX 7 2 0 11
BITMAP
FE
FE
ENDCHAR
STARTCHAR °
ENCODING -80
SWIDTH 75 0
DWIDTH -1 0
BBX 4 4 0 16
BITMAP
60
90
90
60
ENDCHAR
STARTCHAR ±
ENCODING -79
SWIDTH 75 0
DWIDTH -1 0
BBX 8 11 0 6
BITMAP
18
18
18
FF
FF
18
18
18
00
FF
FF
ENDCHAR
STARTCHAR ²
ENCODING -78
SWIDTH 75 0
DWIDTH -1 0
BBX 4 6 0 14
BITMAP
60
90
20
40
80
F0
ENDCHAR
STARTCHAR ³
ENCODING -77
SWIDTH 75 0
DWIDTH -1 0
BBX 4 6 0 14
BITMAP
60
90
20
20
90
60
ENDCHAR
STARTCHAR µ
ENCODING -75
SWIDTH 75 0
DWIDTH -1 0
BBX 10 17 0 0
BITMAP
E1C0
E1C0
E1C0
E1C0
F3C0
FFC0
FFC0
EDC0
E000
E000
E000
E000
E000
E000
E000
E000
E000
ENDCHAR
STARTCHAR ·
ENCODING -73
SWIDTH 75 0
DWIDTH -1 0
BBX 3 3 0 9
BITMAP
E0
E0
E0
ENDCHAR
STARTCHAR ¹
ENCODING -71
SWIDTH 75 0
DWIDTH -1 0
BBX 3 6 0 14
BITMAP
40
C0
40
40
40
E0
ENDCHAR
STARTCHAR º
ENCODING -70
SWIDTH 75 0
DWIDTH -1 0
BBX 4 6 0 14
BITMAP
60
90
90
90
90
60
ENDCHAR
STARTCHAR »
ENCODING -69
SWIDTH 75 0
DWIDTH -1 0
BBX 8 7 0 7
BITMAP
CC
EE
77
33
77
EE
CC
ENDCHAR
STARTCHAR ¿
ENCODING -65
SWIDTH 75 0
DWIDTH -1 0
BBX 10 20 0 0
BITMAP
1C00
1C00
1C00
0000
0000
1C00
1C00
1C00
1C00
1C00
3C00
7800
F000
E000
E1C0
E1C0
E1C0
FFC0
7F80
3F00
ENDCHAR
STARTCHAR À
ENCODING -64
SWIDTH 75 0
DWIDTH -1 0
BBX 10 20 0 0
BITMAP
3800
1C00
0E00
0000
3F00
7F80
FFC0
F3C0
E1C0
E1C0
FFC0
FFC0
FFC0
E1C0
E1C0
E1C0
E1C0
E1C0
E1C0
E1C0
ENDCHAR
STARTCHAR Á
ENCODING -63
SWIDTH 75 0
DWIDTH -1 0
BBX 10 20 0 0
BITMAP
0700
0E00
1C00
0000
3F00
7F80
FFC0
F3C0
E1C0
E1C0
FFC0
FFC0
FFC0
E1C0
E1C0
E1C0
E1C0
E1C0
E1C0
E1C0
ENDCHAR
STARTCHAR Â
ENCODING -62
SWIDTH 75 0
DWIDTH -1 0
BBX 10 20 0 0
BITMAP
1C00
3600
6300
0000
3F00
7F80
FFC0
F3C0
E1C0
E1C0
FFC0
FFC0
FFC0
E1C0
E1C0
E1C0
E1C0
E1C0
E1C0
E1C0
ENDCHAR
STARTCHAR Ã
ENCODING -61
SWIDTH 75 0
DWIDTH -1 0
BBX 10 20 0 0
BITMAP
3880
6D80
C700
0000
3F00
7F80
FFC0
F3C0
E1C0
E1C0
FFC0
FFC0
FFC0
E1C0
E1C0
E1C0
E1C0
E1C0
E1C0
E1C0
ENDCHAR
STARTCHAR Ä
ENCODING -60
SWIDTH 75 0
DWIDTH -1 0
BBX 10 20 0 0
BITMAP
7380
7380
7380
0000
3F00
7F80
FFC0
F3C0
E1C0
E1C0
FFC0
FFC0
FFC0
E1C0
E1C0
E1C0
E1C0
E1C0
E1C0
E1C0
ENDCHAR
STARTCHAR Å
ENCODING -59
SWIDTH 75 0
DWIDTH -1 0
BBX 10 20 0 0
BITMAP
0C00
1200
0C00
0000
3F00
7F80
FFC0
F3C0
E1C0
E1C0
FFC0
FFC0
FFC0
E1C0
E1C0
E1C0
E1C0
E1C0
E1C0
E1C0
ENDCHAR
STARTCHAR Æ
ENCODING -58
SWIDTH 75 0
DWIDTH -1 0
BBX 10 20 0 0
BITMAP
3FC0
7FC0
FFC0
F600
E600
E600
E600
E600
FFC0
FFC0
FFC0
E600
E600
E600
E600
E600
E600
E7C0
E7C0
E7C0
ENDCHAR
STARTCHAR Ç
ENCODING -57
SWIDTH 75 0
DWIDTH -1 0
BBX 10 20 0 0
BITMAP
3F00
7F80
FFC0
E1C0
E000
E000
E000
E000
E000
E000
E000
E000
E000
E000
E1C0
FFC0
7F80
3F00
0C00
1800
ENDCHAR
STARTCHAR È
ENCODING -56
SWIDTH 75 0
DWIDTH -1 0
BBX 10 20 0 0
BITMAP
3800
1C00
0E00
0000
FFC0
FFC0
FFC0
E000
E000
E000
FF00
FF00
FF00
E000
E000
E000
E000
FFC0
FFC0
FFC0
ENDCHAR
STARTCHAR É
ENCODING -55
SWIDTH 75 0
DWIDTH -1 0
BBX 10 20 0 0
BITMAP
0700
0E00
1C00
0000
FFC0
FFC0
FFC0
E000
E000
E000
FF00
FF00
FF00
E000
E000
E000
E000
FFC0
FFC0
FFC0
ENDCHAR
STARTCHAR Ê
ENCODING -54
SWIDTH 75 0
DWIDTH -1 0
BBX 10 20 0 0
BITMAP
0E00
1B00
3180
0000
FFC0
FFC0
FFC0
E000
E000
E000
FF00
FF00
FF00
E000
E000
E000
E000
FFC0
FFC0
FFC0
ENDCHAR
STARTCHAR Ë
ENCODING -53
SWIDTH 75 0
DWIDTH -1 0
BBX 10 20 0 0
BITMAP
7380
7380
7380
0000
FFC0
FFC0
FFC0
E000
E000
E000
FF00
FF00
FF00
E000
E000
E000
E000
FFC0
FFC0
FFC0
ENDCHAR
STARTCHAR Ì
ENCODING -52
SWIDTH 75 0
DWIDTH -1 0
BBX 5 20 0 0
BITMAP
E0
70
38
00
70
70
70
70
70
70
70
70
70
70
70
70
70
70
70
70
ENDCHAR
STARTCHAR Í
ENCODING -51
SWIDTH 75 0
DWIDTH -1 0
BBX 5 20 0 0
BITMAP
38
70
E0
00
70
70
70
70
70
70
70
70
70
70
70
70
70
70
70
70
ENDCHAR
STARTCHAR Î
ENCODING -50
SWIDTH 75 0
DWIDTH -1 0
BBX 7 20 0 0
BITMAP
38
6C
C6
00
38
38
38
38
38
38
38
38
38
38
38
38
38
38
38
38
ENDCHAR
STARTCHAR Ï
ENCODING -49
SWIDTH 75 0
DWIDTH -1 0
BBX 7 20 0 0
BITMAP
EE
EE
EE
00
38
38
38
38
38
38
38
38
38
38
38
38
38
38
38
38
ENDCHAR
STARTCHAR Ð
ENCODING -48
SWIDTH 75 0
DWIDTH -1 0
BBX 10 20 0 0
BITMAP
7F00
7F80
7FC0
71C0
71C0
71C0
71C0
71C0
71C0
F9C0
F9C0
71C0
71C0
71C0
71C0
71C0
71C0
7FC0
7F80
7F00
ENDCHAR
STARTCHAR Ñ
ENCODING -47
SWIDTH 75 0
DWIDTH -1 0
BBX 10 20 0 0
BITMAP
3880
6D80
C700
0000
E1C0
F1C0
F9C0
FDC0
EFC0
E7C0
E3C0
E1C0
E1C0
E1C0
E1C0
E1C0
E1C0
E1C0
E1C0
E1C0
ENDCHAR
STARTCHAR Ò
ENCODING -46
SWIDTH 75 0
DWIDTH -1 0
BBX 10 20 0 0
BITMAP
3800
1C00
0E00
0000
3F00
7F80
FFC0
F3C0
E1C0
E1C0
E1C0
E1C0
E1C0
E1C0
E1C0
E1C0
F3C0
FFC0
7F80
3F00
ENDCHAR
STARTCHAR Ó
ENCODING -45
SWIDTH 75 0
DWIDTH -1 0
BBX 10 20 0 0
BITMAP
0700
0E00
1C00
0000
3F00
7F80
FFC0
F3C0
E1C0
E1C0
E1C0
E1C0
E1C0
E1C0
E1C0
E1C0
F3C0
FFC0
7F80
3F00
ENDCHAR
STARTCHAR Ô
ENCODING -44
SWIDTH 75 0
DWIDTH -1 0
BBX 10 20 0 0
BITMAP
1C00
3600
6300
0000
3F00
7F80
FFC0
F3C0
E1C0
E1C0
E1C0
E1C0
E1C0
E1C0
E1C0
E1C0
F3C0
FFC0
7F80
3F00
ENDCHAR
STARTCHAR Õ
ENCODING -43
SWIDTH 75 0
DWIDTH -1 0
BBX 10 20 0 0
BITMAP
3880
6D80
C700
0000
3F00
7F80
FFC0
F3C0
E1C0
E1C0
E1C0
E1C0
E1C0
E1C0
E1C0
E1C0
F3C0
FFC0
7F80
3F00
ENDCHAR
STARTCHAR Ö
ENCODING -42
SWIDTH 75 0
DWIDTH -1 0
BBX 10 20 0 0
BITMAP
3B80
3B80
3B80
0000
3F00
7F80
FFC0
F3C0
E1C0
E1C0
E1C0
E1C0
E1C0
E1C0
E1C0
E1C0
F3C0
FFC0
7F80
3F00
ENDCHAR
STARTCHAR ×
ENCODING -41
SWIDTH 75 0
DWIDTH -1 0
BBX 10 10 0 4
BITMAP
C0C0
E1C0
7380
3F00
1E00
1E00
3F00
7380
E1C0
C0C0
ENDCHAR
STARTCHAR Ø
ENCODING -40
SWIDTH 75 0
DWIDTH -1 0
BBX 10 20 0 0
BITMAP
0200
0200
3F00
7F80
FFC0
E5C0
E5C0
E5C0
E5C0
E5C0
E9C0
E9C0
E9C0
E9C0
E9C0
FFC0
7F80
3F00
1000
1000
ENDCHAR
STARTCHAR Ù
ENCODING -39
SWIDTH 75 0
DWIDTH -1 0
BBX 10 20 0 0
BITMAP
3800
1C00
0E00
0000
E1C0
E1C0
E1C0
E1C0
E1C0
E1C0
E1C0
E1C0
E1C0
E1C0
E1C0
E1C0
F3C0
FFC0
7F80
3F00
ENDCHAR
STARTCHAR Ú
ENCODING -38
SWIDTH 75 0
DWIDTH -1 0
BBX 10 20 0 0
BITMAP
0700
0E00
1C00
0000
E1C0
E1C0
E1C0
E1C0
E1C0
E1C0
E1C0
E1C0
E1C0
E1C0
E1C0
E1C0
F3C0
FFC0
7F80
3F00
ENDCHAR
STARTCHAR Û
ENCODING -37
SWIDTH 75 0
DWIDTH -1 0
BBX 10 20 0 0
BITMAP
0E00
1B00
3180
0000
E1C0
E1C0
E1C0
E1C0
E1C0
E1C0
E1C0
E1C0
E1C0
E1C0
E1C0
E1C0
F3C0
FFC0
7F80
3F00
ENDCHAR
STARTCHAR Ü
ENCODING -36
SWIDTH 75 0
DWIDTH -1 0
BBX 10 20 0 0
BITMAP
7380
7380
7380
0000
E1C0
E1C0
E1C0
E1C0
E1C0
E1C0
E1C0
E1C0
E1C0
E1C0
E1C0
E1C0
F3C0
FFC0
7F80
3F00
ENDCHAR
STARTCHAR Ý
ENCODING -35
SWIDTH 75 0
DWIDTH -1 0
BBX 9 20 0 0
BITMAP
0E00
1C00
3800
0000
E380
E380
E380
E380
E380
E380
7700
3E00
1C00
1C00
1C00
1C00
1C00
1C00
1C00
1C00
ENDCHAR
STARTCHAR Þ
ENCODING -34
SWIDTH 75 0
DWIDTH -1 0
BBX 9 12 0 4
BITMAP
E000
E000
FE00
FF00
FF80
E180
E180
FF80
FF00
FE00
E000
E000
ENDCHAR
STARTCHAR ß
ENCODING -33
SWIDTH 75 0
DWIDTH -1 0
BBX 10 20 0 0
BITMAP
3E00
7F00
FF80
F380
E380
E380
E700
EE00
EE00
EF00
E780
E3C0
E1C0
E1C0
E1C0
E3C0
EFC0
EF80
EE00
E000
ENDCHAR
STARTCHAR à
ENCODING -32
SWIDTH 75 0
DWIDTH -1 0
BBX 10 17 0 0
BITMAP
3800
1C00
0E00
0000
7F00
7F80
01C0
01C0
3DC0
7FC0
FFC0
E1C0
E1C0
E1C0
FFC0
7FC0
3DC0
ENDCHAR
STARTCHAR á
ENCODING -31
SWIDTH 75 0
DWIDTH -1 0
BBX 10 17 0 0
BITMAP
0700
0E00
1C00
0000
7F00
7F80
01C0
01C0
3DC0
7FC0
FFC0
E1C0
E1C0
E1C0
FFC0
7FC0
3DC0
ENDCHAR
STARTCHAR â
ENCODING -30
SWIDTH 75 0
DWIDTH -1 0
BBX 10 17 0 0
BITMAP
1C00
3600
6300
0000
7F00
7F80
01C0
01C0
3DC0
7FC0
FFC0
E1C0
E1C0
E1C0
FFC0
7FC0
3DC0
ENDCHAR
STARTCHAR ã
ENCODING -29
SWIDTH 75 0
DWIDTH -1 0
BBX 10 17 0 0
BITMAP
3880
6D80
C700
0000
7F00
7F80
01C0
01C0
3DC0
7FC0
FFC0
E1C0
E1C0
E1C0
FFC0
7FC0
3DC0
ENDCHAR
STARTCHAR ä
ENCODING -28
SWIDTH 75 0
DWIDTH -1 0
BBX 10 17 0 0
BITMAP
7700
7700
7700
0000
7F00
7F80
01C0
01C0
3DC0
7FC0
FFC0
E1C0
E1C0
E1C0
FFC0
7FC0
3DC0
ENDCHAR
STARTCHAR å
ENCODING -27
SWIDTH 75 0
DWIDTH -1 0
BBX 10 17 0 0
BITMAP
0C00
1200
0C00
0000
7F00
7F80
01C0
01C0
3DC0
7FC0
FFC0
E1C0
E1C0
E1C0
FFC0
7FC0
3DC0
ENDCHAR
STARTCHAR æ
ENCODING -26
SWIDTH 75 0
DWIDTH -1 0
BBX 10 13 0 0
BITMAP
7F00
7F80
0FC0
0DC0
3DC0
7FC0
FFC0
EF80
EC00
EC00
FFC0
7F80
3F00
ENDCHAR
STARTCHAR ç
ENCODING -25
SWIDTH 75 0
DWIDTH -1 0
BBX 10 13 0 0
BITMAP
3F00
7F80
FFC0
E1C0
E000
E000
E000
E1C0
FFC0
7F80
3F00
0C00
1800
ENDCHAR
STARTCHAR è
ENCODING -24
SWIDTH 75 0
DWIDTH -1 0
BBX 10 17 0 0
BITMAP
3800
1C00
0E00
0000
3F00
7F80
FFC0
E1C0
E1C0
FFC0
FFC0
FF80
E000
E000
FFC0
7F80
3F00
ENDCHAR
STARTCHAR é
ENCODING -23
SWIDTH 75 0
DWIDTH -1 0
BBX 10 17 0 0
BITMAP
0700
0E00
1C00
0000
3F00
7F80
FFC0
E1C0
E1C0
FFC0
FFC0
FF80
E000
E000
FFC0
7F80
3F00
ENDCHAR
STARTCHAR ê
ENCODING -22
SWIDTH 75 0
DWIDTH -1 0
BBX 10 17 0 0
BITMAP
0E00
1B00
3180
0000
3F00
7F80
FFC0
E1C0
E1C0
FFC0
FFC0
FF80
E000
E000
FFC0
7F80
3F00
ENDCHAR
STARTCHAR ë
ENCODING -21
SWIDTH 75 0
DWIDTH -1 0
BBX 10 17 0 0
BITMAP
7380
7380
7380
0000
3F00
7F80
FFC0
E1C0
E1C0
FFC0
FFC0
FF80
E000
E000
FFC0
7F80
3F00
ENDCHAR
STARTCHAR ì
ENCODING -20
SWIDTH 75 0
DWIDTH -1 0
BBX 5 17 0 0
BITMAP
E0
70
38
00
70
70
70
70
70
70
70
70
70
70
70
70
70
ENDCHAR
STARTCHAR í
ENCODING -19
SWIDTH 75 0
DWIDTH -1 0
BBX 5 17 0 0
BITMAP
38
70
E0
00
70
70
70
70
70
70
70
70
70
70
70
70
70
ENDCHAR
STARTCHAR î
ENCODING -18
SWIDTH 75 0
DWIDTH -1 0
BBX 7 17 0 0
BITMAP
38
6C
C6
00
38
38
38
38
38
38
38
38
38
38
38
38
38
ENDCHAR
STARTCHAR ï
ENCODING -17
SWIDTH 75 0
DWIDTH -1 0
BBX 7 17 0 0
BITMAP
EE
EE
EE
00
38
38
38
38
38
38
38
38
38
38
38
38
38
ENDCHAR
STARTCHAR ð
ENCODING -16
SWIDTH 75 0
DWIDTH -1 0
BBX 10 18 0 0
BITMAP
3200
1C00
1800
2400
0200
3F00
7F80
FFC0
F3C0
E1C0
E1C0
E1C0
E1C0
E1C0
F3C0
FFC0
7F80
3F00
ENDCHAR
STARTCHAR ñ
ENCODING -15
SWIDTH 75 0
DWIDTH -1 0
BBX 10 17 0 0
BITMAP
3880
6D80
C700
0000
DF00
FF80
FFC0
F1C0
E1C0
E1C0
E1C0
E1C0
E1C0
E1C0
E1C0
E1C0
E1C0
ENDCHAR
STARTCHAR ò
ENCODING -14
SWIDTH 75 0
DWIDTH -1 0
BBX 10 17 0 0
BITMAP
3800
1C00
0E00
0000
3F00
7F80
FFC0
F3C0
E1C0
E1C0
E1C0
E1C0
E1C0
F3C0
FFC0
7F80
3F00
ENDCHAR
STARTCHAR ó
ENCODING -13
SWIDTH 75 0
DWIDTH -1 0
BBX 10 17 0 0
BITMAP
0700
0E00
1C00
0000
3F00
7F80
FFC0
F3C0
E1C0
E1C0
E1C0
E1C0
E1C0
F3C0
FFC0
7F80
3F00
ENDCHAR
STARTCHAR ô
ENCODING -12
SWIDTH 75 0
DWIDTH -1 0
BBX 10 17 0 0
BITMAP
1C00
3600
6300
0000
3F00
7F80
FFC0
F3C0
E1C0
E1C0
E1C0
E1C0
E1C0
F3C0
FFC0
7F80
3F00
ENDCHAR
STARTCHAR õ
ENCODING -11
SWIDTH 75 0
DWIDTH -1 0
BBX 10 17 0 0
BITMAP
3880
6D80
C700
0000
3F00
7F80
FFC0
F3C0
E1C0
E1C0
E1C0
E1C0
E1C0
F3C0
FFC0
7F80
3F00
ENDCHAR
STARTCHAR ö
ENCODING -10
SWIDTH 75 0
DWIDTH -1 0
BBX 10 17 0 0
BITMAP
7380
7380
7380
0000
3F00
7F80
FFC0
F3C0
E1C0
E1C0
E1C0
E1C0
E1C0
F3C0
FFC0
7F80
3F00
ENDCHAR
STARTCHAR ÷
ENCODING -9
SWIDTH 75 0
DWIDTH -1 0
BBX 8 8 1 5
BITMAP
18
18
00
FF
FF
00
18
18
ENDCHAR
STARTCHAR ø
ENCODING -8
SWIDTH 75 0
DWIDTH -1 0
BBX 10 14 0 0
BITMAP
0400
3F00
7F80
FFC0
E9C0
E9C0
E9C0
E9C0
E9C0
E9C0
FFC0
7F80
3F00
1000
ENDCHAR
STARTCHAR ù
ENCODING -7
SWIDTH 75 0
DWIDTH -1 0
BBX 10 17 0 0
BITMAP
3800
1C00
0E00
0000
E1C0
E1C0
E1C0
E1C0
E1C0
E1C0
E1C0
E1C0
E1C0
E3C0
FFC0
7FC0
3EC0
ENDCHAR
STARTCHAR ú
ENCODING -6
SWIDTH 75 0
DWIDTH -1 0
BBX 10 17 0 0
BITMAP
0700
0E00
1C00
0000
E1C0
E1C0
E1C0
E1C0
E1C0
E1C0
E1C0
E1C0
E1C0
E3C0
FFC0
7FC0
3EC0
ENDCHAR
STARTCHAR û
ENCODING -5
SWIDTH 75 0
DWIDTH -1 0
BBX 10 17 0 0
BITMAP
1C00
3600
6300
0000
E1C0
E1C0
E1C0
E1C0
E1C0
E1C0
E1C0
E1C0
E1C0
E3C0
FFC0
7FC0
3EC0
ENDCHAR
STARTCHAR ü
ENCODING -4
SWIDTH 75 0
DWIDTH -1 0
BBX 10 17 0 0
BITMAP
7380
7380
7380
0000
E1C0
E1C0
E1C0
E1C0
E1C0
E1C0
E1C0
E1C0
E1C0
E3C0
FFC0
7FC0
3EC0
ENDCHAR
STARTCHAR ý
ENCODING -3
SWIDTH 75 0
DWIDTH -1 0
BBX 10 17 0 0
BITMAP
0700
0E00
1C00
0000
E1C0
E1C0
E1C0
E1C0
E3C0
FFC0
7FC0
3DC0
01C0
01C0
7FC0
7F80
7F00
ENDCHAR
STARTCHAR þ
ENCODING -2
SWIDTH 75 0
DWIDTH -1 0
BBX 10 17 0 0
BITMAP
E000
E000
E000
E000
FF00
FF80
FFC0
E1C0
E1C0
E1C0
E1C0
FFC0
FF80
FF00
E000
E000
E000
ENDCHAR
STARTCHAR ÿ
ENCODING -1
SWIDTH 75 0
DWIDTH -1 0
BBX 10 17 0 0
BITMAP
7380
7380
7380
0000
E1C0
E1C0
E1C0
E1C0
E3C0
FFC0
7FC0
3DC0
01C0
01C0
7FC0
7F80
7F00
ENDCHAR
ENDFONT
