STARTFONT 2.1
COMMENT Lumiplan font build using LumiStudio
FONT I_Import
SIZE 24 75 75
FONTBOUNDINGBOX 12 24 0 0
STARTPROPERTIES 1
Copyright "Copyright (c) 2021 Lumiplan"
ENDPROPERTIES
CHARS 145
STARTCHAR 
ENCODING 14
SWIDTH 75 0
DWIDTH -1 0
BBX 0 0 1 23
ENDCHAR
STARTCHAR  
ENCODING 32
SWIDTH 75 0
DWIDTH -1 0
BBX 0 0 4 23
ENDCHAR
STARTCHAR !
ENCODING 33
SWIDTH 75 0
DWIDTH -1 0
BBX 2 14 0 9
BITMAP
C0
C0
C0
C0
C0
C0
C0
C0
C0
C0
C0
00
C0
C0
ENDCHAR
STARTCHAR "
ENCODING 34
SWIDTH 75 0
DWIDTH -1 0
BBX 5 4 0 19
BITMAP
D8
D8
D8
D8
ENDCHAR
STARTCHAR #
ENCODING 35
SWIDTH 75 0
DWIDTH -1 0
BBX 12 13 0 9
BITMAP
7FF0
0000
FFF0
0000
0780
0000
0F30
0000
1E70
0000
3CF0
0000
78F0
ENDCHAR
STARTCHAR $
ENCODING 36
SWIDTH 75 0
DWIDTH -1 0
BBX 12 13 0 9
BITMAP
FFF0
03F0
FFF0
0030
FF30
0E70
FE70
00F0
80F0
01E0
FFF0
7FF0
FFF0
ENDCHAR
STARTCHAR %
ENCODING 37
SWIDTH 75 0
DWIDTH -1 0
BBX 4 13 0 9
BITMAP
F0
E0
E0
C0
C0
80
80
00
00
00
F0
E0
E0
ENDCHAR
STARTCHAR &
ENCODING 38
SWIDTH 75 0
DWIDTH -1 0
BBX 10 18 0 5
BITMAP
FA40
FA40
1800
1800
1800
1800
1800
1800
1800
1800
1800
1800
1F00
1F00
0000
0000
0000
0040
ENDCHAR
STARTCHAR '
ENCODING 39
SWIDTH 75 0
DWIDTH -1 0
BBX 2 4 0 19
BITMAP
C0
C0
C0
C0
ENDCHAR
STARTCHAR (
ENCODING 40
SWIDTH 75 0
DWIDTH -1 0
BBX 12 14 0 9
BITMAP
0780
1FE0
3FF0
7FF0
7330
F330
FFF0
FFF0
EFD0
7030
7870
3FF0
1FE0
0780
ENDCHAR
STARTCHAR )
ENCODING 41
SWIDTH 75 0
DWIDTH -1 0
BBX 2 8 0 12
BITMAP
80
80
C0
C0
C0
C0
80
80
ENDCHAR
STARTCHAR *
ENCODING 42
SWIDTH 75 0
DWIDTH -1 0
BBX 12 16 0 8
BITMAP
03C0
0FF0
1FF0
3000
7E70
7E70
FE70
FFF0
8000
8180
4380
4180
2180
1180
0C30
03C0
ENDCHAR
STARTCHAR +
ENCODING 43
SWIDTH 75 0
DWIDTH -1 0
BBX 12 16 0 8
BITMAP
03C0
0FF0
1FF0
3000
7E70
7E70
FE70
FFF0
8000
8380
40C0
4180
2300
13C0
0C30
03C0
ENDCHAR
STARTCHAR ,
ENCODING 44
SWIDTH 75 0
DWIDTH -1 0
BBX 4 12 0 10
BITMAP
80
C0
E0
E0
F0
F0
10
10
20
20
40
80
ENDCHAR
STARTCHAR -
ENCODING 45
SWIDTH 75 0
DWIDTH -1 0
BBX 4 2 0 15
BITMAP
F0
F0
ENDCHAR
STARTCHAR .
ENCODING 46
SWIDTH 75 0
DWIDTH -1 0
BBX 2 2 0 9
BITMAP
C0
C0
ENDCHAR
STARTCHAR /
ENCODING 47
SWIDTH 75 0
DWIDTH -1 0
BBX 5 14 0 9
BITMAP
18
18
18
18
18
38
70
E0
C0
C0
C0
C0
C0
C0
ENDCHAR
STARTCHAR 0
ENCODING 48
SWIDTH 75 0
DWIDTH -1 0
BBX 6 14 0 9
BITMAP
78
FC
CC
CC
CC
CC
CC
CC
CC
CC
CC
CC
FC
78
ENDCHAR
STARTCHAR 1
ENCODING 49
SWIDTH 75 0
DWIDTH -1 0
BBX 4 14 0 9
BITMAP
30
70
F0
F0
B0
30
30
30
30
30
30
30
30
30
ENDCHAR
STARTCHAR 2
ENCODING 50
SWIDTH 75 0
DWIDTH -1 0
BBX 6 14 0 9
BITMAP
F8
FC
0C
0C
0C
0C
7C
F8
C0
C0
C0
C0
FC
FC
ENDCHAR
STARTCHAR 3
ENCODING 51
SWIDTH 75 0
DWIDTH -1 0
BBX 6 14 0 9
BITMAP
F8
FC
0C
0C
0C
0C
78
78
0C
0C
0C
0C
FC
F8
ENDCHAR
STARTCHAR 4
ENCODING 52
SWIDTH 75 0
DWIDTH -1 0
BBX 6 14 0 9
BITMAP
0C
1C
3C
7C
EC
CC
CC
CC
FC
FC
0C
0C
0C
0C
ENDCHAR
STARTCHAR 5
ENCODING 53
SWIDTH 75 0
DWIDTH -1 0
BBX 6 14 0 9
BITMAP
FC
FC
C0
C0
C0
C0
F8
FC
0C
0C
0C
0C
FC
F8
ENDCHAR
STARTCHAR 6
ENCODING 54
SWIDTH 75 0
DWIDTH -1 0
BBX 6 14 0 9
BITMAP
78
F8
C0
C0
C0
C0
F8
FC
CC
CC
CC
CC
FC
78
ENDCHAR
STARTCHAR 7
ENCODING 55
SWIDTH 75 0
DWIDTH -1 0
BBX 6 14 0 9
BITMAP
FC
FC
0C
0C
0C
1C
38
30
30
30
30
30
30
30
ENDCHAR
STARTCHAR 8
ENCODING 56
SWIDTH 75 0
DWIDTH -1 0
BBX 6 14 0 9
BITMAP
78
FC
CC
CC
CC
CC
78
78
CC
CC
CC
CC
FC
78
ENDCHAR
STARTCHAR 9
ENCODING 57
SWIDTH 75 0
DWIDTH -1 0
BBX 6 14 0 9
BITMAP
78
FC
CC
CC
CC
CC
FC
7C
0C
0C
0C
0C
7C
78
ENDCHAR
STARTCHAR :
ENCODING 58
SWIDTH 75 0
DWIDTH -1 0
BBX 2 8 0 9
BITMAP
C0
C0
00
00
00
00
C0
C0
ENDCHAR
STARTCHAR ;
ENCODING 59
SWIDTH 75 0
DWIDTH -1 0
BBX 3 9 0 8
BITMAP
60
60
00
00
00
00
60
60
C0
ENDCHAR
STARTCHAR <
ENCODING 60
SWIDTH 75 0
DWIDTH -1 0
BBX 7 14 0 9
BITMAP
02
06
0E
1C
38
70
E0
E0
70
38
1C
0E
06
02
ENDCHAR
STARTCHAR =
ENCODING 61
SWIDTH 75 0
DWIDTH -1 0
BBX 6 6 0 13
BITMAP
FC
FC
00
00
FC
FC
ENDCHAR
STARTCHAR >
ENCODING 62
SWIDTH 75 0
DWIDTH -1 0
BBX 7 14 0 9
BITMAP
80
C0
E0
70
38
1C
0E
0E
1C
38
70
E0
C0
80
ENDCHAR
STARTCHAR ?
ENCODING 63
SWIDTH 75 0
DWIDTH -1 0
BBX 10 18 0 5
BITMAP
2480
2480
0000
1800
7E00
6600
C300
FF00
FF00
C000
C000
6000
7E00
1E00
0000
0000
0000
0040
ENDCHAR
STARTCHAR @
ENCODING 64
SWIDTH 75 0
DWIDTH -1 0
BBX 8 14 0 9
BITMAP
49
49
00
7C
7E
03
03
1F
7F
E3
C3
C7
FF
7B
ENDCHAR
STARTCHAR A
ENCODING 65
SWIDTH 75 0
DWIDTH -1 0
BBX 7 14 0 9
BITMAP
7C
FE
C6
C6
C6
C6
FE
FE
C6
C6
C6
C6
C6
C6
ENDCHAR
STARTCHAR B
ENCODING 66
SWIDTH 75 0
DWIDTH -1 0
BBX 7 14 0 9
BITMAP
FC
FE
C6
C6
C6
C6
FC
FC
C6
C6
C6
C6
FE
FC
ENDCHAR
STARTCHAR C
ENCODING 67
SWIDTH 75 0
DWIDTH -1 0
BBX 6 14 0 9
BITMAP
7C
FC
C0
C0
C0
C0
C0
C0
C0
C0
C0
C0
FC
7C
ENDCHAR
STARTCHAR D
ENCODING 68
SWIDTH 75 0
DWIDTH -1 0
BBX 7 14 0 9
BITMAP
FC
FE
C6
C6
C6
C6
C6
C6
C6
C6
C6
C6
FE
FC
ENDCHAR
STARTCHAR E
ENCODING 69
SWIDTH 75 0
DWIDTH -1 0
BBX 6 14 0 9
BITMAP
FC
FC
C0
C0
C0
C0
F8
F8
C0
C0
C0
C0
FC
FC
ENDCHAR
STARTCHAR F
ENCODING 70
SWIDTH 75 0
DWIDTH -1 0
BBX 6 14 0 9
BITMAP
FC
FC
C0
C0
C0
C0
F8
F8
C0
C0
C0
C0
C0
C0
ENDCHAR
STARTCHAR G
ENCODING 71
SWIDTH 75 0
DWIDTH -1 0
BBX 7 14 0 9
BITMAP
7E
FE
C0
C0
C0
C0
CE
CE
C6
C6
C6
C6
FE
7E
ENDCHAR
STARTCHAR H
ENCODING 72
SWIDTH 75 0
DWIDTH -1 0
BBX 7 14 0 9
BITMAP
C6
C6
C6
C6
C6
C6
FE
FE
C6
C6
C6
C6
C6
C6
ENDCHAR
STARTCHAR I
ENCODING 73
SWIDTH 75 0
DWIDTH -1 0
BBX 2 14 0 9
BITMAP
C0
C0
C0
C0
C0
C0
C0
C0
C0
C0
C0
C0
C0
C0
ENDCHAR
STARTCHAR J
ENCODING 74
SWIDTH 75 0
DWIDTH -1 0
BBX 6 14 0 9
BITMAP
0C
0C
0C
0C
0C
0C
0C
0C
0C
0C
0C
0C
FC
F8
ENDCHAR
STARTCHAR K
ENCODING 75
SWIDTH 75 0
DWIDTH -1 0
BBX 7 14 0 9
BITMAP
C6
C6
C6
CE
DC
F8
F0
F0
F8
DC
CE
C6
C6
C6
ENDCHAR
STARTCHAR L
ENCODING 76
SWIDTH 75 0
DWIDTH -1 0
BBX 6 14 0 9
BITMAP
C0
C0
C0
C0
C0
C0
C0
C0
C0
C0
C0
C0
FC
FC
ENDCHAR
STARTCHAR M
ENCODING 77
SWIDTH 75 0
DWIDTH -1 0
BBX 7 14 0 9
BITMAP
C6
EE
FE
FE
D6
C6
C6
C6
C6
C6
C6
C6
C6
C6
ENDCHAR
STARTCHAR N
ENCODING 78
SWIDTH 75 0
DWIDTH -1 0
BBX 7 14 0 9
BITMAP
C6
E6
F6
FE
DE
CE
C6
C6
C6
C6
C6
C6
C6
C6
ENDCHAR
STARTCHAR O
ENCODING 79
SWIDTH 75 0
DWIDTH -1 0
BBX 7 14 0 9
BITMAP
7C
FE
C6
C6
C6
C6
C6
C6
C6
C6
C6
C6
FE
7C
ENDCHAR
STARTCHAR P
ENCODING 80
SWIDTH 75 0
DWIDTH -1 0
BBX 7 14 0 9
BITMAP
FC
FE
C6
C6
C6
C6
FE
FC
C0
C0
C0
C0
C0
C0
ENDCHAR
STARTCHAR Q
ENCODING 81
SWIDTH 75 0
DWIDTH -1 0
BBX 7 14 0 9
BITMAP
7C
FE
C6
C6
C6
C6
C6
C6
C6
C6
DE
DC
FE
76
ENDCHAR
STARTCHAR R
ENCODING 82
SWIDTH 75 0
DWIDTH -1 0
BBX 7 14 0 9
BITMAP
FC
FE
C6
C6
C6
C6
FC
FC
C6
C6
C6
C6
C6
C6
ENDCHAR
STARTCHAR S
ENCODING 83
SWIDTH 75 0
DWIDTH -1 0
BBX 6 14 0 9
BITMAP
7C
FC
C0
C0
C0
C0
F8
7C
0C
0C
0C
0C
FC
F8
ENDCHAR
STARTCHAR T
ENCODING 84
SWIDTH 75 0
DWIDTH -1 0
BBX 6 14 0 9
BITMAP
FC
FC
30
30
30
30
30
30
30
30
30
30
30
30
ENDCHAR
STARTCHAR U
ENCODING 85
SWIDTH 75 0
DWIDTH -1 0
BBX 7 14 0 9
BITMAP
C6
C6
C6
C6
C6
C6
C6
C6
C6
C6
C6
C6
FE
7C
ENDCHAR
STARTCHAR V
ENCODING 86
SWIDTH 75 0
DWIDTH -1 0
BBX 7 14 0 9
BITMAP
C6
C6
C6
C6
C6
C6
C6
C6
C6
C6
EE
7C
38
10
ENDCHAR
STARTCHAR W
ENCODING 87
SWIDTH 75 0
DWIDTH -1 0
BBX 7 14 0 9
BITMAP
C6
C6
C6
C6
C6
C6
C6
C6
D6
D6
D6
D6
FE
6C
ENDCHAR
STARTCHAR X
ENCODING 88
SWIDTH 75 0
DWIDTH -1 0
BBX 7 14 0 9
BITMAP
C6
C6
C6
C6
EE
7C
38
38
7C
EE
C6
C6
C6
C6
ENDCHAR
STARTCHAR Y
ENCODING 89
SWIDTH 75 0
DWIDTH -1 0
BBX 6 14 0 9
BITMAP
CC
CC
CC
CC
CC
CC
FC
78
30
30
30
30
30
30
ENDCHAR
STARTCHAR Z
ENCODING 90
SWIDTH 75 0
DWIDTH -1 0
BBX 6 14 0 9
BITMAP
FC
FC
0C
0C
0C
1C
38
70
E0
C0
C0
C0
FC
FC
ENDCHAR
STARTCHAR [
ENCODING 91
SWIDTH 75 0
DWIDTH -1 0
BBX 0 0 12 23
ENDCHAR
STARTCHAR \
ENCODING 92
SWIDTH 75 0
DWIDTH -1 0
BBX 0 0 12 23
ENDCHAR
STARTCHAR ]
ENCODING 93
SWIDTH 75 0
DWIDTH -1 0
BBX 0 0 12 23
ENDCHAR
STARTCHAR ^
ENCODING 94
SWIDTH 75 0
DWIDTH -1 0
BBX 0 0 12 23
ENDCHAR
STARTCHAR _
ENCODING 95
SWIDTH 75 0
DWIDTH -1 0
BBX 0 0 12 23
ENDCHAR
STARTCHAR `
ENCODING 96
SWIDTH 75 0
DWIDTH -1 0
BBX 0 0 12 23
ENDCHAR
STARTCHAR a
ENCODING 97
SWIDTH 75 0
DWIDTH -1 0
BBX 0 0 12 23
ENDCHAR
STARTCHAR b
ENCODING 98
SWIDTH 75 0
DWIDTH -1 0
BBX 0 0 12 23
ENDCHAR
STARTCHAR c
ENCODING 99
SWIDTH 75 0
DWIDTH -1 0
BBX 0 0 12 23
ENDCHAR
STARTCHAR d
ENCODING 100
SWIDTH 75 0
DWIDTH -1 0
BBX 0 0 12 23
ENDCHAR
STARTCHAR e
ENCODING 101
SWIDTH 75 0
DWIDTH -1 0
BBX 0 0 12 23
ENDCHAR
STARTCHAR f
ENCODING 102
SWIDTH 75 0
DWIDTH -1 0
BBX 0 0 12 23
ENDCHAR
STARTCHAR g
ENCODING 103
SWIDTH 75 0
DWIDTH -1 0
BBX 0 0 12 23
ENDCHAR
STARTCHAR h
ENCODING 104
SWIDTH 75 0
DWIDTH -1 0
BBX 0 0 12 23
ENDCHAR
STARTCHAR i
ENCODING 105
SWIDTH 75 0
DWIDTH -1 0
BBX 0 0 12 23
ENDCHAR
STARTCHAR j
ENCODING 106
SWIDTH 75 0
DWIDTH -1 0
BBX 0 0 12 23
ENDCHAR
STARTCHAR k
ENCODING 107
SWIDTH 75 0
DWIDTH -1 0
BBX 0 0 12 23
ENDCHAR
STARTCHAR l
ENCODING 108
SWIDTH 75 0
DWIDTH -1 0
BBX 0 0 12 23
ENDCHAR
STARTCHAR m
ENCODING 109
SWIDTH 75 0
DWIDTH -1 0
BBX 0 0 12 23
ENDCHAR
STARTCHAR n
ENCODING 110
SWIDTH 75 0
DWIDTH -1 0
BBX 0 0 12 23
ENDCHAR
STARTCHAR o
ENCODING 111
SWIDTH 75 0
DWIDTH -1 0
BBX 0 0 12 23
ENDCHAR
STARTCHAR p
ENCODING 112
SWIDTH 75 0
DWIDTH -1 0
BBX 0 0 12 23
ENDCHAR
STARTCHAR q
ENCODING 113
SWIDTH 75 0
DWIDTH -1 0
BBX 0 0 12 23
ENDCHAR
STARTCHAR r
ENCODING 114
SWIDTH 75 0
DWIDTH -1 0
BBX 0 0 12 23
ENDCHAR
STARTCHAR s
ENCODING 115
SWIDTH 75 0
DWIDTH -1 0
BBX 0 0 12 23
ENDCHAR
STARTCHAR t
ENCODING 116
SWIDTH 75 0
DWIDTH -1 0
BBX 0 0 12 23
ENDCHAR
STARTCHAR u
ENCODING 117
SWIDTH 75 0
DWIDTH -1 0
BBX 0 0 12 23
ENDCHAR
STARTCHAR v
ENCODING 118
SWIDTH 75 0
DWIDTH -1 0
BBX 0 0 12 23
ENDCHAR
STARTCHAR w
ENCODING 119
SWIDTH 75 0
DWIDTH -1 0
BBX 0 0 12 23
ENDCHAR
STARTCHAR x
ENCODING 120
SWIDTH 75 0
DWIDTH -1 0
BBX 0 0 12 23
ENDCHAR
STARTCHAR y
ENCODING 121
SWIDTH 75 0
DWIDTH -1 0
BBX 0 0 12 23
ENDCHAR
STARTCHAR z
ENCODING 122
SWIDTH 75 0
DWIDTH -1 0
BBX 0 0 12 23
ENDCHAR
STARTCHAR {
ENCODING 123
SWIDTH 75 0
DWIDTH -1 0
BBX 0 0 12 23
ENDCHAR
STARTCHAR |
ENCODING 124
SWIDTH 75 0
DWIDTH -1 0
BBX 0 0 12 23
ENDCHAR
STARTCHAR }
ENCODING 125
SWIDTH 75 0
DWIDTH -1 0
BBX 0 0 12 23
ENDCHAR
STARTCHAR ~
ENCODING 126
SWIDTH 75 0
DWIDTH -1 0
BBX 0 0 12 23
ENDCHAR
STARTCHAR 
ENCODING 127
SWIDTH 75 0
DWIDTH -1 0
BBX 0 0 12 23
ENDCHAR
STARTCHAR f
ENCODING 102
SWIDTH 75 0
DWIDTH -1 0
BBX 0 0 12 23
ENDCHAR
STARTCHAR ¡
ENCODING -95
SWIDTH 75 0
DWIDTH -1 0
BBX 0 0 12 23
ENDCHAR
STARTCHAR £
ENCODING -93
SWIDTH 75 0
DWIDTH -1 0
BBX 0 0 12 23
ENDCHAR
STARTCHAR ª
ENCODING -86
SWIDTH 75 0
DWIDTH -1 0
BBX 0 0 12 23
ENDCHAR
STARTCHAR «
ENCODING -85
SWIDTH 75 0
DWIDTH -1 0
BBX 0 0 12 23
ENDCHAR
STARTCHAR ¬
ENCODING -84
SWIDTH 75 0
DWIDTH -1 0
BBX 0 0 12 23
ENDCHAR
STARTCHAR ®
ENCODING -82
SWIDTH 75 0
DWIDTH -1 0
BBX 0 0 12 23
ENDCHAR
STARTCHAR º
ENCODING -70
SWIDTH 75 0
DWIDTH -1 0
BBX 0 0 12 23
ENDCHAR
STARTCHAR »
ENCODING -69
SWIDTH 75 0
DWIDTH -1 0
BBX 0 0 12 23
ENDCHAR
STARTCHAR  
ENCODING 32
SWIDTH 75 0
DWIDTH -1 0
BBX 0 0 12 23
ENDCHAR
STARTCHAR  
ENCODING 32
SWIDTH 75 0
DWIDTH -1 0
BBX 0 0 12 23
ENDCHAR
STARTCHAR ¿
ENCODING -65
SWIDTH 75 0
DWIDTH -1 0
BBX 0 0 12 23
ENDCHAR
STARTCHAR Ä
ENCODING -60
SWIDTH 75 0
DWIDTH -1 0
BBX 0 0 12 23
ENDCHAR
STARTCHAR Å
ENCODING -59
SWIDTH 75 0
DWIDTH -1 0
BBX 0 0 12 23
ENDCHAR
STARTCHAR Æ
ENCODING -58
SWIDTH 75 0
DWIDTH -1 0
BBX 0 0 12 23
ENDCHAR
STARTCHAR Ç
ENCODING -57
SWIDTH 75 0
DWIDTH -1 0
BBX 0 0 12 23
ENDCHAR
STARTCHAR É
ENCODING -55
SWIDTH 75 0
DWIDTH -1 0
BBX 0 0 12 23
ENDCHAR
STARTCHAR Ñ
ENCODING -47
SWIDTH 75 0
DWIDTH -1 0
BBX 0 0 12 23
ENDCHAR
STARTCHAR Ö
ENCODING -42
SWIDTH 75 0
DWIDTH -1 0
BBX 0 0 12 23
ENDCHAR
STARTCHAR ×
ENCODING -41
SWIDTH 75 0
DWIDTH -1 0
BBX 0 0 12 23
ENDCHAR
STARTCHAR Ø
ENCODING -40
SWIDTH 75 0
DWIDTH -1 0
BBX 0 0 12 23
ENDCHAR
STARTCHAR Ü
ENCODING -36
SWIDTH 75 0
DWIDTH -1 0
BBX 0 0 12 23
ENDCHAR
STARTCHAR à
ENCODING -32
SWIDTH 75 0
DWIDTH -1 0
BBX 0 0 12 23
ENDCHAR
STARTCHAR á
ENCODING -31
SWIDTH 75 0
DWIDTH -1 0
BBX 0 0 12 23
ENDCHAR
STARTCHAR â
ENCODING -30
SWIDTH 75 0
DWIDTH -1 0
BBX 0 0 12 23
ENDCHAR
STARTCHAR ä
ENCODING -28
SWIDTH 75 0
DWIDTH -1 0
BBX 0 0 12 23
ENDCHAR
STARTCHAR å
ENCODING -27
SWIDTH 75 0
DWIDTH -1 0
BBX 0 0 12 23
ENDCHAR
STARTCHAR æ
ENCODING -26
SWIDTH 75 0
DWIDTH -1 0
BBX 0 0 12 23
ENDCHAR
STARTCHAR ç
ENCODING -25
SWIDTH 75 0
DWIDTH -1 0
BBX 0 0 12 23
ENDCHAR
STARTCHAR è
ENCODING -24
SWIDTH 75 0
DWIDTH -1 0
BBX 0 0 12 23
ENDCHAR
STARTCHAR é
ENCODING -23
SWIDTH 75 0
DWIDTH -1 0
BBX 0 0 12 23
ENDCHAR
STARTCHAR ê
ENCODING -22
SWIDTH 75 0
DWIDTH -1 0
BBX 0 0 12 23
ENDCHAR
STARTCHAR ë
ENCODING -21
SWIDTH 75 0
DWIDTH -1 0
BBX 0 0 12 23
ENDCHAR
STARTCHAR ì
ENCODING -20
SWIDTH 75 0
DWIDTH -1 0
BBX 0 0 12 23
ENDCHAR
STARTCHAR í
ENCODING -19
SWIDTH 75 0
DWIDTH -1 0
BBX 0 0 12 23
ENDCHAR
STARTCHAR î
ENCODING -18
SWIDTH 75 0
DWIDTH -1 0
BBX 0 0 12 23
ENDCHAR
STARTCHAR ï
ENCODING -17
SWIDTH 75 0
DWIDTH -1 0
BBX 0 0 12 23
ENDCHAR
STARTCHAR ñ
ENCODING -15
SWIDTH 75 0
DWIDTH -1 0
BBX 0 0 12 23
ENDCHAR
STARTCHAR ò
ENCODING -14
SWIDTH 75 0
DWIDTH -1 0
BBX 0 0 12 23
ENDCHAR
STARTCHAR ó
ENCODING -13
SWIDTH 75 0
DWIDTH -1 0
BBX 0 0 12 23
ENDCHAR
STARTCHAR ô
ENCODING -12
SWIDTH 75 0
DWIDTH -1 0
BBX 0 0 12 23
ENDCHAR
STARTCHAR ö
ENCODING -10
SWIDTH 75 0
DWIDTH -1 0
BBX 0 0 12 23
ENDCHAR
STARTCHAR ø
ENCODING -8
SWIDTH 75 0
DWIDTH -1 0
BBX 0 0 12 23
ENDCHAR
STARTCHAR ù
ENCODING -7
SWIDTH 75 0
DWIDTH -1 0
BBX 0 0 12 23
ENDCHAR
STARTCHAR ú
ENCODING -6
SWIDTH 75 0
DWIDTH -1 0
BBX 0 0 12 23
ENDCHAR
STARTCHAR û
ENCODING -5
SWIDTH 75 0
DWIDTH -1 0
BBX 0 0 12 23
ENDCHAR
STARTCHAR ü
ENCODING -4
SWIDTH 75 0
DWIDTH -1 0
BBX 0 0 12 23
ENDCHAR
STARTCHAR ÿ
ENCODING -1
SWIDTH 75 0
DWIDTH -1 0
BBX 0 0 12 23
ENDCHAR
ENDFONT
