STARTFONT 2.1
COMMENT Lumiplan font build using LumiStudio
FONT Duhamel 20/18 2-Condensed
SIZE 20 75 75
FONTBOUNDINGBOX 9 20 0 0
STARTPROPERTIES 1
Copyright "Copyright (c) 2021 Lumiplan"
ENDPROPERTIES
CHARS 189
STARTCHAR 
ENCODING 14
SWIDTH 75 0
DWIDTH -1 0
BBX 0 0 1 19
ENDCHAR
STARTCHAR  
ENCODING 32
SWIDTH 75 0
DWIDTH -1 0
BBX 0 0 2 19
ENDCHAR
STARTCHAR !
ENCODING 33
SWIDTH 75 0
DWIDTH -1 0
BBX 3 18 0 1
BITMAP
E0
E0
E0
E0
E0
E0
E0
E0
E0
E0
E0
E0
E0
00
00
E0
E0
E0
ENDCHAR
STARTCHAR "
ENCODING 34
SWIDTH 75 0
DWIDTH -1 0
BBX 8 4 0 15
BITMAP
77
77
66
88
ENDCHAR
STARTCHAR #
ENCODING 35
SWIDTH 75 0
DWIDTH -1 0
BBX 9 11 0 1
BITMAP
3600
3600
FF80
FF80
FF80
3600
FF80
FF80
FF80
3600
3600
ENDCHAR
STARTCHAR $
ENCODING 36
SWIDTH 75 0
DWIDTH -1 0
BBX 9 18 0 1
BITMAP
0800
7F00
FF80
FF80
EB80
E800
7800
3800
1C00
0E00
0F00
0B80
0B80
EB80
FF80
FF80
7F00
0800
ENDCHAR
STARTCHAR %
ENCODING 37
SWIDTH 75 0
DWIDTH -1 0
BBX 9 11 0 1
BITMAP
E080
E180
E380
0700
0E00
1C00
3800
7000
E380
C380
8380
ENDCHAR
STARTCHAR &
ENCODING 38
SWIDTH 75 0
DWIDTH -1 0
BBX 9 17 0 1
BITMAP
3E00
7F00
6300
6300
6300
3F00
3E00
1C00
3C00
6E00
EE00
E700
E700
E380
FF80
7F80
3E80
ENDCHAR
STARTCHAR '
ENCODING 39
SWIDTH 75 0
DWIDTH -1 0
BBX 4 4 0 15
BITMAP
70
70
60
80
ENDCHAR
STARTCHAR (
ENCODING 40
SWIDTH 75 0
DWIDTH -1 0
BBX 6 18 0 1
BITMAP
1C
38
70
70
E0
E0
E0
E0
E0
E0
E0
E0
E0
E0
70
70
38
1C
ENDCHAR
STARTCHAR )
ENCODING 41
SWIDTH 75 0
DWIDTH -1 0
BBX 6 18 0 1
BITMAP
E0
70
38
38
1C
1C
1C
1C
1C
1C
1C
1C
1C
1C
38
38
70
E0
ENDCHAR
STARTCHAR *
ENCODING 42
SWIDTH 75 0
DWIDTH -1 0
BBX 9 9 0 10
BITMAP
C980
EB80
7F00
3E00
FF80
3E00
7F00
EB80
C980
ENDCHAR
STARTCHAR +
ENCODING 43
SWIDTH 75 0
DWIDTH -1 0
BBX 9 11 0 1
BITMAP
1C00
1C00
1C00
1C00
FF80
FF80
FF80
1C00
1C00
1C00
1C00
ENDCHAR
STARTCHAR ,
ENCODING 44
SWIDTH 75 0
DWIDTH -1 0
BBX 4 4 0 0
BITMAP
70
70
60
80
ENDCHAR
STARTCHAR -
ENCODING 45
SWIDTH 75 0
DWIDTH -1 0
BBX 6 3 0 5
BITMAP
FC
FC
FC
ENDCHAR
STARTCHAR .
ENCODING 46
SWIDTH 75 0
DWIDTH -1 0
BBX 3 3 0 1
BITMAP
E0
E0
E0
ENDCHAR
STARTCHAR /
ENCODING 47
SWIDTH 75 0
DWIDTH -1 0
BBX 8 18 0 1
BITMAP
07
07
07
0E
0E
0E
1C
1C
1C
38
38
38
70
70
70
E0
E0
E0
ENDCHAR
STARTCHAR 0
ENCODING 48
SWIDTH 75 0
DWIDTH -1 0
BBX 9 18 0 1
BITMAP
3E00
7F00
FF80
E380
E380
E380
E380
E380
E380
E380
E380
E380
E380
E380
E380
FF80
7F00
3E00
ENDCHAR
STARTCHAR 1
ENCODING 49
SWIDTH 75 0
DWIDTH -1 0
BBX 5 18 0 1
BITMAP
18
38
78
F8
F8
38
38
38
38
38
38
38
38
38
38
38
38
38
ENDCHAR
STARTCHAR 2
ENCODING 50
SWIDTH 75 0
DWIDTH -1 0
BBX 9 18 0 1
BITMAP
3E00
7F00
FF80
E380
E380
0380
0380
0700
0E00
1C00
3800
7000
E000
E000
E000
FF80
FF80
FF80
ENDCHAR
STARTCHAR 3
ENCODING 51
SWIDTH 75 0
DWIDTH -1 0
BBX 9 18 0 1
BITMAP
7F00
FF80
FF80
E380
E380
0380
0380
0700
0E00
0E00
0700
0380
0380
E380
E380
FF80
7F80
3F00
ENDCHAR
STARTCHAR 4
ENCODING 52
SWIDTH 75 0
DWIDTH -1 0
BBX 9 18 0 1
BITMAP
0780
0F80
0F80
1B80
1B80
3380
3380
6380
6380
C380
FF80
FF80
FF80
0380
0380
0380
0380
0380
ENDCHAR
STARTCHAR 5
ENCODING 53
SWIDTH 75 0
DWIDTH -1 0
BBX 9 18 0 1
BITMAP
FF80
FF80
FF80
E000
E000
E000
E000
FE00
FF00
FF80
0380
0380
0380
E380
E380
FF80
FF00
7E00
ENDCHAR
STARTCHAR 6
ENCODING 54
SWIDTH 75 0
DWIDTH -1 0
BBX 9 18 0 1
BITMAP
1F00
3F00
7F00
F000
E000
E000
E000
E000
FE00
FF00
FF80
E380
E380
E380
E380
FF80
7F00
3E00
ENDCHAR
STARTCHAR 7
ENCODING 55
SWIDTH 75 0
DWIDTH -1 0
BBX 9 18 0 1
BITMAP
FF80
FF80
FF80
0380
0380
0700
0700
0E00
0E00
1C00
1C00
3800
3800
3800
3800
3800
3800
3800
ENDCHAR
STARTCHAR 8
ENCODING 56
SWIDTH 75 0
DWIDTH -1 0
BBX 9 18 0 1
BITMAP
3E00
7F00
FF80
E380
E380
E380
E380
7F00
3E00
7F00
E380
E380
E380
E380
E380
FF80
7F00
3E00
ENDCHAR
STARTCHAR 9
ENCODING 57
SWIDTH 75 0
DWIDTH -1 0
BBX 9 18 0 1
BITMAP
3E00
7F00
FF80
E380
E380
E380
E380
FF80
7F80
3F80
0380
0380
0380
0380
0780
7F00
7E00
7C00
ENDCHAR
STARTCHAR :
ENCODING 58
SWIDTH 75 0
DWIDTH -1 0
BBX 3 10 0 1
BITMAP
E0
E0
E0
00
00
00
00
E0
E0
E0
ENDCHAR
STARTCHAR ;
ENCODING 59
SWIDTH 75 0
DWIDTH -1 0
BBX 4 11 0 0
BITMAP
70
70
70
00
00
00
00
70
70
60
80
ENDCHAR
STARTCHAR <
ENCODING 60
SWIDTH 75 0
DWIDTH -1 0
BBX 8 18 0 1
BITMAP
03
07
0E
1C
38
70
E0
E0
C0
C0
E0
E0
70
38
1C
0E
07
03
ENDCHAR
STARTCHAR =
ENCODING 61
SWIDTH 75 0
DWIDTH -1 0
BBX 7 6 0 3
BITMAP
FE
FE
00
00
FE
FE
ENDCHAR
STARTCHAR >
ENCODING 62
SWIDTH 75 0
DWIDTH -1 0
BBX 8 18 1 1
BITMAP
C0
E0
70
38
1C
0E
07
07
03
03
07
07
0E
1C
38
70
E0
C0
ENDCHAR
STARTCHAR ?
ENCODING 63
SWIDTH 75 0
DWIDTH -1 0
BBX 9 18 0 1
BITMAP
3E00
7F00
FF80
E380
E380
E380
0700
0E00
1C00
1C00
1C00
1C00
1C00
0000
0000
1C00
1C00
1C00
ENDCHAR
STARTCHAR @
ENCODING 64
SWIDTH 75 0
DWIDTH -1 0
BBX 9 18 0 1
BITMAP
3E00
7F00
FF80
E180
E180
E180
E780
EF80
ED80
EF80
E780
E000
E000
E000
E180
FF80
7F00
3E00
ENDCHAR
STARTCHAR A
ENCODING 65
SWIDTH 75 0
DWIDTH -1 0
BBX 9 18 0 1
BITMAP
3E00
7F00
FF80
E380
E380
E380
E380
FF80
FF80
FF80
E380
E380
E380
E380
E380
E380
E380
E380
ENDCHAR
STARTCHAR B
ENCODING 66
SWIDTH 75 0
DWIDTH -1 0
BBX 9 18 0 1
BITMAP
FE00
FF00
FF80
E380
E380
E380
E380
FF00
FE00
FF00
E380
E380
E380
E380
E380
FF80
FF00
FE00
ENDCHAR
STARTCHAR C
ENCODING 67
SWIDTH 75 0
DWIDTH -1 0
BBX 9 18 0 1
BITMAP
3E00
7F00
FF80
E380
E380
E000
E000
E000
E000
E000
E000
E000
E000
E380
E380
FF80
7F00
3E00
ENDCHAR
STARTCHAR D
ENCODING 68
SWIDTH 75 0
DWIDTH -1 0
BBX 9 18 0 1
BITMAP
FE00
FF00
FF80
E380
E380
E380
E380
E380
E380
E380
E380
E380
E380
E380
E380
FF80
FF00
FE00
ENDCHAR
STARTCHAR E
ENCODING 69
SWIDTH 75 0
DWIDTH -1 0
BBX 8 18 0 1
BITMAP
FF
FF
FF
E0
E0
E0
E0
FC
FC
FC
E0
E0
E0
E0
E0
FF
FF
FF
ENDCHAR
STARTCHAR F
ENCODING 70
SWIDTH 75 0
DWIDTH -1 0
BBX 8 18 0 1
BITMAP
FF
FF
FF
E0
E0
E0
E0
FE
FE
FE
E0
E0
E0
E0
E0
E0
E0
E0
ENDCHAR
STARTCHAR G
ENCODING 71
SWIDTH 75 0
DWIDTH -1 0
BBX 9 18 0 1
BITMAP
3E00
7F00
FF80
E380
E380
E000
E000
E000
EF80
EF80
EF80
E380
E380
E380
E380
FF80
7F00
3E00
ENDCHAR
STARTCHAR H
ENCODING 72
SWIDTH 75 0
DWIDTH -1 0
BBX 9 18 0 1
BITMAP
E380
E380
E380
E380
E380
E380
E380
FF80
FF80
FF80
E380
E380
E380
E380
E380
E380
E380
E380
ENDCHAR
STARTCHAR I
ENCODING 73
SWIDTH 75 0
DWIDTH -1 0
BBX 3 18 0 1
BITMAP
E0
E0
E0
E0
E0
E0
E0
E0
E0
E0
E0
E0
E0
E0
E0
E0
E0
E0
ENDCHAR
STARTCHAR J
ENCODING 74
SWIDTH 75 0
DWIDTH -1 0
BBX 7 18 0 1
BITMAP
0E
0E
0E
0E
0E
0E
0E
0E
0E
0E
0E
0E
0E
EE
EE
FE
7C
38
ENDCHAR
STARTCHAR K
ENCODING 75
SWIDTH 75 0
DWIDTH -1 0
BBX 9 18 0 1
BITMAP
E380
E380
E380
E380
E380
E700
EE00
FC00
FC00
FC00
EE00
E700
E380
E380
E380
E380
E380
E380
ENDCHAR
STARTCHAR L
ENCODING 76
SWIDTH 75 0
DWIDTH -1 0
BBX 8 18 0 1
BITMAP
E0
E0
E0
E0
E0
E0
E0
E0
E0
E0
E0
E0
E0
E0
E0
FF
FF
FF
ENDCHAR
STARTCHAR M
ENCODING 77
SWIDTH 75 0
DWIDTH -1 0
BBX 9 18 0 1
BITMAP
C180
E380
F780
FF80
FF80
EB80
E380
E380
E380
E380
E380
E380
E380
E380
E380
E380
E380
E380
ENDCHAR
STARTCHAR N
ENCODING 78
SWIDTH 75 0
DWIDTH -1 0
BBX 9 18 0 1
BITMAP
C380
E380
F380
FB80
FF80
EF80
E780
E380
E380
E380
E380
E380
E380
E380
E380
E380
E380
E380
ENDCHAR
STARTCHAR O
ENCODING 79
SWIDTH 75 0
DWIDTH -1 0
BBX 9 18 0 1
BITMAP
3E00
7F00
FF80
E380
E380
E380
E380
E380
E380
E380
E380
E380
E380
E380
E380
FF80
7F00
3E00
ENDCHAR
STARTCHAR P
ENCODING 80
SWIDTH 75 0
DWIDTH -1 0
BBX 9 18 0 1
BITMAP
FE00
FF00
FF80
E380
E380
E380
E380
FF80
FF00
FE00
E000
E000
E000
E000
E000
E000
E000
E000
ENDCHAR
STARTCHAR Q
ENCODING 81
SWIDTH 75 0
DWIDTH -1 0
BBX 9 18 0 1
BITMAP
3E00
7F00
FF80
E380
E380
E380
E380
E380
E380
E380
E380
E380
E380
EF80
EF80
FF00
7F80
3D80
ENDCHAR
STARTCHAR R
ENCODING 82
SWIDTH 75 0
DWIDTH -1 0
BBX 9 18 0 1
BITMAP
FE00
FF00
FF80
E380
E380
E380
E380
FF80
FF00
FE00
EF00
E780
E380
E380
E380
E380
E380
E380
ENDCHAR
STARTCHAR S
ENCODING 83
SWIDTH 75 0
DWIDTH -1 0
BBX 9 18 0 1
BITMAP
3E00
7F00
FF80
E380
E380
E000
7000
3800
1C00
0E00
0700
0380
E380
E380
E380
FF80
7F00
3E00
ENDCHAR
STARTCHAR T
ENCODING 84
SWIDTH 75 0
DWIDTH -1 0
BBX 9 18 0 1
BITMAP
FF80
FF80
FF80
1C00
1C00
1C00
1C00
1C00
1C00
1C00
1C00
1C00
1C00
1C00
1C00
1C00
1C00
1C00
ENDCHAR
STARTCHAR U
ENCODING 85
SWIDTH 75 0
DWIDTH -1 0
BBX 9 18 0 1
BITMAP
E380
E380
E380
E380
E380
E380
E380
E380
E380
E380
E380
E380
E380
E380
E380
FF80
7F00
3E00
ENDCHAR
STARTCHAR V
ENCODING 86
SWIDTH 75 0
DWIDTH -1 0
BBX 9 18 0 1
BITMAP
E380
E380
E380
E380
E380
E380
E380
E380
E380
E380
E380
E380
E380
F780
7F00
3E00
1C00
0800
ENDCHAR
STARTCHAR W
ENCODING 87
SWIDTH 75 0
DWIDTH -1 0
BBX 9 18 0 1
BITMAP
E380
E380
E380
E380
E380
E380
E380
E380
E380
E380
E380
E380
EB80
FF80
FF80
F780
E380
C180
ENDCHAR
STARTCHAR X
ENCODING 88
SWIDTH 75 0
DWIDTH -1 0
BBX 9 18 0 1
BITMAP
E380
E380
E380
E380
E380
F780
7F00
3E00
1C00
1C00
3E00
7F00
F780
E380
E380
E380
E380
E380
ENDCHAR
STARTCHAR Y
ENCODING 89
SWIDTH 75 0
DWIDTH -1 0
BBX 9 18 0 1
BITMAP
E380
E380
E380
E380
E380
E380
E380
F780
7F00
3E00
1C00
1C00
1C00
1C00
1C00
1C00
1C00
1C00
ENDCHAR
STARTCHAR Z
ENCODING 90
SWIDTH 75 0
DWIDTH -1 0
BBX 9 18 0 1
BITMAP
FF80
FF80
FF80
0380
0700
0700
0E00
0E00
1C00
1C00
3800
3800
7000
7000
E000
FF80
FF80
FF80
ENDCHAR
STARTCHAR [
ENCODING 91
SWIDTH 75 0
DWIDTH -1 0
BBX 5 18 0 1
BITMAP
F8
F8
F8
E0
E0
E0
E0
E0
E0
E0
E0
E0
E0
E0
E0
F8
F8
F8
ENDCHAR
STARTCHAR \
ENCODING 92
SWIDTH 75 0
DWIDTH -1 0
BBX 8 18 0 1
BITMAP
E0
E0
E0
70
70
70
38
38
38
1C
1C
1C
0E
0E
0E
07
07
07
ENDCHAR
STARTCHAR ]
ENCODING 93
SWIDTH 75 0
DWIDTH -1 0
BBX 5 18 0 1
BITMAP
F8
F8
F8
38
38
38
38
38
38
38
38
38
38
38
38
F8
F8
F8
ENDCHAR
STARTCHAR ^
ENCODING 94
SWIDTH 75 0
DWIDTH -1 0
BBX 9 5 0 14
BITMAP
0800
1C00
3600
6300
C180
ENDCHAR
STARTCHAR _
ENCODING 95
SWIDTH 75 0
DWIDTH -1 0
BBX 9 3 0 1
BITMAP
FF80
FF80
FF80
ENDCHAR
STARTCHAR `
ENCODING 96
SWIDTH 75 0
DWIDTH -1 0
BBX 4 4 0 15
BITMAP
E0
E0
60
10
ENDCHAR
STARTCHAR a
ENCODING 97
SWIDTH 75 0
DWIDTH -1 0
BBX 9 12 0 1
BITMAP
7E00
7F00
7F80
0380
3B80
7F80
FF80
E380
E380
FF80
FF80
7B80
ENDCHAR
STARTCHAR b
ENCODING 98
SWIDTH 75 0
DWIDTH -1 0
BBX 9 18 0 1
BITMAP
E000
E000
E000
E000
E000
E000
EE00
FF00
FF80
E380
E380
E380
E380
E380
E380
FF80
FF00
EE00
ENDCHAR
STARTCHAR c
ENCODING 99
SWIDTH 75 0
DWIDTH -1 0
BBX 9 12 0 1
BITMAP
3E00
7F00
FF80
E380
E380
E000
E000
E380
E380
FF80
7F00
3E00
ENDCHAR
STARTCHAR d
ENCODING 100
SWIDTH 75 0
DWIDTH -1 0
BBX 9 18 0 1
BITMAP
0380
0380
0380
0380
0380
0380
3B80
7F80
FF80
E380
E380
E380
E380
E380
E380
FF80
7F80
3B80
ENDCHAR
STARTCHAR e
ENCODING 101
SWIDTH 75 0
DWIDTH -1 0
BBX 9 12 0 1
BITMAP
3E00
7F00
FF80
E380
E380
FF00
FE00
E000
E000
FF00
7F00
3E00
ENDCHAR
STARTCHAR f
ENCODING 102
SWIDTH 75 0
DWIDTH -1 0
BBX 9 18 0 1
BITMAP
1E00
3F00
7F80
7180
7000
7000
7000
FC00
FC00
FC00
7000
7000
7000
7000
7000
7000
7000
7000
ENDCHAR
STARTCHAR g
ENCODING 103
SWIDTH 75 0
DWIDTH -1 0
BBX 9 13 0 0
BITMAP
3D80
7F80
FF80
E380
E380
FF80
7F80
3B80
0380
0380
0780
7F00
3E00
ENDCHAR
STARTCHAR h
ENCODING 104
SWIDTH 75 0
DWIDTH -1 0
BBX 9 18 0 1
BITMAP
E000
E000
E000
E000
E000
E000
EE00
FF00
FF80
F380
E380
E380
E380
E380
E380
E380
E380
E380
ENDCHAR
STARTCHAR i
ENCODING 105
SWIDTH 75 0
DWIDTH -1 0
BBX 3 16 0 1
BITMAP
E0
E0
E0
00
E0
E0
E0
E0
E0
E0
E0
E0
E0
E0
E0
E0
ENDCHAR
STARTCHAR j
ENCODING 106
SWIDTH 75 0
DWIDTH -1 0
BBX 7 17 0 0
BITMAP
0E
0E
0E
00
0E
0E
0E
0E
0E
0E
0E
0E
0E
0E
EE
7E
3C
ENDCHAR
STARTCHAR k
ENCODING 107
SWIDTH 75 0
DWIDTH -1 0
BBX 9 18 0 1
BITMAP
E000
E000
E000
E000
E000
E000
E380
E700
EE00
FC00
F800
F800
F800
F800
FC00
EE00
E700
E380
ENDCHAR
STARTCHAR l
ENCODING 108
SWIDTH 75 0
DWIDTH -1 0
BBX 3 18 0 1
BITMAP
E0
E0
E0
E0
E0
E0
E0
E0
E0
E0
E0
E0
E0
E0
E0
E0
E0
E0
ENDCHAR
STARTCHAR m
ENCODING 109
SWIDTH 75 0
DWIDTH -1 0
BBX 9 12 0 1
BITMAP
ED00
FF80
ED80
ED80
ED80
ED80
ED80
ED80
ED80
ED80
ED80
ED80
ENDCHAR
STARTCHAR n
ENCODING 110
SWIDTH 75 0
DWIDTH -1 0
BBX 9 12 0 1
BITMAP
DE00
FF00
E380
E380
E380
E380
E380
E380
E380
E380
E380
E380
ENDCHAR
STARTCHAR o
ENCODING 111
SWIDTH 75 0
DWIDTH -1 0
BBX 9 12 0 1
BITMAP
3E00
7F00
FF80
E380
E380
E380
E380
E380
E380
FF80
7F00
3E00
ENDCHAR
STARTCHAR p
ENCODING 112
SWIDTH 75 0
DWIDTH -1 0
BBX 9 13 0 0
BITMAP
DE00
FF00
FF80
E380
E380
FF80
FF00
EE00
E000
E000
E000
E000
E000
ENDCHAR
STARTCHAR q
ENCODING 113
SWIDTH 75 0
DWIDTH -1 0
BBX 9 13 0 0
BITMAP
3D80
7F80
FF80
E380
E380
FF80
7F80
3B80
0380
0380
0380
0380
0380
ENDCHAR
STARTCHAR r
ENCODING 114
SWIDTH 75 0
DWIDTH -1 0
BBX 9 12 0 1
BITMAP
EE00
FF00
FF80
F380
E000
E000
E000
E000
E000
E000
E000
E000
ENDCHAR
STARTCHAR s
ENCODING 115
SWIDTH 75 0
DWIDTH -1 0
BBX 9 12 0 1
BITMAP
3E00
7F00
E300
E000
FE00
7F00
3F80
0380
0380
E380
7F00
3E00
ENDCHAR
STARTCHAR t
ENCODING 116
SWIDTH 75 0
DWIDTH -1 0
BBX 9 18 0 1
BITMAP
3800
3800
3800
3800
3800
3800
FE00
FE00
FE00
3800
3800
3800
3800
3800
3980
3F80
1F00
0E00
ENDCHAR
STARTCHAR u
ENCODING 117
SWIDTH 75 0
DWIDTH -1 0
BBX 9 12 0 1
BITMAP
E380
E380
E380
E380
E380
E380
E380
E380
E380
FF80
7F80
3D80
ENDCHAR
STARTCHAR v
ENCODING 118
SWIDTH 75 0
DWIDTH -1 0
BBX 9 12 0 1
BITMAP
E380
E380
E380
E380
E380
E380
E380
E380
E380
7700
3E00
1C00
ENDCHAR
STARTCHAR w
ENCODING 119
SWIDTH 75 0
DWIDTH -1 0
BBX 9 12 0 1
BITMAP
E380
E380
E380
E380
E380
E380
E380
E380
E380
EB80
7700
2200
ENDCHAR
STARTCHAR x
ENCODING 120
SWIDTH 75 0
DWIDTH -1 0
BBX 9 12 0 1
BITMAP
E380
E380
E380
7700
3E00
1C00
1C00
3E00
7700
E380
E380
E380
ENDCHAR
STARTCHAR y
ENCODING 121
SWIDTH 75 0
DWIDTH -1 0
BBX 9 13 0 0
BITMAP
E380
E380
E380
E380
E380
E380
7F80
3F80
0380
0380
7F80
7F00
7E00
ENDCHAR
STARTCHAR z
ENCODING 122
SWIDTH 75 0
DWIDTH -1 0
BBX 9 12 0 1
BITMAP
FF80
FF80
FF80
0300
0600
0C00
1800
3000
6000
FF80
FF80
FF80
ENDCHAR
STARTCHAR {
ENCODING 123
SWIDTH 75 0
DWIDTH -1 0
BBX 6 18 0 1
BITMAP
1C
3C
3C
38
38
38
38
78
F8
78
38
38
38
38
38
3C
1C
1C
ENDCHAR
STARTCHAR |
ENCODING 124
SWIDTH 75 0
DWIDTH -1 0
BBX 3 18 0 1
BITMAP
E0
E0
E0
E0
E0
E0
E0
E0
E0
E0
E0
E0
E0
E0
E0
E0
E0
E0
ENDCHAR
STARTCHAR }
ENCODING 125
SWIDTH 75 0
DWIDTH -1 0
BBX 6 18 0 1
BITMAP
E0
F0
F0
70
70
70
70
78
7C
78
70
70
70
70
70
F0
E0
E0
ENDCHAR
STARTCHAR ~
ENCODING 126
SWIDTH 75 0
DWIDTH -1 0
BBX 9 4 0 8
BITMAP
7880
FD80
DF80
8F00
ENDCHAR
STARTCHAR ¤
ENCODING -92
SWIDTH 75 0
DWIDTH -1 0
BBX 9 18 0 1
BITMAP
1E00
3F00
7F80
7000
7000
7000
FF00
FF00
7000
7000
FF00
FF00
7000
7000
7000
7F80
3F00
1E00
ENDCHAR
STARTCHAR ¦
ENCODING -90
SWIDTH 75 0
DWIDTH -1 0
BBX 9 19 0 1
BITMAP
6300
3600
1C00
0800
3E00
7F00
FF80
E380
F000
7800
3C00
1E00
0F00
0780
0380
E380
FF80
7F00
3E00
ENDCHAR
STARTCHAR ¼
ENCODING -68
SWIDTH 75 0
DWIDTH -1 0
BBX 9 18 0 1
BITMAP
3B80
7F80
FF80
E600
E600
E600
E600
E780
E780
E780
E600
E600
E600
E600
E600
FF80
7F80
3B80
ENDCHAR
STARTCHAR ´
ENCODING -76
SWIDTH 75 0
DWIDTH -1 0
BBX 9 19 0 1
BITMAP
6300
3600
1C00
0800
FF80
FF80
FF80
0700
0700
0E00
0E00
1C00
1C00
3800
3800
7000
7F80
FF80
FF80
ENDCHAR
STARTCHAR ¨
ENCODING -88
SWIDTH 75 0
DWIDTH -1 0
BBX 9 17 0 1
BITMAP
6300
3600
1C00
0800
0000
3E00
7F00
E300
E000
FE00
7F00
3F80
0380
0380
E380
7F00
3E00
ENDCHAR
STARTCHAR ½
ENCODING -67
SWIDTH 75 0
DWIDTH -1 0
BBX 0 0 9 19
ENDCHAR
STARTCHAR ¸
ENCODING -72
SWIDTH 75 0
DWIDTH -1 0
BBX 9 16 0 1
BITMAP
6300
3600
1C00
0800
0000
FF80
FF80
FF80
0700
0E00
1C00
3800
7000
FF80
FF80
FF80
ENDCHAR
STARTCHAR ¾
ENCODING -66
SWIDTH 75 0
DWIDTH -1 0
BBX 9 19 0 1
BITMAP
E380
E380
E380
0000
E380
E380
E380
E380
E380
F780
7F00
3E00
1C00
1C00
1C00
1C00
1C00
1C00
1C00
ENDCHAR
STARTCHAR ¡
ENCODING -95
SWIDTH 75 0
DWIDTH -1 0
BBX 3 18 0 1
BITMAP
E0
E0
E0
00
00
E0
E0
E0
E0
E0
E0
E0
E0
E0
E0
E0
E0
E0
ENDCHAR
STARTCHAR ¢
ENCODING -94
SWIDTH 75 0
DWIDTH -1 0
BBX 9 15 0 3
BITMAP
0400
0400
3E00
7F00
FF80
EB80
E800
E800
E800
EB80
FF80
7F00
3E00
1000
1000
ENDCHAR
STARTCHAR £
ENCODING -93
SWIDTH 75 0
DWIDTH -1 0
BBX 9 17 0 1
BITMAP
3E00
7F00
FF80
E380
E000
6000
6000
6000
FE00
FE00
6000
6000
6000
E380
FF80
FF00
BE00
ENDCHAR
STARTCHAR ¥
ENCODING -91
SWIDTH 75 0
DWIDTH -1 0
BBX 9 15 0 1
BITMAP
E380
E380
E380
E380
E380
E380
7700
FF80
1C00
FF80
1C00
1C00
1C00
1C00
1C00
ENDCHAR
STARTCHAR §
ENCODING -89
SWIDTH 75 0
DWIDTH -1 0
BBX 9 17 0 1
BITMAP
3F00
7F80
6180
7000
3800
7C00
FE00
E700
E380
7380
3F80
1F00
0E00
0700
C300
FF00
7E00
ENDCHAR
STARTCHAR ©
ENCODING -87
SWIDTH 75 0
DWIDTH -1 0
BBX 9 10 0 4
BITMAP
7F00
8080
9E80
BE80
B080
B080
BE80
9E80
8080
7F00
ENDCHAR
STARTCHAR ª
ENCODING -86
SWIDTH 75 0
DWIDTH -1 0
BBX 5 5 0 12
BITMAP
70
08
78
88
78
ENDCHAR
STARTCHAR «
ENCODING -85
SWIDTH 75 0
DWIDTH -1 0
BBX 8 7 0 2
BITMAP
1B
36
6C
D8
6C
36
1B
ENDCHAR
STARTCHAR ¬
ENCODING -84
SWIDTH 75 0
DWIDTH -1 0
BBX 7 5 0 9
BITMAP
FE
02
02
02
02
ENDCHAR
STARTCHAR ®
ENCODING -82
SWIDTH 75 0
DWIDTH -1 0
BBX 9 10 0 4
BITMAP
7F00
8080
BC80
A280
BC80
A880
A480
A280
8080
7F00
ENDCHAR
STARTCHAR ¯
ENCODING -81
SWIDTH 75 0
DWIDTH -1 0
BBX 7 2 0 13
BITMAP
FE
FE
ENDCHAR
STARTCHAR °
ENCODING -80
SWIDTH 75 0
DWIDTH -1 0
BBX 6 6 0 12
BITMAP
30
30
CC
CC
30
30
ENDCHAR
STARTCHAR ±
ENCODING -79
SWIDTH 75 0
DWIDTH -1 0
BBX 9 13 0 3
BITMAP
1C00
1C00
1C00
FF80
FF80
FF80
1C00
1C00
1C00
0000
FF80
FF80
FF80
ENDCHAR
STARTCHAR ²
ENCODING -78
SWIDTH 75 0
DWIDTH -1 0
BBX 5 7 0 13
BITMAP
70
88
10
20
40
80
F8
ENDCHAR
STARTCHAR ³
ENCODING -77
SWIDTH 75 0
DWIDTH -1 0
BBX 5 7 0 13
BITMAP
70
88
10
20
10
88
70
ENDCHAR
STARTCHAR µ
ENCODING -75
SWIDTH 75 0
DWIDTH -1 0
BBX 9 14 0 0
BITMAP
E380
E380
E380
E380
E380
E380
E380
F780
FD80
FD80
E000
E000
E000
E000
ENDCHAR
STARTCHAR ·
ENCODING -73
SWIDTH 75 0
DWIDTH -1 0
BBX 3 3 3 8
BITMAP
E0
E0
E0
ENDCHAR
STARTCHAR ¹
ENCODING -71
SWIDTH 75 0
DWIDTH -1 0
BBX 3 7 0 13
BITMAP
40
C0
40
40
40
40
E0
ENDCHAR
STARTCHAR º
ENCODING -70
SWIDTH 75 0
DWIDTH -1 0
BBX 4 7 0 13
BITMAP
60
90
90
90
90
90
60
ENDCHAR
STARTCHAR »
ENCODING -69
SWIDTH 75 0
DWIDTH -1 0
BBX 8 7 0 2
BITMAP
D8
6C
36
1B
36
6C
D8
ENDCHAR
STARTCHAR ¿
ENCODING -65
SWIDTH 75 0
DWIDTH -1 0
BBX 9 18 0 1
BITMAP
1C00
1C00
1C00
0000
0000
1C00
1C00
1C00
1C00
1C00
3800
7000
E380
E380
E380
FF80
7F00
3E00
ENDCHAR
STARTCHAR À
ENCODING -64
SWIDTH 75 0
DWIDTH -1 0
BBX 9 19 0 1
BITMAP
7000
3800
1C00
0E00
0000
3E00
7F00
FF80
E380
E380
E380
E380
FF80
FF80
FF80
E380
E380
E380
E380
ENDCHAR
STARTCHAR Á
ENCODING -63
SWIDTH 75 0
DWIDTH -1 0
BBX 9 19 0 1
BITMAP
0700
0E00
1C00
3800
0000
3E00
7F00
FF80
E380
E380
E380
E380
FF80
FF80
FF80
E380
E380
E380
E380
ENDCHAR
STARTCHAR Â
ENCODING -62
SWIDTH 75 0
DWIDTH -1 0
BBX 9 19 0 1
BITMAP
0800
1C00
3600
6380
0000
3E00
7F00
FF80
E380
E380
E380
E380
FF80
FF80
FF80
E380
E380
E380
E380
ENDCHAR
STARTCHAR Ã
ENCODING -61
SWIDTH 75 0
DWIDTH -1 0
BBX 9 19 0 1
BITMAP
7880
FD80
DF80
8F00
0000
3E00
7F00
FF80
E380
E380
E380
E380
FF80
FF80
FF80
E380
E380
E380
E380
ENDCHAR
STARTCHAR Ä
ENCODING -60
SWIDTH 75 0
DWIDTH -1 0
BBX 9 18 0 1
BITMAP
7700
7700
7700
0000
3E00
7F00
FF80
E380
E380
E380
E380
FF80
FF80
FF80
E380
E380
E380
E380
ENDCHAR
STARTCHAR Å
ENCODING -59
SWIDTH 75 0
DWIDTH -1 0
BBX 9 18 0 1
BITMAP
0800
1400
0800
0000
3E00
7F00
FF80
E380
E380
E380
E380
FF80
FF80
FF80
E380
E380
E380
E380
ENDCHAR
STARTCHAR Æ
ENCODING -58
SWIDTH 75 0
DWIDTH -1 0
BBX 9 18 0 1
BITMAP
3B80
7F80
FF80
E600
E600
E600
E600
FF80
FF80
FF80
E600
E600
E600
E600
E600
E780
E780
E780
ENDCHAR
STARTCHAR Ç
ENCODING -57
SWIDTH 75 0
DWIDTH -1 0
BBX 9 19 0 0
BITMAP
3E00
7F00
FF80
E380
E380
E000
E000
E000
E000
E000
E000
E000
E380
E380
FF80
7F00
3E00
1C00
7800
ENDCHAR
STARTCHAR È
ENCODING -56
SWIDTH 75 0
DWIDTH -1 0
BBX 8 19 0 1
BITMAP
70
38
1C
0E
00
FF
FF
FF
E0
E0
FF
FF
FF
E0
E0
E0
FF
FF
FF
ENDCHAR
STARTCHAR É
ENCODING -55
SWIDTH 75 0
DWIDTH -1 0
BBX 8 19 0 1
BITMAP
07
0E
1C
38
00
FF
FF
FF
E0
E0
FF
FF
FF
E0
E0
E0
FF
FF
FF
ENDCHAR
STARTCHAR Ê
ENCODING -54
SWIDTH 75 0
DWIDTH -1 0
BBX 8 19 0 1
BITMAP
08
1C
36
63
00
FF
FF
FF
E0
E0
FF
FF
FF
E0
E0
E0
FF
FF
FF
ENDCHAR
STARTCHAR Ë
ENCODING -53
SWIDTH 75 0
DWIDTH -1 0
BBX 8 18 0 1
BITMAP
77
77
77
00
FF
FF
FF
E0
E0
FF
FF
FF
E0
E0
E0
FF
FF
FF
ENDCHAR
STARTCHAR Ì
ENCODING -52
SWIDTH 75 0
DWIDTH -1 0
BBX 6 19 0 1
BITMAP
E0
70
38
1C
00
70
70
70
70
70
70
70
70
70
70
70
70
70
70
ENDCHAR
STARTCHAR Í
ENCODING -51
SWIDTH 75 0
DWIDTH -1 0
BBX 6 19 1 1
BITMAP
1C
38
70
E0
00
38
38
38
38
38
38
38
38
38
38
38
38
38
38
ENDCHAR
STARTCHAR Î
ENCODING -50
SWIDTH 75 0
DWIDTH -1 0
BBX 7 19 0 1
BITMAP
10
38
6C
C6
00
38
38
38
38
38
38
38
38
38
38
38
38
38
38
ENDCHAR
STARTCHAR Ï
ENCODING -49
SWIDTH 75 0
DWIDTH -1 0
BBX 7 18 0 1
BITMAP
EE
EE
EE
00
38
38
38
38
38
38
38
38
38
38
38
38
38
38
ENDCHAR
STARTCHAR Ð
ENCODING -48
SWIDTH 75 0
DWIDTH -1 0
BBX 9 18 0 1
BITMAP
7E00
7F00
7F80
7380
7380
7380
7380
7380
FB80
FB80
7380
7380
7380
7380
7380
7F80
7F00
7E00
ENDCHAR
STARTCHAR Ñ
ENCODING -47
SWIDTH 75 0
DWIDTH -1 0
BBX 9 19 0 1
BITMAP
7880
FD80
DF80
8F00
0000
C380
E380
F380
FB80
FF80
EF80
E780
E380
E380
E380
E380
E380
E380
E380
ENDCHAR
STARTCHAR Ò
ENCODING -46
SWIDTH 75 0
DWIDTH -1 0
BBX 9 19 0 1
BITMAP
7000
3800
1C00
0E00
0000
3E00
7F00
FF80
E380
E380
E380
E380
E380
E380
E380
E380
FF80
7F00
3E00
ENDCHAR
STARTCHAR Ó
ENCODING -45
SWIDTH 75 0
DWIDTH -1 0
BBX 9 19 0 1
BITMAP
0700
0E00
1C00
3800
0000
3E00
7F00
FF80
E380
E380
E380
E380
E380
E380
E380
E380
FF80
7F00
3E00
ENDCHAR
STARTCHAR Ô
ENCODING -44
SWIDTH 75 0
DWIDTH -1 0
BBX 9 19 0 1
BITMAP
0800
1C00
3600
6300
0000
3E00
7F00
FF80
E380
E380
E380
E380
E380
E380
E380
E380
FF80
7F00
3E00
ENDCHAR
STARTCHAR Õ
ENCODING -43
SWIDTH 75 0
DWIDTH -1 0
BBX 9 19 0 1
BITMAP
7880
FD80
DF80
8F00
0000
3E00
7F00
FF80
E380
E380
E380
E380
E380
E380
E380
E380
FF80
7F00
3E00
ENDCHAR
STARTCHAR Ö
ENCODING -42
SWIDTH 75 0
DWIDTH -1 0
BBX 9 18 0 1
BITMAP
7700
7700
7700
0000
3E00
7F00
FF80
E380
E380
E380
E380
E380
E380
E380
E380
FF80
7F00
3E00
ENDCHAR
STARTCHAR ×
ENCODING -41
SWIDTH 75 0
DWIDTH -1 0
BBX 9 9 0 5
BITMAP
C180
E380
7700
3E00
1C00
3E00
7700
E380
C180
ENDCHAR
STARTCHAR Ø
ENCODING -40
SWIDTH 75 0
DWIDTH -1 0
BBX 9 17 0 0
BITMAP
0400
0400
3E00
7F00
FF80
EB80
EB80
EB80
EB80
EB80
EB80
EB80
EB80
FF80
7F00
3E00
1000
ENDCHAR
STARTCHAR Ù
ENCODING -39
SWIDTH 75 0
DWIDTH -1 0
BBX 9 19 0 1
BITMAP
7000
3800
1C00
0E00
0000
E380
E380
E380
E380
E380
E380
E380
E380
E380
E380
E380
FF80
7F00
3E00
ENDCHAR
STARTCHAR Ú
ENCODING -38
SWIDTH 75 0
DWIDTH -1 0
BBX 9 19 0 1
BITMAP
0700
0E00
1C00
3800
0000
E380
E380
E380
E380
E380
E380
E380
E380
E380
E380
E380
FF80
7F00
3E00
ENDCHAR
STARTCHAR Û
ENCODING -37
SWIDTH 75 0
DWIDTH -1 0
BBX 9 19 0 1
BITMAP
0800
1C00
3600
6300
0000
E380
E380
E380
E380
E380
E380
E380
E380
E380
E380
E380
FF80
7F00
3E00
ENDCHAR
STARTCHAR Ü
ENCODING -36
SWIDTH 75 0
DWIDTH -1 0
BBX 9 18 0 1
BITMAP
7700
7700
7700
0000
E380
E380
E380
E380
E380
E380
E380
E380
E380
E380
E380
FF80
7F00
3E00
ENDCHAR
STARTCHAR Ý
ENCODING -35
SWIDTH 75 0
DWIDTH -1 0
BBX 9 19 0 1
BITMAP
0700
0E00
1C00
3800
0000
E380
E380
E380
E380
E380
E380
F780
7F00
3E00
1C00
1C00
1C00
1C00
1C00
ENDCHAR
STARTCHAR Þ
ENCODING -34
SWIDTH 75 0
DWIDTH -1 0
BBX 9 18 0 1
BITMAP
E000
E000
E000
E000
E000
E000
FF00
FF80
FF80
E180
FF80
FF80
FF00
E000
E000
E000
E000
E000
ENDCHAR
STARTCHAR ß
ENCODING -33
SWIDTH 75 0
DWIDTH -1 0
BBX 9 19 0 0
BITMAP
7C00
FE00
FF00
E700
E700
E600
EE00
EE00
EF00
E780
E380
E380
E380
E380
E380
E780
EF00
EE00
E000
ENDCHAR
STARTCHAR à
ENCODING -32
SWIDTH 75 0
DWIDTH -1 0
BBX 9 17 0 1
BITMAP
7000
3800
1C00
0E00
0000
7E00
7F00
7F80
0380
3B80
7F80
FF80
E380
E380
FF80
FF80
7B80
ENDCHAR
STARTCHAR á
ENCODING -31
SWIDTH 75 0
DWIDTH -1 0
BBX 9 17 0 1
BITMAP
0380
0700
0E00
1C00
0000
3F00
3F80
3F80
0180
1D80
3F80
7F80
F180
F180
FF80
FF80
3D80
ENDCHAR
STARTCHAR â
ENCODING -30
SWIDTH 75 0
DWIDTH -1 0
BBX 9 17 0 1
BITMAP
0800
1C00
3600
6300
0000
7E00
7F00
7F80
0380
3B80
7F80
FF80
E380
E380
FF80
FF80
7B80
ENDCHAR
STARTCHAR ã
ENCODING -29
SWIDTH 75 0
DWIDTH -1 0
BBX 9 17 0 1
BITMAP
7880
FD80
DF80
8F00
0000
7E00
7F00
7F80
0380
3B80
7F80
FF80
E380
E380
FF80
FF80
7B80
ENDCHAR
STARTCHAR ä
ENCODING -28
SWIDTH 75 0
DWIDTH -1 0
BBX 9 17 0 1
BITMAP
7700
7700
7700
0000
0000
7E00
7F00
7F80
0380
3B80
7F80
FF80
E380
E380
FF80
FF80
7B80
ENDCHAR
STARTCHAR å
ENCODING -27
SWIDTH 75 0
DWIDTH -1 0
BBX 9 16 0 1
BITMAP
0800
1400
0800
0000
7E00
7F00
7F80
0380
3B80
7F80
FF80
E380
E380
FF80
FF80
7B80
ENDCHAR
STARTCHAR æ
ENCODING -26
SWIDTH 75 0
DWIDTH -1 0
BBX 9 12 0 1
BITMAP
7700
7F80
7F80
1980
1980
3F80
7F00
FC00
EC00
FF80
FF80
7700
ENDCHAR
STARTCHAR ç
ENCODING -25
SWIDTH 75 0
DWIDTH -1 0
BBX 9 13 0 0
BITMAP
7E00
FF00
FF80
E180
E000
E000
E000
E180
FF80
FF00
7E00
3C00
7800
ENDCHAR
STARTCHAR è
ENCODING -24
SWIDTH 75 0
DWIDTH -1 0
BBX 9 17 0 1
BITMAP
7000
3800
1C00
0E00
0000
3E00
7F00
FF80
E380
E380
FF00
FE00
E000
E000
FF00
7F00
3E00
ENDCHAR
STARTCHAR é
ENCODING -23
SWIDTH 75 0
DWIDTH -1 0
BBX 9 17 0 1
BITMAP
0700
0E00
1C00
3800
0000
3E00
7F00
FF80
E380
E380
FF00
FE00
E000
E000
FF00
7F00
3E00
ENDCHAR
STARTCHAR ê
ENCODING -22
SWIDTH 75 0
DWIDTH -1 0
BBX 9 17 0 1
BITMAP
0800
1C00
3600
6300
0000
3E00
7F00
FF80
E380
E380
FF00
FE00
E000
E000
FF00
7F00
3E00
ENDCHAR
STARTCHAR ë
ENCODING -21
SWIDTH 75 0
DWIDTH -1 0
BBX 9 16 0 1
BITMAP
7700
7700
7700
0000
3E00
7F00
FF80
E380
E380
FF00
FE00
E000
E000
FF00
7F00
3E00
ENDCHAR
STARTCHAR ì
ENCODING -20
SWIDTH 75 0
DWIDTH -1 0
BBX 6 17 1 1
BITMAP
E0
70
38
1C
00
38
38
38
38
38
38
38
38
38
38
38
38
ENDCHAR
STARTCHAR í
ENCODING -19
SWIDTH 75 0
DWIDTH -1 0
BBX 6 17 2 1
BITMAP
1C
38
70
E0
00
70
70
70
70
70
70
70
70
70
70
70
70
ENDCHAR
STARTCHAR î
ENCODING -18
SWIDTH 75 0
DWIDTH -1 0
BBX 7 17 1 1
BITMAP
10
38
6C
C6
00
38
38
38
38
38
38
38
38
38
38
38
38
ENDCHAR
STARTCHAR ï
ENCODING -17
SWIDTH 75 0
DWIDTH -1 0
BBX 7 16 1 1
BITMAP
EE
EE
EE
00
38
38
38
38
38
38
38
38
38
38
38
38
ENDCHAR
STARTCHAR ð
ENCODING -16
SWIDTH 75 0
DWIDTH -1 0
BBX 9 17 0 1
BITMAP
3200
1C00
1800
2400
0200
3E00
7F00
FF80
E380
E380
E380
E380
E380
E380
FF80
7F00
3E00
ENDCHAR
STARTCHAR ñ
ENCODING -15
SWIDTH 75 0
DWIDTH -1 0
BBX 9 17 0 1
BITMAP
7880
FD80
DF80
8F00
0000
DE00
FF00
E380
E380
E380
E380
E380
E380
E380
E380
E380
E380
ENDCHAR
STARTCHAR ò
ENCODING -14
SWIDTH 75 0
DWIDTH -1 0
BBX 9 17 0 1
BITMAP
7000
3800
1C00
0E00
0000
3E00
7F00
FF80
E380
E380
E380
E380
E380
E380
FF80
7F00
3E00
ENDCHAR
STARTCHAR ó
ENCODING -13
SWIDTH 75 0
DWIDTH -1 0
BBX 9 17 0 1
BITMAP
0700
0E00
1C00
3800
0000
3E00
7F00
FF80
E380
E380
E380
E380
E380
E380
FF80
7F00
3E00
ENDCHAR
STARTCHAR ô
ENCODING -12
SWIDTH 75 0
DWIDTH -1 0
BBX 9 17 0 1
BITMAP
0800
1C00
3600
6300
0000
3E00
7F00
FF80
E380
E380
E380
E380
E380
E380
FF80
7F00
3E00
ENDCHAR
STARTCHAR õ
ENCODING -11
SWIDTH 75 0
DWIDTH -1 0
BBX 9 17 0 1
BITMAP
7880
FD80
DF80
8F00
0000
3E00
7F00
FF80
E380
E380
E380
E380
E380
E380
FF80
7F00
3E00
ENDCHAR
STARTCHAR ö
ENCODING -10
SWIDTH 75 0
DWIDTH -1 0
BBX 9 16 0 1
BITMAP
7700
7700
7700
0000
3E00
7F00
FF80
E380
E380
E380
E380
E380
E380
FF80
7F00
3E00
ENDCHAR
STARTCHAR ÷
ENCODING -9
SWIDTH 75 0
DWIDTH -1 0
BBX 9 11 0 2
BITMAP
1C00
1C00
1C00
0000
FF80
FF80
FF80
0000
1C00
1C00
1C00
ENDCHAR
STARTCHAR ø
ENCODING -8
SWIDTH 75 0
DWIDTH -1 0
BBX 9 14 0 0
BITMAP
0400
3E00
7F00
FF80
EB80
EB80
EB80
EB80
EB80
EB80
FF80
7F00
3E00
1000
ENDCHAR
STARTCHAR ù
ENCODING -7
SWIDTH 75 0
DWIDTH -1 0
BBX 9 17 0 1
BITMAP
7000
3800
1C00
0E00
0000
E380
E380
E380
E380
E380
E380
E380
E380
E380
FF80
7F80
3D80
ENDCHAR
STARTCHAR ú
ENCODING -6
SWIDTH 75 0
DWIDTH -1 0
BBX 9 17 0 1
BITMAP
0700
0E00
1C00
3800
0000
E380
E380
E380
E380
E380
E380
E380
E380
E380
FF80
7F80
3D80
ENDCHAR
STARTCHAR û
ENCODING -5
SWIDTH 75 0
DWIDTH -1 0
BBX 9 17 0 1
BITMAP
0800
1C00
3600
6300
0000
E380
E380
E380
E380
E380
E380
E380
E380
E380
FF80
7F80
3D80
ENDCHAR
STARTCHAR ü
ENCODING -4
SWIDTH 75 0
DWIDTH -1 0
BBX 9 16 0 1
BITMAP
7700
7700
7700
0000
E380
E380
E380
E380
E380
E380
E380
E380
E380
FF80
7F80
3D80
ENDCHAR
STARTCHAR ý
ENCODING -3
SWIDTH 75 0
DWIDTH -1 0
BBX 9 17 0 1
BITMAP
0700
0E00
1C00
3800
0000
E380
E380
E380
E380
E380
E380
E380
E380
E380
FF80
7F80
3D80
ENDCHAR
STARTCHAR þ
ENCODING -2
SWIDTH 75 0
DWIDTH -1 0
BBX 9 16 0 1
BITMAP
E000
E000
E000
EE00
FF00
FF80
F380
E180
E180
F380
FF80
FF00
EE00
E000
E000
E000
ENDCHAR
STARTCHAR ÿ
ENCODING -1
SWIDTH 75 0
DWIDTH -1 0
BBX 9 17 0 0
BITMAP
7700
7700
7700
0000
E380
E380
E380
E380
E380
FF80
7F80
3F80
0380
0380
7F80
7F00
7E00
ENDCHAR
ENDFONT
