STARTFONT 2.1
COMMENT Lumiplan font build using LumiStudio
FONT 6
SIZE 10 75 75
FONTBOUNDINGBOX 7 10 0 0
STARTPROPERTIES 1
Copyright "Copyright (c) 2021 Lumiplan"
ENDPROPERTIES
CHARS 145
STARTCHAR 
ENCODING 14
SWIDTH 75 0
DWIDTH -1 0
BBX 0 0 1 9
ENDCHAR
STARTCHAR  
ENCODING 32
SWIDTH 75 0
DWIDTH -1 0
BBX 0 0 2 9
ENDCHAR
STARTCHAR !
ENCODING 33
SWIDTH 75 0
DWIDTH -1 0
BBX 2 10 0 0
BITMAP
C0
C0
C0
C0
C0
C0
C0
00
C0
C0
ENDCHAR
STARTCHAR "
ENCODING 34
SWIDTH 75 0
DWIDTH -1 0
BBX 6 4 0 6
BITMAP
6C
6C
48
90
ENDCHAR
STARTCHAR #
ENCODING 35
SWIDTH 75 0
DWIDTH -1 0
BBX 7 7 0 1
BITMAP
6C
FE
FE
6C
FE
FE
6C
ENDCHAR
STARTCHAR $
ENCODING 36
SWIDTH 75 0
DWIDTH -1 0
BBX 6 9 0 0
BITMAP
30
30
78
B0
78
34
F8
30
30
ENDCHAR
STARTCHAR %
ENCODING 37
SWIDTH 75 0
DWIDTH -1 0
BBX 7 6 0 2
BITMAP
C6
CC
18
30
66
C6
ENDCHAR
STARTCHAR &
ENCODING 38
SWIDTH 75 0
DWIDTH -1 0
BBX 0 0 7 9
ENDCHAR
STARTCHAR '
ENCODING 39
SWIDTH 75 0
DWIDTH -1 0
BBX 3 4 0 6
BITMAP
60
60
40
80
ENDCHAR
STARTCHAR (
ENCODING 40
SWIDTH 75 0
DWIDTH -1 0
BBX 3 10 0 0
BITMAP
60
E0
C0
C0
C0
C0
C0
C0
E0
60
ENDCHAR
STARTCHAR )
ENCODING 41
SWIDTH 75 0
DWIDTH -1 0
BBX 3 10 0 0
BITMAP
C0
E0
60
60
60
60
60
60
E0
C0
ENDCHAR
STARTCHAR *
ENCODING 42
SWIDTH 75 0
DWIDTH -1 0
BBX 6 8 0 0
BITMAP
30
B4
78
FC
FC
78
B4
30
ENDCHAR
STARTCHAR +
ENCODING 43
SWIDTH 75 0
DWIDTH -1 0
BBX 6 6 0 1
BITMAP
30
30
FC
FC
30
30
ENDCHAR
STARTCHAR ,
ENCODING 44
SWIDTH 75 0
DWIDTH -1 0
BBX 3 4 0 0
BITMAP
60
60
40
80
ENDCHAR
STARTCHAR -
ENCODING 45
SWIDTH 75 0
DWIDTH -1 0
BBX 5 2 0 3
BITMAP
F8
F8
ENDCHAR
STARTCHAR .
ENCODING 46
SWIDTH 75 0
DWIDTH -1 0
BBX 3 3 0 0
BITMAP
E0
E0
E0
ENDCHAR
STARTCHAR /
ENCODING 47
SWIDTH 75 0
DWIDTH -1 0
BBX 7 8 0 0
BITMAP
02
06
0C
18
30
60
C0
80
ENDCHAR
STARTCHAR 0
ENCODING 48
SWIDTH 75 0
DWIDTH -1 0
BBX 6 10 0 0
BITMAP
78
FC
CC
CC
CC
CC
CC
CC
FC
78
ENDCHAR
STARTCHAR 1
ENCODING 49
SWIDTH 75 0
DWIDTH -1 0
BBX 5 10 0 0
BITMAP
30
70
F0
30
30
30
30
30
78
78
ENDCHAR
STARTCHAR 2
ENCODING 50
SWIDTH 75 0
DWIDTH -1 0
BBX 6 10 0 0
BITMAP
78
FC
CC
0C
1C
38
70
E0
FC
FC
ENDCHAR
STARTCHAR 3
ENCODING 51
SWIDTH 75 0
DWIDTH -1 0
BBX 6 10 0 0
BITMAP
FC
FC
0C
18
30
38
0C
CC
FC
78
ENDCHAR
STARTCHAR 4
ENCODING 52
SWIDTH 75 0
DWIDTH -1 0
BBX 6 10 0 0
BITMAP
08
18
38
78
D8
FC
FC
18
18
18
ENDCHAR
STARTCHAR 5
ENCODING 53
SWIDTH 75 0
DWIDTH -1 0
BBX 6 10 0 0
BITMAP
FC
FC
C0
F8
7C
0C
0C
CC
FC
78
ENDCHAR
STARTCHAR 6
ENCODING 54
SWIDTH 75 0
DWIDTH -1 0
BBX 6 10 0 0
BITMAP
38
78
C0
C0
F8
FC
CC
CC
FC
78
ENDCHAR
STARTCHAR 7
ENCODING 55
SWIDTH 75 0
DWIDTH -1 0
BBX 6 10 0 0
BITMAP
FC
FC
0C
0C
18
18
30
30
30
30
ENDCHAR
STARTCHAR 8
ENCODING 56
SWIDTH 75 0
DWIDTH -1 0
BBX 6 10 0 0
BITMAP
78
FC
CC
CC
78
78
CC
CC
FC
78
ENDCHAR
STARTCHAR 9
ENCODING 57
SWIDTH 75 0
DWIDTH -1 0
BBX 6 10 0 0
BITMAP
78
FC
CC
CC
FC
7C
0C
0C
78
70
ENDCHAR
STARTCHAR :
ENCODING 58
SWIDTH 75 0
DWIDTH -1 0
BBX 2 5 0 2
BITMAP
C0
C0
00
C0
C0
ENDCHAR
STARTCHAR ;
ENCODING 59
SWIDTH 75 0
DWIDTH -1 0
BBX 3 7 0 0
BITMAP
60
60
00
60
60
40
80
ENDCHAR
STARTCHAR <
ENCODING 60
SWIDTH 75 0
DWIDTH -1 0
BBX 6 10 0 0
BITMAP
0C
18
30
60
C0
C0
60
30
18
0C
ENDCHAR
STARTCHAR =
ENCODING 61
SWIDTH 75 0
DWIDTH -1 0
BBX 5 5 0 2
BITMAP
F8
F8
00
F8
F8
ENDCHAR
STARTCHAR >
ENCODING 62
SWIDTH 75 0
DWIDTH -1 0
BBX 6 10 1 0
BITMAP
C0
60
30
18
0C
0C
18
30
60
C0
ENDCHAR
STARTCHAR ?
ENCODING 63
SWIDTH 75 0
DWIDTH -1 0
BBX 6 10 0 0
BITMAP
78
FC
CC
0C
18
30
30
00
30
30
ENDCHAR
STARTCHAR @
ENCODING 64
SWIDTH 75 0
DWIDTH -1 0
BBX 6 10 0 0
BITMAP
78
FC
CC
CC
FC
D8
C0
E0
78
38
ENDCHAR
STARTCHAR A
ENCODING 65
SWIDTH 75 0
DWIDTH -1 0
BBX 6 10 0 0
BITMAP
78
FC
CC
CC
CC
FC
FC
CC
CC
CC
ENDCHAR
STARTCHAR B
ENCODING 66
SWIDTH 75 0
DWIDTH -1 0
BBX 6 10 0 0
BITMAP
F8
FC
CC
CC
F8
F8
CC
CC
FC
F8
ENDCHAR
STARTCHAR C
ENCODING 67
SWIDTH 75 0
DWIDTH -1 0
BBX 6 10 0 0
BITMAP
78
FC
CC
C0
C0
C0
C0
CC
FC
78
ENDCHAR
STARTCHAR D
ENCODING 68
SWIDTH 75 0
DWIDTH -1 0
BBX 6 10 0 0
BITMAP
F0
F8
CC
CC
CC
CC
CC
CC
F8
F0
ENDCHAR
STARTCHAR E
ENCODING 69
SWIDTH 75 0
DWIDTH -1 0
BBX 6 10 0 0
BITMAP
FC
FC
C0
C0
F0
F0
C0
C0
FC
FC
ENDCHAR
STARTCHAR F
ENCODING 70
SWIDTH 75 0
DWIDTH -1 0
BBX 6 10 0 0
BITMAP
FC
FC
C0
C0
F0
F0
C0
C0
C0
C0
ENDCHAR
STARTCHAR G
ENCODING 71
SWIDTH 75 0
DWIDTH -1 0
BBX 6 10 0 0
BITMAP
78
FC
CC
C0
C0
DC
DC
CC
FC
78
ENDCHAR
STARTCHAR H
ENCODING 72
SWIDTH 75 0
DWIDTH -1 0
BBX 6 10 0 0
BITMAP
CC
CC
CC
CC
FC
FC
CC
CC
CC
CC
ENDCHAR
STARTCHAR I
ENCODING 73
SWIDTH 75 0
DWIDTH -1 0
BBX 4 10 0 0
BITMAP
F0
F0
60
60
60
60
60
60
F0
F0
ENDCHAR
STARTCHAR J
ENCODING 74
SWIDTH 75 0
DWIDTH -1 0
BBX 6 10 0 0
BITMAP
3C
3C
18
18
18
18
18
D8
F8
70
ENDCHAR
STARTCHAR K
ENCODING 75
SWIDTH 75 0
DWIDTH -1 0
BBX 6 10 0 0
BITMAP
CC
CC
D8
F0
E0
E0
F0
D8
CC
CC
ENDCHAR
STARTCHAR L
ENCODING 76
SWIDTH 75 0
DWIDTH -1 0
BBX 6 10 0 0
BITMAP
C0
C0
C0
C0
C0
C0
C0
C0
FC
FC
ENDCHAR
STARTCHAR M
ENCODING 77
SWIDTH 75 0
DWIDTH -1 0
BBX 7 10 0 0
BITMAP
C6
EE
FE
D6
C6
C6
C6
C6
C6
C6
ENDCHAR
STARTCHAR N
ENCODING 78
SWIDTH 75 0
DWIDTH -1 0
BBX 6 10 0 0
BITMAP
CC
EC
FC
DC
CC
CC
CC
CC
CC
CC
ENDCHAR
STARTCHAR O
ENCODING 79
SWIDTH 75 0
DWIDTH -1 0
BBX 6 10 0 0
BITMAP
78
FC
CC
CC
CC
CC
CC
CC
FC
78
ENDCHAR
STARTCHAR P
ENCODING 80
SWIDTH 75 0
DWIDTH -1 0
BBX 6 10 0 0
BITMAP
F8
FC
CC
CC
FC
F8
C0
C0
C0
C0
ENDCHAR
STARTCHAR Q
ENCODING 81
SWIDTH 75 0
DWIDTH -1 0
BBX 6 10 0 0
BITMAP
78
FC
CC
CC
CC
CC
CC
D8
F8
6C
ENDCHAR
STARTCHAR R
ENCODING 82
SWIDTH 75 0
DWIDTH -1 0
BBX 6 10 0 0
BITMAP
F8
FC
CC
CC
FC
F8
D8
CC
CC
CC
ENDCHAR
STARTCHAR S
ENCODING 83
SWIDTH 75 0
DWIDTH -1 0
BBX 6 10 0 0
BITMAP
78
F8
C0
C0
F8
7C
0C
0C
FC
F8
ENDCHAR
STARTCHAR T
ENCODING 84
SWIDTH 75 0
DWIDTH -1 0
BBX 6 10 0 0
BITMAP
FC
FC
30
30
30
30
30
30
30
30
ENDCHAR
STARTCHAR U
ENCODING 85
SWIDTH 75 0
DWIDTH -1 0
BBX 6 10 0 0
BITMAP
CC
CC
CC
CC
CC
CC
CC
CC
FC
78
ENDCHAR
STARTCHAR V
ENCODING 86
SWIDTH 75 0
DWIDTH -1 0
BBX 6 10 0 0
BITMAP
CC
CC
CC
CC
CC
CC
CC
FC
78
30
ENDCHAR
STARTCHAR W
ENCODING 87
SWIDTH 75 0
DWIDTH -1 0
BBX 7 10 0 0
BITMAP
C6
C6
C6
C6
C6
C6
D6
FE
EE
44
ENDCHAR
STARTCHAR X
ENCODING 88
SWIDTH 75 0
DWIDTH -1 0
BBX 6 10 0 0
BITMAP
CC
CC
CC
CC
78
30
78
CC
CC
CC
ENDCHAR
STARTCHAR Y
ENCODING 89
SWIDTH 75 0
DWIDTH -1 0
BBX 6 10 0 0
BITMAP
CC
CC
CC
CC
78
30
30
30
30
30
ENDCHAR
STARTCHAR Z
ENCODING 90
SWIDTH 75 0
DWIDTH -1 0
BBX 7 10 0 0
BITMAP
FE
FE
06
0C
18
30
60
C0
FE
FE
ENDCHAR
STARTCHAR [
ENCODING 91
SWIDTH 75 0
DWIDTH -1 0
BBX 3 10 0 0
BITMAP
E0
E0
C0
C0
C0
C0
C0
C0
E0
E0
ENDCHAR
STARTCHAR \
ENCODING 92
SWIDTH 75 0
DWIDTH -1 0
BBX 7 8 0 0
BITMAP
80
C0
60
30
18
0C
06
02
ENDCHAR
STARTCHAR ]
ENCODING 93
SWIDTH 75 0
DWIDTH -1 0
BBX 3 10 0 0
BITMAP
E0
E0
60
60
60
60
60
60
E0
E0
ENDCHAR
STARTCHAR ^
ENCODING 94
SWIDTH 75 0
DWIDTH -1 0
BBX 6 4 0 6
BITMAP
30
78
CC
84
ENDCHAR
STARTCHAR _
ENCODING 95
SWIDTH 75 0
DWIDTH -1 0
BBX 6 2 0 0
BITMAP
FC
FC
ENDCHAR
STARTCHAR `
ENCODING 96
SWIDTH 75 0
DWIDTH -1 0
BBX 3 4 0 6
BITMAP
C0
C0
40
20
ENDCHAR
STARTCHAR a
ENCODING 97
SWIDTH 75 0
DWIDTH -1 0
BBX 6 7 0 0
BITMAP
78
0C
0C
7C
8C
FC
7C
ENDCHAR
STARTCHAR b
ENCODING 98
SWIDTH 75 0
DWIDTH -1 0
BBX 6 10 0 0
BITMAP
C0
C0
C0
C0
D8
EC
CC
CC
FC
F8
ENDCHAR
STARTCHAR c
ENCODING 99
SWIDTH 75 0
DWIDTH -1 0
BBX 6 7 0 0
BITMAP
78
FC
CC
C0
CC
FC
78
ENDCHAR
STARTCHAR d
ENCODING 100
SWIDTH 75 0
DWIDTH -1 0
BBX 6 10 0 0
BITMAP
0C
0C
0C
0C
6C
DC
CC
CC
FC
7C
ENDCHAR
STARTCHAR e
ENCODING 101
SWIDTH 75 0
DWIDTH -1 0
BBX 6 7 0 0
BITMAP
78
FC
C4
FC
C0
FC
78
ENDCHAR
STARTCHAR f
ENCODING 102
SWIDTH 75 0
DWIDTH -1 0
BBX 6 10 0 0
BITMAP
38
7C
6C
60
F0
F0
60
60
60
60
ENDCHAR
STARTCHAR g
ENCODING 103
SWIDTH 75 0
DWIDTH -1 0
BBX 6 7 0 0
BITMAP
7C
FC
8C
7C
0C
FC
78
ENDCHAR
STARTCHAR h
ENCODING 104
SWIDTH 75 0
DWIDTH -1 0
BBX 6 10 0 0
BITMAP
C0
C0
C0
C0
D8
EC
CC
CC
CC
CC
ENDCHAR
STARTCHAR i
ENCODING 105
SWIDTH 75 0
DWIDTH -1 0
BBX 4 10 0 0
BITMAP
60
60
00
E0
E0
60
60
60
F0
F0
ENDCHAR
STARTCHAR j
ENCODING 106
SWIDTH 75 0
DWIDTH -1 0
BBX 6 10 0 0
BITMAP
18
18
00
3C
3C
18
18
D8
F8
70
ENDCHAR
STARTCHAR k
ENCODING 107
SWIDTH 75 0
DWIDTH -1 0
BBX 6 10 0 0
BITMAP
C0
C0
C0
CC
D8
F0
E0
F0
D8
CC
ENDCHAR
STARTCHAR l
ENCODING 108
SWIDTH 75 0
DWIDTH -1 0
BBX 4 10 0 0
BITMAP
E0
E0
60
60
60
60
60
60
F0
F0
ENDCHAR
STARTCHAR m
ENCODING 109
SWIDTH 75 0
DWIDTH -1 0
BBX 7 7 0 0
BITMAP
EC
D6
D6
C6
C6
C6
C6
ENDCHAR
STARTCHAR n
ENCODING 110
SWIDTH 75 0
DWIDTH -1 0
BBX 6 7 0 0
BITMAP
D8
FC
EC
CC
CC
CC
CC
ENDCHAR
STARTCHAR o
ENCODING 111
SWIDTH 75 0
DWIDTH -1 0
BBX 6 7 0 0
BITMAP
78
FC
CC
CC
CC
FC
78
ENDCHAR
STARTCHAR p
ENCODING 112
SWIDTH 75 0
DWIDTH -1 0
BBX 6 7 0 0
BITMAP
F8
FC
CC
F8
C0
C0
C0
ENDCHAR
STARTCHAR q
ENCODING 113
SWIDTH 75 0
DWIDTH -1 0
BBX 6 7 0 0
BITMAP
7C
FC
CC
7C
0C
0C
0C
ENDCHAR
STARTCHAR r
ENCODING 114
SWIDTH 75 0
DWIDTH -1 0
BBX 6 7 0 0
BITMAP
D8
FC
CC
C0
C0
C0
C0
ENDCHAR
STARTCHAR s
ENCODING 115
SWIDTH 75 0
DWIDTH -1 0
BBX 6 7 0 0
BITMAP
78
F8
C0
78
0C
FC
78
ENDCHAR
STARTCHAR t
ENCODING 116
SWIDTH 75 0
DWIDTH -1 0
BBX 6 10 0 0
BITMAP
60
60
60
F0
F0
60
60
6C
7C
38
ENDCHAR
STARTCHAR u
ENCODING 117
SWIDTH 75 0
DWIDTH -1 0
BBX 6 7 0 0
BITMAP
CC
CC
CC
CC
EC
FC
6C
ENDCHAR
STARTCHAR v
ENCODING 118
SWIDTH 75 0
DWIDTH -1 0
BBX 6 7 0 0
BITMAP
CC
CC
CC
CC
CC
78
30
ENDCHAR
STARTCHAR w
ENCODING 119
SWIDTH 75 0
DWIDTH -1 0
BBX 7 7 0 0
BITMAP
C6
C6
C6
C6
D6
7C
28
ENDCHAR
STARTCHAR x
ENCODING 120
SWIDTH 75 0
DWIDTH -1 0
BBX 7 7 0 0
BITMAP
82
C6
6C
38
38
6C
C6
ENDCHAR
STARTCHAR y
ENCODING 121
SWIDTH 75 0
DWIDTH -1 0
BBX 6 7 0 0
BITMAP
CC
CC
CC
7C
0C
FC
78
ENDCHAR
STARTCHAR z
ENCODING 122
SWIDTH 75 0
DWIDTH -1 0
BBX 6 7 0 0
BITMAP
FC
FC
18
30
60
FC
FC
ENDCHAR
STARTCHAR {
ENCODING 123
SWIDTH 75 0
DWIDTH -1 0
BBX 5 10 0 0
BITMAP
38
78
60
60
E0
E0
60
60
78
38
ENDCHAR
STARTCHAR |
ENCODING 124
SWIDTH 75 0
DWIDTH -1 0
BBX 0 0 7 9
ENDCHAR
STARTCHAR }
ENCODING 125
SWIDTH 75 0
DWIDTH -1 0
BBX 5 10 0 0
BITMAP
E0
F0
30
30
38
38
30
30
F0
E0
ENDCHAR
STARTCHAR ~
ENCODING 126
SWIDTH 75 0
DWIDTH -1 0
BBX 0 0 7 9
ENDCHAR
STARTCHAR 
ENCODING 127
SWIDTH 75 0
DWIDTH -1 0
BBX 0 0 7 9
ENDCHAR
STARTCHAR f
ENCODING 102
SWIDTH 75 0
DWIDTH -1 0
BBX 0 0 7 9
ENDCHAR
STARTCHAR ¡
ENCODING -95
SWIDTH 75 0
DWIDTH -1 0
BBX 0 0 7 9
ENDCHAR
STARTCHAR £
ENCODING -93
SWIDTH 75 0
DWIDTH -1 0
BBX 0 0 7 9
ENDCHAR
STARTCHAR ª
ENCODING -86
SWIDTH 75 0
DWIDTH -1 0
BBX 0 0 7 9
ENDCHAR
STARTCHAR «
ENCODING -85
SWIDTH 75 0
DWIDTH -1 0
BBX 0 0 7 9
ENDCHAR
STARTCHAR ¬
ENCODING -84
SWIDTH 75 0
DWIDTH -1 0
BBX 0 0 7 9
ENDCHAR
STARTCHAR ®
ENCODING -82
SWIDTH 75 0
DWIDTH -1 0
BBX 0 0 7 9
ENDCHAR
STARTCHAR º
ENCODING -70
SWIDTH 75 0
DWIDTH -1 0
BBX 6 7 0 0
BITMAP
CC
CC
EC
FC
D8
C0
C0
ENDCHAR
STARTCHAR »
ENCODING -69
SWIDTH 75 0
DWIDTH -1 0
BBX 0 0 7 9
ENDCHAR
STARTCHAR  
ENCODING 32
SWIDTH 75 0
DWIDTH -1 0
BBX 0 0 7 9
ENDCHAR
STARTCHAR  
ENCODING 32
SWIDTH 75 0
DWIDTH -1 0
BBX 0 0 7 9
ENDCHAR
STARTCHAR ¿
ENCODING -65
SWIDTH 75 0
DWIDTH -1 0
BBX 0 0 7 9
ENDCHAR
STARTCHAR Ä
ENCODING -60
SWIDTH 75 0
DWIDTH -1 0
BBX 0 0 7 9
ENDCHAR
STARTCHAR Å
ENCODING -59
SWIDTH 75 0
DWIDTH -1 0
BBX 0 0 7 9
ENDCHAR
STARTCHAR Æ
ENCODING -58
SWIDTH 75 0
DWIDTH -1 0
BBX 0 0 7 9
ENDCHAR
STARTCHAR Ç
ENCODING -57
SWIDTH 75 0
DWIDTH -1 0
BBX 0 0 7 9
ENDCHAR
STARTCHAR É
ENCODING -55
SWIDTH 75 0
DWIDTH -1 0
BBX 0 0 7 9
ENDCHAR
STARTCHAR Ñ
ENCODING -47
SWIDTH 75 0
DWIDTH -1 0
BBX 0 0 7 9
ENDCHAR
STARTCHAR Ö
ENCODING -42
SWIDTH 75 0
DWIDTH -1 0
BBX 0 0 7 9
ENDCHAR
STARTCHAR ×
ENCODING -41
SWIDTH 75 0
DWIDTH -1 0
BBX 0 0 7 9
ENDCHAR
STARTCHAR Ø
ENCODING -40
SWIDTH 75 0
DWIDTH -1 0
BBX 0 0 7 9
ENDCHAR
STARTCHAR Ü
ENCODING -36
SWIDTH 75 0
DWIDTH -1 0
BBX 0 0 7 9
ENDCHAR
STARTCHAR à
ENCODING -32
SWIDTH 75 0
DWIDTH -1 0
BBX 6 10 0 0
BITMAP
30
18
00
78
0C
0C
7C
8C
FC
7C
ENDCHAR
STARTCHAR á
ENCODING -31
SWIDTH 75 0
DWIDTH -1 0
BBX 0 0 7 9
ENDCHAR
STARTCHAR â
ENCODING -30
SWIDTH 75 0
DWIDTH -1 0
BBX 6 10 0 0
BITMAP
30
78
84
78
0C
0C
7C
8C
FC
7C
ENDCHAR
STARTCHAR ä
ENCODING -28
SWIDTH 75 0
DWIDTH -1 0
BBX 6 10 0 0
BITMAP
D8
D8
00
78
0C
0C
7C
8C
FC
7C
ENDCHAR
STARTCHAR å
ENCODING -27
SWIDTH 75 0
DWIDTH -1 0
BBX 6 10 0 0
BITMAP
30
30
00
78
0C
0C
7C
8C
FC
7C
ENDCHAR
STARTCHAR æ
ENCODING -26
SWIDTH 75 0
DWIDTH -1 0
BBX 0 0 7 9
ENDCHAR
STARTCHAR ç
ENCODING -25
SWIDTH 75 0
DWIDTH -1 0
BBX 6 7 0 0
BITMAP
78
FC
CC
C0
CC
78
F0
ENDCHAR
STARTCHAR è
ENCODING -24
SWIDTH 75 0
DWIDTH -1 0
BBX 6 10 0 0
BITMAP
30
18
00
78
FC
C4
FC
C0
FC
78
ENDCHAR
STARTCHAR é
ENCODING -23
SWIDTH 75 0
DWIDTH -1 0
BBX 6 10 0 0
BITMAP
18
30
00
78
FC
C4
FC
C0
FC
78
ENDCHAR
STARTCHAR ê
ENCODING -22
SWIDTH 75 0
DWIDTH -1 0
BBX 6 10 0 0
BITMAP
30
78
84
78
FC
C4
FC
C0
FC
78
ENDCHAR
STARTCHAR ë
ENCODING -21
SWIDTH 75 0
DWIDTH -1 0
BBX 6 10 0 0
BITMAP
6C
6C
00
78
FC
C4
FC
C0
FC
78
ENDCHAR
STARTCHAR ì
ENCODING -20
SWIDTH 75 0
DWIDTH -1 0
BBX 4 10 0 0
BITMAP
C0
60
00
E0
E0
60
60
60
F0
F0
ENDCHAR
STARTCHAR í
ENCODING -19
SWIDTH 75 0
DWIDTH -1 0
BBX 0 0 7 9
ENDCHAR
STARTCHAR î
ENCODING -18
SWIDTH 75 0
DWIDTH -1 0
BBX 5 10 0 0
BITMAP
20
70
88
70
70
30
30
30
78
78
ENDCHAR
STARTCHAR ï
ENCODING -17
SWIDTH 75 0
DWIDTH -1 0
BBX 5 10 0 0
BITMAP
D8
D8
00
70
70
30
30
30
78
78
ENDCHAR
STARTCHAR ñ
ENCODING -15
SWIDTH 75 0
DWIDTH -1 0
BBX 0 0 7 9
ENDCHAR
STARTCHAR ò
ENCODING -14
SWIDTH 75 0
DWIDTH -1 0
BBX 6 10 0 0
BITMAP
30
18
00
78
FC
CC
CC
CC
FC
78
ENDCHAR
STARTCHAR ó
ENCODING -13
SWIDTH 75 0
DWIDTH -1 0
BBX 0 0 7 9
ENDCHAR
STARTCHAR ô
ENCODING -12
SWIDTH 75 0
DWIDTH -1 0
BBX 6 10 0 0
BITMAP
30
78
84
78
FC
CC
CC
CC
FC
78
ENDCHAR
STARTCHAR ö
ENCODING -10
SWIDTH 75 0
DWIDTH -1 0
BBX 6 10 0 0
BITMAP
CC
CC
00
78
FC
CC
CC
CC
FC
78
ENDCHAR
STARTCHAR ø
ENCODING -8
SWIDTH 75 0
DWIDTH -1 0
BBX 0 0 7 9
ENDCHAR
STARTCHAR ù
ENCODING -7
SWIDTH 75 0
DWIDTH -1 0
BBX 6 10 0 0
BITMAP
60
30
00
CC
CC
CC
CC
EC
FC
D8
ENDCHAR
STARTCHAR ú
ENCODING -6
SWIDTH 75 0
DWIDTH -1 0
BBX 0 0 7 9
ENDCHAR
STARTCHAR û
ENCODING -5
SWIDTH 75 0
DWIDTH -1 0
BBX 6 10 0 0
BITMAP
30
78
84
00
CC
CC
CC
EC
FC
D8
ENDCHAR
STARTCHAR ü
ENCODING -4
SWIDTH 75 0
DWIDTH -1 0
BBX 6 10 0 0
BITMAP
CC
CC
00
CC
CC
CC
CC
EC
FC
D8
ENDCHAR
STARTCHAR ÿ
ENCODING -1
SWIDTH 75 0
DWIDTH -1 0
BBX 6 10 0 0
BITMAP
CC
CC
00
CC
CC
CC
7C
0C
FC
78
ENDCHAR
ENDFONT
