STARTFONT 2.1
COMMENT Lumiplan font build using LumiStudio
FONT Duhamel 20/20 1-UltraCondensed
SIZE 20 75 75
FONTBOUNDINGBOX 8 20 0 0
STARTPROPERTIES 1
Copyright "Copyright (c) 2021 Lumiplan"
ENDPROPERTIES
CHARS 189
STARTCHAR 
ENCODING 14
SWIDTH 75 0
DWIDTH -1 0
BBX 0 0 1 19
ENDCHAR
STARTCHAR  
ENCODING 32
SWIDTH 75 0
DWIDTH -1 0
BBX 0 0 2 19
ENDCHAR
STARTCHAR !
ENCODING 33
SWIDTH 75 0
DWIDTH -1 0
BBX 3 20 0 0
BITMAP
E0
E0
E0
E0
E0
E0
E0
E0
E0
E0
E0
E0
E0
E0
E0
E0
00
E0
E0
E0
ENDCHAR
STARTCHAR "
ENCODING 34
SWIDTH 75 0
DWIDTH -1 0
BBX 6 4 0 16
BITMAP
6C
6C
48
90
ENDCHAR
STARTCHAR #
ENCODING 35
SWIDTH 75 0
DWIDTH -1 0
BBX 6 14 0 3
BITMAP
48
48
FC
FC
FC
48
48
48
48
FC
FC
FC
48
48
ENDCHAR
STARTCHAR $
ENCODING 36
SWIDTH 75 0
DWIDTH -1 0
BBX 8 16 0 2
BITMAP
18
3C
FF
DB
D8
D8
D8
FE
7F
1B
1B
1B
DB
FF
7E
18
ENDCHAR
STARTCHAR %
ENCODING 37
SWIDTH 75 0
DWIDTH -1 0
BBX 8 14 0 3
BITMAP
E3
E3
E6
06
0C
0C
18
18
30
30
60
67
C7
C7
ENDCHAR
STARTCHAR &
ENCODING 38
SWIDTH 75 0
DWIDTH -1 0
BBX 8 18 0 1
BITMAP
7C
FE
C6
C6
C6
C6
EE
7C
38
7E
EE
C7
C7
C6
C7
EF
7D
38
ENDCHAR
STARTCHAR '
ENCODING 39
SWIDTH 75 0
DWIDTH -1 0
BBX 3 4 0 16
BITMAP
60
60
40
80
ENDCHAR
STARTCHAR (
ENCODING 40
SWIDTH 75 0
DWIDTH -1 0
BBX 4 20 0 0
BITMAP
70
F0
C0
C0
C0
C0
C0
C0
C0
C0
C0
C0
C0
C0
C0
C0
C0
C0
F0
70
ENDCHAR
STARTCHAR )
ENCODING 41
SWIDTH 75 0
DWIDTH -1 0
BBX 4 20 0 0
BITMAP
E0
F0
30
30
30
30
30
30
30
30
30
30
30
30
30
30
30
30
F0
E0
ENDCHAR
STARTCHAR *
ENCODING 42
SWIDTH 75 0
DWIDTH -1 0
BBX 8 7 0 13
BITMAP
18
18
FF
7E
3C
66
C3
ENDCHAR
STARTCHAR +
ENCODING 43
SWIDTH 75 0
DWIDTH -1 0
BBX 7 7 0 7
BITMAP
38
38
FE
FE
FE
38
38
ENDCHAR
STARTCHAR ,
ENCODING 44
SWIDTH 75 0
DWIDTH -1 0
BBX 3 4 0 0
BITMAP
60
60
40
80
ENDCHAR
STARTCHAR -
ENCODING 45
SWIDTH 75 0
DWIDTH -1 0
BBX 5 3 0 9
BITMAP
F8
F8
F8
ENDCHAR
STARTCHAR .
ENCODING 46
SWIDTH 75 0
DWIDTH -1 0
BBX 2 2 0 1
BITMAP
C0
C0
ENDCHAR
STARTCHAR /
ENCODING 47
SWIDTH 75 0
DWIDTH -1 0
BBX 8 14 0 3
BITMAP
03
03
06
06
0C
0C
18
18
30
30
60
60
C0
C0
ENDCHAR
STARTCHAR 0
ENCODING 48
SWIDTH 75 0
DWIDTH -1 0
BBX 8 20 0 0
BITMAP
7E
FF
FF
E7
E7
E7
E7
E7
E7
E7
E7
E7
E7
E7
E7
E7
E7
FF
FF
7E
ENDCHAR
STARTCHAR 1
ENCODING 49
SWIDTH 75 0
DWIDTH -1 0
BBX 6 20 0 0
BITMAP
1C
3C
7C
FC
DC
1C
1C
1C
1C
1C
1C
1C
1C
1C
1C
1C
1C
1C
1C
1C
ENDCHAR
STARTCHAR 2
ENCODING 50
SWIDTH 75 0
DWIDTH -1 0
BBX 8 20 0 0
BITMAP
7E
FF
FF
E7
E7
07
07
0E
0E
1E
1C
3C
38
78
70
F0
E0
FF
FF
FF
ENDCHAR
STARTCHAR 3
ENCODING 51
SWIDTH 75 0
DWIDTH -1 0
BBX 8 20 0 0
BITMAP
FF
FF
FF
07
07
07
07
07
0E
3C
3C
0E
07
07
07
C7
C7
FF
FF
7E
ENDCHAR
STARTCHAR 4
ENCODING 52
SWIDTH 75 0
DWIDTH -1 0
BBX 8 20 0 0
BITMAP
07
0F
1F
3F
7F
FF
E7
E7
E7
E7
E7
E7
FF
FF
FF
07
07
07
07
07
ENDCHAR
STARTCHAR 5
ENCODING 53
SWIDTH 75 0
DWIDTH -1 0
BBX 8 20 0 0
BITMAP
FF
FF
FF
E0
E0
E0
E0
E0
FE
FF
FF
07
07
07
07
E7
E7
FF
FF
7E
ENDCHAR
STARTCHAR 6
ENCODING 54
SWIDTH 75 0
DWIDTH -1 0
BBX 8 20 0 0
BITMAP
1E
3E
7E
F0
E0
E0
E0
E0
FE
FF
FF
E7
E7
E7
E7
E7
E7
FF
FF
7E
ENDCHAR
STARTCHAR 7
ENCODING 55
SWIDTH 75 0
DWIDTH -1 0
BBX 8 20 0 0
BITMAP
FF
FF
FF
07
07
07
07
07
07
07
0E
1C
38
38
38
38
38
38
38
38
ENDCHAR
STARTCHAR 8
ENCODING 56
SWIDTH 75 0
DWIDTH -1 0
BBX 8 20 0 0
BITMAP
7E
FF
E7
E7
E7
E7
E7
E7
7E
7E
FF
E7
E7
E7
E7
E7
E7
FF
FF
7E
ENDCHAR
STARTCHAR 9
ENCODING 57
SWIDTH 75 0
DWIDTH -1 0
BBX 8 20 0 0
BITMAP
7E
FF
FF
E7
E7
E7
E7
E7
E7
FF
FF
7F
07
07
07
07
0F
7E
7C
78
ENDCHAR
STARTCHAR :
ENCODING 58
SWIDTH 75 0
DWIDTH -1 0
BBX 3 10 0 1
BITMAP
E0
E0
E0
00
00
00
00
E0
E0
E0
ENDCHAR
STARTCHAR ;
ENCODING 59
SWIDTH 75 0
DWIDTH -1 0
BBX 4 11 0 0
BITMAP
70
70
70
00
00
00
00
70
70
70
80
ENDCHAR
STARTCHAR <
ENCODING 60
SWIDTH 75 0
DWIDTH -1 0
BBX 8 18 0 1
BITMAP
01
03
07
0E
1C
38
70
E0
C0
C0
E0
70
38
1C
0E
07
03
01
ENDCHAR
STARTCHAR =
ENCODING 61
SWIDTH 75 0
DWIDTH -1 0
BBX 5 7 0 7
BITMAP
F8
F8
F8
00
F8
F8
F8
ENDCHAR
STARTCHAR >
ENCODING 62
SWIDTH 75 0
DWIDTH -1 0
BBX 8 18 0 1
BITMAP
80
C0
E0
70
38
1C
0E
07
03
03
07
0E
1C
38
70
E0
C0
80
ENDCHAR
STARTCHAR ?
ENCODING 63
SWIDTH 75 0
DWIDTH -1 0
BBX 8 20 0 0
BITMAP
7E
FF
FF
E7
E7
E7
07
07
07
07
0E
1C
38
38
38
38
00
38
38
38
ENDCHAR
STARTCHAR @
ENCODING 64
SWIDTH 75 0
DWIDTH -1 0
BBX 8 17 0 2
BITMAP
7E
FF
FF
E7
E7
EF
EF
FB
FF
EF
E6
E0
E7
E7
FF
7E
3C
ENDCHAR
STARTCHAR A
ENCODING 65
SWIDTH 75 0
DWIDTH -1 0
BBX 8 20 0 0
BITMAP
7E
FF
FF
E7
E7
E7
E7
E7
FF
FF
FF
E7
E7
E7
E7
E7
E7
E7
E7
E7
ENDCHAR
STARTCHAR B
ENCODING 66
SWIDTH 75 0
DWIDTH -1 0
BBX 8 20 0 0
BITMAP
FE
FF
FF
E7
E7
E7
E7
E7
FF
FE
FE
E7
E7
E7
E7
E7
E7
FF
FF
FE
ENDCHAR
STARTCHAR C
ENCODING 67
SWIDTH 75 0
DWIDTH -1 0
BBX 8 20 0 0
BITMAP
7E
FF
FF
E7
E7
E0
E0
E0
E0
E0
E0
E0
E0
E0
E0
E7
E7
FF
FF
7E
ENDCHAR
STARTCHAR D
ENCODING 68
SWIDTH 75 0
DWIDTH -1 0
BBX 8 20 0 0
BITMAP
FE
FF
FF
E7
E7
E7
E7
E7
E7
E7
E7
E7
E7
E7
E7
E7
E7
FF
FF
FE
ENDCHAR
STARTCHAR E
ENCODING 69
SWIDTH 75 0
DWIDTH -1 0
BBX 8 20 0 0
BITMAP
FF
FF
FF
E0
E0
E0
E0
E0
FC
FC
FC
E0
E0
E0
E0
E0
E0
FF
FF
FF
ENDCHAR
STARTCHAR F
ENCODING 70
SWIDTH 75 0
DWIDTH -1 0
BBX 8 20 0 0
BITMAP
FF
FF
FF
E0
E0
E0
E0
E0
FC
FC
FC
E0
E0
E0
E0
E0
E0
E0
E0
E0
ENDCHAR
STARTCHAR G
ENCODING 71
SWIDTH 75 0
DWIDTH -1 0
BBX 8 20 0 0
BITMAP
7E
FF
FF
E7
E0
E0
E0
E0
EF
EF
EF
E7
E7
E7
E7
E7
E7
FF
FF
7E
ENDCHAR
STARTCHAR H
ENCODING 72
SWIDTH 75 0
DWIDTH -1 0
BBX 8 20 0 0
BITMAP
E7
E7
E7
E7
E7
E7
E7
E7
FF
FF
FF
E7
E7
E7
E7
E7
E7
E7
E7
E7
ENDCHAR
STARTCHAR I
ENCODING 73
SWIDTH 75 0
DWIDTH -1 0
BBX 3 20 0 0
BITMAP
E0
E0
E0
E0
E0
E0
E0
E0
E0
E0
E0
E0
E0
E0
E0
E0
E0
E0
E0
E0
ENDCHAR
STARTCHAR J
ENCODING 74
SWIDTH 75 0
DWIDTH -1 0
BBX 8 20 0 0
BITMAP
07
07
07
07
07
07
07
07
07
07
07
07
07
07
07
E7
E7
FF
FF
7E
ENDCHAR
STARTCHAR K
ENCODING 75
SWIDTH 75 0
DWIDTH -1 0
BBX 8 20 0 0
BITMAP
E7
E7
E7
E7
E7
E7
E7
EF
FE
FC
FC
FE
EF
E7
E7
E7
E7
E7
E7
E7
ENDCHAR
STARTCHAR L
ENCODING 76
SWIDTH 75 0
DWIDTH -1 0
BBX 8 20 0 0
BITMAP
E0
E0
E0
E0
E0
E0
E0
E0
E0
E0
E0
E0
E0
E0
E0
E0
E0
FF
FF
FF
ENDCHAR
STARTCHAR M
ENCODING 77
SWIDTH 75 0
DWIDTH -1 0
BBX 8 20 0 0
BITMAP
C3
E7
FF
FF
E7
E7
E7
E7
E7
E7
E7
E7
E7
E7
E7
E7
E7
E7
E7
E7
ENDCHAR
STARTCHAR N
ENCODING 78
SWIDTH 75 0
DWIDTH -1 0
BBX 8 20 0 0
BITMAP
87
C7
E7
F7
FF
FF
EF
E7
E7
E7
E7
E7
E7
E7
E7
E7
E7
E7
E7
E7
ENDCHAR
STARTCHAR O
ENCODING 79
SWIDTH 75 0
DWIDTH -1 0
BBX 8 20 0 0
BITMAP
7E
FF
FF
E7
E7
E7
E7
E7
E7
E7
E7
E7
E7
E7
E7
E7
E7
FF
FF
7E
ENDCHAR
STARTCHAR P
ENCODING 80
SWIDTH 75 0
DWIDTH -1 0
BBX 8 20 0 0
BITMAP
FE
FF
FF
E7
E7
E7
E7
E7
E7
FF
FF
FE
E0
E0
E0
E0
E0
E0
E0
E0
ENDCHAR
STARTCHAR Q
ENCODING 81
SWIDTH 75 0
DWIDTH -1 0
BBX 8 20 0 0
BITMAP
7E
FF
FF
E7
E7
E7
E7
E7
E7
E7
E7
E7
E7
F7
FF
FE
EE
FF
FF
3D
ENDCHAR
STARTCHAR R
ENCODING 82
SWIDTH 75 0
DWIDTH -1 0
BBX 8 20 0 0
BITMAP
FE
FF
FF
E7
E7
E7
E7
EF
FE
FC
FC
FE
EF
E7
E7
E7
E7
E7
E7
E7
ENDCHAR
STARTCHAR S
ENCODING 83
SWIDTH 75 0
DWIDTH -1 0
BBX 8 20 0 0
BITMAP
7E
FF
FF
E7
E7
E0
E0
F0
78
3C
1E
0F
07
07
07
E7
E7
FF
FF
7E
ENDCHAR
STARTCHAR T
ENCODING 84
SWIDTH 75 0
DWIDTH -1 0
BBX 7 20 0 0
BITMAP
FE
FE
FE
38
38
38
38
38
38
38
38
38
38
38
38
38
38
38
38
38
ENDCHAR
STARTCHAR U
ENCODING 85
SWIDTH 75 0
DWIDTH -1 0
BBX 8 20 0 0
BITMAP
E7
E7
E7
E7
E7
E7
E7
E7
E7
E7
E7
E7
E7
E7
E7
E7
E7
FF
FF
7E
ENDCHAR
STARTCHAR V
ENCODING 86
SWIDTH 75 0
DWIDTH -1 0
BBX 8 20 0 0
BITMAP
E7
E7
E7
E7
E7
E7
E7
E7
E7
E7
E7
E7
E7
E7
E7
E7
E7
7E
3C
18
ENDCHAR
STARTCHAR W
ENCODING 87
SWIDTH 75 0
DWIDTH -1 0
BBX 8 20 0 0
BITMAP
E7
E7
E7
E7
E7
E7
E7
E7
E7
E7
E7
E7
E7
E7
E7
E7
FF
FF
E7
C3
ENDCHAR
STARTCHAR X
ENCODING 88
SWIDTH 75 0
DWIDTH -1 0
BBX 8 20 0 0
BITMAP
E7
E7
E7
E7
E7
E7
E7
FF
7E
3C
3C
7E
FF
E7
E7
E7
E7
E7
E7
E7
ENDCHAR
STARTCHAR Y
ENCODING 89
SWIDTH 75 0
DWIDTH -1 0
BBX 7 20 0 0
BITMAP
EE
EE
EE
EE
EE
EE
EE
EE
EE
FE
7C
38
38
38
38
38
38
38
38
38
ENDCHAR
STARTCHAR Z
ENCODING 90
SWIDTH 75 0
DWIDTH -1 0
BBX 8 20 0 0
BITMAP
FF
FF
FF
07
0E
0E
0E
1C
1C
1C
38
38
38
70
70
70
E0
FF
FF
FF
ENDCHAR
STARTCHAR [
ENCODING 91
SWIDTH 75 0
DWIDTH -1 0
BBX 6 20 0 0
BITMAP
FC
FC
FC
E0
E0
E0
E0
E0
E0
E0
E0
E0
E0
E0
E0
E0
E0
FC
FC
FC
ENDCHAR
STARTCHAR \
ENCODING 92
SWIDTH 75 0
DWIDTH -1 0
BBX 8 20 0 0
BITMAP
E0
E0
E0
E0
70
70
70
38
38
38
1C
1C
1C
0E
0E
0E
07
07
07
07
ENDCHAR
STARTCHAR ]
ENCODING 93
SWIDTH 75 0
DWIDTH -1 0
BBX 6 20 0 0
BITMAP
FC
FC
FC
1C
1C
1C
1C
1C
1C
1C
1C
1C
1C
1C
1C
1C
1C
FC
FC
FC
ENDCHAR
STARTCHAR ^
ENCODING 94
SWIDTH 75 0
DWIDTH -1 0
BBX 8 6 0 14
BITMAP
3C
3C
66
66
C3
C3
ENDCHAR
STARTCHAR _
ENCODING 95
SWIDTH 75 0
DWIDTH -1 0
BBX 6 3 0 0
BITMAP
FC
FC
FC
ENDCHAR
STARTCHAR `
ENCODING 96
SWIDTH 75 0
DWIDTH -1 0
BBX 3 4 0 16
BITMAP
C0
C0
40
20
ENDCHAR
STARTCHAR a
ENCODING 97
SWIDTH 75 0
DWIDTH -1 0
BBX 8 13 0 0
BITMAP
7E
7F
07
07
77
FF
FF
E7
E7
E7
FF
FF
77
ENDCHAR
STARTCHAR b
ENCODING 98
SWIDTH 75 0
DWIDTH -1 0
BBX 8 20 0 0
BITMAP
E0
E0
E0
E0
E0
E0
E0
EE
FF
FF
E7
E7
E7
E7
E7
E7
E7
FF
FF
EE
ENDCHAR
STARTCHAR c
ENCODING 99
SWIDTH 75 0
DWIDTH -1 0
BBX 8 13 0 0
BITMAP
7E
FF
FF
E7
E0
E0
E0
E0
E0
E7
FF
FF
7E
ENDCHAR
STARTCHAR d
ENCODING 100
SWIDTH 75 0
DWIDTH -1 0
BBX 8 20 0 0
BITMAP
07
07
07
07
07
07
07
77
FF
FF
E7
E7
E7
E7
E7
E7
E7
FF
FF
77
ENDCHAR
STARTCHAR e
ENCODING 101
SWIDTH 75 0
DWIDTH -1 0
BBX 8 13 0 0
BITMAP
7E
FF
FF
E7
FF
FF
FE
E0
E0
E0
FF
FF
7E
ENDCHAR
STARTCHAR f
ENCODING 102
SWIDTH 75 0
DWIDTH -1 0
BBX 8 20 0 0
BITMAP
7E
FF
FF
E7
E7
E0
E0
E0
F8
F8
F8
E0
E0
E0
E0
E0
E0
E0
E0
E0
ENDCHAR
STARTCHAR g
ENCODING 103
SWIDTH 75 0
DWIDTH -1 0
BBX 8 13 0 0
BITMAP
77
FF
FF
E7
E7
FF
FF
77
07
07
07
7F
7E
ENDCHAR
STARTCHAR h
ENCODING 104
SWIDTH 75 0
DWIDTH -1 0
BBX 8 20 0 0
BITMAP
E0
E0
E0
E0
E0
E0
E0
EC
FE
FF
E7
E7
E7
E7
E7
E7
E7
E7
E7
E7
ENDCHAR
STARTCHAR i
ENCODING 105
SWIDTH 75 0
DWIDTH -1 0
BBX 3 18 0 0
BITMAP
E0
E0
E0
00
00
E0
E0
E0
E0
E0
E0
E0
E0
E0
E0
E0
E0
E0
ENDCHAR
STARTCHAR j
ENCODING 106
SWIDTH 75 0
DWIDTH -1 0
BBX 8 18 0 0
BITMAP
07
07
07
00
00
07
07
07
07
07
07
07
07
E7
E7
FF
FF
7E
ENDCHAR
STARTCHAR k
ENCODING 107
SWIDTH 75 0
DWIDTH -1 0
BBX 8 20 0 0
BITMAP
E0
E0
E0
E0
E0
E0
E0
E3
E3
E7
E6
EE
FC
FC
FC
EE
E6
E7
E3
E3
ENDCHAR
STARTCHAR l
ENCODING 108
SWIDTH 75 0
DWIDTH -1 0
BBX 3 20 0 0
BITMAP
E0
E0
E0
E0
E0
E0
E0
E0
E0
E0
E0
E0
E0
E0
E0
E0
E0
E0
E0
E0
ENDCHAR
STARTCHAR m
ENCODING 109
SWIDTH 75 0
DWIDTH -1 0
BBX 8 13 0 0
BITMAP
D4
FE
FF
EB
EB
EB
EB
EB
EB
EB
EB
EB
EB
ENDCHAR
STARTCHAR n
ENCODING 110
SWIDTH 75 0
DWIDTH -1 0
BBX 8 13 0 0
BITMAP
DC
FE
FF
F7
E7
E7
E7
E7
E7
E7
E7
E7
E7
ENDCHAR
STARTCHAR o
ENCODING 111
SWIDTH 75 0
DWIDTH -1 0
BBX 8 13 0 0
BITMAP
7E
FF
FF
E7
E7
E7
E7
E7
E7
E7
FF
FF
7E
ENDCHAR
STARTCHAR p
ENCODING 112
SWIDTH 75 0
DWIDTH -1 0
BBX 8 13 0 0
BITMAP
EE
FF
FF
E7
E7
FF
FF
EE
E0
E0
E0
E0
E0
ENDCHAR
STARTCHAR q
ENCODING 113
SWIDTH 75 0
DWIDTH -1 0
BBX 8 13 0 0
BITMAP
77
FF
FF
E7
E7
FF
FF
77
07
07
07
07
07
ENDCHAR
STARTCHAR r
ENCODING 114
SWIDTH 75 0
DWIDTH -1 0
BBX 8 13 0 0
BITMAP
DE
FF
FF
F3
E0
E0
E0
E0
E0
E0
E0
E0
E0
ENDCHAR
STARTCHAR s
ENCODING 115
SWIDTH 75 0
DWIDTH -1 0
BBX 8 13 0 0
BITMAP
7E
FE
FE
E0
E0
FE
FF
7F
07
07
FF
FF
FE
ENDCHAR
STARTCHAR t
ENCODING 116
SWIDTH 75 0
DWIDTH -1 0
BBX 8 20 0 0
BITMAP
E0
E0
E0
E0
E0
E0
E0
F8
F8
F8
E0
E0
E0
E0
E0
E7
E7
FF
FF
7E
ENDCHAR
STARTCHAR u
ENCODING 117
SWIDTH 75 0
DWIDTH -1 0
BBX 8 13 0 0
BITMAP
E7
E7
E7
E7
E7
E7
E7
E7
E7
EF
FF
7F
3B
ENDCHAR
STARTCHAR v
ENCODING 118
SWIDTH 75 0
DWIDTH -1 0
BBX 8 13 0 0
BITMAP
E7
E7
E7
E7
E7
E7
E7
E7
E7
E7
7E
3C
18
ENDCHAR
STARTCHAR w
ENCODING 119
SWIDTH 75 0
DWIDTH -1 0
BBX 8 13 0 0
BITMAP
E7
E7
E7
E7
E7
E7
E7
E7
E7
FF
FF
C3
81
ENDCHAR
STARTCHAR x
ENCODING 120
SWIDTH 75 0
DWIDTH -1 0
BBX 8 13 0 0
BITMAP
E7
E7
FF
7E
7E
3C
3C
3C
7E
7E
FF
E7
E7
ENDCHAR
STARTCHAR y
ENCODING 121
SWIDTH 75 0
DWIDTH -1 0
BBX 8 13 0 0
BITMAP
E7
E7
E7
E7
E7
FF
FF
7F
07
07
7F
7F
7E
ENDCHAR
STARTCHAR z
ENCODING 122
SWIDTH 75 0
DWIDTH -1 0
BBX 8 13 0 0
BITMAP
FF
FF
FF
07
07
0E
1C
38
70
E0
FF
FF
FF
ENDCHAR
STARTCHAR {
ENCODING 123
SWIDTH 75 0
DWIDTH -1 0
BBX 7 20 0 0
BITMAP
1E
3E
7E
70
70
70
70
70
F0
E0
E0
F0
70
70
70
70
70
7E
3E
1E
ENDCHAR
STARTCHAR |
ENCODING 124
SWIDTH 75 0
DWIDTH -1 0
BBX 3 20 0 0
BITMAP
E0
E0
E0
E0
E0
E0
E0
E0
E0
E0
E0
E0
E0
E0
E0
E0
E0
E0
E0
E0
ENDCHAR
STARTCHAR }
ENCODING 125
SWIDTH 75 0
DWIDTH -1 0
BBX 7 20 0 0
BITMAP
F0
F8
FC
1C
1C
1C
1C
1C
1E
0E
0E
1E
1C
1C
1C
1C
1C
FC
F8
F0
ENDCHAR
STARTCHAR ~
ENCODING 126
SWIDTH 75 0
DWIDTH -1 0
BBX 8 3 0 9
BITMAP
21
73
8C
ENDCHAR
STARTCHAR ¤
ENCODING -92
SWIDTH 75 0
DWIDTH -1 0
BBX 8 20 0 0
BITMAP
1E
3F
7F
70
70
70
FE
FE
FE
70
70
FE
FE
FE
70
70
70
7F
3F
1E
ENDCHAR
STARTCHAR ¦
ENCODING -90
SWIDTH 75 0
DWIDTH -1 0
BBX 8 20 0 0
BITMAP
42
24
18
7E
FF
FF
E7
E0
E0
F0
78
3C
1E
0F
07
07
E7
FF
FF
7E
ENDCHAR
STARTCHAR ¼
ENCODING -68
SWIDTH 75 0
DWIDTH -1 0
BBX 8 20 0 0
BITMAP
7F
7F
CC
CC
CC
CC
CC
CC
CC
CF
CF
CC
CC
CC
CC
CC
CC
CC
7F
7F
ENDCHAR
STARTCHAR ´
ENCODING -76
SWIDTH 75 0
DWIDTH -1 0
BBX 8 20 0 0
BITMAP
42
24
18
FF
FF
FF
07
0E
0E
1C
1C
38
38
70
70
E0
E0
FF
FF
FF
ENDCHAR
STARTCHAR ¨
ENCODING -88
SWIDTH 75 0
DWIDTH -1 0
BBX 8 17 0 0
BITMAP
42
24
18
00
7E
FE
FE
E0
E0
FE
FF
7F
07
07
FF
FF
FE
ENDCHAR
STARTCHAR ½
ENCODING -67
SWIDTH 75 0
DWIDTH -1 0
BBX 8 13 0 0
BITMAP
7E
FF
DB
DB
DB
DF
DE
D8
D8
D8
DF
FF
7E
ENDCHAR
STARTCHAR ¸
ENCODING -72
SWIDTH 75 0
DWIDTH -1 0
BBX 8 17 0 0
BITMAP
42
24
18
00
FF
FF
FF
07
07
0E
1C
38
70
E0
FF
FF
FF
ENDCHAR
STARTCHAR ¾
ENCODING -66
SWIDTH 75 0
DWIDTH -1 0
BBX 7 20 0 0
BITMAP
EE
EE
EE
00
EE
EE
EE
EE
EE
EE
EE
FE
7C
38
38
38
38
38
38
38
ENDCHAR
STARTCHAR ¡
ENCODING -95
SWIDTH 75 0
DWIDTH -1 0
BBX 3 20 0 0
BITMAP
E0
E0
E0
00
E0
E0
E0
E0
E0
E0
E0
E0
E0
E0
E0
E0
E0
E0
E0
E0
ENDCHAR
STARTCHAR ¢
ENCODING -94
SWIDTH 75 0
DWIDTH -1 0
BBX 8 16 0 1
BITMAP
08
7E
FF
FF
EB
E8
E8
E8
E8
E8
E8
EB
FF
FF
7E
08
ENDCHAR
STARTCHAR £
ENCODING -93
SWIDTH 75 0
DWIDTH -1 0
BBX 8 20 0 0
BITMAP
3C
7E
FF
E7
E0
60
60
60
FE
FE
FE
60
60
60
60
60
E7
FF
FE
BC
ENDCHAR
STARTCHAR ¥
ENCODING -91
SWIDTH 75 0
DWIDTH -1 0
BBX 8 20 0 0
BITMAP
C3
C3
C3
C3
C3
C3
C3
66
66
7E
3C
18
FF
FF
18
FF
FF
18
18
18
ENDCHAR
STARTCHAR §
ENCODING -89
SWIDTH 75 0
DWIDTH -1 0
BBX 8 19 0 0
BITMAP
7E
FF
C3
C3
E0
70
78
FC
EE
E7
77
3F
1E
0E
07
C3
C3
FF
7E
ENDCHAR
STARTCHAR ©
ENCODING -87
SWIDTH 75 0
DWIDTH -1 0
BBX 8 8 0 5
BITMAP
7E
81
BD
A1
A1
BD
81
7E
ENDCHAR
STARTCHAR ª
ENCODING -86
SWIDTH 75 0
DWIDTH -1 0
BBX 5 5 0 15
BITMAP
70
08
78
88
78
ENDCHAR
STARTCHAR «
ENCODING -85
SWIDTH 75 0
DWIDTH -1 0
BBX 8 7 0 5
BITMAP
33
77
EE
CC
EE
77
33
ENDCHAR
STARTCHAR ¬
ENCODING -84
SWIDTH 75 0
DWIDTH -1 0
BBX 7 5 0 6
BITMAP
FE
02
02
02
02
ENDCHAR
STARTCHAR ®
ENCODING -82
SWIDTH 75 0
DWIDTH -1 0
BBX 8 8 0 5
BITMAP
7E
81
99
95
99
95
81
7E
ENDCHAR
STARTCHAR ¯
ENCODING -81
SWIDTH 75 0
DWIDTH -1 0
BBX 6 1 0 11
BITMAP
FC
ENDCHAR
STARTCHAR °
ENCODING -80
SWIDTH 75 0
DWIDTH -1 0
BBX 4 5 0 14
BITMAP
60
90
90
90
60
ENDCHAR
STARTCHAR ±
ENCODING -79
SWIDTH 75 0
DWIDTH -1 0
BBX 8 11 0 5
BITMAP
18
18
18
FF
FF
18
18
18
00
FF
FF
ENDCHAR
STARTCHAR ²
ENCODING -78
SWIDTH 75 0
DWIDTH -1 0
BBX 4 6 0 14
BITMAP
60
90
10
20
40
F0
ENDCHAR
STARTCHAR ³
ENCODING -77
SWIDTH 75 0
DWIDTH -1 0
BBX 4 6 0 14
BITMAP
60
90
20
20
90
60
ENDCHAR
STARTCHAR µ
ENCODING -75
SWIDTH 75 0
DWIDTH -1 0
BBX 8 17 0 0
BITMAP
E7
E7
E7
E7
E7
E7
E7
EF
FF
FF
FB
E0
E0
E0
E0
E0
E0
ENDCHAR
STARTCHAR ·
ENCODING -73
SWIDTH 75 0
DWIDTH -1 0
BBX 2 2 0 10
BITMAP
C0
C0
ENDCHAR
STARTCHAR ¹
ENCODING -71
SWIDTH 75 0
DWIDTH -1 0
BBX 3 6 0 14
BITMAP
40
C0
40
40
40
E0
ENDCHAR
STARTCHAR º
ENCODING -70
SWIDTH 75 0
DWIDTH -1 0
BBX 4 6 0 14
BITMAP
60
90
90
90
90
60
ENDCHAR
STARTCHAR »
ENCODING -69
SWIDTH 75 0
DWIDTH -1 0
BBX 8 7 0 7
BITMAP
CC
EE
77
33
77
EE
CC
ENDCHAR
STARTCHAR ¿
ENCODING -65
SWIDTH 75 0
DWIDTH -1 0
BBX 8 20 0 0
BITMAP
1C
1C
1C
00
1C
1C
1C
1C
38
70
E0
E0
E0
E0
E7
E7
E7
FF
FF
7E
ENDCHAR
STARTCHAR À
ENCODING -64
SWIDTH 75 0
DWIDTH -1 0
BBX 8 20 0 0
BITMAP
30
18
0C
00
3C
7E
FF
E7
E7
E7
E7
FF
FF
FF
E7
E7
E7
E7
E7
E7
ENDCHAR
STARTCHAR Á
ENCODING -63
SWIDTH 75 0
DWIDTH -1 0
BBX 8 20 0 0
BITMAP
0C
18
30
00
3C
7E
FF
E7
E7
E7
E7
FF
FF
FF
E7
E7
E7
E7
E7
E7
ENDCHAR
STARTCHAR Â
ENCODING -62
SWIDTH 75 0
DWIDTH -1 0
BBX 8 20 0 0
BITMAP
18
24
42
00
3C
7E
FF
E7
E7
E7
E7
FF
FF
FF
E7
E7
E7
E7
E7
E7
ENDCHAR
STARTCHAR Ã
ENCODING -61
SWIDTH 75 0
DWIDTH -1 0
BBX 8 20 0 0
BITMAP
30
49
86
00
3C
7E
FF
E7
E7
E7
E7
FF
FF
FF
E7
E7
E7
E7
E7
E7
ENDCHAR
STARTCHAR Ä
ENCODING -60
SWIDTH 75 0
DWIDTH -1 0
BBX 8 20 0 0
BITMAP
E7
E7
E7
00
3C
7E
FF
E7
E7
E7
E7
FF
FF
FF
E7
E7
E7
E7
E7
E7
ENDCHAR
STARTCHAR Å
ENCODING -59
SWIDTH 75 0
DWIDTH -1 0
BBX 8 20 0 0
BITMAP
18
24
18
00
3C
7E
FF
E7
E7
E7
E7
FF
FF
FF
E7
E7
E7
E7
E7
E7
ENDCHAR
STARTCHAR Æ
ENCODING -58
SWIDTH 75 0
DWIDTH -1 0
BBX 8 20 0 0
BITMAP
3F
7F
FF
CC
CC
CC
CC
CC
CC
FF
FF
FF
CC
CC
CC
CC
CC
CF
CF
CF
ENDCHAR
STARTCHAR Ç
ENCODING -57
SWIDTH 75 0
DWIDTH -1 0
BBX 8 20 0 0
BITMAP
7E
FF
FF
E3
E0
E0
E0
E0
E0
E0
E0
E0
E0
E0
E3
FF
FF
7E
0C
38
ENDCHAR
STARTCHAR È
ENCODING -56
SWIDTH 75 0
DWIDTH -1 0
BBX 8 20 0 0
BITMAP
30
18
0C
00
FF
FF
FF
E0
E0
E0
FE
FE
FE
E0
E0
E0
E0
FF
FF
FF
ENDCHAR
STARTCHAR É
ENCODING -55
SWIDTH 75 0
DWIDTH -1 0
BBX 8 20 0 0
BITMAP
0C
18
30
00
FF
FF
FF
E0
E0
E0
FE
FE
FE
E0
E0
E0
E0
FF
FF
FF
ENDCHAR
STARTCHAR Ê
ENCODING -54
SWIDTH 75 0
DWIDTH -1 0
BBX 8 20 0 0
BITMAP
18
24
42
00
FF
FF
FF
E0
E0
E0
FE
FE
FE
E0
E0
E0
E0
FF
FF
FF
ENDCHAR
STARTCHAR Ë
ENCODING -53
SWIDTH 75 0
DWIDTH -1 0
BBX 8 20 0 0
BITMAP
E7
E7
E7
00
FF
FF
FF
E0
E0
E0
FE
FE
FE
E0
E0
E0
E0
FF
FF
FF
ENDCHAR
STARTCHAR Ì
ENCODING -52
SWIDTH 75 0
DWIDTH -1 0
BBX 4 20 0 0
BITMAP
C0
60
30
00
70
70
70
70
70
70
70
70
70
70
70
70
70
70
70
70
ENDCHAR
STARTCHAR Í
ENCODING -51
SWIDTH 75 0
DWIDTH -1 0
BBX 4 20 0 0
BITMAP
30
60
C0
00
E0
E0
E0
E0
E0
E0
E0
E0
E0
E0
E0
E0
E0
E0
E0
E0
ENDCHAR
STARTCHAR Î
ENCODING -50
SWIDTH 75 0
DWIDTH -1 0
BBX 5 20 0 0
BITMAP
20
50
88
00
70
70
70
70
70
70
70
70
70
70
70
70
70
70
70
70
ENDCHAR
STARTCHAR Ï
ENCODING -49
SWIDTH 75 0
DWIDTH -1 0
BBX 7 20 0 0
BITMAP
EE
EE
EE
00
38
38
38
38
38
38
38
38
38
38
38
38
38
38
38
38
ENDCHAR
STARTCHAR Ð
ENCODING -48
SWIDTH 75 0
DWIDTH -1 0
BBX 8 20 0 0
BITMAP
7C
7E
77
73
73
73
73
73
73
FB
FB
73
73
73
73
73
73
77
7E
7C
ENDCHAR
STARTCHAR Ñ
ENCODING -47
SWIDTH 75 0
DWIDTH -1 0
BBX 8 20 0 0
BITMAP
30
49
86
00
E7
F7
FF
FF
EF
E7
E7
E7
E7
E7
E7
E7
E7
E7
E7
E7
ENDCHAR
STARTCHAR Ò
ENCODING -46
SWIDTH 75 0
DWIDTH -1 0
BBX 8 20 0 0
BITMAP
30
18
0C
00
7E
FF
FF
E7
E7
E7
E7
E7
E7
E7
E7
E7
E7
FF
FF
7E
ENDCHAR
STARTCHAR Ó
ENCODING -45
SWIDTH 75 0
DWIDTH -1 0
BBX 8 20 0 0
BITMAP
0C
18
30
00
7E
FF
FF
E7
E7
E7
E7
E7
E7
E7
E7
E7
E7
FF
FF
7E
ENDCHAR
STARTCHAR Ô
ENCODING -44
SWIDTH 75 0
DWIDTH -1 0
BBX 8 20 0 0
BITMAP
18
24
42
00
7E
FF
FF
E7
E7
E7
E7
E7
E7
E7
E7
E7
E7
FF
FF
7E
ENDCHAR
STARTCHAR Õ
ENCODING -43
SWIDTH 75 0
DWIDTH -1 0
BBX 8 20 0 0
BITMAP
30
49
86
00
7E
FF
FF
E7
E7
E7
E7
E7
E7
E7
E7
E7
E7
FF
FF
7E
ENDCHAR
STARTCHAR Ö
ENCODING -42
SWIDTH 75 0
DWIDTH -1 0
BBX 8 20 0 0
BITMAP
E7
E7
E7
00
7E
FF
FF
E7
E7
E7
E7
E7
E7
E7
E7
E7
E7
FF
FF
7E
ENDCHAR
STARTCHAR ×
ENCODING -41
SWIDTH 75 0
DWIDTH -1 0
BBX 8 8 0 5
BITMAP
C3
E7
7E
3C
3C
7E
E7
C3
ENDCHAR
STARTCHAR Ø
ENCODING -40
SWIDTH 75 0
DWIDTH -1 0
BBX 8 20 0 0
BITMAP
08
08
7E
FF
FF
E7
E7
E7
E7
E7
E7
E7
E7
E7
E7
FF
FF
7E
10
10
ENDCHAR
STARTCHAR Ù
ENCODING -39
SWIDTH 75 0
DWIDTH -1 0
BBX 8 20 0 0
BITMAP
30
18
0C
00
E7
E7
E7
E7
E7
E7
E7
E7
E7
E7
E7
E7
E7
FF
FF
7E
ENDCHAR
STARTCHAR Ú
ENCODING -38
SWIDTH 75 0
DWIDTH -1 0
BBX 8 20 0 0
BITMAP
0C
18
30
00
E7
E7
E7
E7
E7
E7
E7
E7
E7
E7
E7
E7
E7
FF
FF
7E
ENDCHAR
STARTCHAR Û
ENCODING -37
SWIDTH 75 0
DWIDTH -1 0
BBX 8 20 0 0
BITMAP
18
24
42
00
E7
E7
E7
E7
E7
E7
E7
E7
E7
E7
E7
E7
E7
FF
FF
7E
ENDCHAR
STARTCHAR Ü
ENCODING -36
SWIDTH 75 0
DWIDTH -1 0
BBX 8 20 0 0
BITMAP
E7
E7
E7
00
E7
E7
E7
E7
E7
E7
E7
E7
E7
E7
E7
E7
E7
FF
FF
7E
ENDCHAR
STARTCHAR Ý
ENCODING -35
SWIDTH 75 0
DWIDTH -1 0
BBX 7 20 0 0
BITMAP
0C
18
30
00
EE
EE
EE
EE
EE
EE
EE
FE
7C
38
38
38
38
38
38
38
ENDCHAR
STARTCHAR Þ
ENCODING -34
SWIDTH 75 0
DWIDTH -1 0
BBX 8 20 0 0
BITMAP
E0
E0
E0
E0
E0
E0
E0
FE
FF
FF
E3
FF
FF
FE
E0
E0
E0
E0
E0
E0
ENDCHAR
STARTCHAR ß
ENCODING -33
SWIDTH 75 0
DWIDTH -1 0
BBX 8 19 0 0
BITMAP
7C
FE
FF
E7
E7
E6
EE
EE
EF
E7
E3
E3
E3
E3
E3
E7
EF
EE
E0
ENDCHAR
STARTCHAR à
ENCODING -32
SWIDTH 75 0
DWIDTH -1 0
BBX 8 17 0 0
BITMAP
30
18
0C
00
7E
7F
07
07
77
FF
FF
E7
E7
E7
FF
FF
77
ENDCHAR
STARTCHAR á
ENCODING -31
SWIDTH 75 0
DWIDTH -1 0
BBX 8 17 0 0
BITMAP
0C
18
30
00
7E
7F
07
07
77
FF
FF
E7
E7
E7
FF
FF
77
ENDCHAR
STARTCHAR â
ENCODING -30
SWIDTH 75 0
DWIDTH -1 0
BBX 8 17 0 0
BITMAP
18
24
42
00
7E
7F
07
07
77
FF
FF
E7
E7
E7
FF
FF
77
ENDCHAR
STARTCHAR ã
ENCODING -29
SWIDTH 75 0
DWIDTH -1 0
BBX 8 17 0 0
BITMAP
30
49
86
00
7E
7F
07
07
77
FF
FF
E7
E7
E7
FF
FF
77
ENDCHAR
STARTCHAR ä
ENCODING -28
SWIDTH 75 0
DWIDTH -1 0
BBX 8 17 0 0
BITMAP
E7
E7
E7
00
7E
7F
07
07
77
FF
FF
E7
E7
E7
FF
FF
7B
ENDCHAR
STARTCHAR å
ENCODING -27
SWIDTH 75 0
DWIDTH -1 0
BBX 8 17 0 0
BITMAP
18
24
18
00
7E
7F
07
07
77
FF
FF
E7
E7
E7
FF
FF
7B
ENDCHAR
STARTCHAR æ
ENCODING -26
SWIDTH 75 0
DWIDTH -1 0
BBX 8 13 0 0
BITMAP
7E
7F
1B
1B
7F
FF
FF
D8
D8
D8
FF
FF
7E
ENDCHAR
STARTCHAR ç
ENCODING -25
SWIDTH 75 0
DWIDTH -1 0
BBX 8 13 0 0
BITMAP
7E
FF
FF
E7
E0
E7
FF
FF
7E
10
18
0C
38
ENDCHAR
STARTCHAR è
ENCODING -24
SWIDTH 75 0
DWIDTH -1 0
BBX 8 17 0 0
BITMAP
30
18
0C
00
7E
FF
FF
E7
FF
FF
FF
E0
E0
E0
FF
FF
7E
ENDCHAR
STARTCHAR é
ENCODING -23
SWIDTH 75 0
DWIDTH -1 0
BBX 8 17 0 0
BITMAP
0C
18
30
00
7E
FF
FF
E7
FF
FF
FF
E0
E0
E0
FF
FF
7E
ENDCHAR
STARTCHAR ê
ENCODING -22
SWIDTH 75 0
DWIDTH -1 0
BBX 8 17 0 0
BITMAP
18
24
42
00
7E
FF
FF
E7
FF
FF
FF
E0
E0
E0
FF
FF
7E
ENDCHAR
STARTCHAR ë
ENCODING -21
SWIDTH 75 0
DWIDTH -1 0
BBX 8 17 0 0
BITMAP
E7
E7
E7
00
7E
FF
FF
E7
FF
FF
FF
E0
E0
E0
FF
FF
7E
ENDCHAR
STARTCHAR ì
ENCODING -20
SWIDTH 75 0
DWIDTH -1 0
BBX 4 17 0 0
BITMAP
C0
60
30
00
70
70
70
70
70
70
70
70
70
70
70
70
70
ENDCHAR
STARTCHAR í
ENCODING -19
SWIDTH 75 0
DWIDTH -1 0
BBX 4 17 0 0
BITMAP
30
60
C0
00
E0
E0
E0
E0
E0
E0
E0
E0
E0
E0
E0
E0
E0
ENDCHAR
STARTCHAR î
ENCODING -18
SWIDTH 75 0
DWIDTH -1 0
BBX 5 17 0 0
BITMAP
20
50
88
00
70
70
70
70
70
70
70
70
70
70
70
70
70
ENDCHAR
STARTCHAR ï
ENCODING -17
SWIDTH 75 0
DWIDTH -1 0
BBX 7 17 0 0
BITMAP
EE
EE
EE
00
38
38
38
38
38
38
38
38
38
38
38
38
38
ENDCHAR
STARTCHAR ð
ENCODING -16
SWIDTH 75 0
DWIDTH -1 0
BBX 8 18 0 0
BITMAP
64
38
30
48
04
7E
FF
FF
E7
E7
E7
E7
E7
E7
E7
FF
FF
7E
ENDCHAR
STARTCHAR ñ
ENCODING -15
SWIDTH 75 0
DWIDTH -1 0
BBX 8 17 0 0
BITMAP
30
49
86
00
DC
FE
FF
F7
E7
E7
E7
E7
E7
E7
E7
E7
E7
ENDCHAR
STARTCHAR ò
ENCODING -14
SWIDTH 75 0
DWIDTH -1 0
BBX 8 17 0 0
BITMAP
30
18
0C
00
7E
FF
FF
E7
E7
E7
E7
E7
E7
E7
FF
FF
7E
ENDCHAR
STARTCHAR ó
ENCODING -13
SWIDTH 75 0
DWIDTH -1 0
BBX 8 17 0 0
BITMAP
0C
18
30
00
7E
FF
FF
E7
E7
E7
E7
E7
E7
E7
FF
FF
7E
ENDCHAR
STARTCHAR ô
ENCODING -12
SWIDTH 75 0
DWIDTH -1 0
BBX 8 17 0 0
BITMAP
18
24
42
00
7E
FF
FF
E7
E7
E7
E7
E7
E7
E7
FF
FF
7E
ENDCHAR
STARTCHAR õ
ENCODING -11
SWIDTH 75 0
DWIDTH -1 0
BBX 8 17 0 0
BITMAP
30
49
86
00
7E
FF
FF
E7
E7
E7
E7
E7
E7
E7
FF
FF
7E
ENDCHAR
STARTCHAR ö
ENCODING -10
SWIDTH 75 0
DWIDTH -1 0
BBX 8 17 0 0
BITMAP
E7
E7
E7
00
7E
FF
FF
E7
E7
E7
E7
E7
E7
E7
FF
FF
7E
ENDCHAR
STARTCHAR ÷
ENCODING -9
SWIDTH 75 0
DWIDTH -1 0
BBX 8 8 0 5
BITMAP
18
18
00
FF
FF
00
18
18
ENDCHAR
STARTCHAR ø
ENCODING -8
SWIDTH 75 0
DWIDTH -1 0
BBX 8 14 0 0
BITMAP
04
7E
FF
CB
CB
CB
CB
DB
D3
D3
D3
FF
7E
20
ENDCHAR
STARTCHAR ù
ENCODING -7
SWIDTH 75 0
DWIDTH -1 0
BBX 8 17 0 0
BITMAP
30
18
0C
00
E7
E7
E7
E7
E7
E7
E7
E7
E7
EF
FF
7F
3B
ENDCHAR
STARTCHAR ú
ENCODING -6
SWIDTH 75 0
DWIDTH -1 0
BBX 8 17 0 0
BITMAP
0C
18
30
00
E7
E7
E7
E7
E7
E7
E7
E7
E7
EF
FF
7F
3B
ENDCHAR
STARTCHAR û
ENCODING -5
SWIDTH 75 0
DWIDTH -1 0
BBX 8 17 0 0
BITMAP
18
24
42
00
E7
E7
E7
E7
E7
E7
E7
E7
E7
EF
FF
7F
3B
ENDCHAR
STARTCHAR ü
ENCODING -4
SWIDTH 75 0
DWIDTH -1 0
BBX 8 17 0 0
BITMAP
E7
E7
E7
00
E7
E7
E7
E7
E7
E7
E7
E7
E7
EF
FF
7F
3B
ENDCHAR
STARTCHAR ý
ENCODING -3
SWIDTH 75 0
DWIDTH -1 0
BBX 8 17 0 0
BITMAP
0C
18
30
00
E7
E7
E7
E7
E7
FF
FF
7F
07
07
7F
7F
7E
ENDCHAR
STARTCHAR þ
ENCODING -2
SWIDTH 75 0
DWIDTH -1 0
BBX 8 18 0 0
BITMAP
E0
E0
E0
E0
EC
FE
FF
F7
E3
E3
F7
FF
FE
EC
E0
E0
E0
E0
ENDCHAR
STARTCHAR ÿ
ENCODING -1
SWIDTH 75 0
DWIDTH -1 0
BBX 8 17 0 0
BITMAP
E7
E7
E7
00
E7
E7
E7
E7
E7
FF
FF
7F
07
07
7F
7F
7E
ENDCHAR
ENDFONT
