STARTFONT 2.1
COMMENT Lumiplan font build using LumiStudio
FONT Duhamel 16/16 3-Normal
SIZE 16 75 75
FONTBOUNDINGBOX 10 16 0 0
STARTPROPERTIES 1
Copyright "Copyright (c) 2021 Lumiplan"
ENDPROPERTIES
CHARS 189
STARTCHAR 
ENCODING 14
SWIDTH 75 0
DWIDTH -1 0
BBX 0 0 1 15
ENDCHAR
STARTCHAR  
ENCODING 32
SWIDTH 75 0
DWIDTH -1 0
BBX 0 0 2 15
ENDCHAR
STARTCHAR !
ENCODING 33
SWIDTH 75 0
DWIDTH -1 0
BBX 2 16 0 0
BITMAP
C0
C0
C0
C0
C0
C0
C0
C0
C0
C0
C0
C0
C0
00
C0
C0
ENDCHAR
STARTCHAR "
ENCODING 34
SWIDTH 75 0
DWIDTH -1 0
BBX 7 3 0 13
BITMAP
66
66
88
ENDCHAR
STARTCHAR #
ENCODING 35
SWIDTH 75 0
DWIDTH -1 0
BBX 10 16 0 0
BITMAP
1980
1980
1980
FFC0
FFC0
3300
3300
3300
3300
3300
3300
FFC0
FFC0
6600
6600
6600
ENDCHAR
STARTCHAR $
ENCODING 36
SWIDTH 75 0
DWIDTH -1 0
BBX 10 16 0 0
BITMAP
0C00
3F00
7F80
EDC0
CCC0
CC00
EC00
7F00
3F80
0DC0
0CC0
CCC0
EDC0
7F80
3F00
0C00
ENDCHAR
STARTCHAR %
ENCODING 37
SWIDTH 75 0
DWIDTH -1 0
BBX 10 16 0 0
BITMAP
C1C0
C1C0
0380
0380
0700
0700
0E00
0E00
1C00
1C00
3800
3800
7000
7000
E0C0
E0C0
ENDCHAR
STARTCHAR &
ENCODING 38
SWIDTH 75 0
DWIDTH -1 0
BBX 10 15 0 0
BITMAP
3E00
7F00
7700
6300
7700
3E00
3E00
7F00
77C0
E3C0
C1C0
C180
E3C0
FFC0
7F00
ENDCHAR
STARTCHAR '
ENCODING 39
SWIDTH 75 0
DWIDTH -1 0
BBX 3 3 0 13
BITMAP
60
60
80
ENDCHAR
STARTCHAR (
ENCODING 40
SWIDTH 75 0
DWIDTH -1 0
BBX 5 16 0 0
BITMAP
18
38
70
E0
C0
C0
C0
C0
C0
C0
C0
C0
E0
70
38
18
ENDCHAR
STARTCHAR )
ENCODING 41
SWIDTH 75 0
DWIDTH -1 0
BBX 5 16 0 0
BITMAP
C0
E0
70
38
18
18
18
18
18
18
18
18
38
70
E0
C0
ENDCHAR
STARTCHAR *
ENCODING 42
SWIDTH 75 0
DWIDTH -1 0
BBX 10 10 0 6
BITMAP
CCC0
EDC0
7F80
3F00
FFC0
FFC0
3F00
7F80
EDC0
CCC0
ENDCHAR
STARTCHAR +
ENCODING 43
SWIDTH 75 0
DWIDTH -1 0
BBX 10 10 0 4
BITMAP
0C00
0C00
0C00
0C00
FFC0
FFC0
0C00
0C00
0C00
0C00
ENDCHAR
STARTCHAR ,
ENCODING 44
SWIDTH 75 0
DWIDTH -1 0
BBX 3 3 0 0
BITMAP
60
60
80
ENDCHAR
STARTCHAR -
ENCODING 45
SWIDTH 75 0
DWIDTH -1 0
BBX 9 2 0 8
BITMAP
FF80
FF80
ENDCHAR
STARTCHAR .
ENCODING 46
SWIDTH 75 0
DWIDTH -1 0
BBX 2 2 0 0
BITMAP
C0
C0
ENDCHAR
STARTCHAR /
ENCODING 47
SWIDTH 75 0
DWIDTH -1 0
BBX 10 16 0 0
BITMAP
01C0
01C0
0380
0380
0700
0700
0E00
0E00
1C00
1C00
3800
3800
7000
7000
E000
E000
ENDCHAR
STARTCHAR 0
ENCODING 48
SWIDTH 75 0
DWIDTH -1 0
BBX 8 16 0 0
BITMAP
7E
FF
E7
C3
C3
C3
C3
C3
C3
C3
C3
C3
C3
E7
FF
7E
ENDCHAR
STARTCHAR 1
ENCODING 49
SWIDTH 75 0
DWIDTH -1 0
BBX 5 16 0 0
BITMAP
18
38
78
F8
D8
18
18
18
18
18
18
18
18
18
18
18
ENDCHAR
STARTCHAR 2
ENCODING 50
SWIDTH 75 0
DWIDTH -1 0
BBX 8 16 0 0
BITMAP
3C
7E
E7
C3
03
03
07
0E
1C
38
70
E0
C0
C0
FF
FF
ENDCHAR
STARTCHAR 3
ENCODING 51
SWIDTH 75 0
DWIDTH -1 0
BBX 9 16 0 0
BITMAP
3E00
7F00
E380
C180
0180
0180
0380
0F00
0F00
0380
0180
0180
C180
E380
7F00
3E00
ENDCHAR
STARTCHAR 4
ENCODING 52
SWIDTH 75 0
DWIDTH -1 0
BBX 9 16 0 0
BITMAP
0300
0700
0F00
1F00
3B00
7300
E300
C300
C300
C300
FF80
FF80
0300
0300
0300
0300
ENDCHAR
STARTCHAR 5
ENCODING 53
SWIDTH 75 0
DWIDTH -1 0
BBX 9 16 0 0
BITMAP
FF80
FF80
C000
C000
C000
C000
FE00
7F00
0380
0180
0180
0180
0180
C380
FF00
7E00
ENDCHAR
STARTCHAR 6
ENCODING 54
SWIDTH 75 0
DWIDTH -1 0
BBX 9 16 0 0
BITMAP
1F00
3F00
7000
E000
C000
C000
C000
DE00
FF00
E380
C180
C180
C180
E380
7F00
3E00
ENDCHAR
STARTCHAR 7
ENCODING 55
SWIDTH 75 0
DWIDTH -1 0
BBX 7 16 0 0
BITMAP
FE
FE
06
06
0C
0C
18
18
30
30
30
30
30
30
30
30
ENDCHAR
STARTCHAR 8
ENCODING 56
SWIDTH 75 0
DWIDTH -1 0
BBX 9 16 0 0
BITMAP
3E00
7F00
E380
C180
C180
C180
E380
7F00
7F00
E380
C180
C180
C180
E380
7F00
3E00
ENDCHAR
STARTCHAR 9
ENCODING 57
SWIDTH 75 0
DWIDTH -1 0
BBX 9 16 0 0
BITMAP
3E00
7F00
E380
C180
C180
C180
E380
7F80
3D80
0180
0180
0180
0380
0700
7E00
7C00
ENDCHAR
STARTCHAR :
ENCODING 58
SWIDTH 75 0
DWIDTH -1 0
BBX 2 6 0 1
BITMAP
C0
C0
00
00
C0
C0
ENDCHAR
STARTCHAR ;
ENCODING 59
SWIDTH 75 0
DWIDTH -1 0
BBX 3 7 0 0
BITMAP
60
60
00
00
60
60
80
ENDCHAR
STARTCHAR <
ENCODING 60
SWIDTH 75 0
DWIDTH -1 0
BBX 8 16 0 0
BITMAP
03
07
0E
1C
38
70
E0
C0
C0
E0
70
38
1C
0E
07
03
ENDCHAR
STARTCHAR =
ENCODING 61
SWIDTH 75 0
DWIDTH -1 0
BBX 10 7 0 4
BITMAP
FFC0
FFC0
0000
0000
0000
FFC0
FFC0
ENDCHAR
STARTCHAR >
ENCODING 62
SWIDTH 75 0
DWIDTH -1 0
BBX 8 16 0 0
BITMAP
C0
E0
70
38
1C
0E
07
03
03
07
0E
1C
38
70
E0
C0
ENDCHAR
STARTCHAR ?
ENCODING 63
SWIDTH 75 0
DWIDTH -1 0
BBX 8 16 0 0
BITMAP
3C
7E
E7
C3
03
06
0C
0C
18
18
18
18
18
00
18
18
ENDCHAR
STARTCHAR @
ENCODING 64
SWIDTH 75 0
DWIDTH -1 0
BBX 10 16 0 0
BITMAP
7F80
FFC0
E1C0
C0C0
C0C0
C7C0
CFC0
CDC0
CF80
C700
C000
C000
C0C0
E1C0
FFC0
7F80
ENDCHAR
STARTCHAR A
ENCODING 65
SWIDTH 75 0
DWIDTH -1 0
BBX 9 16 0 0
BITMAP
3E00
7F00
E380
C180
C180
C180
C180
FF80
FF80
C180
C180
C180
C180
C180
C180
C180
ENDCHAR
STARTCHAR B
ENCODING 66
SWIDTH 75 0
DWIDTH -1 0
BBX 9 16 0 0
BITMAP
FE00
FF00
C380
C180
C180
C180
C380
FF00
FF00
C380
C180
C180
C180
C380
FF00
FE00
ENDCHAR
STARTCHAR C
ENCODING 67
SWIDTH 75 0
DWIDTH -1 0
BBX 9 16 0 0
BITMAP
3E00
7F00
E380
C180
C000
C000
C000
C000
C000
C000
C000
C000
C180
E380
7F00
3E00
ENDCHAR
STARTCHAR D
ENCODING 68
SWIDTH 75 0
DWIDTH -1 0
BBX 9 16 0 0
BITMAP
FE00
FF00
C380
C180
C180
C180
C180
C180
C180
C180
C180
C180
C180
C380
FF00
FE00
ENDCHAR
STARTCHAR E
ENCODING 69
SWIDTH 75 0
DWIDTH -1 0
BBX 9 16 0 0
BITMAP
FF80
FF80
C000
C000
C000
C000
C000
FF00
FF00
C000
C000
C000
C000
C000
FF80
FF80
ENDCHAR
STARTCHAR F
ENCODING 70
SWIDTH 75 0
DWIDTH -1 0
BBX 9 16 0 0
BITMAP
FF80
FF80
C000
C000
C000
C000
C000
FF00
FF00
C000
C000
C000
C000
C000
C000
C000
ENDCHAR
STARTCHAR G
ENCODING 71
SWIDTH 75 0
DWIDTH -1 0
BBX 9 16 0 0
BITMAP
3E00
7F00
E380
C180
C000
C000
C000
CF00
CF80
C180
C180
C180
C180
E380
7F00
3E00
ENDCHAR
STARTCHAR H
ENCODING 72
SWIDTH 75 0
DWIDTH -1 0
BBX 9 16 0 0
BITMAP
C180
C180
C180
C180
C180
C180
C180
FF80
FF80
C180
C180
C180
C180
C180
C180
C180
ENDCHAR
STARTCHAR I
ENCODING 73
SWIDTH 75 0
DWIDTH -1 0
BBX 2 16 0 0
BITMAP
C0
C0
C0
C0
C0
C0
C0
C0
C0
C0
C0
C0
C0
C0
C0
C0
ENDCHAR
STARTCHAR J
ENCODING 74
SWIDTH 75 0
DWIDTH -1 0
BBX 7 16 0 0
BITMAP
06
06
06
06
06
06
06
06
06
06
06
06
C6
C6
FE
7C
ENDCHAR
STARTCHAR K
ENCODING 75
SWIDTH 75 0
DWIDTH -1 0
BBX 9 16 0 0
BITMAP
C180
C180
C180
C380
C700
CE00
DC00
F800
F800
DC00
CE00
C700
C380
C180
C180
C180
ENDCHAR
STARTCHAR L
ENCODING 76
SWIDTH 75 0
DWIDTH -1 0
BBX 8 16 0 0
BITMAP
C0
C0
C0
C0
C0
C0
C0
C0
C0
C0
C0
C0
C0
C0
FF
FF
ENDCHAR
STARTCHAR M
ENCODING 77
SWIDTH 75 0
DWIDTH -1 0
BBX 9 16 0 0
BITMAP
8080
C180
E380
F780
DD80
C980
C180
C180
C180
C180
C180
C180
C180
C180
C180
C180
ENDCHAR
STARTCHAR N
ENCODING 78
SWIDTH 75 0
DWIDTH -1 0
BBX 10 16 0 0
BITMAP
80C0
C0C0
E0C0
F0C0
F8C0
DCC0
CEC0
C7C0
C3C0
C1C0
C0C0
C0C0
C0C0
C0C0
C0C0
C0C0
ENDCHAR
STARTCHAR O
ENCODING 79
SWIDTH 75 0
DWIDTH -1 0
BBX 10 16 0 0
BITMAP
3F00
7F80
E1C0
C0C0
C0C0
C0C0
C0C0
C0C0
C0C0
C0C0
C0C0
C0C0
C0C0
E1C0
7F80
3F00
ENDCHAR
STARTCHAR P
ENCODING 80
SWIDTH 75 0
DWIDTH -1 0
BBX 9 16 0 0
BITMAP
FF00
FF80
C180
C180
C180
C180
C180
FF80
FF00
C000
C000
C000
C000
C000
C000
C000
ENDCHAR
STARTCHAR Q
ENCODING 81
SWIDTH 75 0
DWIDTH -1 0
BBX 9 16 0 0
BITMAP
3E00
7F00
E380
C180
C180
C180
C180
C180
C180
C180
C180
C180
C680
E700
7B80
3D80
ENDCHAR
STARTCHAR R
ENCODING 82
SWIDTH 75 0
DWIDTH -1 0
BBX 9 16 0 0
BITMAP
FE00
FF00
C380
C180
C180
C180
C380
FF00
FE00
C700
C380
C180
C180
C180
C180
C180
ENDCHAR
STARTCHAR S
ENCODING 83
SWIDTH 75 0
DWIDTH -1 0
BBX 9 16 0 0
BITMAP
3E00
7F00
E380
C180
C000
C000
E000
7E00
3F00
0380
0180
0180
C180
E380
7F00
3E00
ENDCHAR
STARTCHAR T
ENCODING 84
SWIDTH 75 0
DWIDTH -1 0
BBX 8 16 0 0
BITMAP
FF
FF
18
18
18
18
18
18
18
18
18
18
18
18
18
18
ENDCHAR
STARTCHAR U
ENCODING 85
SWIDTH 75 0
DWIDTH -1 0
BBX 9 16 0 0
BITMAP
C180
C180
C180
C180
C180
C180
C180
C180
C180
C180
C180
C180
C180
E380
7F00
3E00
ENDCHAR
STARTCHAR V
ENCODING 86
SWIDTH 75 0
DWIDTH -1 0
BBX 9 16 0 0
BITMAP
C180
C180
C180
C180
C180
C180
C180
C180
C180
C180
C180
E380
7700
3E00
1C00
0800
ENDCHAR
STARTCHAR W
ENCODING 87
SWIDTH 75 0
DWIDTH -1 0
BBX 9 16 0 0
BITMAP
C180
C180
C180
C180
C180
C180
C180
C180
C180
C180
C980
DD80
F780
E380
C180
8080
ENDCHAR
STARTCHAR X
ENCODING 88
SWIDTH 75 0
DWIDTH -1 0
BBX 10 16 0 0
BITMAP
C0C0
C0C0
C0C0
E1C0
7380
3F00
1E00
0C00
0C00
1E00
3F00
7380
E1C0
C0C0
C0C0
C0C0
ENDCHAR
STARTCHAR Y
ENCODING 89
SWIDTH 75 0
DWIDTH -1 0
BBX 8 16 0 0
BITMAP
C3
C3
C3
C3
66
66
3C
3C
18
18
18
18
18
18
18
18
ENDCHAR
STARTCHAR Z
ENCODING 90
SWIDTH 75 0
DWIDTH -1 0
BBX 9 16 0 0
BITMAP
FF80
FF80
0180
0180
0380
0700
0E00
1C00
3800
7000
E000
C000
C000
C000
FF80
FF80
ENDCHAR
STARTCHAR [
ENCODING 91
SWIDTH 75 0
DWIDTH -1 0
BBX 5 16 0 0
BITMAP
F8
F8
C0
C0
C0
C0
C0
C0
C0
C0
C0
C0
C0
C0
F8
F8
ENDCHAR
STARTCHAR \
ENCODING 92
SWIDTH 75 0
DWIDTH -1 0
BBX 10 16 0 0
BITMAP
E000
E000
7000
7000
3800
3800
1C00
1C00
0E00
0E00
0700
0700
0380
0380
01C0
01C0
ENDCHAR
STARTCHAR ]
ENCODING 93
SWIDTH 75 0
DWIDTH -1 0
BBX 5 16 0 0
BITMAP
F8
F8
18
18
18
18
18
18
18
18
18
18
18
18
F8
F8
ENDCHAR
STARTCHAR ^
ENCODING 94
SWIDTH 75 0
DWIDTH -1 0
BBX 10 6 0 10
BITMAP
0C00
1E00
3F00
7380
E1C0
C0C0
ENDCHAR
STARTCHAR _
ENCODING 95
SWIDTH 75 0
DWIDTH -1 0
BBX 8 2 0 0
BITMAP
FF
FF
ENDCHAR
STARTCHAR `
ENCODING 96
SWIDTH 75 0
DWIDTH -1 0
BBX 3 3 0 13
BITMAP
C0
C0
20
ENDCHAR
STARTCHAR a
ENCODING 97
SWIDTH 75 0
DWIDTH -1 0
BBX 8 9 0 0
BITMAP
3E
7F
03
7F
FF
C3
C7
FF
7B
ENDCHAR
STARTCHAR b
ENCODING 98
SWIDTH 75 0
DWIDTH -1 0
BBX 9 16 0 0
BITMAP
C000
C000
C000
C000
C000
C000
C000
DE00
FF00
E380
C180
C180
C180
E380
FF00
DE00
ENDCHAR
STARTCHAR c
ENCODING 99
SWIDTH 75 0
DWIDTH -1 0
BBX 9 9 0 0
BITMAP
3E00
7F00
E380
C180
C000
C180
E380
7F00
3E00
ENDCHAR
STARTCHAR d
ENCODING 100
SWIDTH 75 0
DWIDTH -1 0
BBX 9 16 0 0
BITMAP
0180
0180
0180
0180
0180
0180
0180
3D80
7F80
E380
C180
C180
C180
E380
7F80
3D80
ENDCHAR
STARTCHAR e
ENCODING 101
SWIDTH 75 0
DWIDTH -1 0
BBX 8 9 0 0
BITMAP
7E
FF
C3
FF
FE
C0
C3
FF
7E
ENDCHAR
STARTCHAR f
ENCODING 102
SWIDTH 75 0
DWIDTH -1 0
BBX 9 16 0 0
BITMAP
1E00
3F00
7380
6180
6000
6000
6000
F800
F800
6000
6000
6000
6000
6000
6000
6000
ENDCHAR
STARTCHAR g
ENCODING 103
SWIDTH 75 0
DWIDTH -1 0
BBX 8 9 0 0
BITMAP
7B
FF
C7
C3
FF
7F
03
FF
7E
ENDCHAR
STARTCHAR h
ENCODING 104
SWIDTH 75 0
DWIDTH -1 0
BBX 8 16 0 0
BITMAP
C0
C0
C0
C0
C0
C0
C0
DC
FE
E7
C3
C3
C3
C3
C3
C3
ENDCHAR
STARTCHAR i
ENCODING 105
SWIDTH 75 0
DWIDTH -1 0
BBX 2 12 0 0
BITMAP
C0
C0
00
C0
C0
C0
C0
C0
C0
C0
C0
C0
ENDCHAR
STARTCHAR j
ENCODING 106
SWIDTH 75 0
DWIDTH -1 0
BBX 7 12 0 0
BITMAP
06
06
00
06
06
06
06
06
C6
C6
FE
7C
ENDCHAR
STARTCHAR k
ENCODING 107
SWIDTH 75 0
DWIDTH -1 0
BBX 7 16 0 0
BITMAP
C0
C0
C0
C0
C0
C0
C0
C6
CE
DC
F8
F0
F8
DC
CE
C6
ENDCHAR
STARTCHAR l
ENCODING 108
SWIDTH 75 0
DWIDTH -1 0
BBX 2 16 0 0
BITMAP
C0
C0
C0
C0
C0
C0
C0
C0
C0
C0
C0
C0
C0
C0
C0
C0
ENDCHAR
STARTCHAR m
ENCODING 109
SWIDTH 75 0
DWIDTH -1 0
BBX 10 9 0 0
BITMAP
B700
FF80
DDC0
CCC0
CCC0
CCC0
CCC0
CCC0
CCC0
ENDCHAR
STARTCHAR n
ENCODING 110
SWIDTH 75 0
DWIDTH -1 0
BBX 8 9 0 0
BITMAP
DC
FE
E7
C3
C3
C3
C3
C3
C3
ENDCHAR
STARTCHAR o
ENCODING 111
SWIDTH 75 0
DWIDTH -1 0
BBX 9 9 0 0
BITMAP
3E00
7F00
E380
C180
C180
C180
E380
7F00
3E00
ENDCHAR
STARTCHAR p
ENCODING 112
SWIDTH 75 0
DWIDTH -1 0
BBX 8 9 0 0
BITMAP
DE
FF
E3
C3
FF
FE
C0
C0
C0
ENDCHAR
STARTCHAR q
ENCODING 113
SWIDTH 75 0
DWIDTH -1 0
BBX 8 9 0 0
BITMAP
7B
FF
C7
C3
FF
7F
03
03
03
ENDCHAR
STARTCHAR r
ENCODING 114
SWIDTH 75 0
DWIDTH -1 0
BBX 8 9 0 0
BITMAP
DE
FF
E3
C0
C0
C0
C0
C0
C0
ENDCHAR
STARTCHAR s
ENCODING 115
SWIDTH 75 0
DWIDTH -1 0
BBX 8 9 0 0
BITMAP
7F
FF
C0
FE
7F
03
03
FF
FE
ENDCHAR
STARTCHAR t
ENCODING 116
SWIDTH 75 0
DWIDTH -1 0
BBX 9 16 0 0
BITMAP
6000
6000
6000
6000
6000
6000
6000
F800
F800
6000
6000
6000
6180
7380
3F00
1E00
ENDCHAR
STARTCHAR u
ENCODING 117
SWIDTH 75 0
DWIDTH -1 0
BBX 8 9 0 0
BITMAP
C3
C3
C3
C3
C3
C3
E7
7F
3B
ENDCHAR
STARTCHAR v
ENCODING 118
SWIDTH 75 0
DWIDTH -1 0
BBX 9 9 0 0
BITMAP
C180
C180
C180
C180
E380
7700
3E00
1C00
0800
ENDCHAR
STARTCHAR w
ENCODING 119
SWIDTH 75 0
DWIDTH -1 0
BBX 9 9 0 0
BITMAP
C180
C180
C180
C180
C180
C980
DD80
7F00
3600
ENDCHAR
STARTCHAR x
ENCODING 120
SWIDTH 75 0
DWIDTH -1 0
BBX 9 9 0 0
BITMAP
C180
E380
7700
3E00
1C00
3E00
7700
E380
C180
ENDCHAR
STARTCHAR y
ENCODING 121
SWIDTH 75 0
DWIDTH -1 0
BBX 8 9 0 0
BITMAP
C3
C3
C3
E7
7F
3B
03
FF
7E
ENDCHAR
STARTCHAR z
ENCODING 122
SWIDTH 75 0
DWIDTH -1 0
BBX 8 9 0 0
BITMAP
FF
FF
06
0C
18
30
60
FF
FF
ENDCHAR
STARTCHAR {
ENCODING 123
SWIDTH 75 0
DWIDTH -1 0
BBX 7 16 0 0
BITMAP
06
0E
1C
38
30
30
70
E0
E0
70
30
30
38
1C
0E
06
ENDCHAR
STARTCHAR |
ENCODING 124
SWIDTH 75 0
DWIDTH -1 0
BBX 2 16 0 0
BITMAP
C0
C0
C0
C0
C0
C0
C0
C0
C0
C0
C0
C0
C0
C0
C0
C0
ENDCHAR
STARTCHAR }
ENCODING 125
SWIDTH 75 0
DWIDTH -1 0
BBX 7 16 0 0
BITMAP
C0
E0
70
38
18
18
1C
0E
0E
1C
18
18
38
70
E0
C0
ENDCHAR
STARTCHAR ~
ENCODING 126
SWIDTH 75 0
DWIDTH -1 0
BBX 8 3 0 7
BITMAP
3B
7E
CC
ENDCHAR
STARTCHAR ¤
ENCODING -92
SWIDTH 75 0
DWIDTH -1 0
BBX 8 16 0 0
BITMAP
3E
7F
63
60
60
FC
FC
60
60
FC
FC
60
60
63
7F
3E
ENDCHAR
STARTCHAR ¦
ENCODING -90
SWIDTH 75 0
DWIDTH -1 0
BBX 8 16 0 0
BITMAP
66
3C
18
00
7E
FF
C3
C0
C0
FE
7F
03
03
C3
FF
7E
ENDCHAR
STARTCHAR ¼
ENCODING -68
SWIDTH 75 0
DWIDTH -1 0
BBX 10 16 0 0
BITMAP
77C0
FFC0
C600
C600
C600
C600
C600
C780
C780
C600
C600
C600
C600
C600
FFC0
77C0
ENDCHAR
STARTCHAR ´
ENCODING -76
SWIDTH 75 0
DWIDTH -1 0
BBX 9 16 0 0
BITMAP
6300
3600
1C00
0000
FF80
FF80
0180
0380
0700
0E00
1C00
3800
7000
E000
FF80
FF80
ENDCHAR
STARTCHAR ¨
ENCODING -88
SWIDTH 75 0
DWIDTH -1 0
BBX 8 13 0 0
BITMAP
63
36
1C
00
7F
FF
C0
FE
7F
03
03
FF
FE
ENDCHAR
STARTCHAR ½
ENCODING -67
SWIDTH 75 0
DWIDTH -1 0
BBX 10 9 0 0
BITMAP
7380
FFC0
CEC0
C7C0
C780
C600
CEC0
FFC0
7380
ENDCHAR
STARTCHAR ¸
ENCODING -72
SWIDTH 75 0
DWIDTH -1 0
BBX 8 13 0 0
BITMAP
66
3C
18
00
FF
FF
06
0C
18
30
60
FF
FF
ENDCHAR
STARTCHAR ¾
ENCODING -66
SWIDTH 75 0
DWIDTH -1 0
BBX 8 15 0 0
BITMAP
66
66
00
C3
C3
C3
66
66
3C
3C
18
18
18
18
18
ENDCHAR
STARTCHAR ¡
ENCODING -95
SWIDTH 75 0
DWIDTH -1 0
BBX 2 16 0 0
BITMAP
C0
C0
00
C0
C0
C0
C0
C0
C0
C0
C0
C0
C0
C0
C0
C0
ENDCHAR
STARTCHAR ¢
ENCODING -94
SWIDTH 75 0
DWIDTH -1 0
BBX 9 11 0 0
BITMAP
0400
3E00
7F00
EB80
C980
C800
C980
EB80
7F00
3E00
1000
ENDCHAR
STARTCHAR £
ENCODING -93
SWIDTH 75 0
DWIDTH -1 0
BBX 8 16 0 0
BITMAP
3E
7F
63
60
60
60
60
30
F8
F8
60
60
60
63
FF
FE
ENDCHAR
STARTCHAR ¥
ENCODING -91
SWIDTH 75 0
DWIDTH -1 0
BBX 8 16 0 0
BITMAP
C3
C3
C3
C3
66
66
3C
FF
FF
18
FF
FF
18
18
18
18
ENDCHAR
STARTCHAR §
ENCODING -89
SWIDTH 75 0
DWIDTH -1 0
BBX 7 16 0 0
BITMAP
7C
FE
C6
E0
70
F8
DC
CE
E6
76
3E
1C
0E
C6
FE
7C
ENDCHAR
STARTCHAR ©
ENCODING -87
SWIDTH 75 0
DWIDTH -1 0
BBX 9 9 0 7
BITMAP
7F00
8080
9C80
A280
A080
A280
9C80
8080
7F00
ENDCHAR
STARTCHAR ª
ENCODING -86
SWIDTH 75 0
DWIDTH -1 0
BBX 3 5 0 11
BITMAP
40
20
60
A0
60
ENDCHAR
STARTCHAR «
ENCODING -85
SWIDTH 75 0
DWIDTH -1 0
BBX 10 11 0 2
BITMAP
0CC0
1DC0
3B80
7700
EE00
CC00
EE00
7700
3B80
1DC0
0CC0
ENDCHAR
STARTCHAR ¬
ENCODING -84
SWIDTH 75 0
DWIDTH -1 0
BBX 9 7 0 6
BITMAP
FF80
FF80
0180
0180
0180
0180
0180
ENDCHAR
STARTCHAR ®
ENCODING -82
SWIDTH 75 0
DWIDTH -1 0
BBX 9 9 0 7
BITMAP
7F00
8080
BC80
A280
BC80
A280
A280
8080
7F00
ENDCHAR
STARTCHAR ¯
ENCODING -81
SWIDTH 75 0
DWIDTH -1 0
BBX 7 2 0 14
BITMAP
FE
FE
ENDCHAR
STARTCHAR °
ENCODING -80
SWIDTH 75 0
DWIDTH -1 0
BBX 4 4 0 12
BITMAP
60
90
90
60
ENDCHAR
STARTCHAR ±
ENCODING -79
SWIDTH 75 0
DWIDTH -1 0
BBX 8 11 0 3
BITMAP
18
18
18
FF
FF
18
18
18
00
FF
FF
ENDCHAR
STARTCHAR ²
ENCODING -78
SWIDTH 75 0
DWIDTH -1 0
BBX 4 5 0 11
BITMAP
E0
10
20
40
F0
ENDCHAR
STARTCHAR ³
ENCODING -77
SWIDTH 75 0
DWIDTH -1 0
BBX 4 5 0 11
BITMAP
E0
10
20
10
E0
ENDCHAR
STARTCHAR µ
ENCODING -75
SWIDTH 75 0
DWIDTH -1 0
BBX 9 13 0 0
BITMAP
C180
C180
C180
C180
E380
FF80
DD80
C000
C000
C000
C000
C000
C000
ENDCHAR
STARTCHAR ·
ENCODING -73
SWIDTH 75 0
DWIDTH -1 0
BBX 2 2 0 5
BITMAP
C0
C0
ENDCHAR
STARTCHAR ¹
ENCODING -71
SWIDTH 75 0
DWIDTH -1 0
BBX 2 5 0 11
BITMAP
40
C0
40
40
40
ENDCHAR
STARTCHAR º
ENCODING -70
SWIDTH 75 0
DWIDTH -1 0
BBX 4 5 0 11
BITMAP
60
90
90
90
60
ENDCHAR
STARTCHAR »
ENCODING -69
SWIDTH 75 0
DWIDTH -1 0
BBX 10 11 0 3
BITMAP
CC00
EE00
7700
3B80
1DC0
0CC0
1DC0
3B80
7700
EE00
CC00
ENDCHAR
STARTCHAR ¿
ENCODING -65
SWIDTH 75 0
DWIDTH -1 0
BBX 8 16 0 0
BITMAP
18
18
00
18
18
18
18
18
30
30
60
C0
C3
E7
7E
3C
ENDCHAR
STARTCHAR À
ENCODING -64
SWIDTH 75 0
DWIDTH -1 0
BBX 8 16 0 0
BITMAP
30
38
18
00
3C
7E
E7
C3
C3
C3
FF
FF
C3
C3
C3
C3
ENDCHAR
STARTCHAR Á
ENCODING -63
SWIDTH 75 0
DWIDTH -1 0
BBX 8 16 0 0
BITMAP
0C
1C
18
00
3C
7E
E7
C3
C3
C3
FF
FF
C3
C3
C3
C3
ENDCHAR
STARTCHAR Â
ENCODING -62
SWIDTH 75 0
DWIDTH -1 0
BBX 8 16 0 0
BITMAP
18
3C
66
00
3C
7E
E7
C3
C3
C3
FF
FF
C3
C3
C3
C3
ENDCHAR
STARTCHAR Ã
ENCODING -61
SWIDTH 75 0
DWIDTH -1 0
BBX 8 16 0 0
BITMAP
3B
7E
CC
00
3C
7E
E7
C3
C3
C3
FF
FF
C3
C3
C3
C3
ENDCHAR
STARTCHAR Ä
ENCODING -60
SWIDTH 75 0
DWIDTH -1 0
BBX 8 15 0 0
BITMAP
66
66
00
3C
7E
E7
C3
C3
C3
FF
FF
C3
C3
C3
C3
ENDCHAR
STARTCHAR Å
ENCODING -59
SWIDTH 75 0
DWIDTH -1 0
BBX 8 16 0 0
BITMAP
18
24
18
00
3C
7E
E7
C3
C3
C3
FF
FF
C3
C3
C3
C3
ENDCHAR
STARTCHAR Æ
ENCODING -58
SWIDTH 75 0
DWIDTH -1 0
BBX 10 16 0 0
BITMAP
3FC0
7FC0
EC00
CC00
CC00
CC00
CC00
FF80
FF80
CC00
CC00
CC00
CC00
CC00
CFC0
CFC0
ENDCHAR
STARTCHAR Ç
ENCODING -57
SWIDTH 75 0
DWIDTH -1 0
BBX 9 16 0 0
BITMAP
7F00
FF80
C180
C180
C000
C000
C000
C000
C000
C180
C180
FF80
7F00
0400
0200
1C00
ENDCHAR
STARTCHAR È
ENCODING -56
SWIDTH 75 0
DWIDTH -1 0
BBX 8 16 0 0
BITMAP
30
38
18
00
FF
FF
C0
C0
C0
FE
FE
C0
C0
C0
FF
FF
ENDCHAR
STARTCHAR É
ENCODING -55
SWIDTH 75 0
DWIDTH -1 0
BBX 8 16 0 0
BITMAP
0C
1C
18
00
FF
FF
C0
C0
C0
FE
FE
C0
C0
C0
FF
FF
ENDCHAR
STARTCHAR Ê
ENCODING -54
SWIDTH 75 0
DWIDTH -1 0
BBX 8 16 0 0
BITMAP
18
3C
66
00
FF
FF
C0
C0
C0
FE
FE
C0
C0
C0
FF
FF
ENDCHAR
STARTCHAR Ë
ENCODING -53
SWIDTH 75 0
DWIDTH -1 0
BBX 8 15 0 0
BITMAP
66
66
00
FF
FF
C0
C0
C0
FE
FE
C0
C0
C0
FF
FF
ENDCHAR
STARTCHAR Ì
ENCODING -52
SWIDTH 75 0
DWIDTH -1 0
BBX 3 16 0 0
BITMAP
C0
E0
60
00
C0
C0
C0
C0
C0
C0
C0
C0
C0
C0
C0
C0
ENDCHAR
STARTCHAR Í
ENCODING -51
SWIDTH 75 0
DWIDTH -1 0
BBX 3 16 0 0
BITMAP
60
E0
C0
00
C0
C0
C0
C0
C0
C0
C0
C0
C0
C0
C0
C0
ENDCHAR
STARTCHAR Î
ENCODING -50
SWIDTH 75 0
DWIDTH -1 0
BBX 6 16 0 0
BITMAP
30
78
CC
00
30
30
30
30
30
30
30
30
30
30
30
30
ENDCHAR
STARTCHAR Ï
ENCODING -49
SWIDTH 75 0
DWIDTH -1 0
BBX 6 15 0 0
BITMAP
CC
CC
00
30
30
30
30
30
30
30
30
30
30
30
30
ENDCHAR
STARTCHAR Ð
ENCODING -48
SWIDTH 75 0
DWIDTH -1 0
BBX 10 16 0 0
BITMAP
7F00
7F80
61C0
60C0
60C0
60C0
60C0
F8C0
F8C0
60C0
60C0
60C0
60C0
61C0
7F80
7F00
ENDCHAR
STARTCHAR Ñ
ENCODING -47
SWIDTH 75 0
DWIDTH -1 0
BBX 8 16 0 0
BITMAP
3B
7E
CC
00
83
C3
E3
F3
DB
CF
C7
C3
C3
C3
C3
C3
ENDCHAR
STARTCHAR Ò
ENCODING -46
SWIDTH 75 0
DWIDTH -1 0
BBX 8 16 0 0
BITMAP
30
38
18
00
3C
7E
E7
C3
C3
C3
C3
C3
C3
E7
7E
3C
ENDCHAR
STARTCHAR Ó
ENCODING -45
SWIDTH 75 0
DWIDTH -1 0
BBX 8 16 0 0
BITMAP
0C
1C
18
00
3C
7E
E7
C3
C3
C3
C3
C3
C3
E7
7E
3C
ENDCHAR
STARTCHAR Ô
ENCODING -44
SWIDTH 75 0
DWIDTH -1 0
BBX 8 16 0 0
BITMAP
18
3C
66
00
3C
7E
E7
C3
C3
C3
C3
C3
C3
E7
7E
3C
ENDCHAR
STARTCHAR Õ
ENCODING -43
SWIDTH 75 0
DWIDTH -1 0
BBX 8 16 0 0
BITMAP
3B
7E
CC
00
3C
7E
E7
C3
C3
C3
C3
C3
C3
E7
7E
3C
ENDCHAR
STARTCHAR Ö
ENCODING -42
SWIDTH 75 0
DWIDTH -1 0
BBX 8 15 0 0
BITMAP
66
66
00
3C
7E
E7
C3
C3
C3
C3
C3
C3
E7
7E
3C
ENDCHAR
STARTCHAR ×
ENCODING -41
SWIDTH 75 0
DWIDTH -1 0
BBX 9 9 0 2
BITMAP
C180
E380
7700
3E00
1C00
3E00
7700
E380
C180
ENDCHAR
STARTCHAR Ø
ENCODING -40
SWIDTH 75 0
DWIDTH -1 0
BBX 8 16 0 0
BITMAP
04
3C
7E
EF
CB
CB
CB
CB
CB
CB
CB
CB
EF
7E
3C
10
ENDCHAR
STARTCHAR Ù
ENCODING -39
SWIDTH 75 0
DWIDTH -1 0
BBX 8 16 0 0
BITMAP
30
38
18
00
C3
C3
C3
C3
C3
C3
C3
C3
C3
E7
7E
3C
ENDCHAR
STARTCHAR Ú
ENCODING -38
SWIDTH 75 0
DWIDTH -1 0
BBX 8 16 0 0
BITMAP
0C
1C
18
00
C3
C3
C3
C3
C3
C3
C3
C3
C3
E7
7E
3C
ENDCHAR
STARTCHAR Û
ENCODING -37
SWIDTH 75 0
DWIDTH -1 0
BBX 8 16 0 0
BITMAP
18
3C
66
00
C3
C3
C3
C3
C3
C3
C3
C3
C3
E7
7E
3C
ENDCHAR
STARTCHAR Ü
ENCODING -36
SWIDTH 75 0
DWIDTH -1 0
BBX 8 15 0 0
BITMAP
66
66
00
C3
C3
C3
C3
C3
C3
C3
C3
C3
E7
7E
3C
ENDCHAR
STARTCHAR Ý
ENCODING -35
SWIDTH 75 0
DWIDTH -1 0
BBX 8 16 0 0
BITMAP
0C
1C
18
00
C3
C3
C3
66
66
3C
3C
18
18
18
18
18
ENDCHAR
STARTCHAR Þ
ENCODING -34
SWIDTH 75 0
DWIDTH -1 0
BBX 7 12 0 2
BITMAP
C0
C0
FC
FE
C6
C6
C6
FE
FC
C0
C0
C0
ENDCHAR
STARTCHAR ß
ENCODING -33
SWIDTH 75 0
DWIDTH -1 0
BBX 9 16 0 0
BITMAP
3C00
7E00
E700
C300
C300
C300
C300
CE00
CF00
C380
C180
C180
C180
C380
DF00
DE00
ENDCHAR
STARTCHAR à
ENCODING -32
SWIDTH 75 0
DWIDTH -1 0
BBX 8 13 0 0
BITMAP
30
38
18
00
3E
7F
03
7F
FF
C3
C7
FF
7B
ENDCHAR
STARTCHAR á
ENCODING -31
SWIDTH 75 0
DWIDTH -1 0
BBX 8 13 0 0
BITMAP
0C
1C
18
00
3E
7F
03
7F
FF
C3
C7
FF
7B
ENDCHAR
STARTCHAR â
ENCODING -30
SWIDTH 75 0
DWIDTH -1 0
BBX 8 13 0 0
BITMAP
18
3C
66
00
3E
7F
03
7F
FF
C3
C7
FF
7B
ENDCHAR
STARTCHAR ã
ENCODING -29
SWIDTH 75 0
DWIDTH -1 0
BBX 8 13 0 0
BITMAP
3B
7E
CC
00
3E
7F
03
7F
FF
C3
C7
FF
7B
ENDCHAR
STARTCHAR ä
ENCODING -28
SWIDTH 75 0
DWIDTH -1 0
BBX 8 12 0 0
BITMAP
66
66
00
3E
7F
03
7F
FF
C3
C7
FF
7B
ENDCHAR
STARTCHAR å
ENCODING -27
SWIDTH 75 0
DWIDTH -1 0
BBX 8 13 0 0
BITMAP
18
24
18
00
3E
7F
03
7F
FF
C3
C7
FF
7B
ENDCHAR
STARTCHAR æ
ENCODING -26
SWIDTH 75 0
DWIDTH -1 0
BBX 10 9 0 0
BITMAP
7380
7FC0
0CC0
7FC0
FF80
CC00
DCC0
FFC0
6B80
ENDCHAR
STARTCHAR ç
ENCODING -25
SWIDTH 75 0
DWIDTH -1 0
BBX 8 9 0 0
BITMAP
7E
FF
C3
C0
C3
FF
7E
08
3C
ENDCHAR
STARTCHAR è
ENCODING -24
SWIDTH 75 0
DWIDTH -1 0
BBX 8 13 0 0
BITMAP
30
38
18
00
7E
FF
C3
FF
FE
C0
C3
FF
7E
ENDCHAR
STARTCHAR é
ENCODING -23
SWIDTH 75 0
DWIDTH -1 0
BBX 8 13 0 0
BITMAP
0C
1C
18
00
7E
FF
C3
FF
FE
C0
C3
FF
7E
ENDCHAR
STARTCHAR ê
ENCODING -22
SWIDTH 75 0
DWIDTH -1 0
BBX 8 13 0 0
BITMAP
18
3C
66
00
7E
FF
C3
FF
FE
C0
C3
FF
7E
ENDCHAR
STARTCHAR ë
ENCODING -21
SWIDTH 75 0
DWIDTH -1 0
BBX 8 12 0 0
BITMAP
66
66
00
7E
FF
C3
FF
FE
C0
C3
FF
7E
ENDCHAR
STARTCHAR ì
ENCODING -20
SWIDTH 75 0
DWIDTH -1 0
BBX 3 13 0 0
BITMAP
C0
E0
60
00
C0
C0
C0
C0
C0
C0
C0
C0
C0
ENDCHAR
STARTCHAR í
ENCODING -19
SWIDTH 75 0
DWIDTH -1 0
BBX 3 13 0 0
BITMAP
60
E0
C0
00
C0
C0
C0
C0
C0
C0
C0
C0
C0
ENDCHAR
STARTCHAR î
ENCODING -18
SWIDTH 75 0
DWIDTH -1 0
BBX 6 12 0 1
BITMAP
30
78
CC
00
30
30
30
30
30
30
30
30
ENDCHAR
STARTCHAR ï
ENCODING -17
SWIDTH 75 0
DWIDTH -1 0
BBX 6 11 0 1
BITMAP
CC
CC
00
30
30
30
30
30
30
30
30
ENDCHAR
STARTCHAR ð
ENCODING -16
SWIDTH 75 0
DWIDTH -1 0
BBX 8 13 0 0
BITMAP
6C
38
6C
04
3C
7E
E7
C3
C3
C3
E7
7E
3C
ENDCHAR
STARTCHAR ñ
ENCODING -15
SWIDTH 75 0
DWIDTH -1 0
BBX 8 13 0 0
BITMAP
3B
7E
CC
00
DC
FE
E7
C3
C3
C3
C3
C3
C3
ENDCHAR
STARTCHAR ò
ENCODING -14
SWIDTH 75 0
DWIDTH -1 0
BBX 9 13 0 0
BITMAP
1800
1C00
0C00
0000
3E00
7F00
E380
C180
C180
C180
E380
7F00
3E00
ENDCHAR
STARTCHAR ó
ENCODING -13
SWIDTH 75 0
DWIDTH -1 0
BBX 9 13 0 0
BITMAP
0C00
1C00
1800
0000
3E00
7F00
E380
C180
C180
C180
E380
7F00
3E00
ENDCHAR
STARTCHAR ô
ENCODING -12
SWIDTH 75 0
DWIDTH -1 0
BBX 9 13 0 0
BITMAP
1C00
3600
6300
0000
3E00
7F00
E380
C180
C180
C180
E380
7F00
3E00
ENDCHAR
STARTCHAR õ
ENCODING -11
SWIDTH 75 0
DWIDTH -1 0
BBX 9 13 0 0
BITMAP
3B00
7E00
CC00
0000
3E00
7F00
E380
C180
C180
C180
E380
7F00
3E00
ENDCHAR
STARTCHAR ö
ENCODING -10
SWIDTH 75 0
DWIDTH -1 0
BBX 9 12 0 0
BITMAP
6300
6300
0000
3E00
7F00
E380
C180
C180
C180
E380
7F00
3E00
ENDCHAR
STARTCHAR ÷
ENCODING -9
SWIDTH 75 0
DWIDTH -1 0
BBX 10 10 0 1
BITMAP
0C00
0C00
0000
0000
FFC0
FFC0
0000
0000
0C00
0C00
ENDCHAR
STARTCHAR ø
ENCODING -8
SWIDTH 75 0
DWIDTH -1 0
BBX 8 10 0 0
BITMAP
04
3C
7E
EF
CB
CB
EF
7E
3C
10
ENDCHAR
STARTCHAR ù
ENCODING -7
SWIDTH 75 0
DWIDTH -1 0
BBX 8 13 0 0
BITMAP
30
38
18
00
C3
C3
C3
C3
C3
C3
E7
7F
3B
ENDCHAR
STARTCHAR ú
ENCODING -6
SWIDTH 75 0
DWIDTH -1 0
BBX 8 13 0 0
BITMAP
0C
1C
18
00
C3
C3
C3
C3
C3
C3
E7
7F
3B
ENDCHAR
STARTCHAR û
ENCODING -5
SWIDTH 75 0
DWIDTH -1 0
BBX 8 13 0 0
BITMAP
18
3C
66
00
C3
C3
C3
C3
C3
C3
E7
7F
3B
ENDCHAR
STARTCHAR ü
ENCODING -4
SWIDTH 75 0
DWIDTH -1 0
BBX 8 12 0 0
BITMAP
66
66
00
C3
C3
C3
C3
C3
C3
E7
7F
3B
ENDCHAR
STARTCHAR ý
ENCODING -3
SWIDTH 75 0
DWIDTH -1 0
BBX 8 13 0 0
BITMAP
0C
1C
18
00
C3
C3
C3
E7
7F
3B
03
FF
7E
ENDCHAR
STARTCHAR þ
ENCODING -2
SWIDTH 75 0
DWIDTH -1 0
BBX 8 16 0 0
BITMAP
C0
C0
C0
C0
FE
FF
C3
C3
C3
C3
FF
FE
C0
C0
C0
C0
ENDCHAR
STARTCHAR ÿ
ENCODING -1
SWIDTH 75 0
DWIDTH -1 0
BBX 8 12 0 0
BITMAP
C3
C3
00
C3
C3
C3
E7
7F
3B
03
FF
7E
ENDCHAR
ENDFONT
