STARTFONT 2.1
COMMENT Lumiplan font build using LumiStudio
FONT 4_Import
SIZE 8 75 75
FONTBOUNDINGBOX 6 8 0 0
STARTPROPERTIES 1
Copyright "Copyright (c) 2021 Lumiplan"
ENDPROPERTIES
CHARS 145
STARTCHAR 
ENCODING 14
SWIDTH 75 0
DWIDTH -1 0
BBX 0 0 1 7
ENDCHAR
STARTCHAR  
ENCODING 32
SWIDTH 75 0
DWIDTH -1 0
BBX 0 0 3 7
ENDCHAR
STARTCHAR !
ENCODING 33
SWIDTH 75 0
DWIDTH -1 0
BBX 6 8 0 0
BITMAP
F8
FC
14
14
50
50
14
14
ENDCHAR
STARTCHAR "
ENCODING 34
SWIDTH 75 0
DWIDTH -1 0
BBX 6 8 0 0
BITMAP
8C
14
14
14
14
14
14
14
ENDCHAR
STARTCHAR #
ENCODING 35
SWIDTH 75 0
DWIDTH -1 0
BBX 6 8 0 0
BITMAP
FC
FC
04
00
00
00
00
04
ENDCHAR
STARTCHAR $
ENCODING 36
SWIDTH 75 0
DWIDTH -1 0
BBX 6 8 0 0
BITMAP
A4
C4
44
04
04
04
04
44
ENDCHAR
STARTCHAR %
ENCODING 37
SWIDTH 75 0
DWIDTH -1 0
BBX 6 8 0 0
BITMAP
FC
FC
40
40
40
40
40
40
ENDCHAR
STARTCHAR &
ENCODING 38
SWIDTH 75 0
DWIDTH -1 0
BBX 4 8 0 0
BITMAP
A0
C0
50
50
50
50
50
50
ENDCHAR
STARTCHAR '
ENCODING 39
SWIDTH 75 0
DWIDTH -1 0
BBX 5 8 1 0
BITMAP
F8
F8
A0
A0
A8
A8
A0
A0
ENDCHAR
STARTCHAR (
ENCODING 40
SWIDTH 75 0
DWIDTH -1 0
BBX 6 6 0 2
BITMAP
FC
FC
00
00
40
40
ENDCHAR
STARTCHAR )
ENCODING 41
SWIDTH 75 0
DWIDTH -1 0
BBX 6 8 0 0
BITMAP
9C
9C
14
14
14
14
14
14
ENDCHAR
STARTCHAR *
ENCODING 42
SWIDTH 75 0
DWIDTH -1 0
BBX 6 6 0 2
BITMAP
D4
D4
00
00
50
50
ENDCHAR
STARTCHAR +
ENCODING 43
SWIDTH 75 0
DWIDTH -1 0
BBX 5 8 1 0
BITMAP
80
88
08
08
08
08
08
08
ENDCHAR
STARTCHAR ,
ENCODING 44
SWIDTH 75 0
DWIDTH -1 0
BBX 6 8 0 0
BITMAP
FC
7C
40
40
40
44
44
40
ENDCHAR
STARTCHAR -
ENCODING 45
SWIDTH 75 0
DWIDTH -1 0
BBX 5 8 0 0
BITMAP
E8
F0
50
00
00
50
50
50
ENDCHAR
STARTCHAR .
ENCODING 46
SWIDTH 75 0
DWIDTH -1 0
BBX 5 8 1 0
BITMAP
F0
F0
A0
A0
A8
A8
A0
A0
ENDCHAR
STARTCHAR /
ENCODING 47
SWIDTH 75 0
DWIDTH -1 0
BBX 5 8 1 0
BITMAP
38
38
28
28
A8
A8
28
28
ENDCHAR
STARTCHAR 0
ENCODING 48
SWIDTH 75 0
DWIDTH -1 0
BBX 6 8 0 0
BITMAP
9C
9C
04
04
04
04
04
04
ENDCHAR
STARTCHAR 1
ENCODING 49
SWIDTH 75 0
DWIDTH -1 0
BBX 5 8 0 0
BITMAP
F8
F8
40
40
40
40
40
40
ENDCHAR
STARTCHAR 2
ENCODING 50
SWIDTH 75 0
DWIDTH -1 0
BBX 1 1 5 0
BITMAP
80
ENDCHAR
STARTCHAR 3
ENCODING 51
SWIDTH 75 0
DWIDTH -1 0
BBX 6 8 0 0
BITMAP
BC
3C
04
04
04
04
04
44
ENDCHAR
STARTCHAR 4
ENCODING 52
SWIDTH 75 0
DWIDTH -1 0
BBX 4 8 0 0
BITMAP
F0
D0
40
40
40
40
40
40
ENDCHAR
STARTCHAR 5
ENCODING 53
SWIDTH 75 0
DWIDTH -1 0
BBX 5 8 1 0
BITMAP
F0
F0
A0
A8
A8
A8
A8
A0
ENDCHAR
STARTCHAR 6
ENCODING 54
SWIDTH 75 0
DWIDTH -1 0
BBX 5 8 1 0
BITMAP
38
38
A0
80
00
00
80
A0
ENDCHAR
STARTCHAR 7
ENCODING 55
SWIDTH 75 0
DWIDTH -1 0
BBX 6 8 0 0
BITMAP
9C
9C
14
14
14
14
14
14
ENDCHAR
STARTCHAR 8
ENCODING 56
SWIDTH 75 0
DWIDTH -1 0
BBX 5 2 0 6
BITMAP
A8
A8
ENDCHAR
STARTCHAR 9
ENCODING 57
SWIDTH 75 0
DWIDTH -1 0
BBX 6 8 0 0
BITMAP
A4
A4
04
04
04
04
04
04
ENDCHAR
STARTCHAR :
ENCODING 58
SWIDTH 75 0
DWIDTH -1 0
BBX 6 8 0 0
BITMAP
E0
F0
54
44
40
40
40
40
ENDCHAR
STARTCHAR ;
ENCODING 59
SWIDTH 75 0
DWIDTH -1 0
BBX 5 8 1 0
BITMAP
38
B8
A8
28
28
28
28
28
ENDCHAR
STARTCHAR <
ENCODING 60
SWIDTH 75 0
DWIDTH -1 0
BBX 6 8 0 0
BITMAP
F8
FC
54
50
50
50
50
50
ENDCHAR
STARTCHAR =
ENCODING 61
SWIDTH 75 0
DWIDTH -1 0
BBX 5 8 1 0
BITMAP
38
38
A8
A8
28
28
28
28
ENDCHAR
STARTCHAR >
ENCODING 62
SWIDTH 75 0
DWIDTH -1 0
BBX 6 8 0 0
BITMAP
8C
94
14
14
14
14
14
14
ENDCHAR
STARTCHAR ?
ENCODING 63
SWIDTH 75 0
DWIDTH -1 0
BBX 6 8 0 0
BITMAP
FC
FC
04
04
04
04
04
04
ENDCHAR
STARTCHAR @
ENCODING 64
SWIDTH 75 0
DWIDTH -1 0
BBX 6 8 0 0
BITMAP
A4
C4
44
44
44
44
44
44
ENDCHAR
STARTCHAR A
ENCODING 65
SWIDTH 75 0
DWIDTH -1 0
BBX 6 8 0 0
BITMAP
F4
F4
40
40
54
54
40
40
ENDCHAR
STARTCHAR B
ENCODING 66
SWIDTH 75 0
DWIDTH -1 0
BBX 3 6 1 2
BITMAP
80
A0
A0
A0
A0
80
ENDCHAR
STARTCHAR C
ENCODING 67
SWIDTH 75 0
DWIDTH -1 0
BBX 5 8 1 0
BITMAP
78
B8
A0
A0
A0
A0
A0
A0
ENDCHAR
STARTCHAR D
ENCODING 68
SWIDTH 75 0
DWIDTH -1 0
BBX 6 8 0 0
BITMAP
F8
DC
14
14
14
14
14
50
ENDCHAR
STARTCHAR E
ENCODING 69
SWIDTH 75 0
DWIDTH -1 0
BBX 6 8 0 0
BITMAP
1C
9C
14
14
14
14
14
14
ENDCHAR
STARTCHAR F
ENCODING 70
SWIDTH 75 0
DWIDTH -1 0
BBX 6 8 0 0
BITMAP
D4
D4
04
04
54
54
14
04
ENDCHAR
STARTCHAR G
ENCODING 71
SWIDTH 75 0
DWIDTH -1 0
BBX 6 8 0 0
BITMAP
A0
E4
44
44
44
00
00
40
ENDCHAR
STARTCHAR H
ENCODING 72
SWIDTH 75 0
DWIDTH -1 0
BBX 6 6 0 2
BITMAP
FC
FC
40
40
54
54
ENDCHAR
STARTCHAR I
ENCODING 73
SWIDTH 75 0
DWIDTH -1 0
BBX 5 8 0 0
BITMAP
E8
E0
00
00
40
50
50
50
ENDCHAR
STARTCHAR J
ENCODING 74
SWIDTH 75 0
DWIDTH -1 0
BBX 5 8 1 0
BITMAP
A8
A8
08
08
08
08
08
08
ENDCHAR
STARTCHAR K
ENCODING 75
SWIDTH 75 0
DWIDTH -1 0
BBX 6 8 0 0
BITMAP
F4
F4
40
40
40
40
40
40
ENDCHAR
STARTCHAR L
ENCODING 76
SWIDTH 75 0
DWIDTH -1 0
BBX 3 8 3 0
BITMAP
E0
A0
A0
A0
A0
A0
A0
A0
ENDCHAR
STARTCHAR M
ENCODING 77
SWIDTH 75 0
DWIDTH -1 0
BBX 6 8 0 0
BITMAP
AC
AC
04
04
04
04
04
04
ENDCHAR
STARTCHAR N
ENCODING 78
SWIDTH 75 0
DWIDTH -1 0
BBX 6 8 0 0
BITMAP
E4
C4
44
44
44
44
44
44
ENDCHAR
STARTCHAR O
ENCODING 79
SWIDTH 75 0
DWIDTH -1 0
BBX 5 8 1 0
BITMAP
D0
90
80
80
80
80
80
A8
ENDCHAR
STARTCHAR P
ENCODING 80
SWIDTH 75 0
DWIDTH -1 0
BBX 4 8 0 0
BITMAP
F0
D0
50
50
50
50
50
50
ENDCHAR
STARTCHAR Q
ENCODING 81
SWIDTH 75 0
DWIDTH -1 0
BBX 5 8 1 0
BITMAP
F0
B0
A0
A0
A0
A0
A0
A8
ENDCHAR
STARTCHAR R
ENCODING 82
SWIDTH 75 0
DWIDTH -1 0
BBX 6 8 0 0
BITMAP
8C
04
04
04
04
04
44
54
ENDCHAR
STARTCHAR S
ENCODING 83
SWIDTH 75 0
DWIDTH -1 0
BBX 6 8 0 0
BITMAP
FC
DC
54
54
44
40
44
54
ENDCHAR
STARTCHAR T
ENCODING 84
SWIDTH 75 0
DWIDTH -1 0
BBX 6 8 0 0
BITMAP
84
84
04
04
54
50
54
04
ENDCHAR
STARTCHAR U
ENCODING 85
SWIDTH 75 0
DWIDTH -1 0
BBX 6 8 0 0
BITMAP
E4
E4
44
44
00
00
00
40
ENDCHAR
STARTCHAR V
ENCODING 86
SWIDTH 75 0
DWIDTH -1 0
BBX 5 8 1 0
BITMAP
90
90
80
80
A8
28
28
28
ENDCHAR
STARTCHAR W
ENCODING 87
SWIDTH 75 0
DWIDTH -1 0
BBX 4 5 0 3
BITMAP
D0
D0
50
50
40
ENDCHAR
STARTCHAR X
ENCODING 88
SWIDTH 75 0
DWIDTH -1 0
BBX 5 8 1 0
BITMAP
F8
F8
00
00
00
08
28
A0
ENDCHAR
STARTCHAR Y
ENCODING 89
SWIDTH 75 0
DWIDTH -1 0
BBX 6 6 0 2
BITMAP
FC
FC
04
14
50
40
ENDCHAR
STARTCHAR Z
ENCODING 90
SWIDTH 75 0
DWIDTH -1 0
BBX 6 8 0 0
BITMAP
FC
FC
54
14
14
14
14
14
ENDCHAR
STARTCHAR [
ENCODING 91
SWIDTH 75 0
DWIDTH -1 0
BBX 3 2 0 6
BITMAP
E0
E0
ENDCHAR
STARTCHAR \
ENCODING 92
SWIDTH 75 0
DWIDTH -1 0
BBX 1 2 5 4
BITMAP
80
80
ENDCHAR
STARTCHAR ]
ENCODING 93
SWIDTH 75 0
DWIDTH -1 0
BBX 5 4 1 1
BITMAP
80
A0
28
08
ENDCHAR
STARTCHAR ^
ENCODING 94
SWIDTH 75 0
DWIDTH -1 0
BBX 4 8 1 0
BITMAP
10
00
00
00
00
00
80
A0
ENDCHAR
STARTCHAR _
ENCODING 95
SWIDTH 75 0
DWIDTH -1 0
BBX 6 8 0 0
BITMAP
FC
FC
14
14
14
14
14
14
ENDCHAR
STARTCHAR `
ENCODING 96
SWIDTH 75 0
DWIDTH -1 0
BBX 1 2 0 6
BITMAP
80
80
ENDCHAR
STARTCHAR a
ENCODING 97
SWIDTH 75 0
DWIDTH -1 0
BBX 3 3 3 4
BITMAP
20
A0
80
ENDCHAR
STARTCHAR b
ENCODING 98
SWIDTH 75 0
DWIDTH -1 0
BBX 5 3 1 5
BITMAP
A0
A8
08
ENDCHAR
STARTCHAR c
ENCODING 99
SWIDTH 75 0
DWIDTH -1 0
BBX 1 2 1 4
BITMAP
80
80
ENDCHAR
STARTCHAR d
ENCODING 100
SWIDTH 75 0
DWIDTH -1 0
BBX 5 2 0 6
BITMAP
A8
A8
ENDCHAR
STARTCHAR e
ENCODING 101
SWIDTH 75 0
DWIDTH -1 0
BBX 5 2 0 6
BITMAP
A8
A8
ENDCHAR
STARTCHAR f
ENCODING 102
SWIDTH 75 0
DWIDTH -1 0
BBX 5 4 1 4
BITMAP
A0
A0
20
08
ENDCHAR
STARTCHAR g
ENCODING 103
SWIDTH 75 0
DWIDTH -1 0
BBX 0 0 6 7
ENDCHAR
STARTCHAR h
ENCODING 104
SWIDTH 75 0
DWIDTH -1 0
BBX 3 8 3 0
BITMAP
40
00
00
20
00
00
20
80
ENDCHAR
STARTCHAR i
ENCODING 105
SWIDTH 75 0
DWIDTH -1 0
BBX 6 8 0 0
BITMAP
A8
A8
00
54
04
04
54
04
ENDCHAR
STARTCHAR j
ENCODING 106
SWIDTH 75 0
DWIDTH -1 0
BBX 6 8 0 0
BITMAP
A4
A4
04
04
44
44
44
44
ENDCHAR
STARTCHAR k
ENCODING 107
SWIDTH 75 0
DWIDTH -1 0
BBX 6 8 0 0
BITMAP
E8
E8
40
40
44
50
40
40
ENDCHAR
STARTCHAR l
ENCODING 108
SWIDTH 75 0
DWIDTH -1 0
BBX 5 8 0 0
BITMAP
A8
A0
00
00
40
50
50
50
ENDCHAR
STARTCHAR m
ENCODING 109
SWIDTH 75 0
DWIDTH -1 0
BBX 5 8 1 0
BITMAP
50
10
00
28
A8
A0
A0
A0
ENDCHAR
STARTCHAR n
ENCODING 110
SWIDTH 75 0
DWIDTH -1 0
BBX 6 8 0 0
BITMAP
A8
A8
00
50
54
14
00
14
ENDCHAR
STARTCHAR o
ENCODING 111
SWIDTH 75 0
DWIDTH -1 0
BBX 6 8 0 0
BITMAP
88
00
00
00
04
14
14
14
ENDCHAR
STARTCHAR p
ENCODING 112
SWIDTH 75 0
DWIDTH -1 0
BBX 6 8 0 0
BITMAP
AC
AC
04
04
44
14
04
04
ENDCHAR
STARTCHAR q
ENCODING 113
SWIDTH 75 0
DWIDTH -1 0
BBX 6 8 0 0
BITMAP
E0
E0
40
40
44
44
44
44
ENDCHAR
STARTCHAR r
ENCODING 114
SWIDTH 75 0
DWIDTH -1 0
BBX 6 8 0 0
BITMAP
A8
28
00
54
54
40
54
40
ENDCHAR
STARTCHAR s
ENCODING 115
SWIDTH 75 0
DWIDTH -1 0
BBX 5 7 0 1
BITMAP
A8
A0
00
40
50
10
50
ENDCHAR
STARTCHAR t
ENCODING 116
SWIDTH 75 0
DWIDTH -1 0
BBX 5 8 1 0
BITMAP
18
38
28
28
A8
A8
28
28
ENDCHAR
STARTCHAR u
ENCODING 117
SWIDTH 75 0
DWIDTH -1 0
BBX 6 6 0 2
BITMAP
D0
D4
14
00
40
40
ENDCHAR
STARTCHAR v
ENCODING 118
SWIDTH 75 0
DWIDTH -1 0
BBX 3 7 3 1
BITMAP
40
00
00
20
A0
80
20
ENDCHAR
STARTCHAR w
ENCODING 119
SWIDTH 75 0
DWIDTH -1 0
BBX 6 8 0 0
BITMAP
A8
A8
00
54
54
04
54
04
ENDCHAR
STARTCHAR x
ENCODING 120
SWIDTH 75 0
DWIDTH -1 0
BBX 6 8 0 0
BITMAP
A4
84
04
44
44
44
44
44
ENDCHAR
STARTCHAR y
ENCODING 121
SWIDTH 75 0
DWIDTH -1 0
BBX 6 8 0 0
BITMAP
E0
E0
40
40
44
50
40
40
ENDCHAR
STARTCHAR z
ENCODING 122
SWIDTH 75 0
DWIDTH -1 0
BBX 4 8 1 0
BITMAP
50
50
00
00
80
A0
A0
A0
ENDCHAR
STARTCHAR {
ENCODING 123
SWIDTH 75 0
DWIDTH -1 0
BBX 5 8 1 0
BITMAP
78
78
00
A8
A8
28
28
28
ENDCHAR
STARTCHAR |
ENCODING 124
SWIDTH 75 0
DWIDTH -1 0
BBX 3 2 0 6
BITMAP
A0
A0
ENDCHAR
STARTCHAR }
ENCODING 125
SWIDTH 75 0
DWIDTH -1 0
BBX 3 8 3 0
BITMAP
40
00
00
00
00
00
00
A0
ENDCHAR
STARTCHAR ~
ENCODING 126
SWIDTH 75 0
DWIDTH -1 0
BBX 6 8 0 0
BITMAP
BC
BC
00
54
54
14
14
14
ENDCHAR
STARTCHAR 
ENCODING 127
SWIDTH 75 0
DWIDTH -1 0
BBX 6 8 0 0
BITMAP
84
04
04
44
44
04
04
04
ENDCHAR
STARTCHAR f
ENCODING 102
SWIDTH 75 0
DWIDTH -1 0
BBX 6 8 0 0
BITMAP
88
00
00
00
04
14
50
50
ENDCHAR
STARTCHAR ¡
ENCODING -95
SWIDTH 75 0
DWIDTH -1 0
BBX 6 8 0 0
BITMAP
DC
4C
44
14
04
10
00
44
ENDCHAR
STARTCHAR £
ENCODING -93
SWIDTH 75 0
DWIDTH -1 0
BBX 5 8 1 0
BITMAP
50
10
00
00
80
80
80
88
ENDCHAR
STARTCHAR ª
ENCODING -86
SWIDTH 75 0
DWIDTH -1 0
BBX 6 6 0 2
BITMAP
A4
50
10
44
50
44
ENDCHAR
STARTCHAR «
ENCODING -85
SWIDTH 75 0
DWIDTH -1 0
BBX 5 8 1 0
BITMAP
E8
60
20
88
20
A8
00
20
ENDCHAR
STARTCHAR ¬
ENCODING -84
SWIDTH 75 0
DWIDTH -1 0
BBX 6 8 0 0
BITMAP
04
90
00
04
14
00
14
10
ENDCHAR
STARTCHAR ®
ENCODING -82
SWIDTH 75 0
DWIDTH -1 0
BBX 5 8 1 0
BITMAP
C8
C8
00
08
00
08
88
08
ENDCHAR
STARTCHAR º
ENCODING -70
SWIDTH 75 0
DWIDTH -1 0
BBX 6 8 0 0
BITMAP
E8
D0
44
50
14
14
44
44
ENDCHAR
STARTCHAR »
ENCODING -69
SWIDTH 75 0
DWIDTH -1 0
BBX 6 8 0 0
BITMAP
84
A4
44
04
54
50
54
44
ENDCHAR
STARTCHAR  
ENCODING 32
SWIDTH 75 0
DWIDTH -1 0
BBX 5 8 1 0
BITMAP
E8
50
20
A8
08
80
28
20
ENDCHAR
STARTCHAR  
ENCODING 32
SWIDTH 75 0
DWIDTH -1 0
BBX 6 7 0 1
BITMAP
8C
34
44
10
14
50
04
ENDCHAR
STARTCHAR ¿
ENCODING -65
SWIDTH 75 0
DWIDTH -1 0
BBX 5 7 0 1
BITMAP
08
88
10
00
50
40
50
ENDCHAR
STARTCHAR Ä
ENCODING -60
SWIDTH 75 0
DWIDTH -1 0
BBX 5 4 1 1
BITMAP
A8
A8
80
A8
ENDCHAR
STARTCHAR Å
ENCODING -59
SWIDTH 75 0
DWIDTH -1 0
BBX 4 8 1 0
BITMAP
50
50
00
A0
A0
A0
A0
A0
ENDCHAR
STARTCHAR Æ
ENCODING -58
SWIDTH 75 0
DWIDTH -1 0
BBX 3 7 3 1
BITMAP
40
00
00
20
A0
A0
20
ENDCHAR
STARTCHAR Ç
ENCODING -57
SWIDTH 75 0
DWIDTH -1 0
BBX 6 8 0 0
BITMAP
E0
E0
40
40
44
54
50
54
ENDCHAR
STARTCHAR É
ENCODING -55
SWIDTH 75 0
DWIDTH -1 0
BBX 5 8 1 0
BITMAP
50
50
00
00
A0
A8
A0
A0
ENDCHAR
STARTCHAR Ñ
ENCODING -47
SWIDTH 75 0
DWIDTH -1 0
BBX 5 8 1 0
BITMAP
F0
30
00
A0
A0
A0
08
08
ENDCHAR
STARTCHAR Ö
ENCODING -42
SWIDTH 75 0
DWIDTH -1 0
BBX 6 8 0 0
BITMAP
80
00
00
00
14
14
14
14
ENDCHAR
STARTCHAR ×
ENCODING -41
SWIDTH 75 0
DWIDTH -1 0
BBX 5 8 1 0
BITMAP
10
50
00
00
A0
28
08
08
ENDCHAR
STARTCHAR Ø
ENCODING -40
SWIDTH 75 0
DWIDTH -1 0
BBX 6 8 0 0
BITMAP
A8
20
00
00
14
14
14
14
ENDCHAR
STARTCHAR Ü
ENCODING -36
SWIDTH 75 0
DWIDTH -1 0
BBX 6 8 0 0
BITMAP
A8
28
00
00
04
04
04
04
ENDCHAR
STARTCHAR à
ENCODING -32
SWIDTH 75 0
DWIDTH -1 0
BBX 6 7 0 1
BITMAP
80
80
00
00
44
10
10
ENDCHAR
STARTCHAR á
ENCODING -31
SWIDTH 75 0
DWIDTH -1 0
BBX 6 7 0 1
BITMAP
88
A0
00
14
54
14
04
ENDCHAR
STARTCHAR â
ENCODING -30
SWIDTH 75 0
DWIDTH -1 0
BBX 3 2 0 6
BITMAP
A0
A0
ENDCHAR
STARTCHAR ä
ENCODING -28
SWIDTH 75 0
DWIDTH -1 0
BBX 3 8 3 0
BITMAP
40
40
00
00
A0
A0
A0
A0
ENDCHAR
STARTCHAR å
ENCODING -27
SWIDTH 75 0
DWIDTH -1 0
BBX 5 8 1 0
BITMAP
50
50
00
00
88
A8
A8
A8
ENDCHAR
STARTCHAR æ
ENCODING -26
SWIDTH 75 0
DWIDTH -1 0
BBX 5 3 1 1
BITMAP
A0
A8
28
ENDCHAR
STARTCHAR ç
ENCODING -25
SWIDTH 75 0
DWIDTH -1 0
BBX 6 8 0 0
BITMAP
A0
A0
00
00
44
54
50
40
ENDCHAR
STARTCHAR è
ENCODING -24
SWIDTH 75 0
DWIDTH -1 0
BBX 6 8 0 0
BITMAP
A8
A8
00
50
54
14
14
14
ENDCHAR
STARTCHAR é
ENCODING -23
SWIDTH 75 0
DWIDTH -1 0
BBX 5 8 1 0
BITMAP
F8
F8
28
28
28
28
28
28
ENDCHAR
STARTCHAR ê
ENCODING -22
SWIDTH 75 0
DWIDTH -1 0
BBX 4 8 1 0
BITMAP
50
50
00
00
80
A0
A0
A0
ENDCHAR
STARTCHAR ë
ENCODING -21
SWIDTH 75 0
DWIDTH -1 0
BBX 5 8 1 0
BITMAP
50
10
00
28
A8
A0
A0
A0
ENDCHAR
STARTCHAR ì
ENCODING -20
SWIDTH 75 0
DWIDTH -1 0
BBX 5 2 1 2
BITMAP
88
88
ENDCHAR
STARTCHAR í
ENCODING -19
SWIDTH 75 0
DWIDTH -1 0
BBX 6 8 0 0
BITMAP
A8
A8
00
04
04
04
54
04
ENDCHAR
STARTCHAR î
ENCODING -18
SWIDTH 75 0
DWIDTH -1 0
BBX 6 7 0 1
BITMAP
80
80
00
54
54
04
54
ENDCHAR
STARTCHAR ï
ENCODING -17
SWIDTH 75 0
DWIDTH -1 0
BBX 6 8 0 0
BITMAP
88
08
00
14
14
14
14
14
ENDCHAR
STARTCHAR ñ
ENCODING -15
SWIDTH 75 0
DWIDTH -1 0
BBX 5 6 0 2
BITMAP
A8
A8
00
50
50
40
ENDCHAR
STARTCHAR ò
ENCODING -14
SWIDTH 75 0
DWIDTH -1 0
BBX 5 8 1 0
BITMAP
F0
B0
A0
A8
A8
A0
A0
A0
ENDCHAR
STARTCHAR ó
ENCODING -13
SWIDTH 75 0
DWIDTH -1 0
BBX 6 8 0 0
BITMAP
A0
80
00
44
44
40
40
40
ENDCHAR
STARTCHAR ô
ENCODING -12
SWIDTH 75 0
DWIDTH -1 0
BBX 6 8 0 0
BITMAP
A8
A8
00
54
54
00
54
04
ENDCHAR
STARTCHAR ö
ENCODING -10
SWIDTH 75 0
DWIDTH -1 0
BBX 6 8 0 0
BITMAP
A0
80
00
04
04
00
00
40
ENDCHAR
STARTCHAR ø
ENCODING -8
SWIDTH 75 0
DWIDTH -1 0
BBX 6 8 0 0
BITMAP
80
00
00
00
44
44
44
44
ENDCHAR
STARTCHAR ù
ENCODING -7
SWIDTH 75 0
DWIDTH -1 0
BBX 5 8 1 0
BITMAP
50
50
00
00
A0
A0
A0
A8
ENDCHAR
STARTCHAR ú
ENCODING -6
SWIDTH 75 0
DWIDTH -1 0
BBX 6 8 0 0
BITMAP
A8
A8
00
54
54
04
14
50
ENDCHAR
STARTCHAR û
ENCODING -5
SWIDTH 75 0
DWIDTH -1 0
BBX 5 8 0 0
BITMAP
A8
A0
00
00
00
00
00
50
ENDCHAR
STARTCHAR ü
ENCODING -4
SWIDTH 75 0
DWIDTH -1 0
BBX 5 5 0 3
BITMAP
A0
28
00
50
40
ENDCHAR
STARTCHAR ÿ
ENCODING -1
SWIDTH 75 0
DWIDTH -1 0
BBX 6 8 0 0
BITMAP
A8
28
00
00
14
14
14
14
ENDCHAR
ENDFONT
