STARTFONT 2.1
COMMENT Lumiplan font build using LumiStudio
FONT Duhamel 24/22 2-Condensed
SIZE 24 75 75
FONTBOUNDINGBOX 12 24 0 0
STARTPROPERTIES 1
Copyright "Copyright (c) 2021 Lumiplan"
ENDPROPERTIES
CHARS 189
STARTCHAR 
ENCODING 14
SWIDTH 75 0
DWIDTH -1 0
BBX 0 0 1 23
ENDCHAR
STARTCHAR  
ENCODING 32
SWIDTH 75 0
DWIDTH -1 0
BBX 0 0 2 23
ENDCHAR
STARTCHAR !
ENCODING 33
SWIDTH 75 0
DWIDTH -1 0
BBX 4 22 0 1
BITMAP
F0
F0
F0
F0
F0
F0
F0
F0
F0
F0
F0
F0
F0
F0
F0
00
00
00
F0
F0
F0
F0
ENDCHAR
STARTCHAR "
ENCODING 34
SWIDTH 75 0
DWIDTH -1 0
BBX 8 4 0 19
BITMAP
77
77
66
88
ENDCHAR
STARTCHAR #
ENCODING 35
SWIDTH 75 0
DWIDTH -1 0
BBX 12 12 0 5
BITMAP
39C0
39C0
FFF0
FFF0
FFF0
39C0
39C0
FFF0
FFF0
FFF0
39C0
39C0
ENDCHAR
STARTCHAR $
ENCODING 36
SWIDTH 75 0
DWIDTH -1 0
BBX 11 20 0 1
BITMAP
0A00
0A00
3F80
7FC0
FFE0
EAE0
EA00
FA00
7E00
3F00
0F80
0FC0
0BE0
0AE0
EAE0
FFE0
7FC0
3F80
0A00
0A00
ENDCHAR
STARTCHAR %
ENCODING 37
SWIDTH 75 0
DWIDTH -1 0
BBX 12 15 0 2
BITMAP
F010
F030
F070
F0F0
01E0
03C0
0780
0F00
1E00
3C00
7800
F0F0
E0F0
C0F0
80F0
ENDCHAR
STARTCHAR &
ENCODING 38
SWIDTH 75 0
DWIDTH -1 0
BBX 0 0 12 23
ENDCHAR
STARTCHAR '
ENCODING 39
SWIDTH 75 0
DWIDTH -1 0
BBX 4 4 0 19
BITMAP
70
70
60
80
ENDCHAR
STARTCHAR (
ENCODING 40
SWIDTH 75 0
DWIDTH -1 0
BBX 6 22 0 1
BITMAP
1C
38
70
70
E0
E0
E0
E0
E0
E0
E0
E0
E0
E0
E0
E0
E0
E0
70
70
38
1C
ENDCHAR
STARTCHAR )
ENCODING 41
SWIDTH 75 0
DWIDTH -1 0
BBX 6 22 0 1
BITMAP
E0
70
38
38
1C
1C
1C
1C
1C
1C
1C
1C
1C
1C
1C
1C
1C
1C
38
38
70
E0
ENDCHAR
STARTCHAR *
ENCODING 42
SWIDTH 75 0
DWIDTH -1 0
BBX 12 12 0 2
BITMAP
0600
6660
76E0
3FC0
1F80
FFF0
FFF0
1F80
3FC0
76E0
6660
0600
ENDCHAR
STARTCHAR +
ENCODING 43
SWIDTH 75 0
DWIDTH -1 0
BBX 11 11 0 2
BITMAP
0E00
0E00
0E00
0E00
FFE0
FFE0
FFE0
0E00
0E00
0E00
0E00
ENDCHAR
STARTCHAR ,
ENCODING 44
SWIDTH 75 0
DWIDTH -1 0
BBX 4 6 0 2
BITMAP
20
70
70
60
40
80
ENDCHAR
STARTCHAR -
ENCODING 45
SWIDTH 75 0
DWIDTH -1 0
BBX 9 3 0 6
BITMAP
FF80
FF80
FF80
ENDCHAR
STARTCHAR .
ENCODING 46
SWIDTH 75 0
DWIDTH -1 0
BBX 3 3 0 2
BITMAP
E0
E0
E0
ENDCHAR
STARTCHAR /
ENCODING 47
SWIDTH 75 0
DWIDTH -1 0
BBX 11 20 0 2
BITMAP
0060
0060
00C0
00C0
0180
0180
0300
0300
0600
0600
0C00
0C00
1800
1800
3000
3000
6000
6000
C000
C000
ENDCHAR
STARTCHAR 0
ENCODING 48
SWIDTH 75 0
DWIDTH -1 0
BBX 11 22 0 1
BITMAP
0E00
3F80
7FC0
7FC0
FBE0
F1E0
F1E0
F1E0
F1E0
F1E0
F1E0
F1E0
F1E0
F1E0
F1E0
F1E0
F1E0
FBE0
7FC0
7FC0
3F80
0E00
ENDCHAR
STARTCHAR 1
ENCODING 49
SWIDTH 75 0
DWIDTH -1 0
BBX 10 22 0 1
BITMAP
1E00
3E00
7E00
FE00
FE00
FE00
1E00
1E00
1E00
1E00
1E00
1E00
1E00
1E00
1E00
1E00
1E00
1E00
FFC0
FFC0
FFC0
FFC0
ENDCHAR
STARTCHAR 2
ENCODING 50
SWIDTH 75 0
DWIDTH -1 0
BBX 12 22 0 1
BITMAP
0F00
3FC0
7FE0
7FE0
F9F0
F0F0
00F0
00F0
01F0
01F0
03E0
07E0
0FC0
1F80
3F00
7E00
FC00
F800
FFF0
FFF0
FFF0
FFF0
ENDCHAR
STARTCHAR 3
ENCODING 51
SWIDTH 75 0
DWIDTH -1 0
BBX 12 22 0 1
BITMAP
FFF0
FFF0
FFF0
FFF0
00F0
01E0
03C0
0780
0FC0
0FE0
0FF0
0FF0
01F0
00F0
00F0
00F0
F0F0
F9F0
7FE0
7FE0
3FC0
0F00
ENDCHAR
STARTCHAR 4
ENCODING 52
SWIDTH 75 0
DWIDTH -1 0
BBX 12 22 0 1
BITMAP
07E0
07E0
0FE0
0FE0
1FE0
1FE0
3FE0
3DE0
79E0
79E0
F1E0
F1E0
E1E0
FFF0
FFF0
FFF0
FFF0
01E0
01E0
01E0
01E0
01E0
ENDCHAR
STARTCHAR 5
ENCODING 53
SWIDTH 75 0
DWIDTH -1 0
BBX 12 22 0 1
BITMAP
FFF0
FFF0
FFF0
FFF0
F000
F000
F000
F000
FF00
FFC0
FFE0
FFE0
01F0
00F0
00F0
00F0
F0F0
F9F0
7FE0
7FE0
3FC0
0F00
ENDCHAR
STARTCHAR 6
ENCODING 54
SWIDTH 75 0
DWIDTH -1 0
BBX 12 22 0 1
BITMAP
0FE0
3FE0
7FE0
7FE0
F800
F000
F000
F000
F000
FF00
FFC0
FFE0
FFE0
F9F0
F0F0
F0F0
F0F0
F9F0
7FE0
7FE0
3FC0
0F00
ENDCHAR
STARTCHAR 7
ENCODING 55
SWIDTH 75 0
DWIDTH -1 0
BBX 12 22 0 1
BITMAP
FFF0
FFF0
FFF0
FFF0
00F0
01F0
01E0
03E0
03C0
07C0
0780
0F80
0F00
1F00
1E00
1E00
1E00
1E00
1E00
1E00
1E00
1E00
ENDCHAR
STARTCHAR 8
ENCODING 56
SWIDTH 75 0
DWIDTH -1 0
BBX 12 22 0 1
BITMAP
0F00
3FC0
7FE0
7FE0
F9F0
F0F0
F0F0
F0F0
F9F0
7FE0
3FC0
3FC0
7FE0
F9F0
F0F0
F0F0
F0F0
F9F0
7FE0
7FE0
3FC0
0F00
ENDCHAR
STARTCHAR 9
ENCODING 57
SWIDTH 75 0
DWIDTH -1 0
BBX 12 22 0 1
BITMAP
0F00
3FC0
7FE0
7FE0
F9F0
F0F0
F0F0
F0F0
F9F0
7FF0
7FF0
3FF0
0FF0
00F0
00F0
00F0
00F0
01F0
3FE0
3FE0
3FC0
3F00
ENDCHAR
STARTCHAR :
ENCODING 58
SWIDTH 75 0
DWIDTH -1 0
BBX 3 9 0 2
BITMAP
E0
E0
E0
00
00
00
E0
E0
E0
ENDCHAR
STARTCHAR ;
ENCODING 59
SWIDTH 75 0
DWIDTH -1 0
BBX 4 9 0 2
BITMAP
70
70
70
00
00
70
70
60
80
ENDCHAR
STARTCHAR <
ENCODING 60
SWIDTH 75 0
DWIDTH -1 0
BBX 11 20 0 2
BITMAP
0060
00E0
01E0
03C0
0780
0F00
1E00
3C00
7800
F000
F000
7800
3C00
1E00
0F00
0780
03C0
01E0
00E0
0060
ENDCHAR
STARTCHAR =
ENCODING 61
SWIDTH 75 0
DWIDTH -1 0
BBX 9 6 0 4
BITMAP
FF80
FF80
0000
0000
FF80
FF80
ENDCHAR
STARTCHAR >
ENCODING 62
SWIDTH 75 0
DWIDTH -1 0
BBX 11 20 0 2
BITMAP
C000
E000
F000
7800
3C00
1E00
0F00
0780
03C0
01E0
01E0
03C0
0780
0F00
1E00
3C00
7800
F000
E000
C000
ENDCHAR
STARTCHAR ?
ENCODING 63
SWIDTH 75 0
DWIDTH -1 0
BBX 12 22 0 1
BITMAP
0F00
3FC0
7FE0
FFF0
F0F0
F0F0
00F0
00F0
01F0
03E0
07C0
0F80
0F00
0F00
0F00
0F00
0F00
0000
0000
0F00
0F00
0F00
ENDCHAR
STARTCHAR @
ENCODING 64
SWIDTH 75 0
DWIDTH -1 0
BBX 12 15 0 2
BITMAP
0F80
3FE0
7FE0
7870
F070
E730
EFB0
EDB0
ECB0
E7E0
F3C0
F830
7FF0
3FF0
0FE0
ENDCHAR
STARTCHAR A
ENCODING 65
SWIDTH 75 0
DWIDTH -1 0
BBX 12 22 0 1
BITMAP
0F00
3FC0
7FE0
7FE0
F9F0
F0F0
F0F0
F0F0
F0F0
F0F0
FFF0
FFF0
FFF0
FFF0
F0F0
F0F0
F0F0
F0F0
F0F0
F0F0
F0F0
F0F0
ENDCHAR
STARTCHAR B
ENCODING 66
SWIDTH 75 0
DWIDTH -1 0
BBX 12 22 0 1
BITMAP
FF00
FFC0
FFE0
FFE0
F1F0
F0F0
F0F0
F0F0
F1E0
FFE0
FFC0
FFC0
FFE0
F1E0
F0F0
F0F0
F0F0
F1F0
FFE0
FFE0
FFC0
FF00
ENDCHAR
STARTCHAR C
ENCODING 67
SWIDTH 75 0
DWIDTH -1 0
BBX 12 22 0 1
BITMAP
0F00
3FC0
7FE0
7FE0
F9F0
F0F0
F0F0
F000
F000
F000
F000
F000
F000
F000
F000
F0F0
F0F0
F9F0
7FE0
7FE0
3FC0
0F00
ENDCHAR
STARTCHAR D
ENCODING 68
SWIDTH 75 0
DWIDTH -1 0
BBX 12 22 0 1
BITMAP
FF00
FFC0
FFE0
FFE0
F1F0
F0F0
F0F0
F0F0
F0F0
F0F0
F0F0
F0F0
F0F0
F0F0
F0F0
F0F0
F0F0
F1F0
FFE0
FFE0
FFC0
FF00
ENDCHAR
STARTCHAR E
ENCODING 69
SWIDTH 75 0
DWIDTH -1 0
BBX 11 22 0 1
BITMAP
FFE0
FFE0
FFE0
FFE0
F000
F000
F000
F000
F000
FF00
FF00
FF00
FF00
F000
F000
F000
F000
F000
FFE0
FFE0
FFE0
FFE0
ENDCHAR
STARTCHAR F
ENCODING 70
SWIDTH 75 0
DWIDTH -1 0
BBX 11 22 0 1
BITMAP
FFE0
FFE0
FFE0
FFE0
F000
F000
F000
F000
F000
FF00
FF00
FF00
FF00
F000
F000
F000
F000
F000
F000
F000
F000
F000
ENDCHAR
STARTCHAR G
ENCODING 71
SWIDTH 75 0
DWIDTH -1 0
BBX 12 22 0 1
BITMAP
0F00
3FC0
7FE0
7FE0
F9F0
F0F0
F000
F000
F000
F000
F000
F3F0
F3F0
F3F0
F0F0
F0F0
F0F0
F9F0
7FE0
7FE0
3FC0
0F00
ENDCHAR
STARTCHAR H
ENCODING 72
SWIDTH 75 0
DWIDTH -1 0
BBX 12 22 0 1
BITMAP
F0F0
F0F0
F0F0
F0F0
F0F0
F0F0
F0F0
F0F0
F0F0
FFF0
FFF0
FFF0
FFF0
F0F0
F0F0
F0F0
F0F0
F0F0
F0F0
F0F0
F0F0
F0F0
ENDCHAR
STARTCHAR I
ENCODING 73
SWIDTH 75 0
DWIDTH -1 0
BBX 10 22 0 1
BITMAP
FFC0
FFC0
FFC0
FFC0
1E00
1E00
1E00
1E00
1E00
1E00
1E00
1E00
1E00
1E00
1E00
1E00
1E00
1E00
FFC0
FFC0
FFC0
FFC0
ENDCHAR
STARTCHAR J
ENCODING 74
SWIDTH 75 0
DWIDTH -1 0
BBX 12 22 0 1
BITMAP
0FF0
0FF0
0FF0
0FF0
03C0
03C0
03C0
03C0
03C0
03C0
03C0
03C0
03C0
03C0
03C0
03C0
F3C0
F3C0
FFC0
FFC0
7F80
3F00
ENDCHAR
STARTCHAR K
ENCODING 75
SWIDTH 75 0
DWIDTH -1 0
BBX 12 22 0 1
BITMAP
F0F0
F0F0
F0F0
F0F0
F1F0
F3F0
F7E0
FFC0
FF80
FF00
FF80
FFC0
FFE0
F3F0
F1F0
F0F0
F0F0
F0F0
F0F0
F0F0
F0F0
F0F0
ENDCHAR
STARTCHAR L
ENCODING 76
SWIDTH 75 0
DWIDTH -1 0
BBX 11 22 0 1
BITMAP
F000
F000
F000
F000
F000
F000
F000
F000
F000
F000
F000
F000
F000
F000
F000
F000
F000
FFE0
FFE0
FFE0
FFE0
FFE0
ENDCHAR
STARTCHAR M
ENCODING 77
SWIDTH 75 0
DWIDTH -1 0
BBX 12 22 0 1
BITMAP
C030
E070
F0F0
F9F0
FFF0
FFF0
FFF0
FFF0
F6F0
F0F0
F0F0
F0F0
F0F0
F0F0
F0F0
F0F0
F0F0
F0F0
F0F0
F0F0
F0F0
F0F0
ENDCHAR
STARTCHAR N
ENCODING 78
SWIDTH 75 0
DWIDTH -1 0
BBX 12 22 0 1
BITMAP
C0F0
E0F0
F0F0
F8F0
FCF0
FEF0
FFF0
FFF0
F7F0
F3F0
F1F0
F0F0
F0F0
F0F0
F0F0
F0F0
F0F0
F0F0
F0F0
F0F0
F0F0
F0F0
ENDCHAR
STARTCHAR O
ENCODING 79
SWIDTH 75 0
DWIDTH -1 0
BBX 12 22 0 1
BITMAP
0F00
3FC0
7FE0
7FE0
F9F0
F0F0
F0F0
F0F0
F0F0
F0F0
F0F0
F0F0
F0F0
F0F0
F0F0
F0F0
F0F0
F9F0
7FE0
7FE0
3FC0
0F00
ENDCHAR
STARTCHAR P
ENCODING 80
SWIDTH 75 0
DWIDTH -1 0
BBX 12 22 0 1
BITMAP
FF00
FFC0
FFE0
FFE0
F1F0
F0F0
F0F0
F0F0
F1F0
FFE0
FFE0
FFC0
FF00
F000
F000
F000
F000
F000
F000
F000
F000
F000
ENDCHAR
STARTCHAR Q
ENCODING 81
SWIDTH 75 0
DWIDTH -1 0
BBX 12 22 0 1
BITMAP
0F00
3FC0
7FE0
7FE0
F9F0
F0F0
F0F0
F0F0
F0F0
F0F0
F0F0
F0F0
F0F0
F0F0
F0F0
F6F0
F7F0
FBE0
7FE0
7FF0
3FF0
0E70
ENDCHAR
STARTCHAR R
ENCODING 82
SWIDTH 75 0
DWIDTH -1 0
BBX 12 22 0 1
BITMAP
FF00
FFC0
FFE0
FFE0
F1F0
F0F0
F0F0
F0F0
F0F0
F1E0
FFE0
FFC0
FF80
FFC0
F3E0
F1F0
F0F0
F0F0
F0F0
F0F0
F0F0
F0F0
ENDCHAR
STARTCHAR S
ENCODING 83
SWIDTH 75 0
DWIDTH -1 0
BBX 12 22 0 1
BITMAP
0F00
3FC0
7FE0
7FE0
F9F0
F0F0
F000
F800
FC00
7E00
3F80
1FC0
07E0
03F0
01F0
00F0
F0F0
F9F0
7FE0
7FE0
3FC0
0F00
ENDCHAR
STARTCHAR T
ENCODING 84
SWIDTH 75 0
DWIDTH -1 0
BBX 12 22 0 1
BITMAP
FFF0
FFF0
FFF0
FFF0
0F00
0F00
0F00
0F00
0F00
0F00
0F00
0F00
0F00
0F00
0F00
0F00
0F00
0F00
0F00
0F00
0F00
0F00
ENDCHAR
STARTCHAR U
ENCODING 85
SWIDTH 75 0
DWIDTH -1 0
BBX 12 22 0 1
BITMAP
F0F0
F0F0
F0F0
F0F0
F0F0
F0F0
F0F0
F0F0
F0F0
F0F0
F0F0
F0F0
F0F0
F0F0
F0F0
F0F0
F0F0
F9F0
7FE0
7FE0
3FC0
0F00
ENDCHAR
STARTCHAR V
ENCODING 86
SWIDTH 75 0
DWIDTH -1 0
BBX 12 22 0 1
BITMAP
F0F0
F0F0
F0F0
F0F0
F0F0
F0F0
F0F0
F0F0
F0F0
F0F0
F0F0
F0F0
F9F0
79E0
7FE0
3FC0
3FC0
1F80
1F80
0F00
0F00
0600
ENDCHAR
STARTCHAR W
ENCODING 87
SWIDTH 75 0
DWIDTH -1 0
BBX 12 22 0 1
BITMAP
F0F0
F0F0
F0F0
F0F0
F0F0
F0F0
F0F0
F0F0
F0F0
F0F0
F0F0
F0F0
F0F0
F0F0
F0F0
F6F0
F6F0
FFF0
FFF0
7FE0
39C0
1080
ENDCHAR
STARTCHAR X
ENCODING 88
SWIDTH 75 0
DWIDTH -1 0
BBX 12 22 0 1
BITMAP
F0F0
F0F0
F0F0
F0F0
F0F0
F0F0
F9F0
7FE0
3FC0
1F80
0F00
0F00
1F80
3FC0
7FE0
F9F0
F0F0
F0F0
F0F0
F0F0
F0F0
F0F0
ENDCHAR
STARTCHAR Y
ENCODING 89
SWIDTH 75 0
DWIDTH -1 0
BBX 12 22 0 1
BITMAP
F0F0
F0F0
F0F0
F0F0
F0F0
F0F0
F9F0
7FE0
3FC0
1F80
0F00
0F00
0F00
0F00
0F00
0F00
0F00
0F00
0F00
0F00
0F00
0F00
ENDCHAR
STARTCHAR Z
ENCODING 90
SWIDTH 75 0
DWIDTH -1 0
BBX 12 22 0 1
BITMAP
FFF0
FFF0
FFF0
FFF0
00F0
00F0
00F0
01F0
03E0
07C0
0F80
1F00
3E00
7C00
F800
F000
F000
F000
FFF0
FFF0
FFF0
FFF0
ENDCHAR
STARTCHAR [
ENCODING 91
SWIDTH 75 0
DWIDTH -1 0
BBX 4 22 0 1
BITMAP
F0
F0
C0
C0
C0
C0
C0
C0
C0
C0
C0
C0
C0
C0
C0
C0
C0
C0
C0
C0
F0
F0
ENDCHAR
STARTCHAR \
ENCODING 92
SWIDTH 75 0
DWIDTH -1 0
BBX 11 20 0 2
BITMAP
C000
C000
6000
6000
3000
3000
1800
1800
0C00
0C00
0600
0600
0300
0300
0180
0180
00C0
00C0
0060
0060
ENDCHAR
STARTCHAR ]
ENCODING 93
SWIDTH 75 0
DWIDTH -1 0
BBX 4 22 0 1
BITMAP
F0
F0
30
30
30
30
30
30
30
30
30
30
30
30
30
30
30
30
30
30
F0
F0
ENDCHAR
STARTCHAR ^
ENCODING 94
SWIDTH 75 0
DWIDTH -1 0
BBX 10 5 0 18
BITMAP
0C00
1E00
3300
6180
C0C0
ENDCHAR
STARTCHAR _
ENCODING 95
SWIDTH 75 0
DWIDTH -1 0
BBX 9 2 0 2
BITMAP
FF80
FF80
ENDCHAR
STARTCHAR `
ENCODING 96
SWIDTH 75 0
DWIDTH -1 0
BBX 4 4 0 19
BITMAP
E0
E0
60
10
ENDCHAR
STARTCHAR a
ENCODING 97
SWIDTH 75 0
DWIDTH -1 0
BBX 12 13 0 1
BITMAP
3FC0
7FE0
C1F0
00F0
3EF0
7FF0
FFF0
E3F0
E1F0
E1F0
FFF0
7FF0
3EF0
ENDCHAR
STARTCHAR b
ENCODING 98
SWIDTH 75 0
DWIDTH -1 0
BBX 12 22 0 1
BITMAP
F000
F000
F000
F000
F000
F000
F000
F000
F000
F7C0
FFE0
FFF0
F8F0
F070
F070
F070
F070
F070
F8F0
FFF0
FFE0
F7C0
ENDCHAR
STARTCHAR c
ENCODING 99
SWIDTH 75 0
DWIDTH -1 0
BBX 12 13 0 1
BITMAP
3FC0
7FE0
FFF0
F870
F000
F000
F000
F000
F000
F870
FFF0
7FE0
3FC0
ENDCHAR
STARTCHAR d
ENCODING 100
SWIDTH 75 0
DWIDTH -1 0
BBX 12 22 0 1
BITMAP
00F0
00F0
00F0
00F0
00F0
00F0
00F0
00F0
00F0
3EF0
7FF0
FFF0
F1F0
E0F0
E0F0
E0F0
E0F0
E0F0
F1F0
FFF0
7FF0
3EF0
ENDCHAR
STARTCHAR e
ENCODING 101
SWIDTH 75 0
DWIDTH -1 0
BBX 12 13 0 1
BITMAP
3FC0
7FE0
FFF0
F0F0
E070
E070
FFF0
FFE0
E000
E000
F000
7FE0
3FC0
ENDCHAR
STARTCHAR f
ENCODING 102
SWIDTH 75 0
DWIDTH -1 0
BBX 12 22 0 1
BITMAP
1FC0
3FE0
7FF0
7CF0
7870
7800
7800
7800
7800
FE00
FE00
FE00
7800
7800
7800
7800
7800
7800
7800
7800
7800
7800
ENDCHAR
STARTCHAR g
ENCODING 103
SWIDTH 75 0
DWIDTH -1 0
BBX 12 14 0 0
BITMAP
3EF0
7FF0
F3F0
E1F0
E1F0
E1F0
F3F0
FFF0
7EF0
3CF0
00F0
01F0
7FE0
3FC0
ENDCHAR
STARTCHAR h
ENCODING 104
SWIDTH 75 0
DWIDTH -1 0
BBX 12 22 0 1
BITMAP
F000
F000
F000
F000
F000
F000
F000
F000
F000
F3C0
F7E0
FFF0
F9F0
F0F0
F0F0
F0F0
F0F0
F0F0
F0F0
F0F0
F0F0
F0F0
ENDCHAR
STARTCHAR i
ENCODING 105
SWIDTH 75 0
DWIDTH -1 0
BBX 8 19 0 1
BITMAP
3C
3C
3C
3C
00
00
FC
FC
FC
3C
3C
3C
3C
3C
3C
3C
FF
FF
FF
ENDCHAR
STARTCHAR j
ENCODING 106
SWIDTH 75 0
DWIDTH -1 0
BBX 12 20 0 0
BITMAP
03C0
03C0
03C0
03C0
0000
0000
0FF0
0FF0
0FF0
03C0
03C0
03C0
03C0
03C0
03C0
03C0
F3C0
F3C0
7F80
3F00
ENDCHAR
STARTCHAR k
ENCODING 107
SWIDTH 75 0
DWIDTH -1 0
BBX 12 22 0 1
BITMAP
F000
F000
F000
F000
F000
F000
F000
F000
F000
F1F0
F3E0
F7C0
FF80
FF00
FE00
FE00
FE00
FF00
FF80
F7C0
F3E0
F1F0
ENDCHAR
STARTCHAR l
ENCODING 108
SWIDTH 75 0
DWIDTH -1 0
BBX 8 22 0 1
BITMAP
FC
FC
FC
3C
3C
3C
3C
3C
3C
3C
3C
3C
3C
3C
3C
3C
3C
3C
3C
FF
FF
FF
ENDCHAR
STARTCHAR m
ENCODING 109
SWIDTH 75 0
DWIDTH -1 0
BBX 12 13 0 1
BITMAP
F660
FFF0
F770
F770
F770
F770
F770
F770
F770
F770
F770
F770
F770
ENDCHAR
STARTCHAR n
ENCODING 110
SWIDTH 75 0
DWIDTH -1 0
BBX 10 13 0 1
BITMAP
F700
FF80
FBC0
F1C0
F1C0
F1C0
F1C0
F1C0
F1C0
F1C0
F1C0
F1C0
F1C0
ENDCHAR
STARTCHAR o
ENCODING 111
SWIDTH 75 0
DWIDTH -1 0
BBX 12 13 0 1
BITMAP
1F80
3FC0
7FE0
F0F0
E070
E070
E070
E070
E070
F0F0
7FE0
3FC0
1F80
ENDCHAR
STARTCHAR p
ENCODING 112
SWIDTH 75 0
DWIDTH -1 0
BBX 12 14 0 0
BITMAP
F7C0
FFE0
F8F0
F070
F070
F070
F8F0
FFE0
F7C0
F000
F000
F000
F000
F000
ENDCHAR
STARTCHAR q
ENCODING 113
SWIDTH 75 0
DWIDTH -1 0
BBX 12 14 0 0
BITMAP
3EF0
7FF0
F1F0
E0F0
E0F0
E0F0
F1F0
7FF0
3EF0
00F0
00F0
00F0
00F0
00F0
ENDCHAR
STARTCHAR r
ENCODING 114
SWIDTH 75 0
DWIDTH -1 0
BBX 12 13 0 1
BITMAP
F7C0
FFE0
F9F0
F0F0
F000
F000
F000
F000
F000
F000
F000
F000
F000
ENDCHAR
STARTCHAR s
ENCODING 115
SWIDTH 75 0
DWIDTH -1 0
BBX 12 13 0 1
BITMAP
3FC0
7FE0
FFE0
E000
E000
FFE0
FFF0
7FF0
0070
0070
FFF0
FFE0
7FC0
ENDCHAR
STARTCHAR t
ENCODING 116
SWIDTH 75 0
DWIDTH -1 0
BBX 12 22 0 1
BITMAP
3C00
3C00
3C00
3C00
3C00
3C00
3C00
3C00
3C00
FF00
FF00
FF00
3C00
3C00
3C00
3C00
3C00
3C00
3C70
3FF0
3FE0
1FC0
ENDCHAR
STARTCHAR u
ENCODING 117
SWIDTH 75 0
DWIDTH -1 0
BBX 12 13 0 1
BITMAP
F0F0
F0F0
F0F0
F0F0
F0F0
F0F0
F0F0
F0F0
F0F0
F0F0
F9F0
7FF0
3F70
ENDCHAR
STARTCHAR v
ENCODING 118
SWIDTH 75 0
DWIDTH -1 0
BBX 12 13 0 1
BITMAP
F0F0
F0F0
F0F0
F0F0
F0F0
F0F0
F0F0
F0F0
79E0
3FC0
1F80
0F00
0600
ENDCHAR
STARTCHAR w
ENCODING 119
SWIDTH 75 0
DWIDTH -1 0
BBX 12 13 0 1
BITMAP
F0F0
F0F0
F0F0
F0F0
F0F0
F0F0
F0F0
F0F0
F6F0
FFF0
7FE0
39C0
1080
ENDCHAR
STARTCHAR x
ENCODING 120
SWIDTH 75 0
DWIDTH -1 0
BBX 12 13 0 1
BITMAP
F0F0
F0F0
F0F0
79E0
3FC0
1F80
0F00
1F80
3FC0
79E0
F0F0
F0F0
F0F0
ENDCHAR
STARTCHAR y
ENCODING 121
SWIDTH 75 0
DWIDTH -1 0
BBX 12 14 0 0
BITMAP
F0F0
F0F0
F0F0
F0F0
F0F0
FFF0
7FF0
3FF0
00F0
00F0
00F0
7FE0
7FC0
7F80
ENDCHAR
STARTCHAR z
ENCODING 122
SWIDTH 75 0
DWIDTH -1 0
BBX 12 13 0 1
BITMAP
FFF0
FFF0
FFF0
01F0
03E0
07C0
0F80
1F00
3E00
7C00
FFF0
FFF0
FFF0
ENDCHAR
STARTCHAR {
ENCODING 123
SWIDTH 75 0
DWIDTH -1 0
BBX 5 22 0 1
BITMAP
18
38
30
30
30
30
30
30
30
70
F0
70
30
30
30
30
30
30
30
30
38
18
ENDCHAR
STARTCHAR |
ENCODING 124
SWIDTH 75 0
DWIDTH -1 0
BBX 4 22 0 1
BITMAP
F0
F0
F0
F0
F0
F0
F0
F0
F0
F0
F0
F0
F0
F0
F0
F0
F0
F0
F0
F0
F0
F0
ENDCHAR
STARTCHAR }
ENCODING 125
SWIDTH 75 0
DWIDTH -1 0
BBX 5 22 0 1
BITMAP
C0
E0
60
60
60
60
60
60
60
70
78
70
60
60
60
60
60
60
60
60
C0
80
ENDCHAR
STARTCHAR ~
ENCODING 126
SWIDTH 75 0
DWIDTH -1 0
BBX 12 7 0 5
BITMAP
3800
7C00
FE10
CF30
87F0
03E0
01C0
ENDCHAR
STARTCHAR ¤
ENCODING -92
SWIDTH 75 0
DWIDTH -1 0
BBX 12 22 0 1
BITMAP
07C0
1FE0
3FF0
3FF0
7C70
7800
7800
FF80
FF80
FF80
7800
7800
FF80
FF80
FF80
7800
7800
7CF0
3FF0
3FF0
1FE0
07C0
ENDCHAR
STARTCHAR ¦
ENCODING -90
SWIDTH 75 0
DWIDTH -1 0
BBX 12 23 0 1
BITMAP
70E0
39C0
1F80
0000
0F10
3FD0
7FF0
7FF0
F9E0
F0E0
F800
FC10
7E10
1F90
07F0
03E0
01E0
F0E0
F9E0
7FF0
7FF0
3FC0
0F00
ENDCHAR
STARTCHAR ¼
ENCODING -68
SWIDTH 75 0
DWIDTH -1 0
BBX 12 22 0 1
BITMAP
0FF0
3FF0
7FF0
7FF0
FBC0
F3C0
F3C0
F3C0
F3C0
F3F0
F3F0
F3F0
F3F0
F3C0
F3C0
F3C0
F3C0
FBC0
7FF0
7FF0
3FF0
0FF0
ENDCHAR
STARTCHAR ´
ENCODING -76
SWIDTH 75 0
DWIDTH -1 0
BBX 12 23 0 1
BITMAP
70E0
39C0
1F80
0000
FFF0
FFF0
FFF0
FFF0
00F0
01F0
03E0
07C0
0F80
1F00
3E00
7C00
F800
F000
F000
FFF0
FFF0
FFF0
FFF0
ENDCHAR
STARTCHAR ¨
ENCODING -88
SWIDTH 75 0
DWIDTH -1 0
BBX 12 17 0 1
BITMAP
70E0
39C0
1F80
0000
3FC0
7FE0
FFE0
E000
E000
FFE0
FFF0
7FF0
0070
0070
FFF0
FFE0
7FC0
ENDCHAR
STARTCHAR ½
ENCODING -67
SWIDTH 75 0
DWIDTH -1 0
BBX 12 13 0 1
BITMAP
1DE0
3FF0
7FF0
F7B0
E730
E730
E7F0
E7E0
E700
F700
7F80
3FF0
1DE0
ENDCHAR
STARTCHAR ¸
ENCODING -72
SWIDTH 75 0
DWIDTH -1 0
BBX 12 17 0 1
BITMAP
70E0
39C0
1F80
0000
FFF0
FFF0
FFF0
01F0
03E0
07C0
0F80
1F00
3E00
7C00
FFF0
FFF0
FFF0
ENDCHAR
STARTCHAR ¾
ENCODING -66
SWIDTH 75 0
DWIDTH -1 0
BBX 12 23 0 1
BITMAP
39C0
39C0
39C0
0000
F0F0
F0F0
F0F0
F0F0
F0F0
F0F0
F9F0
7FE0
3FC0
1F80
0F00
0F00
0F00
0F00
0F00
0F00
0F00
0F00
0F00
ENDCHAR
STARTCHAR ¡
ENCODING -95
SWIDTH 75 0
DWIDTH -1 0
BBX 4 22 0 1
BITMAP
F0
F0
F0
F0
00
00
00
F0
F0
F0
F0
F0
F0
F0
F0
F0
F0
F0
F0
F0
F0
F0
ENDCHAR
STARTCHAR ¢
ENCODING -94
SWIDTH 75 0
DWIDTH -1 0
BBX 12 15 0 0
BITMAP
0180
3FC0
7FE0
FFF0
FB70
F300
F300
F300
F300
F300
FB70
FFF0
7FE0
3FC0
0600
ENDCHAR
STARTCHAR £
ENCODING -93
SWIDTH 75 0
DWIDTH -1 0
BBX 12 22 0 1
BITMAP
3FC0
7FE0
FFF0
FFF0
F0F0
F0F0
F000
F000
7000
7000
7FC0
7FC0
7FC0
7800
7800
7800
7800
7800
FFF0
FFF0
FFF0
FFF0
ENDCHAR
STARTCHAR ¥
ENCODING -91
SWIDTH 75 0
DWIDTH -1 0
BBX 12 22 0 1
BITMAP
F0F0
F0F0
F0F0
F0F0
F0F0
F0F0
F9F0
FFF0
FFF0
7FE0
3FC0
1F80
7FE0
7FE0
7FE0
0F00
7FE0
7FE0
7FE0
0F00
0F00
0F00
ENDCHAR
STARTCHAR §
ENCODING -89
SWIDTH 75 0
DWIDTH -1 0
BBX 12 22 0 1
BITMAP
7FC0
FFE0
FFF0
F0F0
E000
E000
F000
FFC0
FFE0
FFF0
F1F0
E0F0
F1F0
FFE0
FFE0
7FE0
01F0
00F0
E1F0
FFE0
FFE0
7FC0
ENDCHAR
STARTCHAR ©
ENCODING -87
SWIDTH 75 0
DWIDTH -1 0
BBX 12 13 0 10
BITMAP
3FC0
7FE0
E070
CF30
DFB0
D9B0
D830
D9B0
DFB0
CF30
E070
7FE0
3FC0
ENDCHAR
STARTCHAR ª
ENCODING -86
SWIDTH 75 0
DWIDTH -1 0
BBX 5 6 0 17
BITMAP
70
88
08
78
88
78
ENDCHAR
STARTCHAR «
ENCODING -85
SWIDTH 75 0
DWIDTH -1 0
BBX 12 13 0 5
BITMAP
0410
0C30
1C70
3CF0
79E0
F3C0
E380
F3C0
79E0
3CF0
1C70
0C30
0410
ENDCHAR
STARTCHAR ¬
ENCODING -84
SWIDTH 75 0
DWIDTH -1 0
BBX 11 7 0 6
BITMAP
FFE0
FFE0
FFE0
FFE0
01E0
01E0
01E0
ENDCHAR
STARTCHAR ®
ENCODING -82
SWIDTH 75 0
DWIDTH -1 0
BBX 12 13 0 10
BITMAP
3FC0
7FE0
E070
DF30
DFB0
D9B0
D9B0
DF30
D9B0
D9B0
E070
7FE0
3FC0
ENDCHAR
STARTCHAR ¯
ENCODING -81
SWIDTH 75 0
DWIDTH -1 0
BBX 11 4 0 19
BITMAP
FFE0
FFE0
FFE0
FFE0
ENDCHAR
STARTCHAR °
ENCODING -80
SWIDTH 75 0
DWIDTH -1 0
BBX 5 6 0 17
BITMAP
70
88
88
88
88
70
ENDCHAR
STARTCHAR ±
ENCODING -79
SWIDTH 75 0
DWIDTH -1 0
BBX 11 17 0 1
BITMAP
1F00
1F00
1F00
FFE0
FFE0
FFE0
FFE0
FFE0
1F00
1F00
1F00
0000
0000
FFE0
FFE0
FFE0
FFE0
ENDCHAR
STARTCHAR ²
ENCODING -78
SWIDTH 75 0
DWIDTH -1 0
BBX 6 9 0 14
BITMAP
30
78
CC
0C
18
30
60
FC
FC
ENDCHAR
STARTCHAR ³
ENCODING -77
SWIDTH 75 0
DWIDTH -1 0
BBX 6 9 0 14
BITMAP
70
F8
8C
0C
38
0C
8C
F8
70
ENDCHAR
STARTCHAR µ
ENCODING -75
SWIDTH 75 0
DWIDTH -1 0
BBX 12 18 0 0
BITMAP
F0F0
F0F0
F0F0
F0F0
F0F0
F0F0
F0F0
F0F0
F0F0
F0F0
F9F0
FFF0
FF70
F000
F000
F000
F000
F000
ENDCHAR
STARTCHAR ·
ENCODING -73
SWIDTH 75 0
DWIDTH -1 0
BBX 4 4 0 11
BITMAP
F0
F0
F0
F0
ENDCHAR
STARTCHAR ¹
ENCODING -71
SWIDTH 75 0
DWIDTH -1 0
BBX 6 9 0 14
BITMAP
30
70
F0
30
30
30
30
FC
FC
ENDCHAR
STARTCHAR º
ENCODING -70
SWIDTH 75 0
DWIDTH -1 0
BBX 6 9 0 14
BITMAP
78
FC
CC
CC
CC
CC
CC
FC
78
ENDCHAR
STARTCHAR »
ENCODING -69
SWIDTH 75 0
DWIDTH -1 0
BBX 12 13 0 4
BITMAP
8200
C300
E380
F3C0
79E0
3CF0
1C70
3CF0
79E0
F3C0
E380
C300
8200
ENDCHAR
STARTCHAR ¿
ENCODING -65
SWIDTH 75 0
DWIDTH -1 0
BBX 12 22 0 1
BITMAP
0F00
0F00
0F00
0000
0000
0F00
0F00
0F00
0F00
0F00
1F00
3E00
7C00
F800
F000
F000
F0F0
F0F0
FFF0
7FE0
3FC0
0F00
ENDCHAR
STARTCHAR À
ENCODING -64
SWIDTH 75 0
DWIDTH -1 0
BBX 12 23 0 1
BITMAP
1C00
0E00
0700
0000
0F00
3FC0
7FE0
7FE0
F9F0
F0F0
F0F0
F0F0
FFF0
FFF0
FFF0
FFF0
F0F0
F0F0
F0F0
F0F0
F0F0
F0F0
F0F0
ENDCHAR
STARTCHAR Á
ENCODING -63
SWIDTH 75 0
DWIDTH -1 0
BBX 12 23 0 1
BITMAP
0380
0700
0E00
0000
0F00
3FC0
7FE0
7FE0
F9F0
F0F0
F0F0
F0F0
FFF0
FFF0
FFF0
FFF0
F0F0
F0F0
F0F0
F0F0
F0F0
F0F0
F0F0
ENDCHAR
STARTCHAR Â
ENCODING -62
SWIDTH 75 0
DWIDTH -1 0
BBX 12 23 0 1
BITMAP
1F80
39C0
70E0
0000
0F00
3FC0
7FE0
7FE0
F9F0
F0F0
F0F0
F0F0
FFF0
FFF0
FFF0
FFF0
F0F0
F0F0
F0F0
F0F0
F0F0
F0F0
F0F0
ENDCHAR
STARTCHAR Ã
ENCODING -61
SWIDTH 75 0
DWIDTH -1 0
BBX 12 23 0 1
BITMAP
3C70
76E0
E3C0
0000
0F00
3FC0
7FE0
7FE0
F9F0
F0F0
F0F0
F0F0
FFF0
FFF0
FFF0
FFF0
F0F0
F0F0
F0F0
F0F0
F0F0
F0F0
F0F0
ENDCHAR
STARTCHAR Ä
ENCODING -60
SWIDTH 75 0
DWIDTH -1 0
BBX 12 23 0 1
BITMAP
39C0
39C0
39C0
0000
0F00
3FC0
7FE0
7FE0
F9F0
F0F0
F0F0
F0F0
FFF0
FFF0
FFF0
FFF0
F0F0
F0F0
F0F0
F0F0
F0F0
F0F0
F0F0
ENDCHAR
STARTCHAR Å
ENCODING -59
SWIDTH 75 0
DWIDTH -1 0
BBX 12 23 0 1
BITMAP
0600
0900
0900
0600
0F00
3FC0
7FE0
7FE0
F9F0
F0F0
F0F0
F0F0
FFF0
FFF0
FFF0
FFF0
F0F0
F0F0
F0F0
F0F0
F0F0
F0F0
F0F0
ENDCHAR
STARTCHAR Æ
ENCODING -58
SWIDTH 75 0
DWIDTH -1 0
BBX 12 22 0 1
BITMAP
0FF0
3FF0
7FF0
7FF0
FBC0
F3C0
F3C0
F3C0
F3C0
F3F0
FFF0
FFF0
FFF0
FFC0
F3C0
F3C0
F3C0
F3C0
F3F0
F3F0
F3F0
F3F0
ENDCHAR
STARTCHAR Ç
ENCODING -57
SWIDTH 75 0
DWIDTH -1 0
BBX 12 23 0 0
BITMAP
0F00
3FC0
7FE0
7FE0
F9F0
F0F0
F0F0
F000
F000
F000
F000
F000
F000
F0F0
F0F0
F9F0
7FE0
7FE0
3FC0
0F00
0200
0700
1E00
ENDCHAR
STARTCHAR È
ENCODING -56
SWIDTH 75 0
DWIDTH -1 0
BBX 11 23 0 1
BITMAP
1C00
0E00
0700
0000
FFE0
FFE0
FFE0
FFE0
F000
F000
F000
FF00
FF00
FF00
FF00
F000
F000
F000
F000
FFE0
FFE0
FFE0
FFE0
ENDCHAR
STARTCHAR É
ENCODING -55
SWIDTH 75 0
DWIDTH -1 0
BBX 11 23 0 1
BITMAP
0380
0700
0E00
0000
FFE0
FFE0
FFE0
FFE0
F000
F000
F000
FF00
FF00
FF00
FF00
F000
F000
F000
F000
FFE0
FFE0
FFE0
FFE0
ENDCHAR
STARTCHAR Ê
ENCODING -54
SWIDTH 75 0
DWIDTH -1 0
BBX 11 23 0 1
BITMAP
1F00
3B80
71C0
0000
FFE0
FFE0
FFE0
FFE0
F000
F000
F000
FF00
FF00
FF00
FF00
F000
F000
F000
F000
FFE0
FFE0
FFE0
FFE0
ENDCHAR
STARTCHAR Ë
ENCODING -53
SWIDTH 75 0
DWIDTH -1 0
BBX 11 23 0 1
BITMAP
71C0
71C0
71C0
0000
FFE0
FFE0
FFE0
FFE0
F000
F000
F000
FF00
FF00
FF00
FF00
F000
F000
F000
F000
FFE0
FFE0
FFE0
FFE0
ENDCHAR
STARTCHAR Ì
ENCODING -52
SWIDTH 75 0
DWIDTH -1 0
BBX 10 23 0 1
BITMAP
3800
1C00
0E00
0000
FFC0
FFC0
FFC0
FFC0
1E00
1E00
1E00
1E00
1E00
1E00
1E00
1E00
1E00
1E00
1E00
FFC0
FFC0
FFC0
FFC0
ENDCHAR
STARTCHAR Í
ENCODING -51
SWIDTH 75 0
DWIDTH -1 0
BBX 11 23 0 1
BITMAP
0700
0E00
1C00
0000
FFC0
FFC0
FFC0
FFC0
1E00
1E00
1E00
1E00
1E00
1E00
1E00
1E00
1E00
1E00
1E00
FFE0
FFE0
FFE0
FFE0
ENDCHAR
STARTCHAR Î
ENCODING -50
SWIDTH 75 0
DWIDTH -1 0
BBX 10 23 1 1
BITMAP
3F00
7380
E1C0
0000
FFC0
FFC0
FFC0
FFC0
1E00
1E00
1E00
1E00
1E00
1E00
1E00
1E00
1E00
1E00
1E00
FFC0
FFC0
FFC0
FFC0
ENDCHAR
STARTCHAR Ï
ENCODING -49
SWIDTH 75 0
DWIDTH -1 0
BBX 10 23 0 1
BITMAP
7380
7380
7380
0000
FFC0
FFC0
FFC0
FFC0
1E00
1E00
1E00
1E00
1E00
1E00
1E00
1E00
1E00
1E00
1E00
FFC0
FFC0
FFC0
FFC0
ENDCHAR
STARTCHAR Ð
ENCODING -48
SWIDTH 75 0
DWIDTH -1 0
BBX 12 22 0 1
BITMAP
7F00
7FC0
7FE0
7FE0
79F0
78F0
78F0
78F0
78F0
FEF0
FEF0
FEF0
FEF0
78F0
78F0
78F0
78F0
79F0
7FE0
7FE0
7FC0
7F00
ENDCHAR
STARTCHAR Ñ
ENCODING -47
SWIDTH 75 0
DWIDTH -1 0
BBX 12 23 0 1
BITMAP
3C70
76E0
E3C0
0000
C0F0
E0F0
F0F0
F8F0
FCF0
FEF0
FFF0
FFF0
F7F0
F3F0
F1F0
F0F0
F0F0
F0F0
F0F0
F0F0
F0F0
F0F0
F0F0
ENDCHAR
STARTCHAR Ò
ENCODING -46
SWIDTH 75 0
DWIDTH -1 0
BBX 12 23 0 1
BITMAP
1C00
0E00
0700
0000
0F00
3FC0
7FE0
7FE0
F9F0
F0F0
F0F0
F0F0
F0F0
F0F0
F0F0
F0F0
F0F0
F0F0
F9F0
7FE0
7FE0
3FC0
0F00
ENDCHAR
STARTCHAR Ó
ENCODING -45
SWIDTH 75 0
DWIDTH -1 0
BBX 12 23 0 1
BITMAP
0380
0700
0E00
0000
0F00
3FC0
7FE0
7FE0
F9F0
F0F0
F0F0
F0F0
F0F0
F0F0
F0F0
F0F0
F0F0
F0F0
F9F0
7FE0
7FE0
3FC0
0F00
ENDCHAR
STARTCHAR Ô
ENCODING -44
SWIDTH 75 0
DWIDTH -1 0
BBX 12 23 0 1
BITMAP
1F80
39C0
70E0
0000
0F00
3FC0
7FE0
7FE0
F9F0
F0F0
F0F0
F0F0
F0F0
F0F0
F0F0
F0F0
F0F0
F0F0
F9F0
7FE0
7FE0
3FC0
0F00
ENDCHAR
STARTCHAR Õ
ENCODING -43
SWIDTH 75 0
DWIDTH -1 0
BBX 12 23 0 1
BITMAP
3C70
76E0
E3C0
0000
0F00
3FC0
7FE0
7FE0
F9F0
F0F0
F0F0
F0F0
F0F0
F0F0
F0F0
F0F0
F0F0
F0F0
F9F0
7FE0
7FE0
3FC0
0F00
ENDCHAR
STARTCHAR Ö
ENCODING -42
SWIDTH 75 0
DWIDTH -1 0
BBX 12 23 0 1
BITMAP
39C0
39C0
39C0
0000
0F00
3FC0
7FE0
7FE0
F9F0
F0F0
F0F0
F0F0
F0F0
F0F0
F0F0
F0F0
F0F0
F0F0
F9F0
7FE0
7FE0
3FC0
0F00
ENDCHAR
STARTCHAR ×
ENCODING -41
SWIDTH 75 0
DWIDTH -1 0
BBX 11 12 0 5
BITMAP
E0E0
F1E0
FBE0
7FC0
3F80
1F00
1F00
3F80
7FC0
FBE0
F1E0
E0E0
ENDCHAR
STARTCHAR Ø
ENCODING -40
SWIDTH 75 0
DWIDTH -1 0
BBX 12 24 0 0
BITMAP
0300
0F00
3FC0
7FE0
7FE0
FFF0
F6F0
F6F0
F6F0
F6F0
F6F0
F6F0
F6F0
F6F0
F6F0
F6F0
F6F0
F6F0
FFF0
7FE0
7FE0
3FC0
0F00
0C00
ENDCHAR
STARTCHAR Ù
ENCODING -39
SWIDTH 75 0
DWIDTH -1 0
BBX 12 23 0 1
BITMAP
1C00
0E00
0700
0000
F0F0
F0F0
F0F0
F0F0
F0F0
F0F0
F0F0
F0F0
F0F0
F0F0
F0F0
F0F0
F0F0
F0F0
F9F0
7FE0
7FE0
3FC0
0F00
ENDCHAR
STARTCHAR Ú
ENCODING -38
SWIDTH 75 0
DWIDTH -1 0
BBX 12 23 0 1
BITMAP
0380
0700
0E00
0000
F0F0
F0F0
F0F0
F0F0
F0F0
F0F0
F0F0
F0F0
F0F0
F0F0
F0F0
F0F0
F0F0
F0F0
F9F0
7FE0
7FE0
3FC0
0F00
ENDCHAR
STARTCHAR Û
ENCODING -37
SWIDTH 75 0
DWIDTH -1 0
BBX 12 23 0 1
BITMAP
1F80
39C0
70E0
0000
F0F0
F0F0
F0F0
F0F0
F0F0
F0F0
F0F0
F0F0
F0F0
F0F0
F0F0
F0F0
F0F0
F0F0
F9F0
7FE0
7FE0
3FC0
0F00
ENDCHAR
STARTCHAR Ü
ENCODING -36
SWIDTH 75 0
DWIDTH -1 0
BBX 12 23 0 1
BITMAP
39C0
39C0
39C0
0000
F0F0
F0F0
F0F0
F0F0
F0F0
F0F0
F0F0
F0F0
F0F0
F0F0
F0F0
F0F0
F0F0
F0F0
F9F0
7FE0
7FE0
3FC0
0F00
ENDCHAR
STARTCHAR Ý
ENCODING -35
SWIDTH 75 0
DWIDTH -1 0
BBX 12 23 0 1
BITMAP
0380
0700
0E00
0000
F0F0
F0F0
F0F0
F0F0
F0F0
F0F0
F9F0
7FE0
3FC0
1F80
0F00
0F00
0F00
0F00
0F00
0F00
0F00
0F00
0F00
ENDCHAR
STARTCHAR Þ
ENCODING -34
SWIDTH 75 0
DWIDTH -1 0
BBX 11 22 1 1
BITMAP
F000
F000
F000
F000
F000
F000
FF80
FFC0
FFE0
FFE0
F1E0
F1E0
FFE0
FFE0
FFC0
FF80
F000
F000
F000
F000
F000
F000
ENDCHAR
STARTCHAR ß
ENCODING -33
SWIDTH 75 0
DWIDTH -1 0
BBX 12 23 0 0
BITMAP
0E00
3F80
7FC0
7FC0
FBE0
F1E0
F1E0
F1E0
F3E0
F7C0
F780
F780
F7C0
F1E0
F0F0
F070
F070
F070
F0F0
F7F0
F7E0
F7C0
F000
ENDCHAR
STARTCHAR à
ENCODING -32
SWIDTH 75 0
DWIDTH -1 0
BBX 12 17 0 1
BITMAP
1C00
0E00
0700
0000
3FC0
7FE0
C1F0
00F0
3EF0
7FF0
FFF0
E3F0
E1F0
E1F0
FFF0
7FF0
3EF0
ENDCHAR
STARTCHAR á
ENCODING -31
SWIDTH 75 0
DWIDTH -1 0
BBX 12 17 0 1
BITMAP
0380
0700
0E00
0000
3FC0
7FE0
C1F0
00F0
3EF0
7FF0
FFF0
E3F0
E1F0
E1F0
FFF0
7FF0
3EF0
ENDCHAR
STARTCHAR â
ENCODING -30
SWIDTH 75 0
DWIDTH -1 0
BBX 12 17 0 1
BITMAP
1F80
39C0
70E0
0000
3FC0
7FE0
C1F0
00F0
3EF0
7FF0
FFF0
E3F0
E1F0
E1F0
FFF0
7FF0
3EF0
ENDCHAR
STARTCHAR ã
ENCODING -29
SWIDTH 75 0
DWIDTH -1 0
BBX 12 17 0 1
BITMAP
3C70
76E0
E3C0
0000
3FC0
7FE0
C1F0
00F0
3EF0
7FF0
FFF0
E3F0
E1F0
E1F0
FFF0
7FF0
3EF0
ENDCHAR
STARTCHAR ä
ENCODING -28
SWIDTH 75 0
DWIDTH -1 0
BBX 12 17 0 1
BITMAP
39C0
39C0
39C0
0000
3FC0
7FE0
C1F0
00F0
3EF0
7FF0
FFF0
E3F0
E1F0
E1F0
FFF0
7FF0
3EF0
ENDCHAR
STARTCHAR å
ENCODING -27
SWIDTH 75 0
DWIDTH -1 0
BBX 12 18 0 1
BITMAP
0600
0900
0900
0600
0000
3FC0
7FE0
C1F0
00F0
3EF0
7FF0
FFF0
E3F0
E1F0
E1F0
FFF0
7FF0
3EF0
ENDCHAR
STARTCHAR æ
ENCODING -26
SWIDTH 75 0
DWIDTH -1 0
BBX 12 13 0 1
BITMAP
3DE0
7FF0
C7F0
07B0
3F30
7F30
FFF0
EFE0
E700
E700
FF80
7FF0
3DE0
ENDCHAR
STARTCHAR ç
ENCODING -25
SWIDTH 75 0
DWIDTH -1 0
BBX 12 14 0 0
BITMAP
3FC0
7FE0
FFF0
F870
F000
F000
F000
F000
F870
FFF0
7FE0
3FC0
0E00
7C00
ENDCHAR
STARTCHAR è
ENCODING -24
SWIDTH 75 0
DWIDTH -1 0
BBX 12 17 0 1
BITMAP
1C00
0E00
0700
0000
3FC0
7FE0
FFF0
F0F0
E070
E070
FFF0
FFE0
E000
E000
F000
7FE0
3FC0
ENDCHAR
STARTCHAR é
ENCODING -23
SWIDTH 75 0
DWIDTH -1 0
BBX 12 17 0 1
BITMAP
0380
0700
0E00
0000
3FC0
7FE0
FFF0
F0F0
E070
E070
FFF0
FFE0
E000
E000
F000
7FE0
3FC0
ENDCHAR
STARTCHAR ê
ENCODING -22
SWIDTH 75 0
DWIDTH -1 0
BBX 12 17 0 1
BITMAP
1F80
39C0
70E0
0000
3FC0
7FE0
FFF0
F0F0
E070
E070
FFF0
FFE0
E000
E000
F000
7FE0
3FC0
ENDCHAR
STARTCHAR ë
ENCODING -21
SWIDTH 75 0
DWIDTH -1 0
BBX 12 17 0 1
BITMAP
39C0
39C0
39C0
0000
3FC0
7FE0
FFF0
F0F0
E070
E070
FFF0
FFE0
E000
E000
F000
7FE0
3FC0
ENDCHAR
STARTCHAR ì
ENCODING -20
SWIDTH 75 0
DWIDTH -1 0
BBX 8 17 0 1
BITMAP
70
38
1C
00
FC
FC
FC
3C
3C
3C
3C
3C
3C
3C
FF
FF
FF
ENDCHAR
STARTCHAR í
ENCODING -19
SWIDTH 75 0
DWIDTH -1 0
BBX 8 17 0 1
BITMAP
0E
1C
38
00
FC
FC
FC
3C
3C
3C
3C
3C
3C
3C
FF
FF
FF
ENDCHAR
STARTCHAR î
ENCODING -18
SWIDTH 75 0
DWIDTH -1 0
BBX 8 17 0 1
BITMAP
3C
66
C3
00
FC
FC
FC
3C
3C
3C
3C
3C
3C
3C
FF
FF
FF
ENDCHAR
STARTCHAR ï
ENCODING -17
SWIDTH 75 0
DWIDTH -1 0
BBX 8 17 0 1
BITMAP
E7
E7
E7
00
FC
FC
FC
3C
3C
3C
3C
3C
3C
3C
FF
FF
FF
ENDCHAR
STARTCHAR ð
ENCODING -16
SWIDTH 75 0
DWIDTH -1 0
BBX 12 17 0 1
BITMAP
1B00
0E00
1B10
0100
1F80
3FC0
7FE0
F0F0
E070
E070
E070
E070
E070
F0F0
7FE0
3FC0
1F80
ENDCHAR
STARTCHAR ñ
ENCODING -15
SWIDTH 75 0
DWIDTH -1 0
BBX 11 17 0 1
BITMAP
78E0
EDC0
C780
0000
F700
FF80
FBC0
F1E0
F1E0
F1E0
F1E0
F1E0
F1E0
F1E0
F1E0
F1E0
F1E0
ENDCHAR
STARTCHAR ò
ENCODING -14
SWIDTH 75 0
DWIDTH -1 0
BBX 12 17 0 1
BITMAP
1C00
0E00
0700
0000
1F80
3FC0
7FE0
F0F0
E070
E070
E070
E070
E070
F0F0
7FE0
3FC0
1F80
ENDCHAR
STARTCHAR ó
ENCODING -13
SWIDTH 75 0
DWIDTH -1 0
BBX 12 17 0 1
BITMAP
0380
0700
0E00
0000
1F80
3FC0
7FE0
F0F0
E070
E070
E070
E070
E070
F0F0
7FE0
3FC0
1F80
ENDCHAR
STARTCHAR ô
ENCODING -12
SWIDTH 75 0
DWIDTH -1 0
BBX 12 17 0 1
BITMAP
1F80
39C0
70E0
0000
1F80
3FC0
7FE0
F0F0
E070
E070
E070
E070
E070
F0F0
7FE0
3FC0
1F80
ENDCHAR
STARTCHAR õ
ENCODING -11
SWIDTH 75 0
DWIDTH -1 0
BBX 12 17 0 1
BITMAP
3C70
76E0
E3C0
0000
1F80
3FC0
7FE0
F0F0
E070
E070
E070
E070
E070
F0F0
7FE0
3FC0
1F80
ENDCHAR
STARTCHAR ö
ENCODING -10
SWIDTH 75 0
DWIDTH -1 0
BBX 12 17 0 1
BITMAP
39C0
39C0
39C0
0000
1F80
3FC0
7FE0
F0F0
E070
E070
E070
E070
E070
F0F0
7FE0
3FC0
1F80
ENDCHAR
STARTCHAR ÷
ENCODING -9
SWIDTH 75 0
DWIDTH -1 0
BBX 11 11 0 3
BITMAP
0E00
0E00
0E00
0000
FFE0
FFE0
FFE0
0000
0E00
0E00
0E00
ENDCHAR
STARTCHAR ø
ENCODING -8
SWIDTH 75 0
DWIDTH -1 0
BBX 12 15 0 0
BITMAP
0100
1F80
3FC0
7FE0
F2F0
E270
E270
E670
E470
E470
F4F0
7FE0
3FC0
1F80
0800
ENDCHAR
STARTCHAR ù
ENCODING -7
SWIDTH 75 0
DWIDTH -1 0
BBX 12 17 0 1
BITMAP
1C00
0E00
0700
0000
F0F0
F0F0
F0F0
F0F0
F0F0
F0F0
F0F0
F0F0
F0F0
F0F0
F9F0
7FF0
3F70
ENDCHAR
STARTCHAR ú
ENCODING -6
SWIDTH 75 0
DWIDTH -1 0
BBX 12 17 0 1
BITMAP
0380
0700
0E00
0000
F0F0
F0F0
F0F0
F0F0
F0F0
F0F0
F0F0
F0F0
F0F0
F0F0
F9F0
7FF0
3F70
ENDCHAR
STARTCHAR û
ENCODING -5
SWIDTH 75 0
DWIDTH -1 0
BBX 12 17 0 1
BITMAP
1F80
39C0
70E0
0000
F0F0
F0F0
F0F0
F0F0
F0F0
F0F0
F0F0
F0F0
F0F0
F0F0
F9F0
7FF0
3F70
ENDCHAR
STARTCHAR ü
ENCODING -4
SWIDTH 75 0
DWIDTH -1 0
BBX 12 17 0 1
BITMAP
39C0
39C0
39C0
0000
F0F0
F0F0
F0F0
F0F0
F0F0
F0F0
F0F0
F0F0
F0F0
F0F0
F9F0
7FF0
3F70
ENDCHAR
STARTCHAR ý
ENCODING -3
SWIDTH 75 0
DWIDTH -1 0
BBX 12 18 0 0
BITMAP
0380
0700
0E00
0000
F0F0
F0F0
F0F0
F0F0
F0F0
FFF0
7FF0
3FF0
00F0
00F0
00F0
7FE0
7FC0
7F80
ENDCHAR
STARTCHAR þ
ENCODING -2
SWIDTH 75 0
DWIDTH -1 0
BBX 12 22 0 1
BITMAP
F000
F000
F000
F000
F000
F700
FFC0
FFE0
FFE0
F9F0
F0F0
F0F0
F9F0
FFE0
FFE0
FFC0
F700
F000
F000
F000
F000
F000
ENDCHAR
STARTCHAR ÿ
ENCODING -1
SWIDTH 75 0
DWIDTH -1 0
BBX 12 19 0 0
BITMAP
70E0
70E0
70E0
0000
0000
F0F0
F0F0
F0F0
F0F0
F0F0
FFF0
7FF0
3FF0
00F0
00F0
00F0
7FE0
7FC0
7F80
ENDCHAR
ENDFONT
