STARTFONT 2.1
COMMENT Lumiplan font build using LumiStudio
FONT Duhamel 10/08 4-Bold
SIZE 10 75 75
FONTBOUNDINGBOX 7 10 0 0
STARTPROPERTIES 1
Copyright "Copyright (c) 2021 Lumiplan"
ENDPROPERTIES
CHARS 189
STARTCHAR 
ENCODING 14
SWIDTH 75 0
DWIDTH -1 0
BBX 0 0 1 9
ENDCHAR
STARTCHAR  
ENCODING 32
SWIDTH 75 0
DWIDTH -1 0
BBX 0 0 2 9
ENDCHAR
STARTCHAR !
ENCODING 33
SWIDTH 75 0
DWIDTH -1 0
BBX 2 8 0 1
BITMAP
C0
C0
C0
C0
C0
00
C0
C0
ENDCHAR
STARTCHAR "
ENCODING 34
SWIDTH 75 0
DWIDTH -1 0
BBX 7 3 0 6
BITMAP
66
66
88
ENDCHAR
STARTCHAR #
ENCODING 35
SWIDTH 75 0
DWIDTH -1 0
BBX 7 8 0 1
BITMAP
6C
FE
FE
6C
6C
FE
FE
6C
ENDCHAR
STARTCHAR $
ENCODING 36
SWIDTH 75 0
DWIDTH -1 0
BBX 7 8 0 1
BITMAP
10
7C
FE
D0
7E
16
FC
10
ENDCHAR
STARTCHAR %
ENCODING 37
SWIDTH 75 0
DWIDTH -1 0
BBX 7 8 0 1
BITMAP
C2
C6
0C
18
30
60
C6
86
ENDCHAR
STARTCHAR &
ENCODING 38
SWIDTH 75 0
DWIDTH -1 0
BBX 7 8 0 1
BITMAP
38
7C
6C
38
6C
C6
FC
7A
ENDCHAR
STARTCHAR '
ENCODING 39
SWIDTH 75 0
DWIDTH -1 0
BBX 3 3 0 6
BITMAP
60
60
80
ENDCHAR
STARTCHAR (
ENCODING 40
SWIDTH 75 0
DWIDTH -1 0
BBX 3 8 0 1
BITMAP
60
E0
C0
C0
C0
C0
E0
60
ENDCHAR
STARTCHAR )
ENCODING 41
SWIDTH 75 0
DWIDTH -1 0
BBX 3 8 0 1
BITMAP
C0
E0
60
60
60
60
E0
C0
ENDCHAR
STARTCHAR *
ENCODING 42
SWIDTH 75 0
DWIDTH -1 0
BBX 5 5 0 4
BITMAP
A8
70
F8
70
A8
ENDCHAR
STARTCHAR +
ENCODING 43
SWIDTH 75 0
DWIDTH -1 0
BBX 6 6 0 3
BITMAP
30
30
FC
FC
30
30
ENDCHAR
STARTCHAR ,
ENCODING 44
SWIDTH 75 0
DWIDTH -1 0
BBX 3 3 0 1
BITMAP
60
60
80
ENDCHAR
STARTCHAR -
ENCODING 45
SWIDTH 75 0
DWIDTH -1 0
BBX 4 2 0 4
BITMAP
F0
F0
ENDCHAR
STARTCHAR .
ENCODING 46
SWIDTH 75 0
DWIDTH -1 0
BBX 2 2 0 1
BITMAP
C0
C0
ENDCHAR
STARTCHAR /
ENCODING 47
SWIDTH 75 0
DWIDTH -1 0
BBX 7 8 0 1
BITMAP
02
06
0C
18
30
60
C0
80
ENDCHAR
STARTCHAR 0
ENCODING 48
SWIDTH 75 0
DWIDTH -1 0
BBX 6 8 0 1
BITMAP
78
FC
CC
CC
CC
CC
FC
78
ENDCHAR
STARTCHAR 1
ENCODING 49
SWIDTH 75 0
DWIDTH -1 0
BBX 4 8 0 1
BITMAP
30
70
F0
30
30
30
30
30
ENDCHAR
STARTCHAR 2
ENCODING 50
SWIDTH 75 0
DWIDTH -1 0
BBX 6 8 0 1
BITMAP
78
FC
CC
18
30
60
FC
FC
ENDCHAR
STARTCHAR 3
ENCODING 51
SWIDTH 75 0
DWIDTH -1 0
BBX 6 8 0 1
BITMAP
F8
FC
0C
7C
7C
0C
FC
F8
ENDCHAR
STARTCHAR 4
ENCODING 52
SWIDTH 75 0
DWIDTH -1 0
BBX 7 8 0 1
BITMAP
0C
1C
3C
6C
CC
FE
FE
0C
ENDCHAR
STARTCHAR 5
ENCODING 53
SWIDTH 75 0
DWIDTH -1 0
BBX 6 8 0 1
BITMAP
FC
FC
C0
F8
FC
0C
FC
F8
ENDCHAR
STARTCHAR 6
ENCODING 54
SWIDTH 75 0
DWIDTH -1 0
BBX 6 8 0 1
BITMAP
78
F8
C0
F8
FC
CC
FC
78
ENDCHAR
STARTCHAR 7
ENCODING 55
SWIDTH 75 0
DWIDTH -1 0
BBX 6 8 0 1
BITMAP
FC
FC
0C
18
30
30
30
30
ENDCHAR
STARTCHAR 8
ENCODING 56
SWIDTH 75 0
DWIDTH -1 0
BBX 6 8 0 1
BITMAP
78
FC
CC
78
FC
CC
FC
78
ENDCHAR
STARTCHAR 9
ENCODING 57
SWIDTH 75 0
DWIDTH -1 0
BBX 6 8 0 1
BITMAP
78
FC
CC
FC
7C
0C
7C
78
ENDCHAR
STARTCHAR :
ENCODING 58
SWIDTH 75 0
DWIDTH -1 0
BBX 2 6 0 1
BITMAP
C0
C0
00
00
C0
C0
ENDCHAR
STARTCHAR ;
ENCODING 59
SWIDTH 75 0
DWIDTH -1 0
BBX 3 6 0 1
BITMAP
60
60
00
60
60
80
ENDCHAR
STARTCHAR <
ENCODING 60
SWIDTH 75 0
DWIDTH -1 0
BBX 5 8 0 1
BITMAP
18
38
70
E0
E0
70
38
18
ENDCHAR
STARTCHAR =
ENCODING 61
SWIDTH 75 0
DWIDTH -1 0
BBX 5 5 0 1
BITMAP
F8
F8
00
F8
F8
ENDCHAR
STARTCHAR >
ENCODING 62
SWIDTH 75 0
DWIDTH -1 0
BBX 5 8 0 1
BITMAP
C0
E0
70
38
38
70
E0
C0
ENDCHAR
STARTCHAR ?
ENCODING 63
SWIDTH 75 0
DWIDTH -1 0
BBX 6 8 0 1
BITMAP
78
FC
CC
18
30
30
00
30
ENDCHAR
STARTCHAR @
ENCODING 64
SWIDTH 75 0
DWIDTH -1 0
BBX 7 8 0 1
BITMAP
7C
FE
C6
DC
D8
C0
FE
7C
ENDCHAR
STARTCHAR A
ENCODING 65
SWIDTH 75 0
DWIDTH -1 0
BBX 6 8 0 1
BITMAP
78
FC
CC
FC
FC
CC
CC
CC
ENDCHAR
STARTCHAR B
ENCODING 66
SWIDTH 75 0
DWIDTH -1 0
BBX 7 8 0 1
BITMAP
FC
FE
C6
FC
FC
C6
FE
FC
ENDCHAR
STARTCHAR C
ENCODING 67
SWIDTH 75 0
DWIDTH -1 0
BBX 7 8 0 1
BITMAP
7C
FE
C6
C0
C0
C6
FE
7C
ENDCHAR
STARTCHAR D
ENCODING 68
SWIDTH 75 0
DWIDTH -1 0
BBX 7 8 0 1
BITMAP
F8
FC
CE
C6
C6
CE
FC
F8
ENDCHAR
STARTCHAR E
ENCODING 69
SWIDTH 75 0
DWIDTH -1 0
BBX 6 8 0 1
BITMAP
FC
FC
C0
F8
F8
C0
FC
FC
ENDCHAR
STARTCHAR F
ENCODING 70
SWIDTH 75 0
DWIDTH -1 0
BBX 6 8 0 1
BITMAP
FC
FC
C0
F8
F8
C0
C0
C0
ENDCHAR
STARTCHAR G
ENCODING 71
SWIDTH 75 0
DWIDTH -1 0
BBX 7 8 0 1
BITMAP
7C
FE
C6
C0
DE
C6
FE
7C
ENDCHAR
STARTCHAR H
ENCODING 72
SWIDTH 75 0
DWIDTH -1 0
BBX 7 8 0 1
BITMAP
C6
C6
C6
FE
FE
C6
C6
C6
ENDCHAR
STARTCHAR I
ENCODING 73
SWIDTH 75 0
DWIDTH -1 0
BBX 2 8 0 1
BITMAP
C0
C0
C0
C0
C0
C0
C0
C0
ENDCHAR
STARTCHAR J
ENCODING 74
SWIDTH 75 0
DWIDTH -1 0
BBX 6 8 0 1
BITMAP
0C
0C
0C
0C
0C
CC
FC
78
ENDCHAR
STARTCHAR K
ENCODING 75
SWIDTH 75 0
DWIDTH -1 0
BBX 7 8 0 1
BITMAP
C6
CE
DC
F8
F8
DC
CE
C6
ENDCHAR
STARTCHAR L
ENCODING 76
SWIDTH 75 0
DWIDTH -1 0
BBX 6 8 0 1
BITMAP
C0
C0
C0
C0
C0
C0
FC
FC
ENDCHAR
STARTCHAR M
ENCODING 77
SWIDTH 75 0
DWIDTH -1 0
BBX 7 8 0 1
BITMAP
82
C6
EE
D6
C6
C6
C6
C6
ENDCHAR
STARTCHAR N
ENCODING 78
SWIDTH 75 0
DWIDTH -1 0
BBX 7 8 0 1
BITMAP
C6
E6
D6
CE
C6
C6
C6
C6
ENDCHAR
STARTCHAR O
ENCODING 79
SWIDTH 75 0
DWIDTH -1 0
BBX 7 8 0 1
BITMAP
7C
FE
C6
C6
C6
C6
FE
7C
ENDCHAR
STARTCHAR P
ENCODING 80
SWIDTH 75 0
DWIDTH -1 0
BBX 7 8 0 1
BITMAP
FC
FE
C6
FE
FC
C0
C0
C0
ENDCHAR
STARTCHAR Q
ENCODING 81
SWIDTH 75 0
DWIDTH -1 0
BBX 7 8 0 1
BITMAP
7C
FE
C6
C6
D6
CE
FC
7A
ENDCHAR
STARTCHAR R
ENCODING 82
SWIDTH 75 0
DWIDTH -1 0
BBX 7 8 0 1
BITMAP
FC
FE
C6
FE
FC
CC
C6
C6
ENDCHAR
STARTCHAR S
ENCODING 83
SWIDTH 75 0
DWIDTH -1 0
BBX 7 8 0 1
BITMAP
7C
FE
C0
FC
7E
06
FE
7C
ENDCHAR
STARTCHAR T
ENCODING 84
SWIDTH 75 0
DWIDTH -1 0
BBX 6 8 0 1
BITMAP
FC
FC
30
30
30
30
30
30
ENDCHAR
STARTCHAR U
ENCODING 85
SWIDTH 75 0
DWIDTH -1 0
BBX 7 8 0 1
BITMAP
C6
C6
C6
C6
C6
C6
FE
7C
ENDCHAR
STARTCHAR V
ENCODING 86
SWIDTH 75 0
DWIDTH -1 0
BBX 7 8 0 1
BITMAP
C6
C6
C6
C6
C6
6C
38
10
ENDCHAR
STARTCHAR W
ENCODING 87
SWIDTH 75 0
DWIDTH -1 0
BBX 7 8 0 1
BITMAP
C6
C6
C6
C6
D6
EE
C6
82
ENDCHAR
STARTCHAR X
ENCODING 88
SWIDTH 75 0
DWIDTH -1 0
BBX 7 8 0 1
BITMAP
82
C6
6C
38
38
6C
C6
82
ENDCHAR
STARTCHAR Y
ENCODING 89
SWIDTH 75 0
DWIDTH -1 0
BBX 6 8 0 1
BITMAP
CC
CC
CC
FC
78
30
30
30
ENDCHAR
STARTCHAR Z
ENCODING 90
SWIDTH 75 0
DWIDTH -1 0
BBX 7 8 0 1
BITMAP
FE
FE
0C
18
30
60
FE
FE
ENDCHAR
STARTCHAR [
ENCODING 91
SWIDTH 75 0
DWIDTH -1 0
BBX 4 8 0 1
BITMAP
F0
F0
C0
C0
C0
C0
F0
F0
ENDCHAR
STARTCHAR \
ENCODING 92
SWIDTH 75 0
DWIDTH -1 0
BBX 7 8 0 1
BITMAP
80
C0
60
30
18
0C
06
02
ENDCHAR
STARTCHAR ]
ENCODING 93
SWIDTH 75 0
DWIDTH -1 0
BBX 4 8 0 1
BITMAP
F0
F0
30
30
30
30
F0
F0
ENDCHAR
STARTCHAR ^
ENCODING 94
SWIDTH 75 0
DWIDTH -1 0
BBX 6 3 0 6
BITMAP
30
78
CC
ENDCHAR
STARTCHAR _
ENCODING 95
SWIDTH 75 0
DWIDTH -1 0
BBX 5 2 0 1
BITMAP
F8
F8
ENDCHAR
STARTCHAR `
ENCODING 96
SWIDTH 75 0
DWIDTH -1 0
BBX 3 3 0 6
BITMAP
C0
C0
20
ENDCHAR
STARTCHAR a
ENCODING 97
SWIDTH 75 0
DWIDTH -1 0
BBX 6 6 0 1
BITMAP
78
0C
7C
CC
CC
7C
ENDCHAR
STARTCHAR b
ENCODING 98
SWIDTH 75 0
DWIDTH -1 0
BBX 6 8 0 1
BITMAP
C0
C0
D8
FC
CC
CC
FC
D8
ENDCHAR
STARTCHAR c
ENCODING 99
SWIDTH 75 0
DWIDTH -1 0
BBX 6 6 0 1
BITMAP
78
CC
C0
C0
CC
78
ENDCHAR
STARTCHAR d
ENCODING 100
SWIDTH 75 0
DWIDTH -1 0
BBX 6 8 0 1
BITMAP
0C
0C
6C
FC
CC
CC
FC
6C
ENDCHAR
STARTCHAR e
ENCODING 101
SWIDTH 75 0
DWIDTH -1 0
BBX 6 6 0 1
BITMAP
78
CC
FC
C0
CC
78
ENDCHAR
STARTCHAR f
ENCODING 102
SWIDTH 75 0
DWIDTH -1 0
BBX 7 8 0 1
BITMAP
3C
7E
66
F0
F0
60
60
60
ENDCHAR
STARTCHAR g
ENCODING 103
SWIDTH 75 0
DWIDTH -1 0
BBX 6 7 0 0
BITMAP
6C
FC
CC
FC
6C
0C
78
ENDCHAR
STARTCHAR h
ENCODING 104
SWIDTH 75 0
DWIDTH -1 0
BBX 7 8 0 1
BITMAP
C0
C0
DC
FE
E6
C6
C6
C6
ENDCHAR
STARTCHAR i
ENCODING 105
SWIDTH 75 0
DWIDTH -1 0
BBX 2 8 0 1
BITMAP
C0
00
C0
C0
C0
C0
C0
C0
ENDCHAR
STARTCHAR j
ENCODING 106
SWIDTH 75 0
DWIDTH -1 0
BBX 6 9 0 0
BITMAP
0C
00
0C
0C
0C
0C
CC
FC
78
ENDCHAR
STARTCHAR k
ENCODING 107
SWIDTH 75 0
DWIDTH -1 0
BBX 6 8 0 1
BITMAP
C0
C0
CC
DC
F8
F8
DC
CC
ENDCHAR
STARTCHAR l
ENCODING 108
SWIDTH 75 0
DWIDTH -1 0
BBX 2 8 0 1
BITMAP
C0
C0
C0
C0
C0
C0
C0
C0
ENDCHAR
STARTCHAR m
ENCODING 109
SWIDTH 75 0
DWIDTH -1 0
BBX 7 6 0 1
BITMAP
AC
D6
D6
D6
D6
D6
ENDCHAR
STARTCHAR n
ENCODING 110
SWIDTH 75 0
DWIDTH -1 0
BBX 7 6 0 1
BITMAP
DC
FE
E6
C6
C6
C6
ENDCHAR
STARTCHAR o
ENCODING 111
SWIDTH 75 0
DWIDTH -1 0
BBX 6 6 0 1
BITMAP
78
FC
CC
CC
FC
78
ENDCHAR
STARTCHAR p
ENCODING 112
SWIDTH 75 0
DWIDTH -1 0
BBX 6 7 0 0
BITMAP
D8
FC
CC
FC
D8
C0
C0
ENDCHAR
STARTCHAR q
ENCODING 113
SWIDTH 75 0
DWIDTH -1 0
BBX 6 7 0 0
BITMAP
6C
FC
CC
FC
6C
0C
0C
ENDCHAR
STARTCHAR r
ENCODING 114
SWIDTH 75 0
DWIDTH -1 0
BBX 7 6 0 1
BITMAP
DC
FE
E6
C0
C0
C0
ENDCHAR
STARTCHAR s
ENCODING 115
SWIDTH 75 0
DWIDTH -1 0
BBX 6 6 0 1
BITMAP
78
C0
F8
7C
0C
F8
ENDCHAR
STARTCHAR t
ENCODING 116
SWIDTH 75 0
DWIDTH -1 0
BBX 7 8 0 1
BITMAP
60
60
F0
F0
60
66
7E
3C
ENDCHAR
STARTCHAR u
ENCODING 117
SWIDTH 75 0
DWIDTH -1 0
BBX 7 6 0 1
BITMAP
C6
C6
C6
CE
FE
76
ENDCHAR
STARTCHAR v
ENCODING 118
SWIDTH 75 0
DWIDTH -1 0
BBX 7 6 0 1
BITMAP
C6
C6
C6
6C
38
10
ENDCHAR
STARTCHAR w
ENCODING 119
SWIDTH 75 0
DWIDTH -1 0
BBX 7 6 0 1
BITMAP
C6
C6
C6
C6
D6
6C
ENDCHAR
STARTCHAR x
ENCODING 120
SWIDTH 75 0
DWIDTH -1 0
BBX 6 6 0 1
BITMAP
CC
FC
78
78
FC
CC
ENDCHAR
STARTCHAR y
ENCODING 121
SWIDTH 75 0
DWIDTH -1 0
BBX 7 7 0 0
BITMAP
C6
C6
CE
FE
76
06
7C
ENDCHAR
STARTCHAR z
ENCODING 122
SWIDTH 75 0
DWIDTH -1 0
BBX 6 6 0 1
BITMAP
FC
FC
18
30
FC
FC
ENDCHAR
STARTCHAR {
ENCODING 123
SWIDTH 75 0
DWIDTH -1 0
BBX 4 8 0 1
BITMAP
30
60
60
C0
C0
60
60
30
ENDCHAR
STARTCHAR |
ENCODING 124
SWIDTH 75 0
DWIDTH -1 0
BBX 2 8 0 1
BITMAP
C0
C0
C0
C0
C0
C0
C0
C0
ENDCHAR
STARTCHAR }
ENCODING 125
SWIDTH 75 0
DWIDTH -1 0
BBX 4 8 0 1
BITMAP
C0
60
60
30
30
60
60
C0
ENDCHAR
STARTCHAR ~
ENCODING 126
SWIDTH 75 0
DWIDTH -1 0
BBX 6 2 0 4
BITMAP
64
98
ENDCHAR
STARTCHAR ¤
ENCODING -92
SWIDTH 75 0
DWIDTH -1 0
BBX 7 7 0 1
BITMAP
3C
66
F8
60
F8
66
3C
ENDCHAR
STARTCHAR ¦
ENCODING -90
SWIDTH 75 0
DWIDTH -1 0
BBX 7 9 0 1
BITMAP
28
10
7C
FE
C0
7C
06
FE
7C
ENDCHAR
STARTCHAR ¼
ENCODING -68
SWIDTH 75 0
DWIDTH -1 0
BBX 7 8 0 1
BITMAP
7E
FE
D8
DE
DE
D8
FE
7E
ENDCHAR
STARTCHAR ´
ENCODING -76
SWIDTH 75 0
DWIDTH -1 0
BBX 7 9 0 1
BITMAP
28
10
00
FE
FC
18
30
7E
FE
ENDCHAR
STARTCHAR ¨
ENCODING -88
SWIDTH 75 0
DWIDTH -1 0
BBX 6 9 0 1
BITMAP
50
20
00
78
C0
F8
7C
0C
F8
ENDCHAR
STARTCHAR ½
ENCODING -67
SWIDTH 75 0
DWIDTH -1 0
BBX 7 6 0 1
BITMAP
6C
FE
DA
DC
F8
6E
ENDCHAR
STARTCHAR ¸
ENCODING -72
SWIDTH 75 0
DWIDTH -1 0
BBX 6 8 0 1
BITMAP
50
20
FC
FC
18
30
7C
FC
ENDCHAR
STARTCHAR ¾
ENCODING -66
SWIDTH 75 0
DWIDTH -1 0
BBX 6 9 0 1
BITMAP
CC
CC
00
CC
CC
FC
78
30
30
ENDCHAR
STARTCHAR ¡
ENCODING -95
SWIDTH 75 0
DWIDTH -1 0
BBX 2 8 0 1
BITMAP
C0
C0
00
C0
C0
C0
C0
C0
ENDCHAR
STARTCHAR ¢
ENCODING -94
SWIDTH 75 0
DWIDTH -1 0
BBX 6 8 0 1
BITMAP
08
78
FC
D0
D0
FC
78
20
ENDCHAR
STARTCHAR £
ENCODING -93
SWIDTH 75 0
DWIDTH -1 0
BBX 6 8 0 1
BITMAP
78
FC
CC
60
F0
60
FC
FC
ENDCHAR
STARTCHAR ¥
ENCODING -91
SWIDTH 75 0
DWIDTH -1 0
BBX 6 8 0 1
BITMAP
CC
CC
CC
FC
78
30
78
30
ENDCHAR
STARTCHAR §
ENCODING -89
SWIDTH 75 0
DWIDTH -1 0
BBX 4 7 0 1
BITMAP
70
80
60
90
60
10
E0
ENDCHAR
STARTCHAR ©
ENCODING -87
SWIDTH 75 0
DWIDTH -1 0
BBX 7 8 0 1
BITMAP
7C
82
9A
A2
A2
9A
82
7C
ENDCHAR
STARTCHAR ª
ENCODING -86
SWIDTH 75 0
DWIDTH -1 0
BBX 3 5 0 4
BITMAP
40
20
60
A0
60
ENDCHAR
STARTCHAR «
ENCODING -85
SWIDTH 75 0
DWIDTH -1 0
BBX 7 5 0 3
BITMAP
36
6C
D8
6C
36
ENDCHAR
STARTCHAR ¬
ENCODING -84
SWIDTH 75 0
DWIDTH -1 0
BBX 6 4 0 4
BITMAP
FC
FC
0C
0C
ENDCHAR
STARTCHAR ®
ENCODING -82
SWIDTH 75 0
DWIDTH -1 0
BBX 7 8 0 1
BITMAP
7C
82
BA
AA
B2
AA
82
7C
ENDCHAR
STARTCHAR ¯
ENCODING -81
SWIDTH 75 0
DWIDTH -1 0
BBX 6 2 0 7
BITMAP
FC
FC
ENDCHAR
STARTCHAR °
ENCODING -80
SWIDTH 75 0
DWIDTH -1 0
BBX 3 3 1 6
BITMAP
40
A0
40
ENDCHAR
STARTCHAR ±
ENCODING -79
SWIDTH 75 0
DWIDTH -1 0
BBX 4 7 0 1
BITMAP
60
F0
F0
60
00
F0
F0
ENDCHAR
STARTCHAR ²
ENCODING -78
SWIDTH 75 0
DWIDTH -1 0
BBX 3 5 0 4
BITMAP
C0
20
40
80
E0
ENDCHAR
STARTCHAR ³
ENCODING -77
SWIDTH 75 0
DWIDTH -1 0
BBX 3 5 0 4
BITMAP
C0
20
40
20
C0
ENDCHAR
STARTCHAR µ
ENCODING -75
SWIDTH 75 0
DWIDTH -1 0
BBX 7 7 0 0
BITMAP
C6
C6
CE
FE
F6
C6
C0
ENDCHAR
STARTCHAR ·
ENCODING -73
SWIDTH 75 0
DWIDTH -1 0
BBX 2 2 0 1
BITMAP
C0
C0
ENDCHAR
STARTCHAR ¹
ENCODING -71
SWIDTH 75 0
DWIDTH -1 0
BBX 2 4 0 5
BITMAP
40
C0
40
40
ENDCHAR
STARTCHAR º
ENCODING -70
SWIDTH 75 0
DWIDTH -1 0
BBX 4 4 0 5
BITMAP
60
90
90
60
ENDCHAR
STARTCHAR »
ENCODING -69
SWIDTH 75 0
DWIDTH -1 0
BBX 7 5 0 3
BITMAP
D8
6C
36
6C
D8
ENDCHAR
STARTCHAR ¿
ENCODING -65
SWIDTH 75 0
DWIDTH -1 0
BBX 6 8 0 1
BITMAP
30
00
30
30
60
CC
FC
78
ENDCHAR
STARTCHAR À
ENCODING -64
SWIDTH 75 0
DWIDTH -1 0
BBX 6 9 0 1
BITMAP
20
10
78
FC
CC
FC
CC
CC
CC
ENDCHAR
STARTCHAR Á
ENCODING -63
SWIDTH 75 0
DWIDTH -1 0
BBX 6 9 0 1
BITMAP
10
20
78
FC
CC
FC
CC
CC
CC
ENDCHAR
STARTCHAR Â
ENCODING -62
SWIDTH 75 0
DWIDTH -1 0
BBX 6 9 0 1
BITMAP
20
50
78
FC
CC
FC
CC
CC
CC
ENDCHAR
STARTCHAR Ã
ENCODING -61
SWIDTH 75 0
DWIDTH -1 0
BBX 6 9 0 1
BITMAP
64
98
78
FC
CC
FC
CC
CC
CC
ENDCHAR
STARTCHAR Ä
ENCODING -60
SWIDTH 75 0
DWIDTH -1 0
BBX 6 9 0 1
BITMAP
CC
CC
78
FC
CC
FC
CC
CC
CC
ENDCHAR
STARTCHAR Å
ENCODING -59
SWIDTH 75 0
DWIDTH -1 0
BBX 6 9 0 1
BITMAP
30
30
78
FC
CC
FC
CC
CC
CC
ENDCHAR
STARTCHAR Æ
ENCODING -58
SWIDTH 75 0
DWIDTH -1 0
BBX 7 8 0 1
BITMAP
7E
FE
D8
FC
FC
D8
DE
DE
ENDCHAR
STARTCHAR Ç
ENCODING -57
SWIDTH 75 0
DWIDTH -1 0
BBX 7 9 0 0
BITMAP
7C
FE
C0
C0
C0
FE
7C
10
38
ENDCHAR
STARTCHAR È
ENCODING -56
SWIDTH 75 0
DWIDTH -1 0
BBX 6 9 0 1
BITMAP
20
10
FC
FC
C0
F8
C0
FC
FC
ENDCHAR
STARTCHAR É
ENCODING -55
SWIDTH 75 0
DWIDTH -1 0
BBX 6 9 0 1
BITMAP
10
20
FC
FC
C0
F8
C0
FC
FC
ENDCHAR
STARTCHAR Ê
ENCODING -54
SWIDTH 75 0
DWIDTH -1 0
BBX 6 9 0 1
BITMAP
10
28
FC
FC
C0
F8
C0
FC
FC
ENDCHAR
STARTCHAR Ë
ENCODING -53
SWIDTH 75 0
DWIDTH -1 0
BBX 6 9 0 1
BITMAP
CC
CC
FC
FC
C0
F8
C0
FC
FC
ENDCHAR
STARTCHAR Ì
ENCODING -52
SWIDTH 75 0
DWIDTH -1 0
BBX 2 9 0 1
BITMAP
80
40
C0
C0
C0
C0
C0
C0
C0
ENDCHAR
STARTCHAR Í
ENCODING -51
SWIDTH 75 0
DWIDTH -1 0
BBX 2 9 0 1
BITMAP
40
80
C0
C0
C0
C0
C0
C0
C0
ENDCHAR
STARTCHAR Î
ENCODING -50
SWIDTH 75 0
DWIDTH -1 0
BBX 3 9 0 1
BITMAP
40
A0
C0
C0
C0
C0
C0
C0
C0
ENDCHAR
STARTCHAR Ï
ENCODING -49
SWIDTH 75 0
DWIDTH -1 0
BBX 6 9 0 1
BITMAP
CC
CC
30
30
30
30
30
30
30
ENDCHAR
STARTCHAR Ð
ENCODING -48
SWIDTH 75 0
DWIDTH -1 0
BBX 7 8 0 1
BITMAP
7C
7E
66
F6
66
66
7E
7C
ENDCHAR
STARTCHAR Ñ
ENCODING -47
SWIDTH 75 0
DWIDTH -1 0
BBX 7 9 0 1
BITMAP
64
98
C6
E6
D6
CE
CE
C6
C6
ENDCHAR
STARTCHAR Ò
ENCODING -46
SWIDTH 75 0
DWIDTH -1 0
BBX 6 9 0 1
BITMAP
20
10
78
FC
CC
CC
CC
FC
78
ENDCHAR
STARTCHAR Ó
ENCODING -45
SWIDTH 75 0
DWIDTH -1 0
BBX 6 9 0 1
BITMAP
10
20
78
FC
CC
CC
CC
FC
78
ENDCHAR
STARTCHAR Ô
ENCODING -44
SWIDTH 75 0
DWIDTH -1 0
BBX 6 9 0 1
BITMAP
20
50
78
FC
CC
CC
CC
FC
78
ENDCHAR
STARTCHAR Õ
ENCODING -43
SWIDTH 75 0
DWIDTH -1 0
BBX 6 9 0 1
BITMAP
64
98
78
FC
CC
CC
CC
FC
78
ENDCHAR
STARTCHAR Ö
ENCODING -42
SWIDTH 75 0
DWIDTH -1 0
BBX 6 9 0 1
BITMAP
CC
CC
78
FC
CC
CC
CC
FC
78
ENDCHAR
STARTCHAR ×
ENCODING -41
SWIDTH 75 0
DWIDTH -1 0
BBX 5 5 0 3
BITMAP
88
50
20
50
88
ENDCHAR
STARTCHAR Ø
ENCODING -40
SWIDTH 75 0
DWIDTH -1 0
BBX 7 8 0 1
BITMAP
10
7C
FE
D6
D6
FE
7C
10
ENDCHAR
STARTCHAR Ù
ENCODING -39
SWIDTH 75 0
DWIDTH -1 0
BBX 7 9 0 1
BITMAP
20
10
C6
C6
C6
C6
C6
FE
7C
ENDCHAR
STARTCHAR Ú
ENCODING -38
SWIDTH 75 0
DWIDTH -1 0
BBX 7 9 0 1
BITMAP
08
10
C6
C6
C6
C6
C6
FE
7C
ENDCHAR
STARTCHAR Û
ENCODING -37
SWIDTH 75 0
DWIDTH -1 0
BBX 7 9 0 1
BITMAP
10
28
C6
C6
C6
C6
C6
FE
7C
ENDCHAR
STARTCHAR Ü
ENCODING -36
SWIDTH 75 0
DWIDTH -1 0
BBX 7 9 0 1
BITMAP
6C
6C
C6
C6
C6
C6
C6
FE
7C
ENDCHAR
STARTCHAR Ý
ENCODING -35
SWIDTH 75 0
DWIDTH -1 0
BBX 6 9 0 1
BITMAP
10
20
CC
CC
CC
FC
78
30
30
ENDCHAR
STARTCHAR Þ
ENCODING -34
SWIDTH 75 0
DWIDTH -1 0
BBX 6 8 0 1
BITMAP
C0
F8
FC
CC
FC
F8
C0
C0
ENDCHAR
STARTCHAR ß
ENCODING -33
SWIDTH 75 0
DWIDTH -1 0
BBX 7 9 0 0
BITMAP
78
FC
CC
D8
CC
C6
DE
DC
C0
ENDCHAR
STARTCHAR à
ENCODING -32
SWIDTH 75 0
DWIDTH -1 0
BBX 6 9 0 1
BITMAP
20
10
00
78
0C
7C
CC
CC
7C
ENDCHAR
STARTCHAR á
ENCODING -31
SWIDTH 75 0
DWIDTH -1 0
BBX 6 9 0 1
BITMAP
10
20
00
78
0C
7C
CC
CC
7C
ENDCHAR
STARTCHAR â
ENCODING -30
SWIDTH 75 0
DWIDTH -1 0
BBX 6 9 0 1
BITMAP
10
28
00
78
0C
7C
CC
CC
7C
ENDCHAR
STARTCHAR ã
ENCODING -29
SWIDTH 75 0
DWIDTH -1 0
BBX 6 9 0 1
BITMAP
24
58
00
78
0C
7C
CC
CC
7C
ENDCHAR
STARTCHAR ä
ENCODING -28
SWIDTH 75 0
DWIDTH -1 0
BBX 6 9 0 1
BITMAP
D8
D8
00
78
0C
7C
CC
CC
7C
ENDCHAR
STARTCHAR å
ENCODING -27
SWIDTH 75 0
DWIDTH -1 0
BBX 6 9 0 1
BITMAP
28
10
00
78
0C
7C
CC
CC
7C
ENDCHAR
STARTCHAR æ
ENCODING -26
SWIDTH 75 0
DWIDTH -1 0
BBX 7 6 0 1
BITMAP
6C
16
7E
D0
D2
6C
ENDCHAR
STARTCHAR ç
ENCODING -25
SWIDTH 75 0
DWIDTH -1 0
BBX 6 7 0 0
BITMAP
78
CC
C0
C0
CC
78
E0
ENDCHAR
STARTCHAR è
ENCODING -24
SWIDTH 75 0
DWIDTH -1 0
BBX 6 9 0 1
BITMAP
20
10
00
78
CC
FC
C0
CC
78
ENDCHAR
STARTCHAR é
ENCODING -23
SWIDTH 75 0
DWIDTH -1 0
BBX 6 9 0 1
BITMAP
10
20
00
78
CC
FC
C0
CC
78
ENDCHAR
STARTCHAR ê
ENCODING -22
SWIDTH 75 0
DWIDTH -1 0
BBX 6 9 0 1
BITMAP
10
28
00
78
CC
FC
C0
CC
78
ENDCHAR
STARTCHAR ë
ENCODING -21
SWIDTH 75 0
DWIDTH -1 0
BBX 6 9 0 1
BITMAP
CC
CC
00
78
CC
FC
C0
CC
78
ENDCHAR
STARTCHAR ì
ENCODING -20
SWIDTH 75 0
DWIDTH -1 0
BBX 2 9 0 1
BITMAP
80
40
00
C0
C0
C0
C0
C0
C0
ENDCHAR
STARTCHAR í
ENCODING -19
SWIDTH 75 0
DWIDTH -1 0
BBX 2 9 0 1
BITMAP
40
80
00
C0
C0
C0
C0
C0
C0
ENDCHAR
STARTCHAR î
ENCODING -18
SWIDTH 75 0
DWIDTH -1 0
BBX 3 9 0 1
BITMAP
40
A0
00
C0
C0
C0
C0
C0
C0
ENDCHAR
STARTCHAR ï
ENCODING -17
SWIDTH 75 0
DWIDTH -1 0
BBX 6 9 0 1
BITMAP
CC
CC
00
30
30
30
30
30
30
ENDCHAR
STARTCHAR ð
ENCODING -16
SWIDTH 75 0
DWIDTH -1 0
BBX 6 9 0 1
BITMAP
90
60
90
10
78
FC
CC
FC
78
ENDCHAR
STARTCHAR ñ
ENCODING -15
SWIDTH 75 0
DWIDTH -1 0
BBX 7 9 0 1
BITMAP
24
58
00
DC
FE
E6
C6
C6
C6
ENDCHAR
STARTCHAR ò
ENCODING -14
SWIDTH 75 0
DWIDTH -1 0
BBX 6 9 0 1
BITMAP
20
10
00
78
FC
CC
CC
FC
78
ENDCHAR
STARTCHAR ó
ENCODING -13
SWIDTH 75 0
DWIDTH -1 0
BBX 6 9 0 1
BITMAP
08
10
00
78
FC
CC
CC
FC
78
ENDCHAR
STARTCHAR ô
ENCODING -12
SWIDTH 75 0
DWIDTH -1 0
BBX 6 9 0 1
BITMAP
10
28
00
78
FC
CC
CC
FC
78
ENDCHAR
STARTCHAR õ
ENCODING -11
SWIDTH 75 0
DWIDTH -1 0
BBX 6 9 0 1
BITMAP
24
58
00
78
FC
CC
CC
FC
78
ENDCHAR
STARTCHAR ö
ENCODING -10
SWIDTH 75 0
DWIDTH -1 0
BBX 6 9 0 1
BITMAP
CC
CC
00
78
FC
CC
CC
FC
78
ENDCHAR
STARTCHAR ÷
ENCODING -9
SWIDTH 75 0
DWIDTH -1 0
BBX 5 5 1 1
BITMAP
20
00
F8
00
20
ENDCHAR
STARTCHAR ø
ENCODING -8
SWIDTH 75 0
DWIDTH -1 0
BBX 7 8 0 0
BITMAP
10
7C
FE
D6
D6
FE
7C
10
ENDCHAR
STARTCHAR ù
ENCODING -7
SWIDTH 75 0
DWIDTH -1 0
BBX 7 9 0 1
BITMAP
20
10
00
C6
C6
C6
CE
FE
76
ENDCHAR
STARTCHAR ú
ENCODING -6
SWIDTH 75 0
DWIDTH -1 0
BBX 7 9 0 1
BITMAP
08
10
00
C6
C6
C6
CE
FE
76
ENDCHAR
STARTCHAR û
ENCODING -5
SWIDTH 75 0
DWIDTH -1 0
BBX 7 9 0 1
BITMAP
10
28
00
C6
C6
C6
CE
FE
76
ENDCHAR
STARTCHAR ü
ENCODING -4
SWIDTH 75 0
DWIDTH -1 0
BBX 7 9 0 1
BITMAP
C6
C6
00
C6
C6
C6
CE
FE
76
ENDCHAR
STARTCHAR ý
ENCODING -3
SWIDTH 75 0
DWIDTH -1 0
BBX 6 10 0 0
BITMAP
10
20
00
CC
CC
CC
FC
7C
0C
78
ENDCHAR
STARTCHAR þ
ENCODING -2
SWIDTH 75 0
DWIDTH -1 0
BBX 7 8 0 1
BITMAP
C0
FC
FE
C6
C6
FE
FC
C0
ENDCHAR
STARTCHAR ÿ
ENCODING -1
SWIDTH 75 0
DWIDTH -1 0
BBX 6 10 0 0
BITMAP
CC
CC
00
CC
CC
CC
FC
7C
0C
78
ENDCHAR
ENDFONT
