STARTFONT 2.1
COMMENT Lumiplan font build using LumiStudio
FONT Duhamel 16/14 1-UltraCondensed
SIZE 16 75 75
FONTBOUNDINGBOX 5 16 0 0
STARTPROPERTIES 1
Copyright "Copyright (c) 2021 Lumiplan"
ENDPROPERTIES
CHARS 189
STARTCHAR 
ENCODING 14
SWIDTH 75 0
DWIDTH -1 0
BBX 0 0 1 15
ENDCHAR
STARTCHAR  
ENCODING 32
SWIDTH 75 0
DWIDTH -1 0
BBX 0 0 2 15
ENDCHAR
STARTCHAR !
ENCODING 33
SWIDTH 75 0
DWIDTH -1 0
BBX 2 14 0 1
BITMAP
C0
C0
C0
C0
C0
C0
C0
C0
C0
C0
C0
00
C0
C0
ENDCHAR
STARTCHAR "
ENCODING 34
SWIDTH 75 0
DWIDTH -1 0
BBX 5 3 0 12
BITMAP
48
48
90
ENDCHAR
STARTCHAR #
ENCODING 35
SWIDTH 75 0
DWIDTH -1 0
BBX 5 8 0 4
BITMAP
50
F8
F8
50
50
F8
F8
50
ENDCHAR
STARTCHAR $
ENCODING 36
SWIDTH 75 0
DWIDTH -1 0
BBX 5 14 0 1
BITMAP
20
70
F8
A8
A0
A0
F0
78
28
28
A8
F8
70
20
ENDCHAR
STARTCHAR %
ENCODING 37
SWIDTH 75 0
DWIDTH -1 0
BBX 5 10 0 3
BITMAP
C8
C8
18
10
30
20
60
40
D8
98
ENDCHAR
STARTCHAR &
ENCODING 38
SWIDTH 75 0
DWIDTH -1 0
BBX 5 14 0 1
BITMAP
60
F0
90
90
90
60
60
60
90
90
90
98
90
68
ENDCHAR
STARTCHAR '
ENCODING 39
SWIDTH 75 0
DWIDTH -1 0
BBX 2 3 0 12
BITMAP
40
40
80
ENDCHAR
STARTCHAR (
ENCODING 40
SWIDTH 75 0
DWIDTH -1 0
BBX 3 14 0 1
BITMAP
60
E0
C0
C0
C0
C0
C0
C0
C0
C0
C0
C0
E0
60
ENDCHAR
STARTCHAR )
ENCODING 41
SWIDTH 75 0
DWIDTH -1 0
BBX 3 14 0 1
BITMAP
C0
E0
60
60
60
60
60
60
60
60
60
60
E0
C0
ENDCHAR
STARTCHAR *
ENCODING 42
SWIDTH 75 0
DWIDTH -1 0
BBX 5 8 0 4
BITMAP
20
A8
70
F8
F8
70
A8
20
ENDCHAR
STARTCHAR +
ENCODING 43
SWIDTH 75 0
DWIDTH -1 0
BBX 5 6 0 4
BITMAP
20
20
F8
F8
20
20
ENDCHAR
STARTCHAR ,
ENCODING 44
SWIDTH 75 0
DWIDTH -1 0
BBX 3 3 0 1
BITMAP
60
60
80
ENDCHAR
STARTCHAR -
ENCODING 45
SWIDTH 75 0
DWIDTH -1 0
BBX 4 2 0 6
BITMAP
F0
F0
ENDCHAR
STARTCHAR .
ENCODING 46
SWIDTH 75 0
DWIDTH -1 0
BBX 2 2 0 1
BITMAP
C0
C0
ENDCHAR
STARTCHAR /
ENCODING 47
SWIDTH 75 0
DWIDTH -1 0
BBX 5 14 0 1
BITMAP
18
18
18
30
30
30
30
60
60
60
60
C0
C0
C0
ENDCHAR
STARTCHAR 0
ENCODING 48
SWIDTH 75 0
DWIDTH -1 0
BBX 5 14 0 1
BITMAP
70
F8
D8
D8
D8
D8
D8
D8
D8
D8
D8
D8
F8
70
ENDCHAR
STARTCHAR 1
ENCODING 49
SWIDTH 75 0
DWIDTH -1 0
BBX 5 14 0 1
BITMAP
30
70
F0
F0
30
30
30
30
30
30
30
30
78
78
ENDCHAR
STARTCHAR 2
ENCODING 50
SWIDTH 75 0
DWIDTH -1 0
BBX 5 14 0 1
BITMAP
70
F8
D8
18
18
18
30
30
60
60
C0
C0
F8
F8
ENDCHAR
STARTCHAR 3
ENCODING 51
SWIDTH 75 0
DWIDTH -1 0
BBX 5 14 0 1
BITMAP
F8
F8
18
18
30
60
70
38
18
18
D8
D8
F8
70
ENDCHAR
STARTCHAR 4
ENCODING 52
SWIDTH 75 0
DWIDTH -1 0
BBX 5 14 0 1
BITMAP
08
18
38
78
F8
D8
D8
D8
F8
F8
18
18
18
18
ENDCHAR
STARTCHAR 5
ENCODING 53
SWIDTH 75 0
DWIDTH -1 0
BBX 5 14 0 1
BITMAP
F8
F8
C0
C0
C0
F0
F8
18
18
18
18
D8
F8
70
ENDCHAR
STARTCHAR 6
ENCODING 54
SWIDTH 75 0
DWIDTH -1 0
BBX 5 14 0 1
BITMAP
38
78
E0
C0
C0
C0
F0
F8
D8
D8
D8
D8
F8
70
ENDCHAR
STARTCHAR 7
ENCODING 55
SWIDTH 75 0
DWIDTH -1 0
BBX 5 14 0 1
BITMAP
F8
F8
18
18
18
18
30
60
60
60
60
60
60
60
ENDCHAR
STARTCHAR 8
ENCODING 56
SWIDTH 75 0
DWIDTH -1 0
BBX 5 14 0 1
BITMAP
70
F8
D8
D8
D8
D8
70
70
D8
D8
D8
D8
F8
70
ENDCHAR
STARTCHAR 9
ENCODING 57
SWIDTH 75 0
DWIDTH -1 0
BBX 5 14 0 1
BITMAP
70
F8
D8
D8
D8
D8
F8
78
18
18
18
38
F0
E0
ENDCHAR
STARTCHAR :
ENCODING 58
SWIDTH 75 0
DWIDTH -1 0
BBX 2 6 0 2
BITMAP
C0
C0
00
00
C0
C0
ENDCHAR
STARTCHAR ;
ENCODING 59
SWIDTH 75 0
DWIDTH -1 0
BBX 2 7 0 1
BITMAP
C0
C0
00
00
C0
C0
80
ENDCHAR
STARTCHAR <
ENCODING 60
SWIDTH 75 0
DWIDTH -1 0
BBX 5 11 0 2
BITMAP
08
18
30
60
C0
80
C0
60
30
18
08
ENDCHAR
STARTCHAR =
ENCODING 61
SWIDTH 75 0
DWIDTH -1 0
BBX 4 5 0 4
BITMAP
F0
F0
00
F0
F0
ENDCHAR
STARTCHAR >
ENCODING 62
SWIDTH 75 0
DWIDTH -1 0
BBX 5 11 0 2
BITMAP
80
C0
60
30
18
08
18
30
60
C0
80
ENDCHAR
STARTCHAR ?
ENCODING 63
SWIDTH 75 0
DWIDTH -1 0
BBX 5 14 0 1
BITMAP
70
F8
D8
D8
18
18
30
60
60
60
60
00
60
60
ENDCHAR
STARTCHAR @
ENCODING 64
SWIDTH 75 0
DWIDTH -1 0
BBX 5 14 0 1
BITMAP
70
F8
D8
D8
F8
F8
F8
D0
C0
C0
C0
C0
F8
78
ENDCHAR
STARTCHAR A
ENCODING 65
SWIDTH 75 0
DWIDTH -1 0
BBX 5 14 0 1
BITMAP
70
F8
D8
D8
D8
D8
D8
F8
F8
D8
D8
D8
D8
D8
ENDCHAR
STARTCHAR B
ENCODING 66
SWIDTH 75 0
DWIDTH -1 0
BBX 5 14 0 1
BITMAP
F0
F8
D8
D8
D8
D8
F0
F0
D8
D8
D8
D8
F8
F0
ENDCHAR
STARTCHAR C
ENCODING 67
SWIDTH 75 0
DWIDTH -1 0
BBX 5 14 0 1
BITMAP
70
F8
D8
C0
C0
C0
C0
C0
C0
C0
C0
D8
F8
70
ENDCHAR
STARTCHAR D
ENCODING 68
SWIDTH 75 0
DWIDTH -1 0
BBX 5 14 0 1
BITMAP
E0
F0
D8
D8
D8
D8
D8
D8
D8
D8
D8
D8
F0
E0
ENDCHAR
STARTCHAR E
ENCODING 69
SWIDTH 75 0
DWIDTH -1 0
BBX 5 14 0 1
BITMAP
F8
F8
C0
C0
C0
C0
F0
F0
C0
C0
C0
C0
F8
F8
ENDCHAR
STARTCHAR F
ENCODING 70
SWIDTH 75 0
DWIDTH -1 0
BBX 5 14 0 1
BITMAP
F8
F8
C0
C0
C0
C0
F0
F0
C0
C0
C0
C0
C0
C0
ENDCHAR
STARTCHAR G
ENCODING 71
SWIDTH 75 0
DWIDTH -1 0
BBX 5 14 0 1
BITMAP
70
F8
D8
D8
C0
C0
C0
F8
F8
D8
D8
D8
F8
70
ENDCHAR
STARTCHAR H
ENCODING 72
SWIDTH 75 0
DWIDTH -1 0
BBX 5 14 0 1
BITMAP
D8
D8
D8
D8
D8
D8
F8
F8
D8
D8
D8
D8
D8
D8
ENDCHAR
STARTCHAR I
ENCODING 73
SWIDTH 75 0
DWIDTH -1 0
BBX 4 14 0 1
BITMAP
F0
F0
60
60
60
60
60
60
60
60
60
60
F0
F0
ENDCHAR
STARTCHAR J
ENCODING 74
SWIDTH 75 0
DWIDTH -1 0
BBX 5 14 0 1
BITMAP
38
38
18
18
18
18
18
18
18
18
D8
D8
F8
70
ENDCHAR
STARTCHAR K
ENCODING 75
SWIDTH 75 0
DWIDTH -1 0
BBX 5 14 0 1
BITMAP
D8
D8
D8
D8
D8
F0
E0
C0
E0
F0
D8
D8
D8
D8
ENDCHAR
STARTCHAR L
ENCODING 76
SWIDTH 75 0
DWIDTH -1 0
BBX 5 14 0 1
BITMAP
C0
C0
C0
C0
C0
C0
C0
C0
C0
C0
C0
C0
F8
F8
ENDCHAR
STARTCHAR M
ENCODING 77
SWIDTH 75 0
DWIDTH -1 0
BBX 5 14 0 1
BITMAP
88
D8
F8
F8
D8
D8
D8
D8
D8
D8
D8
D8
D8
D8
ENDCHAR
STARTCHAR N
ENCODING 78
SWIDTH 75 0
DWIDTH -1 0
BBX 5 14 0 1
BITMAP
98
D8
F8
F8
D8
D8
D8
D8
D8
D8
D8
D8
D8
D8
ENDCHAR
STARTCHAR O
ENCODING 79
SWIDTH 75 0
DWIDTH -1 0
BBX 5 14 0 1
BITMAP
70
F8
D8
D8
D8
D8
D8
D8
D8
D8
D8
D8
F8
70
ENDCHAR
STARTCHAR P
ENCODING 80
SWIDTH 75 0
DWIDTH -1 0
BBX 5 14 0 1
BITMAP
F0
F8
D8
D8
D8
D8
F8
F0
C0
C0
C0
C0
C0
C0
ENDCHAR
STARTCHAR Q
ENCODING 81
SWIDTH 75 0
DWIDTH -1 0
BBX 5 14 0 1
BITMAP
70
F8
D8
D8
D8
D8
D8
D8
D8
D8
C8
F0
D8
68
ENDCHAR
STARTCHAR R
ENCODING 82
SWIDTH 75 0
DWIDTH -1 0
BBX 5 14 0 1
BITMAP
F0
F8
D8
D8
D8
D8
F0
F0
D8
D8
D8
D8
D8
D8
ENDCHAR
STARTCHAR S
ENCODING 83
SWIDTH 75 0
DWIDTH -1 0
BBX 5 14 0 1
BITMAP
70
F8
D8
C0
C0
C0
F0
78
18
18
18
D8
F8
70
ENDCHAR
STARTCHAR T
ENCODING 84
SWIDTH 75 0
DWIDTH -1 0
BBX 4 14 0 1
BITMAP
F0
F0
60
60
60
60
60
60
60
60
60
60
60
60
ENDCHAR
STARTCHAR U
ENCODING 85
SWIDTH 75 0
DWIDTH -1 0
BBX 5 14 0 1
BITMAP
D8
D8
D8
D8
D8
D8
D8
D8
D8
D8
D8
D8
F8
70
ENDCHAR
STARTCHAR V
ENCODING 86
SWIDTH 75 0
DWIDTH -1 0
BBX 5 14 0 1
BITMAP
D8
D8
D8
D8
D8
D8
D8
D8
D8
D8
D8
D8
70
20
ENDCHAR
STARTCHAR W
ENCODING 87
SWIDTH 75 0
DWIDTH -1 0
BBX 5 14 0 1
BITMAP
D8
D8
D8
D8
D8
D8
D8
D8
D8
D8
F8
F8
D8
88
ENDCHAR
STARTCHAR X
ENCODING 88
SWIDTH 75 0
DWIDTH -1 0
BBX 5 14 0 1
BITMAP
D8
D8
D8
D8
D8
50
70
70
50
D8
D8
D8
D8
D8
ENDCHAR
STARTCHAR Y
ENCODING 89
SWIDTH 75 0
DWIDTH -1 0
BBX 5 14 0 1
BITMAP
D8
D8
D8
D8
D8
D8
D8
70
20
20
20
20
20
20
ENDCHAR
STARTCHAR Z
ENCODING 90
SWIDTH 75 0
DWIDTH -1 0
BBX 5 14 0 1
BITMAP
F8
F8
18
18
18
30
30
60
60
C0
C0
C0
F8
F8
ENDCHAR
STARTCHAR [
ENCODING 91
SWIDTH 75 0
DWIDTH -1 0
BBX 3 14 0 1
BITMAP
E0
E0
C0
C0
C0
C0
C0
C0
C0
C0
C0
C0
E0
E0
ENDCHAR
STARTCHAR \
ENCODING 92
SWIDTH 75 0
DWIDTH -1 0
BBX 5 14 0 1
BITMAP
C0
C0
C0
60
60
60
60
30
30
30
30
18
18
18
ENDCHAR
STARTCHAR ]
ENCODING 93
SWIDTH 75 0
DWIDTH -1 0
BBX 3 14 0 1
BITMAP
E0
E0
60
60
60
60
60
60
60
60
60
60
E0
E0
ENDCHAR
STARTCHAR ^
ENCODING 94
SWIDTH 75 0
DWIDTH -1 0
BBX 5 4 0 11
BITMAP
20
70
D8
88
ENDCHAR
STARTCHAR _
ENCODING 95
SWIDTH 75 0
DWIDTH -1 0
BBX 4 2 0 1
BITMAP
F0
F0
ENDCHAR
STARTCHAR `
ENCODING 96
SWIDTH 75 0
DWIDTH -1 0
BBX 2 3 0 12
BITMAP
80
80
40
ENDCHAR
STARTCHAR a
ENCODING 97
SWIDTH 75 0
DWIDTH -1 0
BBX 5 9 0 1
BITMAP
70
78
18
78
F8
D8
D8
F8
78
ENDCHAR
STARTCHAR b
ENCODING 98
SWIDTH 75 0
DWIDTH -1 0
BBX 5 14 0 1
BITMAP
C0
C0
C0
C0
C0
F0
F8
D8
D8
D8
D8
D8
F8
F0
ENDCHAR
STARTCHAR c
ENCODING 99
SWIDTH 75 0
DWIDTH -1 0
BBX 5 9 0 1
BITMAP
70
F8
D8
C0
C0
C0
D8
F8
70
ENDCHAR
STARTCHAR d
ENCODING 100
SWIDTH 75 0
DWIDTH -1 0
BBX 5 14 0 1
BITMAP
18
18
18
18
18
78
F8
D8
D8
D8
D8
D8
F8
78
ENDCHAR
STARTCHAR e
ENCODING 101
SWIDTH 75 0
DWIDTH -1 0
BBX 5 9 0 1
BITMAP
70
F8
D8
F8
F8
C0
C0
F8
70
ENDCHAR
STARTCHAR f
ENCODING 102
SWIDTH 75 0
DWIDTH -1 0
BBX 5 14 0 1
BITMAP
70
F8
D8
D8
C0
C0
E0
E0
C0
C0
C0
C0
C0
C0
ENDCHAR
STARTCHAR g
ENCODING 103
SWIDTH 75 0
DWIDTH -1 0
BBX 5 10 0 0
BITMAP
78
F8
D8
D8
F8
78
18
18
78
70
ENDCHAR
STARTCHAR h
ENCODING 104
SWIDTH 75 0
DWIDTH -1 0
BBX 5 14 0 1
BITMAP
C0
C0
C0
C0
C0
F0
F8
D8
D8
D8
D8
D8
D8
D8
ENDCHAR
STARTCHAR i
ENCODING 105
SWIDTH 75 0
DWIDTH -1 0
BBX 4 12 0 1
BITMAP
60
60
00
E0
E0
60
60
60
60
60
F0
F0
ENDCHAR
STARTCHAR j
ENCODING 106
SWIDTH 75 0
DWIDTH -1 0
BBX 5 13 0 0
BITMAP
18
18
00
78
78
18
18
18
18
18
D8
F8
70
ENDCHAR
STARTCHAR k
ENCODING 107
SWIDTH 75 0
DWIDTH -1 0
BBX 5 14 0 1
BITMAP
C0
C0
C0
C0
C0
C8
D8
F0
E0
E0
E0
F0
D8
C8
ENDCHAR
STARTCHAR l
ENCODING 108
SWIDTH 75 0
DWIDTH -1 0
BBX 2 14 0 1
BITMAP
C0
C0
C0
C0
C0
C0
C0
C0
C0
C0
C0
C0
C0
C0
ENDCHAR
STARTCHAR m
ENCODING 109
SWIDTH 75 0
DWIDTH -1 0
BBX 5 9 0 1
BITMAP
D0
F8
F8
D8
D8
D8
D8
D8
D8
ENDCHAR
STARTCHAR n
ENCODING 110
SWIDTH 75 0
DWIDTH -1 0
BBX 5 9 0 1
BITMAP
F0
F8
D8
D8
D8
D8
D8
D8
D8
ENDCHAR
STARTCHAR o
ENCODING 111
SWIDTH 75 0
DWIDTH -1 0
BBX 5 9 0 1
BITMAP
70
F8
D8
D8
D8
D8
D8
F8
70
ENDCHAR
STARTCHAR p
ENCODING 112
SWIDTH 75 0
DWIDTH -1 0
BBX 5 10 0 0
BITMAP
F0
F8
D8
D8
F8
F0
C0
C0
C0
C0
ENDCHAR
STARTCHAR q
ENCODING 113
SWIDTH 75 0
DWIDTH -1 0
BBX 5 10 0 0
BITMAP
78
F8
D8
D8
F8
78
18
18
18
18
ENDCHAR
STARTCHAR r
ENCODING 114
SWIDTH 75 0
DWIDTH -1 0
BBX 5 9 0 1
BITMAP
F0
F8
D8
C0
C0
C0
C0
C0
C0
ENDCHAR
STARTCHAR s
ENCODING 115
SWIDTH 75 0
DWIDTH -1 0
BBX 5 9 0 1
BITMAP
70
F0
C0
F0
78
18
18
F8
F0
ENDCHAR
STARTCHAR t
ENCODING 116
SWIDTH 75 0
DWIDTH -1 0
BBX 5 14 0 1
BITMAP
C0
C0
C0
C0
C0
E0
E0
C0
C0
C0
C0
D8
F8
70
ENDCHAR
STARTCHAR u
ENCODING 117
SWIDTH 75 0
DWIDTH -1 0
BBX 5 9 0 1
BITMAP
D8
D8
D8
D8
D8
D8
D8
F8
78
ENDCHAR
STARTCHAR v
ENCODING 118
SWIDTH 75 0
DWIDTH -1 0
BBX 5 9 0 1
BITMAP
D8
D8
D8
D8
D8
D8
D8
70
20
ENDCHAR
STARTCHAR w
ENCODING 119
SWIDTH 75 0
DWIDTH -1 0
BBX 5 9 0 1
BITMAP
D8
D8
D8
D8
D8
D8
F8
D8
88
ENDCHAR
STARTCHAR x
ENCODING 120
SWIDTH 75 0
DWIDTH -1 0
BBX 5 9 0 1
BITMAP
D8
D8
50
70
20
70
50
D8
D8
ENDCHAR
STARTCHAR y
ENCODING 121
SWIDTH 75 0
DWIDTH -1 0
BBX 5 10 0 0
BITMAP
D8
D8
D8
D8
F8
78
18
18
F0
E0
ENDCHAR
STARTCHAR z
ENCODING 122
SWIDTH 75 0
DWIDTH -1 0
BBX 5 9 0 1
BITMAP
F8
F8
18
30
60
C0
80
F8
F8
ENDCHAR
STARTCHAR {
ENCODING 123
SWIDTH 75 0
DWIDTH -1 0
BBX 5 14 0 1
BITMAP
38
78
60
60
60
60
E0
E0
60
60
60
60
78
38
ENDCHAR
STARTCHAR |
ENCODING 124
SWIDTH 75 0
DWIDTH -1 0
BBX 2 15 0 1
BITMAP
C0
C0
C0
C0
C0
C0
C0
C0
C0
C0
C0
C0
C0
C0
C0
ENDCHAR
STARTCHAR }
ENCODING 125
SWIDTH 75 0
DWIDTH -1 0
BBX 5 14 0 1
BITMAP
E0
F0
30
30
30
30
38
38
30
30
30
30
F0
E0
ENDCHAR
STARTCHAR ~
ENCODING 126
SWIDTH 75 0
DWIDTH -1 0
BBX 5 3 0 6
BITMAP
68
F8
B0
ENDCHAR
STARTCHAR ¤
ENCODING -92
SWIDTH 75 0
DWIDTH -1 0
BBX 5 14 0 1
BITMAP
18
38
70
60
F8
F8
60
60
F8
F8
60
70
38
18
ENDCHAR
STARTCHAR ¦
ENCODING -90
SWIDTH 75 0
DWIDTH -1 0
BBX 5 15 0 1
BITMAP
D8
70
20
70
F8
D8
C0
C0
F0
78
18
18
D8
F8
70
ENDCHAR
STARTCHAR ¼
ENCODING -68
SWIDTH 75 0
DWIDTH -1 0
BBX 5 14 0 1
BITMAP
78
F8
B0
B0
B0
B0
B8
B8
B0
B0
B0
B0
F8
78
ENDCHAR
STARTCHAR ´
ENCODING -76
SWIDTH 75 0
DWIDTH -1 0
BBX 5 15 0 1
BITMAP
D8
70
20
F8
F8
18
18
30
30
60
60
C0
C0
F8
F8
ENDCHAR
STARTCHAR ¨
ENCODING -88
SWIDTH 75 0
DWIDTH -1 0
BBX 5 13 0 1
BITMAP
D8
70
20
00
70
F0
C0
F0
78
18
18
F8
F0
ENDCHAR
STARTCHAR ½
ENCODING -67
SWIDTH 75 0
DWIDTH -1 0
BBX 5 9 0 1
BITMAP
70
F8
A8
A8
B8
B0
A0
F8
70
ENDCHAR
STARTCHAR ¸
ENCODING -72
SWIDTH 75 0
DWIDTH -1 0
BBX 5 13 0 1
BITMAP
D8
70
20
00
F8
F8
18
30
60
C0
80
F8
F8
ENDCHAR
STARTCHAR ¾
ENCODING -66
SWIDTH 75 0
DWIDTH -1 0
BBX 5 15 0 1
BITMAP
D8
D8
00
D8
D8
D8
D8
D8
D8
70
20
20
20
20
20
ENDCHAR
STARTCHAR ¡
ENCODING -95
SWIDTH 75 0
DWIDTH -1 0
BBX 2 12 0 0
BITMAP
C0
C0
00
C0
C0
C0
C0
C0
C0
C0
C0
C0
ENDCHAR
STARTCHAR ¢
ENCODING -94
SWIDTH 75 0
DWIDTH -1 0
BBX 5 11 0 0
BITMAP
08
70
F8
D8
D0
D0
E0
F8
F8
70
40
ENDCHAR
STARTCHAR £
ENCODING -93
SWIDTH 75 0
DWIDTH -1 0
BBX 5 14 0 1
BITMAP
30
78
68
60
60
60
F0
F0
60
60
60
60
F8
D8
ENDCHAR
STARTCHAR ¥
ENCODING -91
SWIDTH 75 0
DWIDTH -1 0
BBX 5 14 0 1
BITMAP
D8
D8
D8
D8
D8
70
20
F8
F8
20
F8
F8
20
20
ENDCHAR
STARTCHAR §
ENCODING -89
SWIDTH 75 0
DWIDTH -1 0
BBX 5 14 0 1
BITMAP
70
F8
D8
C0
60
70
D8
D8
70
30
18
D8
F8
70
ENDCHAR
STARTCHAR ©
ENCODING -87
SWIDTH 75 0
DWIDTH -1 0
BBX 4 5 0 7
BITMAP
60
90
80
90
60
ENDCHAR
STARTCHAR ª
ENCODING -86
SWIDTH 75 0
DWIDTH -1 0
BBX 3 5 0 10
BITMAP
40
20
60
A0
60
ENDCHAR
STARTCHAR «
ENCODING -85
SWIDTH 75 0
DWIDTH -1 0
BBX 5 5 0 3
BITMAP
28
50
A0
50
28
ENDCHAR
STARTCHAR ¬
ENCODING -84
SWIDTH 75 0
DWIDTH -1 0
BBX 5 3 0 7
BITMAP
F8
F8
18
ENDCHAR
STARTCHAR ®
ENCODING -82
SWIDTH 75 0
DWIDTH -1 0
BBX 4 5 0 7
BITMAP
E0
90
E0
90
90
ENDCHAR
STARTCHAR ¯
ENCODING -81
SWIDTH 75 0
DWIDTH -1 0
BBX 5 2 0 13
BITMAP
F8
F8
ENDCHAR
STARTCHAR °
ENCODING -80
SWIDTH 75 0
DWIDTH -1 0
BBX 3 3 0 12
BITMAP
40
A0
40
ENDCHAR
STARTCHAR ±
ENCODING -79
SWIDTH 75 0
DWIDTH -1 0
BBX 4 7 0 1
BITMAP
60
F0
F0
60
00
F0
F0
ENDCHAR
STARTCHAR ²
ENCODING -78
SWIDTH 75 0
DWIDTH -1 0
BBX 3 5 0 10
BITMAP
C0
20
40
80
E0
ENDCHAR
STARTCHAR ³
ENCODING -77
SWIDTH 75 0
DWIDTH -1 0
BBX 3 5 0 10
BITMAP
C0
20
40
20
C0
ENDCHAR
STARTCHAR µ
ENCODING -75
SWIDTH 75 0
DWIDTH -1 0
BBX 5 10 0 0
BITMAP
D8
D8
D8
D8
D8
D8
D8
F0
C0
C0
ENDCHAR
STARTCHAR ·
ENCODING -73
SWIDTH 75 0
DWIDTH -1 0
BBX 2 2 0 8
BITMAP
C0
C0
ENDCHAR
STARTCHAR ¹
ENCODING -71
SWIDTH 75 0
DWIDTH -1 0
BBX 2 5 0 10
BITMAP
40
C0
40
40
40
ENDCHAR
STARTCHAR º
ENCODING -70
SWIDTH 75 0
DWIDTH -1 0
BBX 3 5 0 10
BITMAP
40
A0
A0
A0
40
ENDCHAR
STARTCHAR »
ENCODING -69
SWIDTH 75 0
DWIDTH -1 0
BBX 5 5 0 3
BITMAP
A0
50
28
50
A0
ENDCHAR
STARTCHAR ¿
ENCODING -65
SWIDTH 75 0
DWIDTH -1 0
BBX 5 14 0 1
BITMAP
30
30
00
30
30
30
30
60
C0
C0
D8
D8
F8
70
ENDCHAR
STARTCHAR À
ENCODING -64
SWIDTH 75 0
DWIDTH -1 0
BBX 5 15 0 1
BITMAP
C0
60
30
70
F8
D8
D8
D8
F8
F8
D8
D8
D8
D8
D8
ENDCHAR
STARTCHAR Á
ENCODING -63
SWIDTH 75 0
DWIDTH -1 0
BBX 5 15 0 1
BITMAP
18
30
60
70
F8
D8
D8
D8
F8
F8
D8
D8
D8
D8
D8
ENDCHAR
STARTCHAR Â
ENCODING -62
SWIDTH 75 0
DWIDTH -1 0
BBX 5 15 0 1
BITMAP
20
70
D8
70
F8
D8
D8
D8
F8
F8
D8
D8
D8
D8
D8
ENDCHAR
STARTCHAR Ã
ENCODING -61
SWIDTH 75 0
DWIDTH -1 0
BBX 5 15 0 1
BITMAP
68
F8
B0
70
F8
D8
D8
D8
F8
F8
D8
D8
D8
D8
D8
ENDCHAR
STARTCHAR Ä
ENCODING -60
SWIDTH 75 0
DWIDTH -1 0
BBX 5 15 0 1
BITMAP
D8
D8
00
70
F8
D8
D8
D8
F8
F8
D8
D8
D8
D8
D8
ENDCHAR
STARTCHAR Å
ENCODING -59
SWIDTH 75 0
DWIDTH -1 0
BBX 5 15 0 1
BITMAP
60
60
00
70
F8
D8
D8
D8
F8
F8
D8
D8
D8
D8
D8
ENDCHAR
STARTCHAR Æ
ENCODING -58
SWIDTH 75 0
DWIDTH -1 0
BBX 5 14 0 1
BITMAP
78
F8
B0
B0
B0
B0
B8
F8
F0
B0
B0
B0
B8
B8
ENDCHAR
STARTCHAR Ç
ENCODING -57
SWIDTH 75 0
DWIDTH -1 0
BBX 5 15 0 0
BITMAP
70
F8
D8
C0
C0
C0
C0
C0
C0
C0
C0
D8
F8
70
E0
ENDCHAR
STARTCHAR È
ENCODING -56
SWIDTH 75 0
DWIDTH -1 0
BBX 5 15 0 1
BITMAP
C0
60
30
F8
F8
C0
C0
C0
F0
F0
C0
C0
C0
F8
F8
ENDCHAR
STARTCHAR É
ENCODING -55
SWIDTH 75 0
DWIDTH -1 0
BBX 5 15 0 1
BITMAP
18
30
60
F8
F8
C0
C0
C0
F0
F0
C0
C0
C0
F8
F8
ENDCHAR
STARTCHAR Ê
ENCODING -54
SWIDTH 75 0
DWIDTH -1 0
BBX 5 15 0 1
BITMAP
20
70
D8
F8
F8
C0
C0
C0
F0
F0
C0
C0
C0
F8
F8
ENDCHAR
STARTCHAR Ë
ENCODING -53
SWIDTH 75 0
DWIDTH -1 0
BBX 5 15 0 1
BITMAP
D8
D8
00
F8
F8
C0
C0
C0
F0
F0
C0
C0
C0
F8
F8
ENDCHAR
STARTCHAR Ì
ENCODING -52
SWIDTH 75 0
DWIDTH -1 0
BBX 4 15 0 1
BITMAP
C0
60
30
F0
F0
60
60
60
60
60
60
60
60
F0
F0
ENDCHAR
STARTCHAR Í
ENCODING -51
SWIDTH 75 0
DWIDTH -1 0
BBX 4 15 0 1
BITMAP
30
60
C0
F0
F0
60
60
60
60
60
60
60
60
F0
F0
ENDCHAR
STARTCHAR Î
ENCODING -50
SWIDTH 75 0
DWIDTH -1 0
BBX 4 15 0 1
BITMAP
60
90
00
F0
F0
60
60
60
60
60
60
60
60
F0
F0
ENDCHAR
STARTCHAR Ï
ENCODING -49
SWIDTH 75 0
DWIDTH -1 0
BBX 4 15 0 1
BITMAP
90
90
00
F0
F0
60
60
60
60
60
60
60
60
F0
F0
ENDCHAR
STARTCHAR Ð
ENCODING -48
SWIDTH 75 0
DWIDTH -1 0
BBX 5 14 0 1
BITMAP
E0
F0
D8
D8
D8
D8
D8
D8
D8
D8
D8
D8
F0
E0
ENDCHAR
STARTCHAR Ñ
ENCODING -47
SWIDTH 75 0
DWIDTH -1 0
BBX 5 15 0 1
BITMAP
68
F8
B0
00
98
D8
F8
F8
D8
D8
D8
D8
D8
D8
D8
ENDCHAR
STARTCHAR Ò
ENCODING -46
SWIDTH 75 0
DWIDTH -1 0
BBX 5 15 0 1
BITMAP
C0
60
30
70
F8
D8
D8
D8
D8
D8
D8
D8
D8
F8
70
ENDCHAR
STARTCHAR Ó
ENCODING -45
SWIDTH 75 0
DWIDTH -1 0
BBX 5 15 0 1
BITMAP
18
30
60
70
F8
D8
D8
D8
D8
D8
D8
D8
D8
F8
70
ENDCHAR
STARTCHAR Ô
ENCODING -44
SWIDTH 75 0
DWIDTH -1 0
BBX 5 15 0 1
BITMAP
20
70
D8
70
F8
D8
D8
D8
D8
D8
D8
D8
D8
F8
70
ENDCHAR
STARTCHAR Õ
ENCODING -43
SWIDTH 75 0
DWIDTH -1 0
BBX 5 15 0 1
BITMAP
68
F8
B0
70
F8
D8
D8
D8
D8
D8
D8
D8
D8
F8
70
ENDCHAR
STARTCHAR Ö
ENCODING -42
SWIDTH 75 0
DWIDTH -1 0
BBX 5 15 0 1
BITMAP
D8
D8
00
70
F8
D8
D8
D8
D8
D8
D8
D8
D8
F8
70
ENDCHAR
STARTCHAR ×
ENCODING -41
SWIDTH 75 0
DWIDTH -1 0
BBX 5 5 0 6
BITMAP
D8
70
20
70
D8
ENDCHAR
STARTCHAR Ø
ENCODING -40
SWIDTH 75 0
DWIDTH -1 0
BBX 5 14 0 1
BITMAP
70
F8
D8
D8
D8
F8
F8
F8
F8
D8
D8
D8
F8
70
ENDCHAR
STARTCHAR Ù
ENCODING -39
SWIDTH 75 0
DWIDTH -1 0
BBX 5 15 0 1
BITMAP
C0
60
30
D8
D8
D8
D8
D8
D8
D8
D8
D8
D8
F8
70
ENDCHAR
STARTCHAR Ú
ENCODING -38
SWIDTH 75 0
DWIDTH -1 0
BBX 5 15 0 1
BITMAP
18
30
60
D8
D8
D8
D8
D8
D8
D8
D8
D8
D8
F8
70
ENDCHAR
STARTCHAR Û
ENCODING -37
SWIDTH 75 0
DWIDTH -1 0
BBX 5 15 0 1
BITMAP
20
70
D8
D8
D8
D8
D8
D8
D8
D8
D8
D8
D8
F8
70
ENDCHAR
STARTCHAR Ü
ENCODING -36
SWIDTH 75 0
DWIDTH -1 0
BBX 5 15 0 1
BITMAP
D8
D8
00
D8
D8
D8
D8
D8
D8
D8
D8
D8
D8
F8
70
ENDCHAR
STARTCHAR Ý
ENCODING -35
SWIDTH 75 0
DWIDTH -1 0
BBX 5 15 0 1
BITMAP
18
30
60
D8
D8
D8
D8
D8
D8
70
20
20
20
20
20
ENDCHAR
STARTCHAR Þ
ENCODING -34
SWIDTH 75 0
DWIDTH -1 0
BBX 5 14 0 1
BITMAP
C0
C0
C0
C0
F0
F8
D8
D8
F8
F0
C0
C0
C0
C0
ENDCHAR
STARTCHAR ß
ENCODING -33
SWIDTH 75 0
DWIDTH -1 0
BBX 5 15 0 0
BITMAP
70
D8
D8
D8
D8
F0
D8
D8
D8
D8
D8
D8
D0
E0
C0
ENDCHAR
STARTCHAR à
ENCODING -32
SWIDTH 75 0
DWIDTH -1 0
BBX 5 13 0 1
BITMAP
C0
60
30
00
70
78
18
78
F8
D8
D8
F8
78
ENDCHAR
STARTCHAR á
ENCODING -31
SWIDTH 75 0
DWIDTH -1 0
BBX 5 13 0 1
BITMAP
18
30
60
00
70
78
18
78
F8
D8
D8
F8
78
ENDCHAR
STARTCHAR â
ENCODING -30
SWIDTH 75 0
DWIDTH -1 0
BBX 5 13 0 1
BITMAP
20
70
D8
00
70
78
18
78
F8
D8
D8
F8
78
ENDCHAR
STARTCHAR ã
ENCODING -29
SWIDTH 75 0
DWIDTH -1 0
BBX 5 13 0 1
BITMAP
68
F8
B0
00
70
78
18
78
F8
D8
D8
F8
78
ENDCHAR
STARTCHAR ä
ENCODING -28
SWIDTH 75 0
DWIDTH -1 0
BBX 5 12 0 1
BITMAP
D8
D8
00
70
78
18
78
F8
D8
D8
F8
78
ENDCHAR
STARTCHAR å
ENCODING -27
SWIDTH 75 0
DWIDTH -1 0
BBX 5 13 0 1
BITMAP
20
50
20
00
70
78
18
78
F8
D8
D8
F8
78
ENDCHAR
STARTCHAR æ
ENCODING -26
SWIDTH 75 0
DWIDTH -1 0
BBX 5 9 0 1
BITMAP
70
F8
28
28
78
F0
A0
F8
70
ENDCHAR
STARTCHAR ç
ENCODING -25
SWIDTH 75 0
DWIDTH -1 0
BBX 5 10 0 0
BITMAP
70
F8
D8
C0
C0
C0
D8
F8
70
E0
ENDCHAR
STARTCHAR è
ENCODING -24
SWIDTH 75 0
DWIDTH -1 0
BBX 5 13 0 1
BITMAP
C0
60
30
00
70
F8
D8
F8
F8
C0
C0
F8
70
ENDCHAR
STARTCHAR é
ENCODING -23
SWIDTH 75 0
DWIDTH -1 0
BBX 5 13 0 1
BITMAP
18
30
60
00
70
F8
D8
F8
F8
C0
C0
F8
70
ENDCHAR
STARTCHAR ê
ENCODING -22
SWIDTH 75 0
DWIDTH -1 0
BBX 5 13 0 1
BITMAP
20
70
D8
00
70
F8
D8
F8
F8
C0
C0
F8
70
ENDCHAR
STARTCHAR ë
ENCODING -21
SWIDTH 75 0
DWIDTH -1 0
BBX 5 12 0 1
BITMAP
D8
D8
00
70
F8
D8
F8
F8
C0
C0
F8
70
ENDCHAR
STARTCHAR ì
ENCODING -20
SWIDTH 75 0
DWIDTH -1 0
BBX 4 13 0 1
BITMAP
C0
60
30
00
E0
E0
60
60
60
60
60
F0
F0
ENDCHAR
STARTCHAR í
ENCODING -19
SWIDTH 75 0
DWIDTH -1 0
BBX 4 13 0 1
BITMAP
30
60
C0
00
E0
E0
60
60
60
60
60
F0
F0
ENDCHAR
STARTCHAR î
ENCODING -18
SWIDTH 75 0
DWIDTH -1 0
BBX 5 13 0 1
BITMAP
20
70
D8
00
70
70
30
30
30
30
30
78
78
ENDCHAR
STARTCHAR ï
ENCODING -17
SWIDTH 75 0
DWIDTH -1 0
BBX 5 12 0 1
BITMAP
D8
D8
00
70
70
30
30
30
30
30
78
78
ENDCHAR
STARTCHAR ð
ENCODING -16
SWIDTH 75 0
DWIDTH -1 0
BBX 5 13 0 1
BITMAP
D0
20
50
08
78
F8
D8
D8
D8
D8
D8
F8
70
ENDCHAR
STARTCHAR ñ
ENCODING -15
SWIDTH 75 0
DWIDTH -1 0
BBX 5 13 0 1
BITMAP
68
F8
B0
00
F0
F8
D8
D8
D8
D8
D8
D8
D8
ENDCHAR
STARTCHAR ò
ENCODING -14
SWIDTH 75 0
DWIDTH -1 0
BBX 5 13 0 1
BITMAP
60
30
18
00
70
F8
D8
D8
D8
D8
D8
F8
70
ENDCHAR
STARTCHAR ó
ENCODING -13
SWIDTH 75 0
DWIDTH -1 0
BBX 5 13 0 1
BITMAP
30
60
C0
00
70
F8
D8
D8
D8
D8
D8
F8
70
ENDCHAR
STARTCHAR ô
ENCODING -12
SWIDTH 75 0
DWIDTH -1 0
BBX 5 13 0 1
BITMAP
20
70
D8
00
70
F8
D8
D8
D8
D8
D8
F8
70
ENDCHAR
STARTCHAR õ
ENCODING -11
SWIDTH 75 0
DWIDTH -1 0
BBX 5 13 0 1
BITMAP
68
F8
B0
00
70
F8
D8
D8
D8
D8
D8
F8
70
ENDCHAR
STARTCHAR ö
ENCODING -10
SWIDTH 75 0
DWIDTH -1 0
BBX 5 12 0 1
BITMAP
D8
D8
00
70
F8
D8
D8
D8
D8
D8
F8
70
ENDCHAR
STARTCHAR ÷
ENCODING -9
SWIDTH 75 0
DWIDTH -1 0
BBX 4 6 0 3
BITMAP
60
00
F0
F0
00
60
ENDCHAR
STARTCHAR ø
ENCODING -8
SWIDTH 75 0
DWIDTH -1 0
BBX 5 9 0 1
BITMAP
70
F8
D8
D8
F8
D8
D8
F8
70
ENDCHAR
STARTCHAR ù
ENCODING -7
SWIDTH 75 0
DWIDTH -1 0
BBX 5 13 0 1
BITMAP
60
30
18
00
D8
D8
D8
D8
D8
D8
D8
F8
78
ENDCHAR
STARTCHAR ú
ENCODING -6
SWIDTH 75 0
DWIDTH -1 0
BBX 5 13 0 1
BITMAP
30
60
C0
00
D8
D8
D8
D8
D8
D8
D8
F8
78
ENDCHAR
STARTCHAR û
ENCODING -5
SWIDTH 75 0
DWIDTH -1 0
BBX 5 13 0 1
BITMAP
20
70
D8
00
D8
D8
D8
D8
D8
D8
D8
F8
78
ENDCHAR
STARTCHAR ü
ENCODING -4
SWIDTH 75 0
DWIDTH -1 0
BBX 5 12 0 1
BITMAP
D8
D8
00
D8
D8
D8
D8
D8
D8
D8
F8
78
ENDCHAR
STARTCHAR ý
ENCODING -3
SWIDTH 75 0
DWIDTH -1 0
BBX 5 14 0 0
BITMAP
18
30
60
00
D8
D8
D8
D8
F8
78
18
18
F0
E0
ENDCHAR
STARTCHAR þ
ENCODING -2
SWIDTH 75 0
DWIDTH -1 0
BBX 5 14 0 1
BITMAP
C0
C0
C0
F0
F8
D8
D8
D8
D8
F8
F0
C0
C0
C0
ENDCHAR
STARTCHAR ÿ
ENCODING -1
SWIDTH 75 0
DWIDTH -1 0
BBX 5 13 0 0
BITMAP
D8
D8
00
D8
D8
D8
D8
F8
78
18
18
F0
E0
ENDCHAR
ENDFONT
