STARTFONT 2.1
COMMENT Lumiplan font build using LumiStudio
FONT F-PMR16
SIZE 19 75 75
FONTBOUNDINGBOX 12 19 0 0
STARTPROPERTIES 1
Copyright "Copyright (c) 2021 Lumiplan"
ENDPROPERTIES
CHARS 145
STARTCHAR 
ENCODING 14
SWIDTH 75 0
DWIDTH -1 0
BBX 0 0 1 18
ENDCHAR
STARTCHAR  
ENCODING 32
SWIDTH 75 0
DWIDTH -1 0
BBX 0 0 4 18
ENDCHAR
STARTCHAR !
ENCODING 33
SWIDTH 75 0
DWIDTH -1 0
BBX 12 12 0 3
BITMAP
F000
8000
0000
0000
1800
7E00
E610
8C10
9830
F060
EFC0
FF00
ENDCHAR
STARTCHAR "
ENCODING 34
SWIDTH 75 0
DWIDTH -1 0
BBX 12 7 0 3
BITMAP
E000
E000
F000
7000
3810
1E60
0F80
ENDCHAR
STARTCHAR #
ENCODING 35
SWIDTH 75 0
DWIDTH -1 0
BBX 12 14 0 4
BITMAP
0030
0000
4000
4000
4000
4000
7000
0000
0000
0030
01E0
7E00
00F0
FF00
ENDCHAR
STARTCHAR $
ENCODING 36
SWIDTH 75 0
DWIDTH -1 0
BBX 9 11 0 6
BITMAP
E000
3800
1C00
0E00
3F80
1E00
3C00
F000
C000
0800
E000
ENDCHAR
STARTCHAR %
ENCODING 37
SWIDTH 75 0
DWIDTH -1 0
BBX 12 14 0 4
BITMAP
0600
0600
0600
0600
0F00
1F80
3FC0
7FE0
FFF0
FFF0
0600
0600
0600
0F00
ENDCHAR
STARTCHAR &
ENCODING 38
SWIDTH 75 0
DWIDTH -1 0
BBX 12 8 0 1
BITMAP
7000
F000
F800
B800
3C00
1E30
0FE0
0780
ENDCHAR
STARTCHAR '
ENCODING 39
SWIDTH 75 0
DWIDTH -1 0
BBX 11 16 0 3
BITMAP
0400
0E00
0400
0E00
1F00
0E00
1F00
3F80
1F00
3F80
7FC0
1F00
3F80
7FC0
FFE0
0400
ENDCHAR
STARTCHAR (
ENCODING 40
SWIDTH 75 0
DWIDTH -1 0
BBX 9 15 0 4
BITMAP
0C00
1E00
1E00
0C00
1E00
3F00
5E80
9E00
1E00
1E00
1E00
2100
4080
4000
C000
ENDCHAR
STARTCHAR )
ENCODING 41
SWIDTH 75 0
DWIDTH -1 0
BBX 10 13 0 4
BITMAP
0400
0E00
0E00
0400
1F00
AE80
4E40
0E00
0E00
1200
9380
9080
3000
ENDCHAR
STARTCHAR *
ENCODING 42
SWIDTH 75 0
DWIDTH -1 0
BBX 11 16 1 3
BITMAP
03C0
0C20
1000
2000
4000
59A0
9520
95A0
9920
9520
55A0
4000
2000
1000
0C20
03C0
ENDCHAR
STARTCHAR +
ENCODING 43
SWIDTH 75 0
DWIDTH -1 0
BBX 5 14 0 4
BITMAP
80
40
20
10
90
48
48
88
48
50
10
20
40
80
ENDCHAR
STARTCHAR ,
ENCODING 44
SWIDTH 75 0
DWIDTH -1 0
BBX 11 16 1 3
BITMAP
00C0
01E0
01E0
00C0
0000
7FE0
FFE0
07E0
0FE0
1FC0
3B80
7700
6E00
1C40
38A0
3040
ENDCHAR
STARTCHAR -
ENCODING 45
SWIDTH 75 0
DWIDTH -1 0
BBX 3 7 0 7
BITMAP
80
E0
E0
60
40
C0
80
ENDCHAR
STARTCHAR .
ENCODING 46
SWIDTH 75 0
DWIDTH -1 0
BBX 12 16 0 3
BITMAP
FFF0
8010
8010
8610
8610
8610
8F10
9F90
BFD0
8610
8610
8610
8F10
8010
8010
FFF0
ENDCHAR
STARTCHAR /
ENCODING 47
SWIDTH 75 0
DWIDTH -1 0
BBX 9 13 0 4
BITMAP
0180
0380
0F80
1F80
1E80
1880
1080
1380
1780
1300
7000
F000
6000
ENDCHAR
STARTCHAR 0
ENCODING 48
SWIDTH 75 0
DWIDTH -1 0
BBX 6 16 0 3
BITMAP
78
FC
CC
CC
CC
CC
CC
CC
CC
CC
CC
CC
CC
CC
FC
78
ENDCHAR
STARTCHAR 1
ENCODING 49
SWIDTH 75 0
DWIDTH -1 0
BBX 5 16 0 3
BITMAP
30
70
F0
F0
30
30
30
30
30
30
30
30
30
30
78
78
ENDCHAR
STARTCHAR 2
ENCODING 50
SWIDTH 75 0
DWIDTH -1 0
BBX 6 16 0 3
BITMAP
78
FC
CC
0C
0C
18
18
30
30
60
60
C0
C0
C0
FC
FC
ENDCHAR
STARTCHAR 3
ENCODING 51
SWIDTH 75 0
DWIDTH -1 0
BBX 6 16 0 3
BITMAP
FC
FC
0C
0C
18
30
60
30
18
0C
0C
0C
CC
CC
FC
78
ENDCHAR
STARTCHAR 4
ENCODING 52
SWIDTH 75 0
DWIDTH -1 0
BBX 6 16 0 3
BITMAP
18
18
38
38
78
58
D8
D8
D8
D8
FC
FC
18
18
18
18
ENDCHAR
STARTCHAR 5
ENCODING 53
SWIDTH 75 0
DWIDTH -1 0
BBX 6 16 0 3
BITMAP
FC
FC
C0
C0
C0
C0
F8
FC
0C
0C
0C
0C
0C
CC
FC
78
ENDCHAR
STARTCHAR 6
ENCODING 54
SWIDTH 75 0
DWIDTH -1 0
BBX 6 16 0 3
BITMAP
18
78
60
C0
C0
C0
C0
F0
F8
CC
CC
CC
CC
CC
FC
78
ENDCHAR
STARTCHAR 7
ENCODING 55
SWIDTH 75 0
DWIDTH -1 0
BBX 6 16 0 3
BITMAP
FC
FC
0C
0C
18
18
18
30
30
30
60
60
60
60
60
60
ENDCHAR
STARTCHAR 8
ENCODING 56
SWIDTH 75 0
DWIDTH -1 0
BBX 6 16 0 3
BITMAP
78
FC
CC
CC
CC
CC
CC
78
78
CC
CC
CC
CC
CC
78
78
ENDCHAR
STARTCHAR 9
ENCODING 57
SWIDTH 75 0
DWIDTH -1 0
BBX 6 16 0 3
BITMAP
78
FC
CC
CC
CC
CC
CC
7C
3C
0C
0C
0C
0C
18
78
60
ENDCHAR
STARTCHAR :
ENCODING 58
SWIDTH 75 0
DWIDTH -1 0
BBX 12 16 0 3
BITMAP
0020
0060
00C0
01C0
0390
03F0
07C0
3F00
FE00
1C00
1800
3810
3810
3C10
3FF0
1FE0
ENDCHAR
STARTCHAR ;
ENCODING 59
SWIDTH 75 0
DWIDTH -1 0
BBX 12 15 0 4
BITMAP
3000
3000
3000
6000
6000
6000
3000
BE00
9C00
C000
CC00
DF00
9BC0
38F0
1020
ENDCHAR
STARTCHAR <
ENCODING 60
SWIDTH 75 0
DWIDTH -1 0
BBX 11 16 1 3
BITMAP
03C0
0FE0
1E60
3800
7800
7180
F3C0
F3C0
F000
F000
73C0
73C0
3FE0
1FE0
0FE0
03C0
ENDCHAR
STARTCHAR =
ENCODING 61
SWIDTH 75 0
DWIDTH -1 0
BBX 5 14 0 4
BITMAP
80
C0
E0
F0
70
78
78
78
78
70
70
E0
C0
80
ENDCHAR
STARTCHAR >
ENCODING 62
SWIDTH 75 0
DWIDTH -1 0
BBX 12 15 0 3
BITMAP
07E0
07E0
03C0
03C0
03C0
1FF0
3FF0
7FF0
FFF0
F040
6710
29F0
0AA0
08A0
0710
ENDCHAR
STARTCHAR ?
ENCODING 63
SWIDTH 75 0
DWIDTH -1 0
BBX 12 15 0 3
BITMAP
0030
0010
0010
7390
7390
FFF0
FFF0
FFF0
FFF0
1070
C730
FF80
AA80
2880
C700
ENDCHAR
STARTCHAR @
ENCODING 64
SWIDTH 75 0
DWIDTH -1 0
BBX 11 15 0 3
BITMAP
FFE0
10C0
1080
1080
F080
F080
F080
FF80
FF80
8380
3980
4580
55C0
44E0
3800
ENDCHAR
STARTCHAR A
ENCODING 65
SWIDTH 75 0
DWIDTH -1 0
BBX 6 16 0 3
BITMAP
78
FC
CC
CC
CC
CC
CC
FC
FC
CC
CC
CC
CC
CC
CC
CC
ENDCHAR
STARTCHAR B
ENCODING 66
SWIDTH 75 0
DWIDTH -1 0
BBX 6 16 0 3
BITMAP
F8
FC
CC
CC
CC
CC
CC
F8
F8
CC
CC
CC
CC
CC
FC
F8
ENDCHAR
STARTCHAR C
ENCODING 67
SWIDTH 75 0
DWIDTH -1 0
BBX 6 16 0 3
BITMAP
78
FC
CC
C0
C0
C0
C0
C0
C0
C0
C0
C0
C0
CC
FC
78
ENDCHAR
STARTCHAR D
ENCODING 68
SWIDTH 75 0
DWIDTH -1 0
BBX 6 16 0 3
BITMAP
F0
F8
CC
CC
CC
CC
CC
CC
CC
CC
CC
CC
CC
CC
F8
F0
ENDCHAR
STARTCHAR E
ENCODING 69
SWIDTH 75 0
DWIDTH -1 0
BBX 6 16 0 3
BITMAP
FC
FC
C0
C0
C0
C0
C0
F8
F8
C0
C0
C0
C0
C0
FC
FC
ENDCHAR
STARTCHAR F
ENCODING 70
SWIDTH 75 0
DWIDTH -1 0
BBX 6 16 0 3
BITMAP
FC
FC
C0
C0
C0
C0
C0
F0
F0
C0
C0
C0
C0
C0
C0
C0
ENDCHAR
STARTCHAR G
ENCODING 71
SWIDTH 75 0
DWIDTH -1 0
BBX 6 16 0 3
BITMAP
78
FC
CC
CC
C0
C0
C0
C0
C0
DC
DC
CC
CC
CC
FC
78
ENDCHAR
STARTCHAR H
ENCODING 72
SWIDTH 75 0
DWIDTH -1 0
BBX 6 16 0 3
BITMAP
CC
CC
CC
CC
CC
CC
CC
FC
FC
CC
CC
CC
CC
CC
CC
CC
ENDCHAR
STARTCHAR I
ENCODING 73
SWIDTH 75 0
DWIDTH -1 0
BBX 4 16 0 3
BITMAP
F0
F0
60
60
60
60
60
60
60
60
60
60
60
60
F0
F0
ENDCHAR
STARTCHAR J
ENCODING 74
SWIDTH 75 0
DWIDTH -1 0
BBX 6 16 0 3
BITMAP
3C
3C
0C
0C
0C
0C
0C
0C
0C
0C
0C
0C
CC
CC
FC
78
ENDCHAR
STARTCHAR K
ENCODING 75
SWIDTH 75 0
DWIDTH -1 0
BBX 6 16 0 3
BITMAP
CC
CC
CC
CC
CC
D8
F0
E0
E0
F0
D8
CC
CC
CC
CC
CC
ENDCHAR
STARTCHAR L
ENCODING 76
SWIDTH 75 0
DWIDTH -1 0
BBX 6 16 0 3
BITMAP
C0
C0
C0
C0
C0
C0
C0
C0
C0
C0
C0
C0
C0
C0
FC
FC
ENDCHAR
STARTCHAR M
ENCODING 77
SWIDTH 75 0
DWIDTH -1 0
BBX 6 16 0 3
BITMAP
84
CC
FC
FC
CC
CC
CC
CC
CC
CC
CC
CC
CC
CC
CC
CC
ENDCHAR
STARTCHAR N
ENCODING 78
SWIDTH 75 0
DWIDTH -1 0
BBX 6 16 0 3
BITMAP
8C
8C
CC
CC
EC
EC
FC
FC
DC
DC
CC
CC
CC
CC
CC
CC
ENDCHAR
STARTCHAR O
ENCODING 79
SWIDTH 75 0
DWIDTH -1 0
BBX 6 16 0 3
BITMAP
78
FC
CC
CC
CC
CC
CC
CC
CC
CC
CC
CC
CC
CC
FC
78
ENDCHAR
STARTCHAR P
ENCODING 80
SWIDTH 75 0
DWIDTH -1 0
BBX 6 16 0 3
BITMAP
F8
FC
CC
CC
CC
CC
CC
F8
F0
C0
C0
C0
C0
C0
C0
C0
ENDCHAR
STARTCHAR Q
ENCODING 81
SWIDTH 75 0
DWIDTH -1 0
BBX 6 16 0 3
BITMAP
78
FC
CC
CC
CC
CC
CC
CC
CC
CC
CC
CC
F4
D8
EC
74
ENDCHAR
STARTCHAR R
ENCODING 82
SWIDTH 75 0
DWIDTH -1 0
BBX 6 16 0 3
BITMAP
F8
FC
CC
CC
CC
CC
CC
F8
F8
CC
CC
CC
CC
CC
CC
CC
ENDCHAR
STARTCHAR S
ENCODING 83
SWIDTH 75 0
DWIDTH -1 0
BBX 6 16 0 3
BITMAP
78
FC
CC
C0
C0
C0
C0
F8
7C
0C
0C
0C
0C
CC
FC
78
ENDCHAR
STARTCHAR T
ENCODING 84
SWIDTH 75 0
DWIDTH -1 0
BBX 6 16 0 3
BITMAP
FC
FC
30
30
30
30
30
30
30
30
30
30
30
30
30
30
ENDCHAR
STARTCHAR U
ENCODING 85
SWIDTH 75 0
DWIDTH -1 0
BBX 6 16 0 3
BITMAP
CC
CC
CC
CC
CC
CC
CC
CC
CC
CC
CC
CC
CC
CC
FC
78
ENDCHAR
STARTCHAR V
ENCODING 86
SWIDTH 75 0
DWIDTH -1 0
BBX 6 16 0 3
BITMAP
CC
CC
CC
CC
CC
CC
CC
CC
CC
CC
78
78
78
30
30
30
ENDCHAR
STARTCHAR W
ENCODING 87
SWIDTH 75 0
DWIDTH -1 0
BBX 6 16 0 3
BITMAP
CC
CC
CC
CC
CC
CC
CC
CC
CC
CC
CC
CC
FC
FC
CC
84
ENDCHAR
STARTCHAR X
ENCODING 88
SWIDTH 75 0
DWIDTH -1 0
BBX 6 16 0 3
BITMAP
CC
CC
CC
CC
CC
CC
78
30
30
78
CC
CC
CC
CC
CC
CC
ENDCHAR
STARTCHAR Y
ENCODING 89
SWIDTH 75 0
DWIDTH -1 0
BBX 6 16 0 3
BITMAP
CC
CC
CC
CC
CC
CC
CC
CC
78
30
30
30
30
30
30
30
ENDCHAR
STARTCHAR Z
ENCODING 90
SWIDTH 75 0
DWIDTH -1 0
BBX 6 16 0 3
BITMAP
FC
FC
0C
0C
0C
18
18
30
30
60
60
C0
C0
C0
FC
FC
ENDCHAR
STARTCHAR [
ENCODING 91
SWIDTH 75 0
DWIDTH -1 0
BBX 0 0 12 18
ENDCHAR
STARTCHAR \
ENCODING 92
SWIDTH 75 0
DWIDTH -1 0
BBX 0 0 12 18
ENDCHAR
STARTCHAR ]
ENCODING 93
SWIDTH 75 0
DWIDTH -1 0
BBX 0 0 12 18
ENDCHAR
STARTCHAR ^
ENCODING 94
SWIDTH 75 0
DWIDTH -1 0
BBX 0 0 12 18
ENDCHAR
STARTCHAR _
ENCODING 95
SWIDTH 75 0
DWIDTH -1 0
BBX 0 0 12 18
ENDCHAR
STARTCHAR `
ENCODING 96
SWIDTH 75 0
DWIDTH -1 0
BBX 0 0 12 18
ENDCHAR
STARTCHAR a
ENCODING 97
SWIDTH 75 0
DWIDTH -1 0
BBX 0 0 12 18
ENDCHAR
STARTCHAR b
ENCODING 98
SWIDTH 75 0
DWIDTH -1 0
BBX 0 0 12 18
ENDCHAR
STARTCHAR c
ENCODING 99
SWIDTH 75 0
DWIDTH -1 0
BBX 0 0 12 18
ENDCHAR
STARTCHAR d
ENCODING 100
SWIDTH 75 0
DWIDTH -1 0
BBX 0 0 12 18
ENDCHAR
STARTCHAR e
ENCODING 101
SWIDTH 75 0
DWIDTH -1 0
BBX 0 0 12 18
ENDCHAR
STARTCHAR f
ENCODING 102
SWIDTH 75 0
DWIDTH -1 0
BBX 0 0 12 18
ENDCHAR
STARTCHAR g
ENCODING 103
SWIDTH 75 0
DWIDTH -1 0
BBX 0 0 12 18
ENDCHAR
STARTCHAR h
ENCODING 104
SWIDTH 75 0
DWIDTH -1 0
BBX 0 0 12 18
ENDCHAR
STARTCHAR i
ENCODING 105
SWIDTH 75 0
DWIDTH -1 0
BBX 0 0 12 18
ENDCHAR
STARTCHAR j
ENCODING 106
SWIDTH 75 0
DWIDTH -1 0
BBX 0 0 12 18
ENDCHAR
STARTCHAR k
ENCODING 107
SWIDTH 75 0
DWIDTH -1 0
BBX 0 0 12 18
ENDCHAR
STARTCHAR l
ENCODING 108
SWIDTH 75 0
DWIDTH -1 0
BBX 0 0 12 18
ENDCHAR
STARTCHAR m
ENCODING 109
SWIDTH 75 0
DWIDTH -1 0
BBX 0 0 12 18
ENDCHAR
STARTCHAR n
ENCODING 110
SWIDTH 75 0
DWIDTH -1 0
BBX 0 0 12 18
ENDCHAR
STARTCHAR o
ENCODING 111
SWIDTH 75 0
DWIDTH -1 0
BBX 0 0 12 18
ENDCHAR
STARTCHAR p
ENCODING 112
SWIDTH 75 0
DWIDTH -1 0
BBX 0 0 12 18
ENDCHAR
STARTCHAR q
ENCODING 113
SWIDTH 75 0
DWIDTH -1 0
BBX 0 0 12 18
ENDCHAR
STARTCHAR r
ENCODING 114
SWIDTH 75 0
DWIDTH -1 0
BBX 0 0 12 18
ENDCHAR
STARTCHAR s
ENCODING 115
SWIDTH 75 0
DWIDTH -1 0
BBX 0 0 12 18
ENDCHAR
STARTCHAR t
ENCODING 116
SWIDTH 75 0
DWIDTH -1 0
BBX 0 0 12 18
ENDCHAR
STARTCHAR u
ENCODING 117
SWIDTH 75 0
DWIDTH -1 0
BBX 0 0 12 18
ENDCHAR
STARTCHAR v
ENCODING 118
SWIDTH 75 0
DWIDTH -1 0
BBX 0 0 12 18
ENDCHAR
STARTCHAR w
ENCODING 119
SWIDTH 75 0
DWIDTH -1 0
BBX 0 0 12 18
ENDCHAR
STARTCHAR x
ENCODING 120
SWIDTH 75 0
DWIDTH -1 0
BBX 0 0 12 18
ENDCHAR
STARTCHAR y
ENCODING 121
SWIDTH 75 0
DWIDTH -1 0
BBX 0 0 12 18
ENDCHAR
STARTCHAR z
ENCODING 122
SWIDTH 75 0
DWIDTH -1 0
BBX 0 0 12 18
ENDCHAR
STARTCHAR {
ENCODING 123
SWIDTH 75 0
DWIDTH -1 0
BBX 0 0 12 18
ENDCHAR
STARTCHAR |
ENCODING 124
SWIDTH 75 0
DWIDTH -1 0
BBX 0 0 12 18
ENDCHAR
STARTCHAR }
ENCODING 125
SWIDTH 75 0
DWIDTH -1 0
BBX 0 0 12 18
ENDCHAR
STARTCHAR ~
ENCODING 126
SWIDTH 75 0
DWIDTH -1 0
BBX 0 0 12 18
ENDCHAR
STARTCHAR 
ENCODING 127
SWIDTH 75 0
DWIDTH -1 0
BBX 0 0 12 18
ENDCHAR
STARTCHAR f
ENCODING 102
SWIDTH 75 0
DWIDTH -1 0
BBX 0 0 12 18
ENDCHAR
STARTCHAR ¡
ENCODING -95
SWIDTH 75 0
DWIDTH -1 0
BBX 0 0 12 18
ENDCHAR
STARTCHAR £
ENCODING -93
SWIDTH 75 0
DWIDTH -1 0
BBX 0 0 12 18
ENDCHAR
STARTCHAR ª
ENCODING -86
SWIDTH 75 0
DWIDTH -1 0
BBX 0 0 12 18
ENDCHAR
STARTCHAR «
ENCODING -85
SWIDTH 75 0
DWIDTH -1 0
BBX 0 0 12 18
ENDCHAR
STARTCHAR ¬
ENCODING -84
SWIDTH 75 0
DWIDTH -1 0
BBX 0 0 12 18
ENDCHAR
STARTCHAR ®
ENCODING -82
SWIDTH 75 0
DWIDTH -1 0
BBX 0 0 12 18
ENDCHAR
STARTCHAR º
ENCODING -70
SWIDTH 75 0
DWIDTH -1 0
BBX 0 0 12 18
ENDCHAR
STARTCHAR »
ENCODING -69
SWIDTH 75 0
DWIDTH -1 0
BBX 0 0 12 18
ENDCHAR
STARTCHAR  
ENCODING 32
SWIDTH 75 0
DWIDTH -1 0
BBX 0 0 12 18
ENDCHAR
STARTCHAR  
ENCODING 32
SWIDTH 75 0
DWIDTH -1 0
BBX 0 0 12 18
ENDCHAR
STARTCHAR ¿
ENCODING -65
SWIDTH 75 0
DWIDTH -1 0
BBX 0 0 12 18
ENDCHAR
STARTCHAR Ä
ENCODING -60
SWIDTH 75 0
DWIDTH -1 0
BBX 0 0 12 18
ENDCHAR
STARTCHAR Å
ENCODING -59
SWIDTH 75 0
DWIDTH -1 0
BBX 0 0 12 18
ENDCHAR
STARTCHAR Æ
ENCODING -58
SWIDTH 75 0
DWIDTH -1 0
BBX 0 0 12 18
ENDCHAR
STARTCHAR Ç
ENCODING -57
SWIDTH 75 0
DWIDTH -1 0
BBX 0 0 12 18
ENDCHAR
STARTCHAR É
ENCODING -55
SWIDTH 75 0
DWIDTH -1 0
BBX 0 0 12 18
ENDCHAR
STARTCHAR Ñ
ENCODING -47
SWIDTH 75 0
DWIDTH -1 0
BBX 0 0 12 18
ENDCHAR
STARTCHAR Ö
ENCODING -42
SWIDTH 75 0
DWIDTH -1 0
BBX 0 0 12 18
ENDCHAR
STARTCHAR ×
ENCODING -41
SWIDTH 75 0
DWIDTH -1 0
BBX 0 0 12 18
ENDCHAR
STARTCHAR Ø
ENCODING -40
SWIDTH 75 0
DWIDTH -1 0
BBX 0 0 12 18
ENDCHAR
STARTCHAR Ü
ENCODING -36
SWIDTH 75 0
DWIDTH -1 0
BBX 0 0 12 18
ENDCHAR
STARTCHAR à
ENCODING -32
SWIDTH 75 0
DWIDTH -1 0
BBX 0 0 12 18
ENDCHAR
STARTCHAR á
ENCODING -31
SWIDTH 75 0
DWIDTH -1 0
BBX 0 0 12 18
ENDCHAR
STARTCHAR â
ENCODING -30
SWIDTH 75 0
DWIDTH -1 0
BBX 0 0 12 18
ENDCHAR
STARTCHAR ä
ENCODING -28
SWIDTH 75 0
DWIDTH -1 0
BBX 0 0 12 18
ENDCHAR
STARTCHAR å
ENCODING -27
SWIDTH 75 0
DWIDTH -1 0
BBX 0 0 12 18
ENDCHAR
STARTCHAR æ
ENCODING -26
SWIDTH 75 0
DWIDTH -1 0
BBX 0 0 12 18
ENDCHAR
STARTCHAR ç
ENCODING -25
SWIDTH 75 0
DWIDTH -1 0
BBX 0 0 12 18
ENDCHAR
STARTCHAR è
ENCODING -24
SWIDTH 75 0
DWIDTH -1 0
BBX 0 0 12 18
ENDCHAR
STARTCHAR é
ENCODING -23
SWIDTH 75 0
DWIDTH -1 0
BBX 0 0 12 18
ENDCHAR
STARTCHAR ê
ENCODING -22
SWIDTH 75 0
DWIDTH -1 0
BBX 0 0 12 18
ENDCHAR
STARTCHAR ë
ENCODING -21
SWIDTH 75 0
DWIDTH -1 0
BBX 0 0 12 18
ENDCHAR
STARTCHAR ì
ENCODING -20
SWIDTH 75 0
DWIDTH -1 0
BBX 0 0 12 18
ENDCHAR
STARTCHAR í
ENCODING -19
SWIDTH 75 0
DWIDTH -1 0
BBX 0 0 12 18
ENDCHAR
STARTCHAR î
ENCODING -18
SWIDTH 75 0
DWIDTH -1 0
BBX 0 0 12 18
ENDCHAR
STARTCHAR ï
ENCODING -17
SWIDTH 75 0
DWIDTH -1 0
BBX 0 0 12 18
ENDCHAR
STARTCHAR ñ
ENCODING -15
SWIDTH 75 0
DWIDTH -1 0
BBX 0 0 12 18
ENDCHAR
STARTCHAR ò
ENCODING -14
SWIDTH 75 0
DWIDTH -1 0
BBX 0 0 12 18
ENDCHAR
STARTCHAR ó
ENCODING -13
SWIDTH 75 0
DWIDTH -1 0
BBX 0 0 12 18
ENDCHAR
STARTCHAR ô
ENCODING -12
SWIDTH 75 0
DWIDTH -1 0
BBX 0 0 12 18
ENDCHAR
STARTCHAR ö
ENCODING -10
SWIDTH 75 0
DWIDTH -1 0
BBX 0 0 12 18
ENDCHAR
STARTCHAR ø
ENCODING -8
SWIDTH 75 0
DWIDTH -1 0
BBX 0 0 12 18
ENDCHAR
STARTCHAR ù
ENCODING -7
SWIDTH 75 0
DWIDTH -1 0
BBX 0 0 12 18
ENDCHAR
STARTCHAR ú
ENCODING -6
SWIDTH 75 0
DWIDTH -1 0
BBX 0 0 12 18
ENDCHAR
STARTCHAR û
ENCODING -5
SWIDTH 75 0
DWIDTH -1 0
BBX 0 0 12 18
ENDCHAR
STARTCHAR ü
ENCODING -4
SWIDTH 75 0
DWIDTH -1 0
BBX 0 0 12 18
ENDCHAR
STARTCHAR ÿ
ENCODING -1
SWIDTH 75 0
DWIDTH -1 0
BBX 0 0 12 18
ENDCHAR
ENDFONT
