STARTFONT 2.1
COMMENT Lumiplan font build using LumiStudio
FONT Duhamel 24/24 1-UltraCondensed
SIZE 24 75 75
FONTBOUNDINGBOX 9 24 0 0
STARTPROPERTIES 1
Copyright "Copyright (c) 2021 Lumiplan"
ENDPROPERTIES
CHARS 189
STARTCHAR 
ENCODING 14
SWIDTH 75 0
DWIDTH -1 0
BBX 0 0 1 23
ENDCHAR
STARTCHAR  
ENCODING 32
SWIDTH 75 0
DWIDTH -1 0
BBX 0 0 2 23
ENDCHAR
STARTCHAR !
ENCODING 33
SWIDTH 75 0
DWIDTH -1 0
BBX 3 24 0 0
BITMAP
E0
E0
E0
E0
E0
E0
E0
E0
E0
E0
E0
E0
E0
E0
E0
E0
E0
E0
E0
E0
00
E0
E0
E0
ENDCHAR
STARTCHAR "
ENCODING 34
SWIDTH 75 0
DWIDTH -1 0
BBX 6 4 0 20
BITMAP
6C
6C
48
90
ENDCHAR
STARTCHAR #
ENCODING 35
SWIDTH 75 0
DWIDTH -1 0
BBX 9 24 0 0
BITMAP
3600
3600
3600
FF80
FF80
FF80
3600
3600
3600
3600
3600
3600
3600
3600
3600
3600
3600
3600
FF80
FF80
FF80
3600
3600
3600
ENDCHAR
STARTCHAR $
ENCODING 36
SWIDTH 75 0
DWIDTH -1 0
BBX 9 24 0 0
BITMAP
0800
7F00
FF80
FF80
EB80
EB80
E800
E800
E800
E800
FF00
FF80
7F80
0B80
0B80
0B80
0B80
0B80
EB80
EB80
FF80
FF80
7F00
0800
ENDCHAR
STARTCHAR %
ENCODING 37
SWIDTH 75 0
DWIDTH -1 0
BBX 9 24 0 0
BITMAP
E180
E180
E180
0300
0300
0300
0600
0600
0600
0C00
0C00
0C00
1800
1800
1800
3000
3000
3000
6000
6000
6000
C380
C380
0080
ENDCHAR
STARTCHAR &
ENCODING 38
SWIDTH 75 0
DWIDTH -1 0
BBX 9 24 0 0
BITMAP
7E00
FF00
FF00
E700
E700
E700
E700
FF00
FF00
7E00
3C00
7E00
FF00
FF00
E700
E700
E700
E780
E780
E600
E700
FF80
FF80
7E00
ENDCHAR
STARTCHAR '
ENCODING 39
SWIDTH 75 0
DWIDTH -1 0
BBX 3 4 0 20
BITMAP
60
60
40
80
ENDCHAR
STARTCHAR (
ENCODING 40
SWIDTH 75 0
DWIDTH -1 0
BBX 4 24 0 0
BITMAP
70
F0
F0
E0
E0
E0
E0
E0
E0
E0
E0
E0
E0
E0
E0
E0
E0
E0
E0
E0
E0
F0
F0
70
ENDCHAR
STARTCHAR )
ENCODING 41
SWIDTH 75 0
DWIDTH -1 0
BBX 5 24 0 0
BITMAP
E0
F8
F8
78
78
78
78
78
78
78
78
78
78
78
78
78
78
78
78
78
78
F8
F8
E0
ENDCHAR
STARTCHAR *
ENCODING 42
SWIDTH 75 0
DWIDTH -1 0
BBX 9 7 0 17
BITMAP
1C00
1C00
FF80
7F00
3E00
6300
C180
ENDCHAR
STARTCHAR +
ENCODING 43
SWIDTH 75 0
DWIDTH -1 0
BBX 9 9 0 8
BITMAP
1C00
1C00
1C00
FF80
FF80
FF80
1C00
1C00
1C00
ENDCHAR
STARTCHAR ,
ENCODING 44
SWIDTH 75 0
DWIDTH -1 0
BBX 3 4 0 0
BITMAP
60
60
40
80
ENDCHAR
STARTCHAR -
ENCODING 45
SWIDTH 75 0
DWIDTH -1 0
BBX 6 3 0 11
BITMAP
FC
FC
FC
ENDCHAR
STARTCHAR .
ENCODING 46
SWIDTH 75 0
DWIDTH -1 0
BBX 3 3 0 0
BITMAP
E0
E0
E0
ENDCHAR
STARTCHAR /
ENCODING 47
SWIDTH 75 0
DWIDTH -1 0
BBX 9 24 0 0
BITMAP
0180
0180
0180
0300
0300
0300
0600
0600
0600
0C00
0C00
0C00
1800
1800
1800
3000
3000
3000
6000
6000
6000
C000
C000
C000
ENDCHAR
STARTCHAR 0
ENCODING 48
SWIDTH 75 0
DWIDTH -1 0
BBX 9 24 0 0
BITMAP
7F00
FF80
FF80
E380
E380
E380
E380
E380
E380
E380
E380
E380
E380
E380
E380
E380
E380
E380
E380
E380
E380
FF80
FF80
7F00
ENDCHAR
STARTCHAR 1
ENCODING 49
SWIDTH 75 0
DWIDTH -1 0
BBX 6 24 0 0
BITMAP
1C
3C
7C
FC
FC
DC
1C
1C
1C
1C
1C
1C
1C
1C
1C
1C
1C
1C
1C
1C
1C
1C
1C
1C
ENDCHAR
STARTCHAR 2
ENCODING 50
SWIDTH 75 0
DWIDTH -1 0
BBX 9 24 0 0
BITMAP
7F00
FF80
FF80
E380
E380
E380
0380
0380
0380
0380
0780
0F80
1F00
3E00
7C00
F800
F000
E000
E000
E000
E000
FF80
FF80
FF80
ENDCHAR
STARTCHAR 3
ENCODING 51
SWIDTH 75 0
DWIDTH -1 0
BBX 9 24 0 0
BITMAP
7F00
FF80
FF80
E380
E380
E380
0380
0380
0380
0380
0F80
0F80
0F80
0380
0380
0380
0380
0380
E380
E380
E380
FF80
FF80
7F00
ENDCHAR
STARTCHAR 4
ENCODING 52
SWIDTH 75 0
DWIDTH -1 0
BBX 9 24 0 0
BITMAP
0F00
1F00
3F00
7F00
F700
E700
E700
E700
E700
E700
E700
E700
E700
E700
FF80
FF80
FF80
0700
0700
0700
0700
0700
0700
0700
ENDCHAR
STARTCHAR 5
ENCODING 53
SWIDTH 75 0
DWIDTH -1 0
BBX 9 24 0 0
BITMAP
FF80
FF80
FF80
E000
E000
E000
E000
E000
E000
E000
FF00
FF80
FF80
0380
0380
0380
0380
0380
0380
E380
E380
FF80
FF80
7F00
ENDCHAR
STARTCHAR 6
ENCODING 54
SWIDTH 75 0
DWIDTH -1 0
BBX 9 24 0 0
BITMAP
7F00
FF00
FF00
E000
E000
E000
E000
E000
E000
E000
FF00
FF80
FF80
E380
E380
E380
E380
E380
E380
E380
E380
FF80
FF80
7F00
ENDCHAR
STARTCHAR 7
ENCODING 55
SWIDTH 75 0
DWIDTH -1 0
BBX 9 24 0 0
BITMAP
FF80
FF80
FF80
0380
0380
0380
0380
0380
0380
0380
0700
0E00
1C00
1C00
1C00
1C00
1C00
1C00
1C00
1C00
1C00
1C00
1C00
1C00
ENDCHAR
STARTCHAR 8
ENCODING 56
SWIDTH 75 0
DWIDTH -1 0
BBX 9 24 0 0
BITMAP
7F00
FF80
FF80
E380
E380
E380
E380
E380
E380
E380
FF80
7F00
7F00
E380
E380
E380
E380
E380
E380
E380
E380
FF80
FF80
7F00
ENDCHAR
STARTCHAR 9
ENCODING 57
SWIDTH 75 0
DWIDTH -1 0
BBX 9 24 0 0
BITMAP
7F00
FF80
FF80
E380
E380
E380
E380
E380
E380
E380
FF80
FF80
7F80
0380
0380
0380
0380
0380
0380
0380
0380
7F80
7F80
7F00
ENDCHAR
STARTCHAR :
ENCODING 58
SWIDTH 75 0
DWIDTH -1 0
BBX 3 8 0 0
BITMAP
E0
E0
E0
00
00
E0
E0
E0
ENDCHAR
STARTCHAR ;
ENCODING 59
SWIDTH 75 0
DWIDTH -1 0
BBX 4 9 0 0
BITMAP
70
70
70
00
00
70
70
70
80
ENDCHAR
STARTCHAR <
ENCODING 60
SWIDTH 75 0
DWIDTH -1 0
BBX 9 20 0 0
BITMAP
0380
0780
0F80
1F00
3E00
7C00
F800
F000
E000
E000
E000
E000
F000
F800
7C00
3E00
1F00
0F80
0780
0380
ENDCHAR
STARTCHAR =
ENCODING 61
SWIDTH 75 0
DWIDTH -1 0
BBX 9 8 0 6
BITMAP
FF80
FF80
FF80
0000
0000
FF80
FF80
FF80
ENDCHAR
STARTCHAR >
ENCODING 62
SWIDTH 75 0
DWIDTH -1 0
BBX 9 20 0 0
BITMAP
E000
F000
F800
7C00
3E00
1F00
0F80
0780
0380
0380
0380
0380
0780
0F80
1F00
3E00
7C00
F800
F000
E000
ENDCHAR
STARTCHAR ?
ENCODING 63
SWIDTH 75 0
DWIDTH -1 0
BBX 9 24 0 0
BITMAP
7F00
FF80
FF80
E380
E380
E380
0380
0380
0380
0380
0380
0380
0700
0E00
1E00
1C00
1C00
1C00
1C00
1C00
0000
1C00
1C00
1C00
ENDCHAR
STARTCHAR @
ENCODING 64
SWIDTH 75 0
DWIDTH -1 0
BBX 9 24 0 0
BITMAP
7F00
FF80
FF80
E380
E380
E380
E380
E380
EF80
EF80
EF00
E000
E000
E000
E000
E000
E000
E000
E000
E380
E380
FF80
7F00
3E00
ENDCHAR
STARTCHAR A
ENCODING 65
SWIDTH 75 0
DWIDTH -1 0
BBX 9 24 0 0
BITMAP
7F00
FF80
FF80
E380
E380
E380
E380
E380
E380
E380
FF80
FF80
FF80
E380
E380
E380
E380
E380
E380
E380
E380
E380
E380
E380
ENDCHAR
STARTCHAR B
ENCODING 66
SWIDTH 75 0
DWIDTH -1 0
BBX 9 24 0 0
BITMAP
FF00
FF80
FF80
E380
E380
E380
E380
E380
E380
E380
FF00
FE00
FF00
E380
E380
E380
E380
E380
E380
E380
E380
FF80
FF80
FF00
ENDCHAR
STARTCHAR C
ENCODING 67
SWIDTH 75 0
DWIDTH -1 0
BBX 9 24 0 0
BITMAP
7F00
FF80
FF80
E380
E000
E000
E000
E000
E000
E000
E000
E000
E000
E000
E000
E000
E000
E000
E000
E000
E380
FF80
FF80
7F00
ENDCHAR
STARTCHAR D
ENCODING 68
SWIDTH 75 0
DWIDTH -1 0
BBX 9 24 0 0
BITMAP
FF00
FF80
FF80
E380
E380
E380
E380
E380
E380
E380
E380
E380
E380
E380
E380
E380
E380
E380
E380
E380
E380
FF80
FF80
FF00
ENDCHAR
STARTCHAR E
ENCODING 69
SWIDTH 75 0
DWIDTH -1 0
BBX 9 24 0 0
BITMAP
FF80
FF80
FF80
E000
E000
E000
E000
E000
E000
E000
FE00
FE00
FE00
E000
E000
E000
E000
E000
E000
E000
E000
FF80
FF80
FF80
ENDCHAR
STARTCHAR F
ENCODING 70
SWIDTH 75 0
DWIDTH -1 0
BBX 9 24 0 0
BITMAP
FF80
FF80
FF80
E000
E000
E000
E000
E000
E000
E000
FE00
FE00
FE00
E000
E000
E000
E000
E000
E000
E000
E000
E000
E000
E000
ENDCHAR
STARTCHAR G
ENCODING 71
SWIDTH 75 0
DWIDTH -1 0
BBX 9 24 0 0
BITMAP
7F00
FF80
FF80
E380
E000
E000
E000
E000
E000
E000
EF80
EF80
EF80
E380
E380
E380
E380
E380
E380
E380
E380
FF80
FF80
7F00
ENDCHAR
STARTCHAR H
ENCODING 72
SWIDTH 75 0
DWIDTH -1 0
BBX 9 24 0 0
BITMAP
E380
E380
E380
E380
E380
E380
E380
E380
E380
E380
FF80
FF80
FF80
E380
E380
E380
E380
E380
E380
E380
E380
E380
E380
E380
ENDCHAR
STARTCHAR I
ENCODING 73
SWIDTH 75 0
DWIDTH -1 0
BBX 3 24 0 0
BITMAP
E0
E0
E0
E0
E0
E0
E0
E0
E0
E0
E0
E0
E0
E0
E0
E0
E0
E0
E0
E0
E0
E0
E0
E0
ENDCHAR
STARTCHAR J
ENCODING 74
SWIDTH 75 0
DWIDTH -1 0
BBX 9 24 0 0
BITMAP
0380
0380
0380
0380
0380
0380
0380
0380
0380
0380
0380
0380
0380
0380
0380
0380
0380
0380
E380
E380
E380
FF80
FF80
7F00
ENDCHAR
STARTCHAR K
ENCODING 75
SWIDTH 75 0
DWIDTH -1 0
BBX 9 24 0 0
BITMAP
E180
E180
E380
E380
E300
E700
E700
E600
EE00
EE00
FC00
FC00
FC00
FC00
EE00
EE00
E600
E700
E700
E300
E380
E380
E180
E180
ENDCHAR
STARTCHAR L
ENCODING 76
SWIDTH 75 0
DWIDTH -1 0
BBX 9 24 0 0
BITMAP
E000
E000
E000
E000
E000
E000
E000
E000
E000
E000
E000
E000
E000
E000
E000
E000
E000
E000
E000
E000
E000
FF80
FF80
FF80
ENDCHAR
STARTCHAR M
ENCODING 77
SWIDTH 75 0
DWIDTH -1 0
BBX 9 24 0 0
BITMAP
C180
E380
F780
FF80
FF80
EB80
E380
E380
E380
E380
E380
E380
E380
E380
E380
E380
E380
E380
E380
E380
E380
E380
E380
E380
ENDCHAR
STARTCHAR N
ENCODING 78
SWIDTH 75 0
DWIDTH -1 0
BBX 9 24 0 0
BITMAP
C380
E380
F380
FB80
FF80
EF80
E780
E380
E380
E380
E380
E380
E380
E380
E380
E380
E380
E380
E380
E380
E380
E380
E380
E380
ENDCHAR
STARTCHAR O
ENCODING 79
SWIDTH 75 0
DWIDTH -1 0
BBX 9 24 0 0
BITMAP
7F00
FF80
FF80
E380
E380
E380
E380
E380
E380
E380
E380
E380
E380
E380
E380
E380
E380
E380
E380
E380
E380
FF80
FF80
7F00
ENDCHAR
STARTCHAR P
ENCODING 80
SWIDTH 75 0
DWIDTH -1 0
BBX 9 24 0 0
BITMAP
FF00
FF80
FF80
E380
E380
E380
E380
E380
E380
E380
FF80
FF80
FF00
E000
E000
E000
E000
E000
E000
E000
E000
E000
E000
E000
ENDCHAR
STARTCHAR Q
ENCODING 81
SWIDTH 75 0
DWIDTH -1 0
BBX 9 24 0 0
BITMAP
7F00
FF80
FF80
E380
E380
E380
E380
E380
E380
E380
E380
E380
E380
E380
E380
E380
E380
E380
E380
E180
E680
F700
FB80
7D80
ENDCHAR
STARTCHAR R
ENCODING 82
SWIDTH 75 0
DWIDTH -1 0
BBX 9 24 0 0
BITMAP
FF00
FF80
FF80
E380
E380
E380
E380
E380
E380
E380
FF80
FF80
FF00
E700
E380
E380
E380
E380
E380
E380
E380
E380
E380
E380
ENDCHAR
STARTCHAR S
ENCODING 83
SWIDTH 75 0
DWIDTH -1 0
BBX 9 24 0 0
BITMAP
7F00
FF80
FF80
E380
E380
E000
E000
E000
F000
F800
7C00
3E00
1F00
0F80
0780
0380
0380
0380
0380
E380
E380
FF80
FF80
7F00
ENDCHAR
STARTCHAR T
ENCODING 84
SWIDTH 75 0
DWIDTH -1 0
BBX 9 24 0 0
BITMAP
FF80
FF80
FF80
1C00
1C00
1C00
1C00
1C00
1C00
1C00
1C00
1C00
1C00
1C00
1C00
1C00
1C00
1C00
1C00
1C00
1C00
1C00
1C00
1C00
ENDCHAR
STARTCHAR U
ENCODING 85
SWIDTH 75 0
DWIDTH -1 0
BBX 9 24 0 0
BITMAP
E380
E380
E380
E380
E380
E380
E380
E380
E380
E380
E380
E380
E380
E380
E380
E380
E380
E380
E380
E380
E380
FF80
FF80
7F00
ENDCHAR
STARTCHAR V
ENCODING 86
SWIDTH 75 0
DWIDTH -1 0
BBX 9 24 0 0
BITMAP
E380
E380
E380
E380
E380
E380
E380
E380
E380
E380
E380
E380
E380
E380
E380
E380
E380
E380
E380
E380
7700
3E00
1C00
0800
ENDCHAR
STARTCHAR W
ENCODING 87
SWIDTH 75 0
DWIDTH -1 0
BBX 9 24 0 0
BITMAP
E380
E380
E380
E380
E380
E380
E380
E380
E380
E380
E380
E380
E380
E380
E380
E380
E380
E380
E380
E380
FF80
FF80
E380
C180
ENDCHAR
STARTCHAR X
ENCODING 88
SWIDTH 75 0
DWIDTH -1 0
BBX 9 24 0 0
BITMAP
E380
E380
E380
E380
E380
E380
F780
FF80
7F00
3E00
1C00
1C00
3E00
7F00
FF80
F780
E380
E380
E380
E380
E380
E380
E380
E380
ENDCHAR
STARTCHAR Y
ENCODING 89
SWIDTH 75 0
DWIDTH -1 0
BBX 9 24 0 0
BITMAP
E380
E380
E380
E380
E380
E380
E380
E380
E380
7700
3E00
1C00
1C00
1C00
1C00
1C00
1C00
1C00
1C00
1C00
1C00
1C00
1C00
1C00
ENDCHAR
STARTCHAR Z
ENCODING 90
SWIDTH 75 0
DWIDTH -1 0
BBX 9 24 0 0
BITMAP
FF80
FF80
FF80
0380
0380
0380
0380
0380
0780
0F00
1E00
3C00
7800
F000
E000
E000
E000
E000
E000
E000
E000
FF80
FF80
FF80
ENDCHAR
STARTCHAR [
ENCODING 91
SWIDTH 75 0
DWIDTH -1 0
BBX 5 24 0 0
BITMAP
F8
F8
F8
E0
E0
E0
E0
E0
E0
E0
E0
E0
E0
E0
E0
E0
E0
E0
E0
E0
E0
F8
F8
F8
ENDCHAR
STARTCHAR \
ENCODING 92
SWIDTH 75 0
DWIDTH -1 0
BBX 9 24 0 0
BITMAP
C000
C000
E000
E000
6000
7000
7000
3000
3800
3800
1800
1C00
1C00
0C00
0E00
0E00
0600
0700
0700
0300
0380
0380
0180
0180
ENDCHAR
STARTCHAR ]
ENCODING 93
SWIDTH 75 0
DWIDTH -1 0
BBX 5 24 0 0
BITMAP
F8
F8
F8
38
38
38
38
38
38
38
38
38
38
38
38
38
38
38
38
38
38
F8
F8
F8
ENDCHAR
STARTCHAR ^
ENCODING 94
SWIDTH 75 0
DWIDTH -1 0
BBX 9 5 0 19
BITMAP
1C00
3E00
7F00
F780
E380
ENDCHAR
STARTCHAR _
ENCODING 95
SWIDTH 75 0
DWIDTH -1 0
BBX 6 3 0 0
BITMAP
FC
FC
FC
ENDCHAR
STARTCHAR `
ENCODING 96
SWIDTH 75 0
DWIDTH -1 0
BBX 3 4 0 20
BITMAP
C0
C0
40
20
ENDCHAR
STARTCHAR a
ENCODING 97
SWIDTH 75 0
DWIDTH -1 0
BBX 9 14 0 0
BITMAP
7F00
7F80
7F80
0380
0380
7B80
FF80
FF80
E780
E380
E380
FF80
FF80
7B80
ENDCHAR
STARTCHAR b
ENCODING 98
SWIDTH 75 0
DWIDTH -1 0
BBX 9 24 0 0
BITMAP
E000
E000
E000
E000
E000
E000
E000
E000
E000
E000
EF00
FF80
FF80
F380
E380
E380
E380
E380
E380
E380
F380
FF80
FF80
EF00
ENDCHAR
STARTCHAR c
ENCODING 99
SWIDTH 75 0
DWIDTH -1 0
BBX 9 14 0 0
BITMAP
7F00
FF80
FF80
E380
E000
E000
E000
E000
E000
E000
E380
FF80
FF80
7F00
ENDCHAR
STARTCHAR d
ENCODING 100
SWIDTH 75 0
DWIDTH -1 0
BBX 9 24 0 0
BITMAP
0380
0380
0380
0380
0380
0380
0380
0380
0380
0380
7B80
FF80
FF80
E780
E380
E380
E380
E380
E380
E380
E780
FF80
FF80
7B80
ENDCHAR
STARTCHAR e
ENCODING 101
SWIDTH 75 0
DWIDTH -1 0
BBX 9 14 0 0
BITMAP
7F00
FF80
FF80
E380
E380
FF80
FF00
FF00
E000
E000
E000
FF80
FF80
7F00
ENDCHAR
STARTCHAR f
ENCODING 102
SWIDTH 75 0
DWIDTH -1 0
BBX 9 24 0 0
BITMAP
3F00
7F80
7F80
7380
7380
7000
7000
7000
7000
7000
F800
F800
F800
7000
7000
7000
7000
7000
7000
7000
7000
7000
7000
7000
ENDCHAR
STARTCHAR g
ENCODING 103
SWIDTH 75 0
DWIDTH -1 0
BBX 9 14 0 0
BITMAP
7B80
FF80
FF80
E780
E380
FF80
FF80
7F80
0380
0380
0380
FF80
FF80
7F00
ENDCHAR
STARTCHAR h
ENCODING 104
SWIDTH 75 0
DWIDTH -1 0
BBX 9 24 0 0
BITMAP
E000
E000
E000
E000
E000
E000
E000
E000
E000
E000
EF00
FF80
FF80
F380
E380
E380
E380
E380
E380
E380
E380
E380
E380
E380
ENDCHAR
STARTCHAR i
ENCODING 105
SWIDTH 75 0
DWIDTH -1 0
BBX 3 19 0 0
BITMAP
E0
E0
E0
00
00
E0
E0
E0
E0
E0
E0
E0
E0
E0
E0
E0
E0
E0
E0
ENDCHAR
STARTCHAR j
ENCODING 106
SWIDTH 75 0
DWIDTH -1 0
BBX 9 19 0 0
BITMAP
0380
0380
0380
0000
0000
0380
0380
0380
0380
0380
0380
0380
0380
0380
E380
E380
FF80
FF80
7F00
ENDCHAR
STARTCHAR k
ENCODING 107
SWIDTH 75 0
DWIDTH -1 0
BBX 9 24 0 0
BITMAP
E000
E000
E000
E000
E000
E000
E000
E000
E000
E000
E380
E380
E380
E780
EF00
FE00
FC00
FC00
FE00
EF00
E780
E380
E380
E380
ENDCHAR
STARTCHAR l
ENCODING 108
SWIDTH 75 0
DWIDTH -1 0
BBX 3 24 0 0
BITMAP
E0
E0
E0
E0
E0
E0
E0
E0
E0
E0
E0
E0
E0
E0
E0
E0
E0
E0
E0
E0
E0
E0
E0
E0
ENDCHAR
STARTCHAR m
ENCODING 109
SWIDTH 75 0
DWIDTH -1 0
BBX 9 14 0 0
BITMAP
B180
FB80
FF80
FF80
FF80
EB80
EB80
EB80
EB80
EB80
EB80
EB80
EB80
EB80
ENDCHAR
STARTCHAR n
ENCODING 110
SWIDTH 75 0
DWIDTH -1 0
BBX 9 14 0 0
BITMAP
EE00
FF00
FF80
F380
E380
E380
E380
E380
E380
E380
E380
E380
E380
E380
ENDCHAR
STARTCHAR o
ENCODING 111
SWIDTH 75 0
DWIDTH -1 0
BBX 9 14 0 0
BITMAP
7F00
FF80
FF80
E380
E380
E380
E380
E380
E380
E380
E380
FF80
FF80
7F00
ENDCHAR
STARTCHAR p
ENCODING 112
SWIDTH 75 0
DWIDTH -1 0
BBX 9 14 0 0
BITMAP
FF00
FF80
FF80
E380
E380
FF80
FF00
FF00
E000
E000
E000
E000
E000
E000
ENDCHAR
STARTCHAR q
ENCODING 113
SWIDTH 75 0
DWIDTH -1 0
BBX 9 14 0 0
BITMAP
7F80
FF80
FF80
E380
E380
FF80
7F80
7F80
0380
0380
0380
0380
0380
0380
ENDCHAR
STARTCHAR r
ENCODING 114
SWIDTH 75 0
DWIDTH -1 0
BBX 9 14 0 0
BITMAP
EF00
FF80
FF80
F180
E000
E000
E000
E000
E000
E000
E000
E000
E000
E000
ENDCHAR
STARTCHAR s
ENCODING 115
SWIDTH 75 0
DWIDTH -1 0
BBX 9 14 0 0
BITMAP
7F00
FF80
FF80
E000
E000
FE00
7F00
3F80
0380
0380
0380
FF80
FF80
7F00
ENDCHAR
STARTCHAR t
ENCODING 116
SWIDTH 75 0
DWIDTH -1 0
BBX 9 24 0 0
BITMAP
7000
7000
7000
7000
7000
7000
7000
7000
7000
7000
F800
F800
F800
7000
7000
7000
7000
7000
7000
7000
7380
7F80
7F80
3F00
ENDCHAR
STARTCHAR u
ENCODING 117
SWIDTH 75 0
DWIDTH -1 0
BBX 9 14 0 0
BITMAP
E380
E380
E380
E380
E380
E380
E380
E380
E380
E380
E780
FF80
7F80
3B80
ENDCHAR
STARTCHAR v
ENCODING 118
SWIDTH 75 0
DWIDTH -1 0
BBX 9 14 0 0
BITMAP
E380
E380
E380
E380
E380
E380
E380
E380
E380
E380
7700
3E00
1C00
0800
ENDCHAR
STARTCHAR w
ENCODING 119
SWIDTH 75 0
DWIDTH -1 0
BBX 9 14 0 0
BITMAP
E380
E380
E380
E380
E380
E380
E380
EB80
FF80
FF80
F780
E380
C180
8080
ENDCHAR
STARTCHAR x
ENCODING 120
SWIDTH 75 0
DWIDTH -1 0
BBX 9 14 0 0
BITMAP
E380
E380
E380
E380
E380
7700
3E00
7F00
F780
E380
E380
E380
E380
E380
ENDCHAR
STARTCHAR y
ENCODING 121
SWIDTH 75 0
DWIDTH -1 0
BBX 9 14 0 0
BITMAP
E380
E380
E380
E380
E780
FF80
FF80
7B80
0380
0380
0380
FF80
FF80
7F00
ENDCHAR
STARTCHAR z
ENCODING 122
SWIDTH 75 0
DWIDTH -1 0
BBX 9 14 0 0
BITMAP
FF80
FF80
FF80
0380
0380
0700
0E00
1C00
3800
7000
E000
FF80
FF80
FF80
ENDCHAR
STARTCHAR {
ENCODING 123
SWIDTH 75 0
DWIDTH -1 0
BBX 6 24 0 0
BITMAP
3C
7C
7C
70
70
70
70
70
70
70
E0
E0
E0
70
70
70
70
70
70
70
70
7C
7C
3C
ENDCHAR
STARTCHAR |
ENCODING 124
SWIDTH 75 0
DWIDTH -1 0
BBX 3 24 0 0
BITMAP
E0
E0
E0
E0
E0
E0
E0
E0
E0
E0
E0
E0
E0
E0
E0
E0
E0
E0
E0
E0
E0
E0
E0
E0
ENDCHAR
STARTCHAR }
ENCODING 125
SWIDTH 75 0
DWIDTH -1 0
BBX 6 24 0 0
BITMAP
F0
F8
F8
38
38
38
38
38
38
38
1C
1C
1C
38
38
38
38
38
38
38
38
F8
F8
F0
ENDCHAR
STARTCHAR ~
ENCODING 126
SWIDTH 75 0
DWIDTH -1 0
BBX 9 3 0 11
BITMAP
3180
6B00
C600
ENDCHAR
STARTCHAR ¤
ENCODING -92
SWIDTH 75 0
DWIDTH -1 0
BBX 9 24 0 0
BITMAP
3F00
7F80
7F80
7380
7000
7000
7000
7000
FE00
FE00
FE00
7000
7000
FE00
FE00
FE00
7000
7000
7000
7000
7380
7F80
7F80
3F00
ENDCHAR
STARTCHAR ¦
ENCODING -90
SWIDTH 75 0
DWIDTH -1 0
BBX 9 24 0 0
BITMAP
6300
3600
1C00
0000
7F00
FF80
FF80
E380
E380
E000
F000
F800
7C00
3E00
1F00
0F80
0780
0380
0380
E380
E380
FF80
FF80
7F00
ENDCHAR
STARTCHAR ¼
ENCODING -68
SWIDTH 75 0
DWIDTH -1 0
BBX 9 24 0 0
BITMAP
7780
FF80
FF80
EE00
EE00
EE00
EE00
EE00
EE00
EE00
EF80
EF80
EF80
EE00
EE00
EE00
EE00
EE00
EE00
EE00
EE00
FF80
FF80
7780
ENDCHAR
STARTCHAR ´
ENCODING -76
SWIDTH 75 0
DWIDTH -1 0
BBX 9 24 0 0
BITMAP
6300
3600
1C00
0000
FF80
FF80
FF80
0380
0380
0380
0380
0780
0F00
1E00
3C00
7800
F000
E000
E000
E000
E000
FF80
FF80
FF80
ENDCHAR
STARTCHAR ¨
ENCODING -88
SWIDTH 75 0
DWIDTH -1 0
BBX 9 18 0 0
BITMAP
6300
3600
1C00
0000
7F00
FF80
FF80
E000
E000
FE00
7F00
3F80
0380
0380
0380
FF80
FF80
7F00
ENDCHAR
STARTCHAR ½
ENCODING -67
SWIDTH 75 0
DWIDTH -1 0
BBX 9 14 0 0
BITMAP
7F00
FF80
FF80
D980
D980
DF80
DF00
DF00
D800
D800
F800
FF80
FF80
7F00
ENDCHAR
STARTCHAR ¸
ENCODING -72
SWIDTH 75 0
DWIDTH -1 0
BBX 9 18 0 0
BITMAP
6300
3600
1C00
0000
FF80
FF80
FF80
0380
0380
0700
0E00
1C00
3800
7000
E000
FF80
FF80
FF80
ENDCHAR
STARTCHAR ¾
ENCODING -66
SWIDTH 75 0
DWIDTH -1 0
BBX 9 24 0 0
BITMAP
E380
E380
E380
0000
E380
E380
E380
E380
E380
E380
E380
E380
7F00
3E00
1C00
1C00
1C00
1C00
1C00
1C00
1C00
1C00
1C00
1C00
ENDCHAR
STARTCHAR ¡
ENCODING -95
SWIDTH 75 0
DWIDTH -1 0
BBX 3 24 0 0
BITMAP
E0
E0
E0
00
E0
E0
E0
E0
E0
E0
E0
E0
E0
E0
E0
E0
E0
E0
E0
E0
E0
E0
E0
E0
ENDCHAR
STARTCHAR ¢
ENCODING -94
SWIDTH 75 0
DWIDTH -1 0
BBX 9 24 0 0
BITMAP
0800
7F00
FF80
FF80
EB80
E800
E800
E800
E800
E800
E800
E800
E800
E800
E800
E800
E800
E800
E800
EB80
FF80
FF80
7F00
0800
ENDCHAR
STARTCHAR £
ENCODING -93
SWIDTH 75 0
DWIDTH -1 0
BBX 9 24 0 0
BITMAP
7F00
FF80
FF80
E380
E000
E000
E000
F000
7800
3800
3800
FE00
FE00
FE00
3800
3800
7800
F000
E000
E000
E000
FF80
FF80
FF80
ENDCHAR
STARTCHAR ¥
ENCODING -91
SWIDTH 75 0
DWIDTH -1 0
BBX 9 24 0 0
BITMAP
E380
E380
E380
E380
E380
E380
E380
E380
7F00
3E00
1C00
1C00
7F00
7F00
1C00
7F00
7F00
1C00
1C00
1C00
1C00
1C00
1C00
1C00
ENDCHAR
STARTCHAR §
ENCODING -89
SWIDTH 75 0
DWIDTH -1 0
BBX 9 24 0 0
BITMAP
7F00
FF80
FF80
E380
E380
E000
F000
F800
7C00
7E00
FF00
E780
E380
F380
7F80
3F00
1F00
0F80
0780
0380
E380
FF80
FF80
7F00
ENDCHAR
STARTCHAR ©
ENCODING -87
SWIDTH 75 0
DWIDTH -1 0
BBX 9 10 0 14
BITMAP
7F00
8080
9E80
A080
A080
A080
A080
9E80
8080
7F00
ENDCHAR
STARTCHAR ª
ENCODING -86
SWIDTH 75 0
DWIDTH -1 0
BBX 4 7 0 17
BITMAP
60
10
10
70
90
90
70
ENDCHAR
STARTCHAR «
ENCODING -85
SWIDTH 75 0
DWIDTH -1 0
BBX 9 9 0 8
BITMAP
0880
1980
3300
6600
CC00
6600
3300
1980
0880
ENDCHAR
STARTCHAR ¬
ENCODING -84
SWIDTH 75 0
DWIDTH -1 0
BBX 9 5 0 10
BITMAP
FF80
FF80
FF80
0380
0380
ENDCHAR
STARTCHAR ®
ENCODING -82
SWIDTH 75 0
DWIDTH -1 0
BBX 9 10 0 14
BITMAP
7F00
8080
9C80
A280
A280
BC80
A280
A280
8080
7F80
ENDCHAR
STARTCHAR ¯
ENCODING -81
SWIDTH 75 0
DWIDTH -1 0
BBX 8 3 0 21
BITMAP
FF
FF
FF
ENDCHAR
STARTCHAR °
ENCODING -80
SWIDTH 75 0
DWIDTH -1 0
BBX 4 6 0 18
BITMAP
60
90
90
90
90
60
ENDCHAR
STARTCHAR ±
ENCODING -79
SWIDTH 75 0
DWIDTH -1 0
BBX 9 13 0 5
BITMAP
1C00
1C00
1C00
FF80
FF80
FF80
1C00
1C00
1C00
0000
FF80
FF80
FF80
ENDCHAR
STARTCHAR ²
ENCODING -78
SWIDTH 75 0
DWIDTH -1 0
BBX 4 7 0 17
BITMAP
60
90
10
20
40
80
F0
ENDCHAR
STARTCHAR ³
ENCODING -77
SWIDTH 75 0
DWIDTH -1 0
BBX 4 7 0 17
BITMAP
60
90
10
20
10
90
60
ENDCHAR
STARTCHAR µ
ENCODING -75
SWIDTH 75 0
DWIDTH -1 0
BBX 9 18 0 0
BITMAP
E380
E380
E380
E380
E380
E380
E780
FF80
FF80
FB80
E000
E000
E000
E000
E000
E000
E000
E000
ENDCHAR
STARTCHAR ·
ENCODING -73
SWIDTH 75 0
DWIDTH -1 0
BBX 3 3 0 11
BITMAP
E0
E0
E0
ENDCHAR
STARTCHAR ¹
ENCODING -71
SWIDTH 75 0
DWIDTH -1 0
BBX 3 7 0 17
BITMAP
20
60
A0
20
20
20
20
ENDCHAR
STARTCHAR º
ENCODING -70
SWIDTH 75 0
DWIDTH -1 0
BBX 4 7 0 17
BITMAP
60
90
90
90
90
90
60
ENDCHAR
STARTCHAR »
ENCODING -69
SWIDTH 75 0
DWIDTH -1 0
BBX 9 9 0 8
BITMAP
8800
CC00
6600
3300
1980
3300
6600
CC00
8800
ENDCHAR
STARTCHAR ¿
ENCODING -65
SWIDTH 75 0
DWIDTH -1 0
BBX 9 24 0 0
BITMAP
1C00
1C00
1C00
0000
1C00
1C00
1C00
1C00
1C00
3C00
3800
7000
E000
E000
E000
E000
E000
E000
E380
E380
E380
FF80
FF80
7F00
ENDCHAR
STARTCHAR À
ENCODING -64
SWIDTH 75 0
DWIDTH -1 0
BBX 9 24 0 0
BITMAP
3000
1800
0C00
0000
7F00
FF80
FF80
E380
E380
E380
E380
E380
E380
FF80
FF80
FF80
E380
E380
E380
E380
E380
E380
E380
E380
ENDCHAR
STARTCHAR Á
ENCODING -63
SWIDTH 75 0
DWIDTH -1 0
BBX 9 24 0 0
BITMAP
0600
0C00
1800
0000
7F00
FF80
FF80
E380
E380
E380
E380
E380
E380
FF80
FF80
FF80
E380
E380
E380
E380
E380
E380
E380
E380
ENDCHAR
STARTCHAR Â
ENCODING -62
SWIDTH 75 0
DWIDTH -1 0
BBX 9 24 0 0
BITMAP
1C00
3600
6300
0000
7F00
FF80
FF80
E380
E380
E380
E380
E380
E380
FF80
FF80
FF80
E380
E380
E380
E380
E380
E380
E380
E380
ENDCHAR
STARTCHAR Ã
ENCODING -61
SWIDTH 75 0
DWIDTH -1 0
BBX 9 24 0 0
BITMAP
3180
6B00
C600
0000
7F00
FF80
FF80
E380
E380
E380
E380
E380
E380
FF80
FF80
FF80
E380
E380
E380
E380
E380
E380
E380
E380
ENDCHAR
STARTCHAR Ä
ENCODING -60
SWIDTH 75 0
DWIDTH -1 0
BBX 9 24 0 0
BITMAP
E380
E380
E380
0000
7F00
FF80
FF80
E380
E380
E380
E380
E380
E380
FF80
FF80
FF80
E380
E380
E380
E380
E380
E380
E380
E380
ENDCHAR
STARTCHAR Å
ENCODING -59
SWIDTH 75 0
DWIDTH -1 0
BBX 9 24 0 0
BITMAP
1800
2400
1800
0000
7F00
FF80
FF80
E380
E380
E380
E380
E380
E380
FF80
FF80
FF80
E380
E380
E380
E380
E380
E380
E380
E380
ENDCHAR
STARTCHAR Æ
ENCODING -58
SWIDTH 75 0
DWIDTH -1 0
BBX 9 24 0 0
BITMAP
7F80
FF80
FF80
EE00
EE00
EE00
EE00
EE00
EE00
EE00
EE00
FF00
FF00
FF00
EE00
EE00
EE00
EE00
EE00
EE00
EE00
EE00
EF80
EF80
ENDCHAR
STARTCHAR Ç
ENCODING -57
SWIDTH 75 0
DWIDTH -1 0
BBX 9 24 0 0
BITMAP
7F00
FF80
FF80
E380
E000
E000
E000
E000
E000
E000
E000
E000
E000
E000
E000
E000
E380
FF80
FF80
7F00
1800
1800
0C00
3800
ENDCHAR
STARTCHAR È
ENCODING -56
SWIDTH 75 0
DWIDTH -1 0
BBX 9 24 0 0
BITMAP
3000
1800
0C00
0000
FF80
FF80
FF80
E000
E000
E000
E000
E000
FE00
FE00
FE00
E000
E000
E000
E000
E000
E000
FF80
FF80
FF80
ENDCHAR
STARTCHAR É
ENCODING -55
SWIDTH 75 0
DWIDTH -1 0
BBX 9 24 0 0
BITMAP
0600
0C00
1800
0000
FF80
FF80
FF80
E000
E000
E000
E000
E000
FE00
FE00
FE00
E000
E000
E000
E000
E000
E000
FF80
FF80
FF80
ENDCHAR
STARTCHAR Ê
ENCODING -54
SWIDTH 75 0
DWIDTH -1 0
BBX 9 24 0 0
BITMAP
1C00
3600
6300
0000
FF80
FF80
FF80
E000
E000
E000
E000
E000
FE00
FE00
FE00
E000
E000
E000
E000
E000
E000
FF80
FF80
FF80
ENDCHAR
STARTCHAR Ë
ENCODING -53
SWIDTH 75 0
DWIDTH -1 0
BBX 9 24 0 0
BITMAP
E380
E380
E380
0000
FF80
FF80
FF80
E000
E000
E000
E000
E000
FE00
FE00
FE00
E000
E000
E000
E000
E000
E000
FF80
FF80
FF80
ENDCHAR
STARTCHAR Ì
ENCODING -52
SWIDTH 75 0
DWIDTH -1 0
BBX 4 24 0 0
BITMAP
C0
60
30
00
E0
E0
E0
E0
E0
E0
E0
E0
E0
E0
E0
E0
E0
E0
E0
E0
E0
E0
E0
E0
ENDCHAR
STARTCHAR Í
ENCODING -51
SWIDTH 75 0
DWIDTH -1 0
BBX 4 24 0 0
BITMAP
30
60
C0
00
E0
E0
E0
E0
E0
E0
E0
E0
E0
E0
E0
E0
E0
E0
E0
E0
E0
E0
E0
E0
ENDCHAR
STARTCHAR Î
ENCODING -50
SWIDTH 75 0
DWIDTH -1 0
BBX 7 24 1 0
BITMAP
38
6C
C6
00
38
38
38
38
38
38
38
38
38
38
38
38
38
38
38
38
38
38
38
38
ENDCHAR
STARTCHAR Ï
ENCODING -49
SWIDTH 75 0
DWIDTH -1 0
BBX 9 24 0 0
BITMAP
E380
E380
E380
0000
1C00
1C00
1C00
1C00
1C00
1C00
1C00
1C00
1C00
1C00
1C00
1C00
1C00
1C00
1C00
1C00
1C00
1C00
1C00
1C00
ENDCHAR
STARTCHAR Ð
ENCODING -48
SWIDTH 75 0
DWIDTH -1 0
BBX 9 24 0 0
BITMAP
7F00
7F80
7F80
7380
7380
7380
7380
7380
7380
7380
FB80
FB80
FB80
7380
7380
7380
7380
7380
7380
7380
7380
7F80
7F80
7F00
ENDCHAR
STARTCHAR Ñ
ENCODING -47
SWIDTH 75 0
DWIDTH -1 0
BBX 9 24 0 0
BITMAP
3180
6B00
C600
0000
E380
F380
FB80
FF80
EF80
E780
E380
E380
E380
E380
E380
E380
E380
E380
E380
E380
E380
E380
E380
E380
ENDCHAR
STARTCHAR Ò
ENCODING -46
SWIDTH 75 0
DWIDTH -1 0
BBX 9 24 0 0
BITMAP
3000
1800
0C00
0000
7F00
FF80
FF80
E380
E380
E380
E380
E380
E380
E380
E380
E380
E380
E380
E380
E380
E380
FF80
FF80
7F00
ENDCHAR
STARTCHAR Ó
ENCODING -45
SWIDTH 75 0
DWIDTH -1 0
BBX 9 24 0 0
BITMAP
0600
0C00
1800
0000
7F00
FF80
FF80
E380
E380
E380
E380
E380
E380
E380
E380
E380
E380
E380
E380
E380
E380
FF80
FF80
7F00
ENDCHAR
STARTCHAR Ô
ENCODING -44
SWIDTH 75 0
DWIDTH -1 0
BBX 9 24 0 0
BITMAP
1C00
3600
6300
0000
7F00
FF80
FF80
E380
E380
E380
E380
E380
E380
E380
E380
E380
E380
E380
E380
E380
E380
FF80
FF80
7F00
ENDCHAR
STARTCHAR Õ
ENCODING -43
SWIDTH 75 0
DWIDTH -1 0
BBX 9 24 0 0
BITMAP
3180
6B00
C600
0000
7F00
FF80
FF80
E380
E380
E380
E380
E380
E380
E380
E380
E380
E380
E380
E380
E380
E380
FF80
FF80
7F00
ENDCHAR
STARTCHAR Ö
ENCODING -42
SWIDTH 75 0
DWIDTH -1 0
BBX 9 24 0 0
BITMAP
E380
E380
E380
0000
7F00
FF80
FF80
E380
E380
E380
E380
E380
E380
E380
E380
E380
E380
E380
E380
E380
E380
FF80
FF80
7F00
ENDCHAR
STARTCHAR ×
ENCODING -41
SWIDTH 75 0
DWIDTH -1 0
BBX 9 8 0 8
BITMAP
C180
E380
7700
3E00
3E00
7700
E380
C180
ENDCHAR
STARTCHAR Ø
ENCODING -40
SWIDTH 75 0
DWIDTH -1 0
BBX 9 24 0 0
BITMAP
0800
7F00
FF80
FF80
EB80
EB80
EB80
EB80
EB80
EB80
EB80
EB80
EB80
EB80
EB80
EB80
EB80
EB80
EB80
EB80
FF80
FF80
7F00
0800
ENDCHAR
STARTCHAR Ù
ENCODING -39
SWIDTH 75 0
DWIDTH -1 0
BBX 9 24 0 0
BITMAP
3000
1800
0C00
0000
E380
E380
E380
E380
E380
E380
E380
E380
E380
E380
E380
E380
E380
E380
E380
E380
E380
FF80
FF80
7F00
ENDCHAR
STARTCHAR Ú
ENCODING -38
SWIDTH 75 0
DWIDTH -1 0
BBX 9 24 0 0
BITMAP
0600
0C00
1800
0000
E380
E380
E380
E380
E380
E380
E380
E380
E380
E380
E380
E380
E380
E380
E380
E380
E380
FF80
FF80
7F00
ENDCHAR
STARTCHAR Û
ENCODING -37
SWIDTH 75 0
DWIDTH -1 0
BBX 9 24 0 0
BITMAP
1C00
3600
6300
0000
E380
E380
E380
E380
E380
E380
E380
E380
E380
E380
E380
E380
E380
E380
E380
E380
E380
FF80
FF80
7F00
ENDCHAR
STARTCHAR Ü
ENCODING -36
SWIDTH 75 0
DWIDTH -1 0
BBX 9 24 0 0
BITMAP
E380
E380
E380
0000
E380
E380
E380
E380
E380
E380
E380
E380
E380
E380
E380
E380
E380
E380
E380
E380
E380
FF80
FF80
7F00
ENDCHAR
STARTCHAR Ý
ENCODING -35
SWIDTH 75 0
DWIDTH -1 0
BBX 9 24 0 0
BITMAP
E380
E380
E380
0000
E380
E380
E380
E380
E380
E380
E380
E380
7F00
3E00
1C00
1C00
1C00
1C00
1C00
1C00
1C00
1C00
1C00
1C00
ENDCHAR
STARTCHAR Þ
ENCODING -34
SWIDTH 75 0
DWIDTH -1 0
BBX 8 24 0 0
BITMAP
E0
E0
E0
E0
E0
FE
FF
FF
E7
E7
E7
E7
E7
FF
FE
FE
E0
E0
E0
E0
E0
E0
E0
E0
ENDCHAR
STARTCHAR ß
ENCODING -33
SWIDTH 75 0
DWIDTH -1 0
BBX 9 24 0 0
BITMAP
7F00
FF80
FF80
E380
E380
E380
E380
E380
E380
EF80
EF00
EF80
E380
E380
E380
E380
E380
E380
E380
E380
E380
EF80
EF80
EF00
ENDCHAR
STARTCHAR à
ENCODING -32
SWIDTH 75 0
DWIDTH -1 0
BBX 9 18 0 0
BITMAP
3000
1800
0C00
0000
7F00
7F80
7F80
0380
0380
7B80
FF80
FF80
E780
E380
E380
FF80
FF80
7B80
ENDCHAR
STARTCHAR á
ENCODING -31
SWIDTH 75 0
DWIDTH -1 0
BBX 9 18 0 0
BITMAP
0600
0C00
1800
0000
7F00
7F80
7F80
0380
0380
7B80
FF80
FF80
E780
E380
E380
FF80
FF80
7B80
ENDCHAR
STARTCHAR â
ENCODING -30
SWIDTH 75 0
DWIDTH -1 0
BBX 9 18 0 0
BITMAP
1C00
3600
6300
0000
7F00
7F80
7F80
0380
0380
7B80
FF80
FF80
E780
E380
E380
FF80
FF80
7B80
ENDCHAR
STARTCHAR ã
ENCODING -29
SWIDTH 75 0
DWIDTH -1 0
BBX 9 18 0 0
BITMAP
3180
6B00
C600
0000
7F00
7F80
7F80
0380
0380
7B80
FF80
FF80
E780
E380
E380
FF80
FF80
7B80
ENDCHAR
STARTCHAR ä
ENCODING -28
SWIDTH 75 0
DWIDTH -1 0
BBX 9 18 0 0
BITMAP
E380
E380
E380
0000
7F00
7F80
7F80
0380
0380
7B80
FF80
FF80
E780
E380
E380
FF80
FF80
7B80
ENDCHAR
STARTCHAR å
ENCODING -27
SWIDTH 75 0
DWIDTH -1 0
BBX 9 18 0 0
BITMAP
1800
2400
1800
0000
7F00
7F80
7F80
0380
0380
7B80
FF80
FF80
E780
E380
E380
FF80
FF80
7B80
ENDCHAR
STARTCHAR æ
ENCODING -26
SWIDTH 75 0
DWIDTH -1 0
BBX 9 14 0 0
BITMAP
7F00
7F80
7F80
0D80
0D80
7F80
FF00
FF00
EC00
EC00
EC00
FF80
FF80
6F00
ENDCHAR
STARTCHAR ç
ENCODING -25
SWIDTH 75 0
DWIDTH -1 0
BBX 9 14 0 0
BITMAP
7F00
FF80
FF80
E380
E000
E000
E000
E000
E380
FF80
FF80
7F00
1800
3800
ENDCHAR
STARTCHAR è
ENCODING -24
SWIDTH 75 0
DWIDTH -1 0
BBX 9 18 0 0
BITMAP
3000
1800
0C00
0000
7F00
FF80
FF80
E380
E380
FF80
FF00
FF00
E000
E000
E000
FF80
FF80
7F00
ENDCHAR
STARTCHAR é
ENCODING -23
SWIDTH 75 0
DWIDTH -1 0
BBX 9 18 0 0
BITMAP
0600
0C00
1800
0000
7F00
FF80
FF80
E380
E380
FF80
FF00
FF00
E000
E000
E000
FF80
FF80
7F00
ENDCHAR
STARTCHAR ê
ENCODING -22
SWIDTH 75 0
DWIDTH -1 0
BBX 9 18 0 0
BITMAP
1C00
3600
6300
0000
7F00
FF80
FF80
E380
E380
FF80
FF00
FF00
E000
E000
E000
FF80
FF80
7F00
ENDCHAR
STARTCHAR ë
ENCODING -21
SWIDTH 75 0
DWIDTH -1 0
BBX 9 18 0 0
BITMAP
E380
E380
E380
0000
7F00
FF80
FF80
E380
E380
FF80
FF00
FF00
E000
E000
E000
FF80
FF80
7F00
ENDCHAR
STARTCHAR ì
ENCODING -20
SWIDTH 75 0
DWIDTH -1 0
BBX 4 18 0 0
BITMAP
C0
60
30
00
E0
E0
E0
E0
E0
E0
E0
E0
E0
E0
E0
E0
E0
E0
ENDCHAR
STARTCHAR í
ENCODING -19
SWIDTH 75 0
DWIDTH -1 0
BBX 4 18 0 0
BITMAP
30
60
C0
00
E0
E0
E0
E0
E0
E0
E0
E0
E0
E0
E0
E0
E0
E0
ENDCHAR
STARTCHAR î
ENCODING -18
SWIDTH 75 0
DWIDTH -1 0
BBX 7 18 1 0
BITMAP
38
6C
C6
00
38
38
38
38
38
38
38
38
38
38
38
38
38
38
ENDCHAR
STARTCHAR ï
ENCODING -17
SWIDTH 75 0
DWIDTH -1 0
BBX 9 18 0 0
BITMAP
E380
E380
E380
0000
1C00
1C00
1C00
1C00
1C00
1C00
1C00
1C00
1C00
1C00
1C00
1C00
1C00
1C00
ENDCHAR
STARTCHAR ð
ENCODING -16
SWIDTH 75 0
DWIDTH -1 0
BBX 9 19 0 0
BITMAP
3600
1C00
1C00
3600
0000
7F00
FF80
FF80
E380
E380
E380
E380
E380
E380
E380
E380
FF80
FF80
7F00
ENDCHAR
STARTCHAR ñ
ENCODING -15
SWIDTH 75 0
DWIDTH -1 0
BBX 9 18 0 0
BITMAP
3180
6B00
C600
0000
EE00
FF00
FF80
F380
E380
E380
E380
E380
E380
E380
E380
E380
E380
E380
ENDCHAR
STARTCHAR ò
ENCODING -14
SWIDTH 75 0
DWIDTH -1 0
BBX 9 18 0 0
BITMAP
3000
1800
0C00
0000
7F00
FF80
FF80
E380
E380
E380
E380
E380
E380
E380
E380
FF80
FF80
7F00
ENDCHAR
STARTCHAR ó
ENCODING -13
SWIDTH 75 0
DWIDTH -1 0
BBX 9 18 0 0
BITMAP
0600
0C00
1800
0000
7F00
FF80
FF80
E380
E380
E380
E380
E380
E380
E380
E380
FF80
FF80
7F00
ENDCHAR
STARTCHAR ô
ENCODING -12
SWIDTH 75 0
DWIDTH -1 0
BBX 9 18 0 0
BITMAP
1C00
3600
6300
0000
7F00
FF80
FF80
E380
E380
E380
E380
E380
E380
E380
E380
FF80
FF80
7F00
ENDCHAR
STARTCHAR õ
ENCODING -11
SWIDTH 75 0
DWIDTH -1 0
BBX 9 18 0 0
BITMAP
3180
6B00
C600
0000
7F00
FF80
FF80
E380
E380
E380
E380
E380
E380
E380
E380
FF80
FF80
7F00
ENDCHAR
STARTCHAR ö
ENCODING -10
SWIDTH 75 0
DWIDTH -1 0
BBX 9 18 0 0
BITMAP
E380
E380
E380
0000
7F00
FF80
FF80
E380
E380
E380
E380
E380
E380
E380
E380
FF80
FF80
7F00
ENDCHAR
STARTCHAR ÷
ENCODING -9
SWIDTH 75 0
DWIDTH -1 0
BBX 9 11 0 2
BITMAP
1C00
1C00
1C00
0000
FF80
FF80
FF80
0000
1C00
1C00
1C00
ENDCHAR
STARTCHAR ø
ENCODING -8
SWIDTH 75 0
DWIDTH -1 0
BBX 9 15 0 0
BITMAP
0800
7F00
FF80
FF80
EB80
EB80
EB80
EB80
EB80
EB80
EB80
FF80
FF80
7F00
0800
ENDCHAR
STARTCHAR ù
ENCODING -7
SWIDTH 75 0
DWIDTH -1 0
BBX 9 18 0 0
BITMAP
3000
1800
0C00
0000
E380
E380
E380
E380
E380
E380
E380
E380
E380
E380
E780
FF80
7F80
3B80
ENDCHAR
STARTCHAR ú
ENCODING -6
SWIDTH 75 0
DWIDTH -1 0
BBX 9 18 0 0
BITMAP
0600
0C00
1800
0000
E380
E380
E380
E380
E380
E380
E380
E380
E380
E380
E780
FF80
7F80
3B80
ENDCHAR
STARTCHAR û
ENCODING -5
SWIDTH 75 0
DWIDTH -1 0
BBX 9 18 0 0
BITMAP
1C00
3600
6300
0000
E380
E380
E380
E380
E380
E380
E380
E380
E380
E380
E780
FF80
7F80
3B80
ENDCHAR
STARTCHAR ü
ENCODING -4
SWIDTH 75 0
DWIDTH -1 0
BBX 9 18 0 0
BITMAP
E380
E380
E380
0000
E380
E380
E380
E380
E380
E380
E380
E380
E380
E380
E780
FF80
7F80
3B80
ENDCHAR
STARTCHAR ý
ENCODING -3
SWIDTH 75 0
DWIDTH -1 0
BBX 9 18 0 0
BITMAP
0600
0C00
1800
0000
E380
E380
E380
E380
E380
FF80
FF80
7F80
0380
0380
0380
FF80
FF80
7F00
ENDCHAR
STARTCHAR þ
ENCODING -2
SWIDTH 75 0
DWIDTH -1 0
BBX 9 24 0 0
BITMAP
E000
E000
E000
E000
E000
E000
EF00
FF80
FF80
F380
E380
E380
E380
E380
E380
F380
FF80
FF80
EF00
E000
E000
E000
E000
E000
ENDCHAR
STARTCHAR ÿ
ENCODING -1
SWIDTH 75 0
DWIDTH -1 0
BBX 9 18 0 0
BITMAP
E380
E380
E380
0000
E380
E380
E380
E380
E380
FF80
FF80
7F80
0380
0380
0380
FF80
FF80
7F00
ENDCHAR
ENDFONT
