STARTFONT 2.1
COMMENT Lumiplan font build using LumiStudio
FONT Parisine 12 Bold
SIZE 12 75 75
FONTBOUNDINGBOX 14 12 0 0
STARTPROPERTIES 1
Copyright "Copyright (c) 2021 Lumiplan"
ENDPROPERTIES
CHARS 145
STARTCHAR 
ENCODING 14
SWIDTH 75 0
DWIDTH -1 0
BBX 0 0 1 11
ENDCHAR
STARTCHAR  
ENCODING 32
SWIDTH 75 0
DWIDTH -1 0
BBX 0 0 3 11
ENDCHAR
STARTCHAR !
ENCODING 33
SWIDTH 75 0
DWIDTH -1 0
BBX 2 9 0 2
BITMAP
C0
C0
C0
C0
C0
C0
00
C0
C0
ENDCHAR
STARTCHAR "
ENCODING 34
SWIDTH 75 0
DWIDTH -1 0
BBX 5 4 0 8
BITMAP
D8
D8
48
90
ENDCHAR
STARTCHAR #
ENCODING 35
SWIDTH 75 0
DWIDTH -1 0
BBX 13 12 0 0
BITMAP
1FC0
2020
4F90
8208
8208
8208
8208
8208
8208
4210
2020
1FC0
ENDCHAR
STARTCHAR $
ENCODING 36
SWIDTH 75 0
DWIDTH -1 0
BBX 13 12 0 0
BITMAP
1FC0
2020
4890
8D88
8A88
8A88
8A88
8888
8888
4890
2020
1FC0
ENDCHAR
STARTCHAR %
ENCODING 37
SWIDTH 75 0
DWIDTH -1 0
BBX 14 12 0 0
BITMAP
1FE0
2010
4008
B364
AA54
AB54
B264
AA54
AB54
4008
2010
1FE0
ENDCHAR
STARTCHAR &
ENCODING 38
SWIDTH 75 0
DWIDTH -1 0
BBX 7 9 0 2
BITMAP
70
D8
D8
D8
70
F6
DE
CC
76
ENDCHAR
STARTCHAR '
ENCODING 39
SWIDTH 75 0
DWIDTH -1 0
BBX 2 4 0 8
BITMAP
C0
C0
40
80
ENDCHAR
STARTCHAR (
ENCODING 40
SWIDTH 75 0
DWIDTH -1 0
BBX 3 11 0 0
BITMAP
60
C0
C0
C0
C0
C0
C0
C0
C0
C0
60
ENDCHAR
STARTCHAR )
ENCODING 41
SWIDTH 75 0
DWIDTH -1 0
BBX 3 11 0 0
BITMAP
C0
60
60
60
60
60
60
60
60
60
C0
ENDCHAR
STARTCHAR *
ENCODING 42
SWIDTH 75 0
DWIDTH -1 0
BBX 4 5 0 6
BITMAP
90
60
F0
60
90
ENDCHAR
STARTCHAR +
ENCODING 43
SWIDTH 75 0
DWIDTH -1 0
BBX 6 6 0 3
BITMAP
30
30
FC
FC
30
30
ENDCHAR
STARTCHAR ,
ENCODING 44
SWIDTH 75 0
DWIDTH -1 0
BBX 2 4 0 0
BITMAP
C0
C0
40
80
ENDCHAR
STARTCHAR -
ENCODING 45
SWIDTH 75 0
DWIDTH -1 0
BBX 3 2 0 5
BITMAP
E0
E0
ENDCHAR
STARTCHAR .
ENCODING 46
SWIDTH 75 0
DWIDTH -1 0
BBX 2 2 0 2
BITMAP
C0
C0
ENDCHAR
STARTCHAR /
ENCODING 47
SWIDTH 75 0
DWIDTH -1 0
BBX 4 8 0 3
BITMAP
10
30
30
60
60
C0
C0
80
ENDCHAR
STARTCHAR 0
ENCODING 48
SWIDTH 75 0
DWIDTH -1 0
BBX 6 9 0 2
BITMAP
78
CC
CC
CC
CC
CC
CC
CC
78
ENDCHAR
STARTCHAR 1
ENCODING 49
SWIDTH 75 0
DWIDTH -1 0
BBX 4 9 0 2
BITMAP
30
70
B0
30
30
30
30
30
30
ENDCHAR
STARTCHAR 2
ENCODING 50
SWIDTH 75 0
DWIDTH -1 0
BBX 5 9 0 2
BITMAP
70
98
18
18
10
20
40
F8
F8
ENDCHAR
STARTCHAR 3
ENCODING 51
SWIDTH 75 0
DWIDTH -1 0
BBX 5 9 0 2
BITMAP
70
98
18
10
70
18
18
98
70
ENDCHAR
STARTCHAR 4
ENCODING 52
SWIDTH 75 0
DWIDTH -1 0
BBX 6 9 0 2
BITMAP
38
58
58
58
98
98
FC
18
18
ENDCHAR
STARTCHAR 5
ENCODING 53
SWIDTH 75 0
DWIDTH -1 0
BBX 5 9 0 2
BITMAP
F8
F8
80
80
F0
18
18
98
70
ENDCHAR
STARTCHAR 6
ENCODING 54
SWIDTH 75 0
DWIDTH -1 0
BBX 6 9 0 2
BITMAP
38
44
C0
C0
F8
CC
CC
CC
78
ENDCHAR
STARTCHAR 7
ENCODING 55
SWIDTH 75 0
DWIDTH -1 0
BBX 5 9 0 2
BITMAP
F8
F8
08
10
20
20
60
60
60
ENDCHAR
STARTCHAR 8
ENCODING 56
SWIDTH 75 0
DWIDTH -1 0
BBX 6 9 0 2
BITMAP
78
CC
CC
CC
78
CC
CC
CC
78
ENDCHAR
STARTCHAR 9
ENCODING 57
SWIDTH 75 0
DWIDTH -1 0
BBX 6 9 0 2
BITMAP
78
CC
CC
CC
7C
0C
0C
88
70
ENDCHAR
STARTCHAR :
ENCODING 58
SWIDTH 75 0
DWIDTH -1 0
BBX 2 7 0 2
BITMAP
C0
C0
00
00
00
C0
C0
ENDCHAR
STARTCHAR ;
ENCODING 59
SWIDTH 75 0
DWIDTH -1 0
BBX 2 9 0 0
BITMAP
C0
C0
00
00
00
C0
C0
40
80
ENDCHAR
STARTCHAR <
ENCODING 60
SWIDTH 75 0
DWIDTH -1 0
BBX 3 5 0 3
BITMAP
20
60
C0
60
20
ENDCHAR
STARTCHAR =
ENCODING 61
SWIDTH 75 0
DWIDTH -1 0
BBX 3 5 0 3
BITMAP
E0
E0
00
E0
E0
ENDCHAR
STARTCHAR >
ENCODING 62
SWIDTH 75 0
DWIDTH -1 0
BBX 3 5 0 3
BITMAP
80
C0
60
C0
80
ENDCHAR
STARTCHAR ?
ENCODING 63
SWIDTH 75 0
DWIDTH -1 0
BBX 5 9 0 2
BITMAP
70
98
18
18
30
60
00
60
60
ENDCHAR
STARTCHAR @
ENCODING 64
SWIDTH 75 0
DWIDTH -1 0
BBX 4 2 0 5
BITMAP
F0
F0
ENDCHAR
STARTCHAR A
ENCODING 65
SWIDTH 75 0
DWIDTH -1 0
BBX 6 9 0 2
BITMAP
30
78
CC
CC
CC
FC
CC
CC
CC
ENDCHAR
STARTCHAR B
ENCODING 66
SWIDTH 75 0
DWIDTH -1 0
BBX 6 9 0 2
BITMAP
F8
CC
CC
CC
F8
CC
CC
CC
78
ENDCHAR
STARTCHAR C
ENCODING 67
SWIDTH 75 0
DWIDTH -1 0
BBX 5 9 0 2
BITMAP
70
C8
C0
C0
C0
C0
C0
C8
70
ENDCHAR
STARTCHAR D
ENCODING 68
SWIDTH 75 0
DWIDTH -1 0
BBX 6 9 0 2
BITMAP
F8
CC
CC
CC
CC
CC
CC
CC
F8
ENDCHAR
STARTCHAR E
ENCODING 69
SWIDTH 75 0
DWIDTH -1 0
BBX 4 9 0 2
BITMAP
F0
C0
C0
C0
F0
C0
C0
C0
70
ENDCHAR
STARTCHAR F
ENCODING 70
SWIDTH 75 0
DWIDTH -1 0
BBX 4 9 0 2
BITMAP
F0
D0
C0
C0
F0
C0
C0
C0
C0
ENDCHAR
STARTCHAR G
ENCODING 71
SWIDTH 75 0
DWIDTH -1 0
BBX 6 9 0 2
BITMAP
78
C4
C0
C0
DC
CC
CC
CC
74
ENDCHAR
STARTCHAR H
ENCODING 72
SWIDTH 75 0
DWIDTH -1 0
BBX 6 9 0 2
BITMAP
CC
CC
CC
CC
FC
CC
CC
CC
CC
ENDCHAR
STARTCHAR I
ENCODING 73
SWIDTH 75 0
DWIDTH -1 0
BBX 2 9 0 2
BITMAP
C0
C0
C0
C0
C0
C0
C0
C0
C0
ENDCHAR
STARTCHAR J
ENCODING 74
SWIDTH 75 0
DWIDTH -1 0
BBX 3 9 0 2
BITMAP
E0
60
60
60
60
60
60
60
C0
ENDCHAR
STARTCHAR K
ENCODING 75
SWIDTH 75 0
DWIDTH -1 0
BBX 7 9 0 2
BITMAP
CC
CC
CC
D8
F0
D8
CC
CC
C6
ENDCHAR
STARTCHAR L
ENCODING 76
SWIDTH 75 0
DWIDTH -1 0
BBX 5 9 0 2
BITMAP
C0
C0
C0
C0
C0
C0
C0
C0
F8
ENDCHAR
STARTCHAR M
ENCODING 77
SWIDTH 75 0
DWIDTH -1 0
BBX 7 9 0 2
BITMAP
C6
C6
EE
EE
FE
D6
D6
C6
C6
ENDCHAR
STARTCHAR N
ENCODING 78
SWIDTH 75 0
DWIDTH -1 0
BBX 6 9 0 2
BITMAP
CC
CC
EC
EC
FC
DC
DC
CC
CC
ENDCHAR
STARTCHAR O
ENCODING 79
SWIDTH 75 0
DWIDTH -1 0
BBX 6 9 0 2
BITMAP
78
CC
CC
CC
CC
CC
CC
CC
78
ENDCHAR
STARTCHAR P
ENCODING 80
SWIDTH 75 0
DWIDTH -1 0
BBX 6 9 0 2
BITMAP
F8
CC
CC
CC
CC
F8
C0
C0
C0
ENDCHAR
STARTCHAR Q
ENCODING 81
SWIDTH 75 0
DWIDTH -1 0
BBX 6 11 0 0
BITMAP
78
CC
CC
CC
CC
CC
CC
CC
78
30
1C
ENDCHAR
STARTCHAR R
ENCODING 82
SWIDTH 75 0
DWIDTH -1 0
BBX 7 9 0 2
BITMAP
F8
CC
CC
CC
F8
D8
CC
CC
C6
ENDCHAR
STARTCHAR S
ENCODING 83
SWIDTH 75 0
DWIDTH -1 0
BBX 5 9 0 2
BITMAP
70
C8
C0
E0
70
38
18
98
70
ENDCHAR
STARTCHAR T
ENCODING 84
SWIDTH 75 0
DWIDTH -1 0
BBX 6 9 0 2
BITMAP
FC
30
30
30
30
30
30
30
30
ENDCHAR
STARTCHAR U
ENCODING 85
SWIDTH 75 0
DWIDTH -1 0
BBX 6 9 0 2
BITMAP
CC
CC
CC
CC
CC
CC
CC
FC
6C
ENDCHAR
STARTCHAR V
ENCODING 86
SWIDTH 75 0
DWIDTH -1 0
BBX 6 9 0 2
BITMAP
CC
CC
CC
CC
CC
CC
48
78
30
ENDCHAR
STARTCHAR W
ENCODING 87
SWIDTH 75 0
DWIDTH -1 0
BBX 7 9 0 2
BITMAP
C6
C6
D6
D6
D6
D6
54
6C
28
ENDCHAR
STARTCHAR X
ENCODING 88
SWIDTH 75 0
DWIDTH -1 0
BBX 6 9 0 2
BITMAP
CC
CC
48
78
30
78
48
CC
CC
ENDCHAR
STARTCHAR Y
ENCODING 89
SWIDTH 75 0
DWIDTH -1 0
BBX 6 9 0 2
BITMAP
CC
CC
CC
48
78
30
30
30
30
ENDCHAR
STARTCHAR Z
ENCODING 90
SWIDTH 75 0
DWIDTH -1 0
BBX 5 9 0 2
BITMAP
F8
18
18
30
60
60
C0
C0
F8
ENDCHAR
STARTCHAR [
ENCODING 91
SWIDTH 75 0
DWIDTH -1 0
BBX 3 11 0 0
BITMAP
E0
C0
C0
C0
C0
C0
C0
C0
C0
C0
E0
ENDCHAR
STARTCHAR \
ENCODING 92
SWIDTH 75 0
DWIDTH -1 0
BBX 14 12 0 0
BITMAP
1FE0
2010
4008
BAB4
AAA4
B2A4
AA94
AA94
BBB4
4008
2010
1FE0
ENDCHAR
STARTCHAR ]
ENCODING 93
SWIDTH 75 0
DWIDTH -1 0
BBX 3 11 0 0
BITMAP
E0
60
60
60
60
60
60
60
60
60
E0
ENDCHAR
STARTCHAR ^
ENCODING 94
SWIDTH 75 0
DWIDTH -1 0
BBX 5 5 0 3
BITMAP
70
F8
F8
F8
70
ENDCHAR
STARTCHAR _
ENCODING 95
SWIDTH 75 0
DWIDTH -1 0
BBX 4 2 0 10
BITMAP
60
90
ENDCHAR
STARTCHAR `
ENCODING 96
SWIDTH 75 0
DWIDTH -1 0
BBX 3 3 0 9
BITMAP
C0
40
20
ENDCHAR
STARTCHAR a
ENCODING 97
SWIDTH 75 0
DWIDTH -1 0
BBX 7 7 0 2
BITMAP
78
8C
0C
7C
CC
CC
76
ENDCHAR
STARTCHAR b
ENCODING 98
SWIDTH 75 0
DWIDTH -1 0
BBX 6 10 0 2
BITMAP
C0
C0
C0
D8
FC
CC
CC
CC
CC
B8
ENDCHAR
STARTCHAR c
ENCODING 99
SWIDTH 75 0
DWIDTH -1 0
BBX 5 7 0 2
BITMAP
70
C8
C0
C0
C0
C8
70
ENDCHAR
STARTCHAR d
ENCODING 100
SWIDTH 75 0
DWIDTH -1 0
BBX 6 10 0 2
BITMAP
0C
0C
0C
7C
CC
CC
CC
CC
FC
6C
ENDCHAR
STARTCHAR e
ENCODING 101
SWIDTH 75 0
DWIDTH -1 0
BBX 6 7 0 2
BITMAP
78
CC
CC
F8
C0
C4
78
ENDCHAR
STARTCHAR f
ENCODING 102
SWIDTH 75 0
DWIDTH -1 0
BBX 4 10 0 2
BITMAP
70
C0
C0
F0
C0
C0
C0
C0
C0
C0
ENDCHAR
STARTCHAR g
ENCODING 103
SWIDTH 75 0
DWIDTH -1 0
BBX 6 9 0 0
BITMAP
7C
D8
D8
70
40
F8
7C
CC
78
ENDCHAR
STARTCHAR h
ENCODING 104
SWIDTH 75 0
DWIDTH -1 0
BBX 6 10 0 2
BITMAP
C0
C0
C0
D8
FC
CC
CC
CC
CC
CC
ENDCHAR
STARTCHAR i
ENCODING 105
SWIDTH 75 0
DWIDTH -1 0
BBX 2 10 0 2
BITMAP
C0
C0
00
C0
C0
C0
C0
C0
C0
C0
ENDCHAR
STARTCHAR j
ENCODING 106
SWIDTH 75 0
DWIDTH -1 0
BBX 3 12 0 0
BITMAP
60
60
00
60
60
60
60
60
60
60
60
C0
ENDCHAR
STARTCHAR k
ENCODING 107
SWIDTH 75 0
DWIDTH -1 0
BBX 6 10 0 2
BITMAP
C0
C0
C0
D8
D8
D0
F0
D8
CC
CC
ENDCHAR
STARTCHAR l
ENCODING 108
SWIDTH 75 0
DWIDTH -1 0
BBX 3 10 0 2
BITMAP
C0
C0
C0
C0
C0
C0
C0
C0
C0
60
ENDCHAR
STARTCHAR m
ENCODING 109
SWIDTH 75 0
DWIDTH -1 0
BBX 10 7 0 2
BITMAP
D980
FFC0
CCC0
CCC0
CCC0
CCC0
CCC0
ENDCHAR
STARTCHAR n
ENCODING 110
SWIDTH 75 0
DWIDTH -1 0
BBX 6 7 0 2
BITMAP
D8
FC
CC
CC
CC
CC
CC
ENDCHAR
STARTCHAR o
ENCODING 111
SWIDTH 75 0
DWIDTH -1 0
BBX 6 7 0 2
BITMAP
78
CC
CC
CC
CC
CC
78
ENDCHAR
STARTCHAR p
ENCODING 112
SWIDTH 75 0
DWIDTH -1 0
BBX 6 9 0 0
BITMAP
D8
FC
CC
CC
CC
CC
F8
C0
C0
ENDCHAR
STARTCHAR q
ENCODING 113
SWIDTH 75 0
DWIDTH -1 0
BBX 6 9 0 0
BITMAP
74
CC
CC
CC
CC
FC
6C
0C
0C
ENDCHAR
STARTCHAR r
ENCODING 114
SWIDTH 75 0
DWIDTH -1 0
BBX 4 7 0 2
BITMAP
B0
F0
D0
C0
C0
C0
C0
ENDCHAR
STARTCHAR s
ENCODING 115
SWIDTH 75 0
DWIDTH -1 0
BBX 5 7 0 2
BITMAP
70
C8
E0
70
38
98
70
ENDCHAR
STARTCHAR t
ENCODING 116
SWIDTH 75 0
DWIDTH -1 0
BBX 4 9 0 2
BITMAP
40
C0
F0
C0
C0
C0
C0
C0
70
ENDCHAR
STARTCHAR u
ENCODING 117
SWIDTH 75 0
DWIDTH -1 0
BBX 6 7 0 2
BITMAP
CC
CC
CC
CC
CC
FC
6C
ENDCHAR
STARTCHAR v
ENCODING 118
SWIDTH 75 0
DWIDTH -1 0
BBX 6 7 0 2
BITMAP
CC
CC
CC
CC
48
78
30
ENDCHAR
STARTCHAR w
ENCODING 119
SWIDTH 75 0
DWIDTH -1 0
BBX 7 7 0 2
BITMAP
C6
D6
D6
D6
54
6C
28
ENDCHAR
STARTCHAR x
ENCODING 120
SWIDTH 75 0
DWIDTH -1 0
BBX 6 7 0 2
BITMAP
CC
CC
68
30
58
CC
CC
ENDCHAR
STARTCHAR y
ENCODING 121
SWIDTH 75 0
DWIDTH -1 0
BBX 6 9 0 0
BITMAP
CC
CC
CC
CC
CC
48
30
30
E0
ENDCHAR
STARTCHAR z
ENCODING 122
SWIDTH 75 0
DWIDTH -1 0
BBX 5 7 0 2
BITMAP
F8
18
30
60
60
C0
F8
ENDCHAR
STARTCHAR {
ENCODING 123
SWIDTH 75 0
DWIDTH -1 0
BBX 3 11 0 0
BITMAP
20
60
40
40
C0
C0
C0
40
40
60
20
ENDCHAR
STARTCHAR |
ENCODING 124
SWIDTH 75 0
DWIDTH -1 0
BBX 2 12 0 0
BITMAP
C0
C0
C0
C0
C0
C0
C0
C0
C0
C0
C0
C0
ENDCHAR
STARTCHAR }
ENCODING 125
SWIDTH 75 0
DWIDTH -1 0
BBX 3 11 0 0
BITMAP
80
C0
40
40
60
60
60
40
40
C0
80
ENDCHAR
STARTCHAR ~
ENCODING 126
SWIDTH 75 0
DWIDTH -1 0
BBX 10 7 0 2
BITMAP
7780
CCC0
CCC0
CF80
CC00
CC40
7780
ENDCHAR
STARTCHAR 
ENCODING 127
SWIDTH 75 0
DWIDTH -1 0
BBX 0 0 14 11
ENDCHAR
STARTCHAR f
ENCODING 102
SWIDTH 75 0
DWIDTH -1 0
BBX 6 10 0 2
BITMAP
48
00
CC
CC
48
78
30
30
30
30
ENDCHAR
STARTCHAR ¡
ENCODING -95
SWIDTH 75 0
DWIDTH -1 0
BBX 0 0 14 11
ENDCHAR
STARTCHAR £
ENCODING -93
SWIDTH 75 0
DWIDTH -1 0
BBX 8 9 0 2
BITMAP
3F
7C
CC
CC
CF
FC
CC
CC
C7
ENDCHAR
STARTCHAR ª
ENCODING -86
SWIDTH 75 0
DWIDTH -1 0
BBX 2 12 0 0
BITMAP
C0
C0
C0
C0
C0
00
C0
C0
C0
C0
C0
C0
ENDCHAR
STARTCHAR «
ENCODING -85
SWIDTH 75 0
DWIDTH -1 0
BBX 0 0 14 11
ENDCHAR
STARTCHAR ¬
ENCODING -84
SWIDTH 75 0
DWIDTH -1 0
BBX 0 0 14 11
ENDCHAR
STARTCHAR ®
ENCODING -82
SWIDTH 75 0
DWIDTH -1 0
BBX 0 0 14 11
ENDCHAR
STARTCHAR º
ENCODING -70
SWIDTH 75 0
DWIDTH -1 0
BBX 0 0 14 11
ENDCHAR
STARTCHAR »
ENCODING -69
SWIDTH 75 0
DWIDTH -1 0
BBX 0 0 14 11
ENDCHAR
STARTCHAR  
ENCODING 32
SWIDTH 75 0
DWIDTH -1 0
BBX 3 1 0 11
BITMAP
A0
ENDCHAR
STARTCHAR  
ENCODING 32
SWIDTH 75 0
DWIDTH -1 0
BBX 4 6 0 3
BITMAP
50
50
A0
A0
50
50
ENDCHAR
STARTCHAR ¿
ENCODING -65
SWIDTH 75 0
DWIDTH -1 0
BBX 3 2 0 10
BITMAP
A0
A0
ENDCHAR
STARTCHAR Ä
ENCODING -60
SWIDTH 75 0
DWIDTH -1 0
BBX 6 10 0 2
BITMAP
48
30
78
CC
CC
CC
FC
CC
CC
CC
ENDCHAR
STARTCHAR Å
ENCODING -59
SWIDTH 75 0
DWIDTH -1 0
BBX 6 10 0 2
BITMAP
30
30
78
CC
CC
CC
FC
CC
CC
CC
ENDCHAR
STARTCHAR Æ
ENCODING -58
SWIDTH 75 0
DWIDTH -1 0
BBX 10 7 0 2
BITMAP
7780
CCC0
CCC0
CF80
CC00
CC40
7780
ENDCHAR
STARTCHAR Ç
ENCODING -57
SWIDTH 75 0
DWIDTH -1 0
BBX 5 11 0 0
BITMAP
70
C8
C0
C0
C0
C0
C0
C8
70
20
40
ENDCHAR
STARTCHAR É
ENCODING -55
SWIDTH 75 0
DWIDTH -1 0
BBX 4 10 0 2
BITMAP
30
F0
C0
C0
C0
F0
C0
C0
C0
70
ENDCHAR
STARTCHAR Ñ
ENCODING -47
SWIDTH 75 0
DWIDTH -1 0
BBX 9 9 0 2
BITMAP
0900
1B00
1200
7F80
3600
FF00
2400
6C00
4800
ENDCHAR
STARTCHAR Ö
ENCODING -42
SWIDTH 75 0
DWIDTH -1 0
BBX 6 10 0 2
BITMAP
48
78
CC
CC
CC
CC
CC
CC
CC
78
ENDCHAR
STARTCHAR ×
ENCODING -41
SWIDTH 75 0
DWIDTH -1 0
BBX 0 0 14 11
ENDCHAR
STARTCHAR Ø
ENCODING -40
SWIDTH 75 0
DWIDTH -1 0
BBX 0 0 14 11
ENDCHAR
STARTCHAR Ü
ENCODING -36
SWIDTH 75 0
DWIDTH -1 0
BBX 6 10 0 2
BITMAP
48
00
CC
CC
CC
CC
CC
CC
FC
6C
ENDCHAR
STARTCHAR à
ENCODING -32
SWIDTH 75 0
DWIDTH -1 0
BBX 7 10 0 2
BITMAP
60
20
10
78
8C
0C
7C
CC
CC
76
ENDCHAR
STARTCHAR á
ENCODING -31
SWIDTH 75 0
DWIDTH -1 0
BBX 0 0 14 11
ENDCHAR
STARTCHAR â
ENCODING -30
SWIDTH 75 0
DWIDTH -1 0
BBX 7 10 0 2
BITMAP
30
48
00
78
8C
0C
7C
CC
CC
76
ENDCHAR
STARTCHAR ä
ENCODING -28
SWIDTH 75 0
DWIDTH -1 0
BBX 7 10 0 2
BITMAP
28
28
00
78
8C
0C
7C
CC
CC
76
ENDCHAR
STARTCHAR å
ENCODING -27
SWIDTH 75 0
DWIDTH -1 0
BBX 7 10 0 2
BITMAP
30
48
30
78
8C
0C
7C
CC
CC
76
ENDCHAR
STARTCHAR æ
ENCODING -26
SWIDTH 75 0
DWIDTH -1 0
BBX 10 7 0 2
BITMAP
7780
8CC0
0CC0
7F80
CC00
CC40
7780
ENDCHAR
STARTCHAR ç
ENCODING -25
SWIDTH 75 0
DWIDTH -1 0
BBX 5 9 0 0
BITMAP
70
C8
C0
C0
C0
C8
70
20
40
ENDCHAR
STARTCHAR è
ENCODING -24
SWIDTH 75 0
DWIDTH -1 0
BBX 6 10 0 2
BITMAP
60
20
10
78
CC
CC
F8
C0
C4
78
ENDCHAR
STARTCHAR é
ENCODING -23
SWIDTH 75 0
DWIDTH -1 0
BBX 6 10 0 2
BITMAP
18
10
20
78
CC
CC
F8
C0
C4
78
ENDCHAR
STARTCHAR ê
ENCODING -22
SWIDTH 75 0
DWIDTH -1 0
BBX 6 10 0 2
BITMAP
30
48
00
78
CC
CC
F8
C0
C4
78
ENDCHAR
STARTCHAR ë
ENCODING -21
SWIDTH 75 0
DWIDTH -1 0
BBX 6 10 0 2
BITMAP
50
50
00
78
CC
CC
F8
C0
C4
78
ENDCHAR
STARTCHAR ì
ENCODING -20
SWIDTH 75 0
DWIDTH -1 0
BBX 2 10 0 2
BITMAP
C0
40
00
C0
C0
C0
C0
C0
C0
C0
ENDCHAR
STARTCHAR í
ENCODING -19
SWIDTH 75 0
DWIDTH -1 0
BBX 2 9 0 0
BITMAP
C0
C0
00
C0
C0
C0
C0
C0
C0
ENDCHAR
STARTCHAR î
ENCODING -18
SWIDTH 75 0
DWIDTH -1 0
BBX 3 10 0 2
BITMAP
40
A0
00
C0
C0
C0
C0
C0
C0
C0
ENDCHAR
STARTCHAR ï
ENCODING -17
SWIDTH 75 0
DWIDTH -1 0
BBX 3 10 0 2
BITMAP
A0
A0
00
C0
C0
C0
C0
C0
C0
C0
ENDCHAR
STARTCHAR ñ
ENCODING -15
SWIDTH 75 0
DWIDTH -1 0
BBX 0 0 14 11
ENDCHAR
STARTCHAR ò
ENCODING -14
SWIDTH 75 0
DWIDTH -1 0
BBX 6 10 0 2
BITMAP
60
20
10
78
CC
CC
CC
CC
CC
78
ENDCHAR
STARTCHAR ó
ENCODING -13
SWIDTH 75 0
DWIDTH -1 0
BBX 12 9 0 2
BITMAP
7100
DB00
DB00
DA00
76E0
05B0
0DB0
0DB0
08E0
ENDCHAR
STARTCHAR ô
ENCODING -12
SWIDTH 75 0
DWIDTH -1 0
BBX 6 10 0 2
BITMAP
30
48
00
78
CC
CC
CC
CC
CC
78
ENDCHAR
STARTCHAR ö
ENCODING -10
SWIDTH 75 0
DWIDTH -1 0
BBX 6 10 0 2
BITMAP
28
28
00
78
CC
CC
CC
CC
CC
78
ENDCHAR
STARTCHAR ø
ENCODING -8
SWIDTH 75 0
DWIDTH -1 0
BBX 0 0 14 11
ENDCHAR
STARTCHAR ù
ENCODING -7
SWIDTH 75 0
DWIDTH -1 0
BBX 6 10 0 2
BITMAP
60
20
10
CC
CC
CC
CC
CC
FC
6C
ENDCHAR
STARTCHAR ú
ENCODING -6
SWIDTH 75 0
DWIDTH -1 0
BBX 4 8 0 3
BITMAP
80
C0
C0
60
60
30
30
10
ENDCHAR
STARTCHAR û
ENCODING -5
SWIDTH 75 0
DWIDTH -1 0
BBX 6 10 0 2
BITMAP
30
48
00
CC
CC
CC
CC
CC
FC
6C
ENDCHAR
STARTCHAR ü
ENCODING -4
SWIDTH 75 0
DWIDTH -1 0
BBX 6 10 0 2
BITMAP
28
28
00
CC
CC
CC
CC
CC
FC
6C
ENDCHAR
STARTCHAR ÿ
ENCODING -1
SWIDTH 75 0
DWIDTH -1 0
BBX 6 12 0 0
BITMAP
28
28
00
CC
CC
CC
CC
CC
48
30
30
E0
ENDCHAR
ENDFONT
