STARTFONT 2.1
COMMENT Lumiplan font build using LumiStudio
FONT Duhamel 24/24 3-Normal
SIZE 24 75 75
FONTBOUNDINGBOX 15 24 0 0
STARTPROPERTIES 1
Copyright "Copyright (c) 2021 Lumiplan"
ENDPROPERTIES
CHARS 189
STARTCHAR 
ENCODING 14
SWIDTH 75 0
DWIDTH -1 0
BBX 0 0 1 23
ENDCHAR
STARTCHAR  
ENCODING 32
SWIDTH 75 0
DWIDTH -1 0
BBX 0 0 2 23
ENDCHAR
STARTCHAR !
ENCODING 33
SWIDTH 75 0
DWIDTH -1 0
BBX 4 24 0 0
BITMAP
F0
F0
F0
F0
F0
F0
F0
F0
F0
F0
F0
F0
F0
F0
F0
F0
F0
F0
F0
00
F0
F0
F0
F0
ENDCHAR
STARTCHAR "
ENCODING 34
SWIDTH 75 0
DWIDTH -1 0
BBX 13 6 0 18
BITMAP
3C78
3C78
3C78
7CF8
70E0
8100
ENDCHAR
STARTCHAR #
ENCODING 35
SWIDTH 75 0
DWIDTH -1 0
BBX 15 24 0 0
BITMAP
1EF0
1EF0
1EF0
1EF0
1EF0
1EF0
FFFE
FFFE
FFFE
FFFE
1EF0
1EF0
1EF0
1EF0
1EF0
FFFE
FFFE
FFFE
FFFE
1EF0
1EF0
1EF0
1EF0
1EF0
ENDCHAR
STARTCHAR $
ENCODING 36
SWIDTH 75 0
DWIDTH -1 0
BBX 15 24 0 0
BITMAP
0280
1FF0
3FF8
7FFC
FFFE
FABE
F29E
F29E
7A80
3E80
1E80
0F80
0780
03C0
03E0
02F0
F2F8
F2BC
FABE
FFFE
7FFC
3FF8
1FF0
0280
ENDCHAR
STARTCHAR %
ENCODING 37
SWIDTH 75 0
DWIDTH -1 0
BBX 14 24 0 0
BITMAP
F03C
F03C
F07C
F07C
00F8
00F8
01F0
01F0
03E0
03E0
07C0
07C0
0F80
0F80
1F00
1F00
3E00
3E00
7C00
7C00
F83C
F83C
F03C
F03C
ENDCHAR
STARTCHAR &
ENCODING 38
SWIDTH 75 0
DWIDTH -1 0
BBX 15 24 0 0
BITMAP
1F80
3FC0
7FE0
FFF0
F9F0
F0F0
F0F0
79E0
3FC0
1FC0
0F80
0F80
1FC0
3DE6
78FE
F07E
F078
F070
F070
F8F8
FFFE
7FFE
3FF6
1FC0
ENDCHAR
STARTCHAR '
ENCODING 39
SWIDTH 75 0
DWIDTH -1 0
BBX 6 6 0 18
BITMAP
3C
3C
3C
7C
70
80
ENDCHAR
STARTCHAR (
ENCODING 40
SWIDTH 75 0
DWIDTH -1 0
BBX 8 24 0 0
BITMAP
0F
1F
3F
7F
FE
FC
F8
F0
F0
F0
F0
F0
F0
F0
F0
F0
F0
F8
FC
FE
7F
3F
1F
0F
ENDCHAR
STARTCHAR )
ENCODING 41
SWIDTH 75 0
DWIDTH -1 0
BBX 8 24 0 0
BITMAP
F0
F8
FC
FE
7F
3F
1F
0F
0F
0F
0F
0F
0F
0F
0F
0F
0F
1F
3F
7F
FE
FC
F8
F0
ENDCHAR
STARTCHAR *
ENCODING 42
SWIDTH 75 0
DWIDTH -1 0
BBX 14 14 0 10
BITMAP
C78C
E79C
77B8
3FF0
1FE0
FFFC
FFFC
FFFC
FFFC
1FE0
3FF0
77B8
E79C
C78C
ENDCHAR
STARTCHAR +
ENCODING 43
SWIDTH 75 0
DWIDTH -1 0
BBX 14 14 0 4
BITMAP
0780
0780
0780
0780
0780
FFFC
FFFC
FFFC
FFFC
0780
0780
0780
0780
0780
ENDCHAR
STARTCHAR ,
ENCODING 44
SWIDTH 75 0
DWIDTH -1 0
BBX 4 4 0 0
BITMAP
F0
F0
F0
F0
ENDCHAR
STARTCHAR -
ENCODING 45
SWIDTH 75 0
DWIDTH -1 0
BBX 12 4 0 9
BITMAP
FFF0
FFF0
FFF0
FFF0
ENDCHAR
STARTCHAR .
ENCODING 46
SWIDTH 75 0
DWIDTH -1 0
BBX 4 4 0 0
BITMAP
F0
F0
F0
F0
ENDCHAR
STARTCHAR /
ENCODING 47
SWIDTH 75 0
DWIDTH -1 0
BBX 14 24 0 0
BITMAP
003C
003C
007C
007C
00F8
00F8
01F0
01F0
03E0
03E0
07C0
07C0
0F80
0F80
1F00
1F00
3E00
3E00
7C00
7C00
F800
F800
F000
F000
ENDCHAR
STARTCHAR 0
ENCODING 48
SWIDTH 75 0
DWIDTH -1 0
BBX 13 24 0 0
BITMAP
0F80
3FE0
7FF0
7FF0
F8F8
F078
F078
F078
F078
F078
F078
F078
F078
F078
F078
F078
F078
F078
F078
F8F8
7FF0
7FF0
3FE0
0FC0
ENDCHAR
STARTCHAR 1
ENCODING 49
SWIDTH 75 0
DWIDTH -1 0
BBX 6 24 0 0
BITMAP
04
0C
1C
3C
7C
FC
FC
FC
3C
3C
3C
3C
3C
3C
3C
3C
3C
3C
3C
3C
3C
3C
3C
3C
ENDCHAR
STARTCHAR 2
ENCODING 50
SWIDTH 75 0
DWIDTH -1 0
BBX 13 24 0 0
BITMAP
0F80
3FE0
7FF0
7FF0
F8F8
F078
F078
F078
0078
0078
0078
00F0
01E0
03C0
0780
0F00
1E00
3C00
7800
F000
FFF8
FFF8
FFF8
FFF8
ENDCHAR
STARTCHAR 3
ENCODING 51
SWIDTH 75 0
DWIDTH -1 0
BBX 13 24 0 0
BITMAP
0F80
3FE0
7FF0
7FF0
F8F8
F078
F078
F078
0078
0070
01F0
03E0
03E0
01F0
0070
0078
F078
F078
F078
F8F8
7FF0
7FF0
3FE0
0F80
ENDCHAR
STARTCHAR 4
ENCODING 52
SWIDTH 75 0
DWIDTH -1 0
BBX 13 24 0 0
BITMAP
00F0
01F0
03F0
07F0
0FF0
1FF0
3FF0
7EF0
FCF0
F8F0
F0F0
F0F0
F0F0
F0F0
F0F0
FFF8
FFF8
FFF8
FFF8
00F0
00F0
00F0
00F0
00F0
ENDCHAR
STARTCHAR 5
ENCODING 53
SWIDTH 75 0
DWIDTH -1 0
BBX 13 24 0 0
BITMAP
FFF8
FFF8
FFF8
FFF8
F000
F000
F000
F000
F000
FFC0
FFE0
FFF0
FFF8
00F8
0078
0078
0078
0078
F078
F8F8
FFF8
7FF0
3FE0
1FC0
ENDCHAR
STARTCHAR 6
ENCODING 54
SWIDTH 75 0
DWIDTH -1 0
BBX 13 24 0 0
BITMAP
0FE0
1FE0
3FE0
7FE0
FC00
F800
F000
F000
F000
F7C0
FFE0
FFF0
FFF8
F8F8
F078
F078
F078
F078
F078
F8F8
FFF8
7FF0
3FE0
1FC0
ENDCHAR
STARTCHAR 7
ENCODING 55
SWIDTH 75 0
DWIDTH -1 0
BBX 13 24 0 0
BITMAP
FFF8
FFF8
FFF8
FFF8
0078
0078
00F0
00F0
01E0
01E0
03C0
03C0
0780
0780
0780
0780
0780
0780
0780
0780
0780
0780
0780
0780
ENDCHAR
STARTCHAR 8
ENCODING 56
SWIDTH 75 0
DWIDTH -1 0
BBX 13 24 0 0
BITMAP
1F80
3FE0
7FF0
7FF0
F8F8
F078
F078
F078
F078
78F0
7FF0
3FE0
3FE0
7FF0
78F0
F078
F078
F078
F078
F8F8
7FF0
7FF0
3FE0
0F80
ENDCHAR
STARTCHAR 9
ENCODING 57
SWIDTH 75 0
DWIDTH -1 0
BBX 13 24 0 0
BITMAP
1F80
3FE0
7FF0
7FF0
F8F8
F078
F078
F078
F078
F078
F8F8
7FF8
7FF8
3FF8
0F78
0078
0078
0078
00F8
01F0
3FF0
3FE0
3FC0
3F00
ENDCHAR
STARTCHAR :
ENCODING 58
SWIDTH 75 0
DWIDTH -1 0
BBX 4 11 0 2
BITMAP
F0
F0
F0
F0
00
00
00
F0
F0
F0
F0
ENDCHAR
STARTCHAR ;
ENCODING 59
SWIDTH 75 0
DWIDTH -1 0
BBX 6 13 0 0
BITMAP
3C
3C
3C
3C
00
00
00
3C
3C
3C
7C
70
80
ENDCHAR
STARTCHAR <
ENCODING 60
SWIDTH 75 0
DWIDTH -1 0
BBX 14 24 0 0
BITMAP
003C
003C
00FC
00FC
03F0
03F0
0FC0
0FC0
3F00
3F00
FC00
FC00
FC00
FC00
3F00
3F00
0FC0
0FC0
03F0
03F0
00FC
00FC
003C
003C
ENDCHAR
STARTCHAR =
ENCODING 61
SWIDTH 75 0
DWIDTH -1 0
BBX 12 12 0 5
BITMAP
FFF0
FFF0
FFF0
FFF0
0000
0000
0000
0000
FFF0
FFF0
FFF0
FFF0
ENDCHAR
STARTCHAR >
ENCODING 62
SWIDTH 75 0
DWIDTH -1 0
BBX 14 24 0 0
BITMAP
F000
F000
FC00
FC00
3F00
3F00
0FC0
0FC0
03F0
03F0
00FC
00FC
00FC
00FC
03F0
03F0
0FC0
0FC0
3F00
3F00
FC00
FC00
F000
F000
ENDCHAR
STARTCHAR ?
ENCODING 63
SWIDTH 75 0
DWIDTH -1 0
BBX 14 24 0 0
BITMAP
1FE0
3FF0
7FF8
FFFC
F87C
F03C
F03C
003C
003C
007C
00F8
01F0
03E0
07C0
0780
0780
0780
0780
0780
0000
0780
0780
0780
0780
ENDCHAR
STARTCHAR @
ENCODING 64
SWIDTH 75 0
DWIDTH -1 0
BBX 15 24 0 0
BITMAP
3FF8
7FFC
FFFE
F01E
E00E
E00E
E00E
E7AE
EFEE
EEEE
EC6E
EC7E
EEFE
EFFC
E7D8
E000
E000
E000
E000
E00E
F01E
FFFE
7FFC
3FF8
ENDCHAR
STARTCHAR A
ENCODING 65
SWIDTH 75 0
DWIDTH -1 0
BBX 15 24 0 0
BITMAP
0FE0
3FF8
7FFC
7FFC
F83E
F01E
F01E
F01E
F01E
F01E
FFFE
FFFE
FFFE
FFFE
F01E
F01E
F01E
F01E
F01E
F01E
F01E
F01E
F01E
F01E
ENDCHAR
STARTCHAR B
ENCODING 66
SWIDTH 75 0
DWIDTH -1 0
BBX 15 24 0 0
BITMAP
FFE0
FFF8
FFFC
FFFC
F03E
F01E
F01E
F01E
F01E
F03C
FFFC
FFF8
FFF8
FFFC
F03C
F01E
F01E
F01E
F01E
F03E
FFFC
FFFC
FFF8
FFE0
ENDCHAR
STARTCHAR C
ENCODING 67
SWIDTH 75 0
DWIDTH -1 0
BBX 15 24 0 0
BITMAP
0FE0
3FF8
7FFC
7FFC
F83E
F01E
F01E
F01E
F000
F000
F000
F000
F000
F000
F000
F000
F01E
F01E
F01E
F83E
7FFC
7FFC
3FF8
0FE0
ENDCHAR
STARTCHAR D
ENCODING 68
SWIDTH 75 0
DWIDTH -1 0
BBX 15 24 0 0
BITMAP
FFC0
FFF0
FFF8
FFFC
F07C
F03E
F01E
F01E
F01E
F01E
F01E
F01E
F01E
F01E
F01E
F01E
F01E
F01E
F03E
F07C
FFFC
FFF8
FFF0
FFC0
ENDCHAR
STARTCHAR E
ENCODING 69
SWIDTH 75 0
DWIDTH -1 0
BBX 15 24 0 0
BITMAP
FFFE
FFFE
FFFE
FFFE
F000
F000
F000
F000
F000
F000
FFF0
FFF0
FFF0
FFF0
F000
F000
F000
F000
F000
F000
FFFE
FFFE
FFFE
FFFE
ENDCHAR
STARTCHAR F
ENCODING 70
SWIDTH 75 0
DWIDTH -1 0
BBX 15 24 0 0
BITMAP
FFFE
FFFE
FFFE
FFFE
F000
F000
F000
F000
F000
F000
FFF0
FFF0
FFF0
FFF0
F000
F000
F000
F000
F000
F000
F000
F000
F000
F000
ENDCHAR
STARTCHAR G
ENCODING 71
SWIDTH 75 0
DWIDTH -1 0
BBX 15 24 0 0
BITMAP
0FE0
3FF8
7FFC
7FFC
F83E
F01E
F01E
F01E
F000
F000
F000
F1FE
F1FE
F1FE
F1FE
F01E
F01E
F01E
F01E
F83E
7FFC
7FFC
3FF8
0FE0
ENDCHAR
STARTCHAR H
ENCODING 72
SWIDTH 75 0
DWIDTH -1 0
BBX 15 24 0 0
BITMAP
F01E
F01E
F01E
F01E
F01E
F01E
F01E
F01E
F01E
F01E
FFFE
FFFE
FFFE
FFFE
F01E
F01E
F01E
F01E
F01E
F01E
F01E
F01E
F01E
F01E
ENDCHAR
STARTCHAR I
ENCODING 73
SWIDTH 75 0
DWIDTH -1 0
BBX 4 24 0 0
BITMAP
F0
F0
F0
F0
F0
F0
F0
F0
F0
F0
F0
F0
F0
F0
F0
F0
F0
F0
F0
F0
F0
F0
F0
F0
ENDCHAR
STARTCHAR J
ENCODING 74
SWIDTH 75 0
DWIDTH -1 0
BBX 12 24 0 0
BITMAP
00F0
00F0
00F0
00F0
00F0
00F0
00F0
00F0
00F0
00F0
00F0
00F0
00F0
00F0
00F0
00F0
F0F0
F0F0
F0F0
F9F0
7FE0
7FE0
3FC0
0F00
ENDCHAR
STARTCHAR K
ENCODING 75
SWIDTH 75 0
DWIDTH -1 0
BBX 15 24 0 0
BITMAP
F01E
F01E
F07E
F07E
F1F8
F1F8
F7E0
F7E0
FF80
FF80
FF00
FF00
FF00
FF00
FF80
FF80
F7E0
F7E0
F1F8
F1F8
F07E
F07E
F01E
F01E
ENDCHAR
STARTCHAR L
ENCODING 76
SWIDTH 75 0
DWIDTH -1 0
BBX 15 24 0 0
BITMAP
F000
F000
F000
F000
F000
F000
F000
F000
F000
F000
F000
F000
F000
F000
F000
F000
F000
F000
F000
F000
FFFE
FFFE
FFFE
FFFE
ENDCHAR
STARTCHAR M
ENCODING 77
SWIDTH 75 0
DWIDTH -1 0
BBX 15 24 0 0
BITMAP
8002
C006
E00E
F01E
F83E
FC7E
FEFE
FFFE
F7DE
F39E
F11E
F01E
F01E
F01E
F01E
F01E
F01E
F01E
F01E
F01E
F01E
F01E
F01E
F01E
ENDCHAR
STARTCHAR N
ENCODING 78
SWIDTH 75 0
DWIDTH -1 0
BBX 15 24 0 0
BITMAP
801E
C01E
E01E
F01E
F81E
FC1E
FE1E
FF1E
F79E
F3DE
F1FE
F0FE
F07E
F03E
F01E
F01E
F01E
F01E
F01E
F01E
F01E
F01E
F01E
F01E
ENDCHAR
STARTCHAR O
ENCODING 79
SWIDTH 75 0
DWIDTH -1 0
BBX 15 24 0 0
BITMAP
0FE0
3FF8
7FFC
7FFC
F83E
F01E
F01E
F01E
F01E
F01E
F01E
F01E
F01E
F01E
F01E
F01E
F01E
F01E
F01E
F83E
7FFC
7FFC
3FF8
0FE0
ENDCHAR
STARTCHAR P
ENCODING 80
SWIDTH 75 0
DWIDTH -1 0
BBX 15 24 0 0
BITMAP
FFE0
FFF8
FFFC
FFFC
F03E
F01E
F01E
F01E
F01E
F03E
FFFC
FFFC
FFF8
FFE0
F000
F000
F000
F000
F000
F000
F000
F000
F000
F000
ENDCHAR
STARTCHAR Q
ENCODING 81
SWIDTH 75 0
DWIDTH -1 0
BBX 15 24 0 0
BITMAP
0FE0
3FF8
7FFC
7FFC
F83E
F01E
F01E
F01E
F01E
F01E
F01E
F01E
F01E
F01E
F01E
F01E
F1DE
F1EE
F1F6
F8F8
FF7C
7FBE
3FDE
1FCE
ENDCHAR
STARTCHAR R
ENCODING 82
SWIDTH 75 0
DWIDTH -1 0
BBX 15 24 0 0
BITMAP
FFE0
FFF8
FFFC
FFFE
F03E
F01E
F01E
F01E
F01E
F03E
FFFC
FFF8
FFF8
FFFC
F03E
F01E
F01E
F01E
F01E
F01E
F01E
F01E
F01E
F01E
ENDCHAR
STARTCHAR S
ENCODING 83
SWIDTH 75 0
DWIDTH -1 0
BBX 15 24 0 0
BITMAP
0FE0
3FF8
7FFC
FFFC
F83E
F01E
F000
F800
7C00
3E00
1F00
0F80
07C0
03E0
01F0
00F8
007C
003E
F01E
F83E
7FFC
7FFC
3FF8
0FE0
ENDCHAR
STARTCHAR T
ENCODING 84
SWIDTH 75 0
DWIDTH -1 0
BBX 14 24 0 0
BITMAP
FFFC
FFFC
FFFC
FFFC
0780
0780
0780
0780
0780
0780
0780
0780
0780
0780
0780
0780
0780
0780
0780
0780
0780
0780
0780
0780
ENDCHAR
STARTCHAR U
ENCODING 85
SWIDTH 75 0
DWIDTH -1 0
BBX 15 24 0 0
BITMAP
F01E
F01E
F01E
F01E
F01E
F01E
F01E
F01E
F01E
F01E
F01E
F01E
F01E
F01E
F01E
F01E
F01E
F01E
F01E
F83E
7FFC
7FFC
3FF8
0FE0
ENDCHAR
STARTCHAR V
ENCODING 86
SWIDTH 75 0
DWIDTH -1 0
BBX 15 24 0 0
BITMAP
F01E
F01E
F01E
F01E
F01E
F01E
F01E
F01E
F01E
F01E
F01E
F01E
F01E
F01E
F01E
F01E
F83E
7C7C
3EF8
1FF0
0FE0
07C0
0380
0100
ENDCHAR
STARTCHAR W
ENCODING 87
SWIDTH 75 0
DWIDTH -1 0
BBX 15 24 0 0
BITMAP
F01E
F01E
F01E
F01E
F01E
F01E
F01E
F01E
F01E
F01E
F01E
F01E
F01E
F11E
F39E
F7DE
FFFE
FEFE
FC7E
F83E
F01E
E00E
C006
8002
ENDCHAR
STARTCHAR X
ENCODING 88
SWIDTH 75 0
DWIDTH -1 0
BBX 14 24 0 0
BITMAP
F03C
F03C
F87C
F87C
7CF8
7CF8
3FF0
3FF0
1FE0
1FE0
0FC0
0FC0
0FC0
0FC0
1FE0
1FE0
3FF0
3FF0
7CF8
7CF8
F87C
F87C
F03C
F03C
ENDCHAR
STARTCHAR Y
ENCODING 89
SWIDTH 75 0
DWIDTH -1 0
BBX 14 24 0 0
BITMAP
F03C
F03C
F03C
F03C
F87C
F87C
7CF8
7CF8
3FF0
3FF0
1FE0
1FE0
0FC0
0FC0
0780
0780
0780
0780
0780
0780
0780
0780
0780
0780
ENDCHAR
STARTCHAR Z
ENCODING 90
SWIDTH 75 0
DWIDTH -1 0
BBX 15 24 0 0
BITMAP
FFFE
FFFE
FFFE
FFFE
001E
001E
001E
003E
007C
00F8
01F0
03E0
07C0
0F80
1F00
3E00
7C00
F800
F000
F000
FFFE
FFFE
FFFE
FFFE
ENDCHAR
STARTCHAR [
ENCODING 91
SWIDTH 75 0
DWIDTH -1 0
BBX 9 24 0 0
BITMAP
FF80
FF80
FF80
FF80
F000
F000
F000
F000
F000
F000
F000
F000
F000
F000
F000
F000
F000
F000
F000
F000
FF80
FF80
FF80
FF80
ENDCHAR
STARTCHAR \
ENCODING 92
SWIDTH 75 0
DWIDTH -1 0
BBX 14 24 0 0
BITMAP
F000
F000
F800
F800
7C00
7C00
3E00
3E00
1F00
1F00
0F80
0F80
07C0
07C0
03E0
03E0
01F0
01F0
00F8
00F8
007C
007C
003C
003C
ENDCHAR
STARTCHAR ]
ENCODING 93
SWIDTH 75 0
DWIDTH -1 0
BBX 9 24 0 0
BITMAP
FF80
FF80
FF80
FF80
0780
0780
0780
0780
0780
0780
0780
0780
0780
0780
0780
0780
0780
0780
0780
0780
FF80
FF80
FF80
FF80
ENDCHAR
STARTCHAR ^
ENCODING 94
SWIDTH 75 0
DWIDTH -1 0
BBX 15 9 0 15
BITMAP
0380
07C0
0FE0
1EF0
3C78
783C
F01E
E00E
C006
ENDCHAR
STARTCHAR _
ENCODING 95
SWIDTH 75 0
DWIDTH -1 0
BBX 14 4 0 0
BITMAP
FFFC
FFFC
FFFC
FFFC
ENDCHAR
STARTCHAR `
ENCODING 96
SWIDTH 75 0
DWIDTH -1 0
BBX 6 6 0 18
BITMAP
F0
F0
F0
F8
38
04
ENDCHAR
STARTCHAR a
ENCODING 97
SWIDTH 75 0
DWIDTH -1 0
BBX 13 16 0 0
BITMAP
0FC0
1FE0
3FF0
00F8
0078
0078
0F78
3FF8
7FF8
FFF8
F8F8
F078
F8F8
7FF8
3FF8
1F78
ENDCHAR
STARTCHAR b
ENCODING 98
SWIDTH 75 0
DWIDTH -1 0
BBX 13 24 0 0
BITMAP
F000
F000
F000
F000
F000
F000
F000
F000
F780
FFE0
FFF0
FFF0
F8F8
F078
F078
F078
F078
F078
F078
F8F8
FFF0
FFF0
FFE0
F780
ENDCHAR
STARTCHAR c
ENCODING 99
SWIDTH 75 0
DWIDTH -1 0
BBX 13 16 0 0
BITMAP
0F80
3FE0
7FF0
7FF0
F8F8
F078
F000
F000
F000
F000
F078
F8F8
7FF0
7FF0
3FE0
0F80
ENDCHAR
STARTCHAR d
ENCODING 100
SWIDTH 75 0
DWIDTH -1 0
BBX 13 24 0 0
BITMAP
0078
0078
0078
0078
0078
0078
0078
0078
0F78
3FF8
7FF8
7FF8
F8F8
F078
F078
F078
F078
F078
F078
F8F8
7FF8
7FF8
3FF8
0F78
ENDCHAR
STARTCHAR e
ENCODING 101
SWIDTH 75 0
DWIDTH -1 0
BBX 13 16 0 0
BITMAP
0F80
3FE0
7FF0
7FF0
F8F8
F078
FFF8
FFF0
FFE0
F000
F000
F8F0
7FF0
7FF0
3FE0
0F80
ENDCHAR
STARTCHAR f
ENCODING 102
SWIDTH 75 0
DWIDTH -1 0
BBX 13 24 0 0
BITMAP
0F80
3FE0
7FF0
7FF0
F8F8
F078
F078
F078
F000
F000
FF00
FF00
FF00
FF00
F000
F000
F000
F000
F000
F000
F000
F000
F000
F000
ENDCHAR
STARTCHAR g
ENCODING 103
SWIDTH 75 0
DWIDTH -1 0
BBX 13 16 0 0
BITMAP
1F78
3FF8
7FF8
FFF8
F8F8
F078
F8F8
7FF8
3FF8
1F78
0078
F0F8
FFF8
7FF0
3FE0
1FC0
ENDCHAR
STARTCHAR h
ENCODING 104
SWIDTH 75 0
DWIDTH -1 0
BBX 13 24 0 0
BITMAP
F000
F000
F000
F000
F000
F000
F000
F000
F7C0
FFE0
FFF0
FFF8
F8F8
F078
F078
F078
F078
F078
F078
F078
F078
F078
F078
F078
ENDCHAR
STARTCHAR i
ENCODING 105
SWIDTH 75 0
DWIDTH -1 0
BBX 4 21 0 0
BITMAP
F0
F0
F0
F0
00
F0
F0
F0
F0
F0
F0
F0
F0
F0
F0
F0
F0
F0
F0
F0
F0
ENDCHAR
STARTCHAR j
ENCODING 106
SWIDTH 75 0
DWIDTH -1 0
BBX 13 21 0 0
BITMAP
0078
0078
0078
0078
0000
0078
0078
0078
0078
0078
0078
0078
0078
F078
F078
F078
F8F8
FFF8
7FF0
3FE0
1FC0
ENDCHAR
STARTCHAR k
ENCODING 107
SWIDTH 75 0
DWIDTH -1 0
BBX 12 24 0 0
BITMAP
F000
F000
F000
F000
F000
F000
F000
F000
F030
F070
F0F0
F1F0
F3E0
F7C0
FF80
FF00
FF00
FF80
F7C0
F3E0
F1F0
F0F0
F070
F030
ENDCHAR
STARTCHAR l
ENCODING 108
SWIDTH 75 0
DWIDTH -1 0
BBX 4 24 0 0
BITMAP
F0
F0
F0
F0
F0
F0
F0
F0
F0
F0
F0
F0
F0
F0
F0
F0
F0
F0
F0
F0
F0
F0
F0
F0
ENDCHAR
STARTCHAR m
ENCODING 109
SWIDTH 75 0
DWIDTH -1 0
BBX 13 16 0 0
BITMAP
E8C0
FDE0
FFF0
FFF8
F778
F778
F778
F778
F778
F778
F778
F778
F778
F778
F778
F778
ENDCHAR
STARTCHAR n
ENCODING 110
SWIDTH 75 0
DWIDTH -1 0
BBX 13 16 0 0
BITMAP
EF80
FFE0
FFF0
FFF0
F8F8
F078
F078
F078
F078
F078
F078
F078
F078
F078
F078
F078
ENDCHAR
STARTCHAR o
ENCODING 111
SWIDTH 75 0
DWIDTH -1 0
BBX 13 16 0 0
BITMAP
0F80
3FE0
7FF0
7FF0
F8F0
F078
F078
F078
F078
F078
F078
F8F8
7FF0
7FF0
3FE0
0F80
ENDCHAR
STARTCHAR p
ENCODING 112
SWIDTH 75 0
DWIDTH -1 0
BBX 13 16 0 0
BITMAP
F7C0
FFE0
FFF0
FFF8
F8F8
F078
F8F8
FFF0
FFE0
F7C0
F000
F000
F000
F000
F000
F000
ENDCHAR
STARTCHAR q
ENCODING 113
SWIDTH 75 0
DWIDTH -1 0
BBX 13 16 0 0
BITMAP
1F78
3FF8
7FF8
FFF8
F8F8
F078
F8F8
7FF8
3FF8
1F78
0078
0078
0078
0078
0078
0078
ENDCHAR
STARTCHAR r
ENCODING 114
SWIDTH 75 0
DWIDTH -1 0
BBX 12 16 0 0
BITMAP
F780
FFE0
FFF0
FFF0
F8F0
F070
F000
F000
F000
F000
F000
F000
F000
F000
F000
F000
ENDCHAR
STARTCHAR s
ENCODING 115
SWIDTH 75 0
DWIDTH -1 0
BBX 13 16 0 0
BITMAP
1FC0
3FE0
7FF0
FFF8
F8F8
F000
7C00
1F00
07C0
01F0
0078
F8F8
FFF8
7FF0
3FE0
1FC0
ENDCHAR
STARTCHAR t
ENCODING 116
SWIDTH 75 0
DWIDTH -1 0
BBX 13 24 0 0
BITMAP
7800
7800
7800
7800
7800
7800
7800
7800
7800
7800
FF00
FF00
FF00
FF00
7800
7800
7878
7878
7878
7CF8
3FF0
3FF0
1FE0
0780
ENDCHAR
STARTCHAR u
ENCODING 117
SWIDTH 75 0
DWIDTH -1 0
BBX 13 16 0 0
BITMAP
F078
F078
F078
F078
F078
F078
F078
F078
F078
F078
F078
F8F8
7FF8
7FF8
3FF8
0FB8
ENDCHAR
STARTCHAR v
ENCODING 118
SWIDTH 75 0
DWIDTH -1 0
BBX 13 16 0 0
BITMAP
F078
F078
F078
F078
F078
F078
F078
F078
F078
F078
78F0
3DE0
1FC0
0F80
0700
0200
ENDCHAR
STARTCHAR w
ENCODING 119
SWIDTH 75 0
DWIDTH -1 0
BBX 13 16 0 0
BITMAP
F078
F078
F078
F078
F078
F078
F078
F078
F078
F078
F278
F778
FFF8
7FF0
3DE0
18C0
ENDCHAR
STARTCHAR x
ENCODING 120
SWIDTH 75 0
DWIDTH -1 0
BBX 13 16 0 0
BITMAP
F078
F078
F078
F8F8
FDF8
7FF0
3FE0
1FC0
0F80
1FC0
3FE0
7FF0
FDF8
F8F8
F078
F078
ENDCHAR
STARTCHAR y
ENCODING 121
SWIDTH 75 0
DWIDTH -1 0
BBX 13 16 0 0
BITMAP
F078
F078
F078
F078
F078
F078
F8F8
7FF8
3FF8
1F78
0078
F0F8
FFF8
7FF0
3FE0
1FC0
ENDCHAR
STARTCHAR z
ENCODING 122
SWIDTH 75 0
DWIDTH -1 0
BBX 13 16 0 0
BITMAP
FFF8
FFF8
FFF8
FFF8
0078
00F0
01E0
03C0
0780
0F00
1E00
3C00
7FF8
FFF8
FFF8
FFF8
ENDCHAR
STARTCHAR {
ENCODING 123
SWIDTH 75 0
DWIDTH -1 0
BBX 9 24 0 0
BITMAP
0780
0F00
1E00
3C00
3C00
3C00
3C00
3C00
3C00
3C00
7800
F000
F000
7800
3C00
3C00
3C00
3C00
3C00
3C00
3C00
1E00
0F00
0780
ENDCHAR
STARTCHAR |
ENCODING 124
SWIDTH 75 0
DWIDTH -1 0
BBX 4 24 0 0
BITMAP
F0
F0
F0
F0
F0
F0
F0
F0
F0
F0
F0
F0
F0
F0
F0
F0
F0
F0
F0
F0
F0
F0
F0
F0
ENDCHAR
STARTCHAR }
ENCODING 125
SWIDTH 75 0
DWIDTH -1 0
BBX 9 24 0 0
BITMAP
F000
7800
3C00
1E00
1E00
1E00
1E00
1E00
1E00
1E00
0F00
0780
0780
0F00
1E00
1E00
1E00
1E00
1E00
1E00
1E00
3C00
7800
F000
ENDCHAR
STARTCHAR ~
ENCODING 126
SWIDTH 75 0
DWIDTH -1 0
BBX 13 4 0 12
BITMAP
3E38
7F78
F7F0
E3E0
ENDCHAR
STARTCHAR ¤
ENCODING -92
SWIDTH 75 0
DWIDTH -1 0
BBX 13 24 0 0
BITMAP
07E0
1FF0
3FF8
3FF8
7838
7800
7800
7800
FFE0
FFE0
FFE0
7800
7800
FFE0
FFE0
FFE0
7800
7800
7800
7878
3FF8
3FF8
1FF0
07E0
ENDCHAR
STARTCHAR ¦
ENCODING -90
SWIDTH 75 0
DWIDTH -1 0
BBX 15 24 0 0
BITMAP
1CE0
0FC0
0780
0000
1FF0
3FF8
7FFC
FFFE
F83E
F01E
F000
F800
FFF0
7FF8
3FFC
1FFE
003E
001E
F01E
F83E
FFFE
7FFC
3FF8
1FF0
ENDCHAR
STARTCHAR ¼
ENCODING -68
SWIDTH 75 0
DWIDTH -1 0
BBX 15 24 0 0
BITMAP
0FFE
3FFE
7FFE
7FFE
F9E0
F1E0
F1E0
F1E0
F1E0
F1E0
F1F8
F1F8
F1F8
F1F8
F1E0
F1E0
F1E0
F1E0
F1E0
F9E0
7FFE
7FFE
3FFE
0FFE
ENDCHAR
STARTCHAR ´
ENCODING -76
SWIDTH 75 0
DWIDTH -1 0
BBX 15 24 0 0
BITMAP
1CE0
0FC0
0780
0000
FFFE
FFFE
FFFE
FFFE
001E
003E
007C
00F8
01F0
03E0
07C0
0F80
1F00
3E00
7C00
F800
FFFE
FFFE
FFFE
FFFE
ENDCHAR
STARTCHAR ¨
ENCODING -88
SWIDTH 75 0
DWIDTH -1 0
BBX 13 20 0 0
BITMAP
1CE0
0FC0
0780
0000
1FC0
3FE0
7FF0
FFF8
F8F8
F000
7C00
1F00
07C0
01F0
0078
F8F8
FFF8
7FF0
3FE0
1FC0
ENDCHAR
STARTCHAR ½
ENCODING -67
SWIDTH 75 0
DWIDTH -1 0
BBX 15 16 0 0
BITMAP
1EF8
3FFC
7FFE
FFFE
FFDE
F78E
F7FE
F7FE
F7FC
F780
F780
FFDE
FFFE
7FFE
3FFC
1EF8
ENDCHAR
STARTCHAR ¸
ENCODING -72
SWIDTH 75 0
DWIDTH -1 0
BBX 13 20 0 0
BITMAP
39C0
1F80
0F00
0000
FFF8
FFF8
FFF8
FFF8
0078
00F0
01E0
03C0
0780
0F00
1E00
3C00
7FF8
FFF8
FFF8
FFF8
ENDCHAR
STARTCHAR ¾
ENCODING -66
SWIDTH 75 0
DWIDTH -1 0
BBX 14 24 0 0
BITMAP
F03C
F03C
F03C
F03C
F03C
F03C
F03C
F87C
F87C
7CF8
7CF8
3FF0
3FF0
1FE0
1FE0
0FC0
0FC0
0780
0780
0780
0780
0780
0780
0780
ENDCHAR
STARTCHAR ¡
ENCODING -95
SWIDTH 75 0
DWIDTH -1 0
BBX 4 24 0 0
BITMAP
F0
F0
F0
F0
00
F0
F0
F0
F0
F0
F0
F0
F0
F0
F0
F0
F0
F0
F0
F0
F0
F0
F0
F0
ENDCHAR
STARTCHAR ¢
ENCODING -94
SWIDTH 75 0
DWIDTH -1 0
BBX 13 20 0 2
BITMAP
0100
0100
0F80
3FE0
7FF0
7FF0
FAF8
F278
F200
F200
F200
F200
F278
FAF8
7FF0
7FF0
3FE0
0F80
0400
0400
ENDCHAR
STARTCHAR £
ENCODING -93
SWIDTH 75 0
DWIDTH -1 0
BBX 12 24 0 0
BITMAP
3FC0
7FE0
FFF0
FFF0
F0F0
F0F0
F000
F000
7000
7000
7000
7FC0
7FC0
7FC0
7800
7800
7800
7800
7800
7800
FFF0
FFF0
FFF0
FFF0
ENDCHAR
STARTCHAR ¥
ENCODING -91
SWIDTH 75 0
DWIDTH -1 0
BBX 13 24 0 0
BITMAP
F078
F078
F078
F078
F078
F078
F078
F078
F8F8
FDF8
FFF8
7FF0
3FE0
7FF0
7FF0
0F80
0F80
0F80
7FF0
7FF0
0F80
0F80
0F80
0F80
ENDCHAR
STARTCHAR §
ENCODING -89
SWIDTH 75 0
DWIDTH -1 0
BBX 15 24 0 0
BITMAP
1FF0
3FF8
7FFC
FFFE
F83E
F01E
F800
7FF0
3FF8
7FFC
FC3E
F81E
FC3E
7FFC
3FF8
1FFC
007E
003E
F01E
F83E
FFFE
7FFC
3FF8
1FF0
ENDCHAR
STARTCHAR ©
ENCODING -87
SWIDTH 75 0
DWIDTH -1 0
BBX 15 15 0 9
BITMAP
7FFC
FFFE
E00E
CFE6
DFF6
DC36
D806
D806
D806
DC36
DFF6
CFE6
E00E
FFFE
7FFC
ENDCHAR
STARTCHAR ª
ENCODING -86
SWIDTH 75 0
DWIDTH -1 0
BBX 5 6 0 18
BITMAP
70
08
08
78
88
78
ENDCHAR
STARTCHAR «
ENCODING -85
SWIDTH 75 0
DWIDTH -1 0
BBX 15 15 0 4
BITMAP
0306
070E
0F1E
1E3C
3C78
78F0
F1E0
E1C0
F1E0
78F0
3C78
1E3C
0F1E
070E
0306
ENDCHAR
STARTCHAR ¬
ENCODING -84
SWIDTH 75 0
DWIDTH -1 0
BBX 13 11 0 8
BITMAP
FFF8
FFF8
FFF8
FFF8
0078
0078
0078
0078
0078
0078
0078
ENDCHAR
STARTCHAR ®
ENCODING -82
SWIDTH 75 0
DWIDTH -1 0
BBX 13 15 0 9
BITMAP
7FF0
FFF8
E038
DF98
DFD8
D8D8
D8D8
DF98
DF98
D8D8
D8D8
D8D8
E038
FFF8
7FF0
ENDCHAR
STARTCHAR ¯
ENCODING -81
SWIDTH 75 0
DWIDTH -1 0
BBX 13 4 0 18
BITMAP
FFF8
FFF8
FFF8
FFF8
ENDCHAR
STARTCHAR °
ENCODING -80
SWIDTH 75 0
DWIDTH -1 0
BBX 6 6 0 18
BITMAP
78
FC
CC
CC
FC
78
ENDCHAR
STARTCHAR ±
ENCODING -79
SWIDTH 75 0
DWIDTH -1 0
BBX 13 18 0 4
BITMAP
0F80
0F80
0F80
0F80
FFF8
FFF8
FFF8
FFF8
FFF8
0F80
0F80
0F80
0F80
0000
FFF8
FFF8
FFF8
FFF8
ENDCHAR
STARTCHAR ²
ENCODING -78
SWIDTH 75 0
DWIDTH -1 0
BBX 6 9 0 15
BITMAP
30
78
CC
0C
18
30
60
FC
FC
ENDCHAR
STARTCHAR ³
ENCODING -77
SWIDTH 75 0
DWIDTH -1 0
BBX 6 9 0 15
BITMAP
70
F8
8C
0C
38
0C
8C
F8
70
ENDCHAR
STARTCHAR µ
ENCODING -75
SWIDTH 75 0
DWIDTH -1 0
BBX 13 20 0 0
BITMAP
F078
F078
F078
F078
F078
F078
F078
F078
F8F8
FFF8
FFF8
FFF8
F778
F000
F000
F000
F000
F000
F000
F000
ENDCHAR
STARTCHAR ·
ENCODING -73
SWIDTH 75 0
DWIDTH -1 0
BBX 4 4 0 0
BITMAP
F0
F0
F0
F0
ENDCHAR
STARTCHAR ¹
ENCODING -71
SWIDTH 75 0
DWIDTH -1 0
BBX 4 9 0 15
BITMAP
30
70
F0
30
30
30
30
30
30
ENDCHAR
STARTCHAR º
ENCODING -70
SWIDTH 75 0
DWIDTH -1 0
BBX 6 9 0 15
BITMAP
78
FC
CC
CC
CC
CC
CC
FC
78
ENDCHAR
STARTCHAR »
ENCODING -69
SWIDTH 75 0
DWIDTH -1 0
BBX 15 15 0 5
BITMAP
C180
E1C0
F1E0
78F0
3C78
1E3C
0F1E
070E
0F1E
1E3C
3C78
78F0
F1E0
E1C0
C180
ENDCHAR
STARTCHAR ¿
ENCODING -65
SWIDTH 75 0
DWIDTH -1 0
BBX 14 24 0 0
BITMAP
0780
0780
0780
0780
0000
0780
0780
0780
0780
0780
0F80
1F00
3E00
7C00
F800
F000
F000
F03C
F03C
F87C
FFFC
7FF8
3FF0
1FE0
ENDCHAR
STARTCHAR À
ENCODING -64
SWIDTH 75 0
DWIDTH -1 0
BBX 15 24 0 0
BITMAP
0F00
0780
03C0
0000
0FE0
3FF8
7FFC
7FFC
F83E
F01E
F01E
F01E
F01E
F01E
FFFE
FFFE
FFFE
FFFE
F01E
F01E
F01E
F01E
F01E
F01E
ENDCHAR
STARTCHAR Á
ENCODING -63
SWIDTH 75 0
DWIDTH -1 0
BBX 15 24 0 0
BITMAP
00F0
01E0
03C0
0000
0FE0
3FF8
7FFC
7FFC
F83E
F01E
F01E
F01E
F01E
F01E
FFFE
FFFE
FFFE
FFFE
F01E
F01E
F01E
F01E
F01E
F01E
ENDCHAR
STARTCHAR Â
ENCODING -62
SWIDTH 75 0
DWIDTH -1 0
BBX 15 24 0 0
BITMAP
07C0
0EE0
1C70
0000
0FE0
3FF8
7FFC
7FFC
F83E
F01E
F01E
F01E
F01E
F01E
FFFE
FFFE
FFFE
FFFE
F01E
F01E
F01E
F01E
F01E
F01E
ENDCHAR
STARTCHAR Ã
ENCODING -61
SWIDTH 75 0
DWIDTH -1 0
BBX 15 24 0 0
BITMAP
1F1C
3FBC
7BF8
71F0
0FE0
3FF8
7FFC
7FFC
F83E
F01E
F01E
F01E
F01E
F01E
FFFE
FFFE
FFFE
FFFE
F01E
F01E
F01E
F01E
F01E
F01E
ENDCHAR
STARTCHAR Ä
ENCODING -60
SWIDTH 75 0
DWIDTH -1 0
BBX 15 24 0 0
BITMAP
1EF0
1EF0
1EF0
1EF0
0FE0
3FF8
7FFC
7FFC
F83E
F01E
F01E
F01E
F01E
F01E
FFFE
FFFE
FFFE
FFFE
F01E
F01E
F01E
F01E
F01E
F01E
ENDCHAR
STARTCHAR Å
ENCODING -59
SWIDTH 75 0
DWIDTH -1 0
BBX 15 24 0 0
BITMAP
0380
0440
0380
0000
0FE0
3FF8
7FFC
7FFC
F83E
F01E
F01E
F01E
F01E
F01E
FFFE
FFFE
FFFE
FFFE
F01E
F01E
F01E
F01E
F01E
F01E
ENDCHAR
STARTCHAR Æ
ENCODING -58
SWIDTH 75 0
DWIDTH -1 0
BBX 15 24 0 0
BITMAP
0FFE
1FFE
3FFE
7FFE
FDE0
F9E0
F1E0
F1E0
F1E0
F1E0
FFFC
FFFC
FFFC
FFFC
F1E0
F1E0
F1E0
F1E0
F1E0
F1E0
F1E0
F1FE
F1FE
F1FE
ENDCHAR
STARTCHAR Ç
ENCODING -57
SWIDTH 75 0
DWIDTH -1 0
BBX 15 24 0 0
BITMAP
1FF0
3FF8
7FFC
FFFE
F83E
F01E
F01E
F01E
F000
F000
F000
F000
F01E
F01E
F01E
F83E
FFFE
7FFC
3FF8
1FF0
0100
03C0
0040
0F80
ENDCHAR
STARTCHAR È
ENCODING -56
SWIDTH 75 0
DWIDTH -1 0
BBX 14 24 0 0
BITMAP
0F00
0780
03C0
0000
FFFC
FFFC
FFFC
FFFC
F000
F000
F000
F000
FFE0
FFE0
FFE0
FFE0
F000
F000
F000
F000
FFFC
FFFC
FFFC
FFFC
ENDCHAR
STARTCHAR É
ENCODING -55
SWIDTH 75 0
DWIDTH -1 0
BBX 15 24 0 0
BITMAP
01E0
03C0
0780
0000
FFFC
FFFC
FFFC
FFFC
F000
F000
F000
F000
FFE0
FFE0
FFE0
FFE0
F000
F000
F000
F000
FFFC
FFFC
FFFC
FFFE
ENDCHAR
STARTCHAR Ê
ENCODING -54
SWIDTH 75 0
DWIDTH -1 0
BBX 14 24 0 0
BITMAP
07C0
0EE0
1C70
0000
FFFC
FFFC
FFFC
FFFC
F000
F000
F000
F000
FFE0
FFE0
FFE0
FFE0
F000
F000
F000
F000
FFFC
FFFC
FFFC
FFFC
ENDCHAR
STARTCHAR Ë
ENCODING -53
SWIDTH 75 0
DWIDTH -1 0
BBX 14 24 0 0
BITMAP
3CF0
3CF0
3CF0
3CF0
FFFC
FFFC
FFFC
FFFC
F000
F000
F000
F000
FFE0
FFE0
FFE0
FFE0
F000
F000
F000
F000
FFFC
FFFC
FFFC
FFFC
ENDCHAR
STARTCHAR Ì
ENCODING -52
SWIDTH 75 0
DWIDTH -1 0
BBX 5 24 0 0
BITMAP
E0
70
38
00
78
78
78
78
78
78
78
78
78
78
78
78
78
78
78
78
78
78
78
78
ENDCHAR
STARTCHAR Í
ENCODING -51
SWIDTH 75 0
DWIDTH -1 0
BBX 5 24 0 0
BITMAP
38
70
E0
00
F0
F0
F0
F0
F0
F0
F0
F0
F0
F0
F0
F0
F0
F0
F0
F0
F0
F0
F0
F0
ENDCHAR
STARTCHAR Î
ENCODING -50
SWIDTH 75 0
DWIDTH -1 0
BBX 8 24 0 0
BITMAP
3C
7E
E7
00
3C
3C
3C
3C
3C
3C
3C
3C
3C
3C
3C
3C
3C
3C
3C
3C
3C
3C
3C
3C
ENDCHAR
STARTCHAR Ï
ENCODING -49
SWIDTH 75 0
DWIDTH -1 0
BBX 10 24 0 0
BITMAP
F3C0
F3C0
F3C0
F3C0
1E00
1E00
1E00
1E00
1E00
1E00
1E00
1E00
1E00
1E00
1E00
1E00
1E00
1E00
1E00
1E00
1E00
1E00
1E00
1E00
ENDCHAR
STARTCHAR Ð
ENCODING -48
SWIDTH 75 0
DWIDTH -1 0
BBX 15 24 0 0
BITMAP
3FE0
3FF8
3FFC
3FFC
3C3E
3C1E
3C1E
3C1E
3C1E
3C1E
3C1E
FF1E
FF1E
3C1E
3C1E
3C1E
3C1E
3C1E
3C1E
3C3E
3FFC
3FFC
3FF8
3FE0
ENDCHAR
STARTCHAR Ñ
ENCODING -47
SWIDTH 75 0
DWIDTH -1 0
BBX 15 24 0 0
BITMAP
1F1C
3FBC
7BF8
71F0
801E
C01E
E01E
F01E
F81E
FC1E
FE1E
FF1E
F79E
F3DE
F1FE
F0FE
F07E
F03E
F01E
F01E
F01E
F01E
F01E
F01E
ENDCHAR
STARTCHAR Ò
ENCODING -46
SWIDTH 75 0
DWIDTH -1 0
BBX 15 24 0 0
BITMAP
0F00
0780
03C0
0000
0FE0
3FF8
7FFC
7FFC
F83E
F01E
F01E
F01E
F01E
F01E
F01E
F01E
F01E
F01E
F01E
F83E
7FFC
7FFC
3FF8
0FE0
ENDCHAR
STARTCHAR Ó
ENCODING -45
SWIDTH 75 0
DWIDTH -1 0
BBX 15 24 0 0
BITMAP
01E0
03C0
0780
0000
0FE0
3FF8
7FFC
7FFC
F83E
F01E
F01E
F01E
F01E
F01E
F01E
F01E
F01E
F01E
F01E
F83E
7FFC
7FFC
3FF8
0FE0
ENDCHAR
STARTCHAR Ô
ENCODING -44
SWIDTH 75 0
DWIDTH -1 0
BBX 15 24 0 0
BITMAP
07C0
0EE0
1C70
0000
0FE0
3FF8
7FFC
7FFC
F83E
F01E
F01E
F01E
F01E
F01E
F01E
F01E
F01E
F01E
F01E
F83E
7FFC
7FFC
3FF8
0FE0
ENDCHAR
STARTCHAR Õ
ENCODING -43
SWIDTH 75 0
DWIDTH -1 0
BBX 15 24 0 0
BITMAP
1F1C
3FBC
7BF8
71F0
0FE0
3FF8
7FFC
7FFC
F83E
F01E
F01E
F01E
F01E
F01E
F01E
F01E
F01E
F01E
F01E
F83E
7FFC
7FFC
3FF8
0FE0
ENDCHAR
STARTCHAR Ö
ENCODING -42
SWIDTH 75 0
DWIDTH -1 0
BBX 15 24 0 0
BITMAP
1EF0
1EF0
1EF0
1EF0
0FE0
3FF8
7FFC
7FFC
F83E
F01E
F01E
F01E
F01E
F01E
F01E
F01E
F01E
F01E
F01E
F83E
7FFC
7FFC
3FF8
0FE0
ENDCHAR
STARTCHAR ×
ENCODING -41
SWIDTH 75 0
DWIDTH -1 0
BBX 15 14 0 3
BITMAP
F01E
F83E
7C7C
3EF8
1FF0
0FE0
07C0
07C0
0FE0
1FF0
3EF8
7C7C
F83E
F01E
ENDCHAR
STARTCHAR Ø
ENCODING -40
SWIDTH 75 0
DWIDTH -1 0
BBX 15 24 0 0
BITMAP
0080
0080
1FF0
3FF8
7FFC
FFFE
F93E
F11E
F11E
F11E
F11E
F11E
F11E
F11E
F11E
F11E
F11E
F93E
FFFE
7FFC
3FF8
1FF0
0200
0200
ENDCHAR
STARTCHAR Ù
ENCODING -39
SWIDTH 75 0
DWIDTH -1 0
BBX 15 24 0 0
BITMAP
0F00
0780
03C0
0000
F01E
F01E
F01E
F01E
F01E
F01E
F01E
F01E
F01E
F01E
F01E
F01E
F01E
F01E
F01E
F83E
7FFC
7FFC
3FF8
0FE0
ENDCHAR
STARTCHAR Ú
ENCODING -38
SWIDTH 75 0
DWIDTH -1 0
BBX 15 24 0 0
BITMAP
01E0
03C0
0780
0000
F01E
F01E
F01E
F01E
F01E
F01E
F01E
F01E
F01E
F01E
F01E
F01E
F01E
F01E
F01E
F83E
7FFC
7FFC
3FF8
0FE0
ENDCHAR
STARTCHAR Û
ENCODING -37
SWIDTH 75 0
DWIDTH -1 0
BBX 15 24 0 0
BITMAP
07C0
0EE0
1C70
0000
F01E
F01E
F01E
F01E
F01E
F01E
F01E
F01E
F01E
F01E
F01E
F01E
F01E
F01E
F01E
F83E
7FFC
7FFC
3FF8
0FE0
ENDCHAR
STARTCHAR Ü
ENCODING -36
SWIDTH 75 0
DWIDTH -1 0
BBX 15 24 0 0
BITMAP
783C
783C
783C
783C
F01E
F01E
F01E
F01E
F01E
F01E
F01E
F01E
F01E
F01E
F01E
F01E
F01E
F01E
F01E
F83E
7FFC
7FFC
3FF8
0FE0
ENDCHAR
STARTCHAR Ý
ENCODING -35
SWIDTH 75 0
DWIDTH -1 0
BBX 14 24 0 0
BITMAP
03C0
0780
0F00
0000
F03C
F03C
F03C
F87C
F87C
7CF8
7CF8
3FF0
3FF0
1FE0
1FE0
0FC0
0FC0
0780
0780
0780
0780
0780
0780
0780
ENDCHAR
STARTCHAR Þ
ENCODING -34
SWIDTH 75 0
DWIDTH -1 0
BBX 11 24 0 0
BITMAP
F000
F000
F000
F000
F000
FF80
FFC0
FFE0
FFE0
F1E0
F1E0
F1E0
F1E0
F1E0
F1E0
FFE0
FFE0
FFC0
FF80
F000
F000
F000
F000
F000
ENDCHAR
STARTCHAR ß
ENCODING -33
SWIDTH 75 0
DWIDTH -1 0
BBX 13 24 0 0
BITMAP
0F00
3FC0
7FE0
79E0
F0F0
F0F0
F0F0
F0F0
F1F0
F3E0
F7E0
F7C0
F780
F3E0
F1F0
F0F0
F078
F078
F078
F0F8
F1F0
F7F0
F7E0
F780
ENDCHAR
STARTCHAR à
ENCODING -32
SWIDTH 75 0
DWIDTH -1 0
BBX 13 21 0 0
BITMAP
0F00
0780
03C0
0000
0000
0FC0
1FE0
3FF0
00F8
0078
0078
0F78
3FF8
7FF8
FFF8
F8F8
F078
F8F8
7FF8
3FF8
1F78
ENDCHAR
STARTCHAR á
ENCODING -31
SWIDTH 75 0
DWIDTH -1 0
BBX 13 21 0 0
BITMAP
03C0
0780
0F00
0000
0000
0FC0
1FE0
3FF0
00F8
0078
0078
0F78
3FF8
7FF8
FFF8
F8F8
F078
F8F8
7FF8
3FF8
1F78
ENDCHAR
STARTCHAR â
ENCODING -30
SWIDTH 75 0
DWIDTH -1 0
BBX 13 21 0 0
BITMAP
07C0
0EE0
1C70
0000
0000
0FC0
1FE0
3FF0
00F8
0078
0078
0F78
3FF8
7FF8
FFF8
F8F8
F078
F8F8
7FF8
3FF8
1F78
ENDCHAR
STARTCHAR ã
ENCODING -29
SWIDTH 75 0
DWIDTH -1 0
BBX 14 21 0 0
BITMAP
1F1C
3FBC
7BF8
71F0
0000
0FC0
1FE0
3FF0
00F8
0078
0078
0F78
3FF8
7FF8
FFF8
F8F8
F078
F8F8
7FF8
3FF8
1F78
ENDCHAR
STARTCHAR ä
ENCODING -28
SWIDTH 75 0
DWIDTH -1 0
BBX 13 21 0 0
BITMAP
1EF0
1EF0
1EF0
1EF0
0000
0FC0
1FE0
3FF0
00F8
0078
0078
0F78
3FF8
7FF8
FFF8
F8F8
F078
F8F8
7FF8
3FF8
1F78
ENDCHAR
STARTCHAR å
ENCODING -27
SWIDTH 75 0
DWIDTH -1 0
BBX 13 21 0 0
BITMAP
0380
0440
0380
0000
0000
0FC0
1FE0
3FF0
00F8
0078
0078
0F78
3FF8
7FF8
FFF8
F8F8
F078
F8F8
7FF8
3FF8
1F78
ENDCHAR
STARTCHAR æ
ENCODING -26
SWIDTH 75 0
DWIDTH -1 0
BBX 15 16 0 0
BITMAP
0F78
1FFC
3FFE
03FE
03FE
03CE
1FFE
3FFE
7FFC
FFC0
FBC0
F3EE
FBFE
7FFE
3FFC
1F78
ENDCHAR
STARTCHAR ç
ENCODING -25
SWIDTH 75 0
DWIDTH -1 0
BBX 13 16 0 0
BITMAP
1FC0
3FE0
7FF0
FFF8
F8F8
F000
F000
F8F8
FFF8
7FF0
3FE0
1FC0
0200
0780
0080
1F00
ENDCHAR
STARTCHAR è
ENCODING -24
SWIDTH 75 0
DWIDTH -1 0
BBX 13 21 0 0
BITMAP
0F00
0780
03C0
0000
0000
0F80
3FE0
7FF0
7FF0
F8F8
F078
FFF8
FFF0
FFE0
F000
F000
F8F0
7FF0
7FF0
3FE0
0F80
ENDCHAR
STARTCHAR é
ENCODING -23
SWIDTH 75 0
DWIDTH -1 0
BBX 13 21 0 0
BITMAP
03C0
0780
0F00
0000
0000
0F80
3FE0
7FF0
7FF0
F8F8
F078
FFF8
FFF0
FFE0
F000
F000
F8F0
7FF0
7FF0
3FE0
0F80
ENDCHAR
STARTCHAR ê
ENCODING -22
SWIDTH 75 0
DWIDTH -1 0
BBX 13 21 0 0
BITMAP
0F80
1DC0
38E0
0000
0000
0F80
3FE0
7FF0
7FF0
F8F8
F078
FFF8
FFF0
FFE0
F000
F000
F8F0
7FF0
7FF0
3FE0
0F80
ENDCHAR
STARTCHAR ë
ENCODING -21
SWIDTH 75 0
DWIDTH -1 0
BBX 13 21 0 0
BITMAP
3CF0
3CF0
3CF0
3CF0
0000
0F80
3FE0
7FF0
7FF0
F8F8
F078
FFF8
FFF0
FFE0
F000
F000
F8F0
7FF0
7FF0
3FE0
0F80
ENDCHAR
STARTCHAR ì
ENCODING -20
SWIDTH 75 0
DWIDTH -1 0
BBX 5 21 0 0
BITMAP
E0
70
38
00
00
78
78
78
78
78
78
78
78
78
78
78
78
78
78
78
78
ENDCHAR
STARTCHAR í
ENCODING -19
SWIDTH 75 0
DWIDTH -1 0
BBX 5 21 0 0
BITMAP
38
70
E0
00
00
F0
F0
F0
F0
F0
F0
F0
F0
F0
F0
F0
F0
F0
F0
F0
F0
ENDCHAR
STARTCHAR î
ENCODING -18
SWIDTH 75 0
DWIDTH -1 0
BBX 9 21 0 0
BITMAP
3E00
7F00
E380
0000
0000
1E00
1E00
1E00
1E00
1E00
1E00
1E00
1E00
1E00
1E00
1E00
1E00
1E00
1E00
1E00
1E00
ENDCHAR
STARTCHAR ï
ENCODING -17
SWIDTH 75 0
DWIDTH -1 0
BBX 10 21 0 0
BITMAP
F3C0
F3C0
F3C0
F3C0
0000
1E00
1E00
1E00
1E00
1E00
1E00
1E00
1E00
1E00
1E00
1E00
1E00
1E00
1E00
1E00
1E00
ENDCHAR
STARTCHAR ð
ENCODING -16
SWIDTH 75 0
DWIDTH -1 0
BBX 13 21 0 0
BITMAP
3800
0C80
1F00
2600
0380
0F80
3FE0
7FF0
7FF0
F8F0
F078
F078
F078
F078
F078
F078
F8F8
7FF0
7FF0
3FE0
0F80
ENDCHAR
STARTCHAR ñ
ENCODING -15
SWIDTH 75 0
DWIDTH -1 0
BBX 13 21 0 0
BITMAP
3E38
7F78
F7F0
E3E0
0000
EFC0
FFE0
FFF0
FFF8
F8F8
F078
F078
F078
F078
F078
F078
F078
F078
F078
F078
F078
ENDCHAR
STARTCHAR ò
ENCODING -14
SWIDTH 75 0
DWIDTH -1 0
BBX 13 21 0 0
BITMAP
1E00
0F00
0780
0000
0000
0F80
3FE0
7FF0
7FF0
F8F0
F078
F078
F078
F078
F078
F078
F8F8
7FF0
7FF0
3FE0
0F80
ENDCHAR
STARTCHAR ó
ENCODING -13
SWIDTH 75 0
DWIDTH -1 0
BBX 13 21 0 0
BITMAP
03C0
0780
0F00
0000
0000
0F80
3FE0
7FF0
7FF0
F8F0
F078
F078
F078
F078
F078
F078
F8F8
7FF0
7FF0
3FE0
0F80
ENDCHAR
STARTCHAR ô
ENCODING -12
SWIDTH 75 0
DWIDTH -1 0
BBX 13 21 0 0
BITMAP
0F80
1DC0
38E0
0000
0000
0F80
3FE0
7FF0
7FF0
F8F0
F078
F078
F078
F078
F078
F078
F8F8
7FF0
7FF0
3FE0
0F80
ENDCHAR
STARTCHAR õ
ENCODING -11
SWIDTH 75 0
DWIDTH -1 0
BBX 14 21 0 0
BITMAP
1F1C
3FBC
7BF8
71F0
0000
0F80
3FE0
7FF0
7FF0
F8F0
F078
F078
F078
F078
F078
F078
F8F8
7FF0
7FF0
3FE0
0F80
ENDCHAR
STARTCHAR ö
ENCODING -10
SWIDTH 75 0
DWIDTH -1 0
BBX 13 21 0 0
BITMAP
3DE0
3DE0
3DE0
3DE0
0000
0F80
3FE0
7FF0
7FF0
F8F0
F078
F078
F078
F078
F078
F078
F8F8
7FF0
7FF0
3FE0
0F80
ENDCHAR
STARTCHAR ÷
ENCODING -9
SWIDTH 75 0
DWIDTH -1 0
BBX 14 16 0 2
BITMAP
0780
0780
0780
0780
0000
0000
FFFC
FFFC
FFFC
FFFC
0000
0000
0780
0780
0780
0780
ENDCHAR
STARTCHAR ø
ENCODING -8
SWIDTH 75 0
DWIDTH -1 0
BBX 13 17 0 0
BITMAP
0100
0F80
3FE0
7FF0
7FF0
FAF8
F278
F278
F278
F278
F278
FAF8
7FF0
7FF0
3FE0
0F80
0400
ENDCHAR
STARTCHAR ù
ENCODING -7
SWIDTH 75 0
DWIDTH -1 0
BBX 13 21 0 0
BITMAP
0F00
0780
03C0
0000
0000
F078
F078
F078
F078
F078
F078
F078
F078
F078
F078
F078
F8F8
7FF8
7FF8
3FF8
0FB8
ENDCHAR
STARTCHAR ú
ENCODING -6
SWIDTH 75 0
DWIDTH -1 0
BBX 13 21 0 0
BITMAP
03C0
0780
0F00
0000
0000
F078
F078
F078
F078
F078
F078
F078
F078
F078
F078
F078
F8F8
7FF8
7FF8
3FF8
0FB8
ENDCHAR
STARTCHAR û
ENCODING -5
SWIDTH 75 0
DWIDTH -1 0
BBX 13 21 0 0
BITMAP
0F80
1DC0
38E0
0000
0000
F078
F078
F078
F078
F078
F078
F078
F078
F078
F078
F078
F8F8
7FF8
7FF8
3FF8
0FB8
ENDCHAR
STARTCHAR ü
ENCODING -4
SWIDTH 75 0
DWIDTH -1 0
BBX 13 21 0 0
BITMAP
78F0
78F0
78F0
78F0
0000
F078
F078
F078
F078
F078
F078
F078
F078
F078
F078
F078
F8F8
7FF8
7FF8
3FF8
0FB8
ENDCHAR
STARTCHAR ý
ENCODING -3
SWIDTH 75 0
DWIDTH -1 0
BBX 13 21 0 0
BITMAP
03C0
0780
0F00
0000
0000
F078
F078
F078
F078
F078
F078
F8F8
7FF8
3FF8
1F78
0078
F0F8
FFF8
7FF0
3FE0
1FC0
ENDCHAR
STARTCHAR þ
ENCODING -2
SWIDTH 75 0
DWIDTH -1 0
BBX 14 24 0 0
BITMAP
F000
F000
F000
F000
F000
F7F0
FFF8
FFFC
FFFC
F87C
F03C
F03C
F03C
F03C
F87C
FFFC
FFFC
FFF8
F7F0
F000
F000
F000
F000
F000
ENDCHAR
STARTCHAR ÿ
ENCODING -1
SWIDTH 75 0
DWIDTH -1 0
BBX 13 21 0 0
BITMAP
F078
F078
F078
F078
0000
F078
F078
F078
F078
F078
F078
F8F8
7FF8
3FF8
1F78
0078
F0F8
FFF8
7FF0
3FE0
1FC0
ENDCHAR
ENDFONT
