STARTFONT 2.1
COMMENT Lumiplan font build using LumiStudio
FONT K
SIZE 16 75 75
FONTBOUNDINGBOX 8 16 0 0
STARTPROPERTIES 1
Copyright "Copyright (c) 2021 Lumiplan"
ENDPROPERTIES
CHARS 145
STARTCHAR 
ENCODING 14
SWIDTH 75 0
DWIDTH -1 0
BBX 0 0 1 15
ENDCHAR
STARTCHAR  
ENCODING 32
SWIDTH 75 0
DWIDTH -1 0
BBX 0 0 3 15
ENDCHAR
STARTCHAR !
ENCODING 33
SWIDTH 75 0
DWIDTH -1 0
BBX 4 13 0 3
BITMAP
60
60
60
60
60
60
60
60
60
00
60
F0
60
ENDCHAR
STARTCHAR "
ENCODING 34
SWIDTH 75 0
DWIDTH -1 0
BBX 6 5 0 11
BITMAP
CC
CC
CC
84
84
ENDCHAR
STARTCHAR #
ENCODING 35
SWIDTH 75 0
DWIDTH -1 0
BBX 8 13 0 3
BITMAP
12
36
24
7F
FE
24
24
24
7F
FE
44
CC
88
ENDCHAR
STARTCHAR $
ENCODING 36
SWIDTH 75 0
DWIDTH -1 0
BBX 8 16 0 0
BITMAP
18
18
3F
7F
E0
C0
F0
7C
3F
07
03
FF
FE
18
18
18
ENDCHAR
STARTCHAR %
ENCODING 37
SWIDTH 75 0
DWIDTH -1 0
BBX 8 13 0 3
BITMAP
61
93
96
66
0C
0C
18
30
30
66
69
C9
86
ENDCHAR
STARTCHAR &
ENCODING 38
SWIDTH 75 0
DWIDTH -1 0
BBX 8 13 0 3
BITMAP
70
F8
D8
88
D8
F8
71
FB
DE
8C
DE
FB
71
ENDCHAR
STARTCHAR '
ENCODING 39
SWIDTH 75 0
DWIDTH -1 0
BBX 2 5 0 11
BITMAP
C0
C0
C0
40
40
ENDCHAR
STARTCHAR (
ENCODING 40
SWIDTH 75 0
DWIDTH -1 0
BBX 4 13 0 3
BITMAP
30
60
60
C0
C0
C0
C0
C0
C0
C0
60
60
30
ENDCHAR
STARTCHAR )
ENCODING 41
SWIDTH 75 0
DWIDTH -1 0
BBX 4 13 0 3
BITMAP
C0
60
60
30
30
30
30
30
30
30
60
60
C0
ENDCHAR
STARTCHAR *
ENCODING 42
SWIDTH 75 0
DWIDTH -1 0
BBX 7 7 0 9
BITMAP
44
28
10
FE
10
28
44
ENDCHAR
STARTCHAR +
ENCODING 43
SWIDTH 75 0
DWIDTH -1 0
BBX 8 10 0 3
BITMAP
18
18
18
18
FF
FF
18
18
18
18
ENDCHAR
STARTCHAR ,
ENCODING 44
SWIDTH 75 0
DWIDTH -1 0
BBX 4 6 0 0
BITMAP
30
30
70
60
C0
C0
ENDCHAR
STARTCHAR -
ENCODING 45
SWIDTH 75 0
DWIDTH -1 0
BBX 6 2 0 7
BITMAP
FC
FC
ENDCHAR
STARTCHAR .
ENCODING 46
SWIDTH 75 0
DWIDTH -1 0
BBX 4 3 0 3
BITMAP
60
F0
60
ENDCHAR
STARTCHAR /
ENCODING 47
SWIDTH 75 0
DWIDTH -1 0
BBX 4 14 0 2
BITMAP
10
10
30
30
30
20
60
60
60
40
40
C0
C0
80
ENDCHAR
STARTCHAR 0
ENCODING 48
SWIDTH 75 0
DWIDTH -1 0
BBX 8 13 0 3
BITMAP
7E
FF
E7
C3
C3
C3
C3
C3
C3
C3
E7
FF
7E
ENDCHAR
STARTCHAR 1
ENCODING 49
SWIDTH 75 0
DWIDTH -1 0
BBX 5 13 0 3
BITMAP
38
78
D8
98
18
18
18
18
18
18
18
18
18
ENDCHAR
STARTCHAR 2
ENCODING 50
SWIDTH 75 0
DWIDTH -1 0
BBX 8 13 0 3
BITMAP
7C
FE
C7
03
03
03
07
0E
1C
38
70
FF
FF
ENDCHAR
STARTCHAR 3
ENCODING 51
SWIDTH 75 0
DWIDTH -1 0
BBX 8 13 0 3
BITMAP
7C
FE
C7
03
07
3E
3E
07
03
03
C7
FE
7C
ENDCHAR
STARTCHAR 4
ENCODING 52
SWIDTH 75 0
DWIDTH -1 0
BBX 8 13 0 3
BITMAP
06
0E
1E
3E
76
E6
C6
C6
FF
FF
06
06
06
ENDCHAR
STARTCHAR 5
ENCODING 53
SWIDTH 75 0
DWIDTH -1 0
BBX 7 13 0 3
BITMAP
FE
FE
C0
C0
F8
FC
0E
06
06
06
0E
FC
F8
ENDCHAR
STARTCHAR 6
ENCODING 54
SWIDTH 75 0
DWIDTH -1 0
BBX 8 13 0 3
BITMAP
1E
3E
70
E0
C0
DC
FE
E7
C3
C3
E7
7E
3C
ENDCHAR
STARTCHAR 7
ENCODING 55
SWIDTH 75 0
DWIDTH -1 0
BBX 8 13 0 3
BITMAP
FF
FF
03
03
07
06
0E
0C
1C
18
38
30
70
ENDCHAR
STARTCHAR 8
ENCODING 56
SWIDTH 75 0
DWIDTH -1 0
BBX 8 13 0 3
BITMAP
3C
7E
E7
C3
E7
7E
3C
7E
E7
C3
E7
7E
3C
ENDCHAR
STARTCHAR 9
ENCODING 57
SWIDTH 75 0
DWIDTH -1 0
BBX 8 13 0 3
BITMAP
3C
7E
E7
C3
C3
E7
7F
3B
03
07
0E
7C
78
ENDCHAR
STARTCHAR :
ENCODING 58
SWIDTH 75 0
DWIDTH -1 0
BBX 4 8 0 3
BITMAP
60
F0
60
00
00
60
F0
60
ENDCHAR
STARTCHAR ;
ENCODING 59
SWIDTH 75 0
DWIDTH -1 0
BBX 5 11 0 0
BITMAP
30
78
30
00
00
30
30
70
60
E0
C0
ENDCHAR
STARTCHAR <
ENCODING 60
SWIDTH 75 0
DWIDTH -1 0
BBX 8 8 0 4
BITMAP
03
0E
38
E0
E0
38
0E
03
ENDCHAR
STARTCHAR =
ENCODING 61
SWIDTH 75 0
DWIDTH -1 0
BBX 8 7 0 5
BITMAP
FF
FF
00
00
00
FF
FF
ENDCHAR
STARTCHAR >
ENCODING 62
SWIDTH 75 0
DWIDTH -1 0
BBX 8 8 0 4
BITMAP
C0
70
1C
07
07
1C
70
C0
ENDCHAR
STARTCHAR ?
ENCODING 63
SWIDTH 75 0
DWIDTH -1 0
BBX 7 13 0 3
BITMAP
78
FC
8E
06
0E
1C
38
30
30
00
30
78
30
ENDCHAR
STARTCHAR @
ENCODING 64
SWIDTH 75 0
DWIDTH -1 0
BBX 8 9 0 3
BITMAP
3C
42
99
A5
A5
AD
96
40
3F
ENDCHAR
STARTCHAR A
ENCODING 65
SWIDTH 75 0
DWIDTH -1 0
BBX 8 13 0 3
BITMAP
18
3C
3C
66
66
66
C3
C3
FF
FF
C3
C3
C3
ENDCHAR
STARTCHAR B
ENCODING 66
SWIDTH 75 0
DWIDTH -1 0
BBX 8 13 0 3
BITMAP
FC
FE
C7
C3
C6
FC
FE
C7
C3
C3
C7
FE
FC
ENDCHAR
STARTCHAR C
ENCODING 67
SWIDTH 75 0
DWIDTH -1 0
BBX 8 13 0 3
BITMAP
3F
7F
E0
C0
C0
C0
C0
C0
C0
C0
E0
7F
3F
ENDCHAR
STARTCHAR D
ENCODING 68
SWIDTH 75 0
DWIDTH -1 0
BBX 8 13 0 3
BITMAP
F8
FC
CE
C7
C3
C3
C3
C3
C3
C7
CE
FC
F8
ENDCHAR
STARTCHAR E
ENCODING 69
SWIDTH 75 0
DWIDTH -1 0
BBX 8 13 0 3
BITMAP
FF
FF
C0
C0
C0
FF
FF
C0
C0
C0
C0
FF
FF
ENDCHAR
STARTCHAR F
ENCODING 70
SWIDTH 75 0
DWIDTH -1 0
BBX 8 13 0 3
BITMAP
FF
FF
C0
C0
C0
FC
FC
C0
C0
C0
C0
C0
C0
ENDCHAR
STARTCHAR G
ENCODING 71
SWIDTH 75 0
DWIDTH -1 0
BBX 8 13 0 3
BITMAP
3E
7E
E0
C0
C0
C0
CF
CF
C3
C3
E7
7E
3C
ENDCHAR
STARTCHAR H
ENCODING 72
SWIDTH 75 0
DWIDTH -1 0
BBX 8 13 0 3
BITMAP
C3
C3
C3
C3
C3
C3
FF
FF
C3
C3
C3
C3
C3
ENDCHAR
STARTCHAR I
ENCODING 73
SWIDTH 75 0
DWIDTH -1 0
BBX 2 12 0 3
BITMAP
C0
C0
C0
C0
C0
C0
C0
C0
C0
C0
C0
C0
ENDCHAR
STARTCHAR J
ENCODING 74
SWIDTH 75 0
DWIDTH -1 0
BBX 6 13 0 3
BITMAP
0C
0C
0C
0C
0C
0C
0C
0C
0C
0C
1C
FC
F8
ENDCHAR
STARTCHAR K
ENCODING 75
SWIDTH 75 0
DWIDTH -1 0
BBX 8 13 0 3
BITMAP
C1
C3
C7
CE
DC
F8
F0
F8
DC
CE
C7
C3
C1
ENDCHAR
STARTCHAR L
ENCODING 76
SWIDTH 75 0
DWIDTH -1 0
BBX 8 13 0 3
BITMAP
C0
C0
C0
C0
C0
C0
C0
C0
C0
C0
C0
FF
FF
ENDCHAR
STARTCHAR M
ENCODING 77
SWIDTH 75 0
DWIDTH -1 0
BBX 8 13 0 3
BITMAP
C3
E7
FF
FF
DB
DB
DB
C3
C3
C3
C3
C3
C3
ENDCHAR
STARTCHAR N
ENCODING 78
SWIDTH 75 0
DWIDTH -1 0
BBX 8 13 0 3
BITMAP
C3
E3
E3
F3
F3
FB
DB
CF
CF
C7
C7
C3
C3
ENDCHAR
STARTCHAR O
ENCODING 79
SWIDTH 75 0
DWIDTH -1 0
BBX 8 13 0 3
BITMAP
3C
7E
E7
C3
C3
C3
C3
C3
C3
C3
E7
7E
3C
ENDCHAR
STARTCHAR P
ENCODING 80
SWIDTH 75 0
DWIDTH -1 0
BBX 8 13 0 3
BITMAP
FC
FE
E7
C3
C3
E7
FE
FC
C0
C0
C0
C0
C0
ENDCHAR
STARTCHAR Q
ENCODING 81
SWIDTH 75 0
DWIDTH -1 0
BBX 8 16 0 0
BITMAP
3C
7E
E7
C3
C3
C3
C3
C3
C3
C3
E7
7E
3C
18
0C
06
ENDCHAR
STARTCHAR R
ENCODING 82
SWIDTH 75 0
DWIDTH -1 0
BBX 8 13 0 3
BITMAP
FE
FF
C7
C3
C3
C7
FE
FC
CE
C7
C7
C3
C3
ENDCHAR
STARTCHAR S
ENCODING 83
SWIDTH 75 0
DWIDTH -1 0
BBX 8 13 0 3
BITMAP
3E
7E
E0
C0
E0
7C
3E
07
03
03
07
7E
7C
ENDCHAR
STARTCHAR T
ENCODING 84
SWIDTH 75 0
DWIDTH -1 0
BBX 8 13 0 3
BITMAP
FF
FF
18
18
18
18
18
18
18
18
18
18
18
ENDCHAR
STARTCHAR U
ENCODING 85
SWIDTH 75 0
DWIDTH -1 0
BBX 8 13 0 3
BITMAP
C3
C3
C3
C3
C3
C3
C3
C3
C3
C3
E7
7E
3C
ENDCHAR
STARTCHAR V
ENCODING 86
SWIDTH 75 0
DWIDTH -1 0
BBX 8 13 0 3
BITMAP
C3
C3
C3
C3
C3
C3
66
66
66
66
3C
3C
18
ENDCHAR
STARTCHAR W
ENCODING 87
SWIDTH 75 0
DWIDTH -1 0
BBX 8 13 0 3
BITMAP
C3
C3
DB
DB
DB
DB
DB
DB
DB
FF
FF
E7
C3
ENDCHAR
STARTCHAR X
ENCODING 88
SWIDTH 75 0
DWIDTH -1 0
BBX 8 13 0 3
BITMAP
C3
C3
C3
E7
7E
3C
18
3C
7E
66
C3
C3
C3
ENDCHAR
STARTCHAR Y
ENCODING 89
SWIDTH 75 0
DWIDTH -1 0
BBX 8 13 0 3
BITMAP
C3
C3
C3
E7
66
7E
3C
18
18
18
18
18
18
ENDCHAR
STARTCHAR Z
ENCODING 90
SWIDTH 75 0
DWIDTH -1 0
BBX 8 13 0 3
BITMAP
FF
FF
03
07
06
0C
1C
18
30
70
E0
FF
FF
ENDCHAR
STARTCHAR [
ENCODING 91
SWIDTH 75 0
DWIDTH -1 0
BBX 4 16 0 0
BITMAP
F0
F0
C0
C0
C0
C0
C0
C0
C0
C0
C0
C0
C0
C0
F0
F0
ENDCHAR
STARTCHAR \
ENCODING 92
SWIDTH 75 0
DWIDTH -1 0
BBX 4 14 0 2
BITMAP
80
80
C0
C0
C0
40
60
60
60
20
20
30
30
10
ENDCHAR
STARTCHAR ]
ENCODING 93
SWIDTH 75 0
DWIDTH -1 0
BBX 3 16 0 0
BITMAP
E0
E0
60
60
60
60
60
60
60
60
60
60
60
60
E0
E0
ENDCHAR
STARTCHAR ^
ENCODING 94
SWIDTH 75 0
DWIDTH -1 0
BBX 8 9 0 7
BITMAP
18
18
3C
24
24
66
42
C3
81
ENDCHAR
STARTCHAR _
ENCODING 95
SWIDTH 75 0
DWIDTH -1 0
BBX 8 2 0 0
BITMAP
FF
FF
ENDCHAR
STARTCHAR `
ENCODING 96
SWIDTH 75 0
DWIDTH -1 0
BBX 4 3 0 13
BITMAP
C0
60
30
ENDCHAR
STARTCHAR a
ENCODING 97
SWIDTH 75 0
DWIDTH -1 0
BBX 7 9 0 3
BITMAP
78
FC
0E
3E
7E
E6
CE
FE
76
ENDCHAR
STARTCHAR b
ENCODING 98
SWIDTH 75 0
DWIDTH -1 0
BBX 8 13 0 3
BITMAP
C0
C0
C0
C0
DC
FE
E7
C3
C3
C3
E7
FE
DC
ENDCHAR
STARTCHAR c
ENCODING 99
SWIDTH 75 0
DWIDTH -1 0
BBX 7 9 0 3
BITMAP
3C
7E
E6
C0
C0
C0
E6
7E
3C
ENDCHAR
STARTCHAR d
ENCODING 100
SWIDTH 75 0
DWIDTH -1 0
BBX 8 13 0 3
BITMAP
03
03
03
03
3B
7F
E7
C3
C3
C3
E7
7F
3B
ENDCHAR
STARTCHAR e
ENCODING 101
SWIDTH 75 0
DWIDTH -1 0
BBX 6 9 0 3
BITMAP
78
FC
CC
CC
FC
F8
C0
FC
78
ENDCHAR
STARTCHAR f
ENCODING 102
SWIDTH 75 0
DWIDTH -1 0
BBX 7 13 0 3
BITMAP
0E
1E
38
30
FE
FE
30
30
30
30
30
30
30
ENDCHAR
STARTCHAR g
ENCODING 103
SWIDTH 75 0
DWIDTH -1 0
BBX 8 12 0 0
BITMAP
7E
FF
E7
C3
C3
E7
FF
7F
03
07
7E
7C
ENDCHAR
STARTCHAR h
ENCODING 104
SWIDTH 75 0
DWIDTH -1 0
BBX 8 13 0 3
BITMAP
C0
C0
C0
C0
DE
FF
E7
C3
C3
C3
C3
C3
C3
ENDCHAR
STARTCHAR i
ENCODING 105
SWIDTH 75 0
DWIDTH -1 0
BBX 2 13 0 3
BITMAP
C0
C0
C0
00
C0
C0
C0
C0
C0
C0
C0
C0
C0
ENDCHAR
STARTCHAR j
ENCODING 106
SWIDTH 75 0
DWIDTH -1 0
BBX 5 16 0 0
BITMAP
18
18
18
00
18
18
18
18
18
18
18
18
18
38
F8
F0
ENDCHAR
STARTCHAR k
ENCODING 107
SWIDTH 75 0
DWIDTH -1 0
BBX 8 13 0 3
BITMAP
C0
C0
C0
C0
C3
C6
CC
D8
F0
F8
CC
C6
C3
ENDCHAR
STARTCHAR l
ENCODING 108
SWIDTH 75 0
DWIDTH -1 0
BBX 2 13 0 3
BITMAP
C0
C0
C0
C0
C0
C0
C0
C0
C0
C0
C0
C0
C0
ENDCHAR
STARTCHAR m
ENCODING 109
SWIDTH 75 0
DWIDTH -1 0
BBX 8 9 0 3
BITMAP
D6
FF
FF
DB
DB
DB
DB
DB
DB
ENDCHAR
STARTCHAR n
ENCODING 110
SWIDTH 75 0
DWIDTH -1 0
BBX 8 9 0 3
BITMAP
DE
FF
E7
C3
C3
C3
C3
C3
C3
ENDCHAR
STARTCHAR o
ENCODING 111
SWIDTH 75 0
DWIDTH -1 0
BBX 8 9 0 3
BITMAP
3C
7E
E7
C3
C3
C3
E7
7E
3C
ENDCHAR
STARTCHAR p
ENCODING 112
SWIDTH 75 0
DWIDTH -1 0
BBX 8 12 0 0
BITMAP
DC
FE
E7
C3
C3
C3
E7
FE
DC
C0
C0
C0
ENDCHAR
STARTCHAR q
ENCODING 113
SWIDTH 75 0
DWIDTH -1 0
BBX 8 12 0 0
BITMAP
3B
7F
E7
C3
C3
C3
E7
7F
3B
03
03
03
ENDCHAR
STARTCHAR r
ENCODING 114
SWIDTH 75 0
DWIDTH -1 0
BBX 6 9 0 3
BITMAP
CC
DC
F0
E0
C0
C0
C0
C0
C0
ENDCHAR
STARTCHAR s
ENCODING 115
SWIDTH 75 0
DWIDTH -1 0
BBX 5 9 0 3
BITMAP
78
F8
C0
E0
70
38
18
F8
F0
ENDCHAR
STARTCHAR t
ENCODING 116
SWIDTH 75 0
DWIDTH -1 0
BBX 6 11 0 3
BITMAP
60
60
FC
FC
60
60
60
60
70
3C
1C
ENDCHAR
STARTCHAR u
ENCODING 117
SWIDTH 75 0
DWIDTH -1 0
BBX 8 9 0 3
BITMAP
C3
C3
C3
C3
C3
C3
E7
FF
7B
ENDCHAR
STARTCHAR v
ENCODING 118
SWIDTH 75 0
DWIDTH -1 0
BBX 8 9 0 3
BITMAP
C3
C3
C3
C3
66
66
66
3C
18
ENDCHAR
STARTCHAR w
ENCODING 119
SWIDTH 75 0
DWIDTH -1 0
BBX 8 9 0 3
BITMAP
C3
DB
DB
DB
DB
FF
FF
66
66
ENDCHAR
STARTCHAR x
ENCODING 120
SWIDTH 75 0
DWIDTH -1 0
BBX 8 9 0 3
BITMAP
C3
E7
7E
3C
18
3C
7E
E7
C3
ENDCHAR
STARTCHAR y
ENCODING 121
SWIDTH 75 0
DWIDTH -1 0
BBX 8 12 0 0
BITMAP
C3
C3
C3
66
66
7E
3C
18
18
38
70
60
ENDCHAR
STARTCHAR z
ENCODING 122
SWIDTH 75 0
DWIDTH -1 0
BBX 7 9 0 3
BITMAP
FE
FE
0E
1C
38
70
E0
FE
FE
ENDCHAR
STARTCHAR {
ENCODING 123
SWIDTH 75 0
DWIDTH -1 0
BBX 5 14 0 2
BITMAP
18
30
30
30
30
60
E0
60
30
30
30
30
30
18
ENDCHAR
STARTCHAR |
ENCODING 124
SWIDTH 75 0
DWIDTH -1 0
BBX 2 16 0 0
BITMAP
C0
C0
C0
C0
C0
C0
C0
C0
C0
C0
C0
C0
C0
C0
C0
C0
ENDCHAR
STARTCHAR }
ENCODING 125
SWIDTH 75 0
DWIDTH -1 0
BBX 5 14 0 2
BITMAP
C0
60
60
60
60
30
18
30
60
60
60
60
60
C0
ENDCHAR
STARTCHAR ~
ENCODING 126
SWIDTH 75 0
DWIDTH -1 0
BBX 8 5 0 6
BITMAP
20
73
5A
CE
04
ENDCHAR
STARTCHAR 
ENCODING 127
SWIDTH 75 0
DWIDTH -1 0
BBX 4 13 0 3
BITMAP
60
F0
60
00
60
60
60
60
60
60
60
60
60
ENDCHAR
STARTCHAR f
ENCODING 102
SWIDTH 75 0
DWIDTH -1 0
BBX 0 0 8 15
ENDCHAR
STARTCHAR ¡
ENCODING -95
SWIDTH 75 0
DWIDTH -1 0
BBX 0 0 8 15
ENDCHAR
STARTCHAR £
ENCODING -93
SWIDTH 75 0
DWIDTH -1 0
BBX 7 14 0 2
BITMAP
18
3C
18
00
00
18
18
38
70
E0
C0
E2
7E
3C
ENDCHAR
STARTCHAR ª
ENCODING -86
SWIDTH 75 0
DWIDTH -1 0
BBX 5 13 0 3
BITMAP
18
30
60
00
F8
F8
C0
C0
F0
C0
C0
F8
F8
ENDCHAR
STARTCHAR «
ENCODING -85
SWIDTH 75 0
DWIDTH -1 0
BBX 8 14 0 2
BITMAP
71
DB
8E
00
E3
F3
F3
DB
DB
DB
CF
CF
C7
C7
ENDCHAR
STARTCHAR ¬
ENCODING -84
SWIDTH 75 0
DWIDTH -1 0
BBX 0 0 8 15
ENDCHAR
STARTCHAR ®
ENCODING -82
SWIDTH 75 0
DWIDTH -1 0
BBX 0 0 8 15
ENDCHAR
STARTCHAR º
ENCODING -70
SWIDTH 75 0
DWIDTH -1 0
BBX 0 0 8 15
ENDCHAR
STARTCHAR »
ENCODING -69
SWIDTH 75 0
DWIDTH -1 0
BBX 0 0 8 15
ENDCHAR
STARTCHAR  
ENCODING 32
SWIDTH 75 0
DWIDTH -1 0
BBX 0 0 8 15
ENDCHAR
STARTCHAR  
ENCODING 32
SWIDTH 75 0
DWIDTH -1 0
BBX 0 0 8 15
ENDCHAR
STARTCHAR ¿
ENCODING -65
SWIDTH 75 0
DWIDTH -1 0
BBX 0 0 8 15
ENDCHAR
STARTCHAR Ä
ENCODING -60
SWIDTH 75 0
DWIDTH -1 0
BBX 0 0 8 15
ENDCHAR
STARTCHAR Å
ENCODING -59
SWIDTH 75 0
DWIDTH -1 0
BBX 0 0 8 15
ENDCHAR
STARTCHAR Æ
ENCODING -58
SWIDTH 75 0
DWIDTH -1 0
BBX 0 0 8 15
ENDCHAR
STARTCHAR Ç
ENCODING -57
SWIDTH 75 0
DWIDTH -1 0
BBX 0 0 8 15
ENDCHAR
STARTCHAR É
ENCODING -55
SWIDTH 75 0
DWIDTH -1 0
BBX 0 0 8 15
ENDCHAR
STARTCHAR Ñ
ENCODING -47
SWIDTH 75 0
DWIDTH -1 0
BBX 0 0 8 15
ENDCHAR
STARTCHAR Ö
ENCODING -42
SWIDTH 75 0
DWIDTH -1 0
BBX 0 0 8 15
ENDCHAR
STARTCHAR ×
ENCODING -41
SWIDTH 75 0
DWIDTH -1 0
BBX 0 0 8 15
ENDCHAR
STARTCHAR Ø
ENCODING -40
SWIDTH 75 0
DWIDTH -1 0
BBX 0 0 8 15
ENDCHAR
STARTCHAR Ü
ENCODING -36
SWIDTH 75 0
DWIDTH -1 0
BBX 0 0 8 15
ENDCHAR
STARTCHAR à
ENCODING -32
SWIDTH 75 0
DWIDTH -1 0
BBX 0 0 8 15
ENDCHAR
STARTCHAR á
ENCODING -31
SWIDTH 75 0
DWIDTH -1 0
BBX 0 0 8 15
ENDCHAR
STARTCHAR â
ENCODING -30
SWIDTH 75 0
DWIDTH -1 0
BBX 0 0 8 15
ENDCHAR
STARTCHAR ä
ENCODING -28
SWIDTH 75 0
DWIDTH -1 0
BBX 0 0 8 15
ENDCHAR
STARTCHAR å
ENCODING -27
SWIDTH 75 0
DWIDTH -1 0
BBX 0 0 8 15
ENDCHAR
STARTCHAR æ
ENCODING -26
SWIDTH 75 0
DWIDTH -1 0
BBX 0 0 8 15
ENDCHAR
STARTCHAR ç
ENCODING -25
SWIDTH 75 0
DWIDTH -1 0
BBX 0 0 8 15
ENDCHAR
STARTCHAR è
ENCODING -24
SWIDTH 75 0
DWIDTH -1 0
BBX 8 6 0 6
BITMAP
FF
FF
03
03
03
03
ENDCHAR
STARTCHAR é
ENCODING -23
SWIDTH 75 0
DWIDTH -1 0
BBX 0 0 8 15
ENDCHAR
STARTCHAR ê
ENCODING -22
SWIDTH 75 0
DWIDTH -1 0
BBX 4 7 0 9
BITMAP
60
90
10
70
90
B0
50
ENDCHAR
STARTCHAR ë
ENCODING -21
SWIDTH 75 0
DWIDTH -1 0
BBX 8 8 0 4
BITMAP
33
66
44
CC
CC
44
66
33
ENDCHAR
STARTCHAR ì
ENCODING -20
SWIDTH 75 0
DWIDTH -1 0
BBX 0 0 8 15
ENDCHAR
STARTCHAR í
ENCODING -19
SWIDTH 75 0
DWIDTH -1 0
BBX 7 13 0 3
BITMAP
44
EE
44
00
38
38
6C
6C
6C
FE
FE
C6
C6
ENDCHAR
STARTCHAR î
ENCODING -18
SWIDTH 75 0
DWIDTH -1 0
BBX 8 9 0 7
BITMAP
3C
42
B9
AD
B9
A5
A5
42
3C
ENDCHAR
STARTCHAR ï
ENCODING -17
SWIDTH 75 0
DWIDTH -1 0
BBX 6 2 0 7
BITMAP
FC
FC
ENDCHAR
STARTCHAR ñ
ENCODING -15
SWIDTH 75 0
DWIDTH -1 0
BBX 8 16 0 0
BITMAP
3F
7F
E0
C0
C0
C0
C0
C0
C0
C0
E0
7F
3F
08
04
18
ENDCHAR
STARTCHAR ò
ENCODING -14
SWIDTH 75 0
DWIDTH -1 0
BBX 0 0 8 15
ENDCHAR
STARTCHAR ó
ENCODING -13
SWIDTH 75 0
DWIDTH -1 0
BBX 7 13 0 3
BITMAP
18
24
18
00
38
38
6C
6C
6C
FE
FE
C6
C6
ENDCHAR
STARTCHAR ô
ENCODING -12
SWIDTH 75 0
DWIDTH -1 0
BBX 0 0 8 15
ENDCHAR
STARTCHAR ö
ENCODING -10
SWIDTH 75 0
DWIDTH -1 0
BBX 0 0 8 15
ENDCHAR
STARTCHAR ø
ENCODING -8
SWIDTH 75 0
DWIDTH -1 0
BBX 0 0 8 15
ENDCHAR
STARTCHAR ù
ENCODING -7
SWIDTH 75 0
DWIDTH -1 0
BBX 5 5 0 11
BITMAP
70
D8
88
D8
70
ENDCHAR
STARTCHAR ú
ENCODING -6
SWIDTH 75 0
DWIDTH -1 0
BBX 8 13 0 3
BITMAP
1F
3F
6C
6C
6C
4F
CF
CC
FC
FC
CC
CF
CF
ENDCHAR
STARTCHAR û
ENCODING -5
SWIDTH 75 0
DWIDTH -1 0
BBX 0 0 8 15
ENDCHAR
STARTCHAR ü
ENCODING -4
SWIDTH 75 0
DWIDTH -1 0
BBX 8 13 0 3
BITMAP
0E
1E
38
30
30
7E
7E
30
30
30
30
FF
FF
ENDCHAR
STARTCHAR ÿ
ENCODING -1
SWIDTH 75 0
DWIDTH -1 0
BBX 8 8 0 4
BITMAP
CC
66
22
33
33
22
66
CC
ENDCHAR
ENDFONT
