STARTFONT 2.1
COMMENT Lumiplan font build using LumiStudio
FONT Duhamel 20/18 3-Normal
SIZE 20 75 75
FONTBOUNDINGBOX 11 20 0 0
STARTPROPERTIES 1
Copyright "Copyright (c) 2021 Lumiplan"
ENDPROPERTIES
CHARS 189
STARTCHAR 
ENCODING 14
SWIDTH 75 0
DWIDTH -1 0
BBX 0 0 1 19
ENDCHAR
STARTCHAR  
ENCODING 32
SWIDTH 75 0
DWIDTH -1 0
BBX 0 0 2 19
ENDCHAR
STARTCHAR !
ENCODING 33
SWIDTH 75 0
DWIDTH -1 0
BBX 3 17 0 2
BITMAP
E0
E0
E0
E0
E0
E0
E0
E0
E0
E0
E0
E0
00
00
E0
E0
E0
ENDCHAR
STARTCHAR "
ENCODING 34
SWIDTH 75 0
DWIDTH -1 0
BBX 8 5 0 14
BITMAP
77
77
77
66
88
ENDCHAR
STARTCHAR #
ENCODING 35
SWIDTH 75 0
DWIDTH -1 0
BBX 11 12 0 1
BITMAP
3B80
FFE0
FFE0
FFE0
3B80
3B80
3B80
3B80
FFE0
FFE0
FFE0
3B80
ENDCHAR
STARTCHAR $
ENCODING 36
SWIDTH 75 0
DWIDTH -1 0
BBX 11 18 0 1
BITMAP
0400
3F80
7FC0
FFE0
F5E0
F400
7C00
3C00
1E00
0F00
0780
07C0
05E0
F5E0
FFE0
7FC0
3F80
0400
ENDCHAR
STARTCHAR %
ENCODING 37
SWIDTH 75 0
DWIDTH -1 0
BBX 11 12 0 1
BITMAP
E020
E060
E0E0
01C0
0380
0700
0E00
1C00
3800
70E0
E0E0
C0E0
ENDCHAR
STARTCHAR &
ENCODING 38
SWIDTH 75 0
DWIDTH -1 0
BBX 11 18 0 1
BITMAP
3F80
7FC0
FFE0
F0E0
F0E0
71C0
3B80
3F00
3F00
7E60
FF60
F3C0
E1C0
E1E0
E1E0
FFE0
7FC0
3F80
ENDCHAR
STARTCHAR '
ENCODING 39
SWIDTH 75 0
DWIDTH -1 0
BBX 4 6 0 13
BITMAP
70
70
70
70
60
80
ENDCHAR
STARTCHAR (
ENCODING 40
SWIDTH 75 0
DWIDTH -1 0
BBX 5 18 0 1
BITMAP
38
78
F8
F0
E0
E0
E0
E0
E0
E0
E0
E0
E0
E0
F0
F8
78
38
ENDCHAR
STARTCHAR )
ENCODING 41
SWIDTH 75 0
DWIDTH -1 0
BBX 5 18 0 1
BITMAP
E0
F0
F8
78
38
38
38
38
38
38
38
38
38
38
78
F8
F0
E0
ENDCHAR
STARTCHAR *
ENCODING 42
SWIDTH 75 0
DWIDTH -1 0
BBX 10 10 0 9
BITMAP
CCC0
EDC0
6D80
1E00
FFC0
FFC0
1E00
6D80
EDC0
CCC0
ENDCHAR
STARTCHAR +
ENCODING 43
SWIDTH 75 0
DWIDTH -1 0
BBX 11 11 0 2
BITMAP
0E00
0E00
0E00
0E00
FFE0
FFE0
FFE0
0E00
0E00
0E00
0E00
ENDCHAR
STARTCHAR ,
ENCODING 44
SWIDTH 75 0
DWIDTH -1 0
BBX 4 5 0 0
BITMAP
70
70
70
60
80
ENDCHAR
STARTCHAR -
ENCODING 45
SWIDTH 75 0
DWIDTH -1 0
BBX 7 3 0 6
BITMAP
FE
FE
FE
ENDCHAR
STARTCHAR .
ENCODING 46
SWIDTH 75 0
DWIDTH -1 0
BBX 3 3 0 1
BITMAP
E0
E0
E0
ENDCHAR
STARTCHAR /
ENCODING 47
SWIDTH 75 0
DWIDTH -1 0
BBX 11 13 0 1
BITMAP
0020
0060
00E0
01C0
0380
0700
0E00
1C00
3800
7000
E000
C000
8000
ENDCHAR
STARTCHAR 0
ENCODING 48
SWIDTH 75 0
DWIDTH -1 0
BBX 11 18 0 1
BITMAP
3F80
7FC0
FFE0
E0E0
E0E0
E0E0
E0E0
E0E0
E0E0
E0E0
E0E0
E0E0
E0E0
E0E0
E0E0
FFE0
7FC0
3F80
ENDCHAR
STARTCHAR 1
ENCODING 49
SWIDTH 75 0
DWIDTH -1 0
BBX 6 18 0 1
BITMAP
1C
3C
7C
FC
DC
1C
1C
1C
1C
1C
1C
1C
1C
1C
1C
1C
1C
1C
ENDCHAR
STARTCHAR 2
ENCODING 50
SWIDTH 75 0
DWIDTH -1 0
BBX 11 18 0 1
BITMAP
3F80
7FC0
FFE0
F1E0
E0E0
E0E0
01E0
03C0
0780
0F00
1E00
3C00
7800
F000
F000
FFE0
FFE0
FFE0
ENDCHAR
STARTCHAR 3
ENCODING 51
SWIDTH 75 0
DWIDTH -1 0
BBX 11 18 0 1
BITMAP
3F80
7FC0
FFE0
F1E0
E0E0
E0E0
00E0
01C0
0380
0380
01C0
00E0
E0E0
E0E0
F1E0
FFE0
7FC0
3F80
ENDCHAR
STARTCHAR 4
ENCODING 52
SWIDTH 75 0
DWIDTH -1 0
BBX 11 18 0 1
BITMAP
07C0
0FC0
1FC0
3FC0
79C0
F1C0
E1C0
E1C0
E1C0
E1C0
FFE0
FFE0
FFE0
03C0
03C0
03C0
03C0
03C0
ENDCHAR
STARTCHAR 5
ENCODING 53
SWIDTH 75 0
DWIDTH -1 0
BBX 11 18 0 1
BITMAP
FFE0
FFE0
FFE0
E000
E000
E000
E000
FF80
7FC0
3FE0
00E0
00E0
E0E0
E0E0
F1E0
FFE0
7FC0
3F80
ENDCHAR
STARTCHAR 6
ENCODING 54
SWIDTH 75 0
DWIDTH -1 0
BBX 11 18 0 1
BITMAP
3F00
7F80
FFC0
E000
E000
E000
E000
FF80
FFC0
FFE0
E0E0
E0E0
E0E0
E0E0
E0E0
FFE0
7FC0
3F80
ENDCHAR
STARTCHAR 7
ENCODING 55
SWIDTH 75 0
DWIDTH -1 0
BBX 11 18 0 1
BITMAP
FFE0
FFE0
FFE0
00E0
01E0
03C0
0780
0F00
0E00
0E00
0E00
0E00
0E00
0E00
0E00
0E00
0E00
0E00
ENDCHAR
STARTCHAR 8
ENCODING 56
SWIDTH 75 0
DWIDTH -1 0
BBX 11 18 0 1
BITMAP
3F80
7FC0
FFE0
F1E0
E0E0
E0E0
F1E0
7FC0
3F80
7FC0
F1E0
E0E0
E0E0
E0E0
F1E0
FFE0
7FC0
3F80
ENDCHAR
STARTCHAR 9
ENCODING 57
SWIDTH 75 0
DWIDTH -1 0
BBX 11 18 0 1
BITMAP
3F80
7FC0
FFE0
E0E0
E0E0
E0E0
E0E0
E0E0
FFE0
7FE0
3FE0
00E0
00E0
00E0
00E0
7FE0
3FC0
1F80
ENDCHAR
STARTCHAR :
ENCODING 58
SWIDTH 75 0
DWIDTH -1 0
BBX 3 10 0 1
BITMAP
E0
E0
E0
00
00
00
00
E0
E0
E0
ENDCHAR
STARTCHAR ;
ENCODING 59
SWIDTH 75 0
DWIDTH -1 0
BBX 4 11 0 0
BITMAP
70
70
70
00
00
00
70
70
70
60
80
ENDCHAR
STARTCHAR <
ENCODING 60
SWIDTH 75 0
DWIDTH -1 0
BBX 11 18 0 1
BITMAP
01E0
03C0
0780
0F00
1E00
3C00
7800
F000
E000
E000
F000
7800
3C00
1E00
0F00
0780
03C0
01E0
ENDCHAR
STARTCHAR =
ENCODING 61
SWIDTH 75 0
DWIDTH -1 0
BBX 11 10 0 1
BITMAP
FFE0
FFE0
FFE0
0000
0000
0000
0000
FFE0
FFE0
FFE0
ENDCHAR
STARTCHAR >
ENCODING 62
SWIDTH 75 0
DWIDTH -1 0
BBX 11 18 0 1
BITMAP
F000
7800
3C00
1E00
0F00
0780
03C0
01E0
00E0
00E0
01E0
03C0
0780
0F00
1E00
3C00
7800
F000
ENDCHAR
STARTCHAR ?
ENCODING 63
SWIDTH 75 0
DWIDTH -1 0
BBX 10 18 0 1
BITMAP
3F00
7F80
FFC0
E1C0
E1C0
E1C0
01C0
0380
0700
0E00
0E00
0E00
0E00
0E00
0000
0E00
0E00
0E00
ENDCHAR
STARTCHAR @
ENCODING 64
SWIDTH 75 0
DWIDTH -1 0
BBX 0 0 11 19
ENDCHAR
STARTCHAR A
ENCODING 65
SWIDTH 75 0
DWIDTH -1 0
BBX 11 18 0 1
BITMAP
3F80
7FC0
FFE0
E0E0
E0E0
E0E0
E0E0
E0E0
FFE0
FFE0
FFE0
E0E0
E0E0
E0E0
E0E0
E0E0
E0E0
E0E0
ENDCHAR
STARTCHAR B
ENCODING 66
SWIDTH 75 0
DWIDTH -1 0
BBX 11 18 0 1
BITMAP
FF80
FFC0
FFE0
E1E0
E0E0
E0E0
E1E0
FFC0
FF80
FF80
E1C0
E0E0
E0E0
E0E0
E1E0
FFE0
FFC0
FF80
ENDCHAR
STARTCHAR C
ENCODING 67
SWIDTH 75 0
DWIDTH -1 0
BBX 11 18 0 1
BITMAP
3F80
7FC0
FFE0
F1E0
E0E0
E000
E000
E000
E000
E000
E000
E000
E000
E0E0
F1E0
FFE0
7FC0
3F80
ENDCHAR
STARTCHAR D
ENCODING 68
SWIDTH 75 0
DWIDTH -1 0
BBX 11 18 0 1
BITMAP
FF80
FFC0
FFE0
E1E0
E0E0
E0E0
E0E0
E0E0
E0E0
E0E0
E0E0
E0E0
E0E0
E0E0
E1E0
FFE0
FFC0
FF80
ENDCHAR
STARTCHAR E
ENCODING 69
SWIDTH 75 0
DWIDTH -1 0
BBX 10 18 0 1
BITMAP
FFC0
FFC0
FFC0
E000
E000
E000
E000
FF00
FF00
FF00
E000
E000
E000
E000
E000
FFC0
FFC0
FFC0
ENDCHAR
STARTCHAR F
ENCODING 70
SWIDTH 75 0
DWIDTH -1 0
BBX 10 18 0 1
BITMAP
FFC0
FFC0
FFC0
E000
E000
E000
E000
FF00
FF00
FF00
E000
E000
E000
E000
E000
E000
E000
E000
ENDCHAR
STARTCHAR G
ENCODING 71
SWIDTH 75 0
DWIDTH -1 0
BBX 11 18 0 1
BITMAP
3F80
7FC0
FFE0
F1E0
E0E0
E000
E000
E7E0
E7E0
E7E0
E0E0
E0E0
E0E0
E0E0
F1E0
FFE0
7FC0
3F80
ENDCHAR
STARTCHAR H
ENCODING 72
SWIDTH 75 0
DWIDTH -1 0
BBX 11 18 0 1
BITMAP
E0E0
E0E0
E0E0
E0E0
E0E0
E0E0
E0E0
FFE0
FFE0
FFE0
E0E0
E0E0
E0E0
E0E0
E0E0
E0E0
E0E0
E0E0
ENDCHAR
STARTCHAR I
ENCODING 73
SWIDTH 75 0
DWIDTH -1 0
BBX 3 18 0 1
BITMAP
E0
E0
E0
E0
E0
E0
E0
E0
E0
E0
E0
E0
E0
E0
E0
E0
E0
E0
ENDCHAR
STARTCHAR J
ENCODING 74
SWIDTH 75 0
DWIDTH -1 0
BBX 10 18 0 1
BITMAP
01C0
01C0
01C0
01C0
01C0
01C0
01C0
01C0
01C0
01C0
01C0
01C0
01C0
E1C0
F3C0
FFC0
7F80
3F00
ENDCHAR
STARTCHAR K
ENCODING 75
SWIDTH 75 0
DWIDTH -1 0
BBX 11 18 0 1
BITMAP
E020
E060
E0E0
E1E0
E3C0
E780
EF00
FE00
FC00
FC00
FE00
EF00
E780
E3C0
E1E0
E0E0
E060
E020
ENDCHAR
STARTCHAR L
ENCODING 76
SWIDTH 75 0
DWIDTH -1 0
BBX 9 18 0 1
BITMAP
E000
E000
E000
E000
E000
E000
E000
E000
E000
E000
E000
E000
E000
E000
E000
FF80
FF80
FF80
ENDCHAR
STARTCHAR M
ENCODING 77
SWIDTH 75 0
DWIDTH -1 0
BBX 11 18 0 1
BITMAP
E0E0
F1E0
FBE0
FFE0
FFE0
EEE0
E4E0
E0E0
E0E0
E0E0
E0E0
E0E0
E0E0
E0E0
E0E0
E0E0
E0E0
E0E0
ENDCHAR
STARTCHAR N
ENCODING 78
SWIDTH 75 0
DWIDTH -1 0
BBX 11 18 0 1
BITMAP
E0E0
F0E0
F8E0
FCE0
FEE0
EFE0
E7E0
E3E0
E1E0
E0E0
E0E0
E0E0
E0E0
E0E0
E0E0
E0E0
E0E0
E0E0
ENDCHAR
STARTCHAR O
ENCODING 79
SWIDTH 75 0
DWIDTH -1 0
BBX 11 18 0 1
BITMAP
3F80
7FC0
FFE0
F1E0
E0E0
E0E0
E0E0
E0E0
E0E0
E0E0
E0E0
E0E0
E0E0
E0E0
F1E0
FFE0
7FC0
3F80
ENDCHAR
STARTCHAR P
ENCODING 80
SWIDTH 75 0
DWIDTH -1 0
BBX 11 18 0 1
BITMAP
FF80
FFC0
FFE0
E1E0
E0E0
E0E0
E0E0
E1E0
FFE0
FFC0
FF80
E000
E000
E000
E000
E000
E000
E000
ENDCHAR
STARTCHAR Q
ENCODING 81
SWIDTH 75 0
DWIDTH -1 0
BBX 11 18 0 1
BITMAP
3F80
7FC0
FFE0
F1E0
E0E0
E0E0
E0E0
E0E0
E0E0
E0E0
E0E0
E0E0
E0E0
E3E0
F3C0
FFE0
7FE0
3F60
ENDCHAR
STARTCHAR R
ENCODING 82
SWIDTH 75 0
DWIDTH -1 0
BBX 11 18 0 1
BITMAP
FF80
FFC0
FFE0
E0E0
E0E0
E0E0
E0E0
E1E0
FFC0
FF80
FF00
E780
E3C0
E1E0
E0E0
E0E0
E0E0
E0E0
ENDCHAR
STARTCHAR S
ENCODING 83
SWIDTH 75 0
DWIDTH -1 0
BBX 11 18 0 1
BITMAP
3F80
7FC0
FFE0
F1E0
E0E0
F0E0
7800
3C00
1E00
0F00
0780
03C0
E1E0
E0E0
F1E0
FFE0
7FC0
3F80
ENDCHAR
STARTCHAR T
ENCODING 84
SWIDTH 75 0
DWIDTH -1 0
BBX 11 18 0 1
BITMAP
FFE0
FFE0
FFE0
0E00
0E00
0E00
0E00
0E00
0E00
0E00
0E00
0E00
0E00
0E00
0E00
0E00
0E00
0E00
ENDCHAR
STARTCHAR U
ENCODING 85
SWIDTH 75 0
DWIDTH -1 0
BBX 11 18 0 1
BITMAP
E0E0
E0E0
E0E0
E0E0
E0E0
E0E0
E0E0
E0E0
E0E0
E0E0
E0E0
E0E0
E0E0
E0E0
F1E0
FFE0
7FC0
3F80
ENDCHAR
STARTCHAR V
ENCODING 86
SWIDTH 75 0
DWIDTH -1 0
BBX 11 18 0 1
BITMAP
E0E0
E0E0
E0E0
E0E0
E0E0
E0E0
E0E0
E0E0
E0E0
E0E0
E0E0
E0E0
E0E0
F1E0
7BC0
3F80
1F00
0E00
ENDCHAR
STARTCHAR W
ENCODING 87
SWIDTH 75 0
DWIDTH -1 0
BBX 11 18 0 1
BITMAP
E0E0
E0E0
E0E0
E0E0
E0E0
E0E0
E0E0
E0E0
E0E0
E0E0
E0E0
E4E0
EEE0
FFE0
FFE0
FBE0
F1E0
E0E0
ENDCHAR
STARTCHAR X
ENCODING 88
SWIDTH 75 0
DWIDTH -1 0
BBX 11 18 0 1
BITMAP
E0E0
E0E0
E0E0
E0E0
E0E0
F1E0
7BC0
3F80
1F00
1F00
3F80
7BC0
F1E0
E0E0
E0E0
E0E0
E0E0
E0E0
ENDCHAR
STARTCHAR Y
ENCODING 89
SWIDTH 75 0
DWIDTH -1 0
BBX 11 18 0 1
BITMAP
E0E0
E0E0
E0E0
E0E0
E0E0
F1E0
7BC0
3F80
1F00
0E00
0E00
0E00
0E00
0E00
0E00
0E00
0E00
0E00
ENDCHAR
STARTCHAR Z
ENCODING 90
SWIDTH 75 0
DWIDTH -1 0
BBX 11 18 0 1
BITMAP
FFE0
FFE0
FFE0
00E0
00E0
01E0
03C0
0780
0F00
1E00
3C00
7800
F000
E000
E000
FFE0
FFE0
FFE0
ENDCHAR
STARTCHAR [
ENCODING 91
SWIDTH 75 0
DWIDTH -1 0
BBX 6 18 0 1
BITMAP
FC
FC
FC
E0
E0
E0
E0
E0
E0
E0
E0
E0
E0
E0
E0
FC
FC
FC
ENDCHAR
STARTCHAR \
ENCODING 92
SWIDTH 75 0
DWIDTH -1 0
BBX 11 18 0 1
BITMAP
E000
E000
7000
7000
3800
3800
1C00
1C00
0E00
0E00
0700
0700
0380
0380
01C0
01C0
00E0
00E0
ENDCHAR
STARTCHAR ]
ENCODING 93
SWIDTH 75 0
DWIDTH -1 0
BBX 6 18 0 1
BITMAP
FC
FC
FC
1C
1C
1C
1C
1C
1C
1C
1C
1C
1C
1C
1C
FC
FC
FC
ENDCHAR
STARTCHAR ^
ENCODING 94
SWIDTH 75 0
DWIDTH -1 0
BBX 11 6 0 13
BITMAP
0E00
1F00
3B80
71C0
E0E0
C060
ENDCHAR
STARTCHAR _
ENCODING 95
SWIDTH 75 0
DWIDTH -1 0
BBX 11 3 0 1
BITMAP
FFE0
FFE0
FFE0
ENDCHAR
STARTCHAR `
ENCODING 96
SWIDTH 75 0
DWIDTH -1 0
BBX 4 5 0 14
BITMAP
E0
E0
E0
60
10
ENDCHAR
STARTCHAR a
ENCODING 97
SWIDTH 75 0
DWIDTH -1 0
BBX 11 12 0 1
BITMAP
7F80
7FC0
00E0
3EE0
7FE0
FFE0
E0E0
E0E0
E0E0
FFE0
7FE0
3EE0
ENDCHAR
STARTCHAR b
ENCODING 98
SWIDTH 75 0
DWIDTH -1 0
BBX 11 18 0 1
BITMAP
E000
E000
E000
E000
E000
E000
EF80
FFC0
FFE0
F1E0
E0E0
E0E0
E0E0
E0E0
F1E0
FFE0
FFC0
EF80
ENDCHAR
STARTCHAR c
ENCODING 99
SWIDTH 75 0
DWIDTH -1 0
BBX 11 12 0 1
BITMAP
3F80
7FC0
FFE0
F1E0
E0E0
E000
E000
E0E0
F1E0
FFE0
7FC0
3F80
ENDCHAR
STARTCHAR d
ENCODING 100
SWIDTH 75 0
DWIDTH -1 0
BBX 11 18 0 1
BITMAP
00E0
00E0
00E0
00E0
00E0
00E0
3EE0
7FE0
FFE0
F1E0
E0E0
E0E0
E0E0
E0E0
F1E0
FFE0
7FE0
3EE0
ENDCHAR
STARTCHAR e
ENCODING 101
SWIDTH 75 0
DWIDTH -1 0
BBX 11 12 0 1
BITMAP
3F80
7FC0
FFE0
E0E0
E0E0
FFE0
FFC0
E000
F000
FFE0
7FC0
3F80
ENDCHAR
STARTCHAR f
ENCODING 102
SWIDTH 75 0
DWIDTH -1 0
BBX 11 18 0 1
BITMAP
1F80
3FC0
7FE0
70E0
70E0
7000
FE00
FE00
FE00
7000
7000
7000
7000
7000
7000
7000
7000
7000
ENDCHAR
STARTCHAR g
ENCODING 103
SWIDTH 75 0
DWIDTH -1 0
BBX 11 13 0 0
BITMAP
3EE0
7FE0
FFE0
E0E0
E0E0
7FE0
3FE0
1EE0
00E0
E0E0
FFE0
7FC0
3F80
ENDCHAR
STARTCHAR h
ENCODING 104
SWIDTH 75 0
DWIDTH -1 0
BBX 11 18 0 1
BITMAP
E000
E000
E000
E000
E000
E000
EF80
FFC0
FFE0
F1E0
E0E0
E0E0
E0E0
E0E0
E0E0
E0E0
E0E0
E0E0
ENDCHAR
STARTCHAR i
ENCODING 105
SWIDTH 75 0
DWIDTH -1 0
BBX 3 16 0 1
BITMAP
E0
E0
E0
00
E0
E0
E0
E0
E0
E0
E0
E0
E0
E0
E0
E0
ENDCHAR
STARTCHAR j
ENCODING 106
SWIDTH 75 0
DWIDTH -1 0
BBX 9 17 0 0
BITMAP
0380
0380
0380
0000
0380
0380
0380
0380
0380
0380
0380
0380
E380
E380
FF80
7F00
3E00
ENDCHAR
STARTCHAR k
ENCODING 107
SWIDTH 75 0
DWIDTH -1 0
BBX 11 18 0 1
BITMAP
E000
E000
E000
E000
E000
E000
E1E0
E3C0
E780
EF00
FE00
FC00
FC00
FE00
EF00
E780
E3C0
E1E0
ENDCHAR
STARTCHAR l
ENCODING 108
SWIDTH 75 0
DWIDTH -1 0
BBX 3 18 0 1
BITMAP
E0
E0
E0
E0
E0
E0
E0
E0
E0
E0
E0
E0
E0
E0
E0
E0
E0
E0
ENDCHAR
STARTCHAR m
ENCODING 109
SWIDTH 75 0
DWIDTH -1 0
BBX 11 12 0 1
BITMAP
B180
FBC0
FFE0
FFE0
EEE0
EEE0
EEE0
EEE0
EEE0
EEE0
EEE0
EEE0
ENDCHAR
STARTCHAR n
ENCODING 110
SWIDTH 75 0
DWIDTH -1 0
BBX 11 12 0 1
BITMAP
DF00
FF80
FFC0
F1E0
E0E0
E0E0
E0E0
E0E0
E0E0
E0E0
E0E0
E0E0
ENDCHAR
STARTCHAR o
ENCODING 111
SWIDTH 75 0
DWIDTH -1 0
BBX 11 12 0 1
BITMAP
3F80
7FC0
FFE0
F1E0
E0E0
E0E0
E0E0
E0E0
F1E0
FFE0
7FC0
3F80
ENDCHAR
STARTCHAR p
ENCODING 112
SWIDTH 75 0
DWIDTH -1 0
BBX 11 13 0 0
BITMAP
EF80
FFC0
FFE0
E1E0
E0E0
E1E0
FFE0
FFC0
EF80
E000
E000
E000
E000
ENDCHAR
STARTCHAR q
ENCODING 113
SWIDTH 75 0
DWIDTH -1 0
BBX 11 13 0 0
BITMAP
3EE0
7FE0
FFE0
F0E0
E0E0
F0E0
FFE0
7FE0
3EE0
00E0
00E0
00E0
00E0
ENDCHAR
STARTCHAR r
ENCODING 114
SWIDTH 75 0
DWIDTH -1 0
BBX 11 12 0 1
BITMAP
DF80
FFC0
FFE0
F0E0
E0E0
E000
E000
E000
E000
E000
E000
E000
ENDCHAR
STARTCHAR s
ENCODING 115
SWIDTH 75 0
DWIDTH -1 0
BBX 11 12 0 1
BITMAP
3F80
7FC0
FFE0
E0E0
E000
7F80
3FC0
00E0
E0E0
FFE0
7FC0
3F80
ENDCHAR
STARTCHAR t
ENCODING 116
SWIDTH 75 0
DWIDTH -1 0
BBX 11 18 0 1
BITMAP
3800
3800
3800
3800
3800
3800
FF00
FF00
FF00
3800
3800
3800
3800
38E0
3DE0
3FE0
1FC0
0F80
ENDCHAR
STARTCHAR u
ENCODING 117
SWIDTH 75 0
DWIDTH -1 0
BBX 11 12 0 1
BITMAP
E0E0
E0E0
E0E0
E0E0
E0E0
E0E0
E0E0
E0E0
F1E0
7FE0
3FE0
1F60
ENDCHAR
STARTCHAR v
ENCODING 118
SWIDTH 75 0
DWIDTH -1 0
BBX 11 12 0 1
BITMAP
E0E0
E0E0
E0E0
E0E0
E0E0
E0E0
E0E0
F1E0
7BC0
3F80
1F00
0E00
ENDCHAR
STARTCHAR w
ENCODING 119
SWIDTH 75 0
DWIDTH -1 0
BBX 11 12 0 1
BITMAP
E0E0
E0E0
E0E0
E0E0
E0E0
E4E0
EEE0
FFE0
FBE0
F1E0
E0E0
C060
ENDCHAR
STARTCHAR x
ENCODING 120
SWIDTH 75 0
DWIDTH -1 0
BBX 11 12 0 1
BITMAP
C060
E0E0
F1E0
7BC0
3F80
1F00
1F00
3F80
7BC0
F1E0
E0E0
C060
ENDCHAR
STARTCHAR y
ENCODING 121
SWIDTH 75 0
DWIDTH -1 0
BBX 11 13 0 0
BITMAP
E0E0
E0E0
E0E0
F0E0
FFE0
7FE0
3FE0
00E0
00E0
E0E0
FFE0
7FC0
3F80
ENDCHAR
STARTCHAR z
ENCODING 122
SWIDTH 75 0
DWIDTH -1 0
BBX 11 12 0 1
BITMAP
FFE0
FFE0
FFE0
03C0
0780
0F00
1E00
3C00
7800
FFE0
FFE0
FFE0
ENDCHAR
STARTCHAR {
ENCODING 123
SWIDTH 75 0
DWIDTH -1 0
BBX 7 18 0 1
BITMAP
0E
1C
38
38
38
38
38
78
F8
F8
78
38
38
38
38
38
1C
0E
ENDCHAR
STARTCHAR |
ENCODING 124
SWIDTH 75 0
DWIDTH -1 0
BBX 3 18 0 1
BITMAP
E0
E0
E0
E0
E0
E0
E0
E0
E0
E0
E0
E0
E0
E0
E0
E0
E0
E0
ENDCHAR
STARTCHAR }
ENCODING 125
SWIDTH 75 0
DWIDTH -1 0
BBX 7 18 0 1
BITMAP
E0
70
38
38
38
38
38
3C
3E
3E
3C
38
38
38
38
38
70
E0
ENDCHAR
STARTCHAR ~
ENCODING 126
SWIDTH 75 0
DWIDTH -1 0
BBX 11 4 0 7
BITMAP
3860
7CE0
EFC0
C780
ENDCHAR
STARTCHAR ¤
ENCODING -92
SWIDTH 75 0
DWIDTH -1 0
BBX 11 18 0 1
BITMAP
1F80
3FC0
7FE0
78E0
70E0
7000
FE00
FE00
7000
7000
FE00
FE00
7000
70E0
78E0
7FE0
3FC0
1F80
ENDCHAR
STARTCHAR ¦
ENCODING -90
SWIDTH 75 0
DWIDTH -1 0
BBX 11 19 0 1
BITMAP
3180
1B00
0E00
0000
3F80
7FC0
FFE0
F1E0
E0E0
F0E0
7C00
1F00
07C0
E1E0
E0E0
F1E0
FFE0
7FC0
3F80
ENDCHAR
STARTCHAR ¼
ENCODING -68
SWIDTH 75 0
DWIDTH -1 0
BBX 11 18 0 1
BITMAP
3BE0
7FE0
FFE0
E700
E300
E300
E300
E300
E3C0
E3C0
E3C0
E300
E300
E300
E700
FFE0
7FE0
3BE0
ENDCHAR
STARTCHAR ´
ENCODING -76
SWIDTH 75 0
DWIDTH -1 0
BBX 11 19 0 1
BITMAP
3180
1B00
0E00
0000
FFE0
FFE0
FFE0
00E0
01E0
03C0
0780
0F00
1E00
3C00
7800
F000
FFE0
FFE0
FFE0
ENDCHAR
STARTCHAR ¨
ENCODING -88
SWIDTH 75 0
DWIDTH -1 0
BBX 11 16 0 1
BITMAP
3180
1B00
0E00
0000
3F80
7FC0
FFE0
E0E0
E000
7F80
3FC0
00E0
E0E0
FFE0
7FC0
3F80
ENDCHAR
STARTCHAR ½
ENCODING -67
SWIDTH 75 0
DWIDTH -1 0
BBX 11 12 0 1
BITMAP
3180
7BC0
FFE0
CE60
CE60
C7E0
C7C0
CE00
CE00
FFE0
7BC0
3180
ENDCHAR
STARTCHAR ¸
ENCODING -72
SWIDTH 75 0
DWIDTH -1 0
BBX 11 16 0 1
BITMAP
3180
1B00
0E00
0000
FFE0
FFE0
FFE0
03C0
0780
0F00
1E00
3C00
7800
FFE0
FFE0
FFE0
ENDCHAR
STARTCHAR ¾
ENCODING -66
SWIDTH 75 0
DWIDTH -1 0
BBX 11 19 0 1
BITMAP
71C0
71C0
71C0
0000
E0E0
E0E0
E0E0
E0E0
E0E0
F1E0
7BC0
3F80
1F00
0E00
0E00
0E00
0E00
0E00
0E00
ENDCHAR
STARTCHAR ¡
ENCODING -95
SWIDTH 75 0
DWIDTH -1 0
BBX 3 17 0 1
BITMAP
E0
E0
E0
00
00
E0
E0
E0
E0
E0
E0
E0
E0
E0
E0
E0
E0
ENDCHAR
STARTCHAR ¢
ENCODING -94
SWIDTH 75 0
DWIDTH -1 0
BBX 11 14 0 1
BITMAP
0400
3F80
7FC0
FFE0
E4E0
E4E0
E400
E400
E4E0
E4E0
FFE0
7FC0
3F80
0400
ENDCHAR
STARTCHAR £
ENCODING -93
SWIDTH 75 0
DWIDTH -1 0
BBX 11 18 0 1
BITMAP
3F80
7FC0
FFE0
E0E0
E0E0
E0E0
E000
E000
7F80
7F80
7F80
7000
7000
7000
7000
FFE0
FFE0
FFE0
ENDCHAR
STARTCHAR ¥
ENCODING -91
SWIDTH 75 0
DWIDTH -1 0
BBX 11 18 0 1
BITMAP
E0E0
E0E0
E0E0
E0E0
E0E0
E0E0
71C0
3B80
1F00
0E00
3F80
3F80
0E00
3F80
3F80
0E00
0E00
0E00
ENDCHAR
STARTCHAR §
ENCODING -89
SWIDTH 75 0
DWIDTH -1 0
BBX 9 17 0 1
BITMAP
3F00
7F80
6180
7000
3800
7C00
FE00
E700
E380
7380
3F80
1F00
0E00
0700
C300
FF00
7E00
ENDCHAR
STARTCHAR ©
ENCODING -87
SWIDTH 75 0
DWIDTH -1 0
BBX 11 12 0 1
BITMAP
3F80
7FC0
C060
CF60
DF60
D860
D860
DF60
CF60
C060
7FC0
3F80
ENDCHAR
STARTCHAR ª
ENCODING -86
SWIDTH 75 0
DWIDTH -1 0
BBX 5 6 0 13
BITMAP
70
88
08
78
88
78
ENDCHAR
STARTCHAR «
ENCODING -85
SWIDTH 75 0
DWIDTH -1 0
BBX 10 7 0 4
BITMAP
18C0
3180
6300
C600
6300
3180
18C0
ENDCHAR
STARTCHAR ¬
ENCODING -84
SWIDTH 75 0
DWIDTH -1 0
BBX 11 8 0 5
BITMAP
FFE0
FFE0
FFE0
00E0
00E0
00E0
00E0
00E0
ENDCHAR
STARTCHAR ®
ENCODING -82
SWIDTH 75 0
DWIDTH -1 0
BBX 11 12 0 1
BITMAP
3F80
7FC0
C060
DE60
D160
D160
DE60
D260
D160
C060
7FC0
3F80
ENDCHAR
STARTCHAR ¯
ENCODING -81
SWIDTH 75 0
DWIDTH -1 0
BBX 8 3 0 10
BITMAP
FF
FF
FF
ENDCHAR
STARTCHAR °
ENCODING -80
SWIDTH 75 0
DWIDTH -1 0
BBX 5 5 3 14
BITMAP
70
88
88
88
70
ENDCHAR
STARTCHAR ±
ENCODING -79
SWIDTH 75 0
DWIDTH -1 0
BBX 11 13 0 3
BITMAP
0E00
0E00
0E00
7FC0
7FC0
7FC0
0E00
0E00
0E00
0000
FFE0
FFE0
FFE0
ENDCHAR
STARTCHAR ²
ENCODING -78
SWIDTH 75 0
DWIDTH -1 0
BBX 5 7 0 13
BITMAP
70
88
88
10
20
40
F8
ENDCHAR
STARTCHAR ³
ENCODING -77
SWIDTH 75 0
DWIDTH -1 0
BBX 5 7 0 13
BITMAP
70
88
08
10
08
88
70
ENDCHAR
STARTCHAR µ
ENCODING -75
SWIDTH 75 0
DWIDTH -1 0
BBX 11 16 0 0
BITMAP
E0E0
E0E0
E0E0
E0E0
E0E0
E0E0
E0E0
F0E0
F9E0
FFE0
EF60
E000
E000
E000
E000
E000
ENDCHAR
STARTCHAR ·
ENCODING -73
SWIDTH 75 0
DWIDTH -1 0
BBX 3 3 0 5
BITMAP
E0
E0
E0
ENDCHAR
STARTCHAR ¹
ENCODING -71
SWIDTH 75 0
DWIDTH -1 0
BBX 5 6 0 14
BITMAP
20
60
A0
20
20
F8
ENDCHAR
STARTCHAR º
ENCODING -70
SWIDTH 75 0
DWIDTH -1 0
BBX 5 6 0 14
BITMAP
70
88
88
88
88
70
ENDCHAR
STARTCHAR »
ENCODING -69
SWIDTH 75 0
DWIDTH -1 0
BBX 10 7 0 4
BITMAP
C600
6300
3180
18C0
3180
6300
C600
ENDCHAR
STARTCHAR ¿
ENCODING -65
SWIDTH 75 0
DWIDTH -1 0
BBX 10 18 0 1
BITMAP
1C00
1C00
1C00
0000
1C00
1C00
1C00
1C00
1C00
3800
7000
E000
E1C0
E1C0
E1C0
FFC0
7F80
3F00
ENDCHAR
STARTCHAR À
ENCODING -64
SWIDTH 75 0
DWIDTH -1 0
BBX 11 19 0 1
BITMAP
1C00
0E00
0700
0000
3F80
7FC0
FFE0
E0E0
E0E0
E0E0
E0E0
FFE0
FFE0
FFE0
E0E0
E0E0
E0E0
E0E0
E0E0
ENDCHAR
STARTCHAR Á
ENCODING -63
SWIDTH 75 0
DWIDTH -1 0
BBX 11 19 0 1
BITMAP
0700
0E00
1C00
0000
3F80
7FC0
FFE0
E0E0
E0E0
E0E0
E0E0
FFE0
FFE0
FFE0
E0E0
E0E0
E0E0
E0E0
E0E0
ENDCHAR
STARTCHAR Â
ENCODING -62
SWIDTH 75 0
DWIDTH -1 0
BBX 11 19 0 1
BITMAP
0E00
1B00
3180
0000
3F80
7FC0
FFE0
E0E0
E0E0
E0E0
E0E0
FFE0
FFE0
FFE0
E0E0
E0E0
E0E0
E0E0
E0E0
ENDCHAR
STARTCHAR Ã
ENCODING -61
SWIDTH 75 0
DWIDTH -1 0
BBX 11 19 0 1
BITMAP
3800
4C80
0700
0000
3F80
7FC0
FFE0
E0E0
E0E0
E0E0
E0E0
FFE0
FFE0
FFE0
E0E0
E0E0
E0E0
E0E0
E0E0
ENDCHAR
STARTCHAR Ä
ENCODING -60
SWIDTH 75 0
DWIDTH -1 0
BBX 11 19 0 1
BITMAP
3B80
3B80
3B80
0000
3F80
7FC0
FFE0
E0E0
E0E0
E0E0
E0E0
FFE0
FFE0
FFE0
E0E0
E0E0
E0E0
E0E0
E0E0
ENDCHAR
STARTCHAR Å
ENCODING -59
SWIDTH 75 0
DWIDTH -1 0
BBX 11 19 0 1
BITMAP
0400
0A00
0400
0000
3F80
7FC0
FFE0
E0E0
E0E0
E0E0
E0E0
FFE0
FFE0
FFE0
E0E0
E0E0
E0E0
E0E0
E0E0
ENDCHAR
STARTCHAR Æ
ENCODING -58
SWIDTH 75 0
DWIDTH -1 0
BBX 11 18 0 1
BITMAP
3FE0
7FE0
FFE0
E700
E700
E700
E700
E700
FFE0
FFE0
FFE0
E700
E700
E700
E700
E7E0
E7E0
E7E0
ENDCHAR
STARTCHAR Ç
ENCODING -57
SWIDTH 75 0
DWIDTH -1 0
BBX 11 19 0 0
BITMAP
3F80
7FC0
FFE0
E0E0
E0E0
E000
E000
E000
E000
E000
E000
E000
E0E0
E0E0
FFE0
7FC0
3F80
0E00
3C00
ENDCHAR
STARTCHAR È
ENCODING -56
SWIDTH 75 0
DWIDTH -1 0
BBX 11 19 0 1
BITMAP
3800
1C00
0E00
0000
FFE0
FFE0
FFE0
E000
E000
E000
FF80
FF80
FF80
E000
E000
E000
FFE0
FFE0
FFE0
ENDCHAR
STARTCHAR É
ENCODING -55
SWIDTH 75 0
DWIDTH -1 0
BBX 11 19 0 1
BITMAP
0700
0E00
1C00
0000
FFE0
FFE0
FFE0
E000
E000
E000
FF80
FF80
FF80
E000
E000
E000
FFE0
FFE0
FFE0
ENDCHAR
STARTCHAR Ê
ENCODING -54
SWIDTH 75 0
DWIDTH -1 0
BBX 11 19 0 1
BITMAP
0E00
1B00
3180
0000
FFE0
FFE0
FFE0
E000
E000
E000
FF80
FF80
FF80
E000
E000
E000
FFE0
FFE0
FFE0
ENDCHAR
STARTCHAR Ë
ENCODING -53
SWIDTH 75 0
DWIDTH -1 0
BBX 11 19 0 1
BITMAP
3B80
3B80
3B80
0000
FFE0
FFE0
FFE0
E000
E000
E000
FF80
FF80
FF80
E000
E000
E000
FFE0
FFE0
FFE0
ENDCHAR
STARTCHAR Ì
ENCODING -52
SWIDTH 75 0
DWIDTH -1 0
BBX 5 19 0 1
BITMAP
E0
70
38
00
70
70
70
70
70
70
70
70
70
70
70
70
70
70
70
ENDCHAR
STARTCHAR Í
ENCODING -51
SWIDTH 75 0
DWIDTH -1 0
BBX 5 19 0 1
BITMAP
38
70
E0
00
70
70
70
70
70
70
70
70
70
70
70
70
70
70
70
ENDCHAR
STARTCHAR Î
ENCODING -50
SWIDTH 75 0
DWIDTH -1 0
BBX 7 19 0 1
BITMAP
38
6C
C6
00
38
38
38
38
38
38
38
38
38
38
38
38
38
38
38
ENDCHAR
STARTCHAR Ï
ENCODING -49
SWIDTH 75 0
DWIDTH -1 0
BBX 7 19 0 1
BITMAP
EE
EE
EE
00
38
38
38
38
38
38
38
38
38
38
38
38
38
38
38
ENDCHAR
STARTCHAR Ð
ENCODING -48
SWIDTH 75 0
DWIDTH -1 0
BBX 11 18 0 1
BITMAP
7F80
7FC0
7FE0
70E0
70E0
70E0
70E0
FCE0
FCE0
FCE0
70E0
70E0
70E0
70E0
70E0
7FE0
7FC0
7F80
ENDCHAR
STARTCHAR Ñ
ENCODING -47
SWIDTH 75 0
DWIDTH -1 0
BBX 11 19 0 1
BITMAP
3880
4C80
0700
0000
E0E0
F0E0
F8E0
FCE0
FEE0
EFE0
E7E0
E3E0
E1E0
E0E0
E0E0
E0E0
E0E0
E0E0
E0E0
ENDCHAR
STARTCHAR Ò
ENCODING -46
SWIDTH 75 0
DWIDTH -1 0
BBX 11 19 0 1
BITMAP
1C00
0E00
0700
0000
3F80
7FC0
FFE0
F1E0
E0E0
E0E0
E0E0
E0E0
E0E0
E0E0
E0E0
F1E0
FFE0
7FC0
3F80
ENDCHAR
STARTCHAR Ó
ENCODING -45
SWIDTH 75 0
DWIDTH -1 0
BBX 11 19 0 1
BITMAP
0700
0E00
1C00
0000
3F80
7FC0
FFE0
F1E0
E0E0
E0E0
E0E0
E0E0
E0E0
E0E0
E0E0
F1E0
FFE0
7FC0
3F80
ENDCHAR
STARTCHAR Ô
ENCODING -44
SWIDTH 75 0
DWIDTH -1 0
BBX 11 19 0 1
BITMAP
0E00
1B00
3180
0000
3F80
7FC0
FFE0
F1E0
E0E0
E0E0
E0E0
E0E0
E0E0
E0E0
E0E0
F1E0
FFE0
7FC0
3F80
ENDCHAR
STARTCHAR Õ
ENCODING -43
SWIDTH 75 0
DWIDTH -1 0
BBX 11 19 0 1
BITMAP
3800
4C80
0700
0000
3F80
7FC0
FFE0
F1E0
E0E0
E0E0
E0E0
E0E0
E0E0
E0E0
E0E0
F1E0
FFE0
7FC0
3F80
ENDCHAR
STARTCHAR Ö
ENCODING -42
SWIDTH 75 0
DWIDTH -1 0
BBX 11 19 0 1
BITMAP
3B80
3B80
3B80
0000
3F80
7FC0
FFE0
F1E0
E0E0
E0E0
E0E0
E0E0
E0E0
E0E0
E0E0
F1E0
FFE0
7FC0
3F80
ENDCHAR
STARTCHAR ×
ENCODING -41
SWIDTH 75 0
DWIDTH -1 0
BBX 10 10 0 3
BITMAP
C0C0
E1C0
7380
3F00
1E00
1E00
3F00
7380
E1C0
C0C0
ENDCHAR
STARTCHAR Ø
ENCODING -40
SWIDTH 75 0
DWIDTH -1 0
BBX 11 20 0 0
BITMAP
0200
3F80
7FC0
FFE0
F5E0
E4E0
E4E0
E4E0
E4E0
E4E0
E4E0
E4E0
E4E0
E4E0
E4E0
F5E0
FFE0
7FC0
3F80
0800
ENDCHAR
STARTCHAR Ù
ENCODING -39
SWIDTH 75 0
DWIDTH -1 0
BBX 11 19 0 1
BITMAP
1C00
0E00
0700
0000
E0E0
E0E0
E0E0
E0E0
E0E0
E0E0
E0E0
E0E0
E0E0
E0E0
E0E0
F1E0
FFE0
7FC0
3F80
ENDCHAR
STARTCHAR Ú
ENCODING -38
SWIDTH 75 0
DWIDTH -1 0
BBX 11 19 0 1
BITMAP
0700
0E00
1C00
0000
E0E0
E0E0
E0E0
E0E0
E0E0
E0E0
E0E0
E0E0
E0E0
E0E0
E0E0
F1E0
FFE0
7FC0
3F80
ENDCHAR
STARTCHAR Û
ENCODING -37
SWIDTH 75 0
DWIDTH -1 0
BBX 11 19 0 1
BITMAP
0E00
1B00
3180
0000
E0E0
E0E0
E0E0
E0E0
E0E0
E0E0
E0E0
E0E0
E0E0
E0E0
E0E0
F1E0
FFE0
7FC0
3F80
ENDCHAR
STARTCHAR Ü
ENCODING -36
SWIDTH 75 0
DWIDTH -1 0
BBX 11 19 0 1
BITMAP
3B80
3B80
3B80
0000
E0E0
E0E0
E0E0
E0E0
E0E0
E0E0
E0E0
E0E0
E0E0
E0E0
E0E0
F1E0
FFE0
7FC0
3F80
ENDCHAR
STARTCHAR Ý
ENCODING -35
SWIDTH 75 0
DWIDTH -1 0
BBX 11 19 0 1
BITMAP
0700
0E00
1C00
0000
E0E0
E0E0
E0E0
E0E0
E0E0
F1E0
7BC0
3F80
1F00
0E00
0E00
0E00
0E00
0E00
0E00
ENDCHAR
STARTCHAR Þ
ENCODING -34
SWIDTH 75 0
DWIDTH -1 0
BBX 11 18 0 1
BITMAP
E000
E000
E000
E000
E000
FF80
FFC0
FFE0
E1E0
E0E0
E1E0
FFE0
FFC0
FF80
E000
E000
E000
E000
ENDCHAR
STARTCHAR ß
ENCODING -33
SWIDTH 75 0
DWIDTH -1 0
BBX 11 19 0 0
BITMAP
3F00
7F80
FFC0
F3C0
E1C0
E1C0
E3C0
E780
E7C0
E3E0
E1E0
E0E0
E0E0
E0E0
E1E0
EFE0
EFC0
EF80
E000
ENDCHAR
STARTCHAR à
ENCODING -32
SWIDTH 75 0
DWIDTH -1 0
BBX 11 16 0 1
BITMAP
3800
1C00
0E00
0000
7F80
7FC0
00E0
3EE0
7FE0
FFE0
E0E0
E0E0
E0E0
FFE0
7FE0
3EE0
ENDCHAR
STARTCHAR á
ENCODING -31
SWIDTH 75 0
DWIDTH -1 0
BBX 11 16 0 1
BITMAP
0700
0E00
1C00
0000
7F80
7FC0
00E0
3EE0
7FE0
FFE0
E0E0
E0E0
E0E0
FFE0
7FE0
3EE0
ENDCHAR
STARTCHAR â
ENCODING -30
SWIDTH 75 0
DWIDTH -1 0
BBX 11 16 0 1
BITMAP
0E00
1B00
3180
0000
7F80
7FC0
00E0
3EE0
7FE0
FFE0
E0E0
E0E0
E0E0
FFE0
7FE0
3EE0
ENDCHAR
STARTCHAR ã
ENCODING -29
SWIDTH 75 0
DWIDTH -1 0
BBX 11 16 0 1
BITMAP
3800
4C80
0700
0000
7F80
7FC0
00E0
3EE0
7FE0
FFE0
E0E0
E0E0
E0E0
FFE0
7FE0
3EE0
ENDCHAR
STARTCHAR ä
ENCODING -28
SWIDTH 75 0
DWIDTH -1 0
BBX 11 16 0 1
BITMAP
3B80
3B80
3B80
0000
7F80
7FC0
00E0
3EE0
7FE0
FFE0
E0E0
E0E0
E0E0
FFE0
7FE0
3EE0
ENDCHAR
STARTCHAR å
ENCODING -27
SWIDTH 75 0
DWIDTH -1 0
BBX 11 16 0 1
BITMAP
0400
0A00
0400
0000
7F80
7FC0
00E0
3EE0
7FE0
FFE0
E0E0
E0E0
E0E0
FFE0
7FE0
3EE0
ENDCHAR
STARTCHAR æ
ENCODING -26
SWIDTH 75 0
DWIDTH -1 0
BBX 11 12 0 1
BITMAP
7B80
7FC0
0FE0
3E60
7E60
FFE0
E7C0
E600
E7E0
FFE0
7FC0
3B80
ENDCHAR
STARTCHAR ç
ENCODING -25
SWIDTH 75 0
DWIDTH -1 0
BBX 11 13 0 0
BITMAP
3F80
7FC0
FFE0
E0E0
E0E0
E000
E0E0
E0E0
FFE0
7FC0
3F80
0E00
3C00
ENDCHAR
STARTCHAR è
ENCODING -24
SWIDTH 75 0
DWIDTH -1 0
BBX 11 16 0 1
BITMAP
3800
1C00
0E00
0000
3F80
7FC0
FFE0
E0E0
E0E0
FFE0
FFC0
E000
F000
FFE0
7FC0
3F80
ENDCHAR
STARTCHAR é
ENCODING -23
SWIDTH 75 0
DWIDTH -1 0
BBX 11 16 0 1
BITMAP
0700
0E00
1C00
0000
3F80
7FC0
FFE0
E0E0
E0E0
FFE0
FFC0
E000
F000
FFE0
7FC0
3F80
ENDCHAR
STARTCHAR ê
ENCODING -22
SWIDTH 75 0
DWIDTH -1 0
BBX 11 16 0 1
BITMAP
0E00
1B00
3180
0000
3F80
7FC0
FFE0
E0E0
E0E0
FFE0
FFC0
E000
F000
FFE0
7FC0
3F80
ENDCHAR
STARTCHAR ë
ENCODING -21
SWIDTH 75 0
DWIDTH -1 0
BBX 11 16 0 1
BITMAP
3B80
3B80
3B80
0000
3F80
7FC0
FFE0
E0E0
E0E0
FFE0
FFC0
E000
F000
FFE0
7FC0
3F80
ENDCHAR
STARTCHAR ì
ENCODING -20
SWIDTH 75 0
DWIDTH -1 0
BBX 5 16 0 1
BITMAP
E0
70
38
00
70
70
70
70
70
70
70
70
70
70
70
70
ENDCHAR
STARTCHAR í
ENCODING -19
SWIDTH 75 0
DWIDTH -1 0
BBX 5 16 0 1
BITMAP
38
70
E0
00
70
70
70
70
70
70
70
70
70
70
70
70
ENDCHAR
STARTCHAR î
ENCODING -18
SWIDTH 75 0
DWIDTH -1 0
BBX 7 16 0 1
BITMAP
38
6C
C6
00
38
38
38
38
38
38
38
38
38
38
38
38
ENDCHAR
STARTCHAR ï
ENCODING -17
SWIDTH 75 0
DWIDTH -1 0
BBX 7 16 0 1
BITMAP
EE
EE
EE
00
38
38
38
38
38
38
38
38
38
38
38
38
ENDCHAR
STARTCHAR ð
ENCODING -16
SWIDTH 75 0
DWIDTH -1 0
BBX 11 17 0 1
BITMAP
7000
1900
3E00
4C00
0700
3F80
7FC0
FFE0
F1E0
E0E0
E0E0
E0E0
E0E0
F1E0
FFE0
7FC0
3F80
ENDCHAR
STARTCHAR ñ
ENCODING -15
SWIDTH 75 0
DWIDTH -1 0
BBX 11 16 0 1
BITMAP
3800
4C80
0700
0000
DF80
FFC0
FFE0
F1E0
E0E0
E0E0
E0E0
E0E0
E0E0
E0E0
E0E0
E0E0
ENDCHAR
STARTCHAR ò
ENCODING -14
SWIDTH 75 0
DWIDTH -1 0
BBX 11 16 0 1
BITMAP
3800
1C00
0E00
0000
3F80
7FC0
FFE0
F1E0
E0E0
E0E0
E0E0
E0E0
F1E0
FFE0
7FC0
3F80
ENDCHAR
STARTCHAR ó
ENCODING -13
SWIDTH 75 0
DWIDTH -1 0
BBX 11 16 0 1
BITMAP
0700
0E00
1C00
0000
3F80
7FC0
FFE0
F1E0
E0E0
E0E0
E0E0
E0E0
F1E0
FFE0
7FC0
3F80
ENDCHAR
STARTCHAR ô
ENCODING -12
SWIDTH 75 0
DWIDTH -1 0
BBX 11 16 0 1
BITMAP
0E00
1B00
3180
0000
3F80
7FC0
FFE0
F1E0
E0E0
E0E0
E0E0
E0E0
F1E0
FFE0
7FC0
3F80
ENDCHAR
STARTCHAR õ
ENCODING -11
SWIDTH 75 0
DWIDTH -1 0
BBX 11 16 0 1
BITMAP
3800
4C80
0700
0000
3F80
7FC0
FFE0
F1E0
E0E0
E0E0
E0E0
E0E0
F1E0
FFE0
7FC0
3F80
ENDCHAR
STARTCHAR ö
ENCODING -10
SWIDTH 75 0
DWIDTH -1 0
BBX 11 16 0 1
BITMAP
3B80
3B80
3B80
0000
3F80
7FC0
FFE0
F1E0
E0E0
E0E0
E0E0
E0E0
F1E0
FFE0
7FC0
3F80
ENDCHAR
STARTCHAR ÷
ENCODING -9
SWIDTH 75 0
DWIDTH -1 0
BBX 11 11 0 1
BITMAP
0E00
0E00
0E00
0000
FFE0
FFE0
FFE0
0000
0E00
0E00
0E00
ENDCHAR
STARTCHAR ø
ENCODING -8
SWIDTH 75 0
DWIDTH -1 0
BBX 11 14 0 0
BITMAP
0200
3F80
7FC0
FFE0
F5E0
E4E0
E4E0
E4E0
E4E0
F5E0
FFE0
7FC0
3F80
0800
ENDCHAR
STARTCHAR ù
ENCODING -7
SWIDTH 75 0
DWIDTH -1 0
BBX 11 16 0 1
BITMAP
1C00
0E00
0700
0000
E0E0
E0E0
E0E0
E0E0
E0E0
E0E0
E0E0
E0E0
F1E0
7FE0
3FE0
1F60
ENDCHAR
STARTCHAR ú
ENCODING -6
SWIDTH 75 0
DWIDTH -1 0
BBX 11 16 0 1
BITMAP
0700
0E00
1C00
0000
E0E0
E0E0
E0E0
E0E0
E0E0
E0E0
E0E0
E0E0
F1E0
7FE0
3FE0
1F60
ENDCHAR
STARTCHAR û
ENCODING -5
SWIDTH 75 0
DWIDTH -1 0
BBX 11 16 0 1
BITMAP
0E00
1B00
3180
0000
E0E0
E0E0
E0E0
E0E0
E0E0
E0E0
E0E0
E0E0
F1E0
7FE0
3FE0
1F60
ENDCHAR
STARTCHAR ü
ENCODING -4
SWIDTH 75 0
DWIDTH -1 0
BBX 11 16 0 1
BITMAP
3B80
3B80
3B80
0000
E0E0
E0E0
E0E0
E0E0
E0E0
E0E0
E0E0
E0E0
F1E0
7FE0
3FE0
1F60
ENDCHAR
STARTCHAR ý
ENCODING -3
SWIDTH 75 0
DWIDTH -1 0
BBX 11 17 0 0
BITMAP
0700
0E00
1C00
0000
E0E0
E0E0
E0E0
E0E0
F0E0
FFE0
7FE0
3FE0
00E0
00E0
F0E0
FFE0
7FC0
ENDCHAR
STARTCHAR þ
ENCODING -2
SWIDTH 75 0
DWIDTH -1 0
BBX 11 18 0 1
BITMAP
E000
E000
E000
FF80
FFC0
FFE0
E0E0
E0E0
E0E0
E0E0
E0E0
E0E0
FFE0
FFC0
FF80
E000
E000
E000
ENDCHAR
STARTCHAR ÿ
ENCODING -1
SWIDTH 75 0
DWIDTH -1 0
BBX 11 17 0 0
BITMAP
3B80
3B80
3B80
0000
E0E0
E0E0
E0E0
E0E0
F0E0
FFE0
7FE0
3FE0
00E0
00E0
F0E0
FFE0
7FC0
ENDCHAR
ENDFONT
