STARTFONT 2.1
COMMENT Lumiplan font build using LumiStudio
FONT Duhamel 20/18 4-Bold
SIZE 20 75 75
FONTBOUNDINGBOX 16 20 0 0
STARTPROPERTIES 1
Copyright "Copyright (c) 2021 Lumiplan"
ENDPROPERTIES
CHARS 189
STARTCHAR 
ENCODING 14
SWIDTH 75 0
DWIDTH -1 0
BBX 0 0 1 19
ENDCHAR
STARTCHAR  
ENCODING 32
SWIDTH 75 0
DWIDTH -1 0
BBX 0 0 2 19
ENDCHAR
STARTCHAR !
ENCODING 33
SWIDTH 75 0
DWIDTH -1 0
BBX 4 18 0 1
BITMAP
F0
F0
F0
F0
F0
F0
F0
F0
F0
F0
F0
F0
F0
00
F0
F0
F0
F0
ENDCHAR
STARTCHAR "
ENCODING 34
SWIDTH 75 0
DWIDTH -1 0
BBX 10 5 0 14
BITMAP
39C0
39C0
39C0
7380
C600
ENDCHAR
STARTCHAR #
ENCODING 35
SWIDTH 75 0
DWIDTH -1 0
BBX 16 18 0 1
BITMAP
3C3C
3C3C
3C3C
FFFF
FFFF
FFFF
FFFF
3C3C
3C3C
3C3C
FFFF
FFFF
FFFF
FFFF
3C3C
3C3C
3C3C
3C3C
ENDCHAR
STARTCHAR $
ENCODING 36
SWIDTH 75 0
DWIDTH -1 0
BBX 16 18 0 1
BITMAP
0240
3FFC
7FFE
FFFF
FA5F
F24F
F240
7A40
7F40
0FE0
03FC
024F
F24F
FA5F
FFFF
7FFE
3FFC
0240
ENDCHAR
STARTCHAR %
ENCODING 37
SWIDTH 75 0
DWIDTH -1 0
BBX 16 18 0 1
BITMAP
6003
F007
F00F
601F
003E
007C
00F8
01F0
03E0
07C0
0F80
1F00
3E00
7C00
F80C
F01E
E01E
C00C
ENDCHAR
STARTCHAR &
ENCODING 38
SWIDTH 75 0
DWIDTH -1 0
BBX 16 18 0 1
BITMAP
3FF0
7FF8
FFFC
F87C
F03C
F03C
F03C
F87C
7FF8
0FE3
1FFF
3E7F
7C3E
F81F
F00F
FFFF
7FFE
3FFC
ENDCHAR
STARTCHAR '
ENCODING 39
SWIDTH 75 0
DWIDTH -1 0
BBX 5 5 0 14
BITMAP
38
38
38
70
C0
ENDCHAR
STARTCHAR (
ENCODING 40
SWIDTH 75 0
DWIDTH -1 0
BBX 5 18 0 1
BITMAP
08
18
38
78
F0
E0
E0
E0
E0
E0
E0
E0
E0
F0
78
38
18
08
ENDCHAR
STARTCHAR )
ENCODING 41
SWIDTH 75 0
DWIDTH -1 0
BBX 5 18 0 1
BITMAP
80
C0
E0
F0
78
38
38
38
38
38
38
38
38
78
F0
E0
C0
80
ENDCHAR
STARTCHAR *
ENCODING 42
SWIDTH 75 0
DWIDTH -1 0
BBX 12 12 0 7
BITMAP
8610
C630
6660
36C0
1F80
FFF0
FFF0
1F80
36C0
6660
C630
8610
ENDCHAR
STARTCHAR +
ENCODING 43
SWIDTH 75 0
DWIDTH -1 0
BBX 14 14 0 2
BITMAP
0780
0780
0780
0780
0780
FFFC
FFFC
FFFC
FFFC
0780
0780
0780
0780
0780
ENDCHAR
STARTCHAR ,
ENCODING 44
SWIDTH 75 0
DWIDTH -1 0
BBX 6 6 0 0
BITMAP
3C
3C
3C
3C
70
C0
ENDCHAR
STARTCHAR -
ENCODING 45
SWIDTH 75 0
DWIDTH -1 0
BBX 9 4 0 7
BITMAP
FF80
FF80
FF80
FF80
ENDCHAR
STARTCHAR .
ENCODING 46
SWIDTH 75 0
DWIDTH -1 0
BBX 4 4 0 3
BITMAP
F0
F0
F0
F0
ENDCHAR
STARTCHAR /
ENCODING 47
SWIDTH 75 0
DWIDTH -1 0
BBX 16 18 0 1
BITMAP
0003
0007
000F
001F
003E
007C
00F8
01F0
03E0
07C0
0F80
1F00
3E00
7C00
F800
F000
E000
C000
ENDCHAR
STARTCHAR 0
ENCODING 48
SWIDTH 75 0
DWIDTH -1 0
BBX 14 18 0 1
BITMAP
0FC0
3FF0
7FF8
7FF8
F87C
F03C
F03C
F03C
F03C
F03C
F03C
F03C
F03C
F87C
7FF8
7FF8
3FF0
0FC0
ENDCHAR
STARTCHAR 1
ENCODING 49
SWIDTH 75 0
DWIDTH -1 0
BBX 12 18 0 1
BITMAP
1F00
3F00
7F00
FF00
FF00
0F00
0F00
0F00
0F00
0F00
0F00
0F00
0F00
0F00
FFF0
FFF0
FFF0
FFF0
ENDCHAR
STARTCHAR 2
ENCODING 50
SWIDTH 75 0
DWIDTH -1 0
BBX 14 18 0 1
BITMAP
1FC0
3FE0
7FF0
FFF8
F87C
F03C
003C
007C
00F8
01F0
03E0
07C0
0F80
1F00
3FFC
7FFC
FFFC
FFFC
ENDCHAR
STARTCHAR 3
ENCODING 51
SWIDTH 75 0
DWIDTH -1 0
BBX 14 18 0 1
BITMAP
3FC0
7FF0
FFF8
FFF8
F07C
E03C
007C
00F8
01F0
01F0
00F8
007C
E03C
F07C
FFF8
FFF8
7FF0
3FC0
ENDCHAR
STARTCHAR 4
ENCODING 52
SWIDTH 75 0
DWIDTH -1 0
BBX 14 18 0 1
BITMAP
00F0
01F0
03F0
07F0
0FF0
1EF0
3CF0
78F0
F0F0
E0F0
E0F0
FFFC
FFFC
FFFC
FFFC
00F0
00F0
00F0
ENDCHAR
STARTCHAR 5
ENCODING 53
SWIDTH 75 0
DWIDTH -1 0
BBX 14 18 0 1
BITMAP
FFF8
FFF8
FFF8
FFF8
F000
F000
FFE0
FFF8
FFF8
FFFC
007C
003C
003C
F87C
FFF8
7FF8
3FF0
1FC0
ENDCHAR
STARTCHAR 6
ENCODING 54
SWIDTH 75 0
DWIDTH -1 0
BBX 14 18 0 1
BITMAP
07F0
1FF0
3FF0
7FF0
7800
F000
F000
FFE0
FFF8
FFF8
FFFC
F87C
F03C
F87C
7FF8
7FF8
3FF0
0FC0
ENDCHAR
STARTCHAR 7
ENCODING 55
SWIDTH 75 0
DWIDTH -1 0
BBX 14 18 0 1
BITMAP
FFFC
FFFC
FFFC
FFFC
0078
00F8
00F0
01F0
01E0
03E0
03C0
07C0
0780
0F80
0F00
1F00
1E00
1E00
ENDCHAR
STARTCHAR 8
ENCODING 56
SWIDTH 75 0
DWIDTH -1 0
BBX 14 18 0 1
BITMAP
0FC0
3FF0
7FF8
FFFC
F87C
F03C
F87C
FFFC
7FF8
7FF8
FFFC
F87C
F03C
F87C
7FF8
7FF8
3FF0
0FC0
ENDCHAR
STARTCHAR 9
ENCODING 57
SWIDTH 75 0
DWIDTH -1 0
BBX 14 18 0 1
BITMAP
0FC0
3FF0
7FF8
7FF8
F87C
F03C
F87C
FFFC
7FFC
7FFC
3FFC
003C
003C
0078
3FF8
3FF0
3FE0
3F80
ENDCHAR
STARTCHAR :
ENCODING 58
SWIDTH 75 0
DWIDTH -1 0
BBX 4 11 0 2
BITMAP
F0
F0
F0
F0
00
00
00
F0
F0
F0
F0
ENDCHAR
STARTCHAR ;
ENCODING 59
SWIDTH 75 0
DWIDTH -1 0
BBX 6 13 0 0
BITMAP
3C
3C
3C
3C
00
00
00
3C
3C
3C
3C
70
C0
ENDCHAR
STARTCHAR <
ENCODING 60
SWIDTH 75 0
DWIDTH -1 0
BBX 9 18 0 1
BITMAP
0180
0380
0780
0F00
1E00
3C00
7800
F000
E000
E000
F000
7800
3C00
1E00
0F00
0780
0380
0180
ENDCHAR
STARTCHAR =
ENCODING 61
SWIDTH 75 0
DWIDTH -1 0
BBX 10 9 0 5
BITMAP
FFC0
FFC0
FFC0
0000
0000
0000
FFC0
FFC0
FFC0
ENDCHAR
STARTCHAR >
ENCODING 62
SWIDTH 75 0
DWIDTH -1 0
BBX 9 18 0 1
BITMAP
C000
E000
F000
7800
3C00
1E00
0F00
0780
0380
0380
0780
0F00
1E00
3C00
7800
F000
E000
C000
ENDCHAR
STARTCHAR ?
ENCODING 63
SWIDTH 75 0
DWIDTH -1 0
BBX 16 18 0 1
BITMAP
1FF0
3FF8
7FFC
FFFE
FC1F
F81F
003F
007E
00FC
01F8
03F0
03E0
03E0
03E0
0000
03E0
03E0
03E0
ENDCHAR
STARTCHAR @
ENCODING 64
SWIDTH 75 0
DWIDTH -1 0
BBX 16 18 0 1
BITMAP
1FF8
3FFC
7FFE
F81F
F00F
E1E7
E3F7
E33F
E33F
E33F
E33B
E3FB
E1F8
F000
F81F
7FFE
3FFC
1FF8
ENDCHAR
STARTCHAR A
ENCODING 65
SWIDTH 75 0
DWIDTH -1 0
BBX 15 18 0 1
BITMAP
0FE0
3FF8
7FFC
7FFC
F83E
F01E
F01E
F01E
FFFE
FFFE
FFFE
FFFE
F01E
F01E
F01E
F01E
F01E
F01E
ENDCHAR
STARTCHAR B
ENCODING 66
SWIDTH 75 0
DWIDTH -1 0
BBX 15 18 0 1
BITMAP
FFF0
FFFC
FFFE
FFFE
F03E
F01E
F03E
FFFC
FFF8
FFFC
F03E
F01E
F01E
F03E
FFFE
FFFE
FFFC
FFF0
ENDCHAR
STARTCHAR C
ENCODING 67
SWIDTH 75 0
DWIDTH -1 0
BBX 15 18 0 1
BITMAP
0FF0
3FFC
7FFE
7FFE
F81E
F00E
F000
F000
F000
F000
F000
F000
F00E
F81E
7FFE
7FFE
3FFC
0FF0
ENDCHAR
STARTCHAR D
ENCODING 68
SWIDTH 75 0
DWIDTH -1 0
BBX 16 18 0 1
BITMAP
FFF0
FFFC
FFFE
FFFE
F01F
F00F
F00F
F00F
F00F
F00F
F00F
F00F
F00F
F01F
FFFE
FFFE
FFFC
FFF0
ENDCHAR
STARTCHAR E
ENCODING 69
SWIDTH 75 0
DWIDTH -1 0
BBX 14 18 0 1
BITMAP
FFFC
FFFC
FFFC
FFFC
F000
F000
F000
FFC0
FFC0
FFC0
FFC0
F000
F000
F000
FFFC
FFFC
FFFC
FFFC
ENDCHAR
STARTCHAR F
ENCODING 70
SWIDTH 75 0
DWIDTH -1 0
BBX 14 18 0 1
BITMAP
FFFC
FFFC
FFFC
FFFC
F000
F000
F000
FFC0
FFC0
FFC0
FFC0
F000
F000
F000
F000
F000
F000
F000
ENDCHAR
STARTCHAR G
ENCODING 71
SWIDTH 75 0
DWIDTH -1 0
BBX 16 18 0 1
BITMAP
0FF0
3FFC
7FFE
7FFE
F81E
F000
F000
F3FF
F3FF
F3FF
F3FF
F00F
F00F
F81F
7FFE
7FFE
3FFC
0FF0
ENDCHAR
STARTCHAR H
ENCODING 72
SWIDTH 75 0
DWIDTH -1 0
BBX 16 18 0 1
BITMAP
F00F
F00F
F00F
F00F
F00F
F00F
F00F
FFFF
FFFF
FFFF
FFFF
F00F
F00F
F00F
F00F
F00F
F00F
F00F
ENDCHAR
STARTCHAR I
ENCODING 73
SWIDTH 75 0
DWIDTH -1 0
BBX 4 18 0 1
BITMAP
F0
F0
F0
F0
F0
F0
F0
F0
F0
F0
F0
F0
F0
F0
F0
F0
F0
F0
ENDCHAR
STARTCHAR J
ENCODING 74
SWIDTH 75 0
DWIDTH -1 0
BBX 11 18 0 1
BITMAP
01E0
01E0
01E0
01E0
01E0
01E0
01E0
01E0
01E0
01E0
01E0
01E0
F1E0
F1E0
FFE0
FFE0
7FC0
3F80
ENDCHAR
STARTCHAR K
ENCODING 75
SWIDTH 75 0
DWIDTH -1 0
BBX 13 18 0 1
BITMAP
F038
F078
F0F8
F1F0
F3E0
F7C0
FF80
FF00
FE00
FE00
FF00
FF80
F7C0
F3E0
F1F0
F0F8
F078
F038
ENDCHAR
STARTCHAR L
ENCODING 76
SWIDTH 75 0
DWIDTH -1 0
BBX 13 18 0 1
BITMAP
F000
F000
F000
F000
F000
F000
F000
F000
F000
F000
F000
F000
F000
F000
FFF8
FFF8
FFF8
FFF8
ENDCHAR
STARTCHAR M
ENCODING 77
SWIDTH 75 0
DWIDTH -1 0
BBX 16 18 0 1
BITMAP
C003
E007
F00F
F81F
FC3F
FE7F
FFFF
F7EF
F3CF
F18F
F00F
F00F
F00F
F00F
F00F
F00F
F00F
F00F
ENDCHAR
STARTCHAR N
ENCODING 78
SWIDTH 75 0
DWIDTH -1 0
BBX 16 18 0 1
BITMAP
C00F
E00F
F00F
F80F
FC0F
FE0F
FF0F
FF8F
F7CF
F3EF
F1FF
F0FF
F07F
F03F
F01F
F00F
F007
F003
ENDCHAR
STARTCHAR O
ENCODING 79
SWIDTH 75 0
DWIDTH -1 0
BBX 16 18 0 1
BITMAP
0FF0
3FFC
7FFE
7FFE
F81F
F00F
F00F
F00F
F00F
F00F
F00F
F00F
F00F
F81F
7FFE
7FFE
3FFC
0FF0
ENDCHAR
STARTCHAR P
ENCODING 80
SWIDTH 75 0
DWIDTH -1 0
BBX 14 18 0 1
BITMAP
FFE0
FFF8
FFFC
FFFC
F07C
F03C
F03C
F07C
FFFC
FFFC
FFF8
FFE0
F000
F000
F000
F000
F000
F000
ENDCHAR
STARTCHAR Q
ENCODING 81
SWIDTH 75 0
DWIDTH -1 0
BBX 16 18 0 1
BITMAP
0FF0
3FFC
7FFE
7FFE
F81F
F00F
F00F
F00F
F00F
F00F
F00F
F06F
F077
F83A
7FDC
7FEE
3FF7
0FE3
ENDCHAR
STARTCHAR R
ENCODING 82
SWIDTH 75 0
DWIDTH -1 0
BBX 14 18 0 1
BITMAP
FFE0
FFF8
FFFC
FFFC
F03C
F01C
F01C
F03C
FFFC
FFF8
FFE0
FFE0
F1F0
F0F0
F0F8
F07C
F07C
F03C
ENDCHAR
STARTCHAR S
ENCODING 83
SWIDTH 75 0
DWIDTH -1 0
BBX 16 18 0 1
BITMAP
0FF8
3FFE
7FFF
F00F
E00F
F000
FC00
7F80
1FF0
03FC
007E
001F
000F
F00F
F01F
FFFE
7FFC
1FF0
ENDCHAR
STARTCHAR T
ENCODING 84
SWIDTH 75 0
DWIDTH -1 0
BBX 16 18 0 1
BITMAP
FFFF
FFFF
FFFF
FFFF
03C0
03C0
03C0
03C0
03C0
03C0
03C0
03C0
03C0
03C0
03C0
03C0
03C0
03C0
ENDCHAR
STARTCHAR U
ENCODING 85
SWIDTH 75 0
DWIDTH -1 0
BBX 16 18 0 1
BITMAP
F00F
F00F
F00F
F00F
F00F
F00F
F00F
F00F
F00F
F00F
F00F
F00F
F00F
F81F
7FFE
7FFE
3FFC
0FF0
ENDCHAR
STARTCHAR V
ENCODING 86
SWIDTH 75 0
DWIDTH -1 0
BBX 16 18 0 1
BITMAP
F00F
F00F
F00F
F00F
781E
781E
3C3C
3C3C
1E78
1E78
0FF0
0FF0
07E0
07E0
03C0
03C0
0180
0180
ENDCHAR
STARTCHAR W
ENCODING 87
SWIDTH 75 0
DWIDTH -1 0
BBX 16 18 0 1
BITMAP
F00F
F00F
F00F
F00F
F00F
F00F
F00F
F00F
F18F
F3CF
F7EF
FFFF
FE7F
FC3F
F81F
F00F
E007
C003
ENDCHAR
STARTCHAR X
ENCODING 88
SWIDTH 75 0
DWIDTH -1 0
BBX 16 18 0 1
BITMAP
F00F
F00F
F00F
F81F
7C3E
3E7C
1FF8
0FF0
07E0
07E0
0FF0
1FF8
3E7C
7C3E
F81F
F00F
F00F
F00F
ENDCHAR
STARTCHAR Y
ENCODING 89
SWIDTH 75 0
DWIDTH -1 0
BBX 14 18 0 1
BITMAP
E01C
E01C
F03C
F03C
7878
7878
3CF0
3CF0
1FE0
1FE0
0FC0
0FC0
0780
0780
0780
0780
0780
0780
ENDCHAR
STARTCHAR Z
ENCODING 90
SWIDTH 75 0
DWIDTH -1 0
BBX 16 18 0 1
BITMAP
FFFF
FFFF
FFFF
FFFF
003E
007C
00F8
01F0
03E0
07C0
0F80
1F00
3E00
7C00
FFFF
FFFF
FFFF
FFFF
ENDCHAR
STARTCHAR [
ENCODING 91
SWIDTH 75 0
DWIDTH -1 0
BBX 8 18 0 1
BITMAP
FF
FF
FF
FF
F0
F0
F0
F0
F0
F0
F0
F0
F0
F0
FF
FF
FF
FF
ENDCHAR
STARTCHAR \
ENCODING 92
SWIDTH 75 0
DWIDTH -1 0
BBX 16 18 0 1
BITMAP
C000
E000
F000
F800
7C00
3E00
1F00
0F80
07C0
03E0
01F0
00F8
007C
003E
001F
000F
0007
0003
ENDCHAR
STARTCHAR ]
ENCODING 93
SWIDTH 75 0
DWIDTH -1 0
BBX 8 18 0 1
BITMAP
FF
FF
FF
FF
0F
0F
0F
0F
0F
0F
0F
0F
0F
0F
FF
FF
FF
FF
ENDCHAR
STARTCHAR ^
ENCODING 94
SWIDTH 75 0
DWIDTH -1 0
BBX 16 12 0 7
BITMAP
0180
03C0
07E0
0FF0
1FF8
3FFC
7E7E
FC3F
F81F
F00F
E007
C003
ENDCHAR
STARTCHAR _
ENCODING 95
SWIDTH 75 0
DWIDTH -1 0
BBX 16 3 0 3
BITMAP
FFFF
FFFF
FFFF
ENDCHAR
STARTCHAR `
ENCODING 96
SWIDTH 75 0
DWIDTH -1 0
BBX 5 5 0 14
BITMAP
E0
E0
E0
70
18
ENDCHAR
STARTCHAR a
ENCODING 97
SWIDTH 75 0
DWIDTH -1 0
BBX 12 12 0 1
BITMAP
3FC0
3FE0
3FF0
00F0
3EF0
7FF0
FFF0
F0F0
F0F0
FFF0
7FF0
3EF0
ENDCHAR
STARTCHAR b
ENCODING 98
SWIDTH 75 0
DWIDTH -1 0
BBX 12 18 0 1
BITMAP
F000
F000
F000
F000
F000
F000
F7C0
FFE0
FFF0
FFF0
F8F0
F0F0
F0F0
F8F0
FFF0
FFF0
FFE0
F7C0
ENDCHAR
STARTCHAR c
ENCODING 99
SWIDTH 75 0
DWIDTH -1 0
BBX 12 12 0 1
BITMAP
3FC0
7FE0
FFF0
FFF0
F0F0
F000
F000
F0F0
FFF0
FFF0
7FE0
3FC0
ENDCHAR
STARTCHAR d
ENCODING 100
SWIDTH 75 0
DWIDTH -1 0
BBX 12 18 0 1
BITMAP
00F0
00F0
00F0
00F0
00F0
00F0
3EF0
7FF0
FFF0
FFF0
F1F0
F0F0
F0F0
F1F0
FFF0
FFF0
7FF0
3EF0
ENDCHAR
STARTCHAR e
ENCODING 101
SWIDTH 75 0
DWIDTH -1 0
BBX 12 12 0 1
BITMAP
3FC0
7FE0
FFF0
F0F0
F0F0
FFE0
FFC0
F000
F0F0
FFF0
7FE0
3FC0
ENDCHAR
STARTCHAR f
ENCODING 102
SWIDTH 75 0
DWIDTH -1 0
BBX 12 18 0 1
BITMAP
1FC0
3FE0
7FF0
7FF0
78F0
78F0
7800
7800
FE00
FE00
FE00
FE00
7800
7800
7800
7800
7800
7800
ENDCHAR
STARTCHAR g
ENCODING 103
SWIDTH 75 0
DWIDTH -1 0
BBX 12 13 0 0
BITMAP
3EF0
7FF0
FFF0
F8F0
F0F0
F8F0
FFF0
7FF0
3EF0
00F0
F1F0
7FE0
3FC0
ENDCHAR
STARTCHAR h
ENCODING 104
SWIDTH 75 0
DWIDTH -1 0
BBX 12 18 0 1
BITMAP
F000
F000
F000
F000
F000
F000
F7C0
FFE0
FFF0
FFF0
F8F0
F0F0
F0F0
F0F0
F0F0
F0F0
F0F0
F0F0
ENDCHAR
STARTCHAR i
ENCODING 105
SWIDTH 75 0
DWIDTH -1 0
BBX 4 17 0 1
BITMAP
F0
F0
F0
F0
00
F0
F0
F0
F0
F0
F0
F0
F0
F0
F0
F0
F0
ENDCHAR
STARTCHAR j
ENCODING 106
SWIDTH 75 0
DWIDTH -1 0
BBX 11 18 0 0
BITMAP
01E0
01E0
01E0
01E0
0000
01E0
01E0
01E0
01E0
01E0
01E0
01E0
F1E0
F1E0
FFE0
FFE0
7FC0
3F80
ENDCHAR
STARTCHAR k
ENCODING 107
SWIDTH 75 0
DWIDTH -1 0
BBX 13 18 0 1
BITMAP
F000
F000
F000
F000
F000
F000
F0F8
F1F0
F3E0
F7C0
FF80
FF00
FF00
FF80
F7C0
F3E0
F1F0
F0F8
ENDCHAR
STARTCHAR l
ENCODING 108
SWIDTH 75 0
DWIDTH -1 0
BBX 4 18 0 1
BITMAP
F0
F0
F0
F0
F0
F0
F0
F0
F0
F0
F0
F0
F0
F0
F0
F0
F0
F0
ENDCHAR
STARTCHAR m
ENCODING 109
SWIDTH 75 0
DWIDTH -1 0
BBX 13 12 0 1
BITMAP
D8F0
FDF8
FFF8
FFF8
F778
F778
F778
F778
F778
F778
F778
F778
ENDCHAR
STARTCHAR n
ENCODING 110
SWIDTH 75 0
DWIDTH -1 0
BBX 12 12 0 1
BITMAP
EF80
FFC0
FFE0
FFF0
F9F0
F0F0
F0F0
F0F0
F0F0
F0F0
F0F0
F0F0
ENDCHAR
STARTCHAR o
ENCODING 111
SWIDTH 75 0
DWIDTH -1 0
BBX 12 12 0 1
BITMAP
3FC0
7FE0
FFF0
FFF0
F0F0
F0F0
F0F0
F0F0
FFF0
FFF0
7FE0
3FC0
ENDCHAR
STARTCHAR p
ENCODING 112
SWIDTH 75 0
DWIDTH -1 0
BBX 12 13 0 0
BITMAP
F7C0
FFE0
FFF0
F1F0
F0F0
F1F0
FFF0
FFE0
F7C0
F000
F000
F000
F000
ENDCHAR
STARTCHAR q
ENCODING 113
SWIDTH 75 0
DWIDTH -1 0
BBX 12 13 0 0
BITMAP
3EF0
7FF0
FFF0
F8F0
F0F0
F8F0
FFF0
7FF0
3EF0
00F0
00F0
00F0
00F0
ENDCHAR
STARTCHAR r
ENCODING 114
SWIDTH 75 0
DWIDTH -1 0
BBX 12 12 0 1
BITMAP
F7C0
FFE0
FFF0
FFF0
F8F0
F000
F000
F000
F000
F000
F000
F000
ENDCHAR
STARTCHAR s
ENCODING 115
SWIDTH 75 0
DWIDTH -1 0
BBX 12 12 0 1
BITMAP
3FC0
7FE0
F9F0
F0F0
F000
7FC0
3FE0
00F0
F0F0
F9F0
7FE0
3FC0
ENDCHAR
STARTCHAR t
ENCODING 116
SWIDTH 75 0
DWIDTH -1 0
BBX 12 18 0 1
BITMAP
7800
7800
7800
7800
7800
7800
FE00
FE00
FE00
FE00
7800
7800
78F0
78F0
7FF0
7FF0
3FE0
1FC0
ENDCHAR
STARTCHAR u
ENCODING 117
SWIDTH 75 0
DWIDTH -1 0
BBX 12 12 0 1
BITMAP
F0F0
F0F0
F0F0
F0F0
F0F0
F0F0
F0F0
F9F0
FFF0
7FF0
3FF0
1F70
ENDCHAR
STARTCHAR v
ENCODING 118
SWIDTH 75 0
DWIDTH -1 0
BBX 12 12 0 1
BITMAP
F0F0
F0F0
F0F0
F0F0
F0F0
F0F0
F0F0
79E0
3FC0
1F80
0F00
0600
ENDCHAR
STARTCHAR w
ENCODING 119
SWIDTH 75 0
DWIDTH -1 0
BBX 12 12 0 1
BITMAP
F070
F070
F070
F070
F070
F070
F270
F770
FFF0
FDF0
F8F0
F070
ENDCHAR
STARTCHAR x
ENCODING 120
SWIDTH 75 0
DWIDTH -1 0
BBX 13 12 0 1
BITMAP
E038
F078
F8F8
7DF0
3FE0
1FC0
1FC0
3FE0
7DF0
F8F8
F078
E038
ENDCHAR
STARTCHAR y
ENCODING 121
SWIDTH 75 0
DWIDTH -1 0
BBX 12 13 0 0
BITMAP
F0F0
F0F0
F0F0
F0F0
F0F0
FFF0
FFF0
7FF0
3FF0
00F0
F1F0
7FE0
3FC0
ENDCHAR
STARTCHAR z
ENCODING 122
SWIDTH 75 0
DWIDTH -1 0
BBX 12 12 0 1
BITMAP
FFF0
FFF0
FFF0
01E0
03C0
0780
0F00
1E00
3C00
FFF0
FFF0
FFF0
ENDCHAR
STARTCHAR {
ENCODING 123
SWIDTH 75 0
DWIDTH -1 0
BBX 7 18 0 1
BITMAP
0E
1C
38
38
38
38
38
78
F0
F0
78
38
38
38
38
38
1C
0E
ENDCHAR
STARTCHAR |
ENCODING 124
SWIDTH 75 0
DWIDTH -1 0
BBX 4 18 0 1
BITMAP
F0
F0
F0
F0
F0
F0
F0
F0
F0
F0
F0
F0
F0
F0
F0
F0
F0
F0
ENDCHAR
STARTCHAR }
ENCODING 125
SWIDTH 75 0
DWIDTH -1 0
BBX 7 18 0 1
BITMAP
E0
70
38
38
38
38
38
3C
1E
1E
3C
38
38
38
38
38
70
E0
ENDCHAR
STARTCHAR ~
ENCODING 126
SWIDTH 75 0
DWIDTH -1 0
BBX 14 4 0 7
BITMAP
1E1C
3F38
73F0
E1E0
ENDCHAR
STARTCHAR ¤
ENCODING -92
SWIDTH 75 0
DWIDTH -1 0
BBX 12 18 0 1
BITMAP
07E0
1FF0
3FF0
3FF0
7800
7800
FFC0
FFC0
7800
7800
FFC0
FFC0
7800
7800
3FF0
3FF0
1FF0
07E0
ENDCHAR
STARTCHAR ¦
ENCODING -90
SWIDTH 75 0
DWIDTH -1 0
BBX 13 19 0 1
BITMAP
38E0
1DC0
0F80
0000
0FC0
3FF0
7FF8
F078
E038
F000
FF80
7FE0
1FF0
00F8
E078
F0F8
FFF0
7FE0
1F80
ENDCHAR
STARTCHAR ¼
ENCODING -68
SWIDTH 75 0
DWIDTH -1 0
BBX 16 18 0 1
BITMAP
3DFF
7FFF
FFFF
FFFF
F1E0
F1E0
F1E0
F1E0
F1FC
F1FC
F1FC
F1E0
F1E0
F1E0
FFFF
FFFF
7FFF
3DFF
ENDCHAR
STARTCHAR ´
ENCODING -76
SWIDTH 75 0
DWIDTH -1 0
BBX 12 19 0 1
BITMAP
38E0
1DC0
0F80
0000
FFF0
FFF0
FFF0
FFF0
01E0
03C0
0780
0F00
1E00
3C00
7800
FFF0
FFF0
FFF0
FFF0
ENDCHAR
STARTCHAR ¨
ENCODING -88
SWIDTH 75 0
DWIDTH -1 0
BBX 12 16 0 1
BITMAP
38E0
1DC0
0F80
0000
3FC0
7FE0
F9F0
F0F0
F000
7FC0
3FE0
00F0
F0F0
F9F0
7FE0
3FC0
ENDCHAR
STARTCHAR ½
ENCODING -67
SWIDTH 75 0
DWIDTH -1 0
BBX 15 12 0 1
BITMAP
3EF8
7FFC
FFFE
E386
E3FE
E380
E380
E380
E38E
FFFE
7FFC
3EF8
ENDCHAR
STARTCHAR ¸
ENCODING -72
SWIDTH 75 0
DWIDTH -1 0
BBX 12 16 0 1
BITMAP
38E0
1DC0
0F80
0000
FFF0
FFF0
FFF0
01E0
03C0
0780
0F00
1E00
3C00
FFF0
FFF0
FFF0
ENDCHAR
STARTCHAR ¾
ENCODING -66
SWIDTH 75 0
DWIDTH -1 0
BBX 14 20 0 0
BITMAP
7038
7038
7038
0000
F03C
F03C
F03C
F03C
F03C
F87C
FCFC
7FF8
3FF0
1FE0
0FC0
0780
0780
0780
0780
0780
ENDCHAR
STARTCHAR ¡
ENCODING -95
SWIDTH 75 0
DWIDTH -1 0
BBX 4 18 0 1
BITMAP
F0
F0
F0
F0
00
F0
F0
F0
F0
F0
F0
F0
F0
F0
F0
F0
F0
F0
ENDCHAR
STARTCHAR ¢
ENCODING -94
SWIDTH 75 0
DWIDTH -1 0
BBX 12 16 0 1
BITMAP
0600
0600
3FC0
7FE0
FFF0
FFF0
F6F0
F600
F600
F6F0
FFF0
FFF0
7FE0
3FC0
0600
0600
ENDCHAR
STARTCHAR £
ENCODING -93
SWIDTH 75 0
DWIDTH -1 0
BBX 12 18 0 1
BITMAP
3FC0
7FE0
FFF0
FFF0
F0F0
F0F0
F000
F000
7FC0
7FC0
7FC0
7800
7800
7800
FFF0
FFF0
FFF0
FFF0
ENDCHAR
STARTCHAR ¥
ENCODING -91
SWIDTH 75 0
DWIDTH -1 0
BBX 12 18 0 1
BITMAP
F0F0
F0F0
F0F0
F0F0
F0F0
F0F0
79E0
3FC0
1F80
0F00
3FC0
3FC0
0F00
3FC0
3FC0
0F00
0F00
0F00
ENDCHAR
STARTCHAR §
ENCODING -89
SWIDTH 75 0
DWIDTH -1 0
BBX 9 18 0 1
BITMAP
3F00
7F80
7F80
7980
7C00
3E00
7F00
FF80
E780
E380
F380
7F80
3F00
1E00
CF00
FF00
FF00
7E00
ENDCHAR
STARTCHAR ©
ENCODING -87
SWIDTH 75 0
DWIDTH -1 0
BBX 16 16 0 2
BITMAP
3FFC
7FFE
E007
C7E3
CFF3
DFFB
DC3B
DC03
DC03
DC3B
DFFB
CFF3
C7E3
E007
7FFE
3FFC
ENDCHAR
STARTCHAR ª
ENCODING -86
SWIDTH 75 0
DWIDTH -1 0
BBX 5 6 0 13
BITMAP
70
88
08
78
88
78
ENDCHAR
STARTCHAR «
ENCODING -85
SWIDTH 75 0
DWIDTH -1 0
BBX 16 12 0 4
BITMAP
078F
0F9F
1F3E
3E7C
7CF8
F9F0
F9F0
7CF8
3E7C
1F3E
0F9F
078F
ENDCHAR
STARTCHAR ¬
ENCODING -84
SWIDTH 75 0
DWIDTH -1 0
BBX 14 9 0 8
BITMAP
FFFC
FFFC
FFFC
FFFC
003C
003C
003C
003C
003C
ENDCHAR
STARTCHAR ®
ENCODING -82
SWIDTH 75 0
DWIDTH -1 0
BBX 16 16 0 2
BITMAP
3FFC
7FFE
E007
C7C3
C7E3
C673
C673
C7F3
C7E3
C6C3
C663
C633
C633
E007
7FFE
3FFC
ENDCHAR
STARTCHAR ¯
ENCODING -81
SWIDTH 75 0
DWIDTH -1 0
BBX 11 3 0 15
BITMAP
FFE0
FFE0
FFE0
ENDCHAR
STARTCHAR °
ENCODING -80
SWIDTH 75 0
DWIDTH -1 0
BBX 6 6 0 13
BITMAP
78
FC
CC
CC
FC
78
ENDCHAR
STARTCHAR ±
ENCODING -79
SWIDTH 75 0
DWIDTH -1 0
BBX 11 15 0 2
BITMAP
0E00
0E00
0E00
0E00
FFE0
FFE0
FFE0
0E00
0E00
0E00
0E00
0000
FFE0
FFE0
FFE0
ENDCHAR
STARTCHAR ²
ENCODING -78
SWIDTH 75 0
DWIDTH -1 0
BBX 6 9 0 11
BITMAP
30
78
CC
0C
18
30
60
FC
FC
ENDCHAR
STARTCHAR ³
ENCODING -77
SWIDTH 75 0
DWIDTH -1 0
BBX 6 9 0 11
BITMAP
70
F8
8C
0C
38
0C
8C
F8
70
ENDCHAR
STARTCHAR µ
ENCODING -75
SWIDTH 75 0
DWIDTH -1 0
BBX 12 16 0 0
BITMAP
F0F0
F0F0
F0F0
F0F0
F0F0
F0F0
F0F0
F9F0
FFF0
FFF0
FFF0
F6F0
F000
F000
F000
F000
ENDCHAR
STARTCHAR ·
ENCODING -73
SWIDTH 75 0
DWIDTH -1 0
BBX 3 3 0 6
BITMAP
E0
E0
E0
ENDCHAR
STARTCHAR ¹
ENCODING -71
SWIDTH 75 0
DWIDTH -1 0
BBX 6 9 0 11
BITMAP
30
70
F0
30
30
30
30
FC
FC
ENDCHAR
STARTCHAR º
ENCODING -70
SWIDTH 75 0
DWIDTH -1 0
BBX 6 9 0 11
BITMAP
78
FC
CC
CC
CC
CC
CC
FC
78
ENDCHAR
STARTCHAR »
ENCODING -69
SWIDTH 75 0
DWIDTH -1 0
BBX 16 12 0 3
BITMAP
F1E0
F9F0
7CF8
3E7C
1F3E
0F9F
0F9F
1F3E
3E7C
7CF8
F9F0
F1E0
ENDCHAR
STARTCHAR ¿
ENCODING -65
SWIDTH 75 0
DWIDTH -1 0
BBX 16 18 0 1
BITMAP
07C0
07C0
07C0
0000
07C0
07C0
07C0
0FC0
1F80
3F00
7E00
FC00
F81F
F83F
7FFF
3FFE
1FFC
0FF8
ENDCHAR
STARTCHAR À
ENCODING -64
SWIDTH 75 0
DWIDTH -1 0
BBX 14 19 0 1
BITMAP
0F00
0780
03C0
0000
0FC0
3FF0
7FF8
7FF8
F87C
F03C
F03C
FFFC
FFFC
FFFC
FFFC
F03C
F03C
F03C
F03C
ENDCHAR
STARTCHAR Á
ENCODING -63
SWIDTH 75 0
DWIDTH -1 0
BBX 14 19 0 1
BITMAP
03C0
0780
0F00
0000
0FC0
3FF0
7FF8
7FF8
F87C
F03C
F03C
FFFC
FFFC
FFFC
FFFC
F03C
F03C
F03C
F03C
ENDCHAR
STARTCHAR Â
ENCODING -62
SWIDTH 75 0
DWIDTH -1 0
BBX 14 19 0 1
BITMAP
0FE0
1EF0
3C78
0000
0FC0
3FF0
7FF8
7FF8
F87C
F03C
F03C
FFFC
FFFC
FFFC
FFFC
F03C
F03C
F03C
F03C
ENDCHAR
STARTCHAR Ã
ENCODING -61
SWIDTH 75 0
DWIDTH -1 0
BBX 14 19 0 1
BITMAP
1F1C
3BB8
71F0
0000
0FC0
3FF0
7FF8
7FF8
F87C
F03C
F03C
FFFC
FFFC
FFFC
FFFC
F03C
F03C
F03C
F03C
ENDCHAR
STARTCHAR Ä
ENCODING -60
SWIDTH 75 0
DWIDTH -1 0
BBX 14 19 0 1
BITMAP
1CE0
1CE0
1CE0
0000
0FC0
3FF0
7FF8
7FF8
F87C
F03C
F03C
FFFC
FFFC
FFFC
FFFC
F03C
F03C
F03C
F03C
ENDCHAR
STARTCHAR Å
ENCODING -59
SWIDTH 75 0
DWIDTH -1 0
BBX 14 19 0 1
BITMAP
0300
0480
0300
0000
0FC0
3FF0
7FF8
7FF8
F87C
F03C
F03C
FFFC
FFFC
FFFC
FFFC
F03C
F03C
F03C
F03C
ENDCHAR
STARTCHAR Æ
ENCODING -58
SWIDTH 75 0
DWIDTH -1 0
BBX 16 18 0 1
BITMAP
3FFF
7FFF
FFFF
FDFF
F9C0
F1C0
F1C0
FFF8
FFF8
FFF8
FFF8
F1C0
F1C0
F1C0
F1FF
F1FF
F1FF
F1FF
ENDCHAR
STARTCHAR Ç
ENCODING -57
SWIDTH 75 0
DWIDTH -1 0
BBX 16 19 0 0
BITMAP
3FFC
7FFC
FFFF
F80F
F00F
F000
F000
F000
F000
F000
F00F
F80F
FFFF
7FFE
3FFC
0100
07C0
0040
0F80
ENDCHAR
STARTCHAR È
ENCODING -56
SWIDTH 75 0
DWIDTH -1 0
BBX 13 19 0 1
BITMAP
1E00
0F00
0780
0000
FFF8
FFF8
FFF8
F000
F000
F000
FFC0
FFC0
FFC0
F000
F000
F000
FFF8
FFF8
FFF8
ENDCHAR
STARTCHAR É
ENCODING -55
SWIDTH 75 0
DWIDTH -1 0
BBX 13 19 0 1
BITMAP
0780
0F00
1E00
0000
FFF8
FFF8
FFF8
F000
F000
F000
FFC0
FFC0
FFC0
F000
F000
F000
FFF8
FFF8
FFF8
ENDCHAR
STARTCHAR Ê
ENCODING -54
SWIDTH 75 0
DWIDTH -1 0
BBX 13 19 0 1
BITMAP
1FC0
3DE0
78F0
0000
FFF8
FFF8
FFF8
F000
F000
F000
FFC0
FFC0
FFC0
F000
F000
F000
FFF8
FFF8
FFF8
ENDCHAR
STARTCHAR Ë
ENCODING -53
SWIDTH 75 0
DWIDTH -1 0
BBX 13 19 0 1
BITMAP
3870
3870
3870
0000
FFF8
FFF8
FFF8
F000
F000
F000
FFC0
FFC0
FFC0
F000
F000
F000
FFF8
FFF8
FFF8
ENDCHAR
STARTCHAR Ì
ENCODING -52
SWIDTH 75 0
DWIDTH -1 0
BBX 6 19 0 1
BITMAP
F0
78
3C
00
78
78
78
78
78
78
78
78
78
78
78
78
78
78
78
ENDCHAR
STARTCHAR Í
ENCODING -51
SWIDTH 75 0
DWIDTH -1 0
BBX 6 19 0 1
BITMAP
3C
78
F0
00
78
78
78
78
78
78
78
78
78
78
78
78
78
78
78
ENDCHAR
STARTCHAR Î
ENCODING -50
SWIDTH 75 0
DWIDTH -1 0
BBX 11 19 0 1
BITMAP
3F80
7BC0
F1E0
0000
1E00
1E00
1E00
1E00
1E00
1E00
1E00
1E00
1E00
1E00
1E00
1E00
1E00
1E00
1E00
ENDCHAR
STARTCHAR Ï
ENCODING -49
SWIDTH 75 0
DWIDTH -1 0
BBX 8 19 1 1
BITMAP
E7
E7
E7
00
3C
3C
3C
3C
3C
3C
3C
3C
3C
3C
3C
3C
3C
3C
3C
ENDCHAR
STARTCHAR Ð
ENCODING -48
SWIDTH 75 0
DWIDTH -1 0
BBX 16 18 0 1
BITMAP
7FFC
7FFE
7FFF
7FFF
781F
780F
780F
FF0F
FF0F
FF0F
FF0F
780F
780F
781F
7FFF
7FFF
7FFE
7FFC
ENDCHAR
STARTCHAR Ñ
ENCODING -47
SWIDTH 75 0
DWIDTH -1 0
BBX 16 19 0 1
BITMAP
0F8E
1DDC
38F8
0000
E00F
F00F
F80F
FC0F
FE0F
FF0F
F78F
F3CF
F1EF
F0FF
F07F
F03F
F01F
F00F
F007
ENDCHAR
STARTCHAR Ò
ENCODING -46
SWIDTH 75 0
DWIDTH -1 0
BBX 15 19 0 1
BITMAP
0F00
0780
03C0
0000
0FE0
3FF8
7FFC
7FFC
F83E
F01E
F01E
F01E
F01E
F01E
F83E
7FFC
7FFC
3FF8
0FE0
ENDCHAR
STARTCHAR Ó
ENCODING -45
SWIDTH 75 0
DWIDTH -1 0
BBX 15 19 0 1
BITMAP
01E0
03C0
0780
0000
0FE0
3FF8
7FFC
7FFC
F83E
F01E
F01E
F01E
F01E
F01E
F83E
7FFC
7FFC
3FF8
0FE0
ENDCHAR
STARTCHAR Ô
ENCODING -44
SWIDTH 75 0
DWIDTH -1 0
BBX 15 19 0 1
BITMAP
0FE0
1EF0
3C78
0000
0FE0
3FF8
7FFC
7FFC
F83E
F01E
F01E
F01E
F01E
F01E
F83E
7FFC
7FFC
3FF8
0FE0
ENDCHAR
STARTCHAR Õ
ENCODING -43
SWIDTH 75 0
DWIDTH -1 0
BBX 15 19 0 1
BITMAP
1F1C
3BB8
71F0
0000
0FE0
3FF8
7FFC
7FFC
F83E
F01E
F01E
F01E
F01E
F01E
F83E
7FFC
7FFC
3FF8
0FE0
ENDCHAR
STARTCHAR Ö
ENCODING -42
SWIDTH 75 0
DWIDTH -1 0
BBX 15 19 0 1
BITMAP
1C70
1C70
1C70
0000
0FE0
3FF8
7FFC
7FFC
F83E
F01E
F01E
F01E
F01E
F01E
F83E
7FFC
7FFC
3FF8
0FE0
ENDCHAR
STARTCHAR ×
ENCODING -41
SWIDTH 75 0
DWIDTH -1 0
BBX 12 12 0 3
BITMAP
C030
E070
70E0
39C0
1F80
0F00
0F00
1F80
39C0
70E0
E070
C030
ENDCHAR
STARTCHAR Ø
ENCODING -40
SWIDTH 75 0
DWIDTH -1 0
BBX 16 20 0 0
BITMAP
0060
0FF0
3FFC
7FFE
7FFE
F8DF
F0CF
F0CF
F0CF
F0CF
F18F
F18F
F18F
F18F
F99F
7FFE
7FFE
3FFC
0FF0
0300
ENDCHAR
STARTCHAR Ù
ENCODING -39
SWIDTH 75 0
DWIDTH -1 0
BBX 15 19 0 1
BITMAP
0F00
0780
03C0
0000
F01E
F01E
F01E
F01E
F01E
F01E
F01E
F01E
F01E
F01E
F83E
7FFC
7FFC
3FF8
0FE0
ENDCHAR
STARTCHAR Ú
ENCODING -38
SWIDTH 75 0
DWIDTH -1 0
BBX 15 19 0 1
BITMAP
01E0
03C0
0780
0000
F01E
F01E
F01E
F01E
F01E
F01E
F01E
F01E
F01E
F01E
F83E
7FFC
7FFC
3FF8
0FE0
ENDCHAR
STARTCHAR Û
ENCODING -37
SWIDTH 75 0
DWIDTH -1 0
BBX 15 19 0 1
BITMAP
0FE0
1EF0
3C78
0000
F01E
F01E
F01E
F01E
F01E
F01E
F01E
F01E
F01E
F01E
F83E
7FFC
7FFC
3FF8
0FE0
ENDCHAR
STARTCHAR Ü
ENCODING -36
SWIDTH 75 0
DWIDTH -1 0
BBX 15 19 0 1
BITMAP
1C70
1C70
1C70
0000
F01E
F01E
F01E
F01E
F01E
F01E
F01E
F01E
F01E
F01E
F83E
7FFC
7FFC
3FF8
0FE0
ENDCHAR
STARTCHAR Ý
ENCODING -35
SWIDTH 75 0
DWIDTH -1 0
BBX 12 19 2 1
BITMAP
0780
0F00
1E00
0000
F0F0
F0F0
F0F0
F0F0
F0F0
F9F0
FFF0
7FE0
3FC0
1F80
0F00
0F00
0F00
0F00
0F00
ENDCHAR
STARTCHAR Þ
ENCODING -34
SWIDTH 75 0
DWIDTH -1 0
BBX 13 18 0 1
BITMAP
F000
F000
F000
F000
FFE0
FFF0
FFF8
FFF8
F078
F078
FFF8
FFF8
FFF0
FFE0
F000
F000
F000
F000
ENDCHAR
STARTCHAR ß
ENCODING -33
SWIDTH 75 0
DWIDTH -1 0
BBX 14 19 0 0
BITMAP
1FE0
7FF0
7FF8
F878
F078
F078
F0F8
F1F8
F1F0
F1E0
F0F0
F0F8
F07C
F03C
F07C
F7F8
F7F0
F7E0
F000
ENDCHAR
STARTCHAR à
ENCODING -32
SWIDTH 75 0
DWIDTH -1 0
BBX 12 16 0 1
BITMAP
1E00
0F00
0780
0000
3FC0
3FE0
3FF0
00F0
3EF0
7FF0
FFF0
F0F0
F0F0
FFF0
7FF0
3EF0
ENDCHAR
STARTCHAR á
ENCODING -31
SWIDTH 75 0
DWIDTH -1 0
BBX 12 16 0 1
BITMAP
0780
0F00
1E00
0000
3FC0
3FE0
3FF0
00F0
3EF0
7FF0
FFF0
F0F0
F0F0
FFF0
7FF0
3EF0
ENDCHAR
STARTCHAR â
ENCODING -30
SWIDTH 75 0
DWIDTH -1 0
BBX 12 16 0 1
BITMAP
1FC0
3DE0
78F0
0000
3FC0
3FE0
3FF0
00F0
3EF0
7FF0
FFF0
F0F0
F0F0
FFF0
7FF0
3EF0
ENDCHAR
STARTCHAR ã
ENCODING -29
SWIDTH 75 0
DWIDTH -1 0
BBX 12 16 0 1
BITMAP
3C70
76E0
E3C0
0000
3FC0
3FE0
3FF0
00F0
3EF0
7FF0
FFF0
F0F0
F0F0
FFF0
7FF0
3EF0
ENDCHAR
STARTCHAR ä
ENCODING -28
SWIDTH 75 0
DWIDTH -1 0
BBX 12 16 0 1
BITMAP
70E0
70E0
70E0
0000
3FC0
3FE0
3FF0
00F0
3EF0
7FF0
FFF0
F0F0
F0F0
FFF0
7FF0
3EF0
ENDCHAR
STARTCHAR å
ENCODING -27
SWIDTH 75 0
DWIDTH -1 0
BBX 12 16 0 1
BITMAP
0600
0900
0600
0000
3FC0
3FE0
3FF0
00F0
3EF0
7FF0
FFF0
F0F0
F0F0
FFF0
7FF0
3EF0
ENDCHAR
STARTCHAR æ
ENCODING -26
SWIDTH 75 0
DWIDTH -1 0
BBX 16 12 0 1
BITMAP
3FFC
3FFE
3FFF
01C7
3DC7
7FFE
FFF8
E1C0
E1C0
FFFF
7FFE
3D7C
ENDCHAR
STARTCHAR ç
ENCODING -25
SWIDTH 75 0
DWIDTH -1 0
BBX 12 16 0 0
BITMAP
3FC0
7FE0
FFF0
FFF0
F0F0
F000
F000
F0F0
FFF0
FFF0
7FE0
3FC0
0400
1F00
0100
3E00
ENDCHAR
STARTCHAR è
ENCODING -24
SWIDTH 75 0
DWIDTH -1 0
BBX 12 16 0 1
BITMAP
3C00
1E00
0F00
0000
3FC0
7FE0
FFF0
F0F0
F0F0
FFE0
FFC0
F000
F0F0
FFF0
7FE0
3FC0
ENDCHAR
STARTCHAR é
ENCODING -23
SWIDTH 75 0
DWIDTH -1 0
BBX 12 16 0 1
BITMAP
0780
0F00
1E00
0000
3FC0
7FE0
FFF0
F0F0
F0F0
FFE0
FFC0
F000
F0F0
FFF0
7FE0
3FC0
ENDCHAR
STARTCHAR ê
ENCODING -22
SWIDTH 75 0
DWIDTH -1 0
BBX 12 16 0 1
BITMAP
1FC0
3DE0
78F0
0000
3FC0
7FE0
FFF0
F0F0
F0F0
FFE0
FFC0
F000
F0F0
FFF0
7FE0
3FC0
ENDCHAR
STARTCHAR ë
ENCODING -21
SWIDTH 75 0
DWIDTH -1 0
BBX 12 16 0 1
BITMAP
70E0
70E0
70E0
0000
3FC0
7FE0
FFF0
F0F0
F0F0
FFE0
FFC0
F000
F0F0
FFF0
7FE0
3FC0
ENDCHAR
STARTCHAR ì
ENCODING -20
SWIDTH 75 0
DWIDTH -1 0
BBX 6 16 0 1
BITMAP
F0
78
3C
00
78
78
78
78
78
78
78
78
78
78
78
78
ENDCHAR
STARTCHAR í
ENCODING -19
SWIDTH 75 0
DWIDTH -1 0
BBX 6 16 1 1
BITMAP
3C
78
F0
00
78
78
78
78
78
78
78
78
78
78
78
78
ENDCHAR
STARTCHAR î
ENCODING -18
SWIDTH 75 0
DWIDTH -1 0
BBX 11 16 0 1
BITMAP
3F80
7BC0
F1E0
0000
1E00
1E00
1E00
1E00
1E00
1E00
1E00
1E00
1E00
1E00
1E00
1E00
ENDCHAR
STARTCHAR ï
ENCODING -17
SWIDTH 75 0
DWIDTH -1 0
BBX 9 16 0 1
BITMAP
E380
E380
E380
0000
3C00
3C00
3C00
3C00
3C00
3C00
3C00
3C00
3C00
3C00
3C00
3C00
ENDCHAR
STARTCHAR ð
ENCODING -16
SWIDTH 75 0
DWIDTH -1 0
BBX 12 17 0 1
BITMAP
7000
1900
3E00
4C00
0700
3FC0
7FE0
FFF0
FFF0
F0F0
F0F0
F0F0
F0F0
FFF0
FFF0
7FE0
3FC0
ENDCHAR
STARTCHAR ñ
ENCODING -15
SWIDTH 75 0
DWIDTH -1 0
BBX 12 16 0 1
BITMAP
3C70
76E0
E3C0
0000
EF80
FFC0
FFE0
FFF0
F9F0
F0F0
F0F0
F0F0
F0F0
F0F0
F0F0
F0F0
ENDCHAR
STARTCHAR ò
ENCODING -14
SWIDTH 75 0
DWIDTH -1 0
BBX 12 16 0 1
BITMAP
1E00
0F00
0780
0000
3FC0
7FE0
FFF0
FFF0
F0F0
F0F0
F0F0
F0F0
FFF0
FFF0
7FE0
3FC0
ENDCHAR
STARTCHAR ó
ENCODING -13
SWIDTH 75 0
DWIDTH -1 0
BBX 12 16 0 1
BITMAP
0780
0F00
1E00
0000
3FC0
7FE0
FFF0
FFF0
F0F0
F0F0
F0F0
F0F0
FFF0
FFF0
7FE0
3FC0
ENDCHAR
STARTCHAR ô
ENCODING -12
SWIDTH 75 0
DWIDTH -1 0
BBX 12 16 0 1
BITMAP
1FC0
3DE0
78F0
0000
3FC0
7FE0
FFF0
FFF0
F0F0
F0F0
F0F0
F0F0
FFF0
FFF0
7FE0
3FC0
ENDCHAR
STARTCHAR õ
ENCODING -11
SWIDTH 75 0
DWIDTH -1 0
BBX 12 16 0 1
BITMAP
3C70
76E0
E3C0
0000
3FC0
7FE0
FFF0
FFF0
F0F0
F0F0
F0F0
F0F0
FFF0
FFF0
7FE0
3FC0
ENDCHAR
STARTCHAR ö
ENCODING -10
SWIDTH 75 0
DWIDTH -1 0
BBX 12 16 0 1
BITMAP
70E0
70E0
70E0
0000
3FC0
7FE0
FFF0
FFF0
F0F0
F0F0
F0F0
F0F0
FFF0
FFF0
7FE0
3FC0
ENDCHAR
STARTCHAR ÷
ENCODING -9
SWIDTH 75 0
DWIDTH -1 0
BBX 11 11 0 2
BITMAP
0E00
0E00
0E00
0000
FFE0
FFE0
FFE0
0000
0E00
0E00
0E00
ENDCHAR
STARTCHAR ø
ENCODING -8
SWIDTH 75 0
DWIDTH -1 0
BBX 12 14 0 0
BITMAP
0100
3FC0
7FE0
FFF0
FFF0
F2F0
F2F0
F4F0
F4F0
FFF0
FFF0
7FE0
3FC0
0800
ENDCHAR
STARTCHAR ù
ENCODING -7
SWIDTH 75 0
DWIDTH -1 0
BBX 12 16 0 1
BITMAP
1E00
0F00
0780
0000
F0F0
F0F0
F0F0
F0F0
F0F0
F0F0
F0F0
F9F0
FFF0
7FF0
3FF0
1F70
ENDCHAR
STARTCHAR ú
ENCODING -6
SWIDTH 75 0
DWIDTH -1 0
BBX 12 16 0 1
BITMAP
0780
0F00
1E00
0000
F0F0
F0F0
F0F0
F0F0
F0F0
F0F0
F0F0
F9F0
FFF0
7FF0
3FF0
1F70
ENDCHAR
STARTCHAR û
ENCODING -5
SWIDTH 75 0
DWIDTH -1 0
BBX 12 16 0 1
BITMAP
3F80
7BC0
F1E0
0000
F0F0
F0F0
F0F0
F0F0
F0F0
F0F0
F0F0
F9F0
FFF0
7FF0
3FF0
1F70
ENDCHAR
STARTCHAR ü
ENCODING -4
SWIDTH 75 0
DWIDTH -1 0
BBX 12 16 0 1
BITMAP
70E0
70E0
70E0
0000
F0F0
F0F0
F0F0
F0F0
F0F0
F0F0
F0F0
F9F0
FFF0
7FF0
3FF0
1F70
ENDCHAR
STARTCHAR ý
ENCODING -3
SWIDTH 75 0
DWIDTH -1 0
BBX 12 17 0 0
BITMAP
0780
0F00
1E00
0000
F0F0
F0F0
F0F0
F0F0
F0F0
FFF0
FFF0
7FF0
3FF0
00F0
F1F0
7FE0
3FC0
ENDCHAR
STARTCHAR þ
ENCODING -2
SWIDTH 75 0
DWIDTH -1 0
BBX 14 18 0 1
BITMAP
F800
F800
F800
F800
FBF0
FFF8
FFFC
FFFC
FC7C
F83C
F83C
FC7C
FFFC
FFFC
FFF8
FBF0
F800
F800
ENDCHAR
STARTCHAR ÿ
ENCODING -1
SWIDTH 75 0
DWIDTH -1 0
BBX 12 17 0 0
BITMAP
71C0
71C0
71C0
0000
F0F0
F0F0
F0F0
F0F0
F0F0
FFF0
FFF0
7FF0
3FF0
00F0
F1F0
7FE0
3FC0
ENDCHAR
ENDFONT
