STARTFONT 2.1
COMMENT Lumiplan font build using LumiStudio
FONT Duhamel 24/22 1-UltraCondensed
SIZE 24 75 75
FONTBOUNDINGBOX 8 24 0 0
STARTPROPERTIES 1
Copyright "Copyright (c) 2021 Lumiplan"
ENDPROPERTIES
CHARS 189
STARTCHAR 
ENCODING 14
SWIDTH 75 0
DWIDTH -1 0
BBX 0 0 1 23
ENDCHAR
STARTCHAR  
ENCODING 32
SWIDTH 75 0
DWIDTH -1 0
BBX 0 0 2 23
ENDCHAR
STARTCHAR !
ENCODING 33
SWIDTH 75 0
DWIDTH -1 0
BBX 3 22 0 1
BITMAP
E0
E0
E0
E0
E0
E0
E0
E0
E0
E0
E0
E0
E0
E0
E0
E0
E0
E0
00
E0
E0
E0
ENDCHAR
STARTCHAR "
ENCODING 34
SWIDTH 75 0
DWIDTH -1 0
BBX 6 4 0 19
BITMAP
6C
6C
48
90
ENDCHAR
STARTCHAR #
ENCODING 35
SWIDTH 75 0
DWIDTH -1 0
BBX 8 22 0 1
BITMAP
66
66
66
FF
FF
FF
66
66
66
66
66
66
66
66
66
66
FF
FF
FF
66
66
66
ENDCHAR
STARTCHAR $
ENCODING 36
SWIDTH 75 0
DWIDTH -1 0
BBX 8 22 0 1
BITMAP
18
7E
FF
DB
DB
D8
D8
D8
D8
D8
FE
7F
1B
1B
1B
1B
1B
DB
DB
FF
7E
18
ENDCHAR
STARTCHAR %
ENCODING 37
SWIDTH 75 0
DWIDTH -1 0
BBX 8 21 0 1
BITMAP
E3
E3
E3
06
06
06
0C
0C
0C
18
18
18
30
30
30
60
60
60
CE
CE
CE
ENDCHAR
STARTCHAR &
ENCODING 38
SWIDTH 75 0
DWIDTH -1 0
BBX 8 22 0 1
BITMAP
7C
FE
C6
C6
C6
C6
C6
FE
7C
38
7C
FE
C6
C6
C6
C6
C7
C7
C6
C7
FF
7D
ENDCHAR
STARTCHAR '
ENCODING 39
SWIDTH 75 0
DWIDTH -1 0
BBX 3 4 0 19
BITMAP
60
60
40
80
ENDCHAR
STARTCHAR (
ENCODING 40
SWIDTH 75 0
DWIDTH -1 0
BBX 4 22 0 1
BITMAP
70
F0
F0
C0
C0
C0
C0
C0
C0
C0
C0
C0
C0
C0
C0
C0
C0
C0
C0
F0
F0
70
ENDCHAR
STARTCHAR )
ENCODING 41
SWIDTH 75 0
DWIDTH -1 0
BBX 4 22 0 1
BITMAP
E0
F0
F0
30
30
30
30
30
30
30
30
30
30
30
30
30
30
30
30
F0
F0
E0
ENDCHAR
STARTCHAR *
ENCODING 42
SWIDTH 75 0
DWIDTH -1 0
BBX 8 7 0 16
BITMAP
18
18
FF
7E
3C
66
C3
ENDCHAR
STARTCHAR +
ENCODING 43
SWIDTH 75 0
DWIDTH -1 0
BBX 7 7 0 9
BITMAP
38
38
FE
FE
FE
38
38
ENDCHAR
STARTCHAR ,
ENCODING 44
SWIDTH 75 0
DWIDTH -1 0
BBX 3 4 0 1
BITMAP
60
60
40
80
ENDCHAR
STARTCHAR -
ENCODING 45
SWIDTH 75 0
DWIDTH -1 0
BBX 5 3 0 11
BITMAP
F8
F8
F8
ENDCHAR
STARTCHAR .
ENCODING 46
SWIDTH 75 0
DWIDTH -1 0
BBX 3 3 0 1
BITMAP
E0
E0
E0
ENDCHAR
STARTCHAR /
ENCODING 47
SWIDTH 75 0
DWIDTH -1 0
BBX 8 21 0 1
BITMAP
03
03
03
06
06
06
0C
0C
0C
18
18
18
30
30
30
60
60
60
C0
C0
C0
ENDCHAR
STARTCHAR 0
ENCODING 48
SWIDTH 75 0
DWIDTH -1 0
BBX 8 22 0 1
BITMAP
7E
FF
FF
E7
E7
E7
E7
E7
E7
E7
E7
E7
E7
E7
E7
E7
E7
E7
E7
FF
FF
7E
ENDCHAR
STARTCHAR 1
ENCODING 49
SWIDTH 75 0
DWIDTH -1 0
BBX 6 22 0 1
BITMAP
1C
3C
7C
FC
FC
DC
1C
1C
1C
1C
1C
1C
1C
1C
1C
1C
1C
1C
1C
1C
1C
1C
ENDCHAR
STARTCHAR 2
ENCODING 50
SWIDTH 75 0
DWIDTH -1 0
BBX 8 22 0 1
BITMAP
7E
FF
FF
E7
E7
E7
07
07
07
0E
0E
1E
1C
3C
38
78
70
F0
E0
FF
FF
FF
ENDCHAR
STARTCHAR 3
ENCODING 51
SWIDTH 75 0
DWIDTH -1 0
BBX 8 22 0 1
BITMAP
7E
FF
FF
E7
E7
E7
07
07
07
1E
1E
1E
07
07
07
07
E7
E7
E7
FF
FF
7E
ENDCHAR
STARTCHAR 4
ENCODING 52
SWIDTH 75 0
DWIDTH -1 0
BBX 8 22 0 1
BITMAP
0E
1E
3E
7E
FE
EE
CE
CE
CE
CE
CE
CE
CE
FF
FF
FF
0E
0E
0E
0E
0E
0E
ENDCHAR
STARTCHAR 5
ENCODING 53
SWIDTH 75 0
DWIDTH -1 0
BBX 8 22 0 1
BITMAP
FF
FF
FF
E0
E0
E0
E0
E0
E0
FE
FF
FF
07
07
07
07
07
E7
E7
FF
FF
7E
ENDCHAR
STARTCHAR 6
ENCODING 54
SWIDTH 75 0
DWIDTH -1 0
BBX 8 22 0 1
BITMAP
3E
7E
FE
F0
E0
E0
E0
E0
E0
FE
FF
FF
E7
E7
E7
E7
E7
E7
E7
FF
FF
7E
ENDCHAR
STARTCHAR 7
ENCODING 55
SWIDTH 75 0
DWIDTH -1 0
BBX 8 22 0 1
BITMAP
FF
FF
FF
07
07
07
07
07
07
0E
1C
38
38
38
38
38
38
38
38
38
38
38
ENDCHAR
STARTCHAR 8
ENCODING 56
SWIDTH 75 0
DWIDTH -1 0
BBX 8 22 0 1
BITMAP
7E
FF
FF
E7
E7
E7
E7
E7
E7
FF
FF
7E
E7
E7
E7
E7
E7
E7
E7
FF
FF
7E
ENDCHAR
STARTCHAR 9
ENCODING 57
SWIDTH 75 0
DWIDTH -1 0
BBX 8 22 0 1
BITMAP
7E
FF
FF
E7
E7
E7
E7
E7
E7
FF
FF
7F
07
07
07
07
07
07
0F
7F
7E
7C
ENDCHAR
STARTCHAR :
ENCODING 58
SWIDTH 75 0
DWIDTH -1 0
BBX 3 9 0 1
BITMAP
E0
E0
E0
00
00
00
E0
E0
E0
ENDCHAR
STARTCHAR ;
ENCODING 59
SWIDTH 75 0
DWIDTH -1 0
BBX 4 9 0 1
BITMAP
70
70
70
00
00
70
70
70
80
ENDCHAR
STARTCHAR <
ENCODING 60
SWIDTH 75 0
DWIDTH -1 0
BBX 8 18 0 1
BITMAP
03
07
0F
1E
3C
78
F0
E0
C0
C0
E0
F0
78
3C
1E
0F
07
03
ENDCHAR
STARTCHAR =
ENCODING 61
SWIDTH 75 0
DWIDTH -1 0
BBX 6 8 0 6
BITMAP
FC
FC
FC
00
00
FC
FC
FC
ENDCHAR
STARTCHAR >
ENCODING 62
SWIDTH 75 0
DWIDTH -1 0
BBX 8 18 0 1
BITMAP
C0
E0
F0
78
3C
1E
0F
07
03
03
07
0F
1E
3C
78
F0
E0
C0
ENDCHAR
STARTCHAR ?
ENCODING 63
SWIDTH 75 0
DWIDTH -1 0
BBX 8 22 0 1
BITMAP
7E
FF
FF
E7
E7
E7
07
07
07
07
07
0E
1C
1C
1C
1C
1C
1C
00
1C
1C
1C
ENDCHAR
STARTCHAR @
ENCODING 64
SWIDTH 75 0
DWIDTH -1 0
BBX 8 22 0 1
BITMAP
7E
FF
FF
E7
E7
E7
E7
EF
EF
EE
E0
E0
E0
E0
E0
E0
E0
E7
E7
FF
7E
3C
ENDCHAR
STARTCHAR A
ENCODING 65
SWIDTH 75 0
DWIDTH -1 0
BBX 8 22 0 1
BITMAP
7E
FF
FF
E7
E7
E7
E7
E7
E7
FF
FF
FF
E7
E7
E7
E7
E7
E7
E7
E7
E7
E7
ENDCHAR
STARTCHAR B
ENCODING 66
SWIDTH 75 0
DWIDTH -1 0
BBX 8 22 0 1
BITMAP
FE
FF
FF
E7
E7
E7
E7
E7
E7
FE
FE
FE
E7
E7
E7
E7
E7
E7
E7
FF
FF
FE
ENDCHAR
STARTCHAR C
ENCODING 67
SWIDTH 75 0
DWIDTH -1 0
BBX 8 22 0 1
BITMAP
7E
FF
FF
E7
E0
E0
E0
E0
E0
E0
E0
E0
E0
E0
E0
E0
E0
E0
E7
FF
FF
7E
ENDCHAR
STARTCHAR D
ENCODING 68
SWIDTH 75 0
DWIDTH -1 0
BBX 8 22 0 1
BITMAP
FC
FE
FF
E7
E7
E7
E7
E7
E7
E7
E7
E7
E7
E7
E7
E7
E7
E7
E7
FF
FE
FC
ENDCHAR
STARTCHAR E
ENCODING 69
SWIDTH 75 0
DWIDTH -1 0
BBX 8 22 0 1
BITMAP
FF
FF
FF
E0
E0
E0
E0
E0
E0
FE
FE
FE
E0
E0
E0
E0
E0
E0
E0
FF
FF
FF
ENDCHAR
STARTCHAR F
ENCODING 70
SWIDTH 75 0
DWIDTH -1 0
BBX 8 22 0 1
BITMAP
FF
FF
FF
E0
E0
E0
E0
E0
E0
FE
FE
FE
E0
E0
E0
E0
E0
E0
E0
E0
E0
E0
ENDCHAR
STARTCHAR G
ENCODING 71
SWIDTH 75 0
DWIDTH -1 0
BBX 8 22 0 1
BITMAP
7E
FF
FF
E7
E0
E0
E0
E0
E0
E0
EF
EF
EF
E7
E7
E7
E7
E7
E7
FF
FF
7E
ENDCHAR
STARTCHAR H
ENCODING 72
SWIDTH 75 0
DWIDTH -1 0
BBX 8 22 0 1
BITMAP
E7
E7
E7
E7
E7
E7
E7
E7
E7
FF
FF
FF
E7
E7
E7
E7
E7
E7
E7
E7
E7
E7
ENDCHAR
STARTCHAR I
ENCODING 73
SWIDTH 75 0
DWIDTH -1 0
BBX 3 22 0 1
BITMAP
E0
E0
E0
E0
E0
E0
E0
E0
E0
E0
E0
E0
E0
E0
E0
E0
E0
E0
E0
E0
E0
E0
ENDCHAR
STARTCHAR J
ENCODING 74
SWIDTH 75 0
DWIDTH -1 0
BBX 8 22 0 1
BITMAP
07
07
07
07
07
07
07
07
07
07
07
07
07
07
07
07
E7
E7
E7
FF
FF
7E
ENDCHAR
STARTCHAR K
ENCODING 75
SWIDTH 75 0
DWIDTH -1 0
BBX 8 22 0 1
BITMAP
E7
E7
E7
E7
E7
E7
E7
E7
EE
FC
FC
FC
FC
EE
E7
E7
E7
E7
E7
E7
E7
E7
ENDCHAR
STARTCHAR L
ENCODING 76
SWIDTH 75 0
DWIDTH -1 0
BBX 8 22 0 1
BITMAP
E0
E0
E0
E0
E0
E0
E0
E0
E0
E0
E0
E0
E0
E0
E0
E0
E0
E0
E0
FF
FF
FF
ENDCHAR
STARTCHAR M
ENCODING 77
SWIDTH 75 0
DWIDTH -1 0
BBX 8 22 0 1
BITMAP
81
C3
E7
FF
FF
FF
E7
E7
E7
E7
E7
E7
E7
E7
E7
E7
E7
E7
E7
E7
E7
E7
ENDCHAR
STARTCHAR N
ENCODING 78
SWIDTH 75 0
DWIDTH -1 0
BBX 8 22 0 1
BITMAP
C7
E7
F7
FF
FF
EF
E7
E7
E7
E7
E7
E7
E7
E7
E7
E7
E7
E7
E7
E7
E7
E7
ENDCHAR
STARTCHAR O
ENCODING 79
SWIDTH 75 0
DWIDTH -1 0
BBX 8 22 0 1
BITMAP
7E
FF
FF
E7
E7
E7
E7
E7
E7
E7
E7
E7
E7
E7
E7
E7
E7
E7
E7
FF
FF
7E
ENDCHAR
STARTCHAR P
ENCODING 80
SWIDTH 75 0
DWIDTH -1 0
BBX 8 22 0 1
BITMAP
FE
FF
FF
E7
E7
E7
E7
E7
E7
FF
FF
FE
E0
E0
E0
E0
E0
E0
E0
E0
E0
E0
ENDCHAR
STARTCHAR Q
ENCODING 81
SWIDTH 75 0
DWIDTH -1 0
BBX 8 22 0 1
BITMAP
7E
FF
FF
E7
E7
E7
E7
E7
E7
E7
E7
E7
E7
E7
E7
E7
E7
E7
EB
F5
FA
7D
ENDCHAR
STARTCHAR R
ENCODING 82
SWIDTH 75 0
DWIDTH -1 0
BBX 8 22 0 1
BITMAP
FE
FF
FF
E7
E7
E7
E7
E7
E7
FF
FF
FE
EE
E7
E7
E7
E7
E7
E7
E7
E7
E7
ENDCHAR
STARTCHAR S
ENCODING 83
SWIDTH 75 0
DWIDTH -1 0
BBX 8 22 0 1
BITMAP
7E
FF
FF
E7
E7
E0
E0
E0
F0
F8
7C
3E
1F
0F
07
07
E7
E7
E7
FF
FF
7E
ENDCHAR
STARTCHAR T
ENCODING 84
SWIDTH 75 0
DWIDTH -1 0
BBX 7 22 0 1
BITMAP
FE
FE
FE
38
38
38
38
38
38
38
38
38
38
38
38
38
38
38
38
38
38
38
ENDCHAR
STARTCHAR U
ENCODING 85
SWIDTH 75 0
DWIDTH -1 0
BBX 8 22 0 1
BITMAP
E7
E7
E7
E7
E7
E7
E7
E7
E7
E7
E7
E7
E7
E7
E7
E7
E7
E7
E7
FF
FF
7E
ENDCHAR
STARTCHAR V
ENCODING 86
SWIDTH 75 0
DWIDTH -1 0
BBX 7 22 0 1
BITMAP
EE
EE
EE
EE
EE
EE
EE
EE
EE
EE
EE
EE
EE
EE
EE
EE
EE
EE
EE
7C
38
10
ENDCHAR
STARTCHAR W
ENCODING 87
SWIDTH 75 0
DWIDTH -1 0
BBX 8 22 0 1
BITMAP
E7
E7
E7
E7
E7
E7
E7
E7
E7
E7
E7
E7
E7
E7
E7
E7
FF
FF
FF
E7
C3
81
ENDCHAR
STARTCHAR X
ENCODING 88
SWIDTH 75 0
DWIDTH -1 0
BBX 7 22 0 1
BITMAP
EE
EE
EE
EE
EE
EE
EE
EE
7C
38
38
38
38
7C
EE
EE
EE
EE
EE
EE
EE
EE
ENDCHAR
STARTCHAR Y
ENCODING 89
SWIDTH 75 0
DWIDTH -1 0
BBX 7 22 0 1
BITMAP
EE
EE
EE
EE
EE
EE
EE
EE
EE
EE
EE
7C
38
38
38
38
38
38
38
38
38
38
ENDCHAR
STARTCHAR Z
ENCODING 90
SWIDTH 75 0
DWIDTH -1 0
BBX 8 22 0 1
BITMAP
FF
FF
FF
07
07
07
07
07
07
0F
1E
3C
78
F0
E0
E0
E0
E0
E0
FF
FF
FF
ENDCHAR
STARTCHAR [
ENCODING 91
SWIDTH 75 0
DWIDTH -1 0
BBX 5 22 0 1
BITMAP
F8
F8
F8
E0
E0
E0
E0
E0
E0
E0
E0
E0
E0
E0
E0
E0
E0
E0
E0
F8
F8
F8
ENDCHAR
STARTCHAR \
ENCODING 92
SWIDTH 75 0
DWIDTH -1 0
BBX 8 21 0 1
BITMAP
C0
C0
C0
60
60
60
30
30
30
18
18
18
0C
0C
0C
06
06
06
03
03
03
ENDCHAR
STARTCHAR ]
ENCODING 93
SWIDTH 75 0
DWIDTH -1 0
BBX 5 22 0 1
BITMAP
F8
F8
F8
38
38
38
38
38
38
38
38
38
38
38
38
38
38
38
38
F8
F8
F8
ENDCHAR
STARTCHAR ^
ENCODING 94
SWIDTH 75 0
DWIDTH -1 0
BBX 8 5 0 18
BITMAP
18
3C
7E
E7
C3
ENDCHAR
STARTCHAR _
ENCODING 95
SWIDTH 75 0
DWIDTH -1 0
BBX 6 3 0 1
BITMAP
FC
FC
FC
ENDCHAR
STARTCHAR `
ENCODING 96
SWIDTH 75 0
DWIDTH -1 0
BBX 3 4 0 20
BITMAP
C0
C0
40
20
ENDCHAR
STARTCHAR a
ENCODING 97
SWIDTH 75 0
DWIDTH -1 0
BBX 8 13 0 1
BITMAP
7E
7F
07
07
7F
FF
FF
E7
E7
E7
FF
FF
77
ENDCHAR
STARTCHAR b
ENCODING 98
SWIDTH 75 0
DWIDTH -1 0
BBX 8 22 0 1
BITMAP
E0
E0
E0
E0
E0
E0
E0
E0
E0
EE
FF
FF
F7
E7
E7
E7
E7
E7
F7
FF
FF
EE
ENDCHAR
STARTCHAR c
ENCODING 99
SWIDTH 75 0
DWIDTH -1 0
BBX 8 13 0 1
BITMAP
7E
FF
FF
E7
E0
E0
E0
E0
E0
E7
FF
FF
7E
ENDCHAR
STARTCHAR d
ENCODING 100
SWIDTH 75 0
DWIDTH -1 0
BBX 8 22 0 1
BITMAP
07
07
07
07
07
07
07
07
07
77
FF
FF
EF
E7
E7
E7
E7
E7
EF
FF
FF
77
ENDCHAR
STARTCHAR e
ENCODING 101
SWIDTH 75 0
DWIDTH -1 0
BBX 8 13 0 1
BITMAP
7E
FF
FF
E7
E7
FF
FE
FE
E0
E0
FF
FF
7E
ENDCHAR
STARTCHAR f
ENCODING 102
SWIDTH 75 0
DWIDTH -1 0
BBX 8 22 0 1
BITMAP
3E
7F
7F
77
77
70
70
70
70
F8
F8
F8
70
70
70
70
70
70
70
70
70
70
ENDCHAR
STARTCHAR g
ENCODING 103
SWIDTH 75 0
DWIDTH -1 0
BBX 8 14 0 0
BITMAP
77
FF
FF
EF
E7
E7
FF
FF
7F
07
07
FF
FF
7E
ENDCHAR
STARTCHAR h
ENCODING 104
SWIDTH 75 0
DWIDTH -1 0
BBX 8 22 0 1
BITMAP
E0
E0
E0
E0
E0
E0
E0
E0
E0
EE
FF
FF
F7
E7
E7
E7
E7
E7
E7
E7
E7
E7
ENDCHAR
STARTCHAR i
ENCODING 105
SWIDTH 75 0
DWIDTH -1 0
BBX 3 18 0 1
BITMAP
E0
E0
E0
00
00
E0
E0
E0
E0
E0
E0
E0
E0
E0
E0
E0
E0
E0
ENDCHAR
STARTCHAR j
ENCODING 106
SWIDTH 75 0
DWIDTH -1 0
BBX 8 19 0 0
BITMAP
07
07
07
00
00
07
07
07
07
07
07
07
07
07
E7
E7
FF
FF
7E
ENDCHAR
STARTCHAR k
ENCODING 107
SWIDTH 75 0
DWIDTH -1 0
BBX 8 22 0 1
BITMAP
E0
E0
E0
E0
E0
E0
E0
E0
E0
E7
E7
E7
E7
EF
FE
FC
FE
EF
E7
E7
E7
E7
ENDCHAR
STARTCHAR l
ENCODING 108
SWIDTH 75 0
DWIDTH -1 0
BBX 3 22 0 1
BITMAP
E0
E0
E0
E0
E0
E0
E0
E0
E0
E0
E0
E0
E0
E0
E0
E0
E0
E0
E0
E0
E0
E0
ENDCHAR
STARTCHAR m
ENCODING 109
SWIDTH 75 0
DWIDTH -1 0
BBX 8 13 0 1
BITMAP
D6
FF
EB
EB
EB
EB
EB
EB
EB
EB
EB
EB
EB
ENDCHAR
STARTCHAR n
ENCODING 110
SWIDTH 75 0
DWIDTH -1 0
BBX 8 13 0 1
BITMAP
EC
FE
FF
F7
E7
E7
E7
E7
E7
E7
E7
E7
E7
ENDCHAR
STARTCHAR o
ENCODING 111
SWIDTH 75 0
DWIDTH -1 0
BBX 8 13 0 1
BITMAP
7E
FF
FF
E7
E7
E7
E7
E7
E7
E7
FF
FF
7E
ENDCHAR
STARTCHAR p
ENCODING 112
SWIDTH 75 0
DWIDTH -1 0
BBX 8 14 0 0
BITMAP
EE
FF
FF
F7
E7
E7
FF
FF
FE
E0
E0
E0
E0
E0
ENDCHAR
STARTCHAR q
ENCODING 113
SWIDTH 75 0
DWIDTH -1 0
BBX 8 14 0 0
BITMAP
77
FF
FF
EF
E7
E7
FF
FF
7F
07
07
07
07
07
ENDCHAR
STARTCHAR r
ENCODING 114
SWIDTH 75 0
DWIDTH -1 0
BBX 8 13 0 1
BITMAP
EE
FF
FF
F3
E0
E0
E0
E0
E0
E0
E0
E0
E0
ENDCHAR
STARTCHAR s
ENCODING 115
SWIDTH 75 0
DWIDTH -1 0
BBX 8 13 0 1
BITMAP
7E
FF
FF
E0
E0
FE
7F
7F
07
07
FF
FF
7E
ENDCHAR
STARTCHAR t
ENCODING 116
SWIDTH 75 0
DWIDTH -1 0
BBX 8 22 0 1
BITMAP
70
70
70
70
70
70
70
70
70
F8
F8
F8
70
70
70
70
70
77
77
7F
7F
3E
ENDCHAR
STARTCHAR u
ENCODING 117
SWIDTH 75 0
DWIDTH -1 0
BBX 8 13 0 1
BITMAP
E7
E7
E7
E7
E7
E7
E7
E7
E7
EF
FF
FF
77
ENDCHAR
STARTCHAR v
ENCODING 118
SWIDTH 75 0
DWIDTH -1 0
BBX 7 13 0 1
BITMAP
EE
EE
EE
EE
EE
EE
EE
EE
EE
EE
7C
38
10
ENDCHAR
STARTCHAR w
ENCODING 119
SWIDTH 75 0
DWIDTH -1 0
BBX 8 13 0 1
BITMAP
E7
E7
E7
E7
E7
E7
E7
E7
FF
FF
E7
C3
81
ENDCHAR
STARTCHAR x
ENCODING 120
SWIDTH 75 0
DWIDTH -1 0
BBX 8 13 0 1
BITMAP
E7
E7
FF
7E
7E
3C
3C
3C
7E
7E
FF
E7
E7
ENDCHAR
STARTCHAR y
ENCODING 121
SWIDTH 75 0
DWIDTH -1 0
BBX 8 14 0 0
BITMAP
E7
E7
E7
E7
EF
FF
FF
77
07
07
07
FF
FF
7E
ENDCHAR
STARTCHAR z
ENCODING 122
SWIDTH 75 0
DWIDTH -1 0
BBX 8 13 0 1
BITMAP
FF
FF
FF
07
07
0E
1C
38
70
E0
FF
FF
FF
ENDCHAR
STARTCHAR {
ENCODING 123
SWIDTH 75 0
DWIDTH -1 0
BBX 6 22 0 1
BITMAP
1C
3C
7C
78
70
70
70
70
70
E0
E0
E0
70
70
70
70
70
70
78
7C
3C
1C
ENDCHAR
STARTCHAR |
ENCODING 124
SWIDTH 75 0
DWIDTH -1 0
BBX 3 22 0 1
BITMAP
E0
E0
E0
E0
E0
E0
E0
E0
E0
E0
E0
E0
E0
E0
E0
E0
E0
E0
E0
E0
E0
E0
ENDCHAR
STARTCHAR }
ENCODING 125
SWIDTH 75 0
DWIDTH -1 0
BBX 6 22 0 1
BITMAP
E0
F0
F8
78
38
38
38
38
38
1C
1C
1C
38
38
38
38
38
38
78
F8
F0
E0
ENDCHAR
STARTCHAR ~
ENCODING 126
SWIDTH 75 0
DWIDTH -1 0
BBX 8 3 0 11
BITMAP
38
6D
C6
ENDCHAR
STARTCHAR ¤
ENCODING -92
SWIDTH 75 0
DWIDTH -1 0
BBX 8 22 0 1
BITMAP
3E
7F
7F
77
70
70
70
FE
FE
FE
70
70
FE
FE
FE
70
70
70
77
7F
7F
3E
ENDCHAR
STARTCHAR ¦
ENCODING -90
SWIDTH 75 0
DWIDTH -1 0
BBX 8 23 0 1
BITMAP
C3
66
3C
00
7E
FF
FF
E7
E7
E0
F0
F8
7C
3E
1F
0F
07
07
E7
E7
FF
FF
7E
ENDCHAR
STARTCHAR ¼
ENCODING -68
SWIDTH 75 0
DWIDTH -1 0
BBX 8 22 0 1
BITMAP
7F
FF
EF
EE
EE
EE
EE
EE
EE
EF
EF
EF
EE
EE
EE
EE
EE
EE
EE
EF
FF
7F
ENDCHAR
STARTCHAR ´
ENCODING -76
SWIDTH 75 0
DWIDTH -1 0
BBX 8 22 0 1
BITMAP
C3
66
3C
00
FF
FF
FF
07
07
07
07
0F
1E
3C
78
F0
E0
E0
E0
FF
FF
FF
ENDCHAR
STARTCHAR ¨
ENCODING -88
SWIDTH 75 0
DWIDTH -1 0
BBX 8 17 0 1
BITMAP
C3
66
3C
00
7E
FF
FF
E0
E0
FE
7F
7F
07
07
FF
FF
7E
ENDCHAR
STARTCHAR ½
ENCODING -67
SWIDTH 75 0
DWIDTH -1 0
BBX 8 13 0 1
BITMAP
6E
FF
FF
DB
DB
DB
DF
DE
D8
D8
FF
FF
7E
ENDCHAR
STARTCHAR ¸
ENCODING -72
SWIDTH 75 0
DWIDTH -1 0
BBX 8 17 0 1
BITMAP
C3
66
3C
00
FF
FF
FF
07
07
0E
1C
38
70
E0
FF
FF
FF
ENDCHAR
STARTCHAR ¾
ENCODING -66
SWIDTH 75 0
DWIDTH -1 0
BBX 7 22 0 1
BITMAP
EE
EE
EE
00
EE
EE
EE
EE
EE
EE
EE
EE
7C
38
38
38
38
38
38
38
38
38
ENDCHAR
STARTCHAR ¡
ENCODING -95
SWIDTH 75 0
DWIDTH -1 0
BBX 3 22 0 1
BITMAP
E0
E0
E0
00
E0
E0
E0
E0
E0
E0
E0
E0
E0
E0
E0
E0
E0
E0
E0
E0
E0
E0
ENDCHAR
STARTCHAR ¢
ENCODING -94
SWIDTH 75 0
DWIDTH -1 0
BBX 8 24 0 0
BITMAP
08
7E
FF
FF
EB
E8
E8
E8
E8
E8
E8
E8
E8
E8
E8
E8
E8
E8
E8
EB
FF
FF
7E
08
ENDCHAR
STARTCHAR £
ENCODING -93
SWIDTH 75 0
DWIDTH -1 0
BBX 8 22 0 1
BITMAP
7E
FF
FF
E3
E0
E0
E0
F0
78
38
38
FE
FE
70
70
70
F0
E0
E0
FF
FF
FF
ENDCHAR
STARTCHAR ¥
ENCODING -91
SWIDTH 75 0
DWIDTH -1 0
BBX 7 22 0 1
BITMAP
EE
EE
EE
EE
EE
EE
EE
EE
7C
38
38
38
FE
38
38
FE
38
38
38
38
38
38
ENDCHAR
STARTCHAR §
ENCODING -89
SWIDTH 75 0
DWIDTH -1 0
BBX 8 22 0 1
BITMAP
7E
FF
FF
E0
E0
E0
FE
7F
7F
E7
E7
E7
E7
FE
7F
7F
07
07
07
FF
FF
7E
ENDCHAR
STARTCHAR ©
ENCODING -87
SWIDTH 75 0
DWIDTH -1 0
BBX 8 9 0 14
BITMAP
7E
81
9D
A1
A1
A1
9D
81
7E
ENDCHAR
STARTCHAR ª
ENCODING -86
SWIDTH 75 0
DWIDTH -1 0
BBX 4 7 0 16
BITMAP
60
10
10
70
90
90
70
ENDCHAR
STARTCHAR «
ENCODING -85
SWIDTH 75 0
DWIDTH -1 0
BBX 8 5 0 10
BITMAP
33
66
CC
66
33
ENDCHAR
STARTCHAR ¬
ENCODING -84
SWIDTH 75 0
DWIDTH -1 0
BBX 8 5 0 10
BITMAP
FF
FF
FF
07
07
ENDCHAR
STARTCHAR ®
ENCODING -82
SWIDTH 75 0
DWIDTH -1 0
BBX 8 9 0 14
BITMAP
7E
81
B9
A5
B9
A5
A5
81
7E
ENDCHAR
STARTCHAR ¯
ENCODING -81
SWIDTH 75 0
DWIDTH -1 0
BBX 6 3 0 12
BITMAP
FC
FC
FC
ENDCHAR
STARTCHAR °
ENCODING -80
SWIDTH 75 0
DWIDTH -1 0
BBX 4 6 0 17
BITMAP
60
90
90
90
90
60
ENDCHAR
STARTCHAR ±
ENCODING -79
SWIDTH 75 0
DWIDTH -1 0
BBX 7 11 0 7
BITMAP
38
38
FE
FE
FE
38
38
00
FE
FE
FE
ENDCHAR
STARTCHAR ²
ENCODING -78
SWIDTH 75 0
DWIDTH -1 0
BBX 4 7 0 16
BITMAP
60
90
10
20
40
80
F0
ENDCHAR
STARTCHAR ³
ENCODING -77
SWIDTH 75 0
DWIDTH -1 0
BBX 4 7 0 16
BITMAP
60
90
10
20
10
90
60
ENDCHAR
STARTCHAR µ
ENCODING -75
SWIDTH 75 0
DWIDTH -1 0
BBX 8 14 0 0
BITMAP
E7
E7
E7
EF
FF
FF
F7
E0
E0
E0
E0
E0
E0
E0
ENDCHAR
STARTCHAR ·
ENCODING -73
SWIDTH 75 0
DWIDTH -1 0
BBX 3 3 0 10
BITMAP
E0
E0
E0
ENDCHAR
STARTCHAR ¹
ENCODING -71
SWIDTH 75 0
DWIDTH -1 0
BBX 4 7 0 16
BITMAP
20
60
A0
20
20
20
70
ENDCHAR
STARTCHAR º
ENCODING -70
SWIDTH 75 0
DWIDTH -1 0
BBX 4 7 0 16
BITMAP
60
90
90
90
90
90
60
ENDCHAR
STARTCHAR »
ENCODING -69
SWIDTH 75 0
DWIDTH -1 0
BBX 8 5 0 10
BITMAP
CC
66
33
66
CC
ENDCHAR
STARTCHAR ¿
ENCODING -65
SWIDTH 75 0
DWIDTH -1 0
BBX 8 22 0 1
BITMAP
38
38
38
00
38
38
38
38
38
38
70
E0
E0
E0
E0
E0
E7
E7
E7
FF
FF
7E
ENDCHAR
STARTCHAR À
ENCODING -64
SWIDTH 75 0
DWIDTH -1 0
BBX 8 23 0 1
BITMAP
60
30
18
00
7E
FF
FF
E7
E7
E7
E7
E7
FF
FF
FF
E7
E7
E7
E7
E7
E7
E7
E7
ENDCHAR
STARTCHAR Á
ENCODING -63
SWIDTH 75 0
DWIDTH -1 0
BBX 8 23 0 1
BITMAP
0C
18
30
00
7E
FF
FF
E7
E7
E7
E7
E7
FF
FF
FF
E7
E7
E7
E7
E7
E7
E7
E7
ENDCHAR
STARTCHAR Â
ENCODING -62
SWIDTH 75 0
DWIDTH -1 0
BBX 8 23 0 1
BITMAP
3C
66
C3
00
7E
FF
FF
E7
E7
E7
E7
E7
FF
FF
FF
E7
E7
E7
E7
E7
E7
E7
E7
ENDCHAR
STARTCHAR Ã
ENCODING -61
SWIDTH 75 0
DWIDTH -1 0
BBX 8 23 0 1
BITMAP
38
6D
C6
00
7E
FF
FF
E7
E7
E7
E7
E7
FF
FF
FF
E7
E7
E7
E7
E7
E7
E7
E7
ENDCHAR
STARTCHAR Ä
ENCODING -60
SWIDTH 75 0
DWIDTH -1 0
BBX 8 23 0 1
BITMAP
E7
E7
E7
00
7E
FF
FF
E7
E7
E7
E7
E7
FF
FF
FF
E7
E7
E7
E7
E7
E7
E7
E7
ENDCHAR
STARTCHAR Å
ENCODING -59
SWIDTH 75 0
DWIDTH -1 0
BBX 8 23 0 1
BITMAP
18
24
24
18
00
7E
FF
FF
E7
E7
E7
E7
FF
FF
FF
E7
E7
E7
E7
E7
E7
E7
E7
ENDCHAR
STARTCHAR Æ
ENCODING -58
SWIDTH 75 0
DWIDTH -1 0
BBX 8 22 0 1
BITMAP
7F
FF
FF
EE
EE
EE
EE
EE
EE
FF
FF
FF
EE
EE
EE
EE
EE
EE
EE
EF
EF
EF
ENDCHAR
STARTCHAR Ç
ENCODING -57
SWIDTH 75 0
DWIDTH -1 0
BBX 8 23 0 0
BITMAP
7E
FF
FF
E7
E0
E0
E0
E0
E0
E0
E0
E0
E0
E0
E0
E7
FF
FF
7E
18
18
0C
38
ENDCHAR
STARTCHAR È
ENCODING -56
SWIDTH 75 0
DWIDTH -1 0
BBX 8 23 0 1
BITMAP
60
30
18
00
FF
FF
FF
E0
E0
E0
E0
E0
FC
FC
FC
E0
E0
E0
E0
E0
FF
FF
FF
ENDCHAR
STARTCHAR É
ENCODING -55
SWIDTH 75 0
DWIDTH -1 0
BBX 8 23 0 1
BITMAP
0C
18
30
00
FF
FF
FF
E0
E0
E0
E0
E0
FC
FC
FC
E0
E0
E0
E0
E0
FF
FF
FF
ENDCHAR
STARTCHAR Ê
ENCODING -54
SWIDTH 75 0
DWIDTH -1 0
BBX 8 23 0 1
BITMAP
3C
66
C3
00
FF
FF
FF
E0
E0
E0
E0
E0
FC
FC
FC
E0
E0
E0
E0
E0
FF
FF
FF
ENDCHAR
STARTCHAR Ë
ENCODING -53
SWIDTH 75 0
DWIDTH -1 0
BBX 8 23 0 1
BITMAP
C3
C3
00
00
FF
FF
FF
E0
E0
E0
E0
E0
FC
FC
FC
E0
E0
E0
E0
E0
FF
FF
FF
ENDCHAR
STARTCHAR Ì
ENCODING -52
SWIDTH 75 0
DWIDTH -1 0
BBX 4 23 0 1
BITMAP
C0
60
30
00
E0
E0
E0
E0
E0
E0
E0
E0
E0
E0
E0
E0
E0
E0
E0
E0
E0
E0
E0
ENDCHAR
STARTCHAR Í
ENCODING -51
SWIDTH 75 0
DWIDTH -1 0
BBX 4 23 0 1
BITMAP
30
60
C0
00
E0
E0
E0
E0
E0
E0
E0
E0
E0
E0
E0
E0
E0
E0
E0
E0
E0
E0
E0
ENDCHAR
STARTCHAR Î
ENCODING -50
SWIDTH 75 0
DWIDTH -1 0
BBX 7 23 0 1
BITMAP
38
6C
C6
00
38
38
38
38
38
38
38
38
38
38
38
38
38
38
38
38
38
38
38
ENDCHAR
STARTCHAR Ï
ENCODING -49
SWIDTH 75 0
DWIDTH -1 0
BBX 7 23 0 1
BITMAP
EE
EE
EE
00
38
38
38
38
38
38
38
38
38
38
38
38
38
38
38
38
38
38
38
ENDCHAR
STARTCHAR Ð
ENCODING -48
SWIDTH 75 0
DWIDTH -1 0
BBX 8 22 0 1
BITMAP
7C
7E
7F
73
73
73
73
73
73
FB
FB
FB
73
73
73
73
73
73
73
7F
7E
7C
ENDCHAR
STARTCHAR Ñ
ENCODING -47
SWIDTH 75 0
DWIDTH -1 0
BBX 8 23 0 1
BITMAP
38
6D
C6
00
E7
F7
FF
FF
EF
E7
E7
E7
E7
E7
E7
E7
E7
E7
E7
E7
E7
E7
E7
ENDCHAR
STARTCHAR Ò
ENCODING -46
SWIDTH 75 0
DWIDTH -1 0
BBX 8 23 0 1
BITMAP
60
30
18
00
7E
FF
FF
E7
E7
E7
E7
E7
E7
E7
E7
E7
E7
E7
E7
E7
FF
FF
7E
ENDCHAR
STARTCHAR Ó
ENCODING -45
SWIDTH 75 0
DWIDTH -1 0
BBX 8 23 0 1
BITMAP
0C
18
30
00
7E
FF
FF
E7
E7
E7
E7
E7
E7
E7
E7
E7
E7
E7
E7
E7
FF
FF
7E
ENDCHAR
STARTCHAR Ô
ENCODING -44
SWIDTH 75 0
DWIDTH -1 0
BBX 8 23 0 1
BITMAP
3C
66
C3
00
7E
FF
FF
E7
E7
E7
E7
E7
E7
E7
E7
E7
E7
E7
E7
E7
FF
FF
7E
ENDCHAR
STARTCHAR Õ
ENCODING -43
SWIDTH 75 0
DWIDTH -1 0
BBX 8 23 0 1
BITMAP
38
6D
C6
00
7E
FF
FF
E7
E7
E7
E7
E7
E7
E7
E7
E7
E7
E7
E7
E7
FF
FF
7E
ENDCHAR
STARTCHAR Ö
ENCODING -42
SWIDTH 75 0
DWIDTH -1 0
BBX 8 23 0 1
BITMAP
E7
E7
E7
00
7E
FF
FF
E7
E7
E7
E7
E7
E7
E7
E7
E7
E7
E7
E7
E7
FF
FF
7E
ENDCHAR
STARTCHAR ×
ENCODING -41
SWIDTH 75 0
DWIDTH -1 0
BBX 8 8 0 8
BITMAP
C3
E7
7E
3C
3C
7E
E7
C3
ENDCHAR
STARTCHAR Ø
ENCODING -40
SWIDTH 75 0
DWIDTH -1 0
BBX 8 24 0 0
BITMAP
08
7E
FF
FF
D3
D3
D3
D3
D3
D3
D3
D3
D3
D3
D3
D3
D3
D3
D3
D3
FF
FF
7E
20
ENDCHAR
STARTCHAR Ù
ENCODING -39
SWIDTH 75 0
DWIDTH -1 0
BBX 8 23 0 1
BITMAP
60
30
18
00
E7
E7
E7
E7
E7
E7
E7
E7
E7
E7
E7
E7
E7
E7
E7
E7
FF
FF
7E
ENDCHAR
STARTCHAR Ú
ENCODING -38
SWIDTH 75 0
DWIDTH -1 0
BBX 8 23 0 1
BITMAP
0C
18
30
00
E7
E7
E7
E7
E7
E7
E7
E7
E7
E7
E7
E7
E7
E7
E7
E7
FF
FF
7E
ENDCHAR
STARTCHAR Û
ENCODING -37
SWIDTH 75 0
DWIDTH -1 0
BBX 8 23 0 1
BITMAP
3C
66
C3
00
E7
E7
E7
E7
E7
E7
E7
E7
E7
E7
E7
E7
E7
E7
E7
E7
FF
FF
7E
ENDCHAR
STARTCHAR Ü
ENCODING -36
SWIDTH 75 0
DWIDTH -1 0
BBX 8 23 0 1
BITMAP
E7
E7
E7
00
E7
E7
E7
E7
E7
E7
E7
E7
E7
E7
E7
E7
E7
E7
E7
E7
FF
FF
7E
ENDCHAR
STARTCHAR Ý
ENCODING -35
SWIDTH 75 0
DWIDTH -1 0
BBX 7 23 0 1
BITMAP
C6
6C
38
00
EE
EE
EE
EE
EE
EE
EE
EE
EE
7C
38
38
38
38
38
38
38
38
38
ENDCHAR
STARTCHAR Þ
ENCODING -34
SWIDTH 75 0
DWIDTH -1 0
BBX 8 22 0 1
BITMAP
E0
E0
E0
E0
FE
FF
FF
E7
E7
E7
E7
E7
FF
FE
FE
E0
E0
E0
E0
E0
E0
E0
ENDCHAR
STARTCHAR ß
ENCODING -33
SWIDTH 75 0
DWIDTH -1 0
BBX 8 23 0 0
BITMAP
3C
7E
FF
F7
E7
E7
E7
E7
EE
EC
EE
E7
E7
E7
E7
E7
E7
E7
E7
EF
EE
EC
E0
ENDCHAR
STARTCHAR à
ENCODING -32
SWIDTH 75 0
DWIDTH -1 0
BBX 8 17 0 1
BITMAP
60
30
18
00
7E
7F
07
07
7F
FF
FF
E7
E7
E7
FF
FF
77
ENDCHAR
STARTCHAR á
ENCODING -31
SWIDTH 75 0
DWIDTH -1 0
BBX 8 17 0 1
BITMAP
0C
18
30
00
7E
7F
07
07
7F
FF
FF
E7
E7
E7
FF
FF
77
ENDCHAR
STARTCHAR â
ENCODING -30
SWIDTH 75 0
DWIDTH -1 0
BBX 8 17 0 1
BITMAP
3C
66
C3
00
7E
7F
07
07
7F
FF
FF
E7
E7
E7
FF
FF
77
ENDCHAR
STARTCHAR ã
ENCODING -29
SWIDTH 75 0
DWIDTH -1 0
BBX 8 17 0 1
BITMAP
38
6D
C6
00
7E
7F
07
07
7F
FF
FF
E7
E7
E7
FF
FF
77
ENDCHAR
STARTCHAR ä
ENCODING -28
SWIDTH 75 0
DWIDTH -1 0
BBX 8 17 0 1
BITMAP
E7
E7
E7
00
7E
7F
07
07
7F
FF
FF
E7
E7
E7
FF
FF
77
ENDCHAR
STARTCHAR å
ENCODING -27
SWIDTH 75 0
DWIDTH -1 0
BBX 8 18 0 1
BITMAP
18
24
24
18
00
7E
7F
07
07
7F
FF
FF
E7
E7
E7
FF
FF
77
ENDCHAR
STARTCHAR æ
ENCODING -26
SWIDTH 75 0
DWIDTH -1 0
BBX 8 13 0 1
BITMAP
6E
7F
1B
1B
7F
FE
FE
D8
D8
D8
FF
FF
7E
ENDCHAR
STARTCHAR ç
ENCODING -25
SWIDTH 75 0
DWIDTH -1 0
BBX 8 14 0 0
BITMAP
7E
FF
FF
E7
E0
E0
E0
E7
FF
FF
7E
18
08
38
ENDCHAR
STARTCHAR è
ENCODING -24
SWIDTH 75 0
DWIDTH -1 0
BBX 8 17 0 1
BITMAP
60
30
18
00
7E
FF
FF
E7
E7
FF
FE
FE
E0
E0
FF
FF
7E
ENDCHAR
STARTCHAR é
ENCODING -23
SWIDTH 75 0
DWIDTH -1 0
BBX 8 17 0 1
BITMAP
0C
18
30
00
7E
FF
FF
E7
E7
FF
FE
FE
E0
E0
FF
FF
7E
ENDCHAR
STARTCHAR ê
ENCODING -22
SWIDTH 75 0
DWIDTH -1 0
BBX 8 17 0 1
BITMAP
3C
66
C3
00
7E
FF
FF
E7
E7
FF
FE
FE
E0
E0
FF
FF
7E
ENDCHAR
STARTCHAR ë
ENCODING -21
SWIDTH 75 0
DWIDTH -1 0
BBX 8 17 0 1
BITMAP
E7
E7
E7
00
7E
FF
FF
E7
E7
FF
FE
FE
E0
E0
FF
FF
7E
ENDCHAR
STARTCHAR ì
ENCODING -20
SWIDTH 75 0
DWIDTH -1 0
BBX 4 17 0 1
BITMAP
C0
60
30
00
E0
E0
E0
E0
E0
E0
E0
E0
E0
E0
E0
E0
E0
ENDCHAR
STARTCHAR í
ENCODING -19
SWIDTH 75 0
DWIDTH -1 0
BBX 4 17 0 1
BITMAP
30
60
C0
00
E0
E0
E0
E0
E0
E0
E0
E0
E0
E0
E0
E0
E0
ENDCHAR
STARTCHAR î
ENCODING -18
SWIDTH 75 0
DWIDTH -1 0
BBX 7 17 0 1
BITMAP
38
6C
C6
00
38
38
38
38
38
38
38
38
38
38
38
38
38
ENDCHAR
STARTCHAR ï
ENCODING -17
SWIDTH 75 0
DWIDTH -1 0
BBX 7 17 0 1
BITMAP
EE
EE
EE
00
38
38
38
38
38
38
38
38
38
38
38
38
38
ENDCHAR
STARTCHAR ð
ENCODING -16
SWIDTH 75 0
DWIDTH -1 0
BBX 8 18 0 1
BITMAP
6C
38
38
6C
04
7E
FF
FF
E7
E7
E7
E7
E7
E7
E7
FF
FF
7E
ENDCHAR
STARTCHAR ñ
ENCODING -15
SWIDTH 75 0
DWIDTH -1 0
BBX 8 17 0 1
BITMAP
38
6D
C6
00
EC
FE
FF
F7
E7
E7
E7
E7
E7
E7
E7
E7
E7
ENDCHAR
STARTCHAR ò
ENCODING -14
SWIDTH 75 0
DWIDTH -1 0
BBX 8 17 0 1
BITMAP
60
30
18
00
7E
FF
FF
E7
E7
E7
E7
E7
E7
E7
FF
FF
7E
ENDCHAR
STARTCHAR ó
ENCODING -13
SWIDTH 75 0
DWIDTH -1 0
BBX 8 17 0 1
BITMAP
0C
18
30
00
7E
FF
FF
E7
E7
E7
E7
E7
E7
E7
FF
FF
7E
ENDCHAR
STARTCHAR ô
ENCODING -12
SWIDTH 75 0
DWIDTH -1 0
BBX 8 17 0 1
BITMAP
3C
66
C3
00
7E
FF
FF
E7
E7
E7
E7
E7
E7
E7
FF
FF
7E
ENDCHAR
STARTCHAR õ
ENCODING -11
SWIDTH 75 0
DWIDTH -1 0
BBX 8 17 0 1
BITMAP
38
6D
C6
00
7E
FF
FF
E7
E7
E7
E7
E7
E7
E7
FF
FF
7E
ENDCHAR
STARTCHAR ö
ENCODING -10
SWIDTH 75 0
DWIDTH -1 0
BBX 8 17 0 1
BITMAP
E7
E7
E7
00
7E
FF
FF
E7
E7
E7
E7
E7
E7
E7
FF
FF
7E
ENDCHAR
STARTCHAR ÷
ENCODING -9
SWIDTH 75 0
DWIDTH -1 0
BBX 7 11 0 2
BITMAP
38
38
38
00
FE
FE
FE
00
38
38
38
ENDCHAR
STARTCHAR ø
ENCODING -8
SWIDTH 75 0
DWIDTH -1 0
BBX 8 15 0 0
BITMAP
04
7E
FF
FF
CB
CB
CB
D3
D3
D3
D3
FF
FF
7E
20
ENDCHAR
STARTCHAR ù
ENCODING -7
SWIDTH 75 0
DWIDTH -1 0
BBX 8 17 0 1
BITMAP
60
30
18
00
E7
E7
E7
E7
E7
E7
E7
E7
E7
EF
FF
FF
77
ENDCHAR
STARTCHAR ú
ENCODING -6
SWIDTH 75 0
DWIDTH -1 0
BBX 8 17 0 1
BITMAP
0C
18
30
00
E7
E7
E7
E7
E7
E7
E7
E7
E7
EF
FF
FF
77
ENDCHAR
STARTCHAR û
ENCODING -5
SWIDTH 75 0
DWIDTH -1 0
BBX 8 17 0 1
BITMAP
3C
66
C3
00
E7
E7
E7
E7
E7
E7
E7
E7
E7
EF
FF
FF
77
ENDCHAR
STARTCHAR ü
ENCODING -4
SWIDTH 75 0
DWIDTH -1 0
BBX 8 17 0 1
BITMAP
E7
E7
E7
00
E7
E7
E7
E7
E7
E7
E7
E7
E7
EF
FF
FF
77
ENDCHAR
STARTCHAR ý
ENCODING -3
SWIDTH 75 0
DWIDTH -1 0
BBX 8 18 0 0
BITMAP
0C
18
30
00
E7
E7
E7
E7
EF
FF
FF
77
07
07
07
FF
FF
7E
ENDCHAR
STARTCHAR þ
ENCODING -2
SWIDTH 75 0
DWIDTH -1 0
BBX 8 22 0 1
BITMAP
E0
E0
E0
E0
E0
FE
FF
FF
E7
E7
E7
E7
E7
E7
E7
FF
FF
FE
E0
E0
E0
E0
ENDCHAR
STARTCHAR ÿ
ENCODING -1
SWIDTH 75 0
DWIDTH -1 0
BBX 8 18 0 0
BITMAP
E7
E7
E7
00
E7
E7
E7
E7
EF
FF
FF
77
07
07
07
FF
FF
7E
ENDCHAR
ENDFONT
