STARTFONT 2.1
COMMENT Lumiplan font build using LumiStudio
FONT H
SIZE 24 75 75
FONTBOUNDINGBOX 14 24 0 0
STARTPROPERTIES 1
Copyright "Copyright (c) 2021 Lumiplan"
ENDPROPERTIES
CHARS 145
STARTCHAR 
ENCODING 14
SWIDTH 75 0
DWIDTH -1 0
BBX 0 0 1 23
ENDCHAR
STARTCHAR  
ENCODING 32
SWIDTH 75 0
DWIDTH -1 0
BBX 0 0 4 23
ENDCHAR
STARTCHAR !
ENCODING 33
SWIDTH 75 0
DWIDTH -1 0
BBX 4 24 0 0
BITMAP
F0
F0
F0
F0
F0
F0
F0
F0
F0
F0
F0
F0
F0
F0
F0
F0
F0
F0
F0
00
00
F0
F0
F0
ENDCHAR
STARTCHAR "
ENCODING 34
SWIDTH 75 0
DWIDTH -1 0
BBX 8 5 0 19
BITMAP
77
77
77
66
88
ENDCHAR
STARTCHAR #
ENCODING 35
SWIDTH 75 0
DWIDTH -1 0
BBX 14 14 0 3
BITMAP
1CE0
1CE0
1CE0
FFFC
FFFC
FFFC
1CE0
1CE0
FFFC
FFFC
FFFC
1CE0
1CE0
1CE0
ENDCHAR
STARTCHAR $
ENCODING 36
SWIDTH 75 0
DWIDTH -1 0
BBX 13 22 0 1
BITMAP
0500
0500
3FE0
7FF0
FFF8
F578
F578
F500
FD00
7F00
3F80
0FC0
07E0
05F0
05F8
F578
F578
FFF8
7FF0
3FE0
0500
0500
ENDCHAR
STARTCHAR %
ENCODING 37
SWIDTH 75 0
DWIDTH -1 0
BBX 14 17 0 2
BITMAP
F004
F00C
F01C
F03C
0078
00F0
01E0
03C0
0780
0F00
1E00
3C00
7800
F03C
E03C
C03C
803C
ENDCHAR
STARTCHAR &
ENCODING 38
SWIDTH 75 0
DWIDTH -1 0
BBX 0 0 14 23
ENDCHAR
STARTCHAR '
ENCODING 39
SWIDTH 75 0
DWIDTH -1 0
BBX 4 5 0 19
BITMAP
70
70
70
60
80
ENDCHAR
STARTCHAR (
ENCODING 40
SWIDTH 75 0
DWIDTH -1 0
BBX 6 24 0 0
BITMAP
0C
18
30
70
60
E0
E0
E0
E0
E0
E0
E0
E0
E0
E0
E0
E0
E0
E0
60
70
30
18
0C
ENDCHAR
STARTCHAR )
ENCODING 41
SWIDTH 75 0
DWIDTH -1 0
BBX 6 24 0 0
BITMAP
C0
60
30
38
18
1C
1C
1C
1C
1C
1C
1C
1C
1C
1C
1C
1C
1C
1C
18
30
30
60
C0
ENDCHAR
STARTCHAR *
ENCODING 42
SWIDTH 75 0
DWIDTH -1 0
BBX 12 12 0 3
BITMAP
0600
6660
76E0
3FC0
1F80
FFF0
FFF0
1F80
3FC0
76E0
6660
0600
ENDCHAR
STARTCHAR +
ENCODING 43
SWIDTH 75 0
DWIDTH -1 0
BBX 11 11 0 1
BITMAP
0E00
0E00
0E00
0E00
FFE0
FFE0
FFE0
0E00
0E00
0E00
0E00
ENDCHAR
STARTCHAR ,
ENCODING 44
SWIDTH 75 0
DWIDTH -1 0
BBX 4 6 0 0
BITMAP
20
70
70
60
40
80
ENDCHAR
STARTCHAR -
ENCODING 45
SWIDTH 75 0
DWIDTH -1 0
BBX 10 3 0 5
BITMAP
FFC0
FFC0
FFC0
ENDCHAR
STARTCHAR .
ENCODING 46
SWIDTH 75 0
DWIDTH -1 0
BBX 3 3 0 0
BITMAP
E0
E0
E0
ENDCHAR
STARTCHAR /
ENCODING 47
SWIDTH 75 0
DWIDTH -1 0
BBX 12 22 0 1
BITMAP
0030
0030
0060
0060
00C0
00C0
0180
0180
0300
0300
0600
0600
0C00
0C00
1800
1800
3000
3000
6000
6000
C000
C000
ENDCHAR
STARTCHAR 0
ENCODING 48
SWIDTH 75 0
DWIDTH -1 0
BBX 14 24 0 0
BITMAP
0FC0
3FF0
7FF8
FFFC
F87C
F03C
F03C
F03C
F03C
F03C
F03C
F03C
F03C
F03C
F03C
F03C
F03C
F03C
F03C
F87C
FFFC
7FF8
3FF0
0FC0
ENDCHAR
STARTCHAR 1
ENCODING 49
SWIDTH 75 0
DWIDTH -1 0
BBX 12 24 0 0
BITMAP
0F00
1F00
3F00
7F00
FF00
FF00
FF00
0F00
0F00
0F00
0F00
0F00
0F00
0F00
0F00
0F00
0F00
0F00
0F00
0F00
FFF0
FFF0
FFF0
FFF0
ENDCHAR
STARTCHAR 2
ENCODING 50
SWIDTH 75 0
DWIDTH -1 0
BBX 14 24 0 0
BITMAP
0FC0
3FF0
7FF8
FFFC
F87C
F03C
F03C
003C
003C
007C
00FC
01F8
03F0
07E0
0FC0
1F80
3F00
7E00
FC00
F800
FFFC
FFFC
FFFC
FFFC
ENDCHAR
STARTCHAR 3
ENCODING 51
SWIDTH 75 0
DWIDTH -1 0
BBX 14 24 0 0
BITMAP
FFFC
FFFC
FFFC
FFFC
003C
007C
00FC
01F8
03F0
07E0
07E0
07F0
07F8
007C
003C
003C
003C
F03C
F03C
F87C
FFFC
7FF8
3FF0
0FC0
ENDCHAR
STARTCHAR 4
ENCODING 52
SWIDTH 75 0
DWIDTH -1 0
BBX 14 24 0 0
BITMAP
01F0
03F0
03F0
07F0
07F0
0FF0
1FF0
1EF0
3CF0
3CF0
78F0
78F0
F0F0
F0F0
FFFC
FFFC
FFFC
FFFC
00F0
00F0
00F0
00F0
00F0
00F0
ENDCHAR
STARTCHAR 5
ENCODING 53
SWIDTH 75 0
DWIDTH -1 0
BBX 14 24 0 0
BITMAP
FFFC
FFFC
FFFC
FFFC
F000
F000
F000
F000
F000
FFF0
FFF8
FFFC
FFFC
007C
003C
003C
003C
F03C
F03C
F87C
FFFC
7FF8
3FF0
0FC0
ENDCHAR
STARTCHAR 6
ENCODING 54
SWIDTH 75 0
DWIDTH -1 0
BBX 14 24 0 0
BITMAP
1FF8
3FF8
7FF8
FFF8
F800
F000
F000
F000
F000
FFF0
FFF8
FFFC
FFFC
F87C
F03C
F03C
F03C
F03C
F03C
F87C
FFFC
7FF8
3FF0
0FC0
ENDCHAR
STARTCHAR 7
ENCODING 55
SWIDTH 75 0
DWIDTH -1 0
BBX 14 24 0 0
BITMAP
FFFC
FFFC
FFFC
FFFC
007C
007C
00F8
00F8
01F0
01E0
03E0
03C0
07C0
0780
0F80
0F00
0F00
0F00
0F00
0F00
0F00
0F00
0F00
0F00
ENDCHAR
STARTCHAR 8
ENCODING 56
SWIDTH 75 0
DWIDTH -1 0
BBX 14 24 0 0
BITMAP
1FE0
3FF0
7FF8
FFFC
F87C
F03C
F03C
F03C
F03C
F87C
7FF8
3FF0
3FF0
7FF8
F87C
F03C
F03C
F03C
F03C
F87C
FFFC
7FF8
3FF0
1FE0
ENDCHAR
STARTCHAR 9
ENCODING 57
SWIDTH 75 0
DWIDTH -1 0
BBX 14 24 0 0
BITMAP
1FE0
3FF0
7FF8
FFFC
F87C
F03C
F03C
F03C
F03C
F87C
FFFC
7FFC
3FFC
1FFC
003C
003C
003C
F03C
F03C
F87C
FFFC
7FF8
3FF0
0FC0
ENDCHAR
STARTCHAR :
ENCODING 58
SWIDTH 75 0
DWIDTH -1 0
BBX 3 9 0 1
BITMAP
E0
E0
E0
00
00
00
E0
E0
E0
ENDCHAR
STARTCHAR ;
ENCODING 59
SWIDTH 75 0
DWIDTH -1 0
BBX 4 9 0 1
BITMAP
70
70
70
00
00
70
70
60
80
ENDCHAR
STARTCHAR <
ENCODING 60
SWIDTH 75 0
DWIDTH -1 0
BBX 13 22 0 1
BITMAP
0038
0078
00F0
01E0
03C0
0780
0F00
1E00
3C00
7800
F000
F000
7800
3C00
1E00
0F00
0780
03C0
01E0
00F0
0078
0038
ENDCHAR
STARTCHAR =
ENCODING 61
SWIDTH 75 0
DWIDTH -1 0
BBX 11 6 0 2
BITMAP
FFE0
FFE0
0000
0000
FFE0
FFE0
ENDCHAR
STARTCHAR >
ENCODING 62
SWIDTH 75 0
DWIDTH -1 0
BBX 13 22 0 1
BITMAP
E000
F000
7800
3C00
1E00
0F00
0780
03C0
01E0
00F0
0078
0078
00F0
01E0
03C0
0780
0F00
1E00
3C00
7800
F000
E000
ENDCHAR
STARTCHAR ?
ENCODING 63
SWIDTH 75 0
DWIDTH -1 0
BBX 14 24 0 0
BITMAP
0FC0
3FF0
7FF8
FFFC
F87C
F03C
F03C
003C
007C
00F8
01F0
03E0
07C0
0780
0780
0780
0780
0780
0000
0000
0780
0780
0780
0780
ENDCHAR
STARTCHAR @
ENCODING 64
SWIDTH 75 0
DWIDTH -1 0
BBX 14 15 0 0
BITMAP
07C0
1FF0
3C78
7018
63CC
E7EC
CE6C
CC6C
CC6C
E7F8
63B8
7000
380C
1FF8
0FF0
ENDCHAR
STARTCHAR A
ENCODING 65
SWIDTH 75 0
DWIDTH -1 0
BBX 14 24 0 0
BITMAP
0780
0FC0
1FE0
3FF0
3FF0
7CF8
7878
7878
7878
7878
7FF8
7FF8
7FF8
7FF8
7878
7878
7878
7878
7878
7878
7878
FCFC
FCFC
FCFC
ENDCHAR
STARTCHAR B
ENCODING 66
SWIDTH 75 0
DWIDTH -1 0
BBX 14 24 0 0
BITMAP
FFE0
FFF0
FFF8
7FFC
787C
783C
783C
783C
783C
787C
7FF8
7FF0
7FF0
7FF8
787C
783C
783C
783C
783C
787C
7FFC
FFF8
FFF0
FFE0
ENDCHAR
STARTCHAR C
ENCODING 67
SWIDTH 75 0
DWIDTH -1 0
BBX 14 24 0 0
BITMAP
1FE0
3FF0
7FF8
FFFC
F87C
F03C
F03C
F000
F000
F000
F000
F000
F000
F000
F000
F000
F000
F03C
F03C
F87C
FFFC
7FF8
3FF0
1FE0
ENDCHAR
STARTCHAR D
ENCODING 68
SWIDTH 75 0
DWIDTH -1 0
BBX 14 24 0 0
BITMAP
FFE0
FFF0
FFF8
7FFC
787C
783C
783C
783C
783C
783C
783C
783C
783C
783C
783C
783C
783C
783C
783C
787C
7FFC
FFF8
FFF0
FFE0
ENDCHAR
STARTCHAR E
ENCODING 69
SWIDTH 75 0
DWIDTH -1 0
BBX 13 24 0 0
BITMAP
FFF8
FFF8
FFF8
7FF8
7838
7800
7800
7800
7800
79C0
7FC0
7FC0
7FC0
7FC0
79C0
7800
7800
7800
7800
7838
7FF8
FFF8
FFF8
FFF8
ENDCHAR
STARTCHAR F
ENCODING 70
SWIDTH 75 0
DWIDTH -1 0
BBX 13 24 0 0
BITMAP
FFF8
FFF8
FFF8
7FF8
7838
7800
7800
7800
7800
79C0
7FC0
7FC0
7FC0
7FC0
79C0
7800
7800
7800
7800
7800
7800
FC00
FC00
FC00
ENDCHAR
STARTCHAR G
ENCODING 71
SWIDTH 75 0
DWIDTH -1 0
BBX 14 24 0 0
BITMAP
1FC0
3FE0
7FF0
FFF8
F8F8
F078
F078
F000
F000
F000
F000
F000
F000
F000
F0FC
F0FC
F0FC
F078
F078
F878
FFF8
7FF0
3FE0
1FC0
ENDCHAR
STARTCHAR H
ENCODING 72
SWIDTH 75 0
DWIDTH -1 0
BBX 14 24 0 0
BITMAP
FCFC
FCFC
FCFC
7878
7878
7878
7878
7878
7878
7878
7FF8
7FF8
7FF8
7FF8
7878
7878
7878
7878
7878
7878
7878
FCFC
FCFC
FCFC
ENDCHAR
STARTCHAR I
ENCODING 73
SWIDTH 75 0
DWIDTH -1 0
BBX 8 24 0 0
BITMAP
FF
FF
FF
FF
3C
3C
3C
3C
3C
3C
3C
3C
3C
3C
3C
3C
3C
3C
3C
3C
FF
FF
FF
FF
ENDCHAR
STARTCHAR J
ENCODING 74
SWIDTH 75 0
DWIDTH -1 0
BBX 14 24 0 0
BITMAP
03FC
03FC
03FC
03FC
00F0
00F0
00F0
00F0
00F0
00F0
00F0
00F0
00F0
00F0
00F0
00F0
00F0
F0F0
F0F0
F9F0
FFF0
7FE0
3FC0
1F80
ENDCHAR
STARTCHAR K
ENCODING 75
SWIDTH 75 0
DWIDTH -1 0
BBX 14 24 0 0
BITMAP
FC7C
FC7C
FC7C
787C
787C
78F8
79F0
7BE0
7FC0
7F80
7F00
7E00
7E00
7F00
7F80
7FC0
7BE0
79F0
78F8
787C
787C
FC7C
FC7C
FC7C
ENDCHAR
STARTCHAR L
ENCODING 76
SWIDTH 75 0
DWIDTH -1 0
BBX 13 24 0 0
BITMAP
FC00
FC00
FC00
7800
7800
7800
7800
7800
7800
7800
7800
7800
7800
7800
7800
7800
7800
7800
7800
7838
7FF8
FFF8
FFF8
FFF8
ENDCHAR
STARTCHAR M
ENCODING 77
SWIDTH 75 0
DWIDTH -1 0
BBX 14 24 0 0
BITMAP
F87C
F87C
F87C
7CF8
7FF8
7FF8
7FF8
7FF8
7B78
7878
7878
7878
7878
7878
7878
7878
7878
7878
7878
7878
7878
FCFC
FCFC
FCFC
ENDCHAR
STARTCHAR N
ENCODING 78
SWIDTH 75 0
DWIDTH -1 0
BBX 14 24 0 0
BITMAP
F8FC
F8FC
F8FC
7C78
7C78
7C78
7E78
7E78
7E78
7F78
7F78
7FF8
7FF8
7BF8
7BF8
79F8
79F8
79F8
78F8
78F8
78F8
FC78
FC78
FC78
ENDCHAR
STARTCHAR O
ENCODING 79
SWIDTH 75 0
DWIDTH -1 0
BBX 14 24 0 0
BITMAP
1FE0
3FF0
7FF8
FFFC
F87C
F03C
F03C
F03C
F03C
F03C
F03C
F03C
F03C
F03C
F03C
F03C
F03C
F03C
F03C
F87C
FFFC
7FF8
3FF0
1FE0
ENDCHAR
STARTCHAR P
ENCODING 80
SWIDTH 75 0
DWIDTH -1 0
BBX 14 24 0 0
BITMAP
FFE0
FFF0
FFF8
7FFC
787C
783C
783C
783C
783C
787C
7FFC
7FF8
7FF0
7FE0
7800
7800
7800
7800
7800
7800
7800
FC00
FC00
FC00
ENDCHAR
STARTCHAR Q
ENCODING 81
SWIDTH 75 0
DWIDTH -1 0
BBX 14 24 0 0
BITMAP
1FE0
3FF0
7FF8
FFFC
F87C
F03C
F03C
F03C
F03C
F03C
F03C
F03C
F03C
F03C
F03C
F03C
F33C
F3BC
F1FC
F8F8
FFF0
7FF8
3FDC
1F8C
ENDCHAR
STARTCHAR R
ENCODING 82
SWIDTH 75 0
DWIDTH -1 0
BBX 14 24 0 0
BITMAP
FFE0
FFF0
FFF8
7FFC
787C
783C
783C
783C
783C
787C
7FF8
7FF0
7FC0
7FE0
7BF0
79F8
78FC
787C
783C
783C
783C
FC7C
FC7C
FC7C
ENDCHAR
STARTCHAR S
ENCODING 83
SWIDTH 75 0
DWIDTH -1 0
BBX 14 24 0 0
BITMAP
3FF0
7FF8
FFFC
FFFC
F83C
F03C
F000
F000
F800
FE00
7F80
3FC0
0FF0
03F8
00FC
007C
003C
F03C
F03C
F07C
FFFC
FFFC
7FF8
3FF0
ENDCHAR
STARTCHAR T
ENCODING 84
SWIDTH 75 0
DWIDTH -1 0
BBX 14 24 0 0
BITMAP
FFFC
FFFC
FFFC
FFFC
E79C
0780
0780
0780
0780
0780
0780
0780
0780
0780
0780
0780
0780
0780
0780
0780
0780
0FC0
0FC0
0FC0
ENDCHAR
STARTCHAR U
ENCODING 85
SWIDTH 75 0
DWIDTH -1 0
BBX 14 24 0 0
BITMAP
FCFC
FCFC
FCFC
7878
7878
7878
7878
7878
7878
7878
7878
7878
7878
7878
7878
7878
7878
7878
7878
7CF8
7FF8
7FF8
3FF0
0FC0
ENDCHAR
STARTCHAR V
ENCODING 86
SWIDTH 75 0
DWIDTH -1 0
BBX 14 24 0 0
BITMAP
FCFC
FCFC
FCFC
7878
7878
7878
7878
7878
7878
3CF0
3CF0
3CF0
1CE0
1FE0
1FE0
0FC0
0FC0
0FC0
0780
0780
0780
0300
0300
0300
ENDCHAR
STARTCHAR W
ENCODING 87
SWIDTH 75 0
DWIDTH -1 0
BBX 14 24 0 0
BITMAP
FCFC
FCFC
FCFC
7878
7878
7878
7878
7878
7878
7878
7878
7878
7878
7878
7878
7878
7878
7878
7B78
7FF8
7FF8
3FF0
1CE0
0840
ENDCHAR
STARTCHAR X
ENCODING 88
SWIDTH 75 0
DWIDTH -1 0
BBX 14 24 0 0
BITMAP
FCFC
FCFC
FCFC
7878
7878
7878
7878
7878
7CF8
3FF0
1FE0
0FC0
0FC0
1FE0
3FF0
7CF8
7878
7878
7878
7878
7878
FCFC
FCFC
FCFC
ENDCHAR
STARTCHAR Y
ENCODING 89
SWIDTH 75 0
DWIDTH -1 0
BBX 14 24 0 0
BITMAP
FCFC
FCFC
FCFC
7878
7878
7878
7878
7878
7CF8
3FF0
1FE0
0FC0
0780
0780
0780
0780
0780
0780
0780
0780
0780
1FE0
1FE0
1FE0
ENDCHAR
STARTCHAR Z
ENCODING 90
SWIDTH 75 0
DWIDTH -1 0
BBX 14 24 0 0
BITMAP
FFFC
FFFC
FFFC
FFFC
F07C
007C
007C
007C
00F8
01F0
03E0
07C0
0F80
1F00
3E00
7C00
F800
F800
F800
F83C
FFFC
FFFC
FFFC
FFFC
ENDCHAR
STARTCHAR [
ENCODING 91
SWIDTH 75 0
DWIDTH -1 0
BBX 5 24 0 0
BITMAP
F8
F8
C0
C0
C0
C0
C0
C0
C0
C0
C0
C0
C0
C0
C0
C0
C0
C0
C0
C0
C0
C0
F8
F8
ENDCHAR
STARTCHAR \
ENCODING 92
SWIDTH 75 0
DWIDTH -1 0
BBX 12 22 0 1
BITMAP
C000
C000
6000
6000
3000
3000
1800
1800
0C00
0C00
0600
0600
0300
0300
0180
0180
00C0
00C0
0060
0060
0030
0030
ENDCHAR
STARTCHAR ]
ENCODING 93
SWIDTH 75 0
DWIDTH -1 0
BBX 5 24 0 0
BITMAP
F8
F8
18
18
18
18
18
18
18
18
18
18
18
18
18
18
18
18
18
18
18
18
F8
F8
ENDCHAR
STARTCHAR ^
ENCODING 94
SWIDTH 75 0
DWIDTH -1 0
BBX 8 4 0 16
BITMAP
18
3C
66
C3
ENDCHAR
STARTCHAR _
ENCODING 95
SWIDTH 75 0
DWIDTH -1 0
BBX 11 3 0 1
BITMAP
FFE0
FFE0
FFE0
ENDCHAR
STARTCHAR `
ENCODING 96
SWIDTH 75 0
DWIDTH -1 0
BBX 4 5 0 19
BITMAP
E0
E0
E0
60
10
ENDCHAR
STARTCHAR a
ENCODING 97
SWIDTH 75 0
DWIDTH -1 0
BBX 14 14 0 0
BITMAP
1FC0
7FF0
C078
0038
3F3C
7FBC
FFFC
F0FC
E07C
E07C
F0FC
FFFC
7FBC
3F3C
ENDCHAR
STARTCHAR b
ENCODING 98
SWIDTH 75 0
DWIDTH -1 0
BBX 14 24 0 0
BITMAP
F000
F000
F000
F000
F000
F000
F000
F000
F000
F000
F7F0
FFF8
FFFC
FC3C
F81C
F81C
F81C
F81C
F81C
F81C
FC3C
FFFC
FFF8
F7F0
ENDCHAR
STARTCHAR c
ENCODING 99
SWIDTH 75 0
DWIDTH -1 0
BBX 13 14 0 0
BITMAP
3FE0
7FF0
FFF8
F838
F000
F000
F000
F000
F000
F000
F838
FFF8
7FF0
3FE0
ENDCHAR
STARTCHAR d
ENCODING 100
SWIDTH 75 0
DWIDTH -1 0
BBX 14 24 0 0
BITMAP
003C
003C
003C
003C
003C
003C
003C
003C
003C
003C
3FBC
7FFC
FFFC
F0FC
E07C
E07C
E07C
E07C
E07C
E07C
F0FC
FFFC
7FFC
3FBC
ENDCHAR
STARTCHAR e
ENCODING 101
SWIDTH 75 0
DWIDTH -1 0
BBX 13 14 0 0
BITMAP
3FE0
7FF0
FFF8
F078
E038
E038
FFF8
FFF8
FFF0
E000
F000
FFF0
7FF0
3FE0
ENDCHAR
STARTCHAR f
ENCODING 102
SWIDTH 75 0
DWIDTH -1 0
BBX 13 24 0 0
BITMAP
1FC0
3FE0
7FF0
7CF8
7878
7878
7800
7800
7800
7800
FF00
FF00
FF00
FF00
7800
7800
7800
7800
7800
7800
7800
7800
7800
7800
ENDCHAR
STARTCHAR g
ENCODING 103
SWIDTH 75 0
DWIDTH -1 0
BBX 13 14 0 0
BITMAP
3F78
7FF8
FFF8
F0F8
E078
E078
F0F8
7FF8
3F78
0078
00F8
7FF8
7FF0
3FE0
ENDCHAR
STARTCHAR h
ENCODING 104
SWIDTH 75 0
DWIDTH -1 0
BBX 13 24 0 0
BITMAP
F000
F000
F000
F000
F000
F000
F000
F000
F000
F000
F3E0
F7F0
FFF8
FCF8
F878
F078
F078
F078
F078
F078
F078
F078
F078
F078
ENDCHAR
STARTCHAR i
ENCODING 105
SWIDTH 75 0
DWIDTH -1 0
BBX 8 20 0 0
BITMAP
3C
3C
3C
3C
00
00
FC
FC
FC
3C
3C
3C
3C
3C
3C
3C
FF
FF
FF
FF
ENDCHAR
STARTCHAR j
ENCODING 106
SWIDTH 75 0
DWIDTH -1 0
BBX 13 20 0 0
BITMAP
01E0
01E0
01E0
01E0
0000
0000
07F8
07F8
07F8
01E0
01E0
01E0
01E0
01E0
01E0
F1E0
F1E0
FBE0
7FC0
3F80
ENDCHAR
STARTCHAR k
ENCODING 107
SWIDTH 75 0
DWIDTH -1 0
BBX 13 24 0 0
BITMAP
F000
F000
F000
F000
F000
F000
F000
F000
F000
F000
F0F8
F1F0
F3E0
F7C0
FF80
FF00
FE00
FE00
FF00
FF80
F7C0
F3E0
F1F0
F0F8
ENDCHAR
STARTCHAR l
ENCODING 108
SWIDTH 75 0
DWIDTH -1 0
BBX 8 24 0 0
BITMAP
FC
FC
FC
FC
3C
3C
3C
3C
3C
3C
3C
3C
3C
3C
3C
3C
3C
3C
3C
3C
FF
FF
FF
FF
ENDCHAR
STARTCHAR m
ENCODING 109
SWIDTH 75 0
DWIDTH -1 0
BBX 14 14 0 0
BITMAP
F738
FBDC
F39C
F39C
F39C
F39C
F39C
F39C
F39C
F39C
F39C
F39C
F39C
F39C
ENDCHAR
STARTCHAR n
ENCODING 110
SWIDTH 75 0
DWIDTH -1 0
BBX 12 14 0 0
BITMAP
F3C0
F7E0
F9F0
F0F0
F0F0
F0F0
F0F0
F0F0
F0F0
F0F0
F0F0
F0F0
F0F0
F0F0
ENDCHAR
STARTCHAR o
ENCODING 111
SWIDTH 75 0
DWIDTH -1 0
BBX 14 14 0 0
BITMAP
1FE0
3FF0
7FF8
F87C
F03C
E01C
E01C
E01C
E01C
F03C
F87C
7FF8
3FF0
1FE0
ENDCHAR
STARTCHAR p
ENCODING 112
SWIDTH 75 0
DWIDTH -1 0
BBX 13 14 0 0
BITMAP
F7E0
FFF0
F878
F038
F038
F038
F878
FFF0
F7E0
F000
F000
F000
F000
F000
ENDCHAR
STARTCHAR q
ENCODING 113
SWIDTH 75 0
DWIDTH -1 0
BBX 13 14 0 0
BITMAP
3F78
7FF8
F0F8
E078
E078
E078
F0F8
7FF8
3F78
0078
0078
0078
0078
0078
ENDCHAR
STARTCHAR r
ENCODING 114
SWIDTH 75 0
DWIDTH -1 0
BBX 13 14 0 0
BITMAP
F7E0
FFF0
F8F8
F078
F078
F000
F000
F000
F000
F000
F000
F000
F000
F000
ENDCHAR
STARTCHAR s
ENCODING 115
SWIDTH 75 0
DWIDTH -1 0
BBX 13 14 0 0
BITMAP
3FE0
7FF0
FFF0
E000
E000
FFC0
7FF0
3FF8
0078
0038
E078
FFF8
FFF0
7FE0
ENDCHAR
STARTCHAR t
ENCODING 116
SWIDTH 75 0
DWIDTH -1 0
BBX 12 24 0 0
BITMAP
3C00
3C00
3C00
3C00
3C00
3C00
3C00
3C00
3C00
3C00
FF00
FF00
FF00
FF00
3C00
3C00
3C00
3C00
3C00
3C00
3CF0
3FF0
3FF0
1FE0
ENDCHAR
STARTCHAR u
ENCODING 117
SWIDTH 75 0
DWIDTH -1 0
BBX 13 14 0 0
BITMAP
F078
F078
F078
F078
F078
F078
F078
F078
F078
F078
F8F8
FFF8
7FB8
3F38
ENDCHAR
STARTCHAR v
ENCODING 118
SWIDTH 75 0
DWIDTH -1 0
BBX 12 14 0 0
BITMAP
F0F0
F0F0
F0F0
F0F0
F0F0
F0F0
F0F0
F0F0
F9F0
7FE0
3FC0
1F80
0F00
0600
ENDCHAR
STARTCHAR w
ENCODING 119
SWIDTH 75 0
DWIDTH -1 0
BBX 13 14 0 0
BITMAP
F078
F078
F078
F078
F078
F078
F078
F278
F778
FFF8
FFF8
7FF0
3DE0
18C0
ENDCHAR
STARTCHAR x
ENCODING 120
SWIDTH 75 0
DWIDTH -1 0
BBX 13 14 0 0
BITMAP
F078
F078
F078
78F0
3DE0
1FC0
0F80
0F80
1FC0
3DE0
78F0
F078
F078
F078
ENDCHAR
STARTCHAR y
ENCODING 121
SWIDTH 75 0
DWIDTH -1 0
BBX 13 14 0 0
BITMAP
F078
F078
F078
F078
F078
FFF8
7FF8
3FF8
0078
0078
0070
7FF0
7FE0
7FC0
ENDCHAR
STARTCHAR z
ENCODING 122
SWIDTH 75 0
DWIDTH -1 0
BBX 12 14 0 0
BITMAP
FFF0
FFF0
FFF0
01F0
03E0
07C0
0F80
1F00
3E00
7C00
F800
FFF0
FFF0
FFF0
ENDCHAR
STARTCHAR {
ENCODING 123
SWIDTH 75 0
DWIDTH -1 0
BBX 6 24 0 0
BITMAP
0C
18
10
30
30
30
30
30
30
30
30
70
F0
70
30
30
30
30
30
30
30
10
18
0C
ENDCHAR
STARTCHAR |
ENCODING 124
SWIDTH 75 0
DWIDTH -1 0
BBX 0 0 14 23
ENDCHAR
STARTCHAR }
ENCODING 125
SWIDTH 75 0
DWIDTH -1 0
BBX 6 24 0 0
BITMAP
C0
60
20
20
30
30
30
30
30
30
30
38
3C
38
30
30
30
30
30
30
30
20
60
C0
ENDCHAR
STARTCHAR ~
ENCODING 126
SWIDTH 75 0
DWIDTH -1 0
BBX 12 7 0 5
BITMAP
3800
7C00
FE10
CF30
87F0
03E0
01C0
ENDCHAR
STARTCHAR 
ENCODING 127
SWIDTH 75 0
DWIDTH -1 0
BBX 0 0 14 23
ENDCHAR
STARTCHAR f
ENCODING 102
SWIDTH 75 0
DWIDTH -1 0
BBX 0 0 14 23
ENDCHAR
STARTCHAR ¡
ENCODING -95
SWIDTH 75 0
DWIDTH -1 0
BBX 0 0 14 23
ENDCHAR
STARTCHAR £
ENCODING -93
SWIDTH 75 0
DWIDTH -1 0
BBX 0 0 14 23
ENDCHAR
STARTCHAR ª
ENCODING -86
SWIDTH 75 0
DWIDTH -1 0
BBX 0 0 14 23
ENDCHAR
STARTCHAR «
ENCODING -85
SWIDTH 75 0
DWIDTH -1 0
BBX 12 12 0 2
BITMAP
0630
0E70
1CE0
39C0
7380
E700
E700
7380
39C0
1CE0
0E70
0630
ENDCHAR
STARTCHAR ¬
ENCODING -84
SWIDTH 75 0
DWIDTH -1 0
BBX 0 0 14 23
ENDCHAR
STARTCHAR ®
ENCODING -82
SWIDTH 75 0
DWIDTH -1 0
BBX 0 0 14 23
ENDCHAR
STARTCHAR º
ENCODING -70
SWIDTH 75 0
DWIDTH -1 0
BBX 0 0 14 23
ENDCHAR
STARTCHAR »
ENCODING -69
SWIDTH 75 0
DWIDTH -1 0
BBX 12 12 0 2
BITMAP
C600
E700
7380
39C0
1CE0
0E70
0E70
1CE0
39C0
7380
E700
C600
ENDCHAR
STARTCHAR  
ENCODING 32
SWIDTH 75 0
DWIDTH -1 0
BBX 13 13 0 1
BITMAP
3018
7038
B070
30E0
31D0
33B0
3770
0EB0
1D30
3BF8
73F8
E030
C030
ENDCHAR
STARTCHAR  
ENCODING 32
SWIDTH 75 0
DWIDTH -1 0
BBX 13 13 0 1
BITMAP
3018
7038
B070
30E0
31C0
3380
3770
0EF8
1C18
3878
70F0
E0C0
C0F8
ENDCHAR
STARTCHAR ¿
ENCODING -65
SWIDTH 75 0
DWIDTH -1 0
BBX 0 0 14 23
ENDCHAR
STARTCHAR Ä
ENCODING -60
SWIDTH 75 0
DWIDTH -1 0
BBX 14 24 0 0
BITMAP
1CE0
1CE0
1CE0
0000
0000
0FC0
1FE0
3FF0
3FF0
7CF8
7878
7878
7878
7878
7FF8
7FF8
7FF8
7878
7878
7878
7878
FCFC
FCFC
FCFC
ENDCHAR
STARTCHAR Å
ENCODING -59
SWIDTH 75 0
DWIDTH -1 0
BBX 14 24 0 0
BITMAP
0300
0480
0480
0300
0000
0FC0
1FE0
3FF0
3FF0
7CF8
7878
7878
7878
7878
7FF8
7FF8
7FF8
7878
7878
7878
7878
FCFC
FCFC
FCFC
ENDCHAR
STARTCHAR Æ
ENCODING -58
SWIDTH 75 0
DWIDTH -1 0
BBX 0 0 14 23
ENDCHAR
STARTCHAR Ç
ENCODING -57
SWIDTH 75 0
DWIDTH -1 0
BBX 13 14 0 0
BITMAP
0FE0
1FF0
3FF8
3818
FF00
FF00
3800
FF00
FF00
3800
3C18
3FF8
1FF0
0FE0
ENDCHAR
STARTCHAR É
ENCODING -55
SWIDTH 75 0
DWIDTH -1 0
BBX 13 24 0 0
BITMAP
0180
0300
0600
0C00
0000
FFF8
FFF8
FFF8
7838
7800
7800
7800
79C0
7FC0
7FC0
7FC0
79C0
7800
7800
7800
7838
FFF8
FFF8
FFF8
ENDCHAR
STARTCHAR Ñ
ENCODING -47
SWIDTH 75 0
DWIDTH -1 0
BBX 0 0 14 23
ENDCHAR
STARTCHAR Ö
ENCODING -42
SWIDTH 75 0
DWIDTH -1 0
BBX 0 0 14 23
ENDCHAR
STARTCHAR ×
ENCODING -41
SWIDTH 75 0
DWIDTH -1 0
BBX 0 0 14 23
ENDCHAR
STARTCHAR Ø
ENCODING -40
SWIDTH 75 0
DWIDTH -1 0
BBX 0 0 14 23
ENDCHAR
STARTCHAR Ü
ENCODING -36
SWIDTH 75 0
DWIDTH -1 0
BBX 0 0 14 23
ENDCHAR
STARTCHAR à
ENCODING -32
SWIDTH 75 0
DWIDTH -1 0
BBX 14 20 0 0
BITMAP
0E00
0700
0380
01C0
0000
0000
1FC0
7FF0
C078
0038
3F3C
7FBC
FFFC
F0FC
E07C
E07C
F0FC
FFFC
7FBC
3F3C
ENDCHAR
STARTCHAR á
ENCODING -31
SWIDTH 75 0
DWIDTH -1 0
BBX 0 0 14 23
ENDCHAR
STARTCHAR â
ENCODING -30
SWIDTH 75 0
DWIDTH -1 0
BBX 14 20 0 0
BITMAP
0300
0780
0CC0
1860
0000
0000
1FC0
7FF0
C078
0038
3F3C
7FBC
FFFC
F0FC
E07C
E07C
F0FC
FFFC
7FBC
3F3C
ENDCHAR
STARTCHAR ä
ENCODING -28
SWIDTH 75 0
DWIDTH -1 0
BBX 14 19 0 0
BITMAP
38E0
38E0
38E0
0000
0000
1FC0
7FF0
C078
0038
3F3C
7FBC
FFFC
F0FC
E07C
E07C
F0FC
FFFC
7FBC
3F3C
ENDCHAR
STARTCHAR å
ENCODING -27
SWIDTH 75 0
DWIDTH -1 0
BBX 14 21 0 0
BITMAP
0700
0880
0880
0880
0700
0000
0000
1FC0
7FF0
C078
0038
3F3C
7FBC
FFFC
F0FC
E07C
E07C
F0FC
FFFC
7FBC
3F3C
ENDCHAR
STARTCHAR æ
ENCODING -26
SWIDTH 75 0
DWIDTH -1 0
BBX 0 0 14 23
ENDCHAR
STARTCHAR ç
ENCODING -25
SWIDTH 75 0
DWIDTH -1 0
BBX 13 14 0 0
BITMAP
3FE0
7FF0
FFF8
F838
F000
F000
F000
F000
F838
FFF8
7FF8
3FF0
0600
3E00
ENDCHAR
STARTCHAR è
ENCODING -24
SWIDTH 75 0
DWIDTH -1 0
BBX 13 20 0 0
BITMAP
0E00
0700
0380
01C0
0000
0000
3FE0
7FF0
FFF8
F078
E038
E038
FFF8
FFF8
FFF0
E000
F000
FFF0
7FF0
3FE0
ENDCHAR
STARTCHAR é
ENCODING -23
SWIDTH 75 0
DWIDTH -1 0
BBX 13 20 0 0
BITMAP
01C0
0380
0700
0E00
0000
0000
3FE0
7FF0
FFF8
F078
E038
E038
FFF8
FFF8
FFF0
E000
F000
FFF0
7FF0
3FE0
ENDCHAR
STARTCHAR ê
ENCODING -22
SWIDTH 75 0
DWIDTH -1 0
BBX 13 20 0 0
BITMAP
0300
0780
0CC0
1860
0000
0000
3FE0
7FF0
FFF8
F078
E038
E038
FFF8
FFF8
FFF0
E000
F000
FFF0
7FF0
3FE0
ENDCHAR
STARTCHAR ë
ENCODING -21
SWIDTH 75 0
DWIDTH -1 0
BBX 13 19 0 0
BITMAP
38E0
38E0
38E0
0000
0000
3FE0
7FF0
FFF8
F078
E038
E038
FFF8
FFF8
FFF0
E000
F000
FFF0
7FF0
3FE0
ENDCHAR
STARTCHAR ì
ENCODING -20
SWIDTH 75 0
DWIDTH -1 0
BBX 8 20 0 0
BITMAP
60
30
18
0C
00
00
FC
FC
FC
3C
3C
3C
3C
3C
3C
3C
FF
FF
FF
FF
ENDCHAR
STARTCHAR í
ENCODING -19
SWIDTH 75 0
DWIDTH -1 0
BBX 0 0 14 23
ENDCHAR
STARTCHAR î
ENCODING -18
SWIDTH 75 0
DWIDTH -1 0
BBX 8 20 0 0
BITMAP
18
3C
66
C3
00
00
FC
FC
FC
3C
3C
3C
3C
3C
3C
3C
FF
FF
FF
FF
ENDCHAR
STARTCHAR ï
ENCODING -17
SWIDTH 75 0
DWIDTH -1 0
BBX 8 19 0 0
BITMAP
E7
E7
E7
00
00
7C
7C
7C
1C
1C
1C
1C
1C
1C
1C
7F
7F
7F
7F
ENDCHAR
STARTCHAR ñ
ENCODING -15
SWIDTH 75 0
DWIDTH -1 0
BBX 0 0 14 23
ENDCHAR
STARTCHAR ò
ENCODING -14
SWIDTH 75 0
DWIDTH -1 0
BBX 14 20 0 0
BITMAP
0C00
0600
0300
0180
0000
0000
1FE0
3FF0
7FF8
F87C
F03C
E01C
E01C
E01C
E01C
F03C
F87C
7FF8
3FF0
1FE0
ENDCHAR
STARTCHAR ó
ENCODING -13
SWIDTH 75 0
DWIDTH -1 0
BBX 0 0 14 23
ENDCHAR
STARTCHAR ô
ENCODING -12
SWIDTH 75 0
DWIDTH -1 0
BBX 14 20 0 0
BITMAP
0300
0780
0CC0
1860
0000
0000
1FE0
3FF0
7FF8
F87C
F03C
E01C
E01C
E01C
E01C
F03C
F87C
7FF8
3FF0
1FE0
ENDCHAR
STARTCHAR ö
ENCODING -10
SWIDTH 75 0
DWIDTH -1 0
BBX 14 19 0 0
BITMAP
1CE0
1CE0
1CE0
0000
0000
1FE0
3FF0
7FF8
F87C
F03C
E01C
E01C
E01C
E01C
F03C
F87C
7FF8
3FF0
1FE0
ENDCHAR
STARTCHAR ø
ENCODING -8
SWIDTH 75 0
DWIDTH -1 0
BBX 0 0 14 23
ENDCHAR
STARTCHAR ù
ENCODING -7
SWIDTH 75 0
DWIDTH -1 0
BBX 13 20 0 0
BITMAP
0C00
0600
0300
0180
0000
0000
F078
F078
F078
F078
F078
F078
F078
F078
F078
F078
F8F8
FFF8
F7F0
F3E0
ENDCHAR
STARTCHAR ú
ENCODING -6
SWIDTH 75 0
DWIDTH -1 0
BBX 0 0 14 23
ENDCHAR
STARTCHAR û
ENCODING -5
SWIDTH 75 0
DWIDTH -1 0
BBX 13 20 0 0
BITMAP
0300
0780
0CC0
1860
0000
0000
F078
F078
F078
F078
F078
F078
F078
F078
F078
F078
F8F8
FFF8
F7F0
F3E0
ENDCHAR
STARTCHAR ü
ENCODING -4
SWIDTH 75 0
DWIDTH -1 0
BBX 13 19 0 0
BITMAP
38E0
38E0
38E0
0000
0000
F078
F078
F078
F078
F078
F078
F078
F078
F078
F078
F8F8
FFF8
F7F0
F3E0
ENDCHAR
STARTCHAR ÿ
ENCODING -1
SWIDTH 75 0
DWIDTH -1 0
BBX 13 19 0 0
BITMAP
38E0
38E0
38E0
0000
0000
F078
F078
F078
F078
F078
FFF8
7FF8
3FF8
0078
0078
0070
7FF0
7FE0
7FC0
ENDCHAR
ENDFONT
